G04 Layer_Color=255*
%FSLAX44Y44*%
%MOMM*%
G71*
G01*
G75*
%ADD25R,1.0160X1.3970*%
%ADD66C,1.8000*%
%ADD67C,2.5000*%
%ADD68C,3.2500*%
%ADD69C,2.4000*%
%ADD70C,1.5200*%
%ADD71C,1.3900*%
%ADD72C,1.5750*%
%ADD73C,2.3250*%
%ADD74C,1.5000*%
%ADD75R,1.5000X1.5000*%
%ADD76C,1.4224*%
%ADD77C,3.0000*%
%ADD78C,0.5000*%
%ADD79C,1.1000*%
%ADD80C,2.8300*%
%ADD81C,2.3800*%
D25*
X1165898Y656500D02*
D03*
X1147102D02*
D03*
X1160398Y618750D02*
D03*
X1141602D02*
D03*
X1180852Y640000D02*
D03*
X1199648D02*
D03*
X1180852Y623250D02*
D03*
X1199648D02*
D03*
D66*
X1377500Y47000D02*
D03*
D67*
Y715000D02*
D03*
D68*
X1528150Y936950D02*
D03*
X1413850D02*
D03*
D69*
X1549750Y906450D02*
D03*
X1392250D02*
D03*
D70*
X1407750Y970750D02*
D03*
X1433150Y985950D02*
D03*
X1508850Y970750D02*
D03*
X1534250Y985950D02*
D03*
D71*
X1426550Y848050D02*
D03*
X1439250Y873450D02*
D03*
X1451950Y848050D02*
D03*
X1464650Y873450D02*
D03*
X1477350Y848050D02*
D03*
X1490050Y873450D02*
D03*
X1502750Y848050D02*
D03*
X1515450Y873450D02*
D03*
D72*
X442940Y983380D02*
D03*
X397940D02*
D03*
D73*
X455440Y958380D02*
D03*
X385440D02*
D03*
D74*
X819000Y161600D02*
D03*
Y78400D02*
D03*
X1298550Y913250D02*
D03*
X1228550D02*
D03*
X1298550Y887150D02*
D03*
X1273550D02*
D03*
X1253550D02*
D03*
X1228550D02*
D03*
X1130550Y913250D02*
D03*
X1060550D02*
D03*
X1130550Y887150D02*
D03*
X1060550D02*
D03*
X1105550D02*
D03*
X1085550D02*
D03*
Y913250D02*
D03*
X1105550D02*
D03*
X1253550D02*
D03*
X1273550D02*
D03*
D75*
X819000Y187000D02*
D03*
Y53000D02*
D03*
D76*
X294010Y128680D02*
D03*
X494010D02*
D03*
D77*
X57000Y72000D02*
D03*
Y662000D02*
D03*
X1737000Y72000D02*
D03*
X1742000Y661000D02*
D03*
X1190000Y301021D02*
D03*
X610000Y302021D02*
D03*
X1189000Y793021D02*
D03*
X610000Y792000D02*
D03*
D78*
X656000Y969740D02*
D03*
X737000D02*
D03*
D79*
X113500Y979500D02*
D03*
D80*
X66500Y904500D02*
D03*
X113500Y934500D02*
D03*
Y874500D02*
D03*
D81*
X1329250Y883650D02*
D03*
X1197850D02*
D03*
Y940450D02*
D03*
X1329250D02*
D03*
X1161250Y883650D02*
D03*
X1029850D02*
D03*
Y940450D02*
D03*
X1161250D02*
D03*
M02*
