G04 Layer_Physical_Order=6*
G04 Layer_Color=16711680*
%FSLAX44Y44*%
%MOMM*%
G71*
G01*
G75*
%ADD25R,1.0160X1.3970*%
%ADD60C,0.4000*%
%ADD61C,0.2400*%
%ADD62C,0.2000*%
%ADD64C,0.4500*%
%ADD65C,0.2500*%
%ADD66C,1.8000*%
%ADD67C,2.5000*%
%ADD68C,3.2500*%
%ADD69C,2.4000*%
%ADD70C,1.5200*%
%ADD71C,1.3900*%
%ADD72C,1.5750*%
%ADD73C,2.3250*%
%ADD74C,1.5000*%
%ADD75R,1.5000X1.5000*%
%ADD76C,1.4224*%
%ADD77C,3.0000*%
%ADD78C,0.5000*%
%ADD79C,1.1000*%
%ADD80C,2.8300*%
%ADD81C,2.3800*%
%ADD82C,0.4500*%
%ADD83C,0.3000*%
G36*
X499377Y140190D02*
X505944Y133024D01*
X505520Y123313D01*
X498354Y116746D01*
X488643Y117170D01*
X482076Y124336D01*
X482500Y134047D01*
X489666Y140614D01*
X499377Y140190D01*
D02*
G37*
G36*
X299377D02*
X305944Y133024D01*
X305520Y123313D01*
X298354Y116746D01*
X288643Y117170D01*
X282076Y124336D01*
X282500Y134047D01*
X289666Y140614D01*
X299377Y140190D01*
D02*
G37*
D25*
X1165898Y656500D02*
D03*
X1147102D02*
D03*
X1160398Y618750D02*
D03*
X1141602D02*
D03*
X1180852Y640000D02*
D03*
X1199648D02*
D03*
X1180852Y623250D02*
D03*
X1199648D02*
D03*
D60*
X225500Y133750D02*
Y660750D01*
X350500Y705750D02*
X385750Y741000D01*
X270500Y705750D02*
X350500D01*
X225500Y660750D02*
X270500Y705750D01*
X385750Y741000D02*
Y761500D01*
X300000Y59250D02*
X694000D01*
X225500Y133750D02*
X300000Y59250D01*
X366750Y839250D02*
X367000Y839500D01*
X396250D01*
X371750Y922000D02*
Y944690D01*
X385440Y958380D01*
X399280Y894470D02*
X432280D01*
X371750Y922000D02*
X399280Y894470D01*
X396250Y839500D02*
X418250Y861500D01*
X440000D01*
X459720Y881220D01*
Y900970D01*
X262250Y846750D02*
Y874000D01*
Y846750D02*
X283000Y826000D01*
X448750D01*
X459168Y836418D01*
Y845168D01*
X694000Y59250D02*
X725500Y27750D01*
X1199000Y86250D02*
X1219750Y107000D01*
X1273000D01*
X725500Y27750D02*
X1184000D01*
X1199000Y42750D01*
Y86250D01*
X1199648Y623250D02*
X1210750D01*
D61*
X526750Y434000D02*
X557250Y403500D01*
Y294250D02*
Y403500D01*
Y294250D02*
X603000Y248500D01*
X520750Y424000D02*
X547500Y397250D01*
Y290500D02*
Y397250D01*
Y290500D02*
X590000Y248000D01*
X603000Y158330D02*
Y248500D01*
Y158330D02*
X608290Y153040D01*
X590000Y156680D02*
Y248000D01*
Y156680D02*
X595590Y151090D01*
X329000Y424000D02*
X520750D01*
X329000Y434000D02*
X526750D01*
X983000Y174000D02*
X1110000D01*
X595590Y136160D02*
Y151090D01*
Y136160D02*
X632750Y99000D01*
X608290Y136960D02*
Y153040D01*
Y136960D02*
X636750Y108500D01*
X632750Y99000D02*
X830250D01*
X636750Y108500D02*
X835750D01*
X980500Y80000D02*
X1146500D01*
X1268250Y201750D01*
X835750Y108500D02*
X851750Y92500D01*
X968000D01*
X980500Y80000D01*
X830250Y99000D02*
X845750Y83500D01*
X965250D01*
X969000Y79750D01*
X977000Y71750D01*
X1151500D01*
X1276500Y196750D01*
X1268250Y201750D02*
Y652500D01*
X1307250Y691500D01*
X1319250D01*
X1276500Y196750D02*
Y647500D01*
X1314500Y685500D01*
X1319250D01*
X1110000Y174000D02*
X1225000D01*
X1260000Y209000D01*
Y657750D01*
X1312000Y709750D01*
X1348500D01*
X1356000Y702250D01*
Y674000D02*
Y702250D01*
D62*
X232090Y801090D02*
X239090D01*
X243500Y805500D01*
Y864750D01*
X252750Y874000D01*
X262250D01*
X1141602Y618750D02*
Y634102D01*
X1147102Y639602D01*
Y656500D01*
Y671852D01*
X1199648Y623250D02*
Y640000D01*
X1199648Y623250D02*
X1199648Y623250D01*
X1055790Y669460D02*
Y699790D01*
X1094250Y738250D01*
X1318000D01*
X1069750Y701250D02*
X1101000Y732500D01*
X1337000D01*
X1439250Y834750D01*
X1560500D01*
X1318000Y738250D02*
X1352000Y772250D01*
Y833500D01*
X1147102Y671852D02*
X1158000Y682750D01*
X1184500D01*
X1199648Y667602D01*
Y640000D02*
Y667602D01*
X1056000Y662250D02*
X1064000D01*
X1069750Y668000D01*
Y701250D01*
D64*
X1735602Y217852D02*
Y516852D01*
X1668750Y151000D02*
X1735602Y217852D01*
X1271250Y151000D02*
X1668750D01*
X1271000Y150750D02*
X1271250Y151000D01*
D65*
X1173521Y640000D02*
X1180852D01*
X1172010Y638490D02*
X1173521Y640000D01*
X1172250Y623250D02*
X1180852D01*
X1166000Y644500D02*
Y656398D01*
X1165898Y656500D02*
X1166000Y656398D01*
X1164010Y628510D02*
X1165500Y630000D01*
X1164010Y622362D02*
Y628510D01*
X1160398Y618750D02*
X1164010Y622362D01*
D66*
X1377500Y47000D02*
D03*
D67*
Y715000D02*
D03*
D68*
X1528150Y936950D02*
D03*
X1413850D02*
D03*
D69*
X1549750Y906450D02*
D03*
X1392250D02*
D03*
D70*
X1407750Y970750D02*
D03*
X1433150Y985950D02*
D03*
X1508850Y970750D02*
D03*
X1534250Y985950D02*
D03*
D71*
X1426550Y848050D02*
D03*
X1439250Y873450D02*
D03*
X1451950Y848050D02*
D03*
X1464650Y873450D02*
D03*
X1477350Y848050D02*
D03*
X1490050Y873450D02*
D03*
X1502750Y848050D02*
D03*
X1515450Y873450D02*
D03*
D72*
X442940Y983380D02*
D03*
X397940D02*
D03*
D73*
X455440Y958380D02*
D03*
X385440D02*
D03*
D74*
X819000Y161600D02*
D03*
Y78400D02*
D03*
X1298550Y913250D02*
D03*
X1228550D02*
D03*
X1298550Y887150D02*
D03*
X1273550D02*
D03*
X1253550D02*
D03*
X1228550D02*
D03*
X1130550Y913250D02*
D03*
X1060550D02*
D03*
X1130550Y887150D02*
D03*
X1060550D02*
D03*
X1105550D02*
D03*
X1085550D02*
D03*
Y913250D02*
D03*
X1105550D02*
D03*
X1253550D02*
D03*
X1273550D02*
D03*
D75*
X819000Y187000D02*
D03*
Y53000D02*
D03*
D76*
X294010Y128680D02*
D03*
X494010D02*
D03*
D77*
X57000Y72000D02*
D03*
Y662000D02*
D03*
X1737000Y72000D02*
D03*
X1742000Y661000D02*
D03*
X1190000Y301021D02*
D03*
X610000Y302021D02*
D03*
X1189000Y793021D02*
D03*
X610000Y792000D02*
D03*
D78*
X656000Y969740D02*
D03*
X737000D02*
D03*
D79*
X113500Y979500D02*
D03*
D80*
X66500Y904500D02*
D03*
X113500Y934500D02*
D03*
Y874500D02*
D03*
D81*
X1329250Y883650D02*
D03*
X1197850D02*
D03*
Y940450D02*
D03*
X1329250D02*
D03*
X1161250Y883650D02*
D03*
X1029850D02*
D03*
Y940450D02*
D03*
X1161250D02*
D03*
D82*
X329000Y444000D02*
D03*
Y636000D02*
D03*
Y646000D02*
D03*
Y424000D02*
D03*
Y434000D02*
D03*
X1282250Y403500D02*
D03*
X343500Y415000D02*
D03*
X1285725Y397525D02*
D03*
X329000Y414000D02*
D03*
X369900Y762100D02*
D03*
X1110000Y174000D02*
D03*
X983000D02*
D03*
X942000Y109000D02*
D03*
X962000Y108000D02*
D03*
X980000D02*
D03*
X979000Y127000D02*
D03*
X942000Y128000D02*
D03*
X960000Y148000D02*
D03*
X978000Y149000D02*
D03*
X1186980Y150980D02*
D03*
X1700500Y930750D02*
D03*
X1749530Y885280D02*
D03*
X1738530Y885030D02*
D03*
X1716530D02*
D03*
X1694530Y910970D02*
D03*
X1672530Y910970D02*
D03*
X1437000Y634500D02*
D03*
Y628500D02*
D03*
Y646500D02*
D03*
Y652500D02*
D03*
Y664250D02*
D03*
Y670500D02*
D03*
X1319250Y691500D02*
D03*
Y685500D02*
D03*
X916000Y219500D02*
D03*
X938250D02*
D03*
X960000Y220000D02*
D03*
X981000Y221250D02*
D03*
X916000Y179750D02*
D03*
X960000Y180500D02*
D03*
X1003000Y220250D02*
D03*
X1061918Y40332D02*
D03*
X1006900Y66100D02*
D03*
X1042500Y211000D02*
D03*
X1095450Y124300D02*
D03*
X1095430Y110180D02*
D03*
X1266852Y67602D02*
D03*
X585100Y22850D02*
D03*
X608250Y23000D02*
D03*
X1498750Y570000D02*
D03*
X1498250Y498250D02*
D03*
X1418000Y747750D02*
D03*
X1440000Y747500D02*
D03*
X1705530Y884780D02*
D03*
X1053250Y746750D02*
D03*
X1082250Y748250D02*
D03*
X1104250Y748750D02*
D03*
X1127250Y749250D02*
D03*
X1149250Y749000D02*
D03*
X1196150Y746100D02*
D03*
X1080000Y579000D02*
D03*
X1041350Y633400D02*
D03*
X1137740Y588490D02*
D03*
X1041350Y661150D02*
D03*
X328500Y764750D02*
D03*
X423852Y839602D02*
D03*
X348000Y814500D02*
D03*
X468398Y934898D02*
D03*
X605000Y943250D02*
D03*
X627000Y943000D02*
D03*
X686000Y941750D02*
D03*
X708000Y942250D02*
D03*
X582890Y150110D02*
D03*
X633690Y150690D02*
D03*
X684490Y150490D02*
D03*
Y92490D02*
D03*
X646390Y92610D02*
D03*
X570190Y92810D02*
D03*
X568900Y23100D02*
D03*
X917000Y154000D02*
D03*
Y149000D02*
D03*
X918000Y129000D02*
D03*
X969000Y176000D02*
D03*
X1024000Y115000D02*
D03*
X1006000Y101000D02*
D03*
X924000Y37000D02*
D03*
X946000Y37000D02*
D03*
X969000Y37000D02*
D03*
X993000D02*
D03*
X942000Y149000D02*
D03*
X1181980Y127980D02*
D03*
X1150980Y97980D02*
D03*
X1095450Y53450D02*
D03*
X1184750Y68250D02*
D03*
X1071000Y197000D02*
D03*
X1356000Y674000D02*
D03*
X538770Y29230D02*
D03*
X16000Y767000D02*
D03*
X15934Y741000D02*
D03*
X212750Y849270D02*
D03*
X251000Y822000D02*
D03*
X261000D02*
D03*
X251250Y802500D02*
D03*
X261250Y802250D02*
D03*
X256030Y812340D02*
D03*
X231250Y810250D02*
D03*
X279910Y814590D02*
D03*
X213250Y775000D02*
D03*
X423000Y787250D02*
D03*
X397000Y804250D02*
D03*
X239000Y781000D02*
D03*
X301020Y840270D02*
D03*
X302020Y863270D02*
D03*
X284250Y872750D02*
D03*
X359250Y853750D02*
D03*
X349750Y890000D02*
D03*
X402000Y873500D02*
D03*
X605000Y982500D02*
D03*
X627000Y982000D02*
D03*
X686000Y980750D02*
D03*
X708000Y980500D02*
D03*
X1761680Y813250D02*
D03*
Y892500D02*
D03*
X1622500Y907500D02*
D03*
Y853500D02*
D03*
X1622680Y793000D02*
D03*
X1455000Y780750D02*
D03*
X1341631Y812131D02*
D03*
X1224750Y724750D02*
D03*
X1198750Y677500D02*
D03*
X1210750Y632000D02*
D03*
X1234250Y621000D02*
D03*
X1080000Y545000D02*
D03*
X1061000D02*
D03*
X1011750Y620000D02*
D03*
X1011000Y675000D02*
D03*
X1028390Y824390D02*
D03*
X1079500Y679750D02*
D03*
X1099000Y679250D02*
D03*
X1129250Y678750D02*
D03*
X1079750Y663500D02*
D03*
X1098250Y665750D02*
D03*
X1128000Y665500D02*
D03*
X1079250Y648750D02*
D03*
X1099500Y650500D02*
D03*
X1128500D02*
D03*
X1078750Y632500D02*
D03*
X1078500Y619250D02*
D03*
X1099000Y619500D02*
D03*
X1130000Y638750D02*
D03*
X1497500Y603000D02*
D03*
X1499250Y546000D02*
D03*
X1158590Y182590D02*
D03*
X1276250Y129000D02*
D03*
X1303000Y59000D02*
D03*
X1321750Y679500D02*
D03*
X1318000Y18000D02*
D03*
X371750Y922000D02*
D03*
X432280Y894470D02*
D03*
X494000Y900000D02*
D03*
X459720Y900970D02*
D03*
X366750Y839250D02*
D03*
X459168Y845168D02*
D03*
X262250Y874000D02*
D03*
X232090Y801090D02*
D03*
X287000Y988500D02*
D03*
X314000Y988250D02*
D03*
X342000Y988500D02*
D03*
X90500Y779000D02*
D03*
X241000Y874000D02*
D03*
X287000Y947500D02*
D03*
X1027810Y811690D02*
D03*
X1342000Y824831D02*
D03*
X402398Y908750D02*
D03*
X271030Y793500D02*
D03*
X924000Y77000D02*
D03*
X1050000Y570000D02*
D03*
X164000Y850000D02*
D03*
X163750Y839750D02*
D03*
X163500Y830000D02*
D03*
Y819750D02*
D03*
X163250Y809500D02*
D03*
Y799750D02*
D03*
X163500Y789750D02*
D03*
Y780500D02*
D03*
X164000Y768750D02*
D03*
X167500Y729000D02*
D03*
X172000Y850000D02*
D03*
X171750Y839750D02*
D03*
X171000Y830250D02*
D03*
Y819250D02*
D03*
Y808750D02*
D03*
X170750Y800250D02*
D03*
X171000Y790000D02*
D03*
X170750Y780250D02*
D03*
X171250Y769250D02*
D03*
X385750Y761500D02*
D03*
X1273000Y107000D02*
D03*
X608290Y153040D02*
D03*
X595590Y151090D02*
D03*
X918000Y109000D02*
D03*
X918045Y99002D02*
D03*
X969000Y79750D02*
D03*
X980500Y80000D02*
D03*
X1099250Y544000D02*
D03*
X1121000Y545000D02*
D03*
X1144000Y522000D02*
D03*
X1165250D02*
D03*
X1209000Y568000D02*
D03*
X1210000Y591000D02*
D03*
X1208998Y610999D02*
D03*
X296500Y626000D02*
D03*
X296500Y304000D02*
D03*
X296500Y334000D02*
D03*
Y364000D02*
D03*
Y394000D02*
D03*
X296500Y506000D02*
D03*
X296500Y536000D02*
D03*
Y566000D02*
D03*
Y596000D02*
D03*
X1035000Y748000D02*
D03*
X1011000Y710000D02*
D03*
X1116000Y704000D02*
D03*
X1120950Y708950D02*
D03*
X1140000Y704500D02*
D03*
X1135404Y709096D02*
D03*
X1153500Y702750D02*
D03*
X1148904Y707346D02*
D03*
X1101250Y703750D02*
D03*
X1105846Y708346D02*
D03*
X1351000Y475500D02*
D03*
Y469500D02*
D03*
Y463500D02*
D03*
Y457500D02*
D03*
X639780Y957220D02*
D03*
X720780D02*
D03*
X684398Y910852D02*
D03*
X665000Y942250D02*
D03*
X746000Y942750D02*
D03*
X388000Y851000D02*
D03*
X1322500Y667500D02*
D03*
X1172010Y638490D02*
D03*
X1166000Y644500D02*
D03*
X1171510Y623990D02*
D03*
X1165500Y630000D02*
D03*
X1336500Y702750D02*
D03*
X1351000Y79500D02*
D03*
Y103500D02*
D03*
Y121500D02*
D03*
Y157500D02*
D03*
Y211500D02*
D03*
Y193500D02*
D03*
Y175500D02*
D03*
Y265500D02*
D03*
Y247500D02*
D03*
Y229500D02*
D03*
Y319500D02*
D03*
Y301500D02*
D03*
Y283500D02*
D03*
X1322500Y355500D02*
D03*
X1351000Y337500D02*
D03*
Y445500D02*
D03*
X1357000Y432000D02*
D03*
X1351000Y373500D02*
D03*
X1322500Y391500D02*
D03*
X1351000Y517500D02*
D03*
Y499500D02*
D03*
Y481500D02*
D03*
Y535500D02*
D03*
X1735602Y516852D02*
D03*
X1702250Y549000D02*
D03*
X1767750Y540750D02*
D03*
X1271000Y150750D02*
D03*
X1351000Y589500D02*
D03*
Y607500D02*
D03*
Y625500D02*
D03*
Y643500D02*
D03*
Y661500D02*
D03*
X1433500Y532500D02*
D03*
Y514500D02*
D03*
Y496500D02*
D03*
Y478500D02*
D03*
Y442500D02*
D03*
Y424500D02*
D03*
Y406500D02*
D03*
Y388500D02*
D03*
Y370500D02*
D03*
Y352500D02*
D03*
Y334500D02*
D03*
Y316500D02*
D03*
Y298500D02*
D03*
Y262500D02*
D03*
Y244500D02*
D03*
Y226500D02*
D03*
Y208500D02*
D03*
Y172500D02*
D03*
X1399000Y159000D02*
D03*
X1433500Y118500D02*
D03*
Y100500D02*
D03*
Y76500D02*
D03*
Y460500D02*
D03*
X1496750Y410000D02*
D03*
X1495500Y434250D02*
D03*
X1435000Y586500D02*
D03*
X1436500Y622500D02*
D03*
Y640500D02*
D03*
Y676500D02*
D03*
X1055790Y669460D02*
D03*
X1560500Y834750D02*
D03*
X1352000Y833500D02*
D03*
X1209000Y550250D02*
D03*
X1176750Y676500D02*
D03*
X1158150Y579150D02*
D03*
X1183150Y538150D02*
D03*
X1171000Y608000D02*
D03*
X1210750Y623250D02*
D03*
X1169000Y699000D02*
D03*
X1077740Y594760D02*
D03*
X1127750Y594000D02*
D03*
X1436500Y604500D02*
D03*
X1092500Y707500D02*
D03*
X329000Y374000D02*
D03*
Y384000D02*
D03*
X1318000Y216500D02*
D03*
Y225000D02*
D03*
X1319500Y206750D02*
D03*
Y198250D02*
D03*
X329000Y354000D02*
D03*
Y344000D02*
D03*
X1321510Y181490D02*
D03*
X1315500Y187500D02*
D03*
X329000Y314000D02*
D03*
Y324000D02*
D03*
X1405000Y383750D02*
D03*
Y375250D02*
D03*
X329000Y585250D02*
D03*
Y576750D02*
D03*
X1405000Y357250D02*
D03*
Y365750D02*
D03*
X329000Y546750D02*
D03*
Y555250D02*
D03*
X1405000Y303250D02*
D03*
Y311750D02*
D03*
X329000Y525250D02*
D03*
Y516750D02*
D03*
X1313500Y409500D02*
D03*
X1056000Y662250D02*
D03*
X1405000Y658500D02*
D03*
D83*
X1161500Y633500D02*
D03*
M02*
