G04 Layer_Color=65535*
%FSLAX44Y44*%
%MOMM*%
G71*
G01*
G75*
%ADD60C,0.4000*%
%ADD62C,0.2000*%
%ADD63C,0.2540*%
%ADD65C,0.2500*%
%ADD104C,0.1270*%
%ADD105C,0.1524*%
%ADD106C,0.2032*%
%ADD107C,0.1000*%
%ADD108C,0.1984*%
%ADD109C,0.0500*%
D60*
X1565908Y876197D02*
G03*
X1565908Y876197I-1781J0D01*
G01*
D62*
X1318872Y699950D02*
G03*
X1318872Y699950I-1382J0D01*
G01*
X1264150Y635390D02*
G03*
X1264150Y635390I-1000J0D01*
G01*
X325250Y305000D02*
G03*
X325250Y303000I0J-1000D01*
G01*
D02*
G03*
X325250Y305000I0J1000D01*
G01*
X325250Y507000D02*
G03*
X325250Y505000I0J-1000D01*
G01*
D02*
G03*
X325250Y507000I0J1000D01*
G01*
X1327500Y25500D02*
X1587500D01*
Y740500D01*
X1327500D02*
X1587500D01*
X1327500Y25500D02*
Y59290D01*
Y706890D02*
Y740500D01*
Y547000D02*
Y576570D01*
X563340Y87480D02*
Y155480D01*
X691340D01*
Y87480D02*
Y155480D01*
X563340Y87480D02*
X691340D01*
X563440Y64730D02*
Y83980D01*
X1131610Y85980D02*
X1143610D01*
X831700Y148900D02*
Y199700D01*
X806300D02*
X831700D01*
X806300Y148900D02*
Y199700D01*
Y148900D02*
X831700D01*
X806300Y40300D02*
Y91100D01*
Y40300D02*
X831700D01*
Y91100D01*
X806300D02*
X831700D01*
X1201050Y870230D02*
X1326050D01*
X1201050D02*
Y1043250D01*
X1326050D01*
Y870230D02*
Y1043250D01*
X1033050Y870230D02*
X1158050D01*
X1033050D02*
Y1043250D01*
X1158050D01*
Y870230D02*
Y1043250D01*
D63*
X470443Y128680D02*
G03*
X470443Y128680I-115433J0D01*
G01*
X1552300Y828950D02*
Y889810D01*
X1389700Y828950D02*
Y889810D01*
Y828950D02*
X1552300D01*
Y922270D02*
Y1044850D01*
X1389700Y926460D02*
Y1044850D01*
X1552300D01*
X154392Y829088D02*
X159471D01*
X156931D01*
Y841784D01*
X159471Y844323D01*
X162010D01*
X164549Y841784D01*
X149314Y844323D02*
X144236D01*
X146775D01*
Y829088D01*
X149314Y831627D01*
X1331332Y846012D02*
X1336411D01*
X1333871D01*
Y858708D01*
X1336411Y861247D01*
X1338950D01*
X1341489Y858708D01*
X1318636Y861247D02*
Y846012D01*
X1326254Y853630D01*
X1316097D01*
X1163332Y846012D02*
X1168411D01*
X1165872D01*
Y858708D01*
X1168411Y861247D01*
X1170950D01*
X1173489Y858708D01*
X1148097Y846012D02*
X1158254D01*
Y853630D01*
X1153176Y851090D01*
X1150636D01*
X1148097Y853630D01*
Y858708D01*
X1150636Y861247D01*
X1155715D01*
X1158254Y858708D01*
D65*
X928750Y90500D02*
G03*
X928750Y90500I-1250J0D01*
G01*
X1155490Y692500D02*
G03*
X1155490Y692500I-989J0D01*
G01*
D104*
X1672585Y909850D02*
G03*
X1672585Y909850I-1005J0D01*
G01*
X1235950Y660490D02*
Y674490D01*
X1267950Y660490D02*
Y674490D01*
X1249950Y642490D02*
X1253950D01*
X1249950Y692490D02*
X1253950D01*
X1050540Y793540D02*
X1089540D01*
X1050540Y842540D02*
X1089540D01*
X1279840Y842981D02*
X1318840D01*
X1279840Y793981D02*
X1318840D01*
X1629780Y777750D02*
X1749880D01*
X1622430Y790650D02*
Y831250D01*
Y851450D02*
Y908750D01*
X1761930Y811750D02*
Y835650D01*
Y867450D02*
Y903550D01*
X237050Y980190D02*
X250050D01*
X237050Y953190D02*
X250050D01*
X296440Y915050D02*
Y928050D01*
X323440Y915050D02*
Y928050D01*
X669250Y962740D02*
Y980140D01*
X642750D02*
X669250D01*
X642750Y962740D02*
Y980140D01*
X723750Y962740D02*
Y980140D01*
X750250D01*
Y962740D02*
Y980140D01*
D105*
X91290Y72000D02*
G03*
X91290Y72000I-34290J0D01*
G01*
Y662000D02*
G03*
X91290Y662000I-34290J0D01*
G01*
X1771290Y72000D02*
G03*
X1771290Y72000I-34290J0D01*
G01*
X1776290Y661000D02*
G03*
X1776290Y661000I-34290J0D01*
G01*
X1224290Y301021D02*
G03*
X1224290Y301021I-34290J0D01*
G01*
X644290Y302021D02*
G03*
X644290Y302021I-34290J0D01*
G01*
X1223290Y793021D02*
G03*
X1223290Y793021I-34290J0D01*
G01*
X644290Y792000D02*
G03*
X644290Y792000I-34290J0D01*
G01*
X617000Y44750D02*
X619032D01*
X616984Y30888D02*
X619016D01*
X673968Y915620D02*
X676000D01*
X673984Y929482D02*
X676016D01*
X987750Y198968D02*
Y201000D01*
X973888Y198984D02*
Y201016D01*
X1050988Y69820D02*
X1053020D01*
X1051004Y83682D02*
X1053036D01*
X721968Y915620D02*
X724000D01*
X721984Y929482D02*
X724016D01*
X1051488Y47820D02*
X1053520D01*
X1051504Y61682D02*
X1053536D01*
X1009750Y198968D02*
Y201000D01*
X995888Y198984D02*
Y201016D01*
X1037770Y143570D02*
Y145602D01*
X1051632Y143554D02*
Y145586D01*
X1074270Y143538D02*
Y145570D01*
X1060408Y143554D02*
Y145586D01*
X1051270Y105538D02*
Y107570D01*
X1037408Y105554D02*
Y107586D01*
X1060770Y105570D02*
Y107602D01*
X1074632Y105554D02*
Y107586D01*
X1102200Y142448D02*
Y144480D01*
X1088338Y142464D02*
Y144496D01*
X1165450Y157730D02*
X1167482D01*
X1165434Y143868D02*
X1167466D01*
X1126078Y121230D02*
X1128110D01*
X1126094Y135092D02*
X1128126D01*
X1088700Y51500D02*
Y53532D01*
X1102562Y51484D02*
Y53516D01*
X1166610Y51730D02*
X1168642D01*
X1166594Y37868D02*
X1168626D01*
X1102870Y192090D02*
Y194122D01*
X1116732Y192074D02*
Y194106D01*
X1126078Y61230D02*
X1128110D01*
X1126094Y75092D02*
X1128126D01*
X1372750Y841968D02*
Y844000D01*
X1358888Y841984D02*
Y844016D01*
X1227000Y668968D02*
Y671000D01*
X1213138Y668984D02*
Y671016D01*
X1089000Y726968D02*
Y729000D01*
X1075138Y726984D02*
Y729016D01*
X1106000Y559968D02*
Y562000D01*
X1092138Y559984D02*
Y562016D01*
X1190250Y596750D02*
X1192282D01*
X1190234Y582888D02*
X1192266D01*
X1577750Y842968D02*
Y845000D01*
X1563888Y842984D02*
Y845016D01*
X1471250Y799000D02*
Y801032D01*
X1485112Y798984D02*
Y801016D01*
X1188250Y695750D02*
X1190282D01*
X1188234Y681888D02*
X1190266D01*
X1288750Y75968D02*
Y78000D01*
X1274888Y75984D02*
Y78016D01*
X1293968Y100250D02*
X1296000D01*
X1293984Y114112D02*
X1296016D01*
X1293968Y144250D02*
X1296000D01*
X1293984Y158112D02*
X1296016D01*
X1287750Y24068D02*
Y26100D01*
X1273888Y24084D02*
Y26116D01*
X1474968Y403250D02*
X1477000D01*
X1474984Y417112D02*
X1477016D01*
X1474968Y427250D02*
X1477000D01*
X1474984Y441112D02*
X1477016D01*
X1744000Y534750D02*
X1746032D01*
X1743984Y520888D02*
X1746016D01*
X1474968Y491250D02*
X1477000D01*
X1474984Y505112D02*
X1477016D01*
X1474968Y563250D02*
X1477000D01*
X1474984Y577112D02*
X1477016D01*
X1721968Y542250D02*
X1724000D01*
X1721984Y556112D02*
X1724016D01*
X1424750Y726718D02*
Y728750D01*
X1410888Y726734D02*
Y728766D01*
X408750Y847968D02*
Y850000D01*
X394888Y847984D02*
Y850016D01*
X438000Y869750D02*
X440032D01*
X437984Y855888D02*
X440016D01*
X458000Y928750D02*
X460032D01*
X457984Y914888D02*
X460016D01*
X483968Y882000D02*
X486000D01*
X483984Y895862D02*
X486016D01*
X64602Y735750D02*
X66634D01*
X64586Y721888D02*
X66618D01*
X64602Y760750D02*
X66634D01*
X64586Y746888D02*
X66618D01*
X64602Y785750D02*
X66634D01*
X64586Y771888D02*
X66618D01*
X24332Y736080D02*
X26364D01*
X24316Y722218D02*
X26348D01*
X24332Y761080D02*
X26364D01*
X24316Y747218D02*
X26348D01*
X24332Y786080D02*
X26364D01*
X24316Y772218D02*
X26348D01*
X319218Y833520D02*
X321250D01*
X319234Y847382D02*
X321266D01*
X269000Y854636D02*
Y856668D01*
X255138Y854652D02*
Y856684D01*
X193000Y781750D02*
X195032D01*
X192984Y767888D02*
X195016D01*
X391968Y915250D02*
X394000D01*
X391984Y929112D02*
X394016D01*
X1475000Y609750D02*
X1477032D01*
X1474984Y595888D02*
X1477016D01*
X1475000Y632750D02*
X1477032D01*
X1474984Y618888D02*
X1477016D01*
D106*
X72999Y72000D02*
G03*
X72999Y72000I-15999J0D01*
G01*
Y662000D02*
G03*
X72999Y662000I-15999J0D01*
G01*
X1753000Y72000D02*
G03*
X1753000Y72000I-15999J0D01*
G01*
X1758000Y661000D02*
G03*
X1758000Y661000I-15999J0D01*
G01*
X1205999Y301021D02*
G03*
X1205999Y301021I-15999J0D01*
G01*
X625999Y302021D02*
G03*
X625999Y302021I-15999J0D01*
G01*
X1204999Y793021D02*
G03*
X1204999Y793021I-15999J0D01*
G01*
X625999Y792000D02*
G03*
X625999Y792000I-15999J0D01*
G01*
X470010Y150980D02*
X525010D01*
Y106380D02*
Y150980D01*
X470010Y106380D02*
X525010D01*
D107*
X672280Y947420D02*
G03*
X672280Y947420I-500J0D01*
G01*
X753280D02*
G03*
X753280Y947420I-500J0D01*
G01*
X113500Y854500D02*
G03*
X113500Y855500I0J500D01*
G01*
D02*
G03*
X113500Y854500I0J-500D01*
G01*
X559750Y62750D02*
Y180250D01*
X560250Y180750D01*
X695250D01*
Y62750D02*
Y180750D01*
X559750Y62750D02*
X695250D01*
X1057000Y592000D02*
Y699500D01*
X1161500D01*
X1057000Y592000D02*
X1161500D01*
Y699500D01*
X1028980Y789750D02*
X1109230D01*
X1028980D02*
Y847500D01*
X1028730Y847750D02*
X1028980Y847500D01*
X1028730Y847750D02*
X1109230D01*
Y789750D02*
Y847750D01*
X1093230Y794000D02*
X1104730D01*
X1260150Y846771D02*
X1340400D01*
Y789021D02*
Y846771D01*
Y789021D02*
X1340650Y788771D01*
X1260150D02*
X1340650D01*
X1260150D02*
Y846771D01*
X1264650Y842521D02*
X1276150D01*
X385370Y830820D02*
Y873570D01*
X353370Y830820D02*
X385370D01*
X353370D02*
Y873570D01*
X385370D01*
X383620Y858320D02*
Y870320D01*
X414750Y907000D02*
X456000D01*
Y876720D02*
Y907000D01*
X414750Y876720D02*
X456000D01*
X414750D02*
Y907000D01*
X417250Y905000D02*
X427750D01*
X52500Y803250D02*
Y844250D01*
X125000D01*
X52500Y803250D02*
X124750D01*
X125000Y803500D01*
Y844250D01*
X456940Y975880D02*
Y1005880D01*
X383940D02*
X456940D01*
X383940Y975880D02*
Y1005880D01*
X445840D02*
Y1014880D01*
X395040D02*
X445840D01*
X395040Y1005880D02*
Y1014880D01*
X385440Y943380D02*
X456940D01*
X634750Y28750D02*
Y47250D01*
X601250D02*
X634750D01*
X601250Y28750D02*
Y47250D01*
Y28750D02*
X634750D01*
X658250Y913120D02*
Y931620D01*
Y913120D02*
X691750D01*
Y931620D01*
X658250D02*
X691750D01*
X971750Y183250D02*
X990250D01*
Y216750D01*
X971750D02*
X990250D01*
X971750Y183250D02*
Y216750D01*
X1035270Y67320D02*
Y85820D01*
Y67320D02*
X1068770D01*
Y85820D01*
X1035270D02*
X1068770D01*
X706250Y913120D02*
Y931620D01*
Y913120D02*
X739750D01*
Y931620D01*
X706250D02*
X739750D01*
X1035770Y45320D02*
Y63820D01*
Y45320D02*
X1069270D01*
Y63820D01*
X1035770D02*
X1069270D01*
X993750Y183250D02*
X1012250D01*
Y216750D01*
X993750D02*
X1012250D01*
X993750Y183250D02*
Y216750D01*
X1035270Y161320D02*
X1053770D01*
X1035270Y127820D02*
Y161320D01*
Y127820D02*
X1053770D01*
Y161320D01*
X1058270Y127820D02*
X1076770D01*
Y161320D01*
X1058270D02*
X1076770D01*
X1058270Y127820D02*
Y161320D01*
X1035270Y89820D02*
X1053770D01*
Y123320D01*
X1035270D02*
X1053770D01*
X1035270Y89820D02*
Y123320D01*
X1058270D02*
X1076770D01*
X1058270Y89820D02*
Y123320D01*
Y89820D02*
X1076770D01*
Y123320D01*
X1086200Y126730D02*
X1104700D01*
Y160230D01*
X1086200D02*
X1104700D01*
X1086200Y126730D02*
Y160230D01*
X1183200Y141730D02*
Y160230D01*
X1149700D02*
X1183200D01*
X1149700Y141730D02*
Y160230D01*
Y141730D02*
X1183200D01*
X1110360Y118730D02*
Y137230D01*
Y118730D02*
X1143860D01*
Y137230D01*
X1110360D02*
X1143860D01*
X1086200Y69250D02*
X1104700D01*
X1086200Y35750D02*
Y69250D01*
Y35750D02*
X1104700D01*
Y69250D01*
X1184360Y35730D02*
Y54230D01*
X1150860D02*
X1184360D01*
X1150860Y35730D02*
Y54230D01*
Y35730D02*
X1184360D01*
X1100370Y209840D02*
X1118870D01*
X1100370Y176340D02*
Y209840D01*
Y176340D02*
X1118870D01*
Y209840D01*
X1110360Y58730D02*
Y77230D01*
Y58730D02*
X1143860D01*
Y77230D01*
X1110360D02*
X1143860D01*
X1356750Y826250D02*
X1375250D01*
Y859750D01*
X1356750D02*
X1375250D01*
X1356750Y826250D02*
Y859750D01*
X1211000Y653250D02*
X1229500D01*
Y686750D01*
X1211000D02*
X1229500D01*
X1211000Y653250D02*
Y686750D01*
X1073000Y711250D02*
X1091500D01*
Y744750D01*
X1073000D02*
X1091500D01*
X1073000Y711250D02*
Y744750D01*
X1090000Y544250D02*
X1108500D01*
Y577750D01*
X1090000D02*
X1108500D01*
X1090000Y544250D02*
Y577750D01*
X1208000Y580750D02*
Y599250D01*
X1174500D02*
X1208000D01*
X1174500Y580750D02*
Y599250D01*
Y580750D02*
X1208000D01*
X1561750Y827250D02*
X1580250D01*
Y860750D01*
X1561750D02*
X1580250D01*
X1561750Y827250D02*
Y860750D01*
X1468750Y816750D02*
X1487250D01*
X1468750Y783250D02*
Y816750D01*
Y783250D02*
X1487250D01*
Y816750D01*
X1206000Y679750D02*
Y698250D01*
X1172500D02*
X1206000D01*
X1172500Y679750D02*
Y698250D01*
Y679750D02*
X1206000D01*
X1272750Y60250D02*
X1291250D01*
Y93750D01*
X1272750D02*
X1291250D01*
X1272750Y60250D02*
Y93750D01*
X1278250Y97750D02*
Y116250D01*
Y97750D02*
X1311750D01*
Y116250D01*
X1278250D02*
X1311750D01*
X1278250Y141750D02*
Y160250D01*
Y141750D02*
X1311750D01*
Y160250D01*
X1278250D02*
X1311750D01*
X1271750Y8350D02*
X1290250D01*
Y41850D01*
X1271750D02*
X1290250D01*
X1271750Y8350D02*
Y41850D01*
X1459250Y400750D02*
Y419250D01*
Y400750D02*
X1492750D01*
Y419250D01*
X1459250D02*
X1492750D01*
X1459250Y424750D02*
Y443250D01*
Y424750D02*
X1492750D01*
Y443250D01*
X1459250D02*
X1492750D01*
X1761750Y518750D02*
Y537250D01*
X1728250D02*
X1761750D01*
X1728250Y518750D02*
Y537250D01*
Y518750D02*
X1761750D01*
X1459250Y488750D02*
Y507250D01*
Y488750D02*
X1492750D01*
Y507250D01*
X1459250D02*
X1492750D01*
X1459250Y560750D02*
Y579250D01*
Y560750D02*
X1492750D01*
Y579250D01*
X1459250D02*
X1492750D01*
X1706250Y539750D02*
Y558250D01*
Y539750D02*
X1739750D01*
Y558250D01*
X1706250D02*
X1739750D01*
X1408750Y711000D02*
X1427250D01*
Y744500D01*
X1408750D02*
X1427250D01*
X1408750Y711000D02*
Y744500D01*
X392750Y832250D02*
X411250D01*
Y865750D01*
X392750D02*
X411250D01*
X392750Y832250D02*
Y865750D01*
X455750Y853750D02*
Y872250D01*
X422250D02*
X455750D01*
X422250Y853750D02*
Y872250D01*
Y853750D02*
X455750D01*
X475750Y912750D02*
Y931250D01*
X442250D02*
X475750D01*
X442250Y912750D02*
Y931250D01*
Y912750D02*
X475750D01*
X468250Y879500D02*
Y898000D01*
Y879500D02*
X501750D01*
Y898000D01*
X468250D02*
X501750D01*
X82352Y719750D02*
Y738250D01*
X48852D02*
X82352D01*
X48852Y719750D02*
Y738250D01*
Y719750D02*
X82352D01*
Y744750D02*
Y763250D01*
X48852D02*
X82352D01*
X48852Y744750D02*
Y763250D01*
Y744750D02*
X82352D01*
Y769750D02*
Y788250D01*
X48852D02*
X82352D01*
X48852Y769750D02*
Y788250D01*
Y769750D02*
X82352D01*
X1126020Y212840D02*
X1155220D01*
X1126020Y172840D02*
X1155220D01*
Y212840D01*
X1126020Y172840D02*
Y212840D01*
X1759340Y544860D02*
Y555110D01*
X1750090Y542860D02*
Y577110D01*
X1772090D01*
Y542860D02*
Y577110D01*
X1750090Y542860D02*
X1772090D01*
X1726890Y570340D02*
X1737140D01*
X1704890Y561090D02*
X1739140D01*
X1704890D02*
Y583090D01*
X1739140D01*
Y561090D02*
Y583090D01*
X462250Y869268D02*
X503250D01*
Y840068D02*
Y869268D01*
X462250Y840068D02*
X503250D01*
X462250D02*
Y869268D01*
X466000Y858498D02*
X479750D01*
X42332Y719330D02*
Y739330D01*
X8332D02*
X42332D01*
X8332Y719330D02*
Y739330D01*
Y719330D02*
X42332D01*
Y744330D02*
Y764330D01*
X8332D02*
X42332D01*
X8332Y744330D02*
Y764330D01*
Y744330D02*
X42332D01*
Y769330D02*
Y789330D01*
X8332D02*
X42332D01*
X8332Y769330D02*
Y789330D01*
Y769330D02*
X42332D01*
X282250Y294000D02*
X312250D01*
X282250Y454000D02*
X312250D01*
X282250Y496000D02*
X312250D01*
X282250Y656000D02*
X312250D01*
X1074720Y169230D02*
X1094220D01*
Y200730D01*
X1074720D02*
X1094220D01*
X1074720Y169230D02*
Y200730D01*
X870770Y129250D02*
Y148750D01*
X839270D02*
X870770D01*
X839270Y129250D02*
Y148750D01*
Y129250D02*
X870770D01*
Y199970D02*
Y219470D01*
X839270D02*
X870770D01*
X839270Y199970D02*
Y219470D01*
Y199970D02*
X870770D01*
Y90970D02*
Y110470D01*
X839270D02*
X870770D01*
X839270Y90970D02*
Y110470D01*
Y90970D02*
X870770D01*
Y18970D02*
Y38470D01*
X839270D02*
X870770D01*
X839270Y18970D02*
Y38470D01*
Y18970D02*
X870770D01*
X1166020Y557970D02*
Y577470D01*
X1134520D02*
X1166020D01*
X1134520Y557970D02*
Y577470D01*
Y557970D02*
X1166020D01*
X1204020Y721970D02*
Y741470D01*
X1172520D02*
X1204020D01*
X1172520Y721970D02*
Y741470D01*
Y721970D02*
X1204020D01*
X220140Y982410D02*
X267130D01*
Y950660D02*
Y982410D01*
X220140Y950660D02*
X267130D01*
X220140D02*
Y982410D01*
X294220Y898140D02*
Y945130D01*
X325970D01*
Y898140D02*
Y945130D01*
X294220Y898140D02*
X325970D01*
X284450Y945680D02*
X284950Y945180D01*
Y884180D02*
Y945180D01*
X183950Y945680D02*
X284450D01*
X184950Y884180D02*
X284950D01*
X183950Y885180D02*
Y945680D01*
Y885180D02*
X184950Y884180D01*
X561590Y28730D02*
X592590D01*
X561590D02*
Y47230D01*
X592590Y28730D02*
Y47230D01*
X561590D02*
X592590D01*
X676730Y945780D02*
Y976780D01*
X695230D01*
X676730Y945780D02*
X695230D01*
Y976780D01*
X698730Y945780D02*
Y976780D01*
X717230D01*
X698730Y945780D02*
X717230D01*
Y976780D01*
X1068770Y177422D02*
Y184422D01*
X1035270D02*
X1068770D01*
X1035270Y164172D02*
Y184422D01*
Y164172D02*
X1068770D01*
Y177422D01*
X875730Y129250D02*
Y160250D01*
X894230D01*
X875730Y129250D02*
X894230D01*
Y160250D01*
X595730Y945780D02*
Y976780D01*
X614230D01*
X595730Y945780D02*
X614230D01*
Y976780D01*
X617730Y945780D02*
Y976780D01*
X636230D01*
X617730Y945780D02*
X636230D01*
Y976780D01*
X839410Y172270D02*
X870410D01*
Y153770D02*
Y172270D01*
X839410Y153770D02*
Y172270D01*
Y153770D02*
X870410D01*
X839270Y176730D02*
X870270D01*
X839270D02*
Y195230D01*
X870270Y176730D02*
Y195230D01*
X839270D02*
X870270D01*
X894270Y188470D02*
Y219470D01*
X875770Y188470D02*
X894270D01*
X875770Y219470D02*
X894270D01*
X875770Y188470D02*
Y219470D01*
X894270Y79470D02*
Y110470D01*
X875770Y79470D02*
X894270D01*
X875770Y110470D02*
X894270D01*
X875770Y79470D02*
Y110470D01*
X839410Y85750D02*
X870410D01*
Y67250D02*
Y85750D01*
X839410Y67250D02*
Y85750D01*
Y67250D02*
X870410D01*
X839590Y43730D02*
X870590D01*
X839590D02*
Y62230D01*
X870590Y43730D02*
Y62230D01*
X839590D02*
X870590D01*
X875730Y18970D02*
Y49970D01*
X894230D01*
X875730Y18970D02*
X894230D01*
Y49970D01*
X1149860Y137250D02*
X1180860D01*
Y118750D02*
Y137250D01*
X1149860Y118750D02*
Y137250D01*
Y118750D02*
X1180860D01*
X1110360Y160250D02*
X1141360D01*
Y141750D02*
Y160250D01*
X1110360Y141750D02*
Y160250D01*
Y141750D02*
X1141360D01*
X955270Y42590D02*
Y73590D01*
X936770Y42590D02*
X955270D01*
X936770Y73590D02*
X955270D01*
X936770Y42590D02*
Y73590D01*
X933270Y42590D02*
Y73590D01*
X914770Y42590D02*
X933270D01*
X914770Y73590D02*
X933270D01*
X914770Y42590D02*
Y73590D01*
X928730Y183410D02*
Y214410D01*
X947230D01*
X928730Y183410D02*
X947230D01*
Y214410D01*
X906730Y183410D02*
Y214410D01*
X925230D01*
X906730Y183410D02*
X925230D01*
Y214410D01*
X1034930Y205942D02*
X1065930D01*
Y187442D02*
Y205942D01*
X1034930Y187442D02*
Y205942D01*
Y187442D02*
X1065930D01*
X950730Y183410D02*
Y214410D01*
X969230D01*
X950730Y183410D02*
X969230D01*
Y214410D01*
X1002270Y42590D02*
Y73590D01*
X983770Y42590D02*
X1002270D01*
X983770Y73590D02*
X1002270D01*
X983770Y42590D02*
Y73590D01*
X978270Y42590D02*
Y73590D01*
X959770Y42590D02*
X978270D01*
X959770Y73590D02*
X978270D01*
X959770Y42590D02*
Y73590D01*
X1104700Y75570D02*
Y106570D01*
X1086200Y75570D02*
X1104700D01*
X1086200Y106570D02*
X1104700D01*
X1086200Y75570D02*
Y106570D01*
X1150860Y77250D02*
X1181860D01*
Y58750D02*
Y77250D01*
X1150860Y58750D02*
Y77250D01*
Y58750D02*
X1181860D01*
X1110360Y54250D02*
X1141360D01*
Y35750D02*
Y54250D01*
X1110360Y35750D02*
Y54250D01*
Y35750D02*
X1141360D01*
X1216840Y700730D02*
X1247840D01*
X1216840D02*
Y719230D01*
X1247840Y700730D02*
Y719230D01*
X1216840D02*
X1247840D01*
X1239840Y611730D02*
X1270840D01*
X1239840D02*
Y630230D01*
X1270840Y611730D02*
Y630230D01*
X1239840D02*
X1270840D01*
X1464270Y785590D02*
Y816590D01*
X1445770Y785590D02*
X1464270D01*
X1445770Y816590D02*
X1464270D01*
X1445770Y785590D02*
Y816590D01*
X1094980Y711410D02*
Y742410D01*
X1113480D01*
X1094980Y711410D02*
X1113480D01*
Y742410D01*
X1070270Y546590D02*
Y577590D01*
X1051770Y546590D02*
X1070270D01*
X1051770Y577590D02*
X1070270D01*
X1051770Y546590D02*
Y577590D01*
X1043730Y711410D02*
Y742410D01*
X1062230D01*
X1043730Y711410D02*
X1062230D01*
Y742410D01*
X1025730Y711410D02*
Y742410D01*
X1044230D01*
X1025730Y711410D02*
X1044230D01*
Y742410D01*
X1152520Y523590D02*
Y554590D01*
X1134020Y523590D02*
X1152520D01*
X1134020Y554590D02*
X1152520D01*
X1134020Y523590D02*
Y554590D01*
X1174520Y523590D02*
Y554590D01*
X1156020Y523590D02*
X1174520D01*
X1156020Y554590D02*
X1174520D01*
X1156020Y523590D02*
Y554590D01*
X1130520Y546590D02*
Y577590D01*
X1112020Y546590D02*
X1130520D01*
X1112020Y577590D02*
X1130520D01*
X1112020Y546590D02*
Y577590D01*
X1089270Y546590D02*
Y577590D01*
X1070770Y546590D02*
X1089270D01*
X1070770Y577590D02*
X1089270D01*
X1070770Y546590D02*
Y577590D01*
X1017590Y663730D02*
X1048590D01*
X1017590D02*
Y682230D01*
X1048590Y663730D02*
Y682230D01*
X1017590D02*
X1048590D01*
X1017840Y610730D02*
X1048840D01*
X1017840D02*
Y629230D01*
X1048840Y610730D02*
Y629230D01*
X1017840D02*
X1048840D01*
X1175660Y577270D02*
X1206660D01*
Y558770D02*
Y577270D01*
X1175660Y558770D02*
Y577270D01*
Y558770D02*
X1206660D01*
X1174660Y620270D02*
X1205660D01*
Y601770D02*
Y620270D01*
X1174660Y601770D02*
Y620270D01*
Y601770D02*
X1205660D01*
X1175660Y559520D02*
X1206660D01*
Y541020D02*
Y559520D01*
X1175660Y541020D02*
Y559520D01*
Y541020D02*
X1206660D01*
X1174660Y641270D02*
X1205660D01*
Y622770D02*
Y641270D01*
X1174660Y622770D02*
Y641270D01*
Y622770D02*
X1205660D01*
X1172660Y719270D02*
X1203660D01*
Y700770D02*
Y719270D01*
X1172660Y700770D02*
Y719270D01*
Y700770D02*
X1203660D01*
X1139980Y711410D02*
Y742410D01*
X1158480D01*
X1139980Y711410D02*
X1158480D01*
Y742410D01*
X1117980Y711410D02*
Y742410D01*
X1136480D01*
X1117980Y711410D02*
X1136480D01*
Y742410D01*
X1312270Y62590D02*
Y93590D01*
X1293770Y62590D02*
X1312270D01*
X1293770Y93590D02*
X1312270D01*
X1293770Y62590D02*
Y93590D01*
X1280690Y119730D02*
X1311690D01*
X1280690D02*
Y138230D01*
X1311690Y119730D02*
Y138230D01*
X1280690D02*
X1311690D01*
X1312270Y10690D02*
Y41690D01*
X1293770Y10690D02*
X1312270D01*
X1293770Y41690D02*
X1312270D01*
X1293770Y10690D02*
Y41690D01*
X1459410Y531270D02*
X1490410D01*
Y512770D02*
Y531270D01*
X1459410Y512770D02*
Y531270D01*
Y512770D02*
X1490410D01*
X1459410Y555270D02*
X1490410D01*
Y536770D02*
Y555270D01*
X1459410Y536770D02*
Y555270D01*
Y536770D02*
X1490410D01*
X1430730Y711160D02*
Y742160D01*
X1449230D01*
X1430730Y711160D02*
X1449230D01*
Y742160D01*
X276750Y984910D02*
X283750D01*
X276750Y951410D02*
Y984910D01*
Y951410D02*
X297000D01*
Y984910D01*
X283750D02*
X297000D01*
X303750Y984910D02*
X310750D01*
X303750Y951410D02*
Y984910D01*
Y951410D02*
X324000D01*
Y984910D01*
X310750D02*
X324000D01*
X331750Y984910D02*
X338750D01*
X331750Y951410D02*
Y984910D01*
Y951410D02*
X352000D01*
Y984910D01*
X338750D02*
X352000D01*
X187730Y951410D02*
Y982410D01*
X206230D01*
X187730Y951410D02*
X206230D01*
Y982410D01*
X362590Y764730D02*
X393590D01*
X362590D02*
Y783230D01*
X393590Y764730D02*
Y783230D01*
X362590D02*
X393590D01*
X432270Y790590D02*
Y821590D01*
X413770Y790590D02*
X432270D01*
X413770Y821590D02*
X432270D01*
X413770Y790590D02*
Y821590D01*
X380270Y790590D02*
Y821590D01*
X361770Y790590D02*
X380270D01*
X361770Y821590D02*
X380270D01*
X361770Y790590D02*
Y821590D01*
X305840Y854000D02*
X336840D01*
X305840D02*
Y872500D01*
X336840Y854000D02*
Y872500D01*
X305840D02*
X336840D01*
X274980Y839078D02*
Y870078D01*
X293480D01*
X274980Y839078D02*
X293480D01*
Y870078D01*
X217840Y840000D02*
X248840D01*
X217840D02*
Y858500D01*
X248840Y840000D02*
Y858500D01*
X217840D02*
X248840D01*
X245590Y771730D02*
X276590D01*
X245590D02*
Y790230D01*
X276590Y771730D02*
Y790230D01*
X245590D02*
X276590D01*
X176660Y858540D02*
X207660D01*
Y840040D02*
Y858540D01*
X176660Y840040D02*
Y858540D01*
Y840040D02*
X207660D01*
X286750Y784520D02*
Y784770D01*
Y784520D02*
X340000D01*
Y826770D01*
X286750Y784770D02*
Y826770D01*
X340000D01*
X286750Y820270D02*
Y821020D01*
X292500Y826770D01*
X226750Y830770D02*
Y831020D01*
X173500D02*
X226750D01*
X173500Y788770D02*
Y831020D01*
X226750Y788770D02*
Y830770D01*
X173500Y788770D02*
X226750D01*
Y794520D02*
Y795270D01*
X221000Y788770D02*
X226750Y794520D01*
X303500Y831020D02*
Y849520D01*
Y831020D02*
X337000D01*
Y849520D01*
X303500D02*
X337000D01*
X253000Y838918D02*
X271500D01*
Y872418D01*
X253000D02*
X271500D01*
X253000Y838918D02*
Y872418D01*
X210750Y765750D02*
Y784250D01*
X177250D02*
X210750D01*
X177250Y765750D02*
Y784250D01*
Y765750D02*
X210750D01*
X376250Y912750D02*
Y931250D01*
Y912750D02*
X409750D01*
Y931250D01*
X376250D02*
X409750D01*
X235000Y828500D02*
X235250Y828750D01*
X278250D01*
X235000Y795500D02*
Y828500D01*
Y795500D02*
X278250D01*
Y828750D01*
X237500Y826500D02*
X244000D01*
X386840Y789760D02*
Y799760D01*
X385200Y787720D02*
X408450D01*
Y822220D01*
X385200D02*
X408450D01*
X385200Y787720D02*
Y822220D01*
X1492750Y593750D02*
Y612250D01*
X1459250D02*
X1492750D01*
X1459250Y593750D02*
Y612250D01*
Y593750D02*
X1492750D01*
Y616750D02*
Y635250D01*
X1459250D02*
X1492750D01*
X1459250Y616750D02*
Y635250D01*
Y616750D02*
X1492750D01*
X68500Y867500D02*
X93500D01*
X68500D02*
Y884500D01*
X133500Y867500D02*
X158500D01*
Y1019500D01*
X68500D02*
X158500D01*
X68500Y924500D02*
Y1019500D01*
X523500Y45500D02*
Y81000D01*
X523250Y45250D02*
X523500Y45500D01*
X507250Y45250D02*
X523250D01*
X507250D02*
Y81000D01*
X523500D01*
X546500Y45500D02*
Y81000D01*
X546250Y45250D02*
X546500Y45500D01*
X530250Y45250D02*
X546250D01*
X530250D02*
Y81000D01*
X546500D01*
D108*
X257243Y120755D02*
X273311D01*
X455778Y128793D02*
Y112725D01*
X447744Y120759D02*
X463812D01*
D109*
X509750Y52250D02*
X511083D01*
X511749Y51584D01*
X511083Y50917D01*
X509750D01*
X510750D01*
Y52250D01*
X532750D02*
X534083D01*
X534749Y51584D01*
X534083Y50917D01*
X532750D01*
X533750D01*
Y52250D01*
M02*
