G04 Layer_Color=2752767*
%FSLAX44Y44*%
%MOMM*%
G71*
G01*
G75*
%ADD184C,0.0508*%
%ADD185C,0.0677*%
%ADD186C,0.0339*%
G36*
X499377Y140190D02*
X505944Y133024D01*
X505520Y123313D01*
X498354Y116746D01*
X488643Y117170D01*
X482076Y124336D01*
X482500Y134047D01*
X489666Y140614D01*
X499377Y140190D01*
D02*
G37*
G36*
X299377D02*
X305944Y133024D01*
X305520Y123313D01*
X298354Y116746D01*
X288643Y117170D01*
X282076Y124336D01*
X282500Y134047D01*
X289666Y140614D01*
X299377Y140190D01*
D02*
G37*
D184*
X1375468Y44968D02*
Y49032D01*
X1379532D01*
Y44968D01*
X1375468D01*
X1528150Y934918D02*
X1526118Y938982D01*
X1530182D01*
X1528150Y934918D01*
X1549750Y904418D02*
X1550766Y905434D01*
X1551782D01*
X1550766Y906450D01*
X1551782Y907466D01*
X1550766D01*
X1549750Y908482D01*
X1548734Y907466D01*
X1547718D01*
X1548734Y906450D01*
X1547718Y905434D01*
X1548734D01*
X1549750Y904418D01*
X1413850Y934918D02*
X1411818Y938982D01*
X1415882D01*
X1413850Y934918D01*
X1392250Y904418D02*
X1393266Y905434D01*
X1394282D01*
X1393266Y906450D01*
X1394282Y907466D01*
X1393266D01*
X1392250Y908482D01*
X1391234Y907466D01*
X1390218D01*
X1391234Y906450D01*
X1390218Y905434D01*
X1391234D01*
X1392250Y904418D01*
X1405718Y968718D02*
X1406734Y970750D01*
X1405718Y972782D01*
X1407750Y971766D01*
X1409782Y972782D01*
X1408766Y970750D01*
X1409782Y968718D01*
X1407750Y969734D01*
X1405718Y968718D01*
X1431118Y983918D02*
X1432134Y985950D01*
X1431118Y987982D01*
X1433150Y986966D01*
X1435182Y987982D01*
X1434166Y985950D01*
X1435182Y983918D01*
X1433150Y984934D01*
X1431118Y983918D01*
X1506818Y968718D02*
X1507834Y970750D01*
X1506818Y972782D01*
X1508850Y971766D01*
X1510882Y972782D01*
X1509866Y970750D01*
X1510882Y968718D01*
X1508850Y969734D01*
X1506818Y968718D01*
X1532218Y983918D02*
X1533234Y985950D01*
X1532218Y987982D01*
X1534250Y986966D01*
X1536282Y987982D01*
X1535266Y985950D01*
X1536282Y983918D01*
X1534250Y984934D01*
X1532218Y983918D01*
X1425534Y847034D02*
Y846018D01*
X1427566D01*
Y847034D01*
X1428582D01*
Y849066D01*
X1427566D01*
Y850082D01*
X1425534D01*
Y849066D01*
X1424518D01*
Y847034D01*
X1425534D01*
X1438234Y872434D02*
Y871418D01*
X1440266D01*
Y872434D01*
X1441282D01*
Y874466D01*
X1440266D01*
Y875482D01*
X1438234D01*
Y874466D01*
X1437218D01*
Y872434D01*
X1438234D01*
X1450934Y847034D02*
Y846018D01*
X1452966D01*
Y847034D01*
X1453982D01*
Y849066D01*
X1452966D01*
Y850082D01*
X1450934D01*
Y849066D01*
X1449918D01*
Y847034D01*
X1450934D01*
X1463634Y872434D02*
Y871418D01*
X1465666D01*
Y872434D01*
X1466682D01*
Y874466D01*
X1465666D01*
Y875482D01*
X1463634D01*
Y874466D01*
X1462618D01*
Y872434D01*
X1463634D01*
X1476334Y847034D02*
Y846018D01*
X1478366D01*
Y847034D01*
X1479382D01*
Y849066D01*
X1478366D01*
Y850082D01*
X1476334D01*
Y849066D01*
X1475318D01*
Y847034D01*
X1476334D01*
X1489034Y872434D02*
Y871418D01*
X1491066D01*
Y872434D01*
X1492082D01*
Y874466D01*
X1491066D01*
Y875482D01*
X1489034D01*
Y874466D01*
X1488018D01*
Y872434D01*
X1489034D01*
X1501734Y847034D02*
Y846018D01*
X1503766D01*
Y847034D01*
X1504782D01*
Y849066D01*
X1503766D01*
Y850082D01*
X1501734D01*
Y849066D01*
X1500718D01*
Y847034D01*
X1501734D01*
X1514434Y872434D02*
Y871418D01*
X1516466D01*
Y872434D01*
X1517482D01*
Y874466D01*
X1516466D01*
Y875482D01*
X1514434D01*
Y874466D01*
X1513418D01*
Y872434D01*
X1514434D01*
X440908Y981348D02*
X441924D01*
X442940Y982364D01*
X443956Y981348D01*
X444972D01*
Y982364D01*
X443956Y983380D01*
X444972Y984396D01*
Y985412D01*
X443956D01*
X442940Y984396D01*
X441924Y985412D01*
X440908D01*
Y984396D01*
X441924Y983380D01*
X440908Y982364D01*
Y981348D01*
X395908D02*
X396924D01*
X397940Y982364D01*
X398956Y981348D01*
X399972D01*
Y982364D01*
X398956Y983380D01*
X399972Y984396D01*
Y985412D01*
X398956D01*
X397940Y984396D01*
X396924Y985412D01*
X395908D01*
Y984396D01*
X396924Y983380D01*
X395908Y982364D01*
Y981348D01*
X453408Y958380D02*
X455440Y960412D01*
X457472Y958380D01*
X455440Y956348D01*
X453408Y958380D01*
X383408D02*
X385440Y960412D01*
X387472Y958380D01*
X385440Y956348D01*
X383408Y958380D01*
X816968Y159568D02*
Y163632D01*
X821032D01*
Y159568D01*
X816968D01*
X817984Y160584D02*
Y162616D01*
X820016D01*
Y160584D01*
X817984D01*
X816968Y184968D02*
Y189032D01*
X821032D01*
Y184968D01*
X816968D01*
X817984Y185984D02*
Y188016D01*
X820016D01*
Y185984D01*
X817984D01*
X816968Y76368D02*
Y80432D01*
X821032D01*
Y76368D01*
X816968D01*
X817984Y77384D02*
Y79416D01*
X820016D01*
Y77384D01*
X817984D01*
X816968Y50968D02*
Y55032D01*
X821032D01*
Y50968D01*
X816968D01*
X817984Y51984D02*
Y54016D01*
X820016D01*
Y51984D01*
X817984D01*
X57000Y69968D02*
X54968Y74032D01*
X59032D01*
X57000Y69968D01*
Y70984D02*
X55984Y73016D01*
X58016D01*
X57000Y70984D01*
Y659968D02*
X54968Y664032D01*
X59032D01*
X57000Y659968D01*
Y660984D02*
X55984Y663016D01*
X58016D01*
X57000Y660984D01*
X1737000Y69968D02*
X1734968Y74032D01*
X1739032D01*
X1737000Y69968D01*
Y70984D02*
X1735984Y73016D01*
X1738016D01*
X1737000Y70984D01*
X1742000Y658968D02*
X1739968Y663032D01*
X1744032D01*
X1742000Y658968D01*
Y659984D02*
X1740984Y662016D01*
X1743016D01*
X1742000Y659984D01*
X1190000Y298989D02*
X1187968Y303053D01*
X1192032D01*
X1190000Y298989D01*
Y300005D02*
X1188984Y302037D01*
X1191016D01*
X1190000Y300005D01*
X610000Y299989D02*
X607968Y304053D01*
X612032D01*
X610000Y299989D01*
Y301005D02*
X608984Y303037D01*
X611016D01*
X610000Y301005D01*
X1189000Y790989D02*
X1186968Y795053D01*
X1191032D01*
X1189000Y790989D01*
Y792005D02*
X1187984Y794037D01*
X1190016D01*
X1189000Y792005D01*
X610000Y789968D02*
X607968Y794032D01*
X612032D01*
X610000Y789968D01*
Y790984D02*
X608984Y793016D01*
X611016D01*
X610000Y790984D01*
X656000Y967708D02*
X657016Y968724D01*
X658032D01*
X657016Y969740D01*
X658032Y970756D01*
X657016D01*
X656000Y971772D01*
X654984Y970756D01*
X653968D01*
X654984Y969740D01*
X653968Y968724D01*
X654984D01*
X656000Y967708D01*
Y968724D02*
X656508Y969232D01*
X657016D01*
X656508Y969740D01*
X657016Y970248D01*
X656508D01*
X656000Y970756D01*
X655492Y970248D01*
X654984D01*
X655492Y969740D01*
X654984Y969232D01*
X655492D01*
X656000Y968724D01*
X737000Y967708D02*
X738016Y968724D01*
X739032D01*
X738016Y969740D01*
X739032Y970756D01*
X738016D01*
X737000Y971772D01*
X735984Y970756D01*
X734968D01*
X735984Y969740D01*
X734968Y968724D01*
X735984D01*
X737000Y967708D01*
Y968724D02*
X737508Y969232D01*
X738016D01*
X737508Y969740D01*
X738016Y970248D01*
X737508D01*
X737000Y970756D01*
X736492Y970248D01*
X735984D01*
X736492Y969740D01*
X735984Y969232D01*
X736492D01*
X737000Y968724D01*
X111468Y977468D02*
X112484Y979500D01*
X111468Y981532D01*
X113500Y980516D01*
X115532Y981532D01*
X114516Y979500D01*
X115532Y977468D01*
X113500Y978484D01*
X111468Y977468D01*
X112484Y978484D02*
X112992Y979500D01*
X112484Y980516D01*
X113500Y980008D01*
X114516Y980516D01*
X114008Y979500D01*
X114516Y978484D01*
X113500Y978992D01*
X112484Y978484D01*
X65484Y903484D02*
Y902468D01*
X67516D01*
Y903484D01*
X68532D01*
Y905516D01*
X67516D01*
Y906532D01*
X65484D01*
Y905516D01*
X64468D01*
Y903484D01*
X65484D01*
X65992Y903992D02*
Y903484D01*
X67008D01*
Y903992D01*
X67516D01*
Y905008D01*
X67008D01*
Y905516D01*
X65992D01*
Y905008D01*
X65484D01*
Y903992D01*
X65992D01*
X112484Y933484D02*
Y932468D01*
X114516D01*
Y933484D01*
X115532D01*
Y935516D01*
X114516D01*
Y936532D01*
X112484D01*
Y935516D01*
X111468D01*
Y933484D01*
X112484D01*
X112992Y933992D02*
Y933484D01*
X114008D01*
Y933992D01*
X114516D01*
Y935008D01*
X114008D01*
Y935516D01*
X112992D01*
Y935008D01*
X112484D01*
Y933992D01*
X112992D01*
X112484Y873484D02*
Y872468D01*
X114516D01*
Y873484D01*
X115532D01*
Y875516D01*
X114516D01*
Y876532D01*
X112484D01*
Y875516D01*
X111468D01*
Y873484D01*
X112484D01*
X112992Y873992D02*
Y873484D01*
X114008D01*
Y873992D01*
X114516D01*
Y875008D01*
X114008D01*
Y875516D01*
X112992D01*
Y875008D01*
X112484D01*
Y873992D01*
X112992D01*
X1296518Y911218D02*
X1297534D01*
X1298550Y912234D01*
X1299566Y911218D01*
X1300582D01*
Y912234D01*
X1299566Y913250D01*
X1300582Y914266D01*
Y915282D01*
X1299566D01*
X1298550Y914266D01*
X1297534Y915282D01*
X1296518D01*
Y914266D01*
X1297534Y913250D01*
X1296518Y912234D01*
Y911218D01*
X1297534Y912234D02*
X1298042D01*
X1298550Y912742D01*
X1299058Y912234D01*
X1299566D01*
Y912742D01*
X1299058Y913250D01*
X1299566Y913758D01*
Y914266D01*
X1299058D01*
X1298550Y913758D01*
X1298042Y914266D01*
X1297534D01*
Y913758D01*
X1298042Y913250D01*
X1297534Y912742D01*
Y912234D01*
X1226518Y911218D02*
X1227534D01*
X1228550Y912234D01*
X1229566Y911218D01*
X1230582D01*
Y912234D01*
X1229566Y913250D01*
X1230582Y914266D01*
Y915282D01*
X1229566D01*
X1228550Y914266D01*
X1227534Y915282D01*
X1226518D01*
Y914266D01*
X1227534Y913250D01*
X1226518Y912234D01*
Y911218D01*
X1227534Y912234D02*
X1228042D01*
X1228550Y912742D01*
X1229058Y912234D01*
X1229566D01*
Y912742D01*
X1229058Y913250D01*
X1229566Y913758D01*
Y914266D01*
X1229058D01*
X1228550Y913758D01*
X1228042Y914266D01*
X1227534D01*
Y913758D01*
X1228042Y913250D01*
X1227534Y912742D01*
Y912234D01*
X1296518Y885118D02*
X1297534D01*
X1298550Y886134D01*
X1299566Y885118D01*
X1300582D01*
Y886134D01*
X1299566Y887150D01*
X1300582Y888166D01*
Y889182D01*
X1299566D01*
X1298550Y888166D01*
X1297534Y889182D01*
X1296518D01*
Y888166D01*
X1297534Y887150D01*
X1296518Y886134D01*
Y885118D01*
X1297534Y886134D02*
X1298042D01*
X1298550Y886642D01*
X1299058Y886134D01*
X1299566D01*
Y886642D01*
X1299058Y887150D01*
X1299566Y887658D01*
Y888166D01*
X1299058D01*
X1298550Y887658D01*
X1298042Y888166D01*
X1297534D01*
Y887658D01*
X1298042Y887150D01*
X1297534Y886642D01*
Y886134D01*
X1271518Y885118D02*
X1272534D01*
X1273550Y886134D01*
X1274566Y885118D01*
X1275582D01*
Y886134D01*
X1274566Y887150D01*
X1275582Y888166D01*
Y889182D01*
X1274566D01*
X1273550Y888166D01*
X1272534Y889182D01*
X1271518D01*
Y888166D01*
X1272534Y887150D01*
X1271518Y886134D01*
Y885118D01*
X1272534Y886134D02*
X1273042D01*
X1273550Y886642D01*
X1274058Y886134D01*
X1274566D01*
Y886642D01*
X1274058Y887150D01*
X1274566Y887658D01*
Y888166D01*
X1274058D01*
X1273550Y887658D01*
X1273042Y888166D01*
X1272534D01*
Y887658D01*
X1273042Y887150D01*
X1272534Y886642D01*
Y886134D01*
X1251518Y885118D02*
X1252534D01*
X1253550Y886134D01*
X1254566Y885118D01*
X1255582D01*
Y886134D01*
X1254566Y887150D01*
X1255582Y888166D01*
Y889182D01*
X1254566D01*
X1253550Y888166D01*
X1252534Y889182D01*
X1251518D01*
Y888166D01*
X1252534Y887150D01*
X1251518Y886134D01*
Y885118D01*
X1252534Y886134D02*
X1253042D01*
X1253550Y886642D01*
X1254058Y886134D01*
X1254566D01*
Y886642D01*
X1254058Y887150D01*
X1254566Y887658D01*
Y888166D01*
X1254058D01*
X1253550Y887658D01*
X1253042Y888166D01*
X1252534D01*
Y887658D01*
X1253042Y887150D01*
X1252534Y886642D01*
Y886134D01*
X1226518Y885118D02*
X1227534D01*
X1228550Y886134D01*
X1229566Y885118D01*
X1230582D01*
Y886134D01*
X1229566Y887150D01*
X1230582Y888166D01*
Y889182D01*
X1229566D01*
X1228550Y888166D01*
X1227534Y889182D01*
X1226518D01*
Y888166D01*
X1227534Y887150D01*
X1226518Y886134D01*
Y885118D01*
X1227534Y886134D02*
X1228042D01*
X1228550Y886642D01*
X1229058Y886134D01*
X1229566D01*
Y886642D01*
X1229058Y887150D01*
X1229566Y887658D01*
Y888166D01*
X1229058D01*
X1228550Y887658D01*
X1228042Y888166D01*
X1227534D01*
Y887658D01*
X1228042Y887150D01*
X1227534Y886642D01*
Y886134D01*
X1329250Y883650D02*
Y887036D01*
X1330943Y888728D01*
X1332636Y887036D01*
Y883650D01*
Y886189D01*
X1329250D01*
X1197850Y883650D02*
Y887036D01*
X1199543Y888728D01*
X1201236Y887036D01*
Y883650D01*
Y886189D01*
X1197850D01*
Y940450D02*
Y943836D01*
X1199543Y945528D01*
X1201236Y943836D01*
Y940450D01*
Y942989D01*
X1197850D01*
X1329250Y940450D02*
Y943836D01*
X1330943Y945528D01*
X1332636Y943836D01*
Y940450D01*
Y942989D01*
X1329250D01*
X1128518Y911218D02*
X1129534D01*
X1130550Y912234D01*
X1131566Y911218D01*
X1132582D01*
Y912234D01*
X1131566Y913250D01*
X1132582Y914266D01*
Y915282D01*
X1131566D01*
X1130550Y914266D01*
X1129534Y915282D01*
X1128518D01*
Y914266D01*
X1129534Y913250D01*
X1128518Y912234D01*
Y911218D01*
X1129534Y912234D02*
X1130042D01*
X1130550Y912742D01*
X1131058Y912234D01*
X1131566D01*
Y912742D01*
X1131058Y913250D01*
X1131566Y913758D01*
Y914266D01*
X1131058D01*
X1130550Y913758D01*
X1130042Y914266D01*
X1129534D01*
Y913758D01*
X1130042Y913250D01*
X1129534Y912742D01*
Y912234D01*
X1058518Y911218D02*
X1059534D01*
X1060550Y912234D01*
X1061566Y911218D01*
X1062582D01*
Y912234D01*
X1061566Y913250D01*
X1062582Y914266D01*
Y915282D01*
X1061566D01*
X1060550Y914266D01*
X1059534Y915282D01*
X1058518D01*
Y914266D01*
X1059534Y913250D01*
X1058518Y912234D01*
Y911218D01*
X1059534Y912234D02*
X1060042D01*
X1060550Y912742D01*
X1061058Y912234D01*
X1061566D01*
Y912742D01*
X1061058Y913250D01*
X1061566Y913758D01*
Y914266D01*
X1061058D01*
X1060550Y913758D01*
X1060042Y914266D01*
X1059534D01*
Y913758D01*
X1060042Y913250D01*
X1059534Y912742D01*
Y912234D01*
X1128518Y885118D02*
X1129534D01*
X1130550Y886134D01*
X1131566Y885118D01*
X1132582D01*
Y886134D01*
X1131566Y887150D01*
X1132582Y888166D01*
Y889182D01*
X1131566D01*
X1130550Y888166D01*
X1129534Y889182D01*
X1128518D01*
Y888166D01*
X1129534Y887150D01*
X1128518Y886134D01*
Y885118D01*
X1129534Y886134D02*
X1130042D01*
X1130550Y886642D01*
X1131058Y886134D01*
X1131566D01*
Y886642D01*
X1131058Y887150D01*
X1131566Y887658D01*
Y888166D01*
X1131058D01*
X1130550Y887658D01*
X1130042Y888166D01*
X1129534D01*
Y887658D01*
X1130042Y887150D01*
X1129534Y886642D01*
Y886134D01*
X1058518Y885118D02*
X1059534D01*
X1060550Y886134D01*
X1061566Y885118D01*
X1062582D01*
Y886134D01*
X1061566Y887150D01*
X1062582Y888166D01*
Y889182D01*
X1061566D01*
X1060550Y888166D01*
X1059534Y889182D01*
X1058518D01*
Y888166D01*
X1059534Y887150D01*
X1058518Y886134D01*
Y885118D01*
X1059534Y886134D02*
X1060042D01*
X1060550Y886642D01*
X1061058Y886134D01*
X1061566D01*
Y886642D01*
X1061058Y887150D01*
X1061566Y887658D01*
Y888166D01*
X1061058D01*
X1060550Y887658D01*
X1060042Y888166D01*
X1059534D01*
Y887658D01*
X1060042Y887150D01*
X1059534Y886642D01*
Y886134D01*
X1161250Y883650D02*
Y887036D01*
X1162943Y888728D01*
X1164635Y887036D01*
Y883650D01*
Y886189D01*
X1161250D01*
X1029850Y883650D02*
Y887036D01*
X1031543Y888728D01*
X1033236Y887036D01*
Y883650D01*
Y886189D01*
X1029850D01*
Y940450D02*
Y943836D01*
X1031543Y945528D01*
X1033236Y943836D01*
Y940450D01*
Y942989D01*
X1029850D01*
X1161250Y940450D02*
Y943836D01*
X1162943Y945528D01*
X1164635Y943836D01*
Y940450D01*
Y942989D01*
X1161250D01*
X1103518Y885118D02*
X1104534D01*
X1105550Y886134D01*
X1106566Y885118D01*
X1107582D01*
Y886134D01*
X1106566Y887150D01*
X1107582Y888166D01*
Y889182D01*
X1106566D01*
X1105550Y888166D01*
X1104534Y889182D01*
X1103518D01*
Y888166D01*
X1104534Y887150D01*
X1103518Y886134D01*
Y885118D01*
X1104534Y886134D02*
X1105042D01*
X1105550Y886642D01*
X1106058Y886134D01*
X1106566D01*
Y886642D01*
X1106058Y887150D01*
X1106566Y887658D01*
Y888166D01*
X1106058D01*
X1105550Y887658D01*
X1105042Y888166D01*
X1104534D01*
Y887658D01*
X1105042Y887150D01*
X1104534Y886642D01*
Y886134D01*
X1083518Y885118D02*
X1084534D01*
X1085550Y886134D01*
X1086566Y885118D01*
X1087582D01*
Y886134D01*
X1086566Y887150D01*
X1087582Y888166D01*
Y889182D01*
X1086566D01*
X1085550Y888166D01*
X1084534Y889182D01*
X1083518D01*
Y888166D01*
X1084534Y887150D01*
X1083518Y886134D01*
Y885118D01*
X1084534Y886134D02*
X1085042D01*
X1085550Y886642D01*
X1086058Y886134D01*
X1086566D01*
Y886642D01*
X1086058Y887150D01*
X1086566Y887658D01*
Y888166D01*
X1086058D01*
X1085550Y887658D01*
X1085042Y888166D01*
X1084534D01*
Y887658D01*
X1085042Y887150D01*
X1084534Y886642D01*
Y886134D01*
X1083518Y911218D02*
X1084534D01*
X1085550Y912234D01*
X1086566Y911218D01*
X1087582D01*
Y912234D01*
X1086566Y913250D01*
X1087582Y914266D01*
Y915282D01*
X1086566D01*
X1085550Y914266D01*
X1084534Y915282D01*
X1083518D01*
Y914266D01*
X1084534Y913250D01*
X1083518Y912234D01*
Y911218D01*
X1084534Y912234D02*
X1085042D01*
X1085550Y912742D01*
X1086058Y912234D01*
X1086566D01*
Y912742D01*
X1086058Y913250D01*
X1086566Y913758D01*
Y914266D01*
X1086058D01*
X1085550Y913758D01*
X1085042Y914266D01*
X1084534D01*
Y913758D01*
X1085042Y913250D01*
X1084534Y912742D01*
Y912234D01*
X1103518Y911218D02*
X1104534D01*
X1105550Y912234D01*
X1106566Y911218D01*
X1107582D01*
Y912234D01*
X1106566Y913250D01*
X1107582Y914266D01*
Y915282D01*
X1106566D01*
X1105550Y914266D01*
X1104534Y915282D01*
X1103518D01*
Y914266D01*
X1104534Y913250D01*
X1103518Y912234D01*
Y911218D01*
X1104534Y912234D02*
X1105042D01*
X1105550Y912742D01*
X1106058Y912234D01*
X1106566D01*
Y912742D01*
X1106058Y913250D01*
X1106566Y913758D01*
Y914266D01*
X1106058D01*
X1105550Y913758D01*
X1105042Y914266D01*
X1104534D01*
Y913758D01*
X1105042Y913250D01*
X1104534Y912742D01*
Y912234D01*
X1251518Y911218D02*
X1252534D01*
X1253550Y912234D01*
X1254566Y911218D01*
X1255582D01*
Y912234D01*
X1254566Y913250D01*
X1255582Y914266D01*
Y915282D01*
X1254566D01*
X1253550Y914266D01*
X1252534Y915282D01*
X1251518D01*
Y914266D01*
X1252534Y913250D01*
X1251518Y912234D01*
Y911218D01*
X1252534Y912234D02*
X1253042D01*
X1253550Y912742D01*
X1254058Y912234D01*
X1254566D01*
Y912742D01*
X1254058Y913250D01*
X1254566Y913758D01*
Y914266D01*
X1254058D01*
X1253550Y913758D01*
X1253042Y914266D01*
X1252534D01*
Y913758D01*
X1253042Y913250D01*
X1252534Y912742D01*
Y912234D01*
X1271518Y911218D02*
X1272534D01*
X1273550Y912234D01*
X1274566Y911218D01*
X1275582D01*
Y912234D01*
X1274566Y913250D01*
X1275582Y914266D01*
Y915282D01*
X1274566D01*
X1273550Y914266D01*
X1272534Y915282D01*
X1271518D01*
Y914266D01*
X1272534Y913250D01*
X1271518Y912234D01*
Y911218D01*
X1272534Y912234D02*
X1273042D01*
X1273550Y912742D01*
X1274058Y912234D01*
X1274566D01*
Y912742D01*
X1274058Y913250D01*
X1274566Y913758D01*
Y914266D01*
X1274058D01*
X1273550Y913758D01*
X1273042Y914266D01*
X1272534D01*
Y913758D01*
X1273042Y913250D01*
X1272534Y912742D01*
Y912234D01*
X329000Y449078D02*
Y444000D01*
X331539D01*
X332386Y444846D01*
Y445693D01*
X331539Y446539D01*
X329000D01*
X331539D01*
X332386Y447386D01*
Y448232D01*
X331539Y449078D01*
X329000D01*
Y641078D02*
Y636000D01*
X331539D01*
X332386Y636846D01*
Y637693D01*
X331539Y638539D01*
X329000D01*
X331539D01*
X332386Y639386D01*
Y640232D01*
X331539Y641078D01*
X329000D01*
Y651078D02*
Y646000D01*
X331539D01*
X332386Y646846D01*
Y647693D01*
X331539Y648539D01*
X329000D01*
X331539D01*
X332386Y649386D01*
Y650232D01*
X331539Y651078D01*
X329000D01*
Y429078D02*
Y424000D01*
X331539D01*
X332386Y424846D01*
Y425693D01*
X331539Y426539D01*
X329000D01*
X331539D01*
X332386Y427386D01*
Y428232D01*
X331539Y429078D01*
X329000D01*
Y439078D02*
Y434000D01*
X331539D01*
X332386Y434846D01*
Y435693D01*
X331539Y436539D01*
X329000D01*
X331539D01*
X332386Y437386D01*
Y438232D01*
X331539Y439078D01*
X329000D01*
X1282250Y408578D02*
Y403500D01*
X1284789D01*
X1285636Y404346D01*
Y405193D01*
X1284789Y406039D01*
X1282250D01*
X1284789D01*
X1285636Y406886D01*
Y407732D01*
X1284789Y408578D01*
X1282250D01*
X343500Y420078D02*
Y415000D01*
X346039D01*
X346886Y415846D01*
Y416693D01*
X346039Y417539D01*
X343500D01*
X346039D01*
X346886Y418386D01*
Y419232D01*
X346039Y420078D01*
X343500D01*
X1285725Y402603D02*
Y397525D01*
X1288264D01*
X1289110Y398372D01*
Y399218D01*
X1288264Y400064D01*
X1285725D01*
X1288264D01*
X1289110Y400911D01*
Y401757D01*
X1288264Y402603D01*
X1285725D01*
X329000Y419078D02*
Y414000D01*
X331539D01*
X332386Y414846D01*
Y415693D01*
X331539Y416539D01*
X329000D01*
X331539D01*
X332386Y417386D01*
Y418232D01*
X331539Y419078D01*
X329000D01*
X369900Y767178D02*
Y762100D01*
X372439D01*
X373285Y762946D01*
Y763793D01*
X372439Y764639D01*
X369900D01*
X372439D01*
X373285Y765486D01*
Y766332D01*
X372439Y767178D01*
X369900D01*
X1110000Y179078D02*
Y174000D01*
X1112539D01*
X1113386Y174846D01*
Y175693D01*
X1112539Y176539D01*
X1110000D01*
X1112539D01*
X1113386Y177386D01*
Y178232D01*
X1112539Y179078D01*
X1110000D01*
X983000D02*
Y174000D01*
X985539D01*
X986386Y174846D01*
Y175693D01*
X985539Y176539D01*
X983000D01*
X985539D01*
X986386Y177386D01*
Y178232D01*
X985539Y179078D01*
X983000D01*
X942000Y114078D02*
Y109000D01*
X944539D01*
X945386Y109846D01*
Y110693D01*
X944539Y111539D01*
X942000D01*
X944539D01*
X945386Y112386D01*
Y113232D01*
X944539Y114078D01*
X942000D01*
X962000Y113078D02*
Y108000D01*
X964539D01*
X965386Y108846D01*
Y109693D01*
X964539Y110539D01*
X962000D01*
X964539D01*
X965386Y111386D01*
Y112232D01*
X964539Y113078D01*
X962000D01*
X980000D02*
Y108000D01*
X982539D01*
X983386Y108846D01*
Y109693D01*
X982539Y110539D01*
X980000D01*
X982539D01*
X983386Y111386D01*
Y112232D01*
X982539Y113078D01*
X980000D01*
X979000Y132078D02*
Y127000D01*
X981539D01*
X982386Y127846D01*
Y128693D01*
X981539Y129539D01*
X979000D01*
X981539D01*
X982386Y130386D01*
Y131232D01*
X981539Y132078D01*
X979000D01*
X942000Y133078D02*
Y128000D01*
X944539D01*
X945386Y128846D01*
Y129693D01*
X944539Y130539D01*
X942000D01*
X944539D01*
X945386Y131386D01*
Y132232D01*
X944539Y133078D01*
X942000D01*
X960000Y153078D02*
Y148000D01*
X962539D01*
X963386Y148846D01*
Y149693D01*
X962539Y150539D01*
X960000D01*
X962539D01*
X963386Y151386D01*
Y152232D01*
X962539Y153078D01*
X960000D01*
X978000Y154078D02*
Y149000D01*
X980539D01*
X981386Y149846D01*
Y150693D01*
X980539Y151539D01*
X978000D01*
X980539D01*
X981386Y152386D01*
Y153232D01*
X980539Y154078D01*
X978000D01*
X1186980Y156058D02*
Y150980D01*
X1189519D01*
X1190366Y151826D01*
Y152673D01*
X1189519Y153519D01*
X1186980D01*
X1189519D01*
X1190366Y154366D01*
Y155212D01*
X1189519Y156058D01*
X1186980D01*
X1700500Y935828D02*
Y930750D01*
X1703039D01*
X1703886Y931596D01*
Y932443D01*
X1703039Y933289D01*
X1700500D01*
X1703039D01*
X1703886Y934136D01*
Y934982D01*
X1703039Y935828D01*
X1700500D01*
X1749530Y890358D02*
Y885280D01*
X1752069D01*
X1752916Y886126D01*
Y886973D01*
X1752069Y887819D01*
X1749530D01*
X1752069D01*
X1752916Y888666D01*
Y889512D01*
X1752069Y890358D01*
X1749530D01*
X1738530Y890108D02*
Y885030D01*
X1741069D01*
X1741916Y885876D01*
Y886723D01*
X1741069Y887569D01*
X1738530D01*
X1741069D01*
X1741916Y888416D01*
Y889262D01*
X1741069Y890108D01*
X1738530D01*
X1716530D02*
Y885030D01*
X1719069D01*
X1719916Y885876D01*
Y886723D01*
X1719069Y887569D01*
X1716530D01*
X1719069D01*
X1719916Y888416D01*
Y889262D01*
X1719069Y890108D01*
X1716530D01*
X1694530Y916048D02*
Y910970D01*
X1697069D01*
X1697916Y911816D01*
Y912663D01*
X1697069Y913509D01*
X1694530D01*
X1697069D01*
X1697916Y914355D01*
Y915202D01*
X1697069Y916048D01*
X1694530D01*
X1672530Y916048D02*
Y910970D01*
X1675069D01*
X1675916Y911816D01*
Y912663D01*
X1675069Y913509D01*
X1672530D01*
X1675069D01*
X1675916Y914356D01*
Y915202D01*
X1675069Y916048D01*
X1672530D01*
X1437000Y639578D02*
Y634500D01*
X1439539D01*
X1440386Y635346D01*
Y636193D01*
X1439539Y637039D01*
X1437000D01*
X1439539D01*
X1440386Y637886D01*
Y638732D01*
X1439539Y639578D01*
X1437000D01*
Y633578D02*
Y628500D01*
X1439539D01*
X1440386Y629346D01*
Y630193D01*
X1439539Y631039D01*
X1437000D01*
X1439539D01*
X1440386Y631886D01*
Y632732D01*
X1439539Y633578D01*
X1437000D01*
Y651578D02*
Y646500D01*
X1439539D01*
X1440386Y647346D01*
Y648193D01*
X1439539Y649039D01*
X1437000D01*
X1439539D01*
X1440386Y649886D01*
Y650732D01*
X1439539Y651578D01*
X1437000D01*
Y657578D02*
Y652500D01*
X1439539D01*
X1440386Y653346D01*
Y654193D01*
X1439539Y655039D01*
X1437000D01*
X1439539D01*
X1440386Y655886D01*
Y656732D01*
X1439539Y657578D01*
X1437000D01*
Y669328D02*
Y664250D01*
X1439539D01*
X1440386Y665096D01*
Y665943D01*
X1439539Y666789D01*
X1437000D01*
X1439539D01*
X1440386Y667636D01*
Y668482D01*
X1439539Y669328D01*
X1437000D01*
Y675578D02*
Y670500D01*
X1439539D01*
X1440386Y671346D01*
Y672193D01*
X1439539Y673039D01*
X1437000D01*
X1439539D01*
X1440386Y673886D01*
Y674732D01*
X1439539Y675578D01*
X1437000D01*
X1319250Y696578D02*
Y691500D01*
X1321789D01*
X1322636Y692346D01*
Y693193D01*
X1321789Y694039D01*
X1319250D01*
X1321789D01*
X1322636Y694886D01*
Y695732D01*
X1321789Y696578D01*
X1319250D01*
Y690578D02*
Y685500D01*
X1321789D01*
X1322636Y686346D01*
Y687193D01*
X1321789Y688039D01*
X1319250D01*
X1321789D01*
X1322636Y688886D01*
Y689732D01*
X1321789Y690578D01*
X1319250D01*
X916000Y224578D02*
Y219500D01*
X918539D01*
X919386Y220346D01*
Y221193D01*
X918539Y222039D01*
X916000D01*
X918539D01*
X919386Y222886D01*
Y223732D01*
X918539Y224578D01*
X916000D01*
X938250D02*
Y219500D01*
X940789D01*
X941636Y220346D01*
Y221193D01*
X940789Y222039D01*
X938250D01*
X940789D01*
X941636Y222886D01*
Y223732D01*
X940789Y224578D01*
X938250D01*
X960000Y225078D02*
Y220000D01*
X962539D01*
X963386Y220846D01*
Y221693D01*
X962539Y222539D01*
X960000D01*
X962539D01*
X963386Y223386D01*
Y224232D01*
X962539Y225078D01*
X960000D01*
X981000Y226328D02*
Y221250D01*
X983539D01*
X984386Y222096D01*
Y222943D01*
X983539Y223789D01*
X981000D01*
X983539D01*
X984386Y224636D01*
Y225482D01*
X983539Y226328D01*
X981000D01*
X916000Y184828D02*
Y179750D01*
X918539D01*
X919386Y180596D01*
Y181443D01*
X918539Y182289D01*
X916000D01*
X918539D01*
X919386Y183136D01*
Y183982D01*
X918539Y184828D01*
X916000D01*
X960000Y185578D02*
Y180500D01*
X962539D01*
X963386Y181346D01*
Y182193D01*
X962539Y183039D01*
X960000D01*
X962539D01*
X963386Y183886D01*
Y184732D01*
X962539Y185578D01*
X960000D01*
X1003000Y225328D02*
Y220250D01*
X1005539D01*
X1006386Y221096D01*
Y221943D01*
X1005539Y222789D01*
X1003000D01*
X1005539D01*
X1006386Y223636D01*
Y224482D01*
X1005539Y225328D01*
X1003000D01*
X1061918Y45410D02*
Y40332D01*
X1064457D01*
X1065304Y41178D01*
Y42025D01*
X1064457Y42871D01*
X1061918D01*
X1064457D01*
X1065304Y43718D01*
Y44564D01*
X1064457Y45410D01*
X1061918D01*
X1006900Y71178D02*
Y66100D01*
X1009439D01*
X1010286Y66946D01*
Y67793D01*
X1009439Y68639D01*
X1006900D01*
X1009439D01*
X1010286Y69486D01*
Y70332D01*
X1009439Y71178D01*
X1006900D01*
X1042500Y216078D02*
Y211000D01*
X1045039D01*
X1045886Y211846D01*
Y212693D01*
X1045039Y213539D01*
X1042500D01*
X1045039D01*
X1045886Y214386D01*
Y215232D01*
X1045039Y216078D01*
X1042500D01*
X1095450Y129378D02*
Y124300D01*
X1097989D01*
X1098835Y125147D01*
Y125993D01*
X1097989Y126839D01*
X1095450D01*
X1097989D01*
X1098835Y127686D01*
Y128532D01*
X1097989Y129378D01*
X1095450D01*
X1095430Y115258D02*
Y110180D01*
X1097969D01*
X1098816Y111026D01*
Y111873D01*
X1097969Y112719D01*
X1095430D01*
X1097969D01*
X1098816Y113566D01*
Y114412D01*
X1097969Y115258D01*
X1095430D01*
X1266852Y72680D02*
Y67602D01*
X1269391D01*
X1270238Y68448D01*
Y69295D01*
X1269391Y70141D01*
X1266852D01*
X1269391D01*
X1270238Y70988D01*
Y71834D01*
X1269391Y72680D01*
X1266852D01*
X585100Y27928D02*
Y22850D01*
X587639D01*
X588486Y23696D01*
Y24543D01*
X587639Y25389D01*
X585100D01*
X587639D01*
X588486Y26236D01*
Y27082D01*
X587639Y27928D01*
X585100D01*
X608250Y28078D02*
Y23000D01*
X610789D01*
X611636Y23846D01*
Y24693D01*
X610789Y25539D01*
X608250D01*
X610789D01*
X611636Y26386D01*
Y27232D01*
X610789Y28078D01*
X608250D01*
X1498750Y575078D02*
Y570000D01*
X1501289D01*
X1502136Y570846D01*
Y571693D01*
X1501289Y572539D01*
X1498750D01*
X1501289D01*
X1502136Y573386D01*
Y574232D01*
X1501289Y575078D01*
X1498750D01*
X1498250Y503328D02*
Y498250D01*
X1500789D01*
X1501636Y499096D01*
Y499943D01*
X1500789Y500789D01*
X1498250D01*
X1500789D01*
X1501636Y501636D01*
Y502482D01*
X1500789Y503328D01*
X1498250D01*
X1418000Y752828D02*
Y747750D01*
X1420539D01*
X1421385Y748596D01*
Y749443D01*
X1420539Y750289D01*
X1418000D01*
X1420539D01*
X1421385Y751135D01*
Y751982D01*
X1420539Y752828D01*
X1418000D01*
X1440000Y752578D02*
Y747500D01*
X1442539D01*
X1443386Y748346D01*
Y749193D01*
X1442539Y750039D01*
X1440000D01*
X1442539D01*
X1443386Y750885D01*
Y751732D01*
X1442539Y752578D01*
X1440000D01*
X1705530Y889858D02*
Y884780D01*
X1708069D01*
X1708916Y885626D01*
Y886473D01*
X1708069Y887319D01*
X1705530D01*
X1708069D01*
X1708916Y888166D01*
Y889012D01*
X1708069Y889858D01*
X1705530D01*
X1053250Y751828D02*
Y746750D01*
X1055789D01*
X1056636Y747596D01*
Y748443D01*
X1055789Y749289D01*
X1053250D01*
X1055789D01*
X1056636Y750135D01*
Y750982D01*
X1055789Y751828D01*
X1053250D01*
X1082250Y753328D02*
Y748250D01*
X1084789D01*
X1085636Y749096D01*
Y749943D01*
X1084789Y750789D01*
X1082250D01*
X1084789D01*
X1085636Y751636D01*
Y752482D01*
X1084789Y753328D01*
X1082250D01*
X1104250Y753828D02*
Y748750D01*
X1106789D01*
X1107636Y749596D01*
Y750443D01*
X1106789Y751289D01*
X1104250D01*
X1106789D01*
X1107636Y752135D01*
Y752982D01*
X1106789Y753828D01*
X1104250D01*
X1127250Y754328D02*
Y749250D01*
X1129789D01*
X1130636Y750096D01*
Y750943D01*
X1129789Y751789D01*
X1127250D01*
X1129789D01*
X1130636Y752635D01*
Y753482D01*
X1129789Y754328D01*
X1127250D01*
X1149250Y754078D02*
Y749000D01*
X1151789D01*
X1152636Y749846D01*
Y750693D01*
X1151789Y751539D01*
X1149250D01*
X1151789D01*
X1152636Y752385D01*
Y753232D01*
X1151789Y754078D01*
X1149250D01*
X1196150Y751178D02*
Y746100D01*
X1198689D01*
X1199536Y746946D01*
Y747793D01*
X1198689Y748639D01*
X1196150D01*
X1198689D01*
X1199536Y749485D01*
Y750332D01*
X1198689Y751178D01*
X1196150D01*
X1080000Y584078D02*
Y579000D01*
X1082539D01*
X1083386Y579846D01*
Y580693D01*
X1082539Y581539D01*
X1080000D01*
X1082539D01*
X1083386Y582386D01*
Y583232D01*
X1082539Y584078D01*
X1080000D01*
X1041350Y638478D02*
Y633400D01*
X1043889D01*
X1044736Y634246D01*
Y635093D01*
X1043889Y635939D01*
X1041350D01*
X1043889D01*
X1044736Y636786D01*
Y637632D01*
X1043889Y638478D01*
X1041350D01*
X1137740Y593568D02*
Y588490D01*
X1140279D01*
X1141126Y589336D01*
Y590183D01*
X1140279Y591029D01*
X1137740D01*
X1140279D01*
X1141126Y591875D01*
Y592722D01*
X1140279Y593568D01*
X1137740D01*
X1041350Y666228D02*
Y661150D01*
X1043889D01*
X1044736Y661996D01*
Y662843D01*
X1043889Y663689D01*
X1041350D01*
X1043889D01*
X1044736Y664536D01*
Y665382D01*
X1043889Y666228D01*
X1041350D01*
X328500Y769828D02*
Y764750D01*
X331039D01*
X331885Y765596D01*
Y766443D01*
X331039Y767289D01*
X328500D01*
X331039D01*
X331885Y768136D01*
Y768982D01*
X331039Y769828D01*
X328500D01*
X423852Y844680D02*
Y839602D01*
X426391D01*
X427238Y840448D01*
Y841295D01*
X426391Y842141D01*
X423852D01*
X426391D01*
X427238Y842988D01*
Y843834D01*
X426391Y844680D01*
X423852D01*
X348000Y819578D02*
Y814500D01*
X350539D01*
X351386Y815346D01*
Y816193D01*
X350539Y817039D01*
X348000D01*
X350539D01*
X351386Y817886D01*
Y818732D01*
X350539Y819578D01*
X348000D01*
X468398Y939976D02*
Y934898D01*
X470937D01*
X471784Y935744D01*
Y936591D01*
X470937Y937437D01*
X468398D01*
X470937D01*
X471784Y938284D01*
Y939130D01*
X470937Y939976D01*
X468398D01*
X605000Y948328D02*
Y943250D01*
X607539D01*
X608386Y944096D01*
Y944943D01*
X607539Y945789D01*
X605000D01*
X607539D01*
X608386Y946636D01*
Y947482D01*
X607539Y948328D01*
X605000D01*
X627000Y948078D02*
Y943000D01*
X629539D01*
X630386Y943846D01*
Y944693D01*
X629539Y945539D01*
X627000D01*
X629539D01*
X630386Y946386D01*
Y947232D01*
X629539Y948078D01*
X627000D01*
X686000Y946828D02*
Y941750D01*
X688539D01*
X689386Y942596D01*
Y943443D01*
X688539Y944289D01*
X686000D01*
X688539D01*
X689386Y945135D01*
Y945982D01*
X688539Y946828D01*
X686000D01*
X708000Y947328D02*
Y942250D01*
X710539D01*
X711386Y943096D01*
Y943943D01*
X710539Y944789D01*
X708000D01*
X710539D01*
X711386Y945636D01*
Y946482D01*
X710539Y947328D01*
X708000D01*
X582890Y155188D02*
Y150110D01*
X585429D01*
X586276Y150956D01*
Y151803D01*
X585429Y152649D01*
X582890D01*
X585429D01*
X586276Y153496D01*
Y154342D01*
X585429Y155188D01*
X582890D01*
X633690Y155768D02*
Y150690D01*
X636229D01*
X637076Y151536D01*
Y152383D01*
X636229Y153229D01*
X633690D01*
X636229D01*
X637076Y154076D01*
Y154922D01*
X636229Y155768D01*
X633690D01*
X684490Y155568D02*
Y150490D01*
X687029D01*
X687876Y151336D01*
Y152183D01*
X687029Y153029D01*
X684490D01*
X687029D01*
X687876Y153876D01*
Y154722D01*
X687029Y155568D01*
X684490D01*
Y97568D02*
Y92490D01*
X687029D01*
X687876Y93336D01*
Y94183D01*
X687029Y95029D01*
X684490D01*
X687029D01*
X687876Y95876D01*
Y96722D01*
X687029Y97568D01*
X684490D01*
X646390Y97688D02*
Y92610D01*
X648929D01*
X649776Y93456D01*
Y94303D01*
X648929Y95149D01*
X646390D01*
X648929D01*
X649776Y95996D01*
Y96842D01*
X648929Y97688D01*
X646390D01*
X570190Y97888D02*
Y92810D01*
X572729D01*
X573576Y93656D01*
Y94503D01*
X572729Y95349D01*
X570190D01*
X572729D01*
X573576Y96195D01*
Y97042D01*
X572729Y97888D01*
X570190D01*
X568900Y28178D02*
Y23100D01*
X571439D01*
X572286Y23946D01*
Y24793D01*
X571439Y25639D01*
X568900D01*
X571439D01*
X572286Y26486D01*
Y27332D01*
X571439Y28178D01*
X568900D01*
X917000Y159078D02*
Y154000D01*
X919539D01*
X920386Y154846D01*
Y155693D01*
X919539Y156539D01*
X917000D01*
X919539D01*
X920386Y157386D01*
Y158232D01*
X919539Y159078D01*
X917000D01*
Y154078D02*
Y149000D01*
X919539D01*
X920386Y149846D01*
Y150693D01*
X919539Y151539D01*
X917000D01*
X919539D01*
X920386Y152386D01*
Y153232D01*
X919539Y154078D01*
X917000D01*
X918000Y134078D02*
Y129000D01*
X920539D01*
X921386Y129846D01*
Y130693D01*
X920539Y131539D01*
X918000D01*
X920539D01*
X921386Y132386D01*
Y133232D01*
X920539Y134078D01*
X918000D01*
X969000Y181078D02*
Y176000D01*
X971539D01*
X972386Y176846D01*
Y177693D01*
X971539Y178539D01*
X969000D01*
X971539D01*
X972386Y179386D01*
Y180232D01*
X971539Y181078D01*
X969000D01*
X1024000Y120078D02*
Y115000D01*
X1026539D01*
X1027386Y115846D01*
Y116693D01*
X1026539Y117539D01*
X1024000D01*
X1026539D01*
X1027386Y118386D01*
Y119232D01*
X1026539Y120078D01*
X1024000D01*
X1006000Y106078D02*
Y101000D01*
X1008539D01*
X1009386Y101846D01*
Y102693D01*
X1008539Y103539D01*
X1006000D01*
X1008539D01*
X1009386Y104386D01*
Y105232D01*
X1008539Y106078D01*
X1006000D01*
X924000Y42078D02*
Y37000D01*
X926539D01*
X927386Y37846D01*
Y38693D01*
X926539Y39539D01*
X924000D01*
X926539D01*
X927386Y40386D01*
Y41232D01*
X926539Y42078D01*
X924000D01*
X946000Y42078D02*
Y37000D01*
X948539D01*
X949386Y37847D01*
Y38693D01*
X948539Y39539D01*
X946000D01*
X948539D01*
X949386Y40386D01*
Y41232D01*
X948539Y42078D01*
X946000D01*
X969000Y42078D02*
Y37000D01*
X971539D01*
X972386Y37846D01*
Y38693D01*
X971539Y39539D01*
X969000D01*
X971539D01*
X972386Y40386D01*
Y41232D01*
X971539Y42078D01*
X969000D01*
X993000D02*
Y37000D01*
X995539D01*
X996386Y37846D01*
Y38693D01*
X995539Y39539D01*
X993000D01*
X995539D01*
X996386Y40386D01*
Y41232D01*
X995539Y42078D01*
X993000D01*
X942000Y154078D02*
Y149000D01*
X944539D01*
X945386Y149846D01*
Y150693D01*
X944539Y151539D01*
X942000D01*
X944539D01*
X945386Y152386D01*
Y153232D01*
X944539Y154078D01*
X942000D01*
X1181980Y133058D02*
Y127980D01*
X1184519D01*
X1185366Y128826D01*
Y129673D01*
X1184519Y130519D01*
X1181980D01*
X1184519D01*
X1185366Y131365D01*
Y132212D01*
X1184519Y133058D01*
X1181980D01*
X1150980Y103058D02*
Y97980D01*
X1153519D01*
X1154365Y98826D01*
Y99673D01*
X1153519Y100519D01*
X1150980D01*
X1153519D01*
X1154365Y101365D01*
Y102212D01*
X1153519Y103058D01*
X1150980D01*
X1095450Y58528D02*
Y53450D01*
X1097989D01*
X1098836Y54296D01*
Y55143D01*
X1097989Y55989D01*
X1095450D01*
X1097989D01*
X1098836Y56835D01*
Y57682D01*
X1097989Y58528D01*
X1095450D01*
X1184750Y73328D02*
Y68250D01*
X1187289D01*
X1188136Y69096D01*
Y69943D01*
X1187289Y70789D01*
X1184750D01*
X1187289D01*
X1188136Y71636D01*
Y72482D01*
X1187289Y73328D01*
X1184750D01*
X1071000Y202078D02*
Y197000D01*
X1073539D01*
X1074386Y197846D01*
Y198693D01*
X1073539Y199539D01*
X1071000D01*
X1073539D01*
X1074386Y200386D01*
Y201232D01*
X1073539Y202078D01*
X1071000D01*
X1356000Y679078D02*
Y674000D01*
X1358539D01*
X1359386Y674846D01*
Y675693D01*
X1358539Y676539D01*
X1356000D01*
X1358539D01*
X1359386Y677386D01*
Y678232D01*
X1358539Y679078D01*
X1356000D01*
X538770Y34308D02*
Y29230D01*
X541309D01*
X542156Y30076D01*
Y30923D01*
X541309Y31769D01*
X538770D01*
X541309D01*
X542156Y32616D01*
Y33462D01*
X541309Y34308D01*
X538770D01*
X16000Y772078D02*
Y767000D01*
X18539D01*
X19386Y767846D01*
Y768693D01*
X18539Y769539D01*
X16000D01*
X18539D01*
X19386Y770386D01*
Y771232D01*
X18539Y772078D01*
X16000D01*
X15934Y746078D02*
Y741000D01*
X18473D01*
X19320Y741846D01*
Y742693D01*
X18473Y743539D01*
X15934D01*
X18473D01*
X19320Y744386D01*
Y745232D01*
X18473Y746078D01*
X15934D01*
X212750Y854348D02*
Y849270D01*
X215289D01*
X216136Y850116D01*
Y850963D01*
X215289Y851809D01*
X212750D01*
X215289D01*
X216136Y852655D01*
Y853502D01*
X215289Y854348D01*
X212750D01*
X251000Y827078D02*
Y822000D01*
X253539D01*
X254386Y822846D01*
Y823693D01*
X253539Y824539D01*
X251000D01*
X253539D01*
X254386Y825386D01*
Y826232D01*
X253539Y827078D01*
X251000D01*
X261000D02*
Y822000D01*
X263539D01*
X264386Y822846D01*
Y823693D01*
X263539Y824539D01*
X261000D01*
X263539D01*
X264386Y825386D01*
Y826232D01*
X263539Y827078D01*
X261000D01*
X251250Y807578D02*
Y802500D01*
X253789D01*
X254636Y803346D01*
Y804193D01*
X253789Y805039D01*
X251250D01*
X253789D01*
X254636Y805886D01*
Y806732D01*
X253789Y807578D01*
X251250D01*
X261250Y807328D02*
Y802250D01*
X263789D01*
X264636Y803096D01*
Y803943D01*
X263789Y804789D01*
X261250D01*
X263789D01*
X264636Y805636D01*
Y806482D01*
X263789Y807328D01*
X261250D01*
X256030Y817418D02*
Y812340D01*
X258569D01*
X259416Y813186D01*
Y814033D01*
X258569Y814879D01*
X256030D01*
X258569D01*
X259416Y815725D01*
Y816572D01*
X258569Y817418D01*
X256030D01*
X231250Y815328D02*
Y810250D01*
X233789D01*
X234636Y811096D01*
Y811943D01*
X233789Y812789D01*
X231250D01*
X233789D01*
X234636Y813636D01*
Y814482D01*
X233789Y815328D01*
X231250D01*
X279910Y819668D02*
Y814590D01*
X282449D01*
X283296Y815436D01*
Y816283D01*
X282449Y817129D01*
X279910D01*
X282449D01*
X283296Y817976D01*
Y818822D01*
X282449Y819668D01*
X279910D01*
X213250Y780078D02*
Y775000D01*
X215789D01*
X216635Y775846D01*
Y776693D01*
X215789Y777539D01*
X213250D01*
X215789D01*
X216635Y778385D01*
Y779232D01*
X215789Y780078D01*
X213250D01*
X423000Y792328D02*
Y787250D01*
X425539D01*
X426386Y788096D01*
Y788943D01*
X425539Y789789D01*
X423000D01*
X425539D01*
X426386Y790636D01*
Y791482D01*
X425539Y792328D01*
X423000D01*
X397000Y809328D02*
Y804250D01*
X399539D01*
X400386Y805096D01*
Y805943D01*
X399539Y806789D01*
X397000D01*
X399539D01*
X400386Y807636D01*
Y808482D01*
X399539Y809328D01*
X397000D01*
X239000Y786078D02*
Y781000D01*
X241539D01*
X242386Y781846D01*
Y782693D01*
X241539Y783539D01*
X239000D01*
X241539D01*
X242386Y784386D01*
Y785232D01*
X241539Y786078D01*
X239000D01*
X301020Y845348D02*
Y840270D01*
X303559D01*
X304405Y841116D01*
Y841963D01*
X303559Y842809D01*
X301020D01*
X303559D01*
X304405Y843655D01*
Y844502D01*
X303559Y845348D01*
X301020D01*
X302020Y868348D02*
Y863270D01*
X304559D01*
X305406Y864116D01*
Y864963D01*
X304559Y865809D01*
X302020D01*
X304559D01*
X305406Y866656D01*
Y867502D01*
X304559Y868348D01*
X302020D01*
X284250Y877828D02*
Y872750D01*
X286789D01*
X287636Y873596D01*
Y874443D01*
X286789Y875289D01*
X284250D01*
X286789D01*
X287636Y876136D01*
Y876982D01*
X286789Y877828D01*
X284250D01*
X359250Y858828D02*
Y853750D01*
X361789D01*
X362636Y854596D01*
Y855443D01*
X361789Y856289D01*
X359250D01*
X361789D01*
X362636Y857136D01*
Y857982D01*
X361789Y858828D01*
X359250D01*
X349750Y895078D02*
Y890000D01*
X352289D01*
X353136Y890846D01*
Y891693D01*
X352289Y892539D01*
X349750D01*
X352289D01*
X353136Y893385D01*
Y894232D01*
X352289Y895078D01*
X349750D01*
X402000Y878578D02*
Y873500D01*
X404539D01*
X405386Y874346D01*
Y875193D01*
X404539Y876039D01*
X402000D01*
X404539D01*
X405386Y876886D01*
Y877732D01*
X404539Y878578D01*
X402000D01*
X605000Y987578D02*
Y982500D01*
X607539D01*
X608386Y983346D01*
Y984193D01*
X607539Y985039D01*
X605000D01*
X607539D01*
X608386Y985885D01*
Y986732D01*
X607539Y987578D01*
X605000D01*
X627000Y987078D02*
Y982000D01*
X629539D01*
X630386Y982846D01*
Y983693D01*
X629539Y984539D01*
X627000D01*
X629539D01*
X630386Y985386D01*
Y986232D01*
X629539Y987078D01*
X627000D01*
X686000Y985828D02*
Y980750D01*
X688539D01*
X689386Y981596D01*
Y982443D01*
X688539Y983289D01*
X686000D01*
X688539D01*
X689386Y984136D01*
Y984982D01*
X688539Y985828D01*
X686000D01*
X708000Y985578D02*
Y980500D01*
X710539D01*
X711386Y981346D01*
Y982193D01*
X710539Y983039D01*
X708000D01*
X710539D01*
X711386Y983886D01*
Y984732D01*
X710539Y985578D01*
X708000D01*
X1761680Y818328D02*
Y813250D01*
X1764219D01*
X1765066Y814096D01*
Y814943D01*
X1764219Y815789D01*
X1761680D01*
X1764219D01*
X1765066Y816636D01*
Y817482D01*
X1764219Y818328D01*
X1761680D01*
Y897578D02*
Y892500D01*
X1764219D01*
X1765066Y893346D01*
Y894193D01*
X1764219Y895039D01*
X1761680D01*
X1764219D01*
X1765066Y895886D01*
Y896732D01*
X1764219Y897578D01*
X1761680D01*
X1622500Y912578D02*
Y907500D01*
X1625039D01*
X1625886Y908346D01*
Y909193D01*
X1625039Y910039D01*
X1622500D01*
X1625039D01*
X1625886Y910886D01*
Y911732D01*
X1625039Y912578D01*
X1622500D01*
Y858578D02*
Y853500D01*
X1625039D01*
X1625886Y854346D01*
Y855193D01*
X1625039Y856039D01*
X1622500D01*
X1625039D01*
X1625886Y856886D01*
Y857732D01*
X1625039Y858578D01*
X1622500D01*
X1622680Y798078D02*
Y793000D01*
X1625219D01*
X1626066Y793846D01*
Y794693D01*
X1625219Y795539D01*
X1622680D01*
X1625219D01*
X1626066Y796386D01*
Y797232D01*
X1625219Y798078D01*
X1622680D01*
X1455000Y785828D02*
Y780750D01*
X1457539D01*
X1458386Y781596D01*
Y782443D01*
X1457539Y783289D01*
X1455000D01*
X1457539D01*
X1458386Y784136D01*
Y784982D01*
X1457539Y785828D01*
X1455000D01*
X1341631Y817209D02*
Y812131D01*
X1344170D01*
X1345016Y812977D01*
Y813823D01*
X1344170Y814670D01*
X1341631D01*
X1344170D01*
X1345016Y815516D01*
Y816363D01*
X1344170Y817209D01*
X1341631D01*
X1224750Y729828D02*
Y724750D01*
X1227289D01*
X1228136Y725596D01*
Y726443D01*
X1227289Y727289D01*
X1224750D01*
X1227289D01*
X1228136Y728136D01*
Y728982D01*
X1227289Y729828D01*
X1224750D01*
X1198750Y682578D02*
Y677500D01*
X1201289D01*
X1202136Y678346D01*
Y679193D01*
X1201289Y680039D01*
X1198750D01*
X1201289D01*
X1202136Y680886D01*
Y681732D01*
X1201289Y682578D01*
X1198750D01*
X1210750Y637078D02*
Y632000D01*
X1213289D01*
X1214136Y632846D01*
Y633693D01*
X1213289Y634539D01*
X1210750D01*
X1213289D01*
X1214136Y635386D01*
Y636232D01*
X1213289Y637078D01*
X1210750D01*
X1234250Y626078D02*
Y621000D01*
X1236789D01*
X1237636Y621846D01*
Y622693D01*
X1236789Y623539D01*
X1234250D01*
X1236789D01*
X1237636Y624385D01*
Y625232D01*
X1236789Y626078D01*
X1234250D01*
X1080000Y550078D02*
Y545000D01*
X1082539D01*
X1083386Y545846D01*
Y546693D01*
X1082539Y547539D01*
X1080000D01*
X1082539D01*
X1083386Y548386D01*
Y549232D01*
X1082539Y550078D01*
X1080000D01*
X1061000D02*
Y545000D01*
X1063539D01*
X1064386Y545846D01*
Y546693D01*
X1063539Y547539D01*
X1061000D01*
X1063539D01*
X1064386Y548386D01*
Y549232D01*
X1063539Y550078D01*
X1061000D01*
X1011750Y625078D02*
Y620000D01*
X1014289D01*
X1015135Y620846D01*
Y621693D01*
X1014289Y622539D01*
X1011750D01*
X1014289D01*
X1015135Y623386D01*
Y624232D01*
X1014289Y625078D01*
X1011750D01*
X1011000Y680078D02*
Y675000D01*
X1013539D01*
X1014386Y675846D01*
Y676693D01*
X1013539Y677539D01*
X1011000D01*
X1013539D01*
X1014386Y678385D01*
Y679232D01*
X1013539Y680078D01*
X1011000D01*
X1028390Y829468D02*
Y824390D01*
X1030929D01*
X1031776Y825236D01*
Y826083D01*
X1030929Y826929D01*
X1028390D01*
X1030929D01*
X1031776Y827776D01*
Y828622D01*
X1030929Y829468D01*
X1028390D01*
X1079500Y684828D02*
Y679750D01*
X1082039D01*
X1082886Y680596D01*
Y681443D01*
X1082039Y682289D01*
X1079500D01*
X1082039D01*
X1082886Y683136D01*
Y683982D01*
X1082039Y684828D01*
X1079500D01*
X1099000Y684328D02*
Y679250D01*
X1101539D01*
X1102386Y680096D01*
Y680943D01*
X1101539Y681789D01*
X1099000D01*
X1101539D01*
X1102386Y682636D01*
Y683482D01*
X1101539Y684328D01*
X1099000D01*
X1129250Y683828D02*
Y678750D01*
X1131789D01*
X1132636Y679596D01*
Y680443D01*
X1131789Y681289D01*
X1129250D01*
X1131789D01*
X1132636Y682136D01*
Y682982D01*
X1131789Y683828D01*
X1129250D01*
X1079750Y668578D02*
Y663500D01*
X1082289D01*
X1083136Y664346D01*
Y665193D01*
X1082289Y666039D01*
X1079750D01*
X1082289D01*
X1083136Y666886D01*
Y667732D01*
X1082289Y668578D01*
X1079750D01*
X1098250Y670828D02*
Y665750D01*
X1100789D01*
X1101636Y666596D01*
Y667443D01*
X1100789Y668289D01*
X1098250D01*
X1100789D01*
X1101636Y669136D01*
Y669982D01*
X1100789Y670828D01*
X1098250D01*
X1128000Y670578D02*
Y665500D01*
X1130539D01*
X1131386Y666346D01*
Y667193D01*
X1130539Y668039D01*
X1128000D01*
X1130539D01*
X1131386Y668886D01*
Y669732D01*
X1130539Y670578D01*
X1128000D01*
X1079250Y653828D02*
Y648750D01*
X1081789D01*
X1082636Y649596D01*
Y650443D01*
X1081789Y651289D01*
X1079250D01*
X1081789D01*
X1082636Y652136D01*
Y652982D01*
X1081789Y653828D01*
X1079250D01*
X1099500Y655578D02*
Y650500D01*
X1102039D01*
X1102886Y651346D01*
Y652193D01*
X1102039Y653039D01*
X1099500D01*
X1102039D01*
X1102886Y653886D01*
Y654732D01*
X1102039Y655578D01*
X1099500D01*
X1128500D02*
Y650500D01*
X1131039D01*
X1131886Y651346D01*
Y652193D01*
X1131039Y653039D01*
X1128500D01*
X1131039D01*
X1131886Y653886D01*
Y654732D01*
X1131039Y655578D01*
X1128500D01*
X1078750Y637578D02*
Y632500D01*
X1081289D01*
X1082136Y633346D01*
Y634193D01*
X1081289Y635039D01*
X1078750D01*
X1081289D01*
X1082136Y635886D01*
Y636732D01*
X1081289Y637578D01*
X1078750D01*
X1078500Y624328D02*
Y619250D01*
X1081039D01*
X1081886Y620096D01*
Y620943D01*
X1081039Y621789D01*
X1078500D01*
X1081039D01*
X1081886Y622636D01*
Y623482D01*
X1081039Y624328D01*
X1078500D01*
X1099000Y624578D02*
Y619500D01*
X1101539D01*
X1102386Y620346D01*
Y621193D01*
X1101539Y622039D01*
X1099000D01*
X1101539D01*
X1102386Y622886D01*
Y623732D01*
X1101539Y624578D01*
X1099000D01*
X1130000Y643828D02*
Y638750D01*
X1132539D01*
X1133386Y639596D01*
Y640443D01*
X1132539Y641289D01*
X1130000D01*
X1132539D01*
X1133386Y642136D01*
Y642982D01*
X1132539Y643828D01*
X1130000D01*
X1497500Y608078D02*
Y603000D01*
X1500039D01*
X1500886Y603846D01*
Y604693D01*
X1500039Y605539D01*
X1497500D01*
X1500039D01*
X1500886Y606385D01*
Y607232D01*
X1500039Y608078D01*
X1497500D01*
X1499250Y551078D02*
Y546000D01*
X1501789D01*
X1502636Y546846D01*
Y547693D01*
X1501789Y548539D01*
X1499250D01*
X1501789D01*
X1502636Y549386D01*
Y550232D01*
X1501789Y551078D01*
X1499250D01*
X1158590Y187668D02*
Y182590D01*
X1161129D01*
X1161976Y183436D01*
Y184283D01*
X1161129Y185129D01*
X1158590D01*
X1161129D01*
X1161976Y185976D01*
Y186822D01*
X1161129Y187668D01*
X1158590D01*
X1276250Y134078D02*
Y129000D01*
X1278789D01*
X1279636Y129846D01*
Y130693D01*
X1278789Y131539D01*
X1276250D01*
X1278789D01*
X1279636Y132386D01*
Y133232D01*
X1278789Y134078D01*
X1276250D01*
X1303000Y64078D02*
Y59000D01*
X1305539D01*
X1306385Y59847D01*
Y60693D01*
X1305539Y61539D01*
X1303000D01*
X1305539D01*
X1306385Y62386D01*
Y63232D01*
X1305539Y64078D01*
X1303000D01*
X1321750Y684578D02*
Y679500D01*
X1324289D01*
X1325136Y680346D01*
Y681193D01*
X1324289Y682039D01*
X1321750D01*
X1324289D01*
X1325136Y682886D01*
Y683732D01*
X1324289Y684578D01*
X1321750D01*
X1318000Y23078D02*
Y18000D01*
X1320539D01*
X1321385Y18846D01*
Y19693D01*
X1320539Y20539D01*
X1318000D01*
X1320539D01*
X1321385Y21386D01*
Y22232D01*
X1320539Y23078D01*
X1318000D01*
X371750Y927078D02*
Y922000D01*
X374289D01*
X375136Y922846D01*
Y923693D01*
X374289Y924539D01*
X371750D01*
X374289D01*
X375136Y925386D01*
Y926232D01*
X374289Y927078D01*
X371750D01*
X432280Y899548D02*
Y894470D01*
X434819D01*
X435666Y895316D01*
Y896163D01*
X434819Y897009D01*
X432280D01*
X434819D01*
X435666Y897856D01*
Y898702D01*
X434819Y899548D01*
X432280D01*
X494000Y905078D02*
Y900000D01*
X496539D01*
X497386Y900846D01*
Y901693D01*
X496539Y902539D01*
X494000D01*
X496539D01*
X497386Y903386D01*
Y904232D01*
X496539Y905078D01*
X494000D01*
X459720Y906048D02*
Y900970D01*
X462259D01*
X463106Y901816D01*
Y902663D01*
X462259Y903509D01*
X459720D01*
X462259D01*
X463106Y904355D01*
Y905202D01*
X462259Y906048D01*
X459720D01*
X366750Y844328D02*
Y839250D01*
X369289D01*
X370136Y840096D01*
Y840943D01*
X369289Y841789D01*
X366750D01*
X369289D01*
X370136Y842636D01*
Y843482D01*
X369289Y844328D01*
X366750D01*
X459168Y850246D02*
Y845168D01*
X461707D01*
X462553Y846014D01*
Y846861D01*
X461707Y847707D01*
X459168D01*
X461707D01*
X462553Y848553D01*
Y849400D01*
X461707Y850246D01*
X459168D01*
X262250Y879078D02*
Y874000D01*
X264789D01*
X265636Y874846D01*
Y875693D01*
X264789Y876539D01*
X262250D01*
X264789D01*
X265636Y877385D01*
Y878232D01*
X264789Y879078D01*
X262250D01*
X232090Y806168D02*
Y801090D01*
X234629D01*
X235476Y801936D01*
Y802783D01*
X234629Y803629D01*
X232090D01*
X234629D01*
X235476Y804476D01*
Y805322D01*
X234629Y806168D01*
X232090D01*
X287000Y993578D02*
Y988500D01*
X289539D01*
X290386Y989346D01*
Y990193D01*
X289539Y991039D01*
X287000D01*
X289539D01*
X290386Y991886D01*
Y992732D01*
X289539Y993578D01*
X287000D01*
X314000Y993328D02*
Y988250D01*
X316539D01*
X317386Y989096D01*
Y989943D01*
X316539Y990789D01*
X314000D01*
X316539D01*
X317386Y991636D01*
Y992482D01*
X316539Y993328D01*
X314000D01*
X342000Y993578D02*
Y988500D01*
X344539D01*
X345386Y989346D01*
Y990193D01*
X344539Y991039D01*
X342000D01*
X344539D01*
X345386Y991886D01*
Y992732D01*
X344539Y993578D01*
X342000D01*
X90500Y784078D02*
Y779000D01*
X93039D01*
X93886Y779846D01*
Y780693D01*
X93039Y781539D01*
X90500D01*
X93039D01*
X93886Y782386D01*
Y783232D01*
X93039Y784078D01*
X90500D01*
X241000Y879078D02*
Y874000D01*
X243539D01*
X244386Y874846D01*
Y875693D01*
X243539Y876539D01*
X241000D01*
X243539D01*
X244386Y877386D01*
Y878232D01*
X243539Y879078D01*
X241000D01*
X287000Y952578D02*
Y947500D01*
X289539D01*
X290386Y948346D01*
Y949193D01*
X289539Y950039D01*
X287000D01*
X289539D01*
X290386Y950886D01*
Y951732D01*
X289539Y952578D01*
X287000D01*
X1027810Y816768D02*
Y811690D01*
X1030349D01*
X1031196Y812536D01*
Y813383D01*
X1030349Y814229D01*
X1027810D01*
X1030349D01*
X1031196Y815076D01*
Y815922D01*
X1030349Y816768D01*
X1027810D01*
X1342000Y829909D02*
Y824831D01*
X1344539D01*
X1345386Y825677D01*
Y826523D01*
X1344539Y827370D01*
X1342000D01*
X1344539D01*
X1345386Y828216D01*
Y829063D01*
X1344539Y829909D01*
X1342000D01*
X402398Y913828D02*
Y908750D01*
X404937D01*
X405784Y909596D01*
Y910443D01*
X404937Y911289D01*
X402398D01*
X404937D01*
X405784Y912136D01*
Y912982D01*
X404937Y913828D01*
X402398D01*
X271030Y798578D02*
Y793500D01*
X273569D01*
X274416Y794346D01*
Y795193D01*
X273569Y796039D01*
X271030D01*
X273569D01*
X274416Y796886D01*
Y797732D01*
X273569Y798578D01*
X271030D01*
X924000Y82078D02*
Y77000D01*
X926539D01*
X927386Y77846D01*
Y78693D01*
X926539Y79539D01*
X924000D01*
X926539D01*
X927386Y80386D01*
Y81232D01*
X926539Y82078D01*
X924000D01*
X1050000Y575078D02*
Y570000D01*
X1052539D01*
X1053386Y570846D01*
Y571693D01*
X1052539Y572539D01*
X1050000D01*
X1052539D01*
X1053386Y573386D01*
Y574232D01*
X1052539Y575078D01*
X1050000D01*
X164000Y855078D02*
Y850000D01*
X166539D01*
X167386Y850846D01*
Y851693D01*
X166539Y852539D01*
X164000D01*
X166539D01*
X167386Y853386D01*
Y854232D01*
X166539Y855078D01*
X164000D01*
X163750Y844828D02*
Y839750D01*
X166289D01*
X167136Y840596D01*
Y841443D01*
X166289Y842289D01*
X163750D01*
X166289D01*
X167136Y843136D01*
Y843982D01*
X166289Y844828D01*
X163750D01*
X163500Y835078D02*
Y830000D01*
X166039D01*
X166886Y830846D01*
Y831693D01*
X166039Y832539D01*
X163500D01*
X166039D01*
X166886Y833386D01*
Y834232D01*
X166039Y835078D01*
X163500D01*
Y824828D02*
Y819750D01*
X166039D01*
X166886Y820596D01*
Y821443D01*
X166039Y822289D01*
X163500D01*
X166039D01*
X166886Y823136D01*
Y823982D01*
X166039Y824828D01*
X163500D01*
X163250Y814578D02*
Y809500D01*
X165789D01*
X166636Y810346D01*
Y811193D01*
X165789Y812039D01*
X163250D01*
X165789D01*
X166636Y812886D01*
Y813732D01*
X165789Y814578D01*
X163250D01*
Y804828D02*
Y799750D01*
X165789D01*
X166636Y800596D01*
Y801443D01*
X165789Y802289D01*
X163250D01*
X165789D01*
X166636Y803136D01*
Y803982D01*
X165789Y804828D01*
X163250D01*
X163500Y794828D02*
Y789750D01*
X166039D01*
X166886Y790596D01*
Y791443D01*
X166039Y792289D01*
X163500D01*
X166039D01*
X166886Y793136D01*
Y793982D01*
X166039Y794828D01*
X163500D01*
Y785578D02*
Y780500D01*
X166039D01*
X166886Y781346D01*
Y782193D01*
X166039Y783039D01*
X163500D01*
X166039D01*
X166886Y783886D01*
Y784732D01*
X166039Y785578D01*
X163500D01*
X164000Y773828D02*
Y768750D01*
X166539D01*
X167386Y769596D01*
Y770443D01*
X166539Y771289D01*
X164000D01*
X166539D01*
X167386Y772136D01*
Y772982D01*
X166539Y773828D01*
X164000D01*
X167500Y734078D02*
Y729000D01*
X170039D01*
X170886Y729846D01*
Y730693D01*
X170039Y731539D01*
X167500D01*
X170039D01*
X170886Y732386D01*
Y733232D01*
X170039Y734078D01*
X167500D01*
X172000Y855078D02*
Y850000D01*
X174539D01*
X175386Y850846D01*
Y851693D01*
X174539Y852539D01*
X172000D01*
X174539D01*
X175386Y853386D01*
Y854232D01*
X174539Y855078D01*
X172000D01*
X171750Y844828D02*
Y839750D01*
X174289D01*
X175136Y840596D01*
Y841443D01*
X174289Y842289D01*
X171750D01*
X174289D01*
X175136Y843136D01*
Y843982D01*
X174289Y844828D01*
X171750D01*
X171000Y835328D02*
Y830250D01*
X173539D01*
X174386Y831096D01*
Y831943D01*
X173539Y832789D01*
X171000D01*
X173539D01*
X174386Y833636D01*
Y834482D01*
X173539Y835328D01*
X171000D01*
Y824328D02*
Y819250D01*
X173539D01*
X174386Y820096D01*
Y820943D01*
X173539Y821789D01*
X171000D01*
X173539D01*
X174386Y822636D01*
Y823482D01*
X173539Y824328D01*
X171000D01*
Y813828D02*
Y808750D01*
X173539D01*
X174386Y809596D01*
Y810443D01*
X173539Y811289D01*
X171000D01*
X173539D01*
X174386Y812136D01*
Y812982D01*
X173539Y813828D01*
X171000D01*
X170750Y805328D02*
Y800250D01*
X173289D01*
X174136Y801096D01*
Y801943D01*
X173289Y802789D01*
X170750D01*
X173289D01*
X174136Y803636D01*
Y804482D01*
X173289Y805328D01*
X170750D01*
X171000Y795078D02*
Y790000D01*
X173539D01*
X174386Y790846D01*
Y791693D01*
X173539Y792539D01*
X171000D01*
X173539D01*
X174386Y793386D01*
Y794232D01*
X173539Y795078D01*
X171000D01*
X170750Y785328D02*
Y780250D01*
X173289D01*
X174136Y781096D01*
Y781943D01*
X173289Y782789D01*
X170750D01*
X173289D01*
X174136Y783636D01*
Y784482D01*
X173289Y785328D01*
X170750D01*
X171250Y774328D02*
Y769250D01*
X173789D01*
X174636Y770096D01*
Y770943D01*
X173789Y771789D01*
X171250D01*
X173789D01*
X174636Y772636D01*
Y773482D01*
X173789Y774328D01*
X171250D01*
X385750Y766578D02*
Y761500D01*
X388289D01*
X389136Y762346D01*
Y763193D01*
X388289Y764039D01*
X385750D01*
X388289D01*
X389136Y764886D01*
Y765732D01*
X388289Y766578D01*
X385750D01*
X1273000Y112078D02*
Y107000D01*
X1275539D01*
X1276386Y107846D01*
Y108693D01*
X1275539Y109539D01*
X1273000D01*
X1275539D01*
X1276386Y110386D01*
Y111232D01*
X1275539Y112078D01*
X1273000D01*
X608290Y158118D02*
Y153040D01*
X610829D01*
X611676Y153886D01*
Y154733D01*
X610829Y155579D01*
X608290D01*
X610829D01*
X611676Y156426D01*
Y157272D01*
X610829Y158118D01*
X608290D01*
X595590Y156168D02*
Y151090D01*
X598129D01*
X598976Y151936D01*
Y152783D01*
X598129Y153629D01*
X595590D01*
X598129D01*
X598976Y154476D01*
Y155322D01*
X598129Y156168D01*
X595590D01*
X918000Y114078D02*
Y109000D01*
X920539D01*
X921386Y109846D01*
Y110693D01*
X920539Y111539D01*
X918000D01*
X920539D01*
X921386Y112386D01*
Y113232D01*
X920539Y114078D01*
X918000D01*
X918045Y104081D02*
Y99002D01*
X920584D01*
X921430Y99849D01*
Y100695D01*
X920584Y101542D01*
X918045D01*
X920584D01*
X921430Y102388D01*
Y103234D01*
X920584Y104081D01*
X918045D01*
X969000Y84828D02*
Y79750D01*
X971539D01*
X972386Y80596D01*
Y81443D01*
X971539Y82289D01*
X969000D01*
X971539D01*
X972386Y83136D01*
Y83982D01*
X971539Y84828D01*
X969000D01*
X980500Y85078D02*
Y80000D01*
X983039D01*
X983886Y80846D01*
Y81693D01*
X983039Y82539D01*
X980500D01*
X983039D01*
X983886Y83386D01*
Y84232D01*
X983039Y85078D01*
X980500D01*
X1099250Y549078D02*
Y544000D01*
X1101789D01*
X1102636Y544846D01*
Y545693D01*
X1101789Y546539D01*
X1099250D01*
X1101789D01*
X1102636Y547386D01*
Y548232D01*
X1101789Y549078D01*
X1099250D01*
X1121000Y550078D02*
Y545000D01*
X1123539D01*
X1124386Y545846D01*
Y546693D01*
X1123539Y547539D01*
X1121000D01*
X1123539D01*
X1124386Y548386D01*
Y549232D01*
X1123539Y550078D01*
X1121000D01*
X1144000Y527078D02*
Y522000D01*
X1146539D01*
X1147386Y522846D01*
Y523693D01*
X1146539Y524539D01*
X1144000D01*
X1146539D01*
X1147386Y525386D01*
Y526232D01*
X1146539Y527078D01*
X1144000D01*
X1165250D02*
Y522000D01*
X1167789D01*
X1168636Y522846D01*
Y523693D01*
X1167789Y524539D01*
X1165250D01*
X1167789D01*
X1168636Y525386D01*
Y526232D01*
X1167789Y527078D01*
X1165250D01*
X1209000Y573078D02*
Y568000D01*
X1211539D01*
X1212386Y568846D01*
Y569693D01*
X1211539Y570539D01*
X1209000D01*
X1211539D01*
X1212386Y571386D01*
Y572232D01*
X1211539Y573078D01*
X1209000D01*
X1210000Y596078D02*
Y591000D01*
X1212539D01*
X1213386Y591846D01*
Y592693D01*
X1212539Y593539D01*
X1210000D01*
X1212539D01*
X1213386Y594386D01*
Y595232D01*
X1212539Y596078D01*
X1210000D01*
X1208998Y616077D02*
Y610999D01*
X1211537D01*
X1212383Y611845D01*
Y612692D01*
X1211537Y613538D01*
X1208998D01*
X1211537D01*
X1212383Y614384D01*
Y615231D01*
X1211537Y616077D01*
X1208998D01*
X296500Y631078D02*
Y626000D01*
X299039D01*
X299886Y626846D01*
Y627693D01*
X299039Y628539D01*
X296500D01*
X299039D01*
X299886Y629386D01*
Y630232D01*
X299039Y631078D01*
X296500D01*
X296500Y309078D02*
Y304000D01*
X299039D01*
X299886Y304846D01*
Y305693D01*
X299039Y306539D01*
X296500D01*
X299039D01*
X299886Y307386D01*
Y308232D01*
X299039Y309078D01*
X296500D01*
X296500Y339078D02*
Y334000D01*
X299039D01*
X299886Y334846D01*
Y335693D01*
X299039Y336539D01*
X296500D01*
X299039D01*
X299886Y337386D01*
Y338232D01*
X299039Y339078D01*
X296500D01*
Y369078D02*
Y364000D01*
X299039D01*
X299886Y364846D01*
Y365693D01*
X299039Y366539D01*
X296500D01*
X299039D01*
X299886Y367385D01*
Y368232D01*
X299039Y369078D01*
X296500D01*
Y399078D02*
Y394000D01*
X299039D01*
X299886Y394846D01*
Y395693D01*
X299039Y396539D01*
X296500D01*
X299039D01*
X299886Y397386D01*
Y398232D01*
X299039Y399078D01*
X296500D01*
X296500Y511078D02*
Y506000D01*
X299039D01*
X299886Y506846D01*
Y507693D01*
X299039Y508539D01*
X296500D01*
X299039D01*
X299886Y509385D01*
Y510232D01*
X299039Y511078D01*
X296500D01*
X296500Y541078D02*
Y536000D01*
X299039D01*
X299886Y536846D01*
Y537693D01*
X299039Y538539D01*
X296500D01*
X299039D01*
X299886Y539386D01*
Y540232D01*
X299039Y541078D01*
X296500D01*
Y571078D02*
Y566000D01*
X299039D01*
X299886Y566846D01*
Y567693D01*
X299039Y568539D01*
X296500D01*
X299039D01*
X299886Y569386D01*
Y570232D01*
X299039Y571078D01*
X296500D01*
Y601078D02*
Y596000D01*
X299039D01*
X299886Y596846D01*
Y597693D01*
X299039Y598539D01*
X296500D01*
X299039D01*
X299886Y599386D01*
Y600232D01*
X299039Y601078D01*
X296500D01*
X1035000Y753078D02*
Y748000D01*
X1037539D01*
X1038386Y748846D01*
Y749693D01*
X1037539Y750539D01*
X1035000D01*
X1037539D01*
X1038386Y751386D01*
Y752232D01*
X1037539Y753078D01*
X1035000D01*
X1011000Y715078D02*
Y710000D01*
X1013539D01*
X1014386Y710846D01*
Y711693D01*
X1013539Y712539D01*
X1011000D01*
X1013539D01*
X1014386Y713386D01*
Y714232D01*
X1013539Y715078D01*
X1011000D01*
X1116000Y709078D02*
Y704000D01*
X1118539D01*
X1119386Y704846D01*
Y705693D01*
X1118539Y706539D01*
X1116000D01*
X1118539D01*
X1119386Y707386D01*
Y708232D01*
X1118539Y709078D01*
X1116000D01*
X1120950Y714028D02*
Y708950D01*
X1123489D01*
X1124335Y709796D01*
Y710642D01*
X1123489Y711489D01*
X1120950D01*
X1123489D01*
X1124335Y712335D01*
Y713182D01*
X1123489Y714028D01*
X1120950D01*
X1140000Y709578D02*
Y704500D01*
X1142539D01*
X1143386Y705346D01*
Y706193D01*
X1142539Y707039D01*
X1140000D01*
X1142539D01*
X1143386Y707886D01*
Y708732D01*
X1142539Y709578D01*
X1140000D01*
X1135404Y714174D02*
Y709096D01*
X1137943D01*
X1138789Y709943D01*
Y710789D01*
X1137943Y711635D01*
X1135404D01*
X1137943D01*
X1138789Y712482D01*
Y713328D01*
X1137943Y714174D01*
X1135404D01*
X1153500Y707828D02*
Y702750D01*
X1156039D01*
X1156886Y703596D01*
Y704443D01*
X1156039Y705289D01*
X1153500D01*
X1156039D01*
X1156886Y706136D01*
Y706982D01*
X1156039Y707828D01*
X1153500D01*
X1148904Y712425D02*
Y707346D01*
X1151443D01*
X1152289Y708193D01*
Y709039D01*
X1151443Y709885D01*
X1148904D01*
X1151443D01*
X1152289Y710732D01*
Y711578D01*
X1151443Y712425D01*
X1148904D01*
X1101250Y708828D02*
Y703750D01*
X1103789D01*
X1104636Y704596D01*
Y705443D01*
X1103789Y706289D01*
X1101250D01*
X1103789D01*
X1104636Y707136D01*
Y707982D01*
X1103789Y708828D01*
X1101250D01*
X1105846Y713425D02*
Y708346D01*
X1108385D01*
X1109232Y709193D01*
Y710039D01*
X1108385Y710885D01*
X1105846D01*
X1108385D01*
X1109232Y711732D01*
Y712578D01*
X1108385Y713425D01*
X1105846D01*
X1351000Y480578D02*
Y475500D01*
X1353539D01*
X1354386Y476346D01*
Y477193D01*
X1353539Y478039D01*
X1351000D01*
X1353539D01*
X1354386Y478886D01*
Y479732D01*
X1353539Y480578D01*
X1351000D01*
Y474578D02*
Y469500D01*
X1353539D01*
X1354386Y470346D01*
Y471193D01*
X1353539Y472039D01*
X1351000D01*
X1353539D01*
X1354386Y472886D01*
Y473732D01*
X1353539Y474578D01*
X1351000D01*
Y468578D02*
Y463500D01*
X1353539D01*
X1354386Y464346D01*
Y465193D01*
X1353539Y466039D01*
X1351000D01*
X1353539D01*
X1354386Y466886D01*
Y467732D01*
X1353539Y468578D01*
X1351000D01*
Y462578D02*
Y457500D01*
X1353539D01*
X1354386Y458346D01*
Y459193D01*
X1353539Y460039D01*
X1351000D01*
X1353539D01*
X1354386Y460886D01*
Y461732D01*
X1353539Y462578D01*
X1351000D01*
X639780Y962298D02*
Y957220D01*
X642319D01*
X643166Y958066D01*
Y958913D01*
X642319Y959759D01*
X639780D01*
X642319D01*
X643166Y960605D01*
Y961452D01*
X642319Y962298D01*
X639780D01*
X720780D02*
Y957220D01*
X723319D01*
X724166Y958066D01*
Y958913D01*
X723319Y959759D01*
X720780D01*
X723319D01*
X724166Y960605D01*
Y961452D01*
X723319Y962298D01*
X720780D01*
X684398Y915930D02*
Y910852D01*
X686937D01*
X687784Y911698D01*
Y912545D01*
X686937Y913391D01*
X684398D01*
X686937D01*
X687784Y914238D01*
Y915084D01*
X686937Y915930D01*
X684398D01*
X665000Y947328D02*
Y942250D01*
X667539D01*
X668386Y943096D01*
Y943943D01*
X667539Y944789D01*
X665000D01*
X667539D01*
X668386Y945636D01*
Y946482D01*
X667539Y947328D01*
X665000D01*
X746000Y947828D02*
Y942750D01*
X748539D01*
X749386Y943596D01*
Y944443D01*
X748539Y945289D01*
X746000D01*
X748539D01*
X749386Y946136D01*
Y946982D01*
X748539Y947828D01*
X746000D01*
X388000Y856078D02*
Y851000D01*
X390539D01*
X391386Y851846D01*
Y852693D01*
X390539Y853539D01*
X388000D01*
X390539D01*
X391386Y854386D01*
Y855232D01*
X390539Y856078D01*
X388000D01*
X1322500Y672578D02*
Y667500D01*
X1325039D01*
X1325886Y668346D01*
Y669193D01*
X1325039Y670039D01*
X1322500D01*
X1325039D01*
X1325886Y670886D01*
Y671732D01*
X1325039Y672578D01*
X1322500D01*
X1172010Y643568D02*
Y638490D01*
X1174550D01*
X1175396Y639336D01*
Y640182D01*
X1174550Y641029D01*
X1172010D01*
X1174550D01*
X1175396Y641875D01*
Y642722D01*
X1174550Y643568D01*
X1172010D01*
X1166000Y649578D02*
Y644500D01*
X1168539D01*
X1169386Y645346D01*
Y646193D01*
X1168539Y647039D01*
X1166000D01*
X1168539D01*
X1169386Y647886D01*
Y648732D01*
X1168539Y649578D01*
X1166000D01*
X1171510Y629068D02*
Y623990D01*
X1174050D01*
X1174896Y624836D01*
Y625682D01*
X1174050Y626529D01*
X1171510D01*
X1174050D01*
X1174896Y627375D01*
Y628222D01*
X1174050Y629068D01*
X1171510D01*
X1165500Y635078D02*
Y630000D01*
X1168039D01*
X1168886Y630846D01*
Y631693D01*
X1168039Y632539D01*
X1165500D01*
X1168039D01*
X1168886Y633386D01*
Y634232D01*
X1168039Y635078D01*
X1165500D01*
X1336500Y707828D02*
Y702750D01*
X1339039D01*
X1339886Y703596D01*
Y704443D01*
X1339039Y705289D01*
X1336500D01*
X1339039D01*
X1339886Y706135D01*
Y706982D01*
X1339039Y707828D01*
X1336500D01*
X1351000Y84578D02*
Y79500D01*
X1353539D01*
X1354386Y80346D01*
Y81193D01*
X1353539Y82039D01*
X1351000D01*
X1353539D01*
X1354386Y82886D01*
Y83732D01*
X1353539Y84578D01*
X1351000D01*
Y108578D02*
Y103500D01*
X1353539D01*
X1354386Y104346D01*
Y105193D01*
X1353539Y106039D01*
X1351000D01*
X1353539D01*
X1354386Y106886D01*
Y107732D01*
X1353539Y108578D01*
X1351000D01*
Y126578D02*
Y121500D01*
X1353539D01*
X1354386Y122346D01*
Y123193D01*
X1353539Y124039D01*
X1351000D01*
X1353539D01*
X1354386Y124886D01*
Y125732D01*
X1353539Y126578D01*
X1351000D01*
Y162578D02*
Y157500D01*
X1353539D01*
X1354386Y158346D01*
Y159193D01*
X1353539Y160039D01*
X1351000D01*
X1353539D01*
X1354386Y160886D01*
Y161732D01*
X1353539Y162578D01*
X1351000D01*
Y216578D02*
Y211500D01*
X1353539D01*
X1354386Y212346D01*
Y213193D01*
X1353539Y214039D01*
X1351000D01*
X1353539D01*
X1354386Y214886D01*
Y215732D01*
X1353539Y216578D01*
X1351000D01*
Y198578D02*
Y193500D01*
X1353539D01*
X1354386Y194346D01*
Y195193D01*
X1353539Y196039D01*
X1351000D01*
X1353539D01*
X1354386Y196886D01*
Y197732D01*
X1353539Y198578D01*
X1351000D01*
Y180578D02*
Y175500D01*
X1353539D01*
X1354386Y176346D01*
Y177193D01*
X1353539Y178039D01*
X1351000D01*
X1353539D01*
X1354386Y178886D01*
Y179732D01*
X1353539Y180578D01*
X1351000D01*
Y270578D02*
Y265500D01*
X1353539D01*
X1354386Y266346D01*
Y267193D01*
X1353539Y268039D01*
X1351000D01*
X1353539D01*
X1354386Y268886D01*
Y269732D01*
X1353539Y270578D01*
X1351000D01*
Y252578D02*
Y247500D01*
X1353539D01*
X1354386Y248346D01*
Y249193D01*
X1353539Y250039D01*
X1351000D01*
X1353539D01*
X1354386Y250886D01*
Y251732D01*
X1353539Y252578D01*
X1351000D01*
Y234578D02*
Y229500D01*
X1353539D01*
X1354386Y230346D01*
Y231193D01*
X1353539Y232039D01*
X1351000D01*
X1353539D01*
X1354386Y232886D01*
Y233732D01*
X1353539Y234578D01*
X1351000D01*
Y324578D02*
Y319500D01*
X1353539D01*
X1354386Y320346D01*
Y321193D01*
X1353539Y322039D01*
X1351000D01*
X1353539D01*
X1354386Y322886D01*
Y323732D01*
X1353539Y324578D01*
X1351000D01*
Y306578D02*
Y301500D01*
X1353539D01*
X1354386Y302346D01*
Y303193D01*
X1353539Y304039D01*
X1351000D01*
X1353539D01*
X1354386Y304886D01*
Y305732D01*
X1353539Y306578D01*
X1351000D01*
Y288578D02*
Y283500D01*
X1353539D01*
X1354386Y284346D01*
Y285193D01*
X1353539Y286039D01*
X1351000D01*
X1353539D01*
X1354386Y286886D01*
Y287732D01*
X1353539Y288578D01*
X1351000D01*
X1322500Y360578D02*
Y355500D01*
X1325039D01*
X1325886Y356346D01*
Y357193D01*
X1325039Y358039D01*
X1322500D01*
X1325039D01*
X1325886Y358886D01*
Y359732D01*
X1325039Y360578D01*
X1322500D01*
X1351000Y342578D02*
Y337500D01*
X1353539D01*
X1354386Y338346D01*
Y339193D01*
X1353539Y340039D01*
X1351000D01*
X1353539D01*
X1354386Y340886D01*
Y341732D01*
X1353539Y342578D01*
X1351000D01*
Y450578D02*
Y445500D01*
X1353539D01*
X1354386Y446346D01*
Y447193D01*
X1353539Y448039D01*
X1351000D01*
X1353539D01*
X1354386Y448886D01*
Y449732D01*
X1353539Y450578D01*
X1351000D01*
X1357000Y437078D02*
Y432000D01*
X1359539D01*
X1360386Y432846D01*
Y433693D01*
X1359539Y434539D01*
X1357000D01*
X1359539D01*
X1360386Y435386D01*
Y436232D01*
X1359539Y437078D01*
X1357000D01*
X1351000Y378578D02*
Y373500D01*
X1353539D01*
X1354386Y374346D01*
Y375193D01*
X1353539Y376039D01*
X1351000D01*
X1353539D01*
X1354386Y376886D01*
Y377732D01*
X1353539Y378578D01*
X1351000D01*
X1322500Y396578D02*
Y391500D01*
X1325039D01*
X1325886Y392346D01*
Y393193D01*
X1325039Y394039D01*
X1322500D01*
X1325039D01*
X1325886Y394886D01*
Y395732D01*
X1325039Y396578D01*
X1322500D01*
X1351000Y522578D02*
Y517500D01*
X1353539D01*
X1354386Y518346D01*
Y519193D01*
X1353539Y520039D01*
X1351000D01*
X1353539D01*
X1354386Y520886D01*
Y521732D01*
X1353539Y522578D01*
X1351000D01*
Y504578D02*
Y499500D01*
X1353539D01*
X1354386Y500346D01*
Y501193D01*
X1353539Y502039D01*
X1351000D01*
X1353539D01*
X1354386Y502886D01*
Y503732D01*
X1353539Y504578D01*
X1351000D01*
Y486578D02*
Y481500D01*
X1353539D01*
X1354386Y482346D01*
Y483193D01*
X1353539Y484039D01*
X1351000D01*
X1353539D01*
X1354386Y484886D01*
Y485732D01*
X1353539Y486578D01*
X1351000D01*
Y540578D02*
Y535500D01*
X1353539D01*
X1354386Y536346D01*
Y537193D01*
X1353539Y538039D01*
X1351000D01*
X1353539D01*
X1354386Y538886D01*
Y539732D01*
X1353539Y540578D01*
X1351000D01*
X1735602Y521930D02*
Y516852D01*
X1738141D01*
X1738988Y517698D01*
Y518545D01*
X1738141Y519391D01*
X1735602D01*
X1738141D01*
X1738988Y520238D01*
Y521084D01*
X1738141Y521930D01*
X1735602D01*
X1702250Y554078D02*
Y549000D01*
X1704789D01*
X1705636Y549846D01*
Y550693D01*
X1704789Y551539D01*
X1702250D01*
X1704789D01*
X1705636Y552386D01*
Y553232D01*
X1704789Y554078D01*
X1702250D01*
X1767750Y545828D02*
Y540750D01*
X1770289D01*
X1771136Y541596D01*
Y542443D01*
X1770289Y543289D01*
X1767750D01*
X1770289D01*
X1771136Y544136D01*
Y544982D01*
X1770289Y545828D01*
X1767750D01*
X1271000Y155828D02*
Y150750D01*
X1273539D01*
X1274386Y151596D01*
Y152443D01*
X1273539Y153289D01*
X1271000D01*
X1273539D01*
X1274386Y154136D01*
Y154982D01*
X1273539Y155828D01*
X1271000D01*
X1351000Y594578D02*
Y589500D01*
X1353539D01*
X1354386Y590346D01*
Y591193D01*
X1353539Y592039D01*
X1351000D01*
X1353539D01*
X1354386Y592886D01*
Y593732D01*
X1353539Y594578D01*
X1351000D01*
Y612578D02*
Y607500D01*
X1353539D01*
X1354386Y608346D01*
Y609193D01*
X1353539Y610039D01*
X1351000D01*
X1353539D01*
X1354386Y610886D01*
Y611732D01*
X1353539Y612578D01*
X1351000D01*
Y630578D02*
Y625500D01*
X1353539D01*
X1354386Y626346D01*
Y627193D01*
X1353539Y628039D01*
X1351000D01*
X1353539D01*
X1354386Y628886D01*
Y629732D01*
X1353539Y630578D01*
X1351000D01*
Y648578D02*
Y643500D01*
X1353539D01*
X1354386Y644346D01*
Y645193D01*
X1353539Y646039D01*
X1351000D01*
X1353539D01*
X1354386Y646886D01*
Y647732D01*
X1353539Y648578D01*
X1351000D01*
Y666578D02*
Y661500D01*
X1353539D01*
X1354386Y662346D01*
Y663193D01*
X1353539Y664039D01*
X1351000D01*
X1353539D01*
X1354386Y664886D01*
Y665732D01*
X1353539Y666578D01*
X1351000D01*
X1433500Y537578D02*
Y532500D01*
X1436039D01*
X1436886Y533346D01*
Y534193D01*
X1436039Y535039D01*
X1433500D01*
X1436039D01*
X1436886Y535886D01*
Y536732D01*
X1436039Y537578D01*
X1433500D01*
Y519578D02*
Y514500D01*
X1436039D01*
X1436886Y515346D01*
Y516193D01*
X1436039Y517039D01*
X1433500D01*
X1436039D01*
X1436886Y517886D01*
Y518732D01*
X1436039Y519578D01*
X1433500D01*
Y501578D02*
Y496500D01*
X1436039D01*
X1436886Y497346D01*
Y498193D01*
X1436039Y499039D01*
X1433500D01*
X1436039D01*
X1436886Y499886D01*
Y500732D01*
X1436039Y501578D01*
X1433500D01*
Y483578D02*
Y478500D01*
X1436039D01*
X1436886Y479346D01*
Y480193D01*
X1436039Y481039D01*
X1433500D01*
X1436039D01*
X1436886Y481886D01*
Y482732D01*
X1436039Y483578D01*
X1433500D01*
Y447578D02*
Y442500D01*
X1436039D01*
X1436886Y443346D01*
Y444193D01*
X1436039Y445039D01*
X1433500D01*
X1436039D01*
X1436886Y445886D01*
Y446732D01*
X1436039Y447578D01*
X1433500D01*
Y429578D02*
Y424500D01*
X1436039D01*
X1436886Y425346D01*
Y426193D01*
X1436039Y427039D01*
X1433500D01*
X1436039D01*
X1436886Y427886D01*
Y428732D01*
X1436039Y429578D01*
X1433500D01*
Y411578D02*
Y406500D01*
X1436039D01*
X1436886Y407346D01*
Y408193D01*
X1436039Y409039D01*
X1433500D01*
X1436039D01*
X1436886Y409886D01*
Y410732D01*
X1436039Y411578D01*
X1433500D01*
Y393578D02*
Y388500D01*
X1436039D01*
X1436886Y389346D01*
Y390193D01*
X1436039Y391039D01*
X1433500D01*
X1436039D01*
X1436886Y391886D01*
Y392732D01*
X1436039Y393578D01*
X1433500D01*
Y375578D02*
Y370500D01*
X1436039D01*
X1436886Y371346D01*
Y372193D01*
X1436039Y373039D01*
X1433500D01*
X1436039D01*
X1436886Y373886D01*
Y374732D01*
X1436039Y375578D01*
X1433500D01*
Y357578D02*
Y352500D01*
X1436039D01*
X1436886Y353346D01*
Y354193D01*
X1436039Y355039D01*
X1433500D01*
X1436039D01*
X1436886Y355886D01*
Y356732D01*
X1436039Y357578D01*
X1433500D01*
Y339578D02*
Y334500D01*
X1436039D01*
X1436886Y335346D01*
Y336193D01*
X1436039Y337039D01*
X1433500D01*
X1436039D01*
X1436886Y337886D01*
Y338732D01*
X1436039Y339578D01*
X1433500D01*
Y321578D02*
Y316500D01*
X1436039D01*
X1436886Y317346D01*
Y318193D01*
X1436039Y319039D01*
X1433500D01*
X1436039D01*
X1436886Y319886D01*
Y320732D01*
X1436039Y321578D01*
X1433500D01*
Y303578D02*
Y298500D01*
X1436039D01*
X1436886Y299346D01*
Y300193D01*
X1436039Y301039D01*
X1433500D01*
X1436039D01*
X1436886Y301886D01*
Y302732D01*
X1436039Y303578D01*
X1433500D01*
Y267578D02*
Y262500D01*
X1436039D01*
X1436886Y263346D01*
Y264193D01*
X1436039Y265039D01*
X1433500D01*
X1436039D01*
X1436886Y265886D01*
Y266732D01*
X1436039Y267578D01*
X1433500D01*
Y249578D02*
Y244500D01*
X1436039D01*
X1436886Y245346D01*
Y246193D01*
X1436039Y247039D01*
X1433500D01*
X1436039D01*
X1436886Y247886D01*
Y248732D01*
X1436039Y249578D01*
X1433500D01*
Y231578D02*
Y226500D01*
X1436039D01*
X1436886Y227346D01*
Y228193D01*
X1436039Y229039D01*
X1433500D01*
X1436039D01*
X1436886Y229886D01*
Y230732D01*
X1436039Y231578D01*
X1433500D01*
Y213578D02*
Y208500D01*
X1436039D01*
X1436886Y209346D01*
Y210193D01*
X1436039Y211039D01*
X1433500D01*
X1436039D01*
X1436886Y211886D01*
Y212732D01*
X1436039Y213578D01*
X1433500D01*
Y177578D02*
Y172500D01*
X1436039D01*
X1436886Y173346D01*
Y174193D01*
X1436039Y175039D01*
X1433500D01*
X1436039D01*
X1436886Y175886D01*
Y176732D01*
X1436039Y177578D01*
X1433500D01*
X1399000Y164078D02*
Y159000D01*
X1401539D01*
X1402386Y159846D01*
Y160693D01*
X1401539Y161539D01*
X1399000D01*
X1401539D01*
X1402386Y162386D01*
Y163232D01*
X1401539Y164078D01*
X1399000D01*
X1433500Y123578D02*
Y118500D01*
X1436039D01*
X1436886Y119346D01*
Y120193D01*
X1436039Y121039D01*
X1433500D01*
X1436039D01*
X1436886Y121886D01*
Y122732D01*
X1436039Y123578D01*
X1433500D01*
Y105578D02*
Y100500D01*
X1436039D01*
X1436886Y101346D01*
Y102193D01*
X1436039Y103039D01*
X1433500D01*
X1436039D01*
X1436886Y103886D01*
Y104732D01*
X1436039Y105578D01*
X1433500D01*
Y81578D02*
Y76500D01*
X1436039D01*
X1436886Y77346D01*
Y78193D01*
X1436039Y79039D01*
X1433500D01*
X1436039D01*
X1436886Y79886D01*
Y80732D01*
X1436039Y81578D01*
X1433500D01*
Y465578D02*
Y460500D01*
X1436039D01*
X1436886Y461346D01*
Y462193D01*
X1436039Y463039D01*
X1433500D01*
X1436039D01*
X1436886Y463886D01*
Y464732D01*
X1436039Y465578D01*
X1433500D01*
X1496750Y415078D02*
Y410000D01*
X1499289D01*
X1500136Y410846D01*
Y411693D01*
X1499289Y412539D01*
X1496750D01*
X1499289D01*
X1500136Y413386D01*
Y414232D01*
X1499289Y415078D01*
X1496750D01*
X1495500Y439328D02*
Y434250D01*
X1498039D01*
X1498886Y435096D01*
Y435943D01*
X1498039Y436789D01*
X1495500D01*
X1498039D01*
X1498886Y437636D01*
Y438482D01*
X1498039Y439328D01*
X1495500D01*
X1435000Y591578D02*
Y586500D01*
X1437539D01*
X1438386Y587346D01*
Y588193D01*
X1437539Y589039D01*
X1435000D01*
X1437539D01*
X1438386Y589886D01*
Y590732D01*
X1437539Y591578D01*
X1435000D01*
X1436500Y627578D02*
Y622500D01*
X1439039D01*
X1439886Y623346D01*
Y624193D01*
X1439039Y625039D01*
X1436500D01*
X1439039D01*
X1439886Y625886D01*
Y626732D01*
X1439039Y627578D01*
X1436500D01*
Y645578D02*
Y640500D01*
X1439039D01*
X1439886Y641346D01*
Y642193D01*
X1439039Y643039D01*
X1436500D01*
X1439039D01*
X1439886Y643886D01*
Y644732D01*
X1439039Y645578D01*
X1436500D01*
Y681578D02*
Y676500D01*
X1439039D01*
X1439886Y677346D01*
Y678193D01*
X1439039Y679039D01*
X1436500D01*
X1439039D01*
X1439886Y679886D01*
Y680732D01*
X1439039Y681578D01*
X1436500D01*
X1055790Y674538D02*
Y669460D01*
X1058329D01*
X1059176Y670306D01*
Y671153D01*
X1058329Y671999D01*
X1055790D01*
X1058329D01*
X1059176Y672846D01*
Y673692D01*
X1058329Y674538D01*
X1055790D01*
X1560500Y839828D02*
Y834750D01*
X1563039D01*
X1563886Y835596D01*
Y836443D01*
X1563039Y837289D01*
X1560500D01*
X1563039D01*
X1563886Y838136D01*
Y838982D01*
X1563039Y839828D01*
X1560500D01*
X1352000Y838578D02*
Y833500D01*
X1354539D01*
X1355386Y834346D01*
Y835193D01*
X1354539Y836039D01*
X1352000D01*
X1354539D01*
X1355386Y836886D01*
Y837732D01*
X1354539Y838578D01*
X1352000D01*
X1209000Y555328D02*
Y550250D01*
X1211539D01*
X1212386Y551096D01*
Y551943D01*
X1211539Y552789D01*
X1209000D01*
X1211539D01*
X1212386Y553636D01*
Y554482D01*
X1211539Y555328D01*
X1209000D01*
X1176750Y681578D02*
Y676500D01*
X1179289D01*
X1180136Y677346D01*
Y678193D01*
X1179289Y679039D01*
X1176750D01*
X1179289D01*
X1180136Y679886D01*
Y680732D01*
X1179289Y681578D01*
X1176750D01*
X1158150Y584228D02*
Y579150D01*
X1160689D01*
X1161536Y579996D01*
Y580843D01*
X1160689Y581689D01*
X1158150D01*
X1160689D01*
X1161536Y582536D01*
Y583382D01*
X1160689Y584228D01*
X1158150D01*
X1183150Y543228D02*
Y538150D01*
X1185689D01*
X1186535Y538996D01*
Y539843D01*
X1185689Y540689D01*
X1183150D01*
X1185689D01*
X1186535Y541535D01*
Y542382D01*
X1185689Y543228D01*
X1183150D01*
X1171000Y613078D02*
Y608000D01*
X1173539D01*
X1174386Y608846D01*
Y609693D01*
X1173539Y610539D01*
X1171000D01*
X1173539D01*
X1174386Y611386D01*
Y612232D01*
X1173539Y613078D01*
X1171000D01*
X1210750Y628328D02*
Y623250D01*
X1213289D01*
X1214136Y624096D01*
Y624943D01*
X1213289Y625789D01*
X1210750D01*
X1213289D01*
X1214136Y626636D01*
Y627482D01*
X1213289Y628328D01*
X1210750D01*
X1169000Y704078D02*
Y699000D01*
X1171539D01*
X1172386Y699846D01*
Y700693D01*
X1171539Y701539D01*
X1169000D01*
X1171539D01*
X1172386Y702386D01*
Y703232D01*
X1171539Y704078D01*
X1169000D01*
X1077740Y599838D02*
Y594760D01*
X1080279D01*
X1081126Y595606D01*
Y596453D01*
X1080279Y597299D01*
X1077740D01*
X1080279D01*
X1081126Y598145D01*
Y598992D01*
X1080279Y599838D01*
X1077740D01*
X1127750Y599078D02*
Y594000D01*
X1130289D01*
X1131136Y594846D01*
Y595693D01*
X1130289Y596539D01*
X1127750D01*
X1130289D01*
X1131136Y597386D01*
Y598232D01*
X1130289Y599078D01*
X1127750D01*
X1436500Y609578D02*
Y604500D01*
X1439039D01*
X1439886Y605346D01*
Y606193D01*
X1439039Y607039D01*
X1436500D01*
X1439039D01*
X1439886Y607886D01*
Y608732D01*
X1439039Y609578D01*
X1436500D01*
X1092500Y712578D02*
Y707500D01*
X1095039D01*
X1095886Y708346D01*
Y709193D01*
X1095039Y710039D01*
X1092500D01*
X1095039D01*
X1095886Y710886D01*
Y711732D01*
X1095039Y712578D01*
X1092500D01*
X329000Y379078D02*
Y374000D01*
X331539D01*
X332386Y374846D01*
Y375693D01*
X331539Y376539D01*
X329000D01*
X331539D01*
X332386Y377386D01*
Y378232D01*
X331539Y379078D01*
X329000D01*
Y389078D02*
Y384000D01*
X331539D01*
X332386Y384846D01*
Y385693D01*
X331539Y386539D01*
X329000D01*
X331539D01*
X332386Y387386D01*
Y388232D01*
X331539Y389078D01*
X329000D01*
X1318000Y221578D02*
Y216500D01*
X1320539D01*
X1321386Y217346D01*
Y218193D01*
X1320539Y219039D01*
X1318000D01*
X1320539D01*
X1321386Y219886D01*
Y220732D01*
X1320539Y221578D01*
X1318000D01*
Y230078D02*
Y225000D01*
X1320539D01*
X1321386Y225846D01*
Y226693D01*
X1320539Y227539D01*
X1318000D01*
X1320539D01*
X1321386Y228386D01*
Y229232D01*
X1320539Y230078D01*
X1318000D01*
X1319500Y211828D02*
Y206750D01*
X1322039D01*
X1322886Y207596D01*
Y208443D01*
X1322039Y209289D01*
X1319500D01*
X1322039D01*
X1322886Y210136D01*
Y210982D01*
X1322039Y211828D01*
X1319500D01*
Y203328D02*
Y198250D01*
X1322039D01*
X1322886Y199096D01*
Y199943D01*
X1322039Y200789D01*
X1319500D01*
X1322039D01*
X1322886Y201636D01*
Y202482D01*
X1322039Y203328D01*
X1319500D01*
X329000Y359078D02*
Y354000D01*
X331539D01*
X332386Y354846D01*
Y355693D01*
X331539Y356539D01*
X329000D01*
X331539D01*
X332386Y357385D01*
Y358232D01*
X331539Y359078D01*
X329000D01*
Y349078D02*
Y344000D01*
X331539D01*
X332386Y344846D01*
Y345693D01*
X331539Y346539D01*
X329000D01*
X331539D01*
X332386Y347385D01*
Y348232D01*
X331539Y349078D01*
X329000D01*
X1321510Y186568D02*
Y181490D01*
X1324050D01*
X1324896Y182336D01*
Y183182D01*
X1324050Y184029D01*
X1321510D01*
X1324050D01*
X1324896Y184875D01*
Y185722D01*
X1324050Y186568D01*
X1321510D01*
X1315500Y192578D02*
Y187500D01*
X1318039D01*
X1318886Y188346D01*
Y189193D01*
X1318039Y190039D01*
X1315500D01*
X1318039D01*
X1318886Y190886D01*
Y191732D01*
X1318039Y192578D01*
X1315500D01*
X329000Y319078D02*
Y314000D01*
X331539D01*
X332386Y314846D01*
Y315693D01*
X331539Y316539D01*
X329000D01*
X331539D01*
X332386Y317386D01*
Y318232D01*
X331539Y319078D01*
X329000D01*
Y329078D02*
Y324000D01*
X331539D01*
X332386Y324846D01*
Y325693D01*
X331539Y326539D01*
X329000D01*
X331539D01*
X332386Y327386D01*
Y328232D01*
X331539Y329078D01*
X329000D01*
X1405000Y388828D02*
Y383750D01*
X1407539D01*
X1408386Y384596D01*
Y385443D01*
X1407539Y386289D01*
X1405000D01*
X1407539D01*
X1408386Y387136D01*
Y387982D01*
X1407539Y388828D01*
X1405000D01*
Y380328D02*
Y375250D01*
X1407539D01*
X1408386Y376096D01*
Y376943D01*
X1407539Y377789D01*
X1405000D01*
X1407539D01*
X1408386Y378636D01*
Y379482D01*
X1407539Y380328D01*
X1405000D01*
X329000Y590328D02*
Y585250D01*
X331539D01*
X332386Y586096D01*
Y586943D01*
X331539Y587789D01*
X329000D01*
X331539D01*
X332386Y588636D01*
Y589482D01*
X331539Y590328D01*
X329000D01*
Y581828D02*
Y576750D01*
X331539D01*
X332386Y577596D01*
Y578443D01*
X331539Y579289D01*
X329000D01*
X331539D01*
X332386Y580136D01*
Y580982D01*
X331539Y581828D01*
X329000D01*
X1405000Y362328D02*
Y357250D01*
X1407539D01*
X1408386Y358096D01*
Y358943D01*
X1407539Y359789D01*
X1405000D01*
X1407539D01*
X1408386Y360636D01*
Y361482D01*
X1407539Y362328D01*
X1405000D01*
Y370828D02*
Y365750D01*
X1407539D01*
X1408386Y366596D01*
Y367443D01*
X1407539Y368289D01*
X1405000D01*
X1407539D01*
X1408386Y369136D01*
Y369982D01*
X1407539Y370828D01*
X1405000D01*
X329000Y551828D02*
Y546750D01*
X331539D01*
X332386Y547596D01*
Y548443D01*
X331539Y549289D01*
X329000D01*
X331539D01*
X332386Y550136D01*
Y550982D01*
X331539Y551828D01*
X329000D01*
Y560328D02*
Y555250D01*
X331539D01*
X332386Y556096D01*
Y556943D01*
X331539Y557789D01*
X329000D01*
X331539D01*
X332386Y558636D01*
Y559482D01*
X331539Y560328D01*
X329000D01*
X1405000Y308328D02*
Y303250D01*
X1407539D01*
X1408386Y304096D01*
Y304943D01*
X1407539Y305789D01*
X1405000D01*
X1407539D01*
X1408386Y306636D01*
Y307482D01*
X1407539Y308328D01*
X1405000D01*
Y316828D02*
Y311750D01*
X1407539D01*
X1408386Y312596D01*
Y313443D01*
X1407539Y314289D01*
X1405000D01*
X1407539D01*
X1408386Y315136D01*
Y315982D01*
X1407539Y316828D01*
X1405000D01*
X329000Y530328D02*
Y525250D01*
X331539D01*
X332386Y526096D01*
Y526943D01*
X331539Y527789D01*
X329000D01*
X331539D01*
X332386Y528636D01*
Y529482D01*
X331539Y530328D01*
X329000D01*
Y521828D02*
Y516750D01*
X331539D01*
X332386Y517596D01*
Y518443D01*
X331539Y519289D01*
X329000D01*
X331539D01*
X332386Y520136D01*
Y520982D01*
X331539Y521828D01*
X329000D01*
X1313500Y414578D02*
Y409500D01*
X1316039D01*
X1316886Y410346D01*
Y411193D01*
X1316039Y412039D01*
X1313500D01*
X1316039D01*
X1316886Y412886D01*
Y413732D01*
X1316039Y414578D01*
X1313500D01*
X1164886Y637732D02*
X1164039Y638578D01*
X1162346D01*
X1161500Y637732D01*
Y634346D01*
X1162346Y633500D01*
X1164039D01*
X1164886Y634346D01*
X1056000Y667328D02*
Y662250D01*
X1058539D01*
X1059386Y663096D01*
Y663943D01*
X1058539Y664789D01*
X1056000D01*
X1058539D01*
X1059386Y665636D01*
Y666482D01*
X1058539Y667328D01*
X1056000D01*
X1405000Y663578D02*
Y658500D01*
X1407539D01*
X1408386Y659346D01*
Y660193D01*
X1407539Y661039D01*
X1405000D01*
X1407539D01*
X1408386Y661886D01*
Y662732D01*
X1407539Y663578D01*
X1405000D01*
D185*
X1379532Y715000D02*
G03*
X1379532Y715000I-2032J0D01*
G01*
X296042Y128680D02*
G03*
X296042Y128680I-2032J0D01*
G01*
X496042D02*
G03*
X496042Y128680I-2032J0D01*
G01*
D186*
X295026D02*
G03*
X295026Y128680I-1016J0D01*
G01*
X495026D02*
G03*
X495026Y128680I-1016J0D01*
G01*
M02*
