G04 Layer_Color=16711935*
%FSLAX44Y44*%
%MOMM*%
G71*
G01*
G75*
%ADD62C,0.2000*%
%ADD107C,0.1000*%
G36*
X1189684Y262921D02*
Y262902D01*
Y262884D01*
Y262830D01*
Y262757D01*
X1189666Y262593D01*
X1189648Y262356D01*
X1189593Y262119D01*
X1189538Y261846D01*
X1189447Y261591D01*
X1189338Y261354D01*
X1189320Y261336D01*
X1189265Y261263D01*
X1189192Y261154D01*
X1189065Y261008D01*
X1188919Y260863D01*
X1188737Y260717D01*
X1188500Y260553D01*
X1188245Y260426D01*
X1187808Y261081D01*
X1187826Y261099D01*
X1187881Y261118D01*
X1187972Y261172D01*
X1188081Y261245D01*
X1188191Y261336D01*
X1188318Y261446D01*
X1188427Y261573D01*
X1188519Y261719D01*
X1188537Y261737D01*
X1188555Y261791D01*
X1188591Y261901D01*
X1188646Y262028D01*
X1188682Y262192D01*
X1188737Y262411D01*
X1188773Y262647D01*
X1188792Y262921D01*
X1187917D01*
Y264687D01*
X1189684D01*
Y262921D01*
D02*
G37*
G36*
X601616Y276560D02*
X601853Y276523D01*
X602144Y276469D01*
X602472Y276378D01*
X602800Y276268D01*
X603128Y276123D01*
X603146D01*
X603164Y276104D01*
X603274Y276050D01*
X603437Y275940D01*
X603619Y275813D01*
X603838Y275631D01*
X604057Y275431D01*
X604275Y275194D01*
X604457Y274921D01*
X604475Y274884D01*
X604530Y274793D01*
X604603Y274629D01*
X604694Y274429D01*
X604785Y274192D01*
X604858Y273919D01*
X604912Y273609D01*
X604931Y273300D01*
Y273263D01*
Y273154D01*
X604912Y273008D01*
X604876Y272808D01*
X604822Y272571D01*
X604730Y272316D01*
X604621Y272061D01*
X604475Y271806D01*
X604457Y271770D01*
X604403Y271697D01*
X604293Y271570D01*
X604148Y271424D01*
X603965Y271260D01*
X603747Y271078D01*
X603492Y270914D01*
X603182Y270750D01*
X603201D01*
X603237Y270732D01*
X603292Y270714D01*
X603364Y270695D01*
X603565Y270623D01*
X603820Y270513D01*
X604111Y270368D01*
X604403Y270186D01*
X604676Y269949D01*
X604931Y269676D01*
X604949Y269639D01*
X605022Y269530D01*
X605131Y269348D01*
X605240Y269111D01*
X605350Y268820D01*
X605459Y268474D01*
X605532Y268073D01*
X605550Y267636D01*
Y267618D01*
Y267563D01*
Y267472D01*
X605532Y267363D01*
X605513Y267217D01*
X605477Y267053D01*
X605441Y266871D01*
X605404Y266671D01*
X605259Y266234D01*
X605149Y265997D01*
X605040Y265778D01*
X604894Y265541D01*
X604730Y265305D01*
X604548Y265068D01*
X604330Y264849D01*
X604311Y264831D01*
X604275Y264795D01*
X604202Y264740D01*
X604111Y264667D01*
X604002Y264576D01*
X603856Y264485D01*
X603692Y264376D01*
X603492Y264285D01*
X603292Y264176D01*
X603055Y264066D01*
X602818Y263975D01*
X602545Y263884D01*
X602254Y263811D01*
X601944Y263757D01*
X601634Y263720D01*
X601288Y263702D01*
X601124D01*
X601015Y263720D01*
X600869Y263739D01*
X600706Y263757D01*
X600523Y263793D01*
X600323Y263830D01*
X599886Y263939D01*
X599431Y264121D01*
X599194Y264230D01*
X598975Y264358D01*
X598757Y264522D01*
X598538Y264686D01*
X598520Y264704D01*
X598484Y264740D01*
X598429Y264795D01*
X598374Y264868D01*
X598283Y264959D01*
X598192Y265086D01*
X598083Y265214D01*
X597974Y265378D01*
X597865Y265560D01*
X597755Y265742D01*
X597555Y266179D01*
X597391Y266689D01*
X597336Y266962D01*
X597300Y267253D01*
X598848Y267454D01*
Y267436D01*
X598866Y267399D01*
X598884Y267326D01*
X598903Y267235D01*
X598921Y267126D01*
X598957Y266999D01*
X599048Y266725D01*
X599176Y266397D01*
X599340Y266088D01*
X599522Y265797D01*
X599740Y265541D01*
X599777Y265523D01*
X599850Y265450D01*
X599995Y265359D01*
X600177Y265268D01*
X600396Y265159D01*
X600669Y265068D01*
X600979Y264995D01*
X601307Y264977D01*
X601416D01*
X601489Y264995D01*
X601689Y265013D01*
X601944Y265068D01*
X602235Y265159D01*
X602545Y265287D01*
X602855Y265469D01*
X603146Y265724D01*
X603182Y265760D01*
X603274Y265869D01*
X603383Y266033D01*
X603528Y266252D01*
X603674Y266525D01*
X603783Y266835D01*
X603875Y267199D01*
X603911Y267600D01*
Y267618D01*
Y267654D01*
Y267709D01*
X603893Y267782D01*
X603875Y267982D01*
X603820Y268219D01*
X603747Y268510D01*
X603619Y268801D01*
X603437Y269093D01*
X603201Y269366D01*
X603164Y269402D01*
X603073Y269475D01*
X602927Y269585D01*
X602727Y269712D01*
X602472Y269839D01*
X602163Y269949D01*
X601816Y270022D01*
X601434Y270058D01*
X601270D01*
X601143Y270040D01*
X600979Y270022D01*
X600797Y269985D01*
X600578Y269949D01*
X600341Y269894D01*
X600523Y271260D01*
X600615D01*
X600687Y271242D01*
X600924D01*
X601124Y271278D01*
X601361Y271315D01*
X601634Y271369D01*
X601944Y271460D01*
X602235Y271588D01*
X602545Y271752D01*
X602563D01*
X602581Y271770D01*
X602673Y271843D01*
X602800Y271970D01*
X602946Y272134D01*
X603091Y272371D01*
X603219Y272644D01*
X603310Y272954D01*
X603346Y273136D01*
Y273336D01*
Y273354D01*
Y273373D01*
Y273482D01*
X603310Y273628D01*
X603274Y273828D01*
X603201Y274046D01*
X603110Y274283D01*
X602964Y274520D01*
X602763Y274739D01*
X602745Y274757D01*
X602654Y274830D01*
X602527Y274921D01*
X602363Y275030D01*
X602144Y275121D01*
X601889Y275212D01*
X601598Y275285D01*
X601270Y275303D01*
X601124D01*
X600961Y275267D01*
X600742Y275230D01*
X600505Y275157D01*
X600269Y275066D01*
X600014Y274921D01*
X599777Y274739D01*
X599759Y274720D01*
X599686Y274629D01*
X599576Y274502D01*
X599449Y274320D01*
X599322Y274083D01*
X599194Y273792D01*
X599085Y273445D01*
X599012Y273045D01*
X597464Y273318D01*
Y273336D01*
X597482Y273391D01*
X597500Y273464D01*
X597519Y273573D01*
X597555Y273700D01*
X597610Y273846D01*
X597719Y274192D01*
X597901Y274593D01*
X598120Y274993D01*
X598393Y275376D01*
X598739Y275722D01*
X598757Y275740D01*
X598793Y275758D01*
X598848Y275795D01*
X598921Y275849D01*
X599012Y275922D01*
X599139Y275995D01*
X599267Y276068D01*
X599431Y276159D01*
X599795Y276305D01*
X600214Y276450D01*
X600706Y276542D01*
X600961Y276578D01*
X601416D01*
X601616Y276560D01*
D02*
G37*
G36*
X616459D02*
X616696Y276523D01*
X616969Y276469D01*
X617260Y276396D01*
X617570Y276305D01*
X617861Y276159D01*
X617879D01*
X617897Y276141D01*
X617989Y276086D01*
X618134Y275995D01*
X618316Y275868D01*
X618517Y275686D01*
X618735Y275485D01*
X618936Y275248D01*
X619136Y274975D01*
X619154Y274939D01*
X619227Y274848D01*
X619300Y274684D01*
X619427Y274447D01*
X619537Y274174D01*
X619682Y273864D01*
X619810Y273500D01*
X619919Y273099D01*
Y273081D01*
X619937Y273045D01*
X619955Y272990D01*
X619974Y272899D01*
X619992Y272790D01*
X620010Y272662D01*
X620047Y272498D01*
X620065Y272316D01*
X620101Y272116D01*
X620119Y271897D01*
X620138Y271642D01*
X620174Y271388D01*
X620192Y271096D01*
Y270805D01*
X620210Y270477D01*
Y270131D01*
Y270113D01*
Y270040D01*
Y269912D01*
Y269767D01*
X620192Y269566D01*
Y269348D01*
X620174Y269111D01*
X620156Y268856D01*
X620101Y268273D01*
X620010Y267672D01*
X619901Y267090D01*
X619828Y266816D01*
X619737Y266543D01*
Y266525D01*
X619719Y266488D01*
X619682Y266416D01*
X619646Y266325D01*
X619609Y266197D01*
X619537Y266070D01*
X619391Y265760D01*
X619209Y265432D01*
X618972Y265068D01*
X618699Y264740D01*
X618371Y264431D01*
X618353D01*
X618335Y264394D01*
X618280Y264358D01*
X618207Y264321D01*
X618116Y264267D01*
X618025Y264194D01*
X617752Y264066D01*
X617424Y263939D01*
X617042Y263811D01*
X616586Y263739D01*
X616095Y263702D01*
X615913D01*
X615785Y263720D01*
X615639Y263739D01*
X615457Y263775D01*
X615257Y263811D01*
X615038Y263866D01*
X614820Y263939D01*
X614583Y264012D01*
X614346Y264121D01*
X614109Y264249D01*
X613873Y264394D01*
X613636Y264576D01*
X613417Y264777D01*
X613217Y264995D01*
X613199Y265013D01*
X613162Y265068D01*
X613108Y265159D01*
X613017Y265305D01*
X612926Y265469D01*
X612835Y265687D01*
X612707Y265942D01*
X612598Y266234D01*
X612489Y266561D01*
X612379Y266944D01*
X612270Y267363D01*
X612179Y267836D01*
X612088Y268346D01*
X612033Y268892D01*
X611997Y269494D01*
X611979Y270131D01*
Y270149D01*
Y270222D01*
Y270349D01*
Y270495D01*
X611997Y270695D01*
Y270914D01*
X612015Y271151D01*
X612033Y271424D01*
X612088Y271989D01*
X612179Y272589D01*
X612288Y273190D01*
X612361Y273464D01*
X612434Y273737D01*
Y273755D01*
X612452Y273792D01*
X612489Y273864D01*
X612525Y273955D01*
X612561Y274083D01*
X612634Y274210D01*
X612780Y274520D01*
X612962Y274848D01*
X613199Y275194D01*
X613472Y275540D01*
X613800Y275831D01*
X613818D01*
X613836Y275868D01*
X613891Y275904D01*
X613964Y275940D01*
X614055Y276013D01*
X614164Y276068D01*
X614437Y276214D01*
X614765Y276341D01*
X615148Y276469D01*
X615603Y276542D01*
X616095Y276578D01*
X616259D01*
X616459Y276560D01*
D02*
G37*
G36*
X1196459Y275560D02*
X1196695Y275523D01*
X1196969Y275469D01*
X1197260Y275396D01*
X1197570Y275305D01*
X1197861Y275159D01*
X1197879D01*
X1197897Y275141D01*
X1197989Y275086D01*
X1198134Y274995D01*
X1198316Y274868D01*
X1198517Y274685D01*
X1198735Y274485D01*
X1198936Y274248D01*
X1199136Y273975D01*
X1199154Y273939D01*
X1199227Y273848D01*
X1199300Y273684D01*
X1199427Y273447D01*
X1199537Y273174D01*
X1199682Y272864D01*
X1199810Y272500D01*
X1199919Y272099D01*
Y272081D01*
X1199937Y272045D01*
X1199956Y271990D01*
X1199974Y271899D01*
X1199992Y271790D01*
X1200010Y271662D01*
X1200046Y271498D01*
X1200065Y271316D01*
X1200101Y271116D01*
X1200119Y270897D01*
X1200138Y270643D01*
X1200174Y270387D01*
X1200192Y270096D01*
Y269805D01*
X1200210Y269477D01*
Y269131D01*
Y269113D01*
Y269040D01*
Y268912D01*
Y268767D01*
X1200192Y268566D01*
Y268348D01*
X1200174Y268111D01*
X1200156Y267856D01*
X1200101Y267273D01*
X1200010Y266672D01*
X1199901Y266089D01*
X1199828Y265816D01*
X1199737Y265543D01*
Y265525D01*
X1199719Y265488D01*
X1199682Y265416D01*
X1199646Y265325D01*
X1199609Y265197D01*
X1199537Y265070D01*
X1199391Y264760D01*
X1199209Y264432D01*
X1198972Y264068D01*
X1198699Y263740D01*
X1198371Y263431D01*
X1198353D01*
X1198335Y263394D01*
X1198280Y263358D01*
X1198207Y263321D01*
X1198116Y263267D01*
X1198025Y263194D01*
X1197752Y263066D01*
X1197424Y262939D01*
X1197042Y262811D01*
X1196586Y262738D01*
X1196095Y262702D01*
X1195912D01*
X1195785Y262720D01*
X1195639Y262738D01*
X1195457Y262775D01*
X1195257Y262811D01*
X1195038Y262866D01*
X1194820Y262939D01*
X1194583Y263012D01*
X1194346Y263121D01*
X1194109Y263249D01*
X1193873Y263394D01*
X1193636Y263576D01*
X1193417Y263777D01*
X1193217Y263995D01*
X1193199Y264013D01*
X1193163Y264068D01*
X1193108Y264159D01*
X1193017Y264305D01*
X1192926Y264469D01*
X1192835Y264687D01*
X1192707Y264942D01*
X1192598Y265234D01*
X1192489Y265561D01*
X1192379Y265944D01*
X1192270Y266363D01*
X1192179Y266836D01*
X1192088Y267346D01*
X1192033Y267892D01*
X1191997Y268493D01*
X1191979Y269131D01*
Y269149D01*
Y269222D01*
Y269349D01*
Y269495D01*
X1191997Y269695D01*
Y269914D01*
X1192015Y270151D01*
X1192033Y270424D01*
X1192088Y270989D01*
X1192179Y271590D01*
X1192288Y272190D01*
X1192361Y272464D01*
X1192434Y272737D01*
Y272755D01*
X1192452Y272792D01*
X1192489Y272864D01*
X1192525Y272955D01*
X1192561Y273083D01*
X1192634Y273210D01*
X1192780Y273520D01*
X1192962Y273848D01*
X1193199Y274194D01*
X1193472Y274540D01*
X1193800Y274831D01*
X1193818D01*
X1193836Y274868D01*
X1193891Y274904D01*
X1193964Y274940D01*
X1194055Y275013D01*
X1194164Y275068D01*
X1194437Y275214D01*
X1194765Y275341D01*
X1195147Y275469D01*
X1195603Y275541D01*
X1196095Y275578D01*
X1196258D01*
X1196459Y275560D01*
D02*
G37*
G36*
X1748459Y635539D02*
X1748696Y635503D01*
X1748969Y635448D01*
X1749260Y635375D01*
X1749570Y635284D01*
X1749861Y635138D01*
X1749879D01*
X1749897Y635120D01*
X1749989Y635065D01*
X1750134Y634974D01*
X1750316Y634847D01*
X1750517Y634665D01*
X1750735Y634464D01*
X1750936Y634228D01*
X1751136Y633955D01*
X1751154Y633918D01*
X1751227Y633827D01*
X1751300Y633663D01*
X1751427Y633426D01*
X1751537Y633153D01*
X1751682Y632844D01*
X1751810Y632479D01*
X1751919Y632079D01*
Y632061D01*
X1751937Y632024D01*
X1751956Y631969D01*
X1751974Y631878D01*
X1751992Y631769D01*
X1752010Y631642D01*
X1752047Y631478D01*
X1752065Y631296D01*
X1752101Y631095D01*
X1752119Y630877D01*
X1752138Y630622D01*
X1752174Y630367D01*
X1752192Y630075D01*
Y629784D01*
X1752210Y629456D01*
Y629110D01*
Y629092D01*
Y629019D01*
Y628892D01*
Y628746D01*
X1752192Y628546D01*
Y628327D01*
X1752174Y628090D01*
X1752156Y627835D01*
X1752101Y627253D01*
X1752010Y626652D01*
X1751901Y626069D01*
X1751828Y625796D01*
X1751737Y625522D01*
Y625504D01*
X1751719Y625468D01*
X1751682Y625395D01*
X1751646Y625304D01*
X1751609Y625177D01*
X1751537Y625049D01*
X1751391Y624739D01*
X1751209Y624412D01*
X1750972Y624047D01*
X1750699Y623719D01*
X1750371Y623410D01*
X1750353D01*
X1750335Y623373D01*
X1750280Y623337D01*
X1750207Y623301D01*
X1750116Y623246D01*
X1750025Y623173D01*
X1749752Y623046D01*
X1749424Y622918D01*
X1749042Y622791D01*
X1748586Y622718D01*
X1748095Y622682D01*
X1747912D01*
X1747785Y622700D01*
X1747639Y622718D01*
X1747457Y622754D01*
X1747257Y622791D01*
X1747038Y622845D01*
X1746820Y622918D01*
X1746583Y622991D01*
X1746346Y623100D01*
X1746109Y623228D01*
X1745873Y623373D01*
X1745636Y623556D01*
X1745417Y623756D01*
X1745217Y623974D01*
X1745199Y623993D01*
X1745163Y624047D01*
X1745108Y624138D01*
X1745017Y624284D01*
X1744926Y624448D01*
X1744835Y624666D01*
X1744707Y624921D01*
X1744598Y625213D01*
X1744489Y625541D01*
X1744379Y625923D01*
X1744270Y626342D01*
X1744179Y626815D01*
X1744088Y627326D01*
X1744033Y627872D01*
X1743997Y628473D01*
X1743979Y629110D01*
Y629128D01*
Y629201D01*
Y629329D01*
Y629474D01*
X1743997Y629675D01*
Y629893D01*
X1744015Y630130D01*
X1744033Y630403D01*
X1744088Y630968D01*
X1744179Y631569D01*
X1744288Y632170D01*
X1744361Y632443D01*
X1744434Y632716D01*
Y632734D01*
X1744452Y632771D01*
X1744489Y632844D01*
X1744525Y632935D01*
X1744561Y633062D01*
X1744634Y633190D01*
X1744780Y633499D01*
X1744962Y633827D01*
X1745199Y634173D01*
X1745472Y634519D01*
X1745800Y634810D01*
X1745818D01*
X1745836Y634847D01*
X1745891Y634883D01*
X1745964Y634920D01*
X1746055Y634993D01*
X1746164Y635047D01*
X1746437Y635193D01*
X1746765Y635320D01*
X1747148Y635448D01*
X1747603Y635521D01*
X1748095Y635557D01*
X1748259D01*
X1748459Y635539D01*
D02*
G37*
G36*
X1741684Y622900D02*
Y622882D01*
Y622864D01*
Y622809D01*
Y622736D01*
X1741666Y622572D01*
X1741648Y622335D01*
X1741593Y622099D01*
X1741538Y621825D01*
X1741447Y621571D01*
X1741338Y621334D01*
X1741320Y621316D01*
X1741265Y621243D01*
X1741192Y621133D01*
X1741065Y620988D01*
X1740919Y620842D01*
X1740737Y620696D01*
X1740500Y620532D01*
X1740245Y620405D01*
X1739808Y621061D01*
X1739826Y621079D01*
X1739881Y621097D01*
X1739972Y621152D01*
X1740081Y621225D01*
X1740191Y621316D01*
X1740318Y621425D01*
X1740427Y621552D01*
X1740518Y621698D01*
X1740537Y621716D01*
X1740555Y621771D01*
X1740591Y621880D01*
X1740646Y622008D01*
X1740682Y622172D01*
X1740737Y622390D01*
X1740773Y622627D01*
X1740792Y622900D01*
X1739917D01*
Y624666D01*
X1741684D01*
Y622900D01*
D02*
G37*
G36*
X1181616Y275560D02*
X1181853Y275523D01*
X1182144Y275469D01*
X1182472Y275378D01*
X1182800Y275268D01*
X1183128Y275123D01*
X1183146D01*
X1183164Y275104D01*
X1183273Y275050D01*
X1183437Y274940D01*
X1183620Y274813D01*
X1183838Y274631D01*
X1184057Y274431D01*
X1184275Y274194D01*
X1184457Y273921D01*
X1184475Y273884D01*
X1184530Y273793D01*
X1184603Y273629D01*
X1184694Y273429D01*
X1184785Y273192D01*
X1184858Y272919D01*
X1184912Y272609D01*
X1184931Y272300D01*
Y272263D01*
Y272154D01*
X1184912Y272008D01*
X1184876Y271808D01*
X1184821Y271571D01*
X1184730Y271316D01*
X1184621Y271061D01*
X1184475Y270806D01*
X1184457Y270770D01*
X1184403Y270697D01*
X1184293Y270570D01*
X1184148Y270424D01*
X1183966Y270260D01*
X1183747Y270078D01*
X1183492Y269914D01*
X1183182Y269750D01*
X1183201D01*
X1183237Y269732D01*
X1183292Y269714D01*
X1183364Y269695D01*
X1183565Y269623D01*
X1183820Y269513D01*
X1184111Y269368D01*
X1184403Y269186D01*
X1184676Y268949D01*
X1184931Y268676D01*
X1184949Y268639D01*
X1185022Y268530D01*
X1185131Y268348D01*
X1185240Y268111D01*
X1185350Y267820D01*
X1185459Y267474D01*
X1185532Y267073D01*
X1185550Y266636D01*
Y266618D01*
Y266563D01*
Y266472D01*
X1185532Y266363D01*
X1185514Y266217D01*
X1185477Y266053D01*
X1185441Y265871D01*
X1185404Y265671D01*
X1185258Y265234D01*
X1185149Y264997D01*
X1185040Y264778D01*
X1184894Y264541D01*
X1184730Y264305D01*
X1184548Y264068D01*
X1184330Y263850D01*
X1184312Y263831D01*
X1184275Y263795D01*
X1184202Y263740D01*
X1184111Y263667D01*
X1184002Y263576D01*
X1183856Y263485D01*
X1183692Y263376D01*
X1183492Y263285D01*
X1183292Y263176D01*
X1183055Y263066D01*
X1182818Y262975D01*
X1182545Y262884D01*
X1182254Y262811D01*
X1181944Y262757D01*
X1181634Y262720D01*
X1181288Y262702D01*
X1181124D01*
X1181015Y262720D01*
X1180870Y262738D01*
X1180706Y262757D01*
X1180524Y262793D01*
X1180323Y262830D01*
X1179886Y262939D01*
X1179431Y263121D01*
X1179194Y263230D01*
X1178976Y263358D01*
X1178757Y263522D01*
X1178538Y263686D01*
X1178520Y263704D01*
X1178484Y263740D01*
X1178429Y263795D01*
X1178374Y263868D01*
X1178283Y263959D01*
X1178192Y264086D01*
X1178083Y264214D01*
X1177974Y264378D01*
X1177865Y264560D01*
X1177755Y264742D01*
X1177555Y265179D01*
X1177391Y265689D01*
X1177336Y265962D01*
X1177300Y266253D01*
X1178848Y266454D01*
Y266436D01*
X1178866Y266399D01*
X1178884Y266326D01*
X1178903Y266235D01*
X1178921Y266126D01*
X1178957Y265998D01*
X1179048Y265725D01*
X1179176Y265397D01*
X1179340Y265088D01*
X1179522Y264797D01*
X1179740Y264541D01*
X1179777Y264523D01*
X1179850Y264450D01*
X1179995Y264359D01*
X1180177Y264268D01*
X1180396Y264159D01*
X1180669Y264068D01*
X1180979Y263995D01*
X1181307Y263977D01*
X1181416D01*
X1181489Y263995D01*
X1181689Y264013D01*
X1181944Y264068D01*
X1182235Y264159D01*
X1182545Y264286D01*
X1182855Y264469D01*
X1183146Y264724D01*
X1183182Y264760D01*
X1183273Y264869D01*
X1183383Y265033D01*
X1183528Y265252D01*
X1183674Y265525D01*
X1183783Y265835D01*
X1183874Y266199D01*
X1183911Y266599D01*
Y266618D01*
Y266654D01*
Y266709D01*
X1183893Y266782D01*
X1183874Y266982D01*
X1183820Y267219D01*
X1183747Y267510D01*
X1183620Y267801D01*
X1183437Y268093D01*
X1183201Y268366D01*
X1183164Y268402D01*
X1183073Y268475D01*
X1182927Y268584D01*
X1182727Y268712D01*
X1182472Y268839D01*
X1182162Y268949D01*
X1181816Y269022D01*
X1181434Y269058D01*
X1181270D01*
X1181143Y269040D01*
X1180979Y269022D01*
X1180797Y268985D01*
X1180578Y268949D01*
X1180341Y268894D01*
X1180524Y270260D01*
X1180614D01*
X1180687Y270242D01*
X1180924D01*
X1181124Y270278D01*
X1181361Y270315D01*
X1181634Y270369D01*
X1181944Y270460D01*
X1182235Y270588D01*
X1182545Y270752D01*
X1182563D01*
X1182581Y270770D01*
X1182673Y270843D01*
X1182800Y270970D01*
X1182946Y271134D01*
X1183091Y271371D01*
X1183219Y271644D01*
X1183310Y271954D01*
X1183346Y272136D01*
Y272336D01*
Y272354D01*
Y272373D01*
Y272482D01*
X1183310Y272628D01*
X1183273Y272828D01*
X1183201Y273046D01*
X1183110Y273283D01*
X1182964Y273520D01*
X1182764Y273738D01*
X1182745Y273757D01*
X1182654Y273829D01*
X1182527Y273921D01*
X1182363Y274030D01*
X1182144Y274121D01*
X1181889Y274212D01*
X1181598Y274285D01*
X1181270Y274303D01*
X1181124D01*
X1180961Y274267D01*
X1180742Y274230D01*
X1180505Y274157D01*
X1180268Y274066D01*
X1180014Y273921D01*
X1179777Y273738D01*
X1179759Y273720D01*
X1179686Y273629D01*
X1179576Y273502D01*
X1179449Y273320D01*
X1179322Y273083D01*
X1179194Y272792D01*
X1179085Y272445D01*
X1179012Y272045D01*
X1177464Y272318D01*
Y272336D01*
X1177482Y272391D01*
X1177500Y272464D01*
X1177518Y272573D01*
X1177555Y272700D01*
X1177610Y272846D01*
X1177719Y273192D01*
X1177901Y273593D01*
X1178120Y273993D01*
X1178393Y274376D01*
X1178739Y274722D01*
X1178757Y274740D01*
X1178793Y274758D01*
X1178848Y274795D01*
X1178921Y274849D01*
X1179012Y274922D01*
X1179139Y274995D01*
X1179267Y275068D01*
X1179431Y275159D01*
X1179795Y275305D01*
X1180214Y275450D01*
X1180706Y275541D01*
X1180961Y275578D01*
X1181416D01*
X1181616Y275560D01*
D02*
G37*
G36*
X601616Y766539D02*
X601853Y766503D01*
X602144Y766448D01*
X602472Y766357D01*
X602800Y766248D01*
X603128Y766102D01*
X603146D01*
X603164Y766084D01*
X603274Y766029D01*
X603437Y765920D01*
X603619Y765792D01*
X603838Y765610D01*
X604057Y765410D01*
X604275Y765173D01*
X604457Y764900D01*
X604475Y764864D01*
X604530Y764772D01*
X604603Y764609D01*
X604694Y764408D01*
X604785Y764171D01*
X604858Y763898D01*
X604912Y763589D01*
X604931Y763279D01*
Y763243D01*
Y763133D01*
X604912Y762988D01*
X604876Y762787D01*
X604822Y762551D01*
X604730Y762296D01*
X604621Y762041D01*
X604475Y761786D01*
X604457Y761749D01*
X604403Y761676D01*
X604293Y761549D01*
X604148Y761403D01*
X603965Y761239D01*
X603747Y761057D01*
X603492Y760893D01*
X603182Y760729D01*
X603201D01*
X603237Y760711D01*
X603292Y760693D01*
X603364Y760675D01*
X603565Y760602D01*
X603820Y760493D01*
X604111Y760347D01*
X604403Y760165D01*
X604676Y759928D01*
X604931Y759655D01*
X604949Y759619D01*
X605022Y759509D01*
X605131Y759327D01*
X605240Y759090D01*
X605350Y758799D01*
X605459Y758453D01*
X605532Y758052D01*
X605550Y757615D01*
Y757597D01*
Y757542D01*
Y757451D01*
X605532Y757342D01*
X605513Y757196D01*
X605477Y757032D01*
X605441Y756850D01*
X605404Y756650D01*
X605259Y756213D01*
X605149Y755976D01*
X605040Y755758D01*
X604894Y755521D01*
X604730Y755284D01*
X604548Y755047D01*
X604330Y754829D01*
X604311Y754811D01*
X604275Y754774D01*
X604202Y754719D01*
X604111Y754647D01*
X604002Y754556D01*
X603856Y754465D01*
X603692Y754355D01*
X603492Y754264D01*
X603292Y754155D01*
X603055Y754046D01*
X602818Y753955D01*
X602545Y753864D01*
X602254Y753791D01*
X601944Y753736D01*
X601634Y753700D01*
X601288Y753681D01*
X601124D01*
X601015Y753700D01*
X600869Y753718D01*
X600706Y753736D01*
X600523Y753773D01*
X600323Y753809D01*
X599886Y753918D01*
X599431Y754100D01*
X599194Y754210D01*
X598975Y754337D01*
X598757Y754501D01*
X598538Y754665D01*
X598520Y754683D01*
X598484Y754719D01*
X598429Y754774D01*
X598374Y754847D01*
X598283Y754938D01*
X598192Y755066D01*
X598083Y755193D01*
X597974Y755357D01*
X597865Y755539D01*
X597755Y755721D01*
X597555Y756158D01*
X597391Y756668D01*
X597336Y756941D01*
X597300Y757233D01*
X598848Y757433D01*
Y757415D01*
X598866Y757378D01*
X598884Y757306D01*
X598903Y757215D01*
X598921Y757105D01*
X598957Y756978D01*
X599048Y756705D01*
X599176Y756377D01*
X599340Y756067D01*
X599522Y755776D01*
X599740Y755521D01*
X599777Y755503D01*
X599850Y755430D01*
X599995Y755339D01*
X600177Y755248D01*
X600396Y755138D01*
X600669Y755047D01*
X600979Y754975D01*
X601307Y754956D01*
X601416D01*
X601489Y754975D01*
X601689Y754993D01*
X601944Y755047D01*
X602235Y755138D01*
X602545Y755266D01*
X602855Y755448D01*
X603146Y755703D01*
X603182Y755739D01*
X603274Y755849D01*
X603383Y756013D01*
X603528Y756231D01*
X603674Y756504D01*
X603783Y756814D01*
X603875Y757178D01*
X603911Y757579D01*
Y757597D01*
Y757633D01*
Y757688D01*
X603893Y757761D01*
X603875Y757961D01*
X603820Y758198D01*
X603747Y758489D01*
X603619Y758781D01*
X603437Y759072D01*
X603201Y759345D01*
X603164Y759382D01*
X603073Y759455D01*
X602927Y759564D01*
X602727Y759691D01*
X602472Y759819D01*
X602163Y759928D01*
X601816Y760001D01*
X601434Y760037D01*
X601270D01*
X601143Y760019D01*
X600979Y760001D01*
X600797Y759965D01*
X600578Y759928D01*
X600341Y759874D01*
X600523Y761239D01*
X600615D01*
X600687Y761221D01*
X600924D01*
X601124Y761258D01*
X601361Y761294D01*
X601634Y761349D01*
X601944Y761440D01*
X602235Y761567D01*
X602545Y761731D01*
X602563D01*
X602581Y761749D01*
X602673Y761822D01*
X602800Y761950D01*
X602946Y762113D01*
X603091Y762350D01*
X603219Y762623D01*
X603310Y762933D01*
X603346Y763115D01*
Y763316D01*
Y763334D01*
Y763352D01*
Y763461D01*
X603310Y763607D01*
X603274Y763807D01*
X603201Y764026D01*
X603110Y764262D01*
X602964Y764499D01*
X602763Y764718D01*
X602745Y764736D01*
X602654Y764809D01*
X602527Y764900D01*
X602363Y765009D01*
X602144Y765100D01*
X601889Y765191D01*
X601598Y765264D01*
X601270Y765282D01*
X601124D01*
X600961Y765246D01*
X600742Y765210D01*
X600505Y765137D01*
X600269Y765046D01*
X600014Y764900D01*
X599777Y764718D01*
X599759Y764700D01*
X599686Y764609D01*
X599576Y764481D01*
X599449Y764299D01*
X599322Y764062D01*
X599194Y763771D01*
X599085Y763425D01*
X599012Y763024D01*
X597464Y763297D01*
Y763316D01*
X597482Y763370D01*
X597500Y763443D01*
X597519Y763552D01*
X597555Y763680D01*
X597610Y763825D01*
X597719Y764171D01*
X597901Y764572D01*
X598120Y764973D01*
X598393Y765355D01*
X598739Y765701D01*
X598757Y765719D01*
X598793Y765738D01*
X598848Y765774D01*
X598921Y765829D01*
X599012Y765902D01*
X599139Y765974D01*
X599267Y766047D01*
X599431Y766138D01*
X599795Y766284D01*
X600214Y766430D01*
X600706Y766521D01*
X600961Y766557D01*
X601416D01*
X601616Y766539D01*
D02*
G37*
G36*
X616459D02*
X616696Y766503D01*
X616969Y766448D01*
X617260Y766375D01*
X617570Y766284D01*
X617861Y766138D01*
X617879D01*
X617897Y766120D01*
X617989Y766066D01*
X618134Y765974D01*
X618316Y765847D01*
X618517Y765665D01*
X618735Y765464D01*
X618936Y765228D01*
X619136Y764955D01*
X619154Y764918D01*
X619227Y764827D01*
X619300Y764663D01*
X619427Y764426D01*
X619537Y764153D01*
X619682Y763844D01*
X619810Y763479D01*
X619919Y763079D01*
Y763061D01*
X619937Y763024D01*
X619955Y762970D01*
X619974Y762878D01*
X619992Y762769D01*
X620010Y762642D01*
X620047Y762478D01*
X620065Y762296D01*
X620101Y762095D01*
X620119Y761877D01*
X620138Y761622D01*
X620174Y761367D01*
X620192Y761075D01*
Y760784D01*
X620210Y760456D01*
Y760110D01*
Y760092D01*
Y760019D01*
Y759892D01*
Y759746D01*
X620192Y759546D01*
Y759327D01*
X620174Y759090D01*
X620156Y758835D01*
X620101Y758253D01*
X620010Y757652D01*
X619901Y757069D01*
X619828Y756796D01*
X619737Y756523D01*
Y756504D01*
X619719Y756468D01*
X619682Y756395D01*
X619646Y756304D01*
X619609Y756177D01*
X619537Y756049D01*
X619391Y755739D01*
X619209Y755412D01*
X618972Y755047D01*
X618699Y754719D01*
X618371Y754410D01*
X618353D01*
X618335Y754373D01*
X618280Y754337D01*
X618207Y754301D01*
X618116Y754246D01*
X618025Y754173D01*
X617752Y754046D01*
X617424Y753918D01*
X617042Y753791D01*
X616586Y753718D01*
X616095Y753681D01*
X615913D01*
X615785Y753700D01*
X615639Y753718D01*
X615457Y753754D01*
X615257Y753791D01*
X615038Y753845D01*
X614820Y753918D01*
X614583Y753991D01*
X614346Y754100D01*
X614109Y754228D01*
X613873Y754373D01*
X613636Y754556D01*
X613417Y754756D01*
X613217Y754975D01*
X613199Y754993D01*
X613162Y755047D01*
X613108Y755138D01*
X613017Y755284D01*
X612926Y755448D01*
X612835Y755667D01*
X612707Y755921D01*
X612598Y756213D01*
X612489Y756541D01*
X612379Y756923D01*
X612270Y757342D01*
X612179Y757815D01*
X612088Y758326D01*
X612033Y758872D01*
X611997Y759473D01*
X611979Y760110D01*
Y760128D01*
Y760201D01*
Y760329D01*
Y760474D01*
X611997Y760675D01*
Y760893D01*
X612015Y761130D01*
X612033Y761403D01*
X612088Y761968D01*
X612179Y762569D01*
X612288Y763170D01*
X612361Y763443D01*
X612434Y763716D01*
Y763734D01*
X612452Y763771D01*
X612489Y763844D01*
X612525Y763935D01*
X612561Y764062D01*
X612634Y764190D01*
X612780Y764499D01*
X612962Y764827D01*
X613199Y765173D01*
X613472Y765519D01*
X613800Y765810D01*
X613818D01*
X613836Y765847D01*
X613891Y765883D01*
X613964Y765920D01*
X614055Y765993D01*
X614164Y766047D01*
X614437Y766193D01*
X614765Y766320D01*
X615148Y766448D01*
X615603Y766521D01*
X616095Y766557D01*
X616259D01*
X616459Y766539D01*
D02*
G37*
G36*
X609684Y753900D02*
Y753882D01*
Y753864D01*
Y753809D01*
Y753736D01*
X609666Y753572D01*
X609648Y753335D01*
X609593Y753099D01*
X609538Y752825D01*
X609447Y752570D01*
X609338Y752334D01*
X609320Y752316D01*
X609265Y752243D01*
X609192Y752133D01*
X609065Y751988D01*
X608919Y751842D01*
X608737Y751696D01*
X608500Y751533D01*
X608245Y751405D01*
X607808Y752061D01*
X607826Y752079D01*
X607881Y752097D01*
X607972Y752152D01*
X608081Y752225D01*
X608191Y752316D01*
X608318Y752425D01*
X608427Y752552D01*
X608518Y752698D01*
X608537Y752716D01*
X608555Y752771D01*
X608591Y752880D01*
X608646Y753008D01*
X608682Y753171D01*
X608737Y753390D01*
X608773Y753627D01*
X608792Y753900D01*
X607918D01*
Y755667D01*
X609684D01*
Y753900D01*
D02*
G37*
G36*
X1188684Y754921D02*
Y754902D01*
Y754884D01*
Y754830D01*
Y754757D01*
X1188666Y754593D01*
X1188648Y754356D01*
X1188593Y754119D01*
X1188538Y753846D01*
X1188447Y753591D01*
X1188338Y753354D01*
X1188320Y753336D01*
X1188265Y753263D01*
X1188192Y753154D01*
X1188065Y753008D01*
X1187919Y752863D01*
X1187737Y752717D01*
X1187500Y752553D01*
X1187245Y752426D01*
X1186808Y753081D01*
X1186826Y753100D01*
X1186881Y753118D01*
X1186972Y753172D01*
X1187081Y753245D01*
X1187191Y753336D01*
X1187318Y753446D01*
X1187427Y753573D01*
X1187518Y753719D01*
X1187537Y753737D01*
X1187555Y753792D01*
X1187591Y753901D01*
X1187646Y754028D01*
X1187682Y754192D01*
X1187737Y754411D01*
X1187773Y754648D01*
X1187792Y754921D01*
X1186917D01*
Y756687D01*
X1188684D01*
Y754921D01*
D02*
G37*
G36*
X609684Y263921D02*
Y263902D01*
Y263884D01*
Y263830D01*
Y263757D01*
X609666Y263593D01*
X609648Y263356D01*
X609593Y263119D01*
X609538Y262846D01*
X609447Y262591D01*
X609338Y262355D01*
X609320Y262336D01*
X609265Y262263D01*
X609192Y262154D01*
X609065Y262008D01*
X608919Y261863D01*
X608737Y261717D01*
X608500Y261553D01*
X608245Y261426D01*
X607808Y262081D01*
X607826Y262099D01*
X607881Y262118D01*
X607972Y262172D01*
X608081Y262245D01*
X608191Y262336D01*
X608318Y262446D01*
X608427Y262573D01*
X608518Y262719D01*
X608537Y262737D01*
X608555Y262792D01*
X608591Y262901D01*
X608646Y263028D01*
X608682Y263192D01*
X608737Y263411D01*
X608773Y263647D01*
X608792Y263921D01*
X607918D01*
Y265687D01*
X609684D01*
Y263921D01*
D02*
G37*
G36*
X1180616Y767560D02*
X1180853Y767523D01*
X1181144Y767469D01*
X1181472Y767377D01*
X1181800Y767268D01*
X1182128Y767123D01*
X1182146D01*
X1182164Y767104D01*
X1182273Y767050D01*
X1182437Y766941D01*
X1182619Y766813D01*
X1182838Y766631D01*
X1183057Y766431D01*
X1183275Y766194D01*
X1183457Y765921D01*
X1183475Y765884D01*
X1183530Y765793D01*
X1183603Y765629D01*
X1183694Y765429D01*
X1183785Y765192D01*
X1183858Y764919D01*
X1183913Y764609D01*
X1183931Y764300D01*
Y764263D01*
Y764154D01*
X1183913Y764008D01*
X1183876Y763808D01*
X1183821Y763571D01*
X1183730Y763316D01*
X1183621Y763061D01*
X1183475Y762806D01*
X1183457Y762770D01*
X1183403Y762697D01*
X1183293Y762570D01*
X1183148Y762424D01*
X1182965Y762260D01*
X1182747Y762078D01*
X1182492Y761914D01*
X1182182Y761750D01*
X1182201D01*
X1182237Y761732D01*
X1182292Y761714D01*
X1182365Y761695D01*
X1182565Y761623D01*
X1182820Y761513D01*
X1183111Y761368D01*
X1183403Y761186D01*
X1183676Y760949D01*
X1183931Y760676D01*
X1183949Y760639D01*
X1184022Y760530D01*
X1184131Y760348D01*
X1184240Y760111D01*
X1184350Y759820D01*
X1184459Y759474D01*
X1184532Y759073D01*
X1184550Y758636D01*
Y758618D01*
Y758563D01*
Y758472D01*
X1184532Y758363D01*
X1184513Y758217D01*
X1184477Y758053D01*
X1184441Y757871D01*
X1184404Y757671D01*
X1184258Y757234D01*
X1184149Y756997D01*
X1184040Y756778D01*
X1183894Y756542D01*
X1183730Y756305D01*
X1183548Y756068D01*
X1183330Y755850D01*
X1183311Y755831D01*
X1183275Y755795D01*
X1183202Y755740D01*
X1183111Y755667D01*
X1183002Y755576D01*
X1182856Y755485D01*
X1182692Y755376D01*
X1182492Y755285D01*
X1182292Y755176D01*
X1182055Y755066D01*
X1181818Y754975D01*
X1181545Y754884D01*
X1181254Y754811D01*
X1180944Y754757D01*
X1180634Y754720D01*
X1180288Y754702D01*
X1180125D01*
X1180015Y754720D01*
X1179870Y754738D01*
X1179706Y754757D01*
X1179523Y754793D01*
X1179323Y754830D01*
X1178886Y754939D01*
X1178431Y755121D01*
X1178194Y755230D01*
X1177975Y755358D01*
X1177757Y755522D01*
X1177538Y755686D01*
X1177520Y755704D01*
X1177484Y755740D01*
X1177429Y755795D01*
X1177374Y755868D01*
X1177283Y755959D01*
X1177192Y756086D01*
X1177083Y756214D01*
X1176974Y756378D01*
X1176864Y756560D01*
X1176755Y756742D01*
X1176555Y757179D01*
X1176391Y757689D01*
X1176336Y757962D01*
X1176300Y758253D01*
X1177848Y758454D01*
Y758436D01*
X1177866Y758399D01*
X1177884Y758326D01*
X1177903Y758235D01*
X1177921Y758126D01*
X1177957Y757999D01*
X1178048Y757725D01*
X1178176Y757398D01*
X1178340Y757088D01*
X1178522Y756796D01*
X1178740Y756542D01*
X1178777Y756523D01*
X1178850Y756451D01*
X1178995Y756359D01*
X1179177Y756268D01*
X1179396Y756159D01*
X1179669Y756068D01*
X1179979Y755995D01*
X1180307Y755977D01*
X1180416D01*
X1180489Y755995D01*
X1180689Y756013D01*
X1180944Y756068D01*
X1181235Y756159D01*
X1181545Y756286D01*
X1181855Y756469D01*
X1182146Y756724D01*
X1182182Y756760D01*
X1182273Y756869D01*
X1182383Y757033D01*
X1182528Y757252D01*
X1182674Y757525D01*
X1182783Y757835D01*
X1182874Y758199D01*
X1182911Y758599D01*
Y758618D01*
Y758654D01*
Y758709D01*
X1182893Y758782D01*
X1182874Y758982D01*
X1182820Y759219D01*
X1182747Y759510D01*
X1182619Y759801D01*
X1182437Y760093D01*
X1182201Y760366D01*
X1182164Y760402D01*
X1182073Y760475D01*
X1181927Y760584D01*
X1181727Y760712D01*
X1181472Y760839D01*
X1181162Y760949D01*
X1180816Y761022D01*
X1180434Y761058D01*
X1180270D01*
X1180143Y761040D01*
X1179979Y761022D01*
X1179797Y760985D01*
X1179578Y760949D01*
X1179341Y760894D01*
X1179523Y762260D01*
X1179614D01*
X1179687Y762242D01*
X1179924D01*
X1180125Y762278D01*
X1180361Y762315D01*
X1180634Y762369D01*
X1180944Y762460D01*
X1181235Y762588D01*
X1181545Y762752D01*
X1181563D01*
X1181581Y762770D01*
X1181673Y762843D01*
X1181800Y762970D01*
X1181946Y763134D01*
X1182091Y763371D01*
X1182219Y763644D01*
X1182310Y763954D01*
X1182346Y764136D01*
Y764336D01*
Y764354D01*
Y764373D01*
Y764482D01*
X1182310Y764628D01*
X1182273Y764828D01*
X1182201Y765046D01*
X1182110Y765283D01*
X1181964Y765520D01*
X1181764Y765739D01*
X1181745Y765757D01*
X1181654Y765829D01*
X1181527Y765921D01*
X1181363Y766030D01*
X1181144Y766121D01*
X1180889Y766212D01*
X1180598Y766285D01*
X1180270Y766303D01*
X1180125D01*
X1179961Y766267D01*
X1179742Y766230D01*
X1179505Y766157D01*
X1179268Y766066D01*
X1179014Y765921D01*
X1178777Y765739D01*
X1178759Y765720D01*
X1178686Y765629D01*
X1178577Y765502D01*
X1178449Y765320D01*
X1178322Y765083D01*
X1178194Y764791D01*
X1178085Y764445D01*
X1178012Y764045D01*
X1176464Y764318D01*
Y764336D01*
X1176482Y764391D01*
X1176500Y764464D01*
X1176518Y764573D01*
X1176555Y764700D01*
X1176610Y764846D01*
X1176719Y765192D01*
X1176901Y765593D01*
X1177120Y765993D01*
X1177393Y766376D01*
X1177739Y766722D01*
X1177757Y766740D01*
X1177793Y766758D01*
X1177848Y766795D01*
X1177921Y766849D01*
X1178012Y766922D01*
X1178139Y766995D01*
X1178267Y767068D01*
X1178431Y767159D01*
X1178795Y767305D01*
X1179214Y767450D01*
X1179706Y767541D01*
X1179961Y767578D01*
X1180416D01*
X1180616Y767560D01*
D02*
G37*
G36*
X1195459D02*
X1195696Y767523D01*
X1195969Y767469D01*
X1196260Y767396D01*
X1196570Y767305D01*
X1196861Y767159D01*
X1196879D01*
X1196898Y767141D01*
X1196989Y767086D01*
X1197134Y766995D01*
X1197316Y766868D01*
X1197517Y766685D01*
X1197735Y766485D01*
X1197936Y766248D01*
X1198136Y765975D01*
X1198154Y765939D01*
X1198227Y765848D01*
X1198300Y765684D01*
X1198427Y765447D01*
X1198537Y765174D01*
X1198682Y764864D01*
X1198810Y764500D01*
X1198919Y764099D01*
Y764081D01*
X1198937Y764045D01*
X1198956Y763990D01*
X1198974Y763899D01*
X1198992Y763790D01*
X1199010Y763662D01*
X1199046Y763498D01*
X1199065Y763316D01*
X1199101Y763116D01*
X1199119Y762897D01*
X1199138Y762643D01*
X1199174Y762387D01*
X1199192Y762096D01*
Y761805D01*
X1199210Y761477D01*
Y761131D01*
Y761113D01*
Y761040D01*
Y760912D01*
Y760767D01*
X1199192Y760566D01*
Y760348D01*
X1199174Y760111D01*
X1199156Y759856D01*
X1199101Y759273D01*
X1199010Y758672D01*
X1198901Y758090D01*
X1198828Y757816D01*
X1198737Y757543D01*
Y757525D01*
X1198719Y757488D01*
X1198682Y757416D01*
X1198646Y757325D01*
X1198609Y757197D01*
X1198537Y757070D01*
X1198391Y756760D01*
X1198209Y756432D01*
X1197972Y756068D01*
X1197699Y755740D01*
X1197371Y755431D01*
X1197353D01*
X1197335Y755394D01*
X1197280Y755358D01*
X1197207Y755321D01*
X1197116Y755267D01*
X1197025Y755194D01*
X1196752Y755066D01*
X1196424Y754939D01*
X1196042Y754811D01*
X1195586Y754738D01*
X1195095Y754702D01*
X1194912D01*
X1194785Y754720D01*
X1194639Y754738D01*
X1194457Y754775D01*
X1194257Y754811D01*
X1194038Y754866D01*
X1193820Y754939D01*
X1193583Y755012D01*
X1193346Y755121D01*
X1193110Y755248D01*
X1192873Y755394D01*
X1192636Y755576D01*
X1192417Y755777D01*
X1192217Y755995D01*
X1192199Y756013D01*
X1192162Y756068D01*
X1192108Y756159D01*
X1192017Y756305D01*
X1191926Y756469D01*
X1191835Y756687D01*
X1191707Y756942D01*
X1191598Y757234D01*
X1191489Y757561D01*
X1191379Y757944D01*
X1191270Y758363D01*
X1191179Y758836D01*
X1191088Y759346D01*
X1191033Y759893D01*
X1190997Y760493D01*
X1190979Y761131D01*
Y761149D01*
Y761222D01*
Y761349D01*
Y761495D01*
X1190997Y761695D01*
Y761914D01*
X1191015Y762151D01*
X1191033Y762424D01*
X1191088Y762989D01*
X1191179Y763589D01*
X1191288Y764191D01*
X1191361Y764464D01*
X1191434Y764737D01*
Y764755D01*
X1191452Y764791D01*
X1191489Y764864D01*
X1191525Y764955D01*
X1191562Y765083D01*
X1191634Y765210D01*
X1191780Y765520D01*
X1191962Y765848D01*
X1192199Y766194D01*
X1192472Y766540D01*
X1192800Y766831D01*
X1192818D01*
X1192836Y766868D01*
X1192891Y766904D01*
X1192964Y766941D01*
X1193055Y767013D01*
X1193164Y767068D01*
X1193437Y767214D01*
X1193765Y767341D01*
X1194147Y767469D01*
X1194603Y767541D01*
X1195095Y767578D01*
X1195258D01*
X1195459Y767560D01*
D02*
G37*
G36*
X48616Y636539D02*
X48853Y636503D01*
X49144Y636448D01*
X49472Y636357D01*
X49800Y636248D01*
X50128Y636102D01*
X50146D01*
X50164Y636084D01*
X50273Y636029D01*
X50437Y635920D01*
X50620Y635792D01*
X50838Y635610D01*
X51057Y635410D01*
X51275Y635173D01*
X51457Y634900D01*
X51475Y634864D01*
X51530Y634772D01*
X51603Y634608D01*
X51694Y634408D01*
X51785Y634171D01*
X51858Y633898D01*
X51912Y633589D01*
X51931Y633279D01*
Y633243D01*
Y633133D01*
X51912Y632988D01*
X51876Y632787D01*
X51821Y632551D01*
X51730Y632296D01*
X51621Y632041D01*
X51475Y631786D01*
X51457Y631749D01*
X51403Y631676D01*
X51293Y631549D01*
X51148Y631403D01*
X50965Y631239D01*
X50747Y631057D01*
X50492Y630893D01*
X50182Y630729D01*
X50201D01*
X50237Y630711D01*
X50292Y630693D01*
X50364Y630675D01*
X50565Y630602D01*
X50820Y630493D01*
X51111Y630347D01*
X51403Y630165D01*
X51676Y629928D01*
X51931Y629655D01*
X51949Y629618D01*
X52022Y629509D01*
X52131Y629327D01*
X52240Y629090D01*
X52350Y628799D01*
X52459Y628453D01*
X52532Y628052D01*
X52550Y627615D01*
Y627597D01*
Y627542D01*
Y627451D01*
X52532Y627342D01*
X52513Y627196D01*
X52477Y627032D01*
X52441Y626850D01*
X52404Y626650D01*
X52259Y626213D01*
X52149Y625976D01*
X52040Y625758D01*
X51894Y625521D01*
X51730Y625284D01*
X51548Y625047D01*
X51330Y624829D01*
X51311Y624811D01*
X51275Y624774D01*
X51202Y624720D01*
X51111Y624647D01*
X51002Y624556D01*
X50856Y624465D01*
X50692Y624355D01*
X50492Y624264D01*
X50292Y624155D01*
X50055Y624046D01*
X49818Y623955D01*
X49545Y623864D01*
X49254Y623791D01*
X48944Y623736D01*
X48634Y623700D01*
X48288Y623681D01*
X48124D01*
X48015Y623700D01*
X47870Y623718D01*
X47706Y623736D01*
X47523Y623773D01*
X47323Y623809D01*
X46886Y623918D01*
X46431Y624100D01*
X46194Y624210D01*
X45975Y624337D01*
X45757Y624501D01*
X45538Y624665D01*
X45520Y624683D01*
X45484Y624720D01*
X45429Y624774D01*
X45374Y624847D01*
X45283Y624938D01*
X45192Y625066D01*
X45083Y625193D01*
X44974Y625357D01*
X44865Y625539D01*
X44755Y625721D01*
X44555Y626158D01*
X44391Y626668D01*
X44336Y626941D01*
X44300Y627233D01*
X45848Y627433D01*
Y627415D01*
X45866Y627379D01*
X45884Y627306D01*
X45903Y627215D01*
X45921Y627105D01*
X45957Y626978D01*
X46048Y626705D01*
X46176Y626377D01*
X46340Y626067D01*
X46522Y625776D01*
X46740Y625521D01*
X46777Y625503D01*
X46850Y625430D01*
X46995Y625339D01*
X47178Y625248D01*
X47396Y625138D01*
X47669Y625047D01*
X47979Y624975D01*
X48307Y624956D01*
X48416D01*
X48489Y624975D01*
X48689Y624993D01*
X48944Y625047D01*
X49235Y625138D01*
X49545Y625266D01*
X49855Y625448D01*
X50146Y625703D01*
X50182Y625739D01*
X50273Y625849D01*
X50383Y626013D01*
X50528Y626231D01*
X50674Y626504D01*
X50783Y626814D01*
X50874Y627178D01*
X50911Y627579D01*
Y627597D01*
Y627633D01*
Y627688D01*
X50893Y627761D01*
X50874Y627961D01*
X50820Y628198D01*
X50747Y628489D01*
X50620Y628781D01*
X50437Y629072D01*
X50201Y629345D01*
X50164Y629382D01*
X50073Y629455D01*
X49927Y629564D01*
X49727Y629691D01*
X49472Y629819D01*
X49163Y629928D01*
X48816Y630001D01*
X48434Y630037D01*
X48270D01*
X48143Y630019D01*
X47979Y630001D01*
X47797Y629964D01*
X47578Y629928D01*
X47341Y629874D01*
X47523Y631239D01*
X47614D01*
X47687Y631221D01*
X47924D01*
X48124Y631258D01*
X48361Y631294D01*
X48634Y631349D01*
X48944Y631440D01*
X49235Y631567D01*
X49545Y631731D01*
X49563D01*
X49581Y631749D01*
X49672Y631822D01*
X49800Y631950D01*
X49946Y632113D01*
X50091Y632350D01*
X50219Y632623D01*
X50310Y632933D01*
X50346Y633115D01*
Y633316D01*
Y633334D01*
Y633352D01*
Y633461D01*
X50310Y633607D01*
X50273Y633807D01*
X50201Y634026D01*
X50110Y634263D01*
X49964Y634499D01*
X49763Y634718D01*
X49745Y634736D01*
X49654Y634809D01*
X49527Y634900D01*
X49363Y635009D01*
X49144Y635100D01*
X48889Y635191D01*
X48598Y635264D01*
X48270Y635282D01*
X48124D01*
X47961Y635246D01*
X47742Y635210D01*
X47505Y635137D01*
X47269Y635046D01*
X47014Y634900D01*
X46777Y634718D01*
X46759Y634700D01*
X46686Y634608D01*
X46576Y634481D01*
X46449Y634299D01*
X46322Y634062D01*
X46194Y633771D01*
X46085Y633425D01*
X46012Y633024D01*
X44464Y633297D01*
Y633316D01*
X44482Y633370D01*
X44500Y633443D01*
X44518Y633552D01*
X44555Y633680D01*
X44610Y633825D01*
X44719Y634171D01*
X44901Y634572D01*
X45120Y634973D01*
X45393Y635355D01*
X45739Y635701D01*
X45757Y635719D01*
X45793Y635738D01*
X45848Y635774D01*
X45921Y635829D01*
X46012Y635902D01*
X46139Y635974D01*
X46267Y636047D01*
X46431Y636138D01*
X46795Y636284D01*
X47214Y636430D01*
X47706Y636521D01*
X47961Y636557D01*
X48416D01*
X48616Y636539D01*
D02*
G37*
G36*
X63459D02*
X63696Y636503D01*
X63969Y636448D01*
X64260Y636375D01*
X64570Y636284D01*
X64861Y636138D01*
X64879D01*
X64897Y636120D01*
X64989Y636065D01*
X65134Y635974D01*
X65316Y635847D01*
X65517Y635665D01*
X65735Y635465D01*
X65936Y635228D01*
X66136Y634955D01*
X66154Y634918D01*
X66227Y634827D01*
X66300Y634663D01*
X66427Y634426D01*
X66537Y634153D01*
X66682Y633844D01*
X66810Y633479D01*
X66919Y633079D01*
Y633060D01*
X66937Y633024D01*
X66955Y632970D01*
X66974Y632878D01*
X66992Y632769D01*
X67010Y632642D01*
X67046Y632478D01*
X67065Y632296D01*
X67101Y632095D01*
X67119Y631877D01*
X67138Y631622D01*
X67174Y631367D01*
X67192Y631075D01*
Y630784D01*
X67210Y630456D01*
Y630110D01*
Y630092D01*
Y630019D01*
Y629892D01*
Y629746D01*
X67192Y629546D01*
Y629327D01*
X67174Y629090D01*
X67156Y628835D01*
X67101Y628253D01*
X67010Y627652D01*
X66901Y627069D01*
X66828Y626796D01*
X66737Y626522D01*
Y626504D01*
X66719Y626468D01*
X66682Y626395D01*
X66646Y626304D01*
X66609Y626176D01*
X66537Y626049D01*
X66391Y625739D01*
X66209Y625412D01*
X65972Y625047D01*
X65699Y624720D01*
X65371Y624410D01*
X65353D01*
X65335Y624374D01*
X65280Y624337D01*
X65207Y624301D01*
X65116Y624246D01*
X65025Y624173D01*
X64752Y624046D01*
X64424Y623918D01*
X64042Y623791D01*
X63586Y623718D01*
X63095Y623681D01*
X62912D01*
X62785Y623700D01*
X62639Y623718D01*
X62457Y623754D01*
X62257Y623791D01*
X62038Y623845D01*
X61820Y623918D01*
X61583Y623991D01*
X61346Y624100D01*
X61109Y624228D01*
X60873Y624374D01*
X60636Y624556D01*
X60417Y624756D01*
X60217Y624975D01*
X60199Y624993D01*
X60163Y625047D01*
X60108Y625138D01*
X60017Y625284D01*
X59926Y625448D01*
X59835Y625667D01*
X59707Y625922D01*
X59598Y626213D01*
X59489Y626541D01*
X59379Y626923D01*
X59270Y627342D01*
X59179Y627816D01*
X59088Y628326D01*
X59033Y628872D01*
X58997Y629473D01*
X58979Y630110D01*
Y630128D01*
Y630201D01*
Y630329D01*
Y630475D01*
X58997Y630675D01*
Y630893D01*
X59015Y631130D01*
X59033Y631403D01*
X59088Y631968D01*
X59179Y632569D01*
X59288Y633170D01*
X59361Y633443D01*
X59434Y633716D01*
Y633734D01*
X59452Y633771D01*
X59489Y633844D01*
X59525Y633935D01*
X59562Y634062D01*
X59634Y634190D01*
X59780Y634499D01*
X59962Y634827D01*
X60199Y635173D01*
X60472Y635519D01*
X60800Y635811D01*
X60818D01*
X60836Y635847D01*
X60891Y635883D01*
X60964Y635920D01*
X61055Y635993D01*
X61164Y636047D01*
X61437Y636193D01*
X61765Y636320D01*
X62148Y636448D01*
X62603Y636521D01*
X63095Y636557D01*
X63259D01*
X63459Y636539D01*
D02*
G37*
G36*
X56684Y623900D02*
Y623882D01*
Y623864D01*
Y623809D01*
Y623736D01*
X56666Y623572D01*
X56648Y623335D01*
X56593Y623099D01*
X56538Y622826D01*
X56447Y622570D01*
X56338Y622334D01*
X56320Y622316D01*
X56265Y622243D01*
X56192Y622133D01*
X56065Y621988D01*
X55919Y621842D01*
X55737Y621696D01*
X55500Y621533D01*
X55245Y621405D01*
X54808Y622061D01*
X54826Y622079D01*
X54881Y622097D01*
X54972Y622152D01*
X55081Y622225D01*
X55191Y622316D01*
X55318Y622425D01*
X55427Y622552D01*
X55518Y622698D01*
X55537Y622716D01*
X55555Y622771D01*
X55591Y622880D01*
X55646Y623008D01*
X55682Y623172D01*
X55737Y623390D01*
X55773Y623627D01*
X55792Y623900D01*
X54917D01*
Y625667D01*
X56684D01*
Y623900D01*
D02*
G37*
G36*
X48616Y46539D02*
X48853Y46502D01*
X49144Y46448D01*
X49472Y46357D01*
X49800Y46248D01*
X50128Y46102D01*
X50146D01*
X50164Y46084D01*
X50273Y46029D01*
X50437Y45920D01*
X50620Y45792D01*
X50838Y45610D01*
X51057Y45410D01*
X51275Y45173D01*
X51457Y44900D01*
X51475Y44864D01*
X51530Y44772D01*
X51603Y44608D01*
X51694Y44408D01*
X51785Y44171D01*
X51858Y43898D01*
X51912Y43589D01*
X51931Y43279D01*
Y43243D01*
Y43133D01*
X51912Y42988D01*
X51876Y42787D01*
X51821Y42551D01*
X51730Y42296D01*
X51621Y42041D01*
X51475Y41786D01*
X51457Y41749D01*
X51403Y41676D01*
X51293Y41549D01*
X51148Y41403D01*
X50965Y41239D01*
X50747Y41057D01*
X50492Y40893D01*
X50182Y40729D01*
X50201D01*
X50237Y40711D01*
X50292Y40693D01*
X50364Y40675D01*
X50565Y40602D01*
X50820Y40493D01*
X51111Y40347D01*
X51403Y40165D01*
X51676Y39928D01*
X51931Y39655D01*
X51949Y39618D01*
X52022Y39509D01*
X52131Y39327D01*
X52240Y39090D01*
X52350Y38799D01*
X52459Y38453D01*
X52532Y38052D01*
X52550Y37615D01*
Y37597D01*
Y37542D01*
Y37451D01*
X52532Y37342D01*
X52513Y37196D01*
X52477Y37032D01*
X52441Y36850D01*
X52404Y36650D01*
X52259Y36213D01*
X52149Y35976D01*
X52040Y35758D01*
X51894Y35521D01*
X51730Y35284D01*
X51548Y35047D01*
X51330Y34829D01*
X51311Y34811D01*
X51275Y34774D01*
X51202Y34720D01*
X51111Y34647D01*
X51002Y34556D01*
X50856Y34464D01*
X50692Y34355D01*
X50492Y34264D01*
X50292Y34155D01*
X50055Y34046D01*
X49818Y33955D01*
X49545Y33864D01*
X49254Y33791D01*
X48944Y33736D01*
X48634Y33700D01*
X48288Y33681D01*
X48124D01*
X48015Y33700D01*
X47870Y33718D01*
X47706Y33736D01*
X47523Y33772D01*
X47323Y33809D01*
X46886Y33918D01*
X46431Y34100D01*
X46194Y34210D01*
X45975Y34337D01*
X45757Y34501D01*
X45538Y34665D01*
X45520Y34683D01*
X45484Y34720D01*
X45429Y34774D01*
X45374Y34847D01*
X45283Y34938D01*
X45192Y35066D01*
X45083Y35193D01*
X44974Y35357D01*
X44865Y35539D01*
X44755Y35721D01*
X44555Y36158D01*
X44391Y36668D01*
X44336Y36941D01*
X44300Y37233D01*
X45848Y37433D01*
Y37415D01*
X45866Y37378D01*
X45884Y37306D01*
X45903Y37215D01*
X45921Y37105D01*
X45957Y36978D01*
X46048Y36705D01*
X46176Y36377D01*
X46340Y36067D01*
X46522Y35776D01*
X46740Y35521D01*
X46777Y35503D01*
X46850Y35430D01*
X46995Y35339D01*
X47178Y35248D01*
X47396Y35138D01*
X47669Y35047D01*
X47979Y34975D01*
X48307Y34956D01*
X48416D01*
X48489Y34975D01*
X48689Y34993D01*
X48944Y35047D01*
X49235Y35138D01*
X49545Y35266D01*
X49855Y35448D01*
X50146Y35703D01*
X50182Y35739D01*
X50273Y35849D01*
X50383Y36013D01*
X50528Y36231D01*
X50674Y36504D01*
X50783Y36814D01*
X50874Y37178D01*
X50911Y37579D01*
Y37597D01*
Y37633D01*
Y37688D01*
X50893Y37761D01*
X50874Y37961D01*
X50820Y38198D01*
X50747Y38489D01*
X50620Y38781D01*
X50437Y39072D01*
X50201Y39345D01*
X50164Y39382D01*
X50073Y39455D01*
X49927Y39564D01*
X49727Y39691D01*
X49472Y39819D01*
X49163Y39928D01*
X48816Y40001D01*
X48434Y40037D01*
X48270D01*
X48143Y40019D01*
X47979Y40001D01*
X47797Y39964D01*
X47578Y39928D01*
X47341Y39873D01*
X47523Y41239D01*
X47614D01*
X47687Y41221D01*
X47924D01*
X48124Y41258D01*
X48361Y41294D01*
X48634Y41349D01*
X48944Y41440D01*
X49235Y41567D01*
X49545Y41731D01*
X49563D01*
X49581Y41749D01*
X49672Y41822D01*
X49800Y41950D01*
X49946Y42113D01*
X50091Y42350D01*
X50219Y42623D01*
X50310Y42933D01*
X50346Y43115D01*
Y43316D01*
Y43334D01*
Y43352D01*
Y43461D01*
X50310Y43607D01*
X50273Y43807D01*
X50201Y44026D01*
X50110Y44262D01*
X49964Y44499D01*
X49763Y44718D01*
X49745Y44736D01*
X49654Y44809D01*
X49527Y44900D01*
X49363Y45009D01*
X49144Y45100D01*
X48889Y45191D01*
X48598Y45264D01*
X48270Y45282D01*
X48124D01*
X47961Y45246D01*
X47742Y45209D01*
X47505Y45137D01*
X47269Y45046D01*
X47014Y44900D01*
X46777Y44718D01*
X46759Y44700D01*
X46686Y44608D01*
X46576Y44481D01*
X46449Y44299D01*
X46322Y44062D01*
X46194Y43771D01*
X46085Y43425D01*
X46012Y43024D01*
X44464Y43297D01*
Y43316D01*
X44482Y43370D01*
X44500Y43443D01*
X44518Y43552D01*
X44555Y43680D01*
X44610Y43825D01*
X44719Y44171D01*
X44901Y44572D01*
X45120Y44973D01*
X45393Y45355D01*
X45739Y45701D01*
X45757Y45719D01*
X45793Y45738D01*
X45848Y45774D01*
X45921Y45829D01*
X46012Y45902D01*
X46139Y45974D01*
X46267Y46047D01*
X46431Y46138D01*
X46795Y46284D01*
X47214Y46430D01*
X47706Y46521D01*
X47961Y46557D01*
X48416D01*
X48616Y46539D01*
D02*
G37*
G36*
X63459D02*
X63696Y46502D01*
X63969Y46448D01*
X64260Y46375D01*
X64570Y46284D01*
X64861Y46138D01*
X64879D01*
X64897Y46120D01*
X64989Y46066D01*
X65134Y45974D01*
X65316Y45847D01*
X65517Y45665D01*
X65735Y45465D01*
X65936Y45228D01*
X66136Y44955D01*
X66154Y44918D01*
X66227Y44827D01*
X66300Y44663D01*
X66427Y44426D01*
X66537Y44153D01*
X66682Y43844D01*
X66810Y43479D01*
X66919Y43079D01*
Y43060D01*
X66937Y43024D01*
X66955Y42969D01*
X66974Y42878D01*
X66992Y42769D01*
X67010Y42642D01*
X67046Y42478D01*
X67065Y42296D01*
X67101Y42095D01*
X67119Y41877D01*
X67138Y41622D01*
X67174Y41367D01*
X67192Y41075D01*
Y40784D01*
X67210Y40456D01*
Y40110D01*
Y40092D01*
Y40019D01*
Y39892D01*
Y39746D01*
X67192Y39546D01*
Y39327D01*
X67174Y39090D01*
X67156Y38835D01*
X67101Y38253D01*
X67010Y37652D01*
X66901Y37069D01*
X66828Y36796D01*
X66737Y36523D01*
Y36504D01*
X66719Y36468D01*
X66682Y36395D01*
X66646Y36304D01*
X66609Y36177D01*
X66537Y36049D01*
X66391Y35739D01*
X66209Y35412D01*
X65972Y35047D01*
X65699Y34720D01*
X65371Y34410D01*
X65353D01*
X65335Y34374D01*
X65280Y34337D01*
X65207Y34301D01*
X65116Y34246D01*
X65025Y34173D01*
X64752Y34046D01*
X64424Y33918D01*
X64042Y33791D01*
X63586Y33718D01*
X63095Y33681D01*
X62912D01*
X62785Y33700D01*
X62639Y33718D01*
X62457Y33754D01*
X62257Y33791D01*
X62038Y33845D01*
X61820Y33918D01*
X61583Y33991D01*
X61346Y34100D01*
X61109Y34228D01*
X60873Y34374D01*
X60636Y34556D01*
X60417Y34756D01*
X60217Y34975D01*
X60199Y34993D01*
X60163Y35047D01*
X60108Y35138D01*
X60017Y35284D01*
X59926Y35448D01*
X59835Y35666D01*
X59707Y35921D01*
X59598Y36213D01*
X59489Y36541D01*
X59379Y36923D01*
X59270Y37342D01*
X59179Y37815D01*
X59088Y38326D01*
X59033Y38872D01*
X58997Y39473D01*
X58979Y40110D01*
Y40128D01*
Y40201D01*
Y40329D01*
Y40474D01*
X58997Y40675D01*
Y40893D01*
X59015Y41130D01*
X59033Y41403D01*
X59088Y41968D01*
X59179Y42569D01*
X59288Y43170D01*
X59361Y43443D01*
X59434Y43716D01*
Y43734D01*
X59452Y43771D01*
X59489Y43844D01*
X59525Y43935D01*
X59562Y44062D01*
X59634Y44190D01*
X59780Y44499D01*
X59962Y44827D01*
X60199Y45173D01*
X60472Y45519D01*
X60800Y45810D01*
X60818D01*
X60836Y45847D01*
X60891Y45883D01*
X60964Y45920D01*
X61055Y45993D01*
X61164Y46047D01*
X61437Y46193D01*
X61765Y46320D01*
X62148Y46448D01*
X62603Y46521D01*
X63095Y46557D01*
X63259D01*
X63459Y46539D01*
D02*
G37*
G36*
X56684Y33900D02*
Y33882D01*
Y33864D01*
Y33809D01*
Y33736D01*
X56666Y33572D01*
X56648Y33335D01*
X56593Y33099D01*
X56538Y32826D01*
X56447Y32571D01*
X56338Y32334D01*
X56320Y32316D01*
X56265Y32243D01*
X56192Y32133D01*
X56065Y31988D01*
X55919Y31842D01*
X55737Y31696D01*
X55500Y31532D01*
X55245Y31405D01*
X54808Y32061D01*
X54826Y32079D01*
X54881Y32097D01*
X54972Y32152D01*
X55081Y32225D01*
X55191Y32316D01*
X55318Y32425D01*
X55427Y32552D01*
X55518Y32698D01*
X55537Y32716D01*
X55555Y32771D01*
X55591Y32880D01*
X55646Y33008D01*
X55682Y33172D01*
X55737Y33390D01*
X55773Y33627D01*
X55792Y33900D01*
X54917D01*
Y35666D01*
X56684D01*
Y33900D01*
D02*
G37*
G36*
X1728616Y46539D02*
X1728853Y46502D01*
X1729144Y46448D01*
X1729472Y46357D01*
X1729800Y46248D01*
X1730128Y46102D01*
X1730146D01*
X1730164Y46084D01*
X1730273Y46029D01*
X1730437Y45920D01*
X1730620Y45792D01*
X1730838Y45610D01*
X1731057Y45410D01*
X1731275Y45173D01*
X1731457Y44900D01*
X1731476Y44864D01*
X1731530Y44772D01*
X1731603Y44608D01*
X1731694Y44408D01*
X1731785Y44171D01*
X1731858Y43898D01*
X1731913Y43589D01*
X1731931Y43279D01*
Y43243D01*
Y43133D01*
X1731913Y42988D01*
X1731876Y42787D01*
X1731821Y42551D01*
X1731730Y42296D01*
X1731621Y42041D01*
X1731476Y41786D01*
X1731457Y41749D01*
X1731403Y41676D01*
X1731293Y41549D01*
X1731148Y41403D01*
X1730966Y41239D01*
X1730747Y41057D01*
X1730492Y40893D01*
X1730182Y40729D01*
X1730201D01*
X1730237Y40711D01*
X1730292Y40693D01*
X1730365Y40675D01*
X1730565Y40602D01*
X1730820Y40493D01*
X1731111Y40347D01*
X1731403Y40165D01*
X1731676Y39928D01*
X1731931Y39655D01*
X1731949Y39618D01*
X1732022Y39509D01*
X1732131Y39327D01*
X1732240Y39090D01*
X1732350Y38799D01*
X1732459Y38453D01*
X1732532Y38052D01*
X1732550Y37615D01*
Y37597D01*
Y37542D01*
Y37451D01*
X1732532Y37342D01*
X1732513Y37196D01*
X1732477Y37032D01*
X1732441Y36850D01*
X1732404Y36650D01*
X1732259Y36213D01*
X1732149Y35976D01*
X1732040Y35758D01*
X1731894Y35521D01*
X1731730Y35284D01*
X1731548Y35047D01*
X1731330Y34829D01*
X1731311Y34811D01*
X1731275Y34774D01*
X1731202Y34720D01*
X1731111Y34647D01*
X1731002Y34556D01*
X1730856Y34464D01*
X1730692Y34355D01*
X1730492Y34264D01*
X1730292Y34155D01*
X1730055Y34046D01*
X1729818Y33955D01*
X1729545Y33864D01*
X1729254Y33791D01*
X1728944Y33736D01*
X1728634Y33700D01*
X1728288Y33681D01*
X1728125D01*
X1728015Y33700D01*
X1727870Y33718D01*
X1727706Y33736D01*
X1727523Y33772D01*
X1727323Y33809D01*
X1726886Y33918D01*
X1726431Y34100D01*
X1726194Y34210D01*
X1725975Y34337D01*
X1725757Y34501D01*
X1725538Y34665D01*
X1725520Y34683D01*
X1725484Y34720D01*
X1725429Y34774D01*
X1725374Y34847D01*
X1725283Y34938D01*
X1725192Y35066D01*
X1725083Y35193D01*
X1724974Y35357D01*
X1724865Y35539D01*
X1724755Y35721D01*
X1724555Y36158D01*
X1724391Y36668D01*
X1724336Y36941D01*
X1724300Y37233D01*
X1725848Y37433D01*
Y37415D01*
X1725866Y37378D01*
X1725884Y37306D01*
X1725903Y37215D01*
X1725921Y37105D01*
X1725957Y36978D01*
X1726048Y36705D01*
X1726176Y36377D01*
X1726340Y36067D01*
X1726522Y35776D01*
X1726740Y35521D01*
X1726777Y35503D01*
X1726850Y35430D01*
X1726995Y35339D01*
X1727177Y35248D01*
X1727396Y35138D01*
X1727669Y35047D01*
X1727979Y34975D01*
X1728307Y34956D01*
X1728416D01*
X1728489Y34975D01*
X1728689Y34993D01*
X1728944Y35047D01*
X1729235Y35138D01*
X1729545Y35266D01*
X1729855Y35448D01*
X1730146Y35703D01*
X1730182Y35739D01*
X1730273Y35849D01*
X1730383Y36013D01*
X1730528Y36231D01*
X1730674Y36504D01*
X1730783Y36814D01*
X1730874Y37178D01*
X1730911Y37579D01*
Y37597D01*
Y37633D01*
Y37688D01*
X1730893Y37761D01*
X1730874Y37961D01*
X1730820Y38198D01*
X1730747Y38489D01*
X1730620Y38781D01*
X1730437Y39072D01*
X1730201Y39345D01*
X1730164Y39382D01*
X1730073Y39455D01*
X1729928Y39564D01*
X1729727Y39691D01*
X1729472Y39819D01*
X1729163Y39928D01*
X1728817Y40001D01*
X1728434Y40037D01*
X1728270D01*
X1728143Y40019D01*
X1727979Y40001D01*
X1727797Y39964D01*
X1727578Y39928D01*
X1727341Y39873D01*
X1727523Y41239D01*
X1727615D01*
X1727687Y41221D01*
X1727924D01*
X1728125Y41258D01*
X1728361Y41294D01*
X1728634Y41349D01*
X1728944Y41440D01*
X1729235Y41567D01*
X1729545Y41731D01*
X1729563D01*
X1729581Y41749D01*
X1729673Y41822D01*
X1729800Y41950D01*
X1729946Y42113D01*
X1730091Y42350D01*
X1730219Y42623D01*
X1730310Y42933D01*
X1730346Y43115D01*
Y43316D01*
Y43334D01*
Y43352D01*
Y43461D01*
X1730310Y43607D01*
X1730273Y43807D01*
X1730201Y44026D01*
X1730110Y44262D01*
X1729964Y44499D01*
X1729763Y44718D01*
X1729745Y44736D01*
X1729654Y44809D01*
X1729527Y44900D01*
X1729363Y45009D01*
X1729144Y45100D01*
X1728889Y45191D01*
X1728598Y45264D01*
X1728270Y45282D01*
X1728125D01*
X1727961Y45246D01*
X1727742Y45209D01*
X1727505Y45137D01*
X1727269Y45046D01*
X1727014Y44900D01*
X1726777Y44718D01*
X1726759Y44700D01*
X1726686Y44608D01*
X1726577Y44481D01*
X1726449Y44299D01*
X1726322Y44062D01*
X1726194Y43771D01*
X1726085Y43425D01*
X1726012Y43024D01*
X1724464Y43297D01*
Y43316D01*
X1724482Y43370D01*
X1724500Y43443D01*
X1724518Y43552D01*
X1724555Y43680D01*
X1724610Y43825D01*
X1724719Y44171D01*
X1724901Y44572D01*
X1725119Y44973D01*
X1725393Y45355D01*
X1725739Y45701D01*
X1725757Y45719D01*
X1725793Y45738D01*
X1725848Y45774D01*
X1725921Y45829D01*
X1726012Y45902D01*
X1726139Y45974D01*
X1726267Y46047D01*
X1726431Y46138D01*
X1726795Y46284D01*
X1727214Y46430D01*
X1727706Y46521D01*
X1727961Y46557D01*
X1728416D01*
X1728616Y46539D01*
D02*
G37*
G36*
X1733616Y635539D02*
X1733853Y635503D01*
X1734144Y635448D01*
X1734472Y635357D01*
X1734800Y635248D01*
X1735128Y635102D01*
X1735146D01*
X1735164Y635084D01*
X1735273Y635029D01*
X1735437Y634920D01*
X1735620Y634792D01*
X1735838Y634610D01*
X1736057Y634410D01*
X1736275Y634173D01*
X1736457Y633900D01*
X1736475Y633863D01*
X1736530Y633772D01*
X1736603Y633609D01*
X1736694Y633408D01*
X1736785Y633172D01*
X1736858Y632898D01*
X1736913Y632589D01*
X1736931Y632279D01*
Y632243D01*
Y632133D01*
X1736913Y631988D01*
X1736876Y631787D01*
X1736821Y631551D01*
X1736730Y631296D01*
X1736621Y631041D01*
X1736475Y630786D01*
X1736457Y630749D01*
X1736403Y630676D01*
X1736293Y630549D01*
X1736148Y630403D01*
X1735966Y630239D01*
X1735747Y630057D01*
X1735492Y629893D01*
X1735182Y629729D01*
X1735201D01*
X1735237Y629711D01*
X1735292Y629693D01*
X1735365Y629675D01*
X1735565Y629602D01*
X1735820Y629493D01*
X1736111Y629347D01*
X1736403Y629165D01*
X1736676Y628928D01*
X1736931Y628655D01*
X1736949Y628619D01*
X1737022Y628509D01*
X1737131Y628327D01*
X1737240Y628090D01*
X1737350Y627799D01*
X1737459Y627453D01*
X1737532Y627052D01*
X1737550Y626615D01*
Y626597D01*
Y626542D01*
Y626451D01*
X1737532Y626342D01*
X1737513Y626196D01*
X1737477Y626032D01*
X1737441Y625850D01*
X1737404Y625650D01*
X1737259Y625213D01*
X1737149Y624976D01*
X1737040Y624758D01*
X1736894Y624521D01*
X1736730Y624284D01*
X1736548Y624047D01*
X1736330Y623829D01*
X1736311Y623811D01*
X1736275Y623774D01*
X1736202Y623719D01*
X1736111Y623647D01*
X1736002Y623556D01*
X1735856Y623465D01*
X1735692Y623355D01*
X1735492Y623264D01*
X1735292Y623155D01*
X1735055Y623046D01*
X1734818Y622955D01*
X1734545Y622864D01*
X1734254Y622791D01*
X1733944Y622736D01*
X1733634Y622700D01*
X1733288Y622682D01*
X1733125D01*
X1733015Y622700D01*
X1732870Y622718D01*
X1732706Y622736D01*
X1732523Y622772D01*
X1732323Y622809D01*
X1731886Y622918D01*
X1731431Y623100D01*
X1731194Y623210D01*
X1730975Y623337D01*
X1730757Y623501D01*
X1730538Y623665D01*
X1730520Y623683D01*
X1730484Y623719D01*
X1730429Y623774D01*
X1730374Y623847D01*
X1730283Y623938D01*
X1730192Y624066D01*
X1730083Y624193D01*
X1729974Y624357D01*
X1729865Y624539D01*
X1729755Y624721D01*
X1729555Y625158D01*
X1729391Y625668D01*
X1729336Y625941D01*
X1729300Y626233D01*
X1730848Y626433D01*
Y626415D01*
X1730866Y626379D01*
X1730884Y626306D01*
X1730903Y626214D01*
X1730921Y626105D01*
X1730957Y625978D01*
X1731048Y625705D01*
X1731176Y625377D01*
X1731340Y625067D01*
X1731522Y624776D01*
X1731740Y624521D01*
X1731777Y624503D01*
X1731850Y624430D01*
X1731995Y624339D01*
X1732177Y624248D01*
X1732396Y624138D01*
X1732669Y624047D01*
X1732979Y623974D01*
X1733307Y623956D01*
X1733416D01*
X1733489Y623974D01*
X1733689Y623993D01*
X1733944Y624047D01*
X1734235Y624138D01*
X1734545Y624266D01*
X1734855Y624448D01*
X1735146Y624703D01*
X1735182Y624739D01*
X1735273Y624849D01*
X1735383Y625013D01*
X1735528Y625231D01*
X1735674Y625504D01*
X1735783Y625814D01*
X1735874Y626178D01*
X1735911Y626579D01*
Y626597D01*
Y626633D01*
Y626688D01*
X1735893Y626761D01*
X1735874Y626961D01*
X1735820Y627198D01*
X1735747Y627489D01*
X1735620Y627781D01*
X1735437Y628072D01*
X1735201Y628345D01*
X1735164Y628382D01*
X1735073Y628455D01*
X1734927Y628564D01*
X1734727Y628691D01*
X1734472Y628819D01*
X1734162Y628928D01*
X1733817Y629001D01*
X1733434Y629037D01*
X1733270D01*
X1733143Y629019D01*
X1732979Y629001D01*
X1732797Y628965D01*
X1732578Y628928D01*
X1732341Y628873D01*
X1732523Y630239D01*
X1732614D01*
X1732687Y630221D01*
X1732924D01*
X1733125Y630258D01*
X1733361Y630294D01*
X1733634Y630349D01*
X1733944Y630440D01*
X1734235Y630567D01*
X1734545Y630731D01*
X1734563D01*
X1734581Y630749D01*
X1734673Y630822D01*
X1734800Y630950D01*
X1734946Y631114D01*
X1735091Y631350D01*
X1735219Y631623D01*
X1735310Y631933D01*
X1735346Y632115D01*
Y632315D01*
Y632334D01*
Y632352D01*
Y632461D01*
X1735310Y632607D01*
X1735273Y632807D01*
X1735201Y633026D01*
X1735110Y633262D01*
X1734964Y633499D01*
X1734763Y633718D01*
X1734745Y633736D01*
X1734654Y633809D01*
X1734527Y633900D01*
X1734363Y634009D01*
X1734144Y634100D01*
X1733889Y634191D01*
X1733598Y634264D01*
X1733270Y634282D01*
X1733125D01*
X1732961Y634246D01*
X1732742Y634210D01*
X1732505Y634137D01*
X1732269Y634046D01*
X1732014Y633900D01*
X1731777Y633718D01*
X1731759Y633700D01*
X1731686Y633609D01*
X1731577Y633481D01*
X1731449Y633299D01*
X1731322Y633062D01*
X1731194Y632771D01*
X1731085Y632425D01*
X1731012Y632024D01*
X1729464Y632297D01*
Y632315D01*
X1729482Y632370D01*
X1729500Y632443D01*
X1729518Y632552D01*
X1729555Y632680D01*
X1729610Y632825D01*
X1729719Y633172D01*
X1729901Y633572D01*
X1730119Y633973D01*
X1730393Y634355D01*
X1730739Y634701D01*
X1730757Y634720D01*
X1730793Y634738D01*
X1730848Y634774D01*
X1730921Y634829D01*
X1731012Y634902D01*
X1731139Y634974D01*
X1731267Y635047D01*
X1731431Y635138D01*
X1731795Y635284D01*
X1732214Y635430D01*
X1732706Y635521D01*
X1732961Y635557D01*
X1733416D01*
X1733616Y635539D01*
D02*
G37*
G36*
X1736684Y33900D02*
Y33882D01*
Y33864D01*
Y33809D01*
Y33736D01*
X1736666Y33572D01*
X1736648Y33335D01*
X1736593Y33099D01*
X1736538Y32826D01*
X1736447Y32571D01*
X1736338Y32334D01*
X1736320Y32316D01*
X1736265Y32243D01*
X1736192Y32133D01*
X1736065Y31988D01*
X1735919Y31842D01*
X1735737Y31696D01*
X1735500Y31532D01*
X1735245Y31405D01*
X1734808Y32061D01*
X1734826Y32079D01*
X1734881Y32097D01*
X1734972Y32152D01*
X1735081Y32225D01*
X1735191Y32316D01*
X1735318Y32425D01*
X1735427Y32552D01*
X1735518Y32698D01*
X1735537Y32716D01*
X1735555Y32771D01*
X1735591Y32880D01*
X1735646Y33008D01*
X1735682Y33172D01*
X1735737Y33390D01*
X1735773Y33627D01*
X1735792Y33900D01*
X1734917D01*
Y35666D01*
X1736684D01*
Y33900D01*
D02*
G37*
G36*
X1743459Y46539D02*
X1743696Y46502D01*
X1743969Y46448D01*
X1744260Y46375D01*
X1744570Y46284D01*
X1744861Y46138D01*
X1744879D01*
X1744898Y46120D01*
X1744989Y46066D01*
X1745134Y45974D01*
X1745316Y45847D01*
X1745517Y45665D01*
X1745735Y45465D01*
X1745936Y45228D01*
X1746136Y44955D01*
X1746154Y44918D01*
X1746227Y44827D01*
X1746300Y44663D01*
X1746427Y44426D01*
X1746537Y44153D01*
X1746682Y43844D01*
X1746810Y43479D01*
X1746919Y43079D01*
Y43060D01*
X1746937Y43024D01*
X1746956Y42969D01*
X1746974Y42878D01*
X1746992Y42769D01*
X1747010Y42642D01*
X1747047Y42478D01*
X1747065Y42296D01*
X1747101Y42095D01*
X1747119Y41877D01*
X1747138Y41622D01*
X1747174Y41367D01*
X1747192Y41075D01*
Y40784D01*
X1747211Y40456D01*
Y40110D01*
Y40092D01*
Y40019D01*
Y39892D01*
Y39746D01*
X1747192Y39546D01*
Y39327D01*
X1747174Y39090D01*
X1747156Y38835D01*
X1747101Y38253D01*
X1747010Y37652D01*
X1746901Y37069D01*
X1746828Y36796D01*
X1746737Y36523D01*
Y36504D01*
X1746719Y36468D01*
X1746682Y36395D01*
X1746646Y36304D01*
X1746609Y36177D01*
X1746537Y36049D01*
X1746391Y35739D01*
X1746209Y35412D01*
X1745972Y35047D01*
X1745699Y34720D01*
X1745371Y34410D01*
X1745353D01*
X1745335Y34374D01*
X1745280Y34337D01*
X1745207Y34301D01*
X1745116Y34246D01*
X1745025Y34173D01*
X1744752Y34046D01*
X1744424Y33918D01*
X1744042Y33791D01*
X1743586Y33718D01*
X1743095Y33681D01*
X1742912D01*
X1742785Y33700D01*
X1742639Y33718D01*
X1742457Y33754D01*
X1742257Y33791D01*
X1742038Y33845D01*
X1741820Y33918D01*
X1741583Y33991D01*
X1741346Y34100D01*
X1741109Y34228D01*
X1740873Y34374D01*
X1740636Y34556D01*
X1740417Y34756D01*
X1740217Y34975D01*
X1740199Y34993D01*
X1740163Y35047D01*
X1740108Y35138D01*
X1740017Y35284D01*
X1739926Y35448D01*
X1739835Y35666D01*
X1739707Y35921D01*
X1739598Y36213D01*
X1739489Y36541D01*
X1739379Y36923D01*
X1739270Y37342D01*
X1739179Y37815D01*
X1739088Y38326D01*
X1739033Y38872D01*
X1738997Y39473D01*
X1738979Y40110D01*
Y40128D01*
Y40201D01*
Y40329D01*
Y40474D01*
X1738997Y40675D01*
Y40893D01*
X1739015Y41130D01*
X1739033Y41403D01*
X1739088Y41968D01*
X1739179Y42569D01*
X1739288Y43170D01*
X1739361Y43443D01*
X1739434Y43716D01*
Y43734D01*
X1739452Y43771D01*
X1739489Y43844D01*
X1739525Y43935D01*
X1739561Y44062D01*
X1739634Y44190D01*
X1739780Y44499D01*
X1739962Y44827D01*
X1740199Y45173D01*
X1740472Y45519D01*
X1740800Y45810D01*
X1740818D01*
X1740836Y45847D01*
X1740891Y45883D01*
X1740964Y45920D01*
X1741055Y45993D01*
X1741164Y46047D01*
X1741437Y46193D01*
X1741765Y46320D01*
X1742148Y46448D01*
X1742603Y46521D01*
X1743095Y46557D01*
X1743259D01*
X1743459Y46539D01*
D02*
G37*
%LPC*%
G36*
X616076Y275303D02*
X615967D01*
X615894Y275285D01*
X615694Y275248D01*
X615457Y275194D01*
X615184Y275084D01*
X614893Y274921D01*
X614747Y274811D01*
X614601Y274702D01*
X614474Y274556D01*
X614346Y274393D01*
Y274374D01*
X614310Y274338D01*
X614273Y274265D01*
X614219Y274174D01*
X614164Y274028D01*
X614091Y273864D01*
X614037Y273664D01*
X613964Y273427D01*
X613891Y273154D01*
X613818Y272845D01*
X613745Y272498D01*
X613691Y272116D01*
X613636Y271679D01*
X613600Y271205D01*
X613581Y270695D01*
X613563Y270131D01*
Y270095D01*
Y270003D01*
Y269839D01*
X613581Y269621D01*
Y269384D01*
X613600Y269093D01*
X613618Y268783D01*
X613654Y268455D01*
X613745Y267745D01*
X613800Y267399D01*
X613873Y267071D01*
X613946Y266762D01*
X614055Y266470D01*
X614164Y266215D01*
X614292Y265997D01*
Y265979D01*
X614328Y265960D01*
X614419Y265833D01*
X614583Y265669D01*
X614783Y265487D01*
X615056Y265305D01*
X615366Y265141D01*
X615712Y265013D01*
X615894Y264995D01*
X616095Y264977D01*
X616204D01*
X616277Y264995D01*
X616459Y265032D01*
X616714Y265104D01*
X616987Y265232D01*
X617297Y265414D01*
X617442Y265523D01*
X617588Y265669D01*
X617734Y265815D01*
X617879Y265997D01*
Y266015D01*
X617916Y266052D01*
X617952Y266106D01*
X617989Y266197D01*
X618061Y266325D01*
X618116Y266488D01*
X618189Y266671D01*
X618262Y266889D01*
X618316Y267162D01*
X618389Y267454D01*
X618462Y267800D01*
X618517Y268164D01*
X618553Y268601D01*
X618590Y269056D01*
X618626Y269566D01*
Y270131D01*
Y270149D01*
Y270167D01*
Y270258D01*
Y270422D01*
X618608Y270641D01*
Y270878D01*
X618590Y271169D01*
X618571Y271479D01*
X618535Y271825D01*
X618444Y272517D01*
X618389Y272863D01*
X618316Y273190D01*
X618244Y273500D01*
X618134Y273792D01*
X618025Y274046D01*
X617897Y274265D01*
Y274283D01*
X617861Y274301D01*
X617825Y274356D01*
X617770Y274429D01*
X617606Y274593D01*
X617406Y274793D01*
X617133Y274975D01*
X616823Y275139D01*
X616659Y275212D01*
X616477Y275267D01*
X616277Y275285D01*
X616076Y275303D01*
D02*
G37*
G36*
X1196076Y274303D02*
X1195967D01*
X1195894Y274285D01*
X1195694Y274248D01*
X1195457Y274194D01*
X1195184Y274084D01*
X1194893Y273921D01*
X1194747Y273811D01*
X1194601Y273702D01*
X1194474Y273556D01*
X1194346Y273392D01*
Y273374D01*
X1194310Y273338D01*
X1194273Y273265D01*
X1194219Y273174D01*
X1194164Y273028D01*
X1194091Y272864D01*
X1194037Y272664D01*
X1193964Y272427D01*
X1193891Y272154D01*
X1193818Y271844D01*
X1193745Y271498D01*
X1193691Y271116D01*
X1193636Y270679D01*
X1193599Y270205D01*
X1193581Y269695D01*
X1193563Y269131D01*
Y269095D01*
Y269003D01*
Y268839D01*
X1193581Y268621D01*
Y268384D01*
X1193599Y268093D01*
X1193618Y267783D01*
X1193654Y267455D01*
X1193745Y266745D01*
X1193800Y266399D01*
X1193873Y266071D01*
X1193946Y265762D01*
X1194055Y265470D01*
X1194164Y265215D01*
X1194292Y264997D01*
Y264979D01*
X1194328Y264960D01*
X1194419Y264833D01*
X1194583Y264669D01*
X1194783Y264487D01*
X1195057Y264305D01*
X1195366Y264141D01*
X1195712Y264013D01*
X1195894Y263995D01*
X1196095Y263977D01*
X1196204D01*
X1196277Y263995D01*
X1196459Y264032D01*
X1196714Y264104D01*
X1196987Y264232D01*
X1197297Y264414D01*
X1197442Y264523D01*
X1197588Y264669D01*
X1197734Y264815D01*
X1197879Y264997D01*
Y265015D01*
X1197916Y265051D01*
X1197952Y265106D01*
X1197989Y265197D01*
X1198061Y265325D01*
X1198116Y265488D01*
X1198189Y265671D01*
X1198262Y265889D01*
X1198316Y266162D01*
X1198389Y266454D01*
X1198462Y266800D01*
X1198517Y267164D01*
X1198553Y267601D01*
X1198590Y268056D01*
X1198626Y268566D01*
Y269131D01*
Y269149D01*
Y269167D01*
Y269258D01*
Y269422D01*
X1198608Y269641D01*
Y269878D01*
X1198590Y270169D01*
X1198571Y270479D01*
X1198535Y270825D01*
X1198444Y271517D01*
X1198389Y271863D01*
X1198316Y272190D01*
X1198244Y272500D01*
X1198134Y272792D01*
X1198025Y273046D01*
X1197897Y273265D01*
Y273283D01*
X1197861Y273301D01*
X1197825Y273356D01*
X1197770Y273429D01*
X1197606Y273593D01*
X1197406Y273793D01*
X1197133Y273975D01*
X1196823Y274139D01*
X1196659Y274212D01*
X1196477Y274267D01*
X1196277Y274285D01*
X1196076Y274303D01*
D02*
G37*
G36*
X1748076Y634282D02*
X1747967D01*
X1747894Y634264D01*
X1747694Y634228D01*
X1747457Y634173D01*
X1747184Y634064D01*
X1746893Y633900D01*
X1746747Y633791D01*
X1746601Y633681D01*
X1746474Y633536D01*
X1746346Y633372D01*
Y633354D01*
X1746310Y633317D01*
X1746273Y633244D01*
X1746219Y633153D01*
X1746164Y633008D01*
X1746091Y632844D01*
X1746037Y632643D01*
X1745964Y632407D01*
X1745891Y632133D01*
X1745818Y631824D01*
X1745745Y631478D01*
X1745691Y631095D01*
X1745636Y630658D01*
X1745600Y630185D01*
X1745581Y629675D01*
X1745563Y629110D01*
Y629074D01*
Y628983D01*
Y628819D01*
X1745581Y628600D01*
Y628363D01*
X1745600Y628072D01*
X1745618Y627762D01*
X1745654Y627435D01*
X1745745Y626725D01*
X1745800Y626379D01*
X1745873Y626051D01*
X1745946Y625741D01*
X1746055Y625450D01*
X1746164Y625195D01*
X1746292Y624976D01*
Y624958D01*
X1746328Y624940D01*
X1746419Y624812D01*
X1746583Y624648D01*
X1746783Y624466D01*
X1747056Y624284D01*
X1747366Y624120D01*
X1747712Y623993D01*
X1747894Y623974D01*
X1748095Y623956D01*
X1748204D01*
X1748277Y623974D01*
X1748459Y624011D01*
X1748714Y624084D01*
X1748987Y624211D01*
X1749297Y624393D01*
X1749442Y624503D01*
X1749588Y624648D01*
X1749734Y624794D01*
X1749879Y624976D01*
Y624994D01*
X1749916Y625031D01*
X1749952Y625085D01*
X1749989Y625177D01*
X1750061Y625304D01*
X1750116Y625468D01*
X1750189Y625650D01*
X1750262Y625868D01*
X1750316Y626142D01*
X1750389Y626433D01*
X1750462Y626779D01*
X1750517Y627143D01*
X1750553Y627580D01*
X1750590Y628036D01*
X1750626Y628546D01*
Y629110D01*
Y629128D01*
Y629147D01*
Y629238D01*
Y629402D01*
X1750608Y629620D01*
Y629857D01*
X1750590Y630148D01*
X1750571Y630458D01*
X1750535Y630804D01*
X1750444Y631496D01*
X1750389Y631842D01*
X1750316Y632170D01*
X1750244Y632479D01*
X1750134Y632771D01*
X1750025Y633026D01*
X1749897Y633244D01*
Y633262D01*
X1749861Y633281D01*
X1749825Y633335D01*
X1749770Y633408D01*
X1749606Y633572D01*
X1749406Y633772D01*
X1749133Y633955D01*
X1748823Y634118D01*
X1748659Y634191D01*
X1748477Y634246D01*
X1748277Y634264D01*
X1748076Y634282D01*
D02*
G37*
G36*
X616076Y765282D02*
X615967D01*
X615894Y765264D01*
X615694Y765228D01*
X615457Y765173D01*
X615184Y765064D01*
X614893Y764900D01*
X614747Y764791D01*
X614601Y764681D01*
X614474Y764536D01*
X614346Y764372D01*
Y764354D01*
X614310Y764317D01*
X614273Y764244D01*
X614219Y764153D01*
X614164Y764007D01*
X614091Y763844D01*
X614037Y763643D01*
X613964Y763407D01*
X613891Y763133D01*
X613818Y762824D01*
X613745Y762478D01*
X613691Y762095D01*
X613636Y761658D01*
X613600Y761185D01*
X613581Y760675D01*
X613563Y760110D01*
Y760074D01*
Y759983D01*
Y759819D01*
X613581Y759600D01*
Y759363D01*
X613600Y759072D01*
X613618Y758763D01*
X613654Y758435D01*
X613745Y757725D01*
X613800Y757378D01*
X613873Y757051D01*
X613946Y756741D01*
X614055Y756450D01*
X614164Y756195D01*
X614292Y755976D01*
Y755958D01*
X614328Y755940D01*
X614419Y755812D01*
X614583Y755648D01*
X614783Y755466D01*
X615056Y755284D01*
X615366Y755120D01*
X615712Y754993D01*
X615894Y754975D01*
X616095Y754956D01*
X616204D01*
X616277Y754975D01*
X616459Y755011D01*
X616714Y755084D01*
X616987Y755211D01*
X617297Y755393D01*
X617442Y755503D01*
X617588Y755648D01*
X617734Y755794D01*
X617879Y755976D01*
Y755994D01*
X617916Y756031D01*
X617952Y756085D01*
X617989Y756177D01*
X618061Y756304D01*
X618116Y756468D01*
X618189Y756650D01*
X618262Y756869D01*
X618316Y757142D01*
X618389Y757433D01*
X618462Y757779D01*
X618517Y758143D01*
X618553Y758580D01*
X618590Y759036D01*
X618626Y759546D01*
Y760110D01*
Y760128D01*
Y760147D01*
Y760238D01*
Y760402D01*
X618608Y760620D01*
Y760857D01*
X618590Y761148D01*
X618571Y761458D01*
X618535Y761804D01*
X618444Y762496D01*
X618389Y762842D01*
X618316Y763170D01*
X618244Y763479D01*
X618134Y763771D01*
X618025Y764026D01*
X617897Y764244D01*
Y764262D01*
X617861Y764281D01*
X617825Y764335D01*
X617770Y764408D01*
X617606Y764572D01*
X617406Y764772D01*
X617133Y764955D01*
X616823Y765118D01*
X616659Y765191D01*
X616477Y765246D01*
X616277Y765264D01*
X616076Y765282D01*
D02*
G37*
G36*
X1195076Y766303D02*
X1194967D01*
X1194894Y766285D01*
X1194694Y766248D01*
X1194457Y766194D01*
X1194184Y766085D01*
X1193893Y765921D01*
X1193747Y765811D01*
X1193601Y765702D01*
X1193474Y765556D01*
X1193346Y765392D01*
Y765374D01*
X1193310Y765338D01*
X1193273Y765265D01*
X1193219Y765174D01*
X1193164Y765028D01*
X1193091Y764864D01*
X1193037Y764664D01*
X1192964Y764427D01*
X1192891Y764154D01*
X1192818Y763844D01*
X1192745Y763498D01*
X1192691Y763116D01*
X1192636Y762679D01*
X1192599Y762205D01*
X1192581Y761695D01*
X1192563Y761131D01*
Y761095D01*
Y761003D01*
Y760839D01*
X1192581Y760621D01*
Y760384D01*
X1192599Y760093D01*
X1192618Y759783D01*
X1192654Y759455D01*
X1192745Y758745D01*
X1192800Y758399D01*
X1192873Y758071D01*
X1192946Y757762D01*
X1193055Y757470D01*
X1193164Y757215D01*
X1193292Y756997D01*
Y756979D01*
X1193328Y756960D01*
X1193419Y756833D01*
X1193583Y756669D01*
X1193783Y756487D01*
X1194056Y756305D01*
X1194366Y756141D01*
X1194712Y756013D01*
X1194894Y755995D01*
X1195095Y755977D01*
X1195204D01*
X1195277Y755995D01*
X1195459Y756032D01*
X1195714Y756104D01*
X1195987Y756232D01*
X1196296Y756414D01*
X1196442Y756523D01*
X1196588Y756669D01*
X1196734Y756815D01*
X1196879Y756997D01*
Y757015D01*
X1196916Y757051D01*
X1196952Y757106D01*
X1196989Y757197D01*
X1197061Y757325D01*
X1197116Y757488D01*
X1197189Y757671D01*
X1197262Y757889D01*
X1197316Y758162D01*
X1197389Y758454D01*
X1197462Y758800D01*
X1197517Y759164D01*
X1197553Y759601D01*
X1197590Y760056D01*
X1197626Y760566D01*
Y761131D01*
Y761149D01*
Y761167D01*
Y761258D01*
Y761422D01*
X1197608Y761641D01*
Y761878D01*
X1197590Y762169D01*
X1197571Y762479D01*
X1197535Y762825D01*
X1197444Y763517D01*
X1197389Y763863D01*
X1197316Y764191D01*
X1197244Y764500D01*
X1197134Y764791D01*
X1197025Y765046D01*
X1196898Y765265D01*
Y765283D01*
X1196861Y765301D01*
X1196825Y765356D01*
X1196770Y765429D01*
X1196606Y765593D01*
X1196406Y765793D01*
X1196133Y765975D01*
X1195823Y766139D01*
X1195659Y766212D01*
X1195477Y766267D01*
X1195277Y766285D01*
X1195076Y766303D01*
D02*
G37*
G36*
X63076Y635282D02*
X62967D01*
X62894Y635264D01*
X62694Y635228D01*
X62457Y635173D01*
X62184Y635064D01*
X61893Y634900D01*
X61747Y634791D01*
X61601Y634681D01*
X61474Y634536D01*
X61346Y634372D01*
Y634354D01*
X61310Y634317D01*
X61273Y634244D01*
X61219Y634153D01*
X61164Y634007D01*
X61091Y633844D01*
X61037Y633643D01*
X60964Y633407D01*
X60891Y633133D01*
X60818Y632824D01*
X60745Y632478D01*
X60691Y632095D01*
X60636Y631658D01*
X60599Y631185D01*
X60581Y630675D01*
X60563Y630110D01*
Y630074D01*
Y629983D01*
Y629819D01*
X60581Y629600D01*
Y629364D01*
X60599Y629072D01*
X60618Y628763D01*
X60654Y628435D01*
X60745Y627724D01*
X60800Y627379D01*
X60873Y627051D01*
X60946Y626741D01*
X61055Y626450D01*
X61164Y626195D01*
X61292Y625976D01*
Y625958D01*
X61328Y625940D01*
X61419Y625812D01*
X61583Y625648D01*
X61783Y625466D01*
X62056Y625284D01*
X62366Y625120D01*
X62712Y624993D01*
X62894Y624975D01*
X63095Y624956D01*
X63204D01*
X63277Y624975D01*
X63459Y625011D01*
X63714Y625084D01*
X63987Y625211D01*
X64296Y625393D01*
X64442Y625503D01*
X64588Y625648D01*
X64734Y625794D01*
X64879Y625976D01*
Y625994D01*
X64916Y626031D01*
X64952Y626085D01*
X64989Y626176D01*
X65061Y626304D01*
X65116Y626468D01*
X65189Y626650D01*
X65262Y626869D01*
X65316Y627142D01*
X65389Y627433D01*
X65462Y627779D01*
X65517Y628143D01*
X65553Y628580D01*
X65590Y629036D01*
X65626Y629546D01*
Y630110D01*
Y630128D01*
Y630147D01*
Y630238D01*
Y630402D01*
X65608Y630620D01*
Y630857D01*
X65590Y631148D01*
X65571Y631458D01*
X65535Y631804D01*
X65444Y632496D01*
X65389Y632842D01*
X65316Y633170D01*
X65244Y633479D01*
X65134Y633771D01*
X65025Y634026D01*
X64897Y634244D01*
Y634263D01*
X64861Y634281D01*
X64825Y634335D01*
X64770Y634408D01*
X64606Y634572D01*
X64406Y634772D01*
X64133Y634955D01*
X63823Y635118D01*
X63659Y635191D01*
X63477Y635246D01*
X63277Y635264D01*
X63076Y635282D01*
D02*
G37*
G36*
Y45282D02*
X62967D01*
X62894Y45264D01*
X62694Y45228D01*
X62457Y45173D01*
X62184Y45064D01*
X61893Y44900D01*
X61747Y44791D01*
X61601Y44681D01*
X61474Y44536D01*
X61346Y44372D01*
Y44354D01*
X61310Y44317D01*
X61273Y44244D01*
X61219Y44153D01*
X61164Y44008D01*
X61091Y43844D01*
X61037Y43643D01*
X60964Y43407D01*
X60891Y43133D01*
X60818Y42824D01*
X60745Y42478D01*
X60691Y42095D01*
X60636Y41658D01*
X60599Y41185D01*
X60581Y40675D01*
X60563Y40110D01*
Y40074D01*
Y39983D01*
Y39819D01*
X60581Y39600D01*
Y39364D01*
X60599Y39072D01*
X60618Y38763D01*
X60654Y38435D01*
X60745Y37724D01*
X60800Y37378D01*
X60873Y37051D01*
X60946Y36741D01*
X61055Y36450D01*
X61164Y36195D01*
X61292Y35976D01*
Y35958D01*
X61328Y35940D01*
X61419Y35812D01*
X61583Y35648D01*
X61783Y35466D01*
X62056Y35284D01*
X62366Y35120D01*
X62712Y34993D01*
X62894Y34975D01*
X63095Y34956D01*
X63204D01*
X63277Y34975D01*
X63459Y35011D01*
X63714Y35084D01*
X63987Y35211D01*
X64296Y35393D01*
X64442Y35503D01*
X64588Y35648D01*
X64734Y35794D01*
X64879Y35976D01*
Y35994D01*
X64916Y36031D01*
X64952Y36085D01*
X64989Y36177D01*
X65061Y36304D01*
X65116Y36468D01*
X65189Y36650D01*
X65262Y36869D01*
X65316Y37142D01*
X65389Y37433D01*
X65462Y37779D01*
X65517Y38143D01*
X65553Y38580D01*
X65590Y39036D01*
X65626Y39546D01*
Y40110D01*
Y40128D01*
Y40147D01*
Y40238D01*
Y40402D01*
X65608Y40620D01*
Y40857D01*
X65590Y41148D01*
X65571Y41458D01*
X65535Y41804D01*
X65444Y42496D01*
X65389Y42842D01*
X65316Y43170D01*
X65244Y43479D01*
X65134Y43771D01*
X65025Y44026D01*
X64897Y44244D01*
Y44262D01*
X64861Y44281D01*
X64825Y44335D01*
X64770Y44408D01*
X64606Y44572D01*
X64406Y44772D01*
X64133Y44955D01*
X63823Y45118D01*
X63659Y45191D01*
X63477Y45246D01*
X63277Y45264D01*
X63076Y45282D01*
D02*
G37*
G36*
X1743076D02*
X1742967D01*
X1742894Y45264D01*
X1742694Y45228D01*
X1742457Y45173D01*
X1742184Y45064D01*
X1741893Y44900D01*
X1741747Y44791D01*
X1741601Y44681D01*
X1741474Y44536D01*
X1741346Y44372D01*
Y44354D01*
X1741310Y44317D01*
X1741273Y44244D01*
X1741219Y44153D01*
X1741164Y44008D01*
X1741091Y43844D01*
X1741037Y43643D01*
X1740964Y43407D01*
X1740891Y43133D01*
X1740818Y42824D01*
X1740745Y42478D01*
X1740691Y42095D01*
X1740636Y41658D01*
X1740600Y41185D01*
X1740581Y40675D01*
X1740563Y40110D01*
Y40074D01*
Y39983D01*
Y39819D01*
X1740581Y39600D01*
Y39364D01*
X1740600Y39072D01*
X1740618Y38763D01*
X1740654Y38435D01*
X1740745Y37724D01*
X1740800Y37378D01*
X1740873Y37051D01*
X1740946Y36741D01*
X1741055Y36450D01*
X1741164Y36195D01*
X1741292Y35976D01*
Y35958D01*
X1741328Y35940D01*
X1741419Y35812D01*
X1741583Y35648D01*
X1741783Y35466D01*
X1742056Y35284D01*
X1742366Y35120D01*
X1742712Y34993D01*
X1742894Y34975D01*
X1743095Y34956D01*
X1743204D01*
X1743277Y34975D01*
X1743459Y35011D01*
X1743714Y35084D01*
X1743987Y35211D01*
X1744297Y35393D01*
X1744442Y35503D01*
X1744588Y35648D01*
X1744734Y35794D01*
X1744879Y35976D01*
Y35994D01*
X1744916Y36031D01*
X1744952Y36085D01*
X1744989Y36177D01*
X1745061Y36304D01*
X1745116Y36468D01*
X1745189Y36650D01*
X1745262Y36869D01*
X1745316Y37142D01*
X1745389Y37433D01*
X1745462Y37779D01*
X1745517Y38143D01*
X1745553Y38580D01*
X1745590Y39036D01*
X1745626Y39546D01*
Y40110D01*
Y40128D01*
Y40147D01*
Y40238D01*
Y40402D01*
X1745608Y40620D01*
Y40857D01*
X1745590Y41148D01*
X1745571Y41458D01*
X1745535Y41804D01*
X1745444Y42496D01*
X1745389Y42842D01*
X1745316Y43170D01*
X1745244Y43479D01*
X1745134Y43771D01*
X1745025Y44026D01*
X1744898Y44244D01*
Y44262D01*
X1744861Y44281D01*
X1744825Y44335D01*
X1744770Y44408D01*
X1744606Y44572D01*
X1744406Y44772D01*
X1744133Y44955D01*
X1743823Y45118D01*
X1743659Y45191D01*
X1743477Y45246D01*
X1743277Y45264D01*
X1743076Y45282D01*
D02*
G37*
%LPD*%
D62*
X312250Y294000D02*
Y454000D01*
X282250Y294000D02*
X312250D01*
X282250D02*
Y314000D01*
X273250Y324000D02*
X282250Y314000D01*
X273250Y324000D02*
Y424000D01*
X282250Y434000D01*
Y454000D01*
X312250D01*
X312250Y496000D02*
Y656000D01*
X282250Y496000D02*
X312250D01*
X282250D02*
Y516000D01*
X273250Y526000D02*
X282250Y516000D01*
X273250Y526000D02*
Y626000D01*
X282250Y636000D01*
Y656000D01*
X312250D01*
X68500Y1019500D02*
X158500D01*
X68500Y867500D02*
Y1019500D01*
Y867500D02*
X158500D01*
Y1019500D01*
X1201050Y870230D02*
X1326050D01*
X1201050D02*
Y1043250D01*
X1326050D01*
Y870230D02*
Y1043250D01*
X1033050Y870230D02*
X1158050D01*
X1033050D02*
Y1043250D01*
X1158050D01*
Y870230D02*
Y1043250D01*
D107*
X563340Y83980D02*
Y158980D01*
X691340D01*
Y83980D02*
Y158980D01*
X563340Y83980D02*
X691340D01*
X563340Y96680D02*
X576040Y83980D01*
X925000Y94000D02*
Y164000D01*
X995000D01*
Y94000D02*
Y164000D01*
X925000Y94000D02*
X995000D01*
X925000Y99000D02*
X930000Y94000D01*
X1127860Y87980D02*
X1134360Y94480D01*
Y87980D02*
Y107980D01*
X1121860D02*
X1134360D01*
X1121860Y87980D02*
Y107980D01*
Y87980D02*
X1134360D01*
X383500Y844000D02*
Y860000D01*
X354500Y844000D02*
X383500D01*
X354500D02*
Y860000D01*
X383500D01*
X374000D02*
X383500Y850500D01*
X427480Y905720D02*
X443720D01*
Y876720D02*
Y905720D01*
X427480Y876720D02*
X443720D01*
X427480D02*
Y905720D01*
Y899220D02*
X433980Y905720D01*
X105970Y805840D02*
X116720Y816580D01*
Y805840D02*
Y842080D01*
X63220D02*
X116720D01*
X63220Y805840D02*
Y842080D01*
Y805840D02*
X116720D01*
X476680Y869268D02*
X489680D01*
Y840068D02*
Y869268D01*
X476680Y840068D02*
X489680D01*
X476680D02*
Y869268D01*
Y859768D02*
X486180Y869268D01*
X1078750Y175000D02*
X1090750D01*
Y195000D01*
X1078750D02*
X1090750D01*
X1078750Y175000D02*
Y195000D01*
X865000Y133280D02*
Y145280D01*
X845000D02*
X865000D01*
X845000Y133280D02*
Y145280D01*
Y133280D02*
X865000D01*
Y204000D02*
Y216000D01*
X845000D02*
X865000D01*
X845000Y204000D02*
Y216000D01*
Y204000D02*
X865000D01*
Y95000D02*
Y107000D01*
X845000D02*
X865000D01*
X845000Y95000D02*
Y107000D01*
Y95000D02*
X865000D01*
Y23000D02*
Y35000D01*
X845000D02*
X865000D01*
X845000Y23000D02*
Y35000D01*
Y23000D02*
X865000D01*
X1160250Y562000D02*
Y574000D01*
X1140250D02*
X1160250D01*
X1140250Y562000D02*
Y574000D01*
Y562000D02*
X1160250D01*
X1198250Y726000D02*
Y738000D01*
X1178250D02*
X1198250D01*
X1178250Y726000D02*
Y738000D01*
Y726000D02*
X1198250D01*
X194250Y934250D02*
X205500Y945500D01*
X194250Y886500D02*
Y945500D01*
Y886500D02*
X273750D01*
Y945500D01*
X194250D02*
X273750D01*
X380000Y882750D02*
Y897250D01*
X358000Y882750D02*
Y897250D01*
Y882750D02*
X380000D01*
X358000Y897250D02*
X380000D01*
X394750Y902000D02*
X409250D01*
X394750Y880000D02*
X409250D01*
Y902000D01*
X394750Y880000D02*
Y902000D01*
X241030Y827340D02*
X271030D01*
Y797340D02*
Y827340D01*
X241030Y797340D02*
X271030D01*
X241030D02*
Y827340D01*
Y819840D02*
X248530Y827340D01*
X387000Y805250D02*
X393500Y798750D01*
X387000D02*
X407000D01*
Y811250D01*
X387000D02*
X407000D01*
X387000Y798750D02*
Y811250D01*
M02*
