G04 Layer_Color=32768*
%FSLAX44Y44*%
%MOMM*%
G71*
G01*
G75*
%ADD62C,0.2000*%
%ADD63C,0.2540*%
%ADD107C,0.1000*%
%ADD109C,0.0500*%
D62*
X1327500Y25500D02*
Y740500D01*
X1587500D01*
Y25500D02*
Y740500D01*
X1327500Y25500D02*
X1587500D01*
X383940Y943380D02*
X456940D01*
X383940D02*
Y1005880D01*
X456940D01*
Y943380D02*
Y1005880D01*
X445840D02*
Y1014880D01*
X397940D02*
X445840D01*
X395040D02*
X397940D01*
X395040Y1005880D02*
Y1014880D01*
D63*
X1389700Y828950D02*
Y1044850D01*
Y828950D02*
X1552300D01*
Y1044850D01*
X1389700D02*
X1552300D01*
D107*
X1150240Y691960D02*
X1155240Y686960D01*
X1065240Y691960D02*
X1155240D01*
X1065240Y601960D02*
Y691960D01*
Y601960D02*
X1155240D01*
Y691960D01*
X603250Y30500D02*
X633000D01*
X603250D02*
Y45500D01*
X633000D01*
Y30500D02*
Y45500D01*
X660000Y929870D02*
X689750D01*
Y914870D02*
Y929870D01*
X660000Y914870D02*
X689750D01*
X660000D02*
Y929870D01*
X973500Y185000D02*
Y214750D01*
X988500D01*
Y185000D02*
Y214750D01*
X973500Y185000D02*
X988500D01*
X1037020Y84070D02*
X1066770D01*
Y69070D02*
Y84070D01*
X1037020Y69070D02*
X1066770D01*
X1037020D02*
Y84070D01*
X708000Y929870D02*
X737750D01*
Y914870D02*
Y929870D01*
X708000Y914870D02*
X737750D01*
X708000D02*
Y929870D01*
X1037520Y62070D02*
X1067270D01*
Y47070D02*
Y62070D01*
X1037520Y47070D02*
X1067270D01*
X1037520D02*
Y62070D01*
X995500Y185000D02*
Y214750D01*
X1010500D01*
Y185000D02*
Y214750D01*
X995500Y185000D02*
X1010500D01*
X1052020Y129820D02*
Y159570D01*
X1037020Y129820D02*
X1052020D01*
X1037020D02*
Y159570D01*
X1052020D01*
X1060020Y129570D02*
Y159320D01*
X1075020D01*
Y129570D02*
Y159320D01*
X1060020Y129570D02*
X1075020D01*
X1037020Y91570D02*
Y121320D01*
X1052020D01*
Y91570D02*
Y121320D01*
X1037020Y91570D02*
X1052020D01*
X1075020Y91820D02*
Y121570D01*
X1060020Y91820D02*
X1075020D01*
X1060020D02*
Y121570D01*
X1075020D01*
X1087950Y128480D02*
Y158230D01*
X1102950D01*
Y128480D02*
Y158230D01*
X1087950Y128480D02*
X1102950D01*
X1151700Y143480D02*
X1181450D01*
X1151700D02*
Y158480D01*
X1181450D01*
Y143480D02*
Y158480D01*
X1112110Y135480D02*
X1141860D01*
Y120480D02*
Y135480D01*
X1112110Y120480D02*
X1141860D01*
X1112110D02*
Y135480D01*
X1102950Y37750D02*
Y67500D01*
X1087950Y37750D02*
X1102950D01*
X1087950D02*
Y67500D01*
X1102950D01*
X1152860Y37480D02*
X1182610D01*
X1152860D02*
Y52480D01*
X1182610D01*
Y37480D02*
Y52480D01*
X1117120Y178340D02*
Y208090D01*
X1102120Y178340D02*
X1117120D01*
X1102120D02*
Y208090D01*
X1117120D01*
X1112110Y75480D02*
X1141860D01*
Y60480D02*
Y75480D01*
X1112110Y60480D02*
X1141860D01*
X1112110D02*
Y75480D01*
X1358500Y828000D02*
Y857750D01*
X1373500D01*
Y828000D02*
Y857750D01*
X1358500Y828000D02*
X1373500D01*
X1212750Y655000D02*
Y684750D01*
X1227750D01*
Y655000D02*
Y684750D01*
X1212750Y655000D02*
X1227750D01*
X1074750Y713000D02*
Y742750D01*
X1089750D01*
Y713000D02*
Y742750D01*
X1074750Y713000D02*
X1089750D01*
X1091750Y546000D02*
Y575750D01*
X1106750D01*
Y546000D02*
Y575750D01*
X1091750Y546000D02*
X1106750D01*
X1176500Y582500D02*
X1206250D01*
X1176500D02*
Y597500D01*
X1206250D01*
Y582500D02*
Y597500D01*
X1563500Y829000D02*
Y858750D01*
X1578500D01*
Y829000D02*
Y858750D01*
X1563500Y829000D02*
X1578500D01*
X1485500Y785250D02*
Y815000D01*
X1470500Y785250D02*
X1485500D01*
X1470500D02*
Y815000D01*
X1485500D01*
X1174500Y681500D02*
X1204250D01*
X1174500D02*
Y696500D01*
X1204250D01*
Y681500D02*
Y696500D01*
X1274500Y62000D02*
Y91750D01*
X1289500D01*
Y62000D02*
Y91750D01*
X1274500Y62000D02*
X1289500D01*
X1280000Y114500D02*
X1309750D01*
Y99500D02*
Y114500D01*
X1280000Y99500D02*
X1309750D01*
X1280000D02*
Y114500D01*
Y158500D02*
X1309750D01*
Y143500D02*
Y158500D01*
X1280000Y143500D02*
X1309750D01*
X1280000D02*
Y158500D01*
X1273500Y10100D02*
Y39850D01*
X1288500D01*
Y10100D02*
Y39850D01*
X1273500Y10100D02*
X1288500D01*
X1461000Y417500D02*
X1490750D01*
Y402500D02*
Y417500D01*
X1461000Y402500D02*
X1490750D01*
X1461000D02*
Y417500D01*
Y441500D02*
X1490750D01*
Y426500D02*
Y441500D01*
X1461000Y426500D02*
X1490750D01*
X1461000D02*
Y441500D01*
X1730250Y520500D02*
X1760000D01*
X1730250D02*
Y535500D01*
X1760000D01*
Y520500D02*
Y535500D01*
X1461000Y505500D02*
X1490750D01*
Y490500D02*
Y505500D01*
X1461000Y490500D02*
X1490750D01*
X1461000D02*
Y505500D01*
Y577500D02*
X1490750D01*
Y562500D02*
Y577500D01*
X1461000Y562500D02*
X1490750D01*
X1461000D02*
Y577500D01*
X1708000Y556500D02*
X1737750D01*
Y541500D02*
Y556500D01*
X1708000Y541500D02*
X1737750D01*
X1708000D02*
Y556500D01*
X1410500Y712750D02*
Y742500D01*
X1425500D01*
Y712750D02*
Y742500D01*
X1410500Y712750D02*
X1425500D01*
X394500Y834000D02*
Y863750D01*
X409500D01*
Y834000D02*
Y863750D01*
X394500Y834000D02*
X409500D01*
X424250Y855500D02*
X454000D01*
X424250D02*
Y870500D01*
X454000D01*
Y855500D02*
Y870500D01*
X444250Y914500D02*
X474000D01*
X444250D02*
Y929500D01*
X474000D01*
Y914500D02*
Y929500D01*
X470000Y896250D02*
X499750D01*
Y881250D02*
Y896250D01*
X470000Y881250D02*
X499750D01*
X470000D02*
Y896250D01*
X50852Y721500D02*
X80602D01*
X50852D02*
Y736500D01*
X80602D01*
Y721500D02*
Y736500D01*
X50852Y746500D02*
X80602D01*
X50852D02*
Y761500D01*
X80602D01*
Y746500D02*
Y761500D01*
X50852Y771500D02*
X80602D01*
X50852D02*
Y786500D01*
X80602D01*
Y771500D02*
Y786500D01*
X1126020Y196140D02*
X1135570Y186590D01*
X1126020D02*
X1155220D01*
Y199590D01*
X1126020D02*
X1155220D01*
X1126020Y186590D02*
Y199590D01*
X1751000Y553750D02*
Y566250D01*
X1771000D01*
Y553750D02*
Y566250D01*
X1751000Y553750D02*
X1771000D01*
X1751000Y560250D02*
X1757500Y553750D01*
X1715750Y562000D02*
X1728250D01*
X1715750D02*
Y582000D01*
X1728250D01*
Y562000D02*
Y582000D01*
X1721750Y562000D02*
X1728250Y568500D01*
X256250Y464000D02*
X336250D01*
X256250Y284000D02*
Y464000D01*
Y284000D02*
X336250D01*
Y464000D01*
X256250Y666000D02*
X336250D01*
X256250Y486000D02*
Y666000D01*
Y486000D02*
X336250D01*
Y666000D01*
X563090Y45730D02*
X591090D01*
Y30480D02*
Y45730D01*
X563090Y30480D02*
X591090D01*
X563090D02*
Y45730D01*
X693730Y947280D02*
Y975280D01*
X678480Y947280D02*
X693730D01*
X678480D02*
Y975280D01*
X693730D01*
X715730Y947280D02*
Y975280D01*
X700480Y947280D02*
X715730D01*
X700480D02*
Y975280D01*
X715730D01*
X1067020Y165672D02*
Y182672D01*
X1037020D02*
X1067020D01*
X1037020Y165672D02*
Y182672D01*
Y165672D02*
X1067020D01*
X892730Y130750D02*
Y158750D01*
X877480Y130750D02*
X892730D01*
X877480D02*
Y158750D01*
X892730D01*
X612730Y947280D02*
Y975280D01*
X597480Y947280D02*
X612730D01*
X597480D02*
Y975280D01*
X612730D01*
X634730Y947280D02*
Y975280D01*
X619480Y947280D02*
X634730D01*
X619480D02*
Y975280D01*
X634730D01*
X840910Y155270D02*
X868910D01*
X840910D02*
Y170520D01*
X868910D01*
Y155270D02*
Y170520D01*
X840770Y193730D02*
X868770D01*
Y178480D02*
Y193730D01*
X840770Y178480D02*
X868770D01*
X840770D02*
Y193730D01*
X877270Y189970D02*
Y217970D01*
X892520D01*
Y189970D02*
Y217970D01*
X877270Y189970D02*
X892520D01*
X877270Y80970D02*
Y108970D01*
X892520D01*
Y80970D02*
Y108970D01*
X877270Y80970D02*
X892520D01*
X840910Y68750D02*
X868910D01*
X840910D02*
Y84000D01*
X868910D01*
Y68750D02*
Y84000D01*
X841090Y60730D02*
X869090D01*
Y45480D02*
Y60730D01*
X841090Y45480D02*
X869090D01*
X841090D02*
Y60730D01*
X892730Y20470D02*
Y48470D01*
X877480Y20470D02*
X892730D01*
X877480D02*
Y48470D01*
X892730D01*
X1151360Y120250D02*
X1179360D01*
X1151360D02*
Y135500D01*
X1179360D01*
Y120250D02*
Y135500D01*
X1111860Y143250D02*
X1139860D01*
X1111860D02*
Y158500D01*
X1139860D01*
Y143250D02*
Y158500D01*
X938270Y44090D02*
Y72090D01*
X953520D01*
Y44090D02*
Y72090D01*
X938270Y44090D02*
X953520D01*
X916270D02*
Y72090D01*
X931520D01*
Y44090D02*
Y72090D01*
X916270Y44090D02*
X931520D01*
X945730Y184910D02*
Y212910D01*
X930480Y184910D02*
X945730D01*
X930480D02*
Y212910D01*
X945730D01*
X923730Y184910D02*
Y212910D01*
X908480Y184910D02*
X923730D01*
X908480D02*
Y212910D01*
X923730D01*
X1036430Y188942D02*
X1064430D01*
X1036430D02*
Y204192D01*
X1064430D01*
Y188942D02*
Y204192D01*
X967730Y184910D02*
Y212910D01*
X952480Y184910D02*
X967730D01*
X952480D02*
Y212910D01*
X967730D01*
X985270Y44090D02*
Y72090D01*
X1000520D01*
Y44090D02*
Y72090D01*
X985270Y44090D02*
X1000520D01*
X961270D02*
Y72090D01*
X976520D01*
Y44090D02*
Y72090D01*
X961270Y44090D02*
X976520D01*
X1087700Y77070D02*
Y105070D01*
X1102950D01*
Y77070D02*
Y105070D01*
X1087700Y77070D02*
X1102950D01*
X1152360Y60250D02*
X1180360D01*
X1152360D02*
Y75500D01*
X1180360D01*
Y60250D02*
Y75500D01*
X1111860Y37250D02*
X1139860D01*
X1111860D02*
Y52500D01*
X1139860D01*
Y37250D02*
Y52500D01*
X1218340Y717730D02*
X1246340D01*
Y702480D02*
Y717730D01*
X1218340Y702480D02*
X1246340D01*
X1218340D02*
Y717730D01*
X1241340Y628730D02*
X1269340D01*
Y613480D02*
Y628730D01*
X1241340Y613480D02*
X1269340D01*
X1241340D02*
Y628730D01*
X1447270Y787090D02*
Y815090D01*
X1462520D01*
Y787090D02*
Y815090D01*
X1447270Y787090D02*
X1462520D01*
X1111980Y712910D02*
Y740910D01*
X1096730Y712910D02*
X1111980D01*
X1096730D02*
Y740910D01*
X1111980D01*
X1053270Y548090D02*
Y576090D01*
X1068520D01*
Y548090D02*
Y576090D01*
X1053270Y548090D02*
X1068520D01*
X1060730Y712910D02*
Y740910D01*
X1045480Y712910D02*
X1060730D01*
X1045480D02*
Y740910D01*
X1060730D01*
X1042730Y712910D02*
Y740910D01*
X1027480Y712910D02*
X1042730D01*
X1027480D02*
Y740910D01*
X1042730D01*
X1135520Y525090D02*
Y553090D01*
X1150770D01*
Y525090D02*
Y553090D01*
X1135520Y525090D02*
X1150770D01*
X1157520D02*
Y553090D01*
X1172770D01*
Y525090D02*
Y553090D01*
X1157520Y525090D02*
X1172770D01*
X1113520Y548090D02*
Y576090D01*
X1128770D01*
Y548090D02*
Y576090D01*
X1113520Y548090D02*
X1128770D01*
X1072270Y548090D02*
Y576090D01*
X1087520D01*
Y548090D02*
Y576090D01*
X1072270Y548090D02*
X1087520D01*
X1019090Y680730D02*
X1047090D01*
Y665480D02*
Y680730D01*
X1019090Y665480D02*
X1047090D01*
X1019090D02*
Y680730D01*
X1019340Y627730D02*
X1047340D01*
Y612480D02*
Y627730D01*
X1019340Y612480D02*
X1047340D01*
X1019340D02*
Y627730D01*
X1177160Y560270D02*
X1205160D01*
X1177160D02*
Y575520D01*
X1205160D01*
Y560270D02*
Y575520D01*
X1176160Y603270D02*
X1204160D01*
X1176160D02*
Y618520D01*
X1204160D01*
Y603270D02*
Y618520D01*
X1177160Y542520D02*
X1205160D01*
X1177160D02*
Y557770D01*
X1205160D01*
Y542520D02*
Y557770D01*
X1176160Y624270D02*
X1204160D01*
X1176160D02*
Y639520D01*
X1204160D01*
Y624270D02*
Y639520D01*
X1174160Y702270D02*
X1202160D01*
X1174160D02*
Y717520D01*
X1202160D01*
Y702270D02*
Y717520D01*
X1156980Y712910D02*
Y740910D01*
X1141730Y712910D02*
X1156980D01*
X1141730D02*
Y740910D01*
X1156980D01*
X1134980Y712910D02*
Y740910D01*
X1119730Y712910D02*
X1134980D01*
X1119730D02*
Y740910D01*
X1134980D01*
X1295270Y64090D02*
Y92090D01*
X1310520D01*
Y64090D02*
Y92090D01*
X1295270Y64090D02*
X1310520D01*
X1282190Y136730D02*
X1310190D01*
Y121480D02*
Y136730D01*
X1282190Y121480D02*
X1310190D01*
X1282190D02*
Y136730D01*
X1295270Y12190D02*
Y40190D01*
X1310520D01*
Y12190D02*
Y40190D01*
X1295270Y12190D02*
X1310520D01*
X1460910Y514270D02*
X1488910D01*
X1460910D02*
Y529520D01*
X1488910D01*
Y514270D02*
Y529520D01*
X1460910Y538270D02*
X1488910D01*
X1460910D02*
Y553520D01*
X1488910D01*
Y538270D02*
Y553520D01*
X1447730Y712660D02*
Y740660D01*
X1432480Y712660D02*
X1447730D01*
X1432480D02*
Y740660D01*
X1447730D01*
X383000Y882000D02*
Y898000D01*
X355000Y882000D02*
Y898000D01*
Y882000D02*
X383000D01*
X355000Y898000D02*
X383000D01*
X364000Y890000D02*
X374000D01*
X369000Y885000D02*
Y895000D01*
X278500Y983160D02*
X295500D01*
X278500Y953160D02*
Y983160D01*
Y953160D02*
X295500D01*
Y983160D01*
X305500Y983160D02*
X322500D01*
X305500Y953160D02*
Y983160D01*
Y953160D02*
X322500D01*
Y983160D01*
X333500Y983160D02*
X350500D01*
X333500Y953160D02*
Y983160D01*
Y953160D02*
X350500D01*
Y983160D01*
X204730Y952910D02*
Y980910D01*
X189480Y952910D02*
X204730D01*
X189480D02*
Y980910D01*
X204730D01*
X1141750Y664000D02*
X1171500D01*
X1141750Y649000D02*
Y664000D01*
Y649000D02*
X1171500D01*
Y664000D01*
X1136250Y626250D02*
X1166000D01*
X1136250Y611250D02*
Y626250D01*
Y611250D02*
X1166000D01*
Y626250D01*
X1175250Y632500D02*
X1205000D01*
Y647500D01*
X1175250D02*
X1205000D01*
X1175250Y632500D02*
Y647500D01*
X1175250Y615750D02*
X1205000D01*
Y630750D01*
X1175250D02*
X1205000D01*
X1175250Y615750D02*
Y630750D01*
X364090Y781730D02*
X392090D01*
Y766480D02*
Y781730D01*
X364090Y766480D02*
X392090D01*
X364090D02*
Y781730D01*
X415270Y792090D02*
Y820090D01*
X430520D01*
Y792090D02*
Y820090D01*
X415270Y792090D02*
X430520D01*
X363270D02*
Y820090D01*
X378520D01*
Y792090D02*
Y820090D01*
X363270Y792090D02*
X378520D01*
X307340Y871000D02*
X335340D01*
Y855750D02*
Y871000D01*
X307340Y855750D02*
X335340D01*
X307340D02*
Y871000D01*
X291980Y840578D02*
Y868578D01*
X276730Y840578D02*
X291980D01*
X276730D02*
Y868578D01*
X291980D01*
X219340Y857000D02*
X247340D01*
Y841750D02*
Y857000D01*
X219340Y841750D02*
X247340D01*
X219340D02*
Y857000D01*
X247090Y788730D02*
X275090D01*
Y773480D02*
Y788730D01*
X247090Y773480D02*
X275090D01*
X247090D02*
Y788730D01*
X178160Y841540D02*
X206160D01*
X178160D02*
Y856790D01*
X206160D01*
Y841540D02*
Y856790D01*
X394000Y905000D02*
X410000D01*
X394000Y877000D02*
X410000D01*
Y905000D01*
X394000Y877000D02*
Y905000D01*
X402000Y886000D02*
Y896000D01*
X397000Y891000D02*
X407000D01*
X293250Y824020D02*
X333250D01*
Y788520D02*
Y824020D01*
X293250Y788520D02*
X333250D01*
X293250D02*
Y824020D01*
X180250Y791520D02*
X220250D01*
X180250D02*
Y827020D01*
X220250D01*
Y791520D02*
Y827020D01*
X305250Y847770D02*
X335000D01*
Y832770D02*
Y847770D01*
X305250Y832770D02*
X335000D01*
X305250D02*
Y847770D01*
X254750Y840668D02*
Y870418D01*
X269750D01*
Y840668D02*
Y870418D01*
X254750Y840668D02*
X269750D01*
X179250Y767500D02*
X209000D01*
X179250D02*
Y782500D01*
X209000D01*
Y767500D02*
Y782500D01*
X378000Y929500D02*
X407750D01*
Y914500D02*
Y929500D01*
X378000Y914500D02*
X407750D01*
X378000D02*
Y929500D01*
X1461250Y595500D02*
X1491000D01*
X1461250D02*
Y610500D01*
X1491000D01*
Y595500D02*
Y610500D01*
X1461250Y618500D02*
X1491000D01*
X1461250D02*
Y633500D01*
X1491000D01*
Y618500D02*
Y633500D01*
X44350Y1034500D02*
X166500D01*
X44350Y852350D02*
Y1034500D01*
Y852350D02*
X166500D01*
Y1034500D01*
X517820Y71800D02*
X522020Y67600D01*
X509520Y71800D02*
X522020D01*
X509520Y54800D02*
Y71800D01*
Y54800D02*
X522020D01*
Y71800D01*
X540820D02*
X545020Y67600D01*
X532520Y71800D02*
X545020D01*
X532520Y54800D02*
Y71800D01*
Y54800D02*
X545020D01*
Y71800D01*
D109*
X559840Y62230D02*
Y180730D01*
X694840D01*
Y62230D02*
Y180730D01*
X559840Y62230D02*
X694840D01*
X919000Y88000D02*
Y170000D01*
X1001000D01*
Y88000D02*
Y170000D01*
X919000Y88000D02*
X1001000D01*
X1146110Y84480D02*
Y111480D01*
X1110110D02*
X1146110D01*
X1110110Y84480D02*
Y111480D01*
Y84480D02*
X1146110D01*
X381870Y839070D02*
Y864570D01*
X356620Y839070D02*
X381870D01*
X356620D02*
Y864570D01*
X381870D01*
X422750Y903500D02*
X447750D01*
Y878750D02*
Y903500D01*
X422750Y878750D02*
X447750D01*
X422750D02*
Y903500D01*
X123500Y806000D02*
Y842250D01*
X56250D02*
X123500D01*
X56250Y806000D02*
Y842250D01*
Y806000D02*
X123500D01*
X476500Y869268D02*
X489750D01*
Y840068D02*
Y869268D01*
X476500Y840068D02*
X489750D01*
X476500D02*
Y869268D01*
X1077470Y171230D02*
X1092470D01*
Y198730D01*
X1077470D02*
X1092470D01*
X1077470Y171230D02*
Y198730D01*
X868770Y132000D02*
Y147000D01*
X841270D02*
X868770D01*
X841270Y132000D02*
Y147000D01*
Y132000D02*
X868770D01*
Y202720D02*
Y217720D01*
X841270D02*
X868770D01*
X841270Y202720D02*
Y217720D01*
Y202720D02*
X868770D01*
Y93720D02*
Y108720D01*
X841270D02*
X868770D01*
X841270Y93720D02*
Y108720D01*
Y93720D02*
X868770D01*
Y21720D02*
Y36720D01*
X841270D02*
X868770D01*
X841270Y21720D02*
Y36720D01*
Y21720D02*
X868770D01*
X1164020Y560720D02*
Y575720D01*
X1136520D02*
X1164020D01*
X1136520Y560720D02*
Y575720D01*
Y560720D02*
X1164020D01*
X1202020Y724720D02*
Y739720D01*
X1174520D02*
X1202020D01*
X1174520Y724720D02*
Y739720D01*
Y724720D02*
X1202020D01*
X187950Y886500D02*
Y945500D01*
Y886500D02*
X279700D01*
Y945500D01*
X187950D02*
X279700D01*
X240500Y826000D02*
X271500D01*
Y798000D02*
Y826000D01*
X240500Y798000D02*
X271500D01*
X240500D02*
Y826000D01*
X388110Y794500D02*
X407000D01*
Y815160D01*
X388110D02*
X407000D01*
X388110Y794500D02*
Y815160D01*
M02*
