G04 Layer_Color=65535*
%FSLAX44Y44*%
%MOMM*%
G71*
G01*
G75*
%ADD109C,0.0500*%
%ADD182C,2.4892*%
%ADD183C,0.4572*%
G36*
X1756651Y814050D02*
X1666530D01*
Y869387D01*
X1756651D01*
Y814050D01*
D02*
G37*
G36*
X1657923Y820750D02*
X1643930D01*
Y855751D01*
X1657923D01*
Y820750D01*
D02*
G37*
G36*
X1754539Y920750D02*
X1742630D01*
Y926884D01*
X1754539D01*
Y920750D01*
D02*
G37*
D109*
X1232200Y696490D02*
X1232350Y638490D01*
X1271700D01*
Y696490D01*
X1232200D02*
X1271700D01*
X1627180Y774750D02*
X1767180D01*
X1627180Y772250D02*
Y774750D01*
X1617180Y772250D02*
X1627180D01*
X1617180D02*
Y942250D01*
X1767180D01*
Y774750D02*
Y942250D01*
X672510Y941800D02*
Y983710D01*
X639490D02*
X672510D01*
X639490Y941800D02*
Y983710D01*
Y941800D02*
X672510D01*
X720490D02*
X753510D01*
X720490D02*
Y983710D01*
X753510D01*
Y941800D02*
Y983710D01*
D182*
X35410Y72000D02*
G03*
X57000Y50410I21590J0D01*
G01*
X78590Y72000D02*
G03*
X57000Y93590I-21590J0D01*
G01*
X35410Y662000D02*
G03*
X57000Y640410I21590J0D01*
G01*
X78590Y662000D02*
G03*
X57000Y683590I-21590J0D01*
G01*
X1715410Y72000D02*
G03*
X1737000Y50410I21590J0D01*
G01*
X1758590Y72000D02*
G03*
X1737000Y93590I-21590J0D01*
G01*
X1720410Y661000D02*
G03*
X1742000Y639410I21590J0D01*
G01*
X1763590Y661000D02*
G03*
X1742000Y682590I-21590J0D01*
G01*
X1168410Y301021D02*
G03*
X1190000Y279431I21590J0D01*
G01*
X1211590Y301021D02*
G03*
X1190000Y322611I-21590J0D01*
G01*
X588410Y302021D02*
G03*
X610000Y280431I21590J0D01*
G01*
X631590Y302021D02*
G03*
X610000Y323611I-21590J0D01*
G01*
X1167410Y793021D02*
G03*
X1189000Y771431I21590J0D01*
G01*
X1210590Y793021D02*
G03*
X1189000Y814611I-21590J0D01*
G01*
X588410Y792000D02*
G03*
X610000Y770410I21590J0D01*
G01*
X631590Y792000D02*
G03*
X610000Y813590I-21590J0D01*
G01*
D183*
X64620Y72000D02*
G03*
X64620Y72000I-7620J0D01*
G01*
Y662000D02*
G03*
X64620Y662000I-7620J0D01*
G01*
X1744620Y72000D02*
G03*
X1744620Y72000I-7620J0D01*
G01*
X1749620Y661000D02*
G03*
X1749620Y661000I-7620J0D01*
G01*
X1197620Y301021D02*
G03*
X1197620Y301021I-7620J0D01*
G01*
X617620Y302021D02*
G03*
X617620Y302021I-7620J0D01*
G01*
X1196620Y793021D02*
G03*
X1196620Y793021I-7620J0D01*
G01*
X617620Y792000D02*
G03*
X617620Y792000I-7620J0D01*
G01*
M02*
