G04 Layer_Color=11599871*
%FSLAX44Y44*%
%MOMM*%
G71*
G01*
G75*
%ADD63C,0.2540*%
%ADD64C,0.4500*%
%ADD105C,0.1524*%
G36*
X473194Y1064708D02*
X473404Y1064685D01*
X473638Y1064638D01*
X473895Y1064591D01*
X474198Y1064545D01*
X474829Y1064334D01*
X475157Y1064217D01*
X475484Y1064054D01*
X475811Y1063890D01*
X476138Y1063657D01*
X476442Y1063423D01*
X476746Y1063142D01*
X476769Y1063119D01*
X476816Y1063072D01*
X476886Y1062979D01*
X476979Y1062862D01*
X477096Y1062699D01*
X477236Y1062488D01*
X477377Y1062254D01*
X477517Y1061997D01*
X477657Y1061717D01*
X477797Y1061367D01*
X477937Y1061016D01*
X478054Y1060619D01*
X478148Y1060198D01*
X478218Y1059754D01*
X478265Y1059287D01*
X478288Y1058773D01*
Y1058749D01*
Y1058679D01*
Y1058562D01*
Y1058399D01*
X478265Y1058212D01*
X478241Y1057978D01*
Y1057745D01*
X478195Y1057487D01*
X478124Y1056903D01*
X477984Y1056319D01*
X477821Y1055735D01*
X477587Y1055197D01*
Y1055174D01*
X477564Y1055151D01*
X477517Y1055080D01*
X477470Y1054987D01*
X477307Y1054753D01*
X477096Y1054473D01*
X476816Y1054146D01*
X476465Y1053819D01*
X476068Y1053492D01*
X475601Y1053188D01*
X475577D01*
X475554Y1053164D01*
X475484Y1053118D01*
X475367Y1053071D01*
X475250Y1053024D01*
X475110Y1052977D01*
X474759Y1052837D01*
X474362Y1052720D01*
X473871Y1052604D01*
X473357Y1052510D01*
X472797Y1052487D01*
X472563D01*
X472376Y1052510D01*
X472165Y1052533D01*
X471932Y1052580D01*
X471651Y1052627D01*
X471371Y1052674D01*
X470740Y1052861D01*
X470390Y1053001D01*
X470062Y1053141D01*
X469735Y1053328D01*
X469408Y1053538D01*
X469104Y1053772D01*
X468801Y1054052D01*
X468777Y1054076D01*
X468730Y1054122D01*
X468660Y1054216D01*
X468567Y1054356D01*
X468450Y1054520D01*
X468333Y1054707D01*
X468193Y1054940D01*
X468053Y1055221D01*
X467913Y1055525D01*
X467772Y1055875D01*
X467655Y1056249D01*
X467539Y1056646D01*
X467445Y1057090D01*
X467375Y1057558D01*
X467328Y1058072D01*
X467305Y1058609D01*
Y1058656D01*
Y1058749D01*
X467328Y1058913D01*
Y1059146D01*
X467352Y1059404D01*
X467398Y1059731D01*
X467445Y1060058D01*
X467539Y1060432D01*
X467632Y1060806D01*
X467749Y1061203D01*
X467889Y1061624D01*
X468076Y1062021D01*
X468263Y1062395D01*
X468520Y1062769D01*
X468777Y1063119D01*
X469104Y1063423D01*
X469128Y1063446D01*
X469174Y1063470D01*
X469268Y1063540D01*
X469385Y1063633D01*
X469525Y1063727D01*
X469712Y1063844D01*
X469899Y1063960D01*
X470132Y1064077D01*
X470390Y1064194D01*
X470670Y1064311D01*
X471301Y1064521D01*
X472025Y1064685D01*
X472399Y1064708D01*
X472797Y1064732D01*
X473030D01*
X473194Y1064708D01*
D02*
G37*
G36*
X602746Y1088833D02*
X602956D01*
X603447Y1088810D01*
X603961Y1088740D01*
X604522Y1088670D01*
X605036Y1088553D01*
X605293Y1088483D01*
X605503Y1088413D01*
X605527D01*
X605550Y1088389D01*
X605690Y1088319D01*
X605901Y1088226D01*
X606158Y1088062D01*
X606438Y1087852D01*
X606742Y1087571D01*
X607022Y1087244D01*
X607303Y1086870D01*
Y1086847D01*
X607326Y1086824D01*
X607420Y1086683D01*
X607513Y1086450D01*
X607653Y1086146D01*
X607770Y1085795D01*
X607887Y1085375D01*
X607957Y1084931D01*
X607980Y1084440D01*
Y1084417D01*
Y1084370D01*
Y1084277D01*
X607957Y1084160D01*
Y1083996D01*
X607934Y1083832D01*
X607840Y1083435D01*
X607700Y1082968D01*
X607513Y1082477D01*
X607233Y1081986D01*
X607046Y1081753D01*
X606859Y1081519D01*
X606835Y1081496D01*
X606812Y1081472D01*
X606742Y1081402D01*
X606648Y1081332D01*
X606531Y1081239D01*
X606391Y1081145D01*
X606204Y1081028D01*
X606017Y1080888D01*
X605784Y1080771D01*
X605527Y1080655D01*
X605246Y1080514D01*
X604943Y1080397D01*
X604592Y1080304D01*
X604241Y1080187D01*
X603844Y1080117D01*
X603424Y1080047D01*
X603470Y1080023D01*
X603564Y1079977D01*
X603704Y1079883D01*
X603891Y1079790D01*
X604312Y1079533D01*
X604522Y1079369D01*
X604709Y1079229D01*
X604756Y1079182D01*
X604872Y1079065D01*
X605059Y1078878D01*
X605293Y1078645D01*
X605550Y1078318D01*
X605854Y1077967D01*
X606158Y1077546D01*
X606485Y1077079D01*
X609266Y1072686D01*
X606602D01*
X604475Y1076051D01*
Y1076074D01*
X604428Y1076121D01*
X604382Y1076191D01*
X604312Y1076285D01*
X604148Y1076542D01*
X603938Y1076869D01*
X603681Y1077219D01*
X603424Y1077593D01*
X603167Y1077944D01*
X602933Y1078271D01*
X602910Y1078294D01*
X602839Y1078388D01*
X602723Y1078528D01*
X602559Y1078691D01*
X602208Y1079042D01*
X602021Y1079206D01*
X601835Y1079346D01*
X601811Y1079369D01*
X601764Y1079393D01*
X601671Y1079439D01*
X601531Y1079509D01*
X601391Y1079579D01*
X601227Y1079650D01*
X600853Y1079766D01*
X600830D01*
X600783Y1079790D01*
X600690D01*
X600573Y1079813D01*
X600409Y1079837D01*
X600222D01*
X599965Y1079860D01*
X597208D01*
Y1072686D01*
X595058D01*
Y1088857D01*
X602559D01*
X602746Y1088833D01*
D02*
G37*
G36*
X588585Y1072686D02*
X586482D01*
X583093Y1085001D01*
Y1085024D01*
X583070Y1085071D01*
X583047Y1085141D01*
X583023Y1085258D01*
X582953Y1085515D01*
X582883Y1085819D01*
X582790Y1086146D01*
X582696Y1086450D01*
X582626Y1086707D01*
X582603Y1086824D01*
X582579Y1086894D01*
Y1086870D01*
X582556Y1086847D01*
X582533Y1086707D01*
X582486Y1086497D01*
X582416Y1086239D01*
X582346Y1085959D01*
X582252Y1085632D01*
X582182Y1085305D01*
X582089Y1085001D01*
X578677Y1072686D01*
X576433D01*
X572204Y1088857D01*
X574424D01*
X576831Y1078248D01*
Y1078224D01*
X576854Y1078177D01*
X576878Y1078084D01*
X576901Y1077967D01*
X576924Y1077804D01*
X576971Y1077640D01*
X577018Y1077430D01*
X577065Y1077196D01*
X577181Y1076705D01*
X577298Y1076144D01*
X577415Y1075537D01*
X577532Y1074929D01*
Y1074953D01*
X577555Y1075046D01*
X577602Y1075163D01*
X577625Y1075350D01*
X577672Y1075537D01*
X577742Y1075770D01*
X577859Y1076285D01*
X577999Y1076799D01*
X578046Y1077056D01*
X578116Y1077290D01*
X578163Y1077500D01*
X578209Y1077687D01*
X578256Y1077827D01*
X578280Y1077920D01*
X581341Y1088857D01*
X583935D01*
X586225Y1080655D01*
Y1080631D01*
X586272Y1080514D01*
X586318Y1080351D01*
X586365Y1080140D01*
X586435Y1079860D01*
X586529Y1079556D01*
X586622Y1079206D01*
X586716Y1078808D01*
X586832Y1078364D01*
X586926Y1077920D01*
X587136Y1076962D01*
X587346Y1075957D01*
X587510Y1074929D01*
Y1074953D01*
X587533Y1074999D01*
Y1075093D01*
X587580Y1075210D01*
X587603Y1075350D01*
X587650Y1075514D01*
X587674Y1075724D01*
X587744Y1075957D01*
X587860Y1076472D01*
X588001Y1077079D01*
X588141Y1077734D01*
X588328Y1078458D01*
X590852Y1088857D01*
X593025D01*
X588585Y1072686D01*
D02*
G37*
G36*
X457958D02*
X455855D01*
X452466Y1085001D01*
Y1085024D01*
X452443Y1085071D01*
X452420Y1085141D01*
X452396Y1085258D01*
X452326Y1085515D01*
X452256Y1085819D01*
X452163Y1086146D01*
X452069Y1086450D01*
X451999Y1086707D01*
X451976Y1086824D01*
X451952Y1086894D01*
Y1086870D01*
X451929Y1086847D01*
X451906Y1086707D01*
X451859Y1086497D01*
X451789Y1086239D01*
X451718Y1085959D01*
X451625Y1085632D01*
X451555Y1085305D01*
X451461Y1085001D01*
X448050Y1072686D01*
X445806D01*
X441577Y1088857D01*
X443797D01*
X446204Y1078248D01*
Y1078224D01*
X446227Y1078177D01*
X446250Y1078084D01*
X446274Y1077967D01*
X446297Y1077804D01*
X446344Y1077640D01*
X446391Y1077430D01*
X446437Y1077196D01*
X446554Y1076705D01*
X446671Y1076144D01*
X446788Y1075537D01*
X446905Y1074929D01*
Y1074953D01*
X446928Y1075046D01*
X446975Y1075163D01*
X446998Y1075350D01*
X447045Y1075537D01*
X447115Y1075770D01*
X447232Y1076285D01*
X447372Y1076799D01*
X447419Y1077056D01*
X447489Y1077290D01*
X447536Y1077500D01*
X447582Y1077687D01*
X447629Y1077827D01*
X447653Y1077920D01*
X450714Y1088857D01*
X453308D01*
X455598Y1080655D01*
Y1080631D01*
X455644Y1080514D01*
X455691Y1080351D01*
X455738Y1080140D01*
X455808Y1079860D01*
X455901Y1079556D01*
X455995Y1079206D01*
X456088Y1078808D01*
X456205Y1078364D01*
X456299Y1077920D01*
X456509Y1076962D01*
X456719Y1075957D01*
X456883Y1074929D01*
Y1074953D01*
X456906Y1074999D01*
Y1075093D01*
X456953Y1075210D01*
X456976Y1075350D01*
X457023Y1075514D01*
X457046Y1075724D01*
X457117Y1075957D01*
X457233Y1076472D01*
X457374Y1077079D01*
X457514Y1077734D01*
X457701Y1078458D01*
X460224Y1088857D01*
X462398D01*
X457958Y1072686D01*
D02*
G37*
G36*
X565614Y1088833D02*
X566011Y1088810D01*
X566432Y1088786D01*
X566829Y1088740D01*
X567180Y1088693D01*
X567227D01*
X567390Y1088646D01*
X567600Y1088600D01*
X567881Y1088530D01*
X568185Y1088413D01*
X568512Y1088272D01*
X568862Y1088109D01*
X569166Y1087922D01*
X569213Y1087898D01*
X569306Y1087828D01*
X569446Y1087688D01*
X569633Y1087525D01*
X569844Y1087314D01*
X570054Y1087034D01*
X570288Y1086730D01*
X570475Y1086380D01*
X570498Y1086333D01*
X570545Y1086216D01*
X570638Y1086006D01*
X570732Y1085725D01*
X570802Y1085398D01*
X570895Y1085024D01*
X570942Y1084604D01*
X570965Y1084160D01*
Y1084136D01*
Y1084066D01*
Y1083973D01*
X570942Y1083809D01*
X570919Y1083646D01*
X570895Y1083435D01*
X570849Y1083202D01*
X570802Y1082944D01*
X570638Y1082407D01*
X570545Y1082127D01*
X570405Y1081823D01*
X570241Y1081519D01*
X570077Y1081239D01*
X569867Y1080958D01*
X569633Y1080678D01*
X569610Y1080655D01*
X569563Y1080608D01*
X569493Y1080538D01*
X569376Y1080468D01*
X569236Y1080351D01*
X569049Y1080234D01*
X568816Y1080094D01*
X568559Y1079977D01*
X568255Y1079837D01*
X567904Y1079696D01*
X567530Y1079579D01*
X567086Y1079486D01*
X566619Y1079393D01*
X566105Y1079323D01*
X565521Y1079276D01*
X564913Y1079252D01*
X560777D01*
Y1072686D01*
X558627D01*
Y1088857D01*
X565264D01*
X565614Y1088833D01*
D02*
G37*
G36*
X493991D02*
X494389Y1088810D01*
X494809Y1088786D01*
X495206Y1088740D01*
X495557Y1088693D01*
X495604D01*
X495767Y1088646D01*
X495978Y1088600D01*
X496258Y1088530D01*
X496562Y1088413D01*
X496889Y1088272D01*
X497239Y1088109D01*
X497543Y1087922D01*
X497590Y1087898D01*
X497683Y1087828D01*
X497824Y1087688D01*
X498010Y1087525D01*
X498221Y1087314D01*
X498431Y1087034D01*
X498665Y1086730D01*
X498852Y1086380D01*
X498875Y1086333D01*
X498922Y1086216D01*
X499015Y1086006D01*
X499109Y1085725D01*
X499179Y1085398D01*
X499272Y1085024D01*
X499319Y1084604D01*
X499342Y1084160D01*
Y1084136D01*
Y1084066D01*
Y1083973D01*
X499319Y1083809D01*
X499296Y1083646D01*
X499272Y1083435D01*
X499226Y1083202D01*
X499179Y1082944D01*
X499015Y1082407D01*
X498922Y1082127D01*
X498782Y1081823D01*
X498618Y1081519D01*
X498455Y1081239D01*
X498244Y1080958D01*
X498010Y1080678D01*
X497987Y1080655D01*
X497940Y1080608D01*
X497870Y1080538D01*
X497753Y1080468D01*
X497613Y1080351D01*
X497426Y1080234D01*
X497193Y1080094D01*
X496936Y1079977D01*
X496632Y1079837D01*
X496281Y1079696D01*
X495907Y1079579D01*
X495463Y1079486D01*
X494996Y1079393D01*
X494482Y1079323D01*
X493898Y1079276D01*
X493290Y1079252D01*
X489154D01*
Y1072686D01*
X487004D01*
Y1088857D01*
X493641D01*
X493991Y1088833D01*
D02*
G37*
G36*
X472119D02*
X472329D01*
X472820Y1088810D01*
X473334Y1088740D01*
X473895Y1088670D01*
X474409Y1088553D01*
X474666Y1088483D01*
X474876Y1088413D01*
X474900D01*
X474923Y1088389D01*
X475063Y1088319D01*
X475274Y1088226D01*
X475531Y1088062D01*
X475811Y1087852D01*
X476115Y1087571D01*
X476395Y1087244D01*
X476676Y1086870D01*
Y1086847D01*
X476699Y1086824D01*
X476792Y1086683D01*
X476886Y1086450D01*
X477026Y1086146D01*
X477143Y1085795D01*
X477260Y1085375D01*
X477330Y1084931D01*
X477353Y1084440D01*
Y1084417D01*
Y1084370D01*
Y1084277D01*
X477330Y1084160D01*
Y1083996D01*
X477307Y1083832D01*
X477213Y1083435D01*
X477073Y1082968D01*
X476886Y1082477D01*
X476605Y1081986D01*
X476418Y1081753D01*
X476232Y1081519D01*
X476208Y1081496D01*
X476185Y1081472D01*
X476115Y1081402D01*
X476021Y1081332D01*
X475904Y1081239D01*
X475764Y1081145D01*
X475577Y1081028D01*
X475390Y1080888D01*
X475157Y1080771D01*
X474900Y1080655D01*
X474619Y1080514D01*
X474315Y1080397D01*
X473965Y1080304D01*
X473614Y1080187D01*
X473217Y1080117D01*
X472797Y1080047D01*
X472843Y1080023D01*
X472937Y1079977D01*
X473077Y1079883D01*
X473264Y1079790D01*
X473684Y1079533D01*
X473895Y1079369D01*
X474082Y1079229D01*
X474128Y1079182D01*
X474245Y1079065D01*
X474432Y1078878D01*
X474666Y1078645D01*
X474923Y1078318D01*
X475227Y1077967D01*
X475531Y1077546D01*
X475858Y1077079D01*
X478638Y1072686D01*
X475975D01*
X473848Y1076051D01*
Y1076074D01*
X473801Y1076121D01*
X473755Y1076191D01*
X473684Y1076285D01*
X473521Y1076542D01*
X473311Y1076869D01*
X473054Y1077219D01*
X472797Y1077593D01*
X472539Y1077944D01*
X472306Y1078271D01*
X472282Y1078294D01*
X472212Y1078388D01*
X472095Y1078528D01*
X471932Y1078691D01*
X471581Y1079042D01*
X471394Y1079206D01*
X471207Y1079346D01*
X471184Y1079369D01*
X471137Y1079393D01*
X471044Y1079439D01*
X470904Y1079509D01*
X470763Y1079579D01*
X470600Y1079650D01*
X470226Y1079766D01*
X470203D01*
X470156Y1079790D01*
X470062D01*
X469946Y1079813D01*
X469782Y1079837D01*
X469595D01*
X469338Y1079860D01*
X466581D01*
Y1072686D01*
X464431D01*
Y1088857D01*
X471932D01*
X472119Y1088833D01*
D02*
G37*
G36*
X512312Y1084650D02*
X512662Y1084627D01*
X513060Y1084580D01*
X513457Y1084510D01*
X513854Y1084417D01*
X514228Y1084300D01*
X514275Y1084277D01*
X514392Y1084230D01*
X514555Y1084160D01*
X514765Y1084066D01*
X514999Y1083926D01*
X515233Y1083786D01*
X515443Y1083599D01*
X515630Y1083412D01*
X515653Y1083389D01*
X515700Y1083318D01*
X515770Y1083202D01*
X515864Y1083061D01*
X515980Y1082851D01*
X516074Y1082641D01*
X516167Y1082384D01*
X516238Y1082080D01*
Y1082057D01*
X516261Y1081986D01*
X516284Y1081846D01*
X516308Y1081659D01*
Y1081402D01*
X516331Y1081098D01*
X516354Y1080701D01*
Y1080257D01*
Y1077593D01*
Y1077570D01*
Y1077476D01*
Y1077336D01*
Y1077149D01*
Y1076939D01*
Y1076682D01*
X516378Y1076121D01*
Y1075537D01*
X516401Y1074953D01*
X516424Y1074696D01*
Y1074462D01*
X516448Y1074252D01*
X516471Y1074088D01*
Y1074065D01*
X516495Y1073971D01*
X516518Y1073831D01*
X516588Y1073644D01*
X516635Y1073434D01*
X516728Y1073200D01*
X516845Y1072943D01*
X516962Y1072686D01*
X514882D01*
X514859Y1072709D01*
X514836Y1072803D01*
X514789Y1072920D01*
X514719Y1073107D01*
X514649Y1073317D01*
X514602Y1073574D01*
X514555Y1073854D01*
X514508Y1074158D01*
X514485D01*
X514462Y1074111D01*
X514321Y1073995D01*
X514111Y1073831D01*
X513831Y1073621D01*
X513480Y1073410D01*
X513130Y1073177D01*
X512756Y1072966D01*
X512359Y1072803D01*
X512312Y1072779D01*
X512172Y1072756D01*
X511961Y1072686D01*
X511704Y1072616D01*
X511377Y1072546D01*
X511003Y1072499D01*
X510583Y1072452D01*
X510162Y1072429D01*
X509975D01*
X509835Y1072452D01*
X509671D01*
X509484Y1072476D01*
X509064Y1072546D01*
X508596Y1072663D01*
X508082Y1072826D01*
X507615Y1073060D01*
X507194Y1073364D01*
X507147Y1073410D01*
X507031Y1073527D01*
X506867Y1073737D01*
X506680Y1074018D01*
X506493Y1074369D01*
X506329Y1074766D01*
X506213Y1075256D01*
X506189Y1075490D01*
X506166Y1075770D01*
Y1075817D01*
Y1075911D01*
X506189Y1076074D01*
X506213Y1076285D01*
X506259Y1076542D01*
X506329Y1076799D01*
X506423Y1077079D01*
X506540Y1077336D01*
X506563Y1077360D01*
X506610Y1077453D01*
X506703Y1077593D01*
X506820Y1077757D01*
X506960Y1077944D01*
X507147Y1078131D01*
X507334Y1078318D01*
X507568Y1078481D01*
X507591Y1078505D01*
X507685Y1078551D01*
X507802Y1078645D01*
X507989Y1078738D01*
X508199Y1078832D01*
X508456Y1078949D01*
X508713Y1079042D01*
X509017Y1079136D01*
X509040D01*
X509134Y1079159D01*
X509274Y1079206D01*
X509461Y1079229D01*
X509695Y1079276D01*
X509998Y1079323D01*
X510349Y1079393D01*
X510770Y1079439D01*
X510793D01*
X510886Y1079463D01*
X511003D01*
X511167Y1079486D01*
X511354Y1079509D01*
X511587Y1079556D01*
X511844Y1079579D01*
X512125Y1079626D01*
X512686Y1079743D01*
X513293Y1079860D01*
X513831Y1080000D01*
X514088Y1080070D01*
X514321Y1080140D01*
Y1080164D01*
Y1080210D01*
X514345Y1080351D01*
Y1080514D01*
Y1080608D01*
Y1080655D01*
Y1080678D01*
Y1080701D01*
Y1080841D01*
X514321Y1081075D01*
X514275Y1081332D01*
X514205Y1081612D01*
X514088Y1081893D01*
X513947Y1082150D01*
X513761Y1082360D01*
X513737Y1082384D01*
X513620Y1082477D01*
X513433Y1082571D01*
X513200Y1082711D01*
X512873Y1082828D01*
X512499Y1082944D01*
X512031Y1083015D01*
X511494Y1083038D01*
X511260D01*
X511026Y1083015D01*
X510699Y1082968D01*
X510372Y1082921D01*
X510022Y1082828D01*
X509695Y1082711D01*
X509414Y1082547D01*
X509391Y1082524D01*
X509297Y1082454D01*
X509180Y1082337D01*
X509040Y1082150D01*
X508900Y1081916D01*
X508736Y1081612D01*
X508596Y1081239D01*
X508456Y1080818D01*
X506516Y1081075D01*
Y1081098D01*
X506540Y1081122D01*
Y1081192D01*
X506563Y1081285D01*
X506633Y1081496D01*
X506727Y1081799D01*
X506844Y1082103D01*
X506984Y1082430D01*
X507171Y1082758D01*
X507381Y1083061D01*
X507405Y1083085D01*
X507498Y1083178D01*
X507638Y1083318D01*
X507825Y1083505D01*
X508082Y1083692D01*
X508386Y1083879D01*
X508736Y1084090D01*
X509134Y1084253D01*
X509157D01*
X509180Y1084277D01*
X509250Y1084300D01*
X509344Y1084323D01*
X509578Y1084393D01*
X509905Y1084463D01*
X510279Y1084533D01*
X510746Y1084604D01*
X511237Y1084650D01*
X511798Y1084674D01*
X512055D01*
X512312Y1084650D01*
D02*
G37*
G36*
X503759Y1072686D02*
X501773D01*
Y1088857D01*
X503759D01*
Y1072686D01*
D02*
G37*
G36*
X535212Y1104336D02*
X535399Y1104312D01*
X535633Y1104266D01*
X535890Y1104219D01*
X536194Y1104149D01*
X536474Y1104079D01*
X536801Y1103962D01*
X537105Y1103845D01*
X537432Y1103681D01*
X537760Y1103494D01*
X538087Y1103284D01*
X538390Y1103027D01*
X538671Y1102747D01*
X538694Y1102723D01*
X538741Y1102676D01*
X538811Y1102583D01*
X538904Y1102443D01*
X539021Y1102279D01*
X539138Y1102092D01*
X539278Y1101859D01*
X539419Y1101578D01*
X539559Y1101274D01*
X539699Y1100947D01*
X539816Y1100573D01*
X539933Y1100176D01*
X540026Y1099732D01*
X540096Y1099265D01*
X540143Y1098774D01*
X540166Y1098236D01*
Y1098213D01*
Y1098120D01*
Y1097956D01*
X540143Y1097722D01*
X531380D01*
Y1097699D01*
Y1097629D01*
X531403Y1097535D01*
Y1097395D01*
X531427Y1097232D01*
X531474Y1097045D01*
X531544Y1096624D01*
X531684Y1096157D01*
X531871Y1095643D01*
X532128Y1095175D01*
X532455Y1094755D01*
X532478D01*
X532502Y1094708D01*
X532642Y1094591D01*
X532852Y1094428D01*
X533133Y1094264D01*
X533507Y1094077D01*
X533927Y1093913D01*
X534394Y1093797D01*
X534652Y1093773D01*
X534932Y1093750D01*
X535119D01*
X535329Y1093773D01*
X535586Y1093820D01*
X535867Y1093890D01*
X536194Y1093984D01*
X536498Y1094124D01*
X536801Y1094311D01*
X536825Y1094334D01*
X536942Y1094428D01*
X537082Y1094568D01*
X537245Y1094755D01*
X537432Y1095012D01*
X537643Y1095339D01*
X537853Y1095713D01*
X538040Y1096157D01*
X540096Y1095900D01*
Y1095876D01*
X540073Y1095830D01*
X540050Y1095736D01*
X540003Y1095596D01*
X539933Y1095456D01*
X539863Y1095269D01*
X539676Y1094872D01*
X539442Y1094428D01*
X539115Y1093960D01*
X538741Y1093516D01*
X538274Y1093096D01*
X538250D01*
X538204Y1093049D01*
X538133Y1093002D01*
X538040Y1092932D01*
X537900Y1092862D01*
X537760Y1092792D01*
X537573Y1092698D01*
X537362Y1092605D01*
X537129Y1092511D01*
X536895Y1092418D01*
X536311Y1092278D01*
X535656Y1092161D01*
X534932Y1092114D01*
X534675D01*
X534511Y1092138D01*
X534301Y1092161D01*
X534044Y1092208D01*
X533764Y1092254D01*
X533460Y1092301D01*
X532805Y1092488D01*
X532455Y1092628D01*
X532128Y1092768D01*
X531777Y1092955D01*
X531450Y1093166D01*
X531146Y1093399D01*
X530843Y1093680D01*
X530819Y1093703D01*
X530773Y1093750D01*
X530702Y1093843D01*
X530609Y1093984D01*
X530492Y1094147D01*
X530375Y1094334D01*
X530235Y1094568D01*
X530095Y1094825D01*
X529955Y1095129D01*
X529814Y1095456D01*
X529697Y1095830D01*
X529581Y1096227D01*
X529487Y1096647D01*
X529417Y1097115D01*
X529370Y1097606D01*
X529347Y1098120D01*
Y1098143D01*
Y1098260D01*
Y1098400D01*
X529370Y1098610D01*
X529394Y1098867D01*
X529417Y1099148D01*
X529464Y1099475D01*
X529534Y1099802D01*
X529721Y1100550D01*
X529838Y1100924D01*
X529978Y1101321D01*
X530165Y1101695D01*
X530375Y1102046D01*
X530609Y1102396D01*
X530866Y1102723D01*
X530889Y1102747D01*
X530936Y1102793D01*
X531030Y1102863D01*
X531146Y1102980D01*
X531287Y1103097D01*
X531474Y1103237D01*
X531684Y1103401D01*
X531941Y1103541D01*
X532198Y1103705D01*
X532502Y1103845D01*
X532829Y1103985D01*
X533179Y1104102D01*
X533553Y1104219D01*
X533951Y1104289D01*
X534371Y1104336D01*
X534815Y1104359D01*
X535049D01*
X535212Y1104336D01*
D02*
G37*
G36*
X525281Y1084650D02*
X525538Y1084627D01*
X525842Y1084580D01*
X526169Y1084510D01*
X526520Y1084417D01*
X526847Y1084277D01*
X526893Y1084253D01*
X526987Y1084206D01*
X527150Y1084136D01*
X527337Y1084019D01*
X527571Y1083879D01*
X527781Y1083692D01*
X527992Y1083505D01*
X528179Y1083272D01*
X528202Y1083248D01*
X528249Y1083155D01*
X528319Y1083038D01*
X528436Y1082874D01*
X528529Y1082641D01*
X528623Y1082407D01*
X528740Y1082127D01*
X528810Y1081823D01*
Y1081799D01*
X528833Y1081706D01*
X528856Y1081566D01*
X528880Y1081379D01*
Y1081098D01*
X528903Y1080771D01*
X528926Y1080374D01*
Y1079883D01*
Y1072686D01*
X526940D01*
Y1079790D01*
Y1079813D01*
Y1079837D01*
Y1080000D01*
Y1080210D01*
X526917Y1080468D01*
X526893Y1080771D01*
X526847Y1081075D01*
X526777Y1081356D01*
X526706Y1081612D01*
Y1081636D01*
X526660Y1081706D01*
X526590Y1081823D01*
X526520Y1081963D01*
X526403Y1082103D01*
X526262Y1082267D01*
X526076Y1082430D01*
X525865Y1082571D01*
X525842Y1082594D01*
X525772Y1082641D01*
X525631Y1082688D01*
X525468Y1082758D01*
X525281Y1082828D01*
X525047Y1082898D01*
X524767Y1082921D01*
X524487Y1082944D01*
X524370D01*
X524276Y1082921D01*
X524043Y1082898D01*
X523739Y1082851D01*
X523412Y1082734D01*
X523038Y1082594D01*
X522664Y1082407D01*
X522313Y1082127D01*
X522267Y1082080D01*
X522173Y1081963D01*
X522103Y1081870D01*
X522033Y1081753D01*
X521939Y1081612D01*
X521869Y1081449D01*
X521776Y1081262D01*
X521682Y1081028D01*
X521612Y1080771D01*
X521542Y1080491D01*
X521495Y1080187D01*
X521449Y1079860D01*
X521402Y1079463D01*
Y1079065D01*
Y1072686D01*
X519416D01*
Y1084417D01*
X521192D01*
Y1082734D01*
X521215Y1082758D01*
X521262Y1082828D01*
X521332Y1082921D01*
X521425Y1083038D01*
X521566Y1083178D01*
X521729Y1083342D01*
X521916Y1083529D01*
X522150Y1083716D01*
X522383Y1083879D01*
X522664Y1084066D01*
X522968Y1084230D01*
X523295Y1084370D01*
X523669Y1084487D01*
X524043Y1084580D01*
X524463Y1084650D01*
X524907Y1084674D01*
X525094D01*
X525281Y1084650D01*
D02*
G37*
G36*
X492028Y1108519D02*
X492426Y1108495D01*
X492846Y1108472D01*
X493243Y1108425D01*
X493594Y1108378D01*
X493641D01*
X493804Y1108332D01*
X494015Y1108285D01*
X494295Y1108215D01*
X494599Y1108098D01*
X494926Y1107958D01*
X495276Y1107794D01*
X495580Y1107607D01*
X495627Y1107584D01*
X495720Y1107514D01*
X495861Y1107373D01*
X496048Y1107210D01*
X496258Y1107000D01*
X496468Y1106719D01*
X496702Y1106415D01*
X496889Y1106065D01*
X496912Y1106018D01*
X496959Y1105901D01*
X497052Y1105691D01*
X497146Y1105411D01*
X497216Y1105083D01*
X497309Y1104709D01*
X497356Y1104289D01*
X497380Y1103845D01*
Y1103821D01*
Y1103751D01*
Y1103658D01*
X497356Y1103494D01*
X497333Y1103331D01*
X497309Y1103120D01*
X497263Y1102887D01*
X497216Y1102630D01*
X497052Y1102092D01*
X496959Y1101812D01*
X496819Y1101508D01*
X496655Y1101204D01*
X496492Y1100924D01*
X496281Y1100643D01*
X496048Y1100363D01*
X496024Y1100340D01*
X495978Y1100293D01*
X495907Y1100223D01*
X495791Y1100153D01*
X495650Y1100036D01*
X495463Y1099919D01*
X495230Y1099779D01*
X494973Y1099662D01*
X494669Y1099522D01*
X494318Y1099382D01*
X493945Y1099265D01*
X493501Y1099171D01*
X493033Y1099078D01*
X492519Y1099008D01*
X491935Y1098961D01*
X491327Y1098938D01*
X487191D01*
Y1092371D01*
X485041D01*
Y1108542D01*
X491678D01*
X492028Y1108519D01*
D02*
G37*
G36*
X469081D02*
X469548Y1108495D01*
X470016Y1108448D01*
X470483Y1108378D01*
X470880Y1108308D01*
X470904D01*
X470950Y1108285D01*
X471021D01*
X471114Y1108238D01*
X471371Y1108168D01*
X471698Y1108051D01*
X472072Y1107887D01*
X472469Y1107677D01*
X472867Y1107443D01*
X473241Y1107140D01*
X473264Y1107116D01*
X473287Y1107093D01*
X473357Y1107023D01*
X473451Y1106953D01*
X473684Y1106719D01*
X473965Y1106392D01*
X474269Y1105995D01*
X474596Y1105527D01*
X474900Y1104990D01*
X475157Y1104382D01*
Y1104359D01*
X475180Y1104312D01*
X475227Y1104219D01*
X475250Y1104079D01*
X475320Y1103915D01*
X475367Y1103728D01*
X475414Y1103518D01*
X475484Y1103261D01*
X475554Y1103004D01*
X475601Y1102700D01*
X475718Y1102046D01*
X475788Y1101321D01*
X475811Y1100527D01*
Y1100503D01*
Y1100456D01*
Y1100340D01*
Y1100223D01*
X475788Y1100059D01*
Y1099872D01*
X475764Y1099428D01*
X475694Y1098914D01*
X475624Y1098377D01*
X475507Y1097816D01*
X475367Y1097255D01*
Y1097232D01*
X475344Y1097185D01*
X475320Y1097115D01*
X475297Y1097021D01*
X475203Y1096764D01*
X475063Y1096437D01*
X474923Y1096063D01*
X474736Y1095689D01*
X474502Y1095292D01*
X474269Y1094918D01*
X474245Y1094872D01*
X474152Y1094755D01*
X474012Y1094591D01*
X473825Y1094381D01*
X473614Y1094147D01*
X473357Y1093913D01*
X473100Y1093656D01*
X472797Y1093446D01*
X472750Y1093423D01*
X472656Y1093353D01*
X472493Y1093259D01*
X472259Y1093142D01*
X471979Y1093002D01*
X471651Y1092885D01*
X471278Y1092745D01*
X470857Y1092628D01*
X470810D01*
X470740Y1092605D01*
X470670Y1092581D01*
X470436Y1092558D01*
X470109Y1092511D01*
X469735Y1092465D01*
X469291Y1092418D01*
X468801Y1092394D01*
X468263Y1092371D01*
X462444D01*
Y1108542D01*
X468660D01*
X469081Y1108519D01*
D02*
G37*
G36*
X523796Y1175964D02*
X524053Y1175918D01*
X524357Y1175824D01*
X524684Y1175707D01*
X525058Y1175544D01*
X525455Y1175333D01*
X524731Y1173511D01*
X524707Y1173534D01*
X524614Y1173581D01*
X524474Y1173651D01*
X524287Y1173721D01*
X524076Y1173791D01*
X523820Y1173861D01*
X523563Y1173908D01*
X523305Y1173931D01*
X523189D01*
X523072Y1173908D01*
X522908Y1173885D01*
X522745Y1173838D01*
X522534Y1173768D01*
X522324Y1173674D01*
X522137Y1173534D01*
X522114Y1173511D01*
X522043Y1173464D01*
X521973Y1173371D01*
X521857Y1173254D01*
X521740Y1173090D01*
X521623Y1172903D01*
X521506Y1172693D01*
X521413Y1172436D01*
X521389Y1172389D01*
X521366Y1172249D01*
X521319Y1172039D01*
X521249Y1171758D01*
X521179Y1171408D01*
X521132Y1171010D01*
X521109Y1170590D01*
X521085Y1170122D01*
Y1164000D01*
X519099D01*
Y1175731D01*
X520899D01*
Y1173955D01*
X520922Y1173978D01*
X521015Y1174142D01*
X521132Y1174352D01*
X521319Y1174609D01*
X521506Y1174866D01*
X521716Y1175146D01*
X521927Y1175380D01*
X522137Y1175567D01*
X522160Y1175591D01*
X522230Y1175637D01*
X522371Y1175707D01*
X522511Y1175778D01*
X522698Y1175848D01*
X522932Y1175918D01*
X523165Y1175964D01*
X523422Y1175988D01*
X523586D01*
X523796Y1175964D01*
D02*
G37*
G36*
X448050Y1064708D02*
X448260Y1064685D01*
X448494Y1064638D01*
X448751Y1064591D01*
X449055Y1064545D01*
X449686Y1064334D01*
X450013Y1064217D01*
X450340Y1064054D01*
X450667Y1063890D01*
X450994Y1063657D01*
X451298Y1063423D01*
X451602Y1063142D01*
X451625Y1063119D01*
X451672Y1063072D01*
X451742Y1062979D01*
X451835Y1062862D01*
X451952Y1062699D01*
X452092Y1062488D01*
X452233Y1062254D01*
X452373Y1061997D01*
X452513Y1061717D01*
X452653Y1061367D01*
X452794Y1061016D01*
X452910Y1060619D01*
X453004Y1060198D01*
X453074Y1059754D01*
X453121Y1059287D01*
X453144Y1058773D01*
Y1058749D01*
Y1058679D01*
Y1058562D01*
Y1058399D01*
X453121Y1058212D01*
X453097Y1057978D01*
Y1057745D01*
X453050Y1057487D01*
X452980Y1056903D01*
X452840Y1056319D01*
X452677Y1055735D01*
X452443Y1055197D01*
Y1055174D01*
X452420Y1055151D01*
X452373Y1055080D01*
X452326Y1054987D01*
X452163Y1054753D01*
X451952Y1054473D01*
X451672Y1054146D01*
X451321Y1053819D01*
X450924Y1053492D01*
X450457Y1053188D01*
X450433D01*
X450410Y1053164D01*
X450340Y1053118D01*
X450223Y1053071D01*
X450106Y1053024D01*
X449966Y1052977D01*
X449615Y1052837D01*
X449218Y1052720D01*
X448727Y1052604D01*
X448213Y1052510D01*
X447653Y1052487D01*
X447419D01*
X447232Y1052510D01*
X447022Y1052533D01*
X446788Y1052580D01*
X446507Y1052627D01*
X446227Y1052674D01*
X445596Y1052861D01*
X445246Y1053001D01*
X444918Y1053141D01*
X444591Y1053328D01*
X444264Y1053538D01*
X443960Y1053772D01*
X443657Y1054052D01*
X443633Y1054076D01*
X443587Y1054122D01*
X443516Y1054216D01*
X443423Y1054356D01*
X443306Y1054520D01*
X443189Y1054707D01*
X443049Y1054940D01*
X442909Y1055221D01*
X442769Y1055525D01*
X442628Y1055875D01*
X442511Y1056249D01*
X442395Y1056646D01*
X442301Y1057090D01*
X442231Y1057558D01*
X442184Y1058072D01*
X442161Y1058609D01*
Y1058656D01*
Y1058749D01*
X442184Y1058913D01*
Y1059146D01*
X442208Y1059404D01*
X442254Y1059731D01*
X442301Y1060058D01*
X442395Y1060432D01*
X442488Y1060806D01*
X442605Y1061203D01*
X442745Y1061624D01*
X442932Y1062021D01*
X443119Y1062395D01*
X443376Y1062769D01*
X443633Y1063119D01*
X443960Y1063423D01*
X443984Y1063446D01*
X444030Y1063470D01*
X444124Y1063540D01*
X444241Y1063633D01*
X444381Y1063727D01*
X444568Y1063844D01*
X444755Y1063960D01*
X444989Y1064077D01*
X445246Y1064194D01*
X445526Y1064311D01*
X446157Y1064521D01*
X446881Y1064685D01*
X447255Y1064708D01*
X447653Y1064732D01*
X447886D01*
X448050Y1064708D01*
D02*
G37*
G36*
X549911Y1077546D02*
X543765D01*
Y1079533D01*
X549911D01*
Y1077546D01*
D02*
G37*
G36*
X555647Y1180428D02*
X555857Y1180404D01*
X556114Y1180381D01*
X556371Y1180358D01*
X556675Y1180287D01*
X557306Y1180147D01*
X558007Y1179937D01*
X558357Y1179797D01*
X558685Y1179633D01*
X559012Y1179423D01*
X559339Y1179213D01*
X559362Y1179189D01*
X559409Y1179166D01*
X559502Y1179096D01*
X559619Y1178979D01*
X559736Y1178862D01*
X559900Y1178699D01*
X560063Y1178512D01*
X560250Y1178325D01*
X560437Y1178091D01*
X560624Y1177811D01*
X560834Y1177530D01*
X561021Y1177226D01*
X561185Y1176876D01*
X561372Y1176525D01*
X561512Y1176151D01*
X561652Y1175731D01*
X559549Y1175240D01*
Y1175263D01*
X559526Y1175310D01*
X559479Y1175404D01*
X559432Y1175520D01*
X559386Y1175661D01*
X559315Y1175848D01*
X559128Y1176221D01*
X558895Y1176642D01*
X558615Y1177063D01*
X558264Y1177460D01*
X557890Y1177811D01*
X557843Y1177857D01*
X557703Y1177951D01*
X557469Y1178067D01*
X557166Y1178231D01*
X556768Y1178371D01*
X556324Y1178512D01*
X555787Y1178605D01*
X555203Y1178628D01*
X555016D01*
X554899Y1178605D01*
X554735D01*
X554548Y1178582D01*
X554104Y1178512D01*
X553614Y1178418D01*
X553100Y1178254D01*
X552562Y1178021D01*
X552071Y1177717D01*
X552048D01*
X552025Y1177670D01*
X551861Y1177553D01*
X551651Y1177366D01*
X551394Y1177086D01*
X551090Y1176736D01*
X550810Y1176338D01*
X550552Y1175848D01*
X550319Y1175310D01*
Y1175287D01*
X550295Y1175240D01*
X550272Y1175170D01*
X550249Y1175053D01*
X550202Y1174913D01*
X550155Y1174749D01*
X550085Y1174352D01*
X549992Y1173885D01*
X549898Y1173371D01*
X549851Y1172810D01*
X549828Y1172202D01*
Y1172179D01*
Y1172109D01*
Y1171992D01*
Y1171852D01*
X549851Y1171688D01*
Y1171478D01*
X549875Y1171244D01*
X549898Y1170987D01*
X549968Y1170426D01*
X550085Y1169819D01*
X550225Y1169211D01*
X550412Y1168604D01*
Y1168580D01*
X550436Y1168533D01*
X550482Y1168463D01*
X550529Y1168346D01*
X550669Y1168066D01*
X550880Y1167739D01*
X551137Y1167365D01*
X551464Y1166968D01*
X551838Y1166617D01*
X552282Y1166290D01*
X552305D01*
X552352Y1166267D01*
X552422Y1166220D01*
X552515Y1166173D01*
X552632Y1166126D01*
X552772Y1166056D01*
X553100Y1165916D01*
X553520Y1165776D01*
X553988Y1165659D01*
X554502Y1165566D01*
X555039Y1165542D01*
X555203D01*
X555343Y1165566D01*
X555507D01*
X555670Y1165589D01*
X556091Y1165683D01*
X556581Y1165799D01*
X557072Y1165986D01*
X557586Y1166243D01*
X557843Y1166384D01*
X558077Y1166571D01*
X558100Y1166594D01*
X558124Y1166617D01*
X558194Y1166687D01*
X558287Y1166757D01*
X558381Y1166874D01*
X558498Y1167014D01*
X558638Y1167155D01*
X558755Y1167342D01*
X558895Y1167552D01*
X559058Y1167786D01*
X559199Y1168019D01*
X559339Y1168300D01*
X559456Y1168604D01*
X559572Y1168931D01*
X559689Y1169281D01*
X559783Y1169655D01*
X561933Y1169118D01*
Y1169094D01*
X561909Y1169001D01*
X561863Y1168861D01*
X561792Y1168674D01*
X561722Y1168463D01*
X561629Y1168206D01*
X561512Y1167926D01*
X561372Y1167622D01*
X561045Y1166968D01*
X560624Y1166313D01*
X560367Y1165986D01*
X560110Y1165659D01*
X559830Y1165379D01*
X559502Y1165098D01*
X559479Y1165075D01*
X559432Y1165028D01*
X559315Y1164982D01*
X559199Y1164888D01*
X559012Y1164771D01*
X558825Y1164654D01*
X558568Y1164538D01*
X558311Y1164421D01*
X558007Y1164280D01*
X557680Y1164164D01*
X557329Y1164047D01*
X556955Y1163930D01*
X556558Y1163836D01*
X556137Y1163790D01*
X555694Y1163743D01*
X555226Y1163720D01*
X554969D01*
X554782Y1163743D01*
X554572D01*
X554315Y1163766D01*
X554034Y1163813D01*
X553707Y1163860D01*
X553030Y1163977D01*
X552328Y1164164D01*
X551627Y1164421D01*
X551300Y1164584D01*
X550973Y1164771D01*
X550950Y1164794D01*
X550903Y1164818D01*
X550810Y1164888D01*
X550716Y1164982D01*
X550576Y1165075D01*
X550412Y1165215D01*
X550225Y1165379D01*
X550038Y1165566D01*
X549851Y1165776D01*
X549641Y1165986D01*
X549221Y1166524D01*
X548823Y1167155D01*
X548473Y1167856D01*
Y1167879D01*
X548426Y1167949D01*
X548403Y1168066D01*
X548332Y1168206D01*
X548286Y1168393D01*
X548216Y1168627D01*
X548122Y1168884D01*
X548052Y1169164D01*
X547982Y1169468D01*
X547888Y1169819D01*
X547772Y1170543D01*
X547678Y1171361D01*
X547631Y1172202D01*
Y1172225D01*
Y1172319D01*
Y1172459D01*
X547655Y1172623D01*
Y1172857D01*
X547678Y1173090D01*
X547702Y1173394D01*
X547748Y1173698D01*
X547865Y1174375D01*
X548029Y1175123D01*
X548262Y1175871D01*
X548590Y1176595D01*
X548613Y1176619D01*
X548636Y1176689D01*
X548683Y1176782D01*
X548777Y1176899D01*
X548870Y1177063D01*
X548987Y1177250D01*
X549291Y1177670D01*
X549688Y1178138D01*
X550155Y1178605D01*
X550693Y1179072D01*
X551324Y1179470D01*
X551347Y1179493D01*
X551417Y1179516D01*
X551511Y1179563D01*
X551627Y1179633D01*
X551814Y1179703D01*
X552001Y1179773D01*
X552235Y1179867D01*
X552492Y1179960D01*
X552772Y1180054D01*
X553076Y1180147D01*
X553731Y1180287D01*
X554478Y1180404D01*
X555249Y1180451D01*
X555483D01*
X555647Y1180428D01*
D02*
G37*
G36*
X607139Y1064708D02*
X607303Y1064685D01*
X607513Y1064638D01*
X607747Y1064591D01*
X608004Y1064521D01*
X608261Y1064428D01*
X608541Y1064311D01*
X608822Y1064171D01*
X609125Y1064007D01*
X609406Y1063820D01*
X609686Y1063587D01*
X609967Y1063329D01*
X610224Y1063026D01*
Y1064474D01*
X612046D01*
Y1054333D01*
Y1054309D01*
Y1054216D01*
Y1054076D01*
Y1053889D01*
X612023Y1053678D01*
Y1053421D01*
X612000Y1053141D01*
X611976Y1052837D01*
X611906Y1052206D01*
X611813Y1051552D01*
X611743Y1051248D01*
X611673Y1050968D01*
X611579Y1050711D01*
X611485Y1050477D01*
Y1050454D01*
X611462Y1050430D01*
X611369Y1050290D01*
X611252Y1050080D01*
X611065Y1049823D01*
X610808Y1049542D01*
X610504Y1049239D01*
X610130Y1048935D01*
X609710Y1048678D01*
X609686D01*
X609663Y1048654D01*
X609593Y1048608D01*
X609499Y1048584D01*
X609382Y1048514D01*
X609242Y1048467D01*
X608892Y1048351D01*
X608471Y1048210D01*
X607957Y1048117D01*
X607373Y1048023D01*
X606742Y1048000D01*
X606531D01*
X606391Y1048023D01*
X606204D01*
X606017Y1048047D01*
X605784Y1048070D01*
X605527Y1048117D01*
X604989Y1048234D01*
X604428Y1048397D01*
X603868Y1048631D01*
X603354Y1048958D01*
X603330Y1048981D01*
X603307Y1049005D01*
X603143Y1049145D01*
X602956Y1049355D01*
X602723Y1049659D01*
X602489Y1050056D01*
X602279Y1050547D01*
X602208Y1050827D01*
X602162Y1051131D01*
X602115Y1051435D01*
Y1051786D01*
X604054Y1051529D01*
Y1051482D01*
X604078Y1051388D01*
X604125Y1051225D01*
X604171Y1051014D01*
X604265Y1050804D01*
X604382Y1050594D01*
X604522Y1050384D01*
X604709Y1050220D01*
X604756Y1050197D01*
X604849Y1050126D01*
X605013Y1050033D01*
X605246Y1049940D01*
X605527Y1049823D01*
X605877Y1049729D01*
X606298Y1049659D01*
X606742Y1049636D01*
X606976D01*
X607209Y1049659D01*
X607536Y1049706D01*
X607864Y1049776D01*
X608214Y1049870D01*
X608564Y1050010D01*
X608868Y1050197D01*
X608892Y1050220D01*
X608985Y1050290D01*
X609125Y1050430D01*
X609289Y1050594D01*
X609453Y1050827D01*
X609616Y1051085D01*
X609780Y1051388D01*
X609897Y1051739D01*
Y1051762D01*
X609920Y1051856D01*
X609943Y1052043D01*
X609967Y1052276D01*
X609990Y1052440D01*
Y1052627D01*
X610013Y1052837D01*
Y1053071D01*
Y1053328D01*
X610037Y1053632D01*
Y1053935D01*
Y1054286D01*
X610013Y1054263D01*
X609967Y1054216D01*
X609897Y1054146D01*
X609803Y1054052D01*
X609686Y1053935D01*
X609523Y1053795D01*
X609336Y1053655D01*
X609149Y1053515D01*
X608658Y1053234D01*
X608121Y1052977D01*
X607817Y1052884D01*
X607490Y1052814D01*
X607139Y1052767D01*
X606789Y1052744D01*
X606672D01*
X606555Y1052767D01*
X606391D01*
X606181Y1052791D01*
X605947Y1052837D01*
X605690Y1052884D01*
X605410Y1052954D01*
X605106Y1053047D01*
X604802Y1053164D01*
X604498Y1053305D01*
X604171Y1053468D01*
X603868Y1053678D01*
X603564Y1053912D01*
X603283Y1054169D01*
X603026Y1054473D01*
X603003Y1054496D01*
X602980Y1054543D01*
X602910Y1054660D01*
X602816Y1054777D01*
X602723Y1054964D01*
X602606Y1055151D01*
X602489Y1055384D01*
X602372Y1055665D01*
X602255Y1055945D01*
X602138Y1056272D01*
X602021Y1056599D01*
X601928Y1056973D01*
X601764Y1057768D01*
X601741Y1058212D01*
X601718Y1058656D01*
Y1058679D01*
Y1058726D01*
Y1058819D01*
Y1058936D01*
X601741Y1059100D01*
Y1059263D01*
X601788Y1059684D01*
X601858Y1060151D01*
X601975Y1060666D01*
X602115Y1061203D01*
X602325Y1061740D01*
Y1061764D01*
X602349Y1061811D01*
X602395Y1061881D01*
X602442Y1061974D01*
X602582Y1062231D01*
X602769Y1062558D01*
X603026Y1062909D01*
X603330Y1063259D01*
X603681Y1063633D01*
X604078Y1063937D01*
X604101D01*
X604125Y1063960D01*
X604195Y1064007D01*
X604288Y1064054D01*
X604522Y1064194D01*
X604849Y1064334D01*
X605246Y1064474D01*
X605714Y1064615D01*
X606228Y1064708D01*
X606789Y1064732D01*
X606999D01*
X607139Y1064708D01*
D02*
G37*
G36*
X464080Y1064474D02*
X466090D01*
Y1062932D01*
X464080D01*
Y1056039D01*
Y1055992D01*
Y1055898D01*
Y1055758D01*
X464104Y1055595D01*
X464127Y1055221D01*
X464150Y1055057D01*
X464174Y1054940D01*
X464197Y1054894D01*
X464267Y1054800D01*
X464361Y1054683D01*
X464524Y1054566D01*
X464571Y1054543D01*
X464688Y1054496D01*
X464898Y1054450D01*
X465202Y1054426D01*
X465435D01*
X465552Y1054450D01*
X465716D01*
X465903Y1054473D01*
X466090Y1054496D01*
X466347Y1052744D01*
X466300D01*
X466207Y1052720D01*
X466043Y1052697D01*
X465833Y1052674D01*
X465599Y1052627D01*
X465342Y1052604D01*
X464828Y1052580D01*
X464641D01*
X464454Y1052604D01*
X464220Y1052627D01*
X463940Y1052650D01*
X463660Y1052720D01*
X463402Y1052791D01*
X463145Y1052907D01*
X463122Y1052931D01*
X463052Y1052977D01*
X462958Y1053047D01*
X462818Y1053164D01*
X462701Y1053281D01*
X462561Y1053445D01*
X462421Y1053608D01*
X462328Y1053819D01*
Y1053842D01*
X462281Y1053935D01*
X462257Y1054099D01*
X462211Y1054333D01*
X462164Y1054637D01*
X462141Y1054824D01*
Y1055034D01*
X462117Y1055291D01*
X462094Y1055548D01*
Y1055828D01*
Y1056155D01*
Y1062932D01*
X460622D01*
Y1064474D01*
X462094D01*
Y1067372D01*
X464080Y1068564D01*
Y1064474D01*
D02*
G37*
G36*
X434520Y1068891D02*
X434707D01*
X435127Y1068844D01*
X435595Y1068798D01*
X436085Y1068704D01*
X436576Y1068587D01*
X437020Y1068424D01*
X437043D01*
X437067Y1068400D01*
X437207Y1068330D01*
X437417Y1068213D01*
X437651Y1068050D01*
X437931Y1067839D01*
X438235Y1067582D01*
X438516Y1067255D01*
X438773Y1066905D01*
X438796Y1066858D01*
X438866Y1066718D01*
X438983Y1066531D01*
X439100Y1066250D01*
X439217Y1065923D01*
X439333Y1065573D01*
X439404Y1065175D01*
X439427Y1064778D01*
Y1064732D01*
Y1064615D01*
X439404Y1064404D01*
X439357Y1064147D01*
X439287Y1063844D01*
X439170Y1063516D01*
X439030Y1063189D01*
X438843Y1062839D01*
X438819Y1062792D01*
X438749Y1062699D01*
X438609Y1062512D01*
X438422Y1062325D01*
X438189Y1062091D01*
X437908Y1061834D01*
X437557Y1061600D01*
X437160Y1061367D01*
X437184D01*
X437230Y1061343D01*
X437300Y1061320D01*
X437394Y1061273D01*
X437674Y1061180D01*
X438002Y1061016D01*
X438352Y1060806D01*
X438749Y1060549D01*
X439100Y1060245D01*
X439427Y1059871D01*
X439450Y1059824D01*
X439544Y1059684D01*
X439684Y1059474D01*
X439824Y1059193D01*
X439964Y1058819D01*
X440105Y1058422D01*
X440198Y1057955D01*
X440221Y1057441D01*
Y1057417D01*
Y1057394D01*
Y1057254D01*
X440198Y1057020D01*
X440151Y1056740D01*
X440105Y1056413D01*
X440011Y1056062D01*
X439894Y1055688D01*
X439731Y1055314D01*
X439707Y1055267D01*
X439637Y1055151D01*
X439544Y1054987D01*
X439404Y1054753D01*
X439217Y1054520D01*
X439030Y1054263D01*
X438796Y1054006D01*
X438539Y1053795D01*
X438516Y1053772D01*
X438422Y1053702D01*
X438259Y1053608D01*
X438048Y1053515D01*
X437791Y1053375D01*
X437487Y1053234D01*
X437160Y1053118D01*
X436763Y1053001D01*
X436716D01*
X436576Y1052954D01*
X436342Y1052931D01*
X436039Y1052884D01*
X435665Y1052837D01*
X435221Y1052791D01*
X434730Y1052767D01*
X434169Y1052744D01*
X428000D01*
Y1068914D01*
X434356D01*
X434520Y1068891D01*
D02*
G37*
G36*
X573933Y1057604D02*
X567787D01*
Y1059591D01*
X573933D01*
Y1057604D01*
D02*
G37*
G36*
X536030Y1052557D02*
Y1052533D01*
X536007Y1052463D01*
X535960Y1052370D01*
X535913Y1052253D01*
X535843Y1052089D01*
X535773Y1051902D01*
X535610Y1051505D01*
X535446Y1051061D01*
X535259Y1050617D01*
X535072Y1050220D01*
X534979Y1050056D01*
X534909Y1049893D01*
X534885Y1049846D01*
X534815Y1049729D01*
X534698Y1049566D01*
X534558Y1049355D01*
X534371Y1049122D01*
X534161Y1048888D01*
X533951Y1048654D01*
X533694Y1048467D01*
X533670Y1048444D01*
X533577Y1048397D01*
X533436Y1048327D01*
X533226Y1048234D01*
X532992Y1048140D01*
X532712Y1048070D01*
X532408Y1048023D01*
X532058Y1048000D01*
X531964D01*
X531847Y1048023D01*
X531684D01*
X531497Y1048070D01*
X531287Y1048117D01*
X531053Y1048164D01*
X530796Y1048257D01*
X530586Y1050103D01*
X530609D01*
X530702Y1050080D01*
X530819Y1050056D01*
X530959Y1050010D01*
X531333Y1049940D01*
X531707Y1049916D01*
X531824D01*
X531941Y1049940D01*
X532081D01*
X532432Y1050010D01*
X532595Y1050080D01*
X532759Y1050150D01*
X532782D01*
X532829Y1050197D01*
X532899Y1050243D01*
X532992Y1050313D01*
X533203Y1050500D01*
X533390Y1050757D01*
Y1050781D01*
X533436Y1050827D01*
X533483Y1050921D01*
X533530Y1051061D01*
X533623Y1051248D01*
X533717Y1051529D01*
X533857Y1051856D01*
X533997Y1052253D01*
Y1052276D01*
X534044Y1052370D01*
X534091Y1052533D01*
X534184Y1052744D01*
X529744Y1064474D01*
X531847D01*
X534301Y1057674D01*
Y1057651D01*
X534324Y1057628D01*
X534348Y1057558D01*
X534371Y1057441D01*
X534418Y1057324D01*
X534465Y1057184D01*
X534581Y1056857D01*
X534722Y1056459D01*
X534862Y1055992D01*
X535002Y1055501D01*
X535142Y1054964D01*
Y1054987D01*
X535166Y1055034D01*
X535189Y1055104D01*
X535212Y1055197D01*
X535236Y1055314D01*
X535283Y1055454D01*
X535376Y1055805D01*
X535493Y1056202D01*
X535656Y1056669D01*
X535797Y1057137D01*
X535984Y1057628D01*
X538507Y1064474D01*
X540494D01*
X536030Y1052557D01*
D02*
G37*
G36*
X508059Y1054660D02*
X516027D01*
Y1052744D01*
X505909D01*
Y1068914D01*
X508059D01*
Y1054660D01*
D02*
G37*
G36*
X633101Y1064708D02*
X633451Y1064685D01*
X633849Y1064638D01*
X634246Y1064568D01*
X634643Y1064474D01*
X635017Y1064358D01*
X635064Y1064334D01*
X635181Y1064287D01*
X635344Y1064217D01*
X635555Y1064124D01*
X635788Y1063984D01*
X636022Y1063844D01*
X636232Y1063657D01*
X636419Y1063470D01*
X636443Y1063446D01*
X636489Y1063376D01*
X636559Y1063259D01*
X636653Y1063119D01*
X636770Y1062909D01*
X636863Y1062699D01*
X636957Y1062441D01*
X637027Y1062138D01*
Y1062114D01*
X637050Y1062044D01*
X637074Y1061904D01*
X637097Y1061717D01*
Y1061460D01*
X637120Y1061156D01*
X637144Y1060759D01*
Y1060315D01*
Y1057651D01*
Y1057628D01*
Y1057534D01*
Y1057394D01*
Y1057207D01*
Y1056997D01*
Y1056740D01*
X637167Y1056179D01*
Y1055595D01*
X637190Y1055010D01*
X637214Y1054753D01*
Y1054520D01*
X637237Y1054309D01*
X637260Y1054146D01*
Y1054122D01*
X637284Y1054029D01*
X637307Y1053889D01*
X637377Y1053702D01*
X637424Y1053492D01*
X637518Y1053258D01*
X637634Y1053001D01*
X637751Y1052744D01*
X635671D01*
X635648Y1052767D01*
X635625Y1052861D01*
X635578Y1052977D01*
X635508Y1053164D01*
X635438Y1053375D01*
X635391Y1053632D01*
X635344Y1053912D01*
X635298Y1054216D01*
X635274D01*
X635251Y1054169D01*
X635111Y1054052D01*
X634900Y1053889D01*
X634620Y1053678D01*
X634269Y1053468D01*
X633919Y1053234D01*
X633545Y1053024D01*
X633148Y1052861D01*
X633101Y1052837D01*
X632961Y1052814D01*
X632750Y1052744D01*
X632493Y1052674D01*
X632166Y1052604D01*
X631792Y1052557D01*
X631372Y1052510D01*
X630951Y1052487D01*
X630764D01*
X630624Y1052510D01*
X630460D01*
X630273Y1052533D01*
X629853Y1052604D01*
X629385Y1052720D01*
X628871Y1052884D01*
X628404Y1053118D01*
X627983Y1053421D01*
X627937Y1053468D01*
X627820Y1053585D01*
X627656Y1053795D01*
X627469Y1054076D01*
X627282Y1054426D01*
X627119Y1054824D01*
X627002Y1055314D01*
X626978Y1055548D01*
X626955Y1055828D01*
Y1055875D01*
Y1055968D01*
X626978Y1056132D01*
X627002Y1056342D01*
X627049Y1056599D01*
X627119Y1056857D01*
X627212Y1057137D01*
X627329Y1057394D01*
X627352Y1057417D01*
X627399Y1057511D01*
X627493Y1057651D01*
X627609Y1057815D01*
X627750Y1058001D01*
X627937Y1058188D01*
X628124Y1058375D01*
X628357Y1058539D01*
X628381Y1058562D01*
X628474Y1058609D01*
X628591Y1058703D01*
X628778Y1058796D01*
X628988Y1058889D01*
X629245Y1059006D01*
X629502Y1059100D01*
X629806Y1059193D01*
X629829D01*
X629923Y1059217D01*
X630063Y1059263D01*
X630250Y1059287D01*
X630484Y1059333D01*
X630788Y1059380D01*
X631138Y1059450D01*
X631559Y1059497D01*
X631582D01*
X631675Y1059520D01*
X631792D01*
X631956Y1059544D01*
X632143Y1059567D01*
X632377Y1059614D01*
X632634Y1059637D01*
X632914Y1059684D01*
X633475Y1059801D01*
X634082Y1059918D01*
X634620Y1060058D01*
X634877Y1060128D01*
X635111Y1060198D01*
Y1060221D01*
Y1060268D01*
X635134Y1060408D01*
Y1060572D01*
Y1060666D01*
Y1060712D01*
Y1060736D01*
Y1060759D01*
Y1060899D01*
X635111Y1061133D01*
X635064Y1061390D01*
X634994Y1061670D01*
X634877Y1061951D01*
X634737Y1062208D01*
X634550Y1062418D01*
X634526Y1062441D01*
X634410Y1062535D01*
X634223Y1062628D01*
X633989Y1062769D01*
X633662Y1062885D01*
X633288Y1063002D01*
X632821Y1063072D01*
X632283Y1063096D01*
X632049D01*
X631816Y1063072D01*
X631489Y1063026D01*
X631161Y1062979D01*
X630811Y1062885D01*
X630484Y1062769D01*
X630203Y1062605D01*
X630180Y1062582D01*
X630087Y1062512D01*
X629970Y1062395D01*
X629829Y1062208D01*
X629689Y1061974D01*
X629526Y1061670D01*
X629385Y1061296D01*
X629245Y1060876D01*
X627306Y1061133D01*
Y1061156D01*
X627329Y1061180D01*
Y1061250D01*
X627352Y1061343D01*
X627422Y1061553D01*
X627516Y1061857D01*
X627633Y1062161D01*
X627773Y1062488D01*
X627960Y1062815D01*
X628170Y1063119D01*
X628194Y1063142D01*
X628287Y1063236D01*
X628427Y1063376D01*
X628614Y1063563D01*
X628871Y1063750D01*
X629175Y1063937D01*
X629526Y1064147D01*
X629923Y1064311D01*
X629946D01*
X629970Y1064334D01*
X630040Y1064358D01*
X630133Y1064381D01*
X630367Y1064451D01*
X630694Y1064521D01*
X631068Y1064591D01*
X631535Y1064661D01*
X632026Y1064708D01*
X632587Y1064732D01*
X632844D01*
X633101Y1064708D01*
D02*
G37*
G36*
X642144Y1052744D02*
X640158D01*
Y1068914D01*
X642144D01*
Y1052744D01*
D02*
G37*
G36*
X523785Y1064708D02*
X524136Y1064685D01*
X524533Y1064638D01*
X524930Y1064568D01*
X525328Y1064474D01*
X525702Y1064358D01*
X525748Y1064334D01*
X525865Y1064287D01*
X526029Y1064217D01*
X526239Y1064124D01*
X526473Y1063984D01*
X526706Y1063844D01*
X526917Y1063657D01*
X527104Y1063470D01*
X527127Y1063446D01*
X527174Y1063376D01*
X527244Y1063259D01*
X527337Y1063119D01*
X527454Y1062909D01*
X527548Y1062699D01*
X527641Y1062441D01*
X527711Y1062138D01*
Y1062114D01*
X527735Y1062044D01*
X527758Y1061904D01*
X527781Y1061717D01*
Y1061460D01*
X527805Y1061156D01*
X527828Y1060759D01*
Y1060315D01*
Y1057651D01*
Y1057628D01*
Y1057534D01*
Y1057394D01*
Y1057207D01*
Y1056997D01*
Y1056740D01*
X527851Y1056179D01*
Y1055595D01*
X527875Y1055010D01*
X527898Y1054753D01*
Y1054520D01*
X527922Y1054309D01*
X527945Y1054146D01*
Y1054122D01*
X527968Y1054029D01*
X527992Y1053889D01*
X528062Y1053702D01*
X528108Y1053492D01*
X528202Y1053258D01*
X528319Y1053001D01*
X528436Y1052744D01*
X526356D01*
X526333Y1052767D01*
X526309Y1052861D01*
X526262Y1052977D01*
X526192Y1053164D01*
X526122Y1053375D01*
X526076Y1053632D01*
X526029Y1053912D01*
X525982Y1054216D01*
X525959D01*
X525935Y1054169D01*
X525795Y1054052D01*
X525585Y1053889D01*
X525304Y1053678D01*
X524954Y1053468D01*
X524603Y1053234D01*
X524229Y1053024D01*
X523832Y1052861D01*
X523785Y1052837D01*
X523645Y1052814D01*
X523435Y1052744D01*
X523178Y1052674D01*
X522851Y1052604D01*
X522477Y1052557D01*
X522056Y1052510D01*
X521636Y1052487D01*
X521449D01*
X521308Y1052510D01*
X521145D01*
X520958Y1052533D01*
X520537Y1052604D01*
X520070Y1052720D01*
X519556Y1052884D01*
X519089Y1053118D01*
X518668Y1053421D01*
X518621Y1053468D01*
X518504Y1053585D01*
X518341Y1053795D01*
X518154Y1054076D01*
X517967Y1054426D01*
X517803Y1054824D01*
X517686Y1055314D01*
X517663Y1055548D01*
X517640Y1055828D01*
Y1055875D01*
Y1055968D01*
X517663Y1056132D01*
X517686Y1056342D01*
X517733Y1056599D01*
X517803Y1056857D01*
X517897Y1057137D01*
X518013Y1057394D01*
X518037Y1057417D01*
X518084Y1057511D01*
X518177Y1057651D01*
X518294Y1057815D01*
X518434Y1058001D01*
X518621Y1058188D01*
X518808Y1058375D01*
X519042Y1058539D01*
X519065Y1058562D01*
X519159Y1058609D01*
X519275Y1058703D01*
X519462Y1058796D01*
X519673Y1058889D01*
X519930Y1059006D01*
X520187Y1059100D01*
X520491Y1059193D01*
X520514D01*
X520607Y1059217D01*
X520748Y1059263D01*
X520934Y1059287D01*
X521168Y1059333D01*
X521472Y1059380D01*
X521823Y1059450D01*
X522243Y1059497D01*
X522267D01*
X522360Y1059520D01*
X522477D01*
X522640Y1059544D01*
X522827Y1059567D01*
X523061Y1059614D01*
X523318Y1059637D01*
X523599Y1059684D01*
X524159Y1059801D01*
X524767Y1059918D01*
X525304Y1060058D01*
X525561Y1060128D01*
X525795Y1060198D01*
Y1060221D01*
Y1060268D01*
X525818Y1060408D01*
Y1060572D01*
Y1060666D01*
Y1060712D01*
Y1060736D01*
Y1060759D01*
Y1060899D01*
X525795Y1061133D01*
X525748Y1061390D01*
X525678Y1061670D01*
X525561Y1061951D01*
X525421Y1062208D01*
X525234Y1062418D01*
X525211Y1062441D01*
X525094Y1062535D01*
X524907Y1062628D01*
X524673Y1062769D01*
X524346Y1062885D01*
X523972Y1063002D01*
X523505Y1063072D01*
X522968Y1063096D01*
X522734D01*
X522500Y1063072D01*
X522173Y1063026D01*
X521846Y1062979D01*
X521495Y1062885D01*
X521168Y1062769D01*
X520888Y1062605D01*
X520864Y1062582D01*
X520771Y1062512D01*
X520654Y1062395D01*
X520514Y1062208D01*
X520374Y1061974D01*
X520210Y1061670D01*
X520070Y1061296D01*
X519930Y1060876D01*
X517990Y1061133D01*
Y1061156D01*
X518013Y1061180D01*
Y1061250D01*
X518037Y1061343D01*
X518107Y1061553D01*
X518200Y1061857D01*
X518317Y1062161D01*
X518457Y1062488D01*
X518644Y1062815D01*
X518855Y1063119D01*
X518878Y1063142D01*
X518972Y1063236D01*
X519112Y1063376D01*
X519299Y1063563D01*
X519556Y1063750D01*
X519860Y1063937D01*
X520210Y1064147D01*
X520607Y1064311D01*
X520631D01*
X520654Y1064334D01*
X520724Y1064358D01*
X520818Y1064381D01*
X521051Y1064451D01*
X521379Y1064521D01*
X521752Y1064591D01*
X522220Y1064661D01*
X522710Y1064708D01*
X523271Y1064732D01*
X523528D01*
X523785Y1064708D01*
D02*
G37*
G36*
X599451Y1052744D02*
X597465D01*
Y1064474D01*
X599451D01*
Y1052744D01*
D02*
G37*
G36*
Y1066648D02*
X597465D01*
Y1068914D01*
X599451D01*
Y1066648D01*
D02*
G37*
G36*
X588678Y1069171D02*
X588842D01*
X589286Y1069125D01*
X589777Y1069055D01*
X590291Y1068938D01*
X590852Y1068798D01*
X591366Y1068611D01*
X591389D01*
X591436Y1068587D01*
X591506Y1068540D01*
X591599Y1068494D01*
X591833Y1068377D01*
X592137Y1068167D01*
X592487Y1067933D01*
X592838Y1067629D01*
X593165Y1067279D01*
X593469Y1066881D01*
Y1066858D01*
X593492Y1066835D01*
X593539Y1066765D01*
X593586Y1066694D01*
X593703Y1066461D01*
X593843Y1066157D01*
X594006Y1065783D01*
X594123Y1065339D01*
X594240Y1064872D01*
X594287Y1064358D01*
X592230Y1064194D01*
Y1064217D01*
Y1064264D01*
X592207Y1064334D01*
X592184Y1064451D01*
X592113Y1064708D01*
X592020Y1065059D01*
X591880Y1065433D01*
X591670Y1065806D01*
X591412Y1066157D01*
X591085Y1066484D01*
X591039Y1066507D01*
X590922Y1066601D01*
X590688Y1066741D01*
X590384Y1066881D01*
X589987Y1067022D01*
X589520Y1067162D01*
X588935Y1067255D01*
X588281Y1067279D01*
X587954D01*
X587814Y1067255D01*
X587627Y1067232D01*
X587206Y1067185D01*
X586739Y1067092D01*
X586272Y1066975D01*
X585827Y1066788D01*
X585640Y1066671D01*
X585454Y1066554D01*
X585407Y1066531D01*
X585313Y1066437D01*
X585173Y1066274D01*
X585033Y1066087D01*
X584869Y1065830D01*
X584729Y1065549D01*
X584636Y1065222D01*
X584589Y1064848D01*
Y1064802D01*
Y1064708D01*
X584612Y1064545D01*
X584659Y1064358D01*
X584729Y1064124D01*
X584846Y1063890D01*
X584986Y1063657D01*
X585196Y1063423D01*
X585220Y1063400D01*
X585337Y1063329D01*
X585430Y1063259D01*
X585524Y1063213D01*
X585664Y1063142D01*
X585827Y1063049D01*
X586038Y1062979D01*
X586272Y1062885D01*
X586529Y1062792D01*
X586832Y1062675D01*
X587160Y1062582D01*
X587533Y1062465D01*
X587954Y1062371D01*
X588421Y1062254D01*
X588445D01*
X588538Y1062231D01*
X588678Y1062208D01*
X588842Y1062161D01*
X589052Y1062114D01*
X589309Y1062044D01*
X589566Y1061974D01*
X589847Y1061904D01*
X590454Y1061740D01*
X591039Y1061577D01*
X591319Y1061483D01*
X591576Y1061390D01*
X591810Y1061320D01*
X591997Y1061226D01*
X592020D01*
X592067Y1061203D01*
X592137Y1061156D01*
X592230Y1061109D01*
X592487Y1060969D01*
X592791Y1060782D01*
X593142Y1060525D01*
X593492Y1060245D01*
X593819Y1059918D01*
X594100Y1059567D01*
X594123Y1059520D01*
X594217Y1059404D01*
X594310Y1059193D01*
X594450Y1058913D01*
X594567Y1058586D01*
X594684Y1058188D01*
X594754Y1057745D01*
X594777Y1057277D01*
Y1057254D01*
Y1057230D01*
Y1057160D01*
Y1057067D01*
X594731Y1056810D01*
X594684Y1056483D01*
X594590Y1056109D01*
X594474Y1055712D01*
X594287Y1055291D01*
X594030Y1054847D01*
Y1054824D01*
X594006Y1054800D01*
X593889Y1054660D01*
X593726Y1054450D01*
X593492Y1054216D01*
X593188Y1053935D01*
X592814Y1053632D01*
X592394Y1053351D01*
X591903Y1053094D01*
X591880D01*
X591833Y1053071D01*
X591763Y1053047D01*
X591670Y1053001D01*
X591529Y1052954D01*
X591366Y1052884D01*
X590992Y1052791D01*
X590548Y1052674D01*
X590010Y1052557D01*
X589426Y1052487D01*
X588795Y1052463D01*
X588421D01*
X588234Y1052487D01*
X588024D01*
X587790Y1052510D01*
X587510Y1052533D01*
X586926Y1052627D01*
X586318Y1052720D01*
X585711Y1052884D01*
X585126Y1053094D01*
X585103D01*
X585056Y1053118D01*
X584986Y1053164D01*
X584893Y1053211D01*
X584612Y1053351D01*
X584285Y1053562D01*
X583911Y1053842D01*
X583514Y1054169D01*
X583140Y1054566D01*
X582790Y1055010D01*
Y1055034D01*
X582743Y1055080D01*
X582719Y1055151D01*
X582649Y1055244D01*
X582603Y1055361D01*
X582533Y1055501D01*
X582369Y1055852D01*
X582205Y1056296D01*
X582065Y1056786D01*
X581972Y1057347D01*
X581925Y1057931D01*
X583935Y1058118D01*
Y1058095D01*
Y1058072D01*
X583958Y1058001D01*
Y1057908D01*
X584005Y1057698D01*
X584075Y1057394D01*
X584168Y1057090D01*
X584262Y1056740D01*
X584425Y1056413D01*
X584589Y1056109D01*
X584612Y1056085D01*
X584682Y1055992D01*
X584799Y1055828D01*
X584986Y1055665D01*
X585220Y1055454D01*
X585477Y1055244D01*
X585827Y1055034D01*
X586201Y1054847D01*
X586225D01*
X586248Y1054824D01*
X586318Y1054800D01*
X586388Y1054777D01*
X586622Y1054707D01*
X586926Y1054613D01*
X587300Y1054520D01*
X587720Y1054450D01*
X588188Y1054403D01*
X588702Y1054380D01*
X588912D01*
X589146Y1054403D01*
X589426Y1054426D01*
X589753Y1054473D01*
X590127Y1054520D01*
X590501Y1054613D01*
X590852Y1054730D01*
X590898Y1054753D01*
X591015Y1054800D01*
X591179Y1054894D01*
X591389Y1054987D01*
X591599Y1055151D01*
X591833Y1055314D01*
X592067Y1055501D01*
X592254Y1055735D01*
X592277Y1055758D01*
X592324Y1055852D01*
X592394Y1055968D01*
X592487Y1056155D01*
X592581Y1056342D01*
X592651Y1056576D01*
X592698Y1056833D01*
X592721Y1057113D01*
Y1057137D01*
Y1057254D01*
X592698Y1057394D01*
X592674Y1057581D01*
X592604Y1057768D01*
X592534Y1058001D01*
X592417Y1058235D01*
X592254Y1058446D01*
X592230Y1058469D01*
X592160Y1058539D01*
X592067Y1058633D01*
X591903Y1058773D01*
X591716Y1058913D01*
X591459Y1059076D01*
X591155Y1059240D01*
X590805Y1059380D01*
X590782Y1059404D01*
X590665Y1059427D01*
X590478Y1059497D01*
X590361Y1059520D01*
X590197Y1059567D01*
X590034Y1059637D01*
X589823Y1059684D01*
X589590Y1059754D01*
X589309Y1059824D01*
X589029Y1059894D01*
X588702Y1059988D01*
X588328Y1060081D01*
X587931Y1060175D01*
X587907D01*
X587837Y1060198D01*
X587720Y1060221D01*
X587580Y1060268D01*
X587393Y1060315D01*
X587183Y1060362D01*
X586716Y1060502D01*
X586201Y1060666D01*
X585664Y1060829D01*
X585196Y1060993D01*
X584986Y1061086D01*
X584799Y1061180D01*
X584776D01*
X584753Y1061203D01*
X584612Y1061296D01*
X584402Y1061413D01*
X584168Y1061600D01*
X583888Y1061811D01*
X583607Y1062067D01*
X583327Y1062371D01*
X583093Y1062699D01*
X583070Y1062745D01*
X583000Y1062862D01*
X582906Y1063049D01*
X582813Y1063283D01*
X582719Y1063587D01*
X582626Y1063937D01*
X582556Y1064311D01*
X582533Y1064708D01*
Y1064732D01*
Y1064755D01*
Y1064825D01*
Y1064918D01*
X582579Y1065152D01*
X582626Y1065456D01*
X582696Y1065806D01*
X582813Y1066204D01*
X582977Y1066601D01*
X583210Y1066998D01*
Y1067022D01*
X583234Y1067045D01*
X583350Y1067185D01*
X583514Y1067372D01*
X583724Y1067606D01*
X584005Y1067863D01*
X584355Y1068143D01*
X584776Y1068400D01*
X585243Y1068634D01*
X585267D01*
X585313Y1068657D01*
X585383Y1068681D01*
X585477Y1068727D01*
X585594Y1068774D01*
X585757Y1068821D01*
X586108Y1068914D01*
X586552Y1069008D01*
X587066Y1069101D01*
X587603Y1069171D01*
X588211Y1069195D01*
X588515D01*
X588678Y1069171D01*
D02*
G37*
G36*
X434987Y1088833D02*
X435384Y1088810D01*
X435805Y1088786D01*
X436202Y1088740D01*
X436553Y1088693D01*
X436599D01*
X436763Y1088646D01*
X436973Y1088600D01*
X437254Y1088530D01*
X437557Y1088413D01*
X437885Y1088272D01*
X438235Y1088109D01*
X438539Y1087922D01*
X438586Y1087898D01*
X438679Y1087828D01*
X438819Y1087688D01*
X439006Y1087525D01*
X439217Y1087314D01*
X439427Y1087034D01*
X439661Y1086730D01*
X439848Y1086380D01*
X439871Y1086333D01*
X439918Y1086216D01*
X440011Y1086006D01*
X440105Y1085725D01*
X440175Y1085398D01*
X440268Y1085024D01*
X440315Y1084604D01*
X440338Y1084160D01*
Y1084136D01*
Y1084066D01*
Y1083973D01*
X440315Y1083809D01*
X440292Y1083646D01*
X440268Y1083435D01*
X440221Y1083202D01*
X440175Y1082944D01*
X440011Y1082407D01*
X439918Y1082127D01*
X439777Y1081823D01*
X439614Y1081519D01*
X439450Y1081239D01*
X439240Y1080958D01*
X439006Y1080678D01*
X438983Y1080655D01*
X438936Y1080608D01*
X438866Y1080538D01*
X438749Y1080468D01*
X438609Y1080351D01*
X438422Y1080234D01*
X438189Y1080094D01*
X437931Y1079977D01*
X437628Y1079837D01*
X437277Y1079696D01*
X436903Y1079579D01*
X436459Y1079486D01*
X435992Y1079393D01*
X435478Y1079323D01*
X434894Y1079276D01*
X434286Y1079252D01*
X430150D01*
Y1072686D01*
X428000D01*
Y1088857D01*
X434636D01*
X434987Y1088833D01*
D02*
G37*
G36*
X537175Y1084650D02*
X537362Y1084627D01*
X537596Y1084580D01*
X537853Y1084533D01*
X538157Y1084463D01*
X538437Y1084393D01*
X538764Y1084277D01*
X539068Y1084160D01*
X539395Y1083996D01*
X539722Y1083809D01*
X540050Y1083599D01*
X540353Y1083342D01*
X540634Y1083061D01*
X540657Y1083038D01*
X540704Y1082991D01*
X540774Y1082898D01*
X540867Y1082758D01*
X540984Y1082594D01*
X541101Y1082407D01*
X541241Y1082173D01*
X541381Y1081893D01*
X541522Y1081589D01*
X541662Y1081262D01*
X541779Y1080888D01*
X541896Y1080491D01*
X541989Y1080047D01*
X542059Y1079579D01*
X542106Y1079089D01*
X542129Y1078551D01*
Y1078528D01*
Y1078435D01*
Y1078271D01*
X542106Y1078037D01*
X533343D01*
Y1078014D01*
Y1077944D01*
X533366Y1077850D01*
Y1077710D01*
X533390Y1077546D01*
X533436Y1077360D01*
X533507Y1076939D01*
X533647Y1076472D01*
X533834Y1075957D01*
X534091Y1075490D01*
X534418Y1075070D01*
X534441D01*
X534465Y1075023D01*
X534605Y1074906D01*
X534815Y1074742D01*
X535096Y1074579D01*
X535469Y1074392D01*
X535890Y1074228D01*
X536357Y1074111D01*
X536614Y1074088D01*
X536895Y1074065D01*
X537082D01*
X537292Y1074088D01*
X537549Y1074135D01*
X537830Y1074205D01*
X538157Y1074298D01*
X538461Y1074439D01*
X538764Y1074625D01*
X538788Y1074649D01*
X538904Y1074742D01*
X539045Y1074883D01*
X539208Y1075070D01*
X539395Y1075327D01*
X539606Y1075654D01*
X539816Y1076028D01*
X540003Y1076472D01*
X542059Y1076215D01*
Y1076191D01*
X542036Y1076144D01*
X542012Y1076051D01*
X541966Y1075911D01*
X541896Y1075770D01*
X541825Y1075584D01*
X541639Y1075186D01*
X541405Y1074742D01*
X541078Y1074275D01*
X540704Y1073831D01*
X540237Y1073410D01*
X540213D01*
X540166Y1073364D01*
X540096Y1073317D01*
X540003Y1073247D01*
X539863Y1073177D01*
X539722Y1073107D01*
X539535Y1073013D01*
X539325Y1072920D01*
X539091Y1072826D01*
X538858Y1072733D01*
X538274Y1072592D01*
X537619Y1072476D01*
X536895Y1072429D01*
X536638D01*
X536474Y1072452D01*
X536264Y1072476D01*
X536007Y1072522D01*
X535727Y1072569D01*
X535423Y1072616D01*
X534768Y1072803D01*
X534418Y1072943D01*
X534091Y1073083D01*
X533740Y1073270D01*
X533413Y1073481D01*
X533109Y1073714D01*
X532805Y1073995D01*
X532782Y1074018D01*
X532735Y1074065D01*
X532665Y1074158D01*
X532572Y1074298D01*
X532455Y1074462D01*
X532338Y1074649D01*
X532198Y1074883D01*
X532058Y1075140D01*
X531917Y1075443D01*
X531777Y1075770D01*
X531660Y1076144D01*
X531544Y1076542D01*
X531450Y1076962D01*
X531380Y1077430D01*
X531333Y1077920D01*
X531310Y1078435D01*
Y1078458D01*
Y1078575D01*
Y1078715D01*
X531333Y1078925D01*
X531357Y1079182D01*
X531380Y1079463D01*
X531427Y1079790D01*
X531497Y1080117D01*
X531684Y1080865D01*
X531801Y1081239D01*
X531941Y1081636D01*
X532128Y1082010D01*
X532338Y1082360D01*
X532572Y1082711D01*
X532829Y1083038D01*
X532852Y1083061D01*
X532899Y1083108D01*
X532992Y1083178D01*
X533109Y1083295D01*
X533250Y1083412D01*
X533436Y1083552D01*
X533647Y1083716D01*
X533904Y1083856D01*
X534161Y1084019D01*
X534465Y1084160D01*
X534792Y1084300D01*
X535142Y1084417D01*
X535516Y1084533D01*
X535913Y1084604D01*
X536334Y1084650D01*
X536778Y1084674D01*
X537012D01*
X537175Y1084650D01*
D02*
G37*
G36*
X620926Y1064708D02*
X621183Y1064685D01*
X621487Y1064638D01*
X621814Y1064568D01*
X622165Y1064474D01*
X622492Y1064334D01*
X622539Y1064311D01*
X622632Y1064264D01*
X622796Y1064194D01*
X622983Y1064077D01*
X623216Y1063937D01*
X623427Y1063750D01*
X623637Y1063563D01*
X623824Y1063329D01*
X623847Y1063306D01*
X623894Y1063213D01*
X623964Y1063096D01*
X624081Y1062932D01*
X624174Y1062699D01*
X624268Y1062465D01*
X624385Y1062184D01*
X624455Y1061881D01*
Y1061857D01*
X624478Y1061764D01*
X624501Y1061624D01*
X624525Y1061437D01*
Y1061156D01*
X624548Y1060829D01*
X624572Y1060432D01*
Y1059941D01*
Y1052744D01*
X622585D01*
Y1059848D01*
Y1059871D01*
Y1059894D01*
Y1060058D01*
Y1060268D01*
X622562Y1060525D01*
X622539Y1060829D01*
X622492Y1061133D01*
X622422Y1061413D01*
X622352Y1061670D01*
Y1061694D01*
X622305Y1061764D01*
X622235Y1061881D01*
X622165Y1062021D01*
X622048Y1062161D01*
X621908Y1062325D01*
X621721Y1062488D01*
X621510Y1062628D01*
X621487Y1062652D01*
X621417Y1062699D01*
X621277Y1062745D01*
X621113Y1062815D01*
X620926Y1062885D01*
X620692Y1062955D01*
X620412Y1062979D01*
X620132Y1063002D01*
X620015D01*
X619921Y1062979D01*
X619688Y1062955D01*
X619384Y1062909D01*
X619057Y1062792D01*
X618683Y1062652D01*
X618309Y1062465D01*
X617958Y1062184D01*
X617912Y1062138D01*
X617818Y1062021D01*
X617748Y1061927D01*
X617678Y1061811D01*
X617585Y1061670D01*
X617514Y1061507D01*
X617421Y1061320D01*
X617327Y1061086D01*
X617257Y1060829D01*
X617187Y1060549D01*
X617141Y1060245D01*
X617094Y1059918D01*
X617047Y1059520D01*
Y1059123D01*
Y1052744D01*
X615061D01*
Y1064474D01*
X616837D01*
Y1062792D01*
X616860Y1062815D01*
X616907Y1062885D01*
X616977Y1062979D01*
X617071Y1063096D01*
X617211Y1063236D01*
X617374Y1063400D01*
X617561Y1063587D01*
X617795Y1063773D01*
X618029Y1063937D01*
X618309Y1064124D01*
X618613Y1064287D01*
X618940Y1064428D01*
X619314Y1064545D01*
X619688Y1064638D01*
X620108Y1064708D01*
X620552Y1064732D01*
X620739D01*
X620926Y1064708D01*
D02*
G37*
G36*
X547387D02*
X547574Y1064685D01*
X547808Y1064638D01*
X548065Y1064591D01*
X548369Y1064521D01*
X548649Y1064451D01*
X548976Y1064334D01*
X549280Y1064217D01*
X549607Y1064054D01*
X549934Y1063867D01*
X550261Y1063657D01*
X550565Y1063400D01*
X550846Y1063119D01*
X550869Y1063096D01*
X550916Y1063049D01*
X550986Y1062955D01*
X551079Y1062815D01*
X551196Y1062652D01*
X551313Y1062465D01*
X551453Y1062231D01*
X551593Y1061951D01*
X551734Y1061647D01*
X551874Y1061320D01*
X551991Y1060946D01*
X552108Y1060549D01*
X552201Y1060105D01*
X552271Y1059637D01*
X552318Y1059146D01*
X552341Y1058609D01*
Y1058586D01*
Y1058492D01*
Y1058329D01*
X552318Y1058095D01*
X543555D01*
Y1058072D01*
Y1058001D01*
X543578Y1057908D01*
Y1057768D01*
X543601Y1057604D01*
X543648Y1057417D01*
X543718Y1056997D01*
X543859Y1056529D01*
X544045Y1056015D01*
X544302Y1055548D01*
X544630Y1055127D01*
X544653D01*
X544676Y1055080D01*
X544817Y1054964D01*
X545027Y1054800D01*
X545307Y1054637D01*
X545681Y1054450D01*
X546102Y1054286D01*
X546569Y1054169D01*
X546826Y1054146D01*
X547107Y1054122D01*
X547294D01*
X547504Y1054146D01*
X547761Y1054193D01*
X548041Y1054263D01*
X548369Y1054356D01*
X548672Y1054496D01*
X548976Y1054683D01*
X548999Y1054707D01*
X549116Y1054800D01*
X549257Y1054940D01*
X549420Y1055127D01*
X549607Y1055384D01*
X549817Y1055712D01*
X550028Y1056085D01*
X550215Y1056529D01*
X552271Y1056272D01*
Y1056249D01*
X552248Y1056202D01*
X552224Y1056109D01*
X552178Y1055968D01*
X552108Y1055828D01*
X552037Y1055641D01*
X551850Y1055244D01*
X551617Y1054800D01*
X551290Y1054333D01*
X550916Y1053889D01*
X550448Y1053468D01*
X550425D01*
X550378Y1053421D01*
X550308Y1053375D01*
X550215Y1053305D01*
X550074Y1053234D01*
X549934Y1053164D01*
X549747Y1053071D01*
X549537Y1052977D01*
X549303Y1052884D01*
X549070Y1052791D01*
X548485Y1052650D01*
X547831Y1052533D01*
X547107Y1052487D01*
X546850D01*
X546686Y1052510D01*
X546476Y1052533D01*
X546219Y1052580D01*
X545938Y1052627D01*
X545634Y1052674D01*
X544980Y1052861D01*
X544630Y1053001D01*
X544302Y1053141D01*
X543952Y1053328D01*
X543625Y1053538D01*
X543321Y1053772D01*
X543017Y1054052D01*
X542994Y1054076D01*
X542947Y1054122D01*
X542877Y1054216D01*
X542784Y1054356D01*
X542667Y1054520D01*
X542550Y1054707D01*
X542410Y1054940D01*
X542270Y1055197D01*
X542129Y1055501D01*
X541989Y1055828D01*
X541872Y1056202D01*
X541755Y1056599D01*
X541662Y1057020D01*
X541592Y1057487D01*
X541545Y1057978D01*
X541522Y1058492D01*
Y1058516D01*
Y1058633D01*
Y1058773D01*
X541545Y1058983D01*
X541568Y1059240D01*
X541592Y1059520D01*
X541639Y1059848D01*
X541709Y1060175D01*
X541896Y1060922D01*
X542012Y1061296D01*
X542153Y1061694D01*
X542340Y1062067D01*
X542550Y1062418D01*
X542784Y1062769D01*
X543041Y1063096D01*
X543064Y1063119D01*
X543111Y1063166D01*
X543204Y1063236D01*
X543321Y1063353D01*
X543461Y1063470D01*
X543648Y1063610D01*
X543859Y1063773D01*
X544116Y1063914D01*
X544373Y1064077D01*
X544676Y1064217D01*
X545004Y1064358D01*
X545354Y1064474D01*
X545728Y1064591D01*
X546125Y1064661D01*
X546546Y1064708D01*
X546990Y1064732D01*
X547224D01*
X547387Y1064708D01*
D02*
G37*
G36*
X457794Y1064474D02*
X459804D01*
Y1062932D01*
X457794D01*
Y1056039D01*
Y1055992D01*
Y1055898D01*
Y1055758D01*
X457818Y1055595D01*
X457841Y1055221D01*
X457864Y1055057D01*
X457888Y1054940D01*
X457911Y1054894D01*
X457981Y1054800D01*
X458075Y1054683D01*
X458238Y1054566D01*
X458285Y1054543D01*
X458402Y1054496D01*
X458612Y1054450D01*
X458916Y1054426D01*
X459150D01*
X459266Y1054450D01*
X459430D01*
X459617Y1054473D01*
X459804Y1054496D01*
X460061Y1052744D01*
X460014D01*
X459921Y1052720D01*
X459757Y1052697D01*
X459547Y1052674D01*
X459313Y1052627D01*
X459056Y1052604D01*
X458542Y1052580D01*
X458355D01*
X458168Y1052604D01*
X457934Y1052627D01*
X457654Y1052650D01*
X457374Y1052720D01*
X457117Y1052791D01*
X456860Y1052907D01*
X456836Y1052931D01*
X456766Y1052977D01*
X456673Y1053047D01*
X456532Y1053164D01*
X456415Y1053281D01*
X456275Y1053445D01*
X456135Y1053608D01*
X456042Y1053819D01*
Y1053842D01*
X455995Y1053935D01*
X455971Y1054099D01*
X455925Y1054333D01*
X455878Y1054637D01*
X455855Y1054824D01*
Y1055034D01*
X455831Y1055291D01*
X455808Y1055548D01*
Y1055828D01*
Y1056155D01*
Y1062932D01*
X454336D01*
Y1064474D01*
X455808D01*
Y1067372D01*
X457794Y1068564D01*
Y1064474D01*
D02*
G37*
G36*
X559445Y1064708D02*
X559702Y1064661D01*
X560006Y1064568D01*
X560333Y1064451D01*
X560707Y1064287D01*
X561104Y1064077D01*
X560380Y1062254D01*
X560356Y1062278D01*
X560263Y1062325D01*
X560123Y1062395D01*
X559936Y1062465D01*
X559725Y1062535D01*
X559468Y1062605D01*
X559211Y1062652D01*
X558954Y1062675D01*
X558837D01*
X558721Y1062652D01*
X558557Y1062628D01*
X558393Y1062582D01*
X558183Y1062512D01*
X557973Y1062418D01*
X557786Y1062278D01*
X557762Y1062254D01*
X557692Y1062208D01*
X557622Y1062114D01*
X557505Y1061997D01*
X557389Y1061834D01*
X557272Y1061647D01*
X557155Y1061437D01*
X557062Y1061180D01*
X557038Y1061133D01*
X557015Y1060993D01*
X556968Y1060782D01*
X556898Y1060502D01*
X556828Y1060151D01*
X556781Y1059754D01*
X556758Y1059333D01*
X556734Y1058866D01*
Y1052744D01*
X554748D01*
Y1064474D01*
X556547D01*
Y1062699D01*
X556571Y1062722D01*
X556664Y1062885D01*
X556781Y1063096D01*
X556968Y1063353D01*
X557155Y1063610D01*
X557365Y1063890D01*
X557576Y1064124D01*
X557786Y1064311D01*
X557809Y1064334D01*
X557879Y1064381D01*
X558020Y1064451D01*
X558160Y1064521D01*
X558347Y1064591D01*
X558580Y1064661D01*
X558814Y1064708D01*
X559071Y1064732D01*
X559235D01*
X559445Y1064708D01*
D02*
G37*
G36*
X493173D02*
X493337D01*
X493501Y1064685D01*
X493898Y1064615D01*
X494318Y1064498D01*
X494762Y1064311D01*
X495206Y1064077D01*
X495580Y1063750D01*
X495627Y1063703D01*
X495720Y1063563D01*
X495884Y1063353D01*
X495954Y1063189D01*
X496048Y1063026D01*
X496141Y1062815D01*
X496211Y1062605D01*
X496305Y1062371D01*
X496375Y1062091D01*
X496422Y1061811D01*
X496468Y1061483D01*
X496515Y1061156D01*
Y1060782D01*
Y1052744D01*
X494529D01*
Y1060105D01*
Y1060128D01*
Y1060151D01*
Y1060292D01*
Y1060502D01*
X494505Y1060759D01*
X494482Y1061039D01*
X494459Y1061320D01*
X494412Y1061600D01*
X494342Y1061811D01*
Y1061834D01*
X494295Y1061904D01*
X494248Y1061997D01*
X494178Y1062114D01*
X494085Y1062254D01*
X493968Y1062395D01*
X493828Y1062535D01*
X493641Y1062675D01*
X493617Y1062699D01*
X493547Y1062722D01*
X493454Y1062769D01*
X493290Y1062839D01*
X493127Y1062909D01*
X492916Y1062955D01*
X492706Y1062979D01*
X492449Y1063002D01*
X492332D01*
X492239Y1062979D01*
X492005Y1062955D01*
X491725Y1062909D01*
X491397Y1062792D01*
X491047Y1062652D01*
X490696Y1062441D01*
X490369Y1062161D01*
X490346Y1062114D01*
X490252Y1061997D01*
X490112Y1061811D01*
X489972Y1061530D01*
X489808Y1061156D01*
X489692Y1060712D01*
X489598Y1060175D01*
X489551Y1059544D01*
Y1052744D01*
X487565D01*
Y1060338D01*
Y1060362D01*
Y1060408D01*
Y1060455D01*
Y1060549D01*
X487542Y1060806D01*
X487495Y1061086D01*
X487448Y1061413D01*
X487355Y1061740D01*
X487238Y1062044D01*
X487074Y1062325D01*
X487051Y1062348D01*
X486981Y1062441D01*
X486864Y1062535D01*
X486700Y1062675D01*
X486490Y1062792D01*
X486210Y1062909D01*
X485882Y1062979D01*
X485485Y1063002D01*
X485345D01*
X485182Y1062979D01*
X484995Y1062955D01*
X484761Y1062885D01*
X484481Y1062815D01*
X484223Y1062699D01*
X483943Y1062558D01*
X483920Y1062535D01*
X483826Y1062465D01*
X483709Y1062371D01*
X483546Y1062231D01*
X483382Y1062044D01*
X483219Y1061811D01*
X483055Y1061553D01*
X482915Y1061250D01*
X482891Y1061203D01*
X482868Y1061086D01*
X482821Y1060899D01*
X482751Y1060642D01*
X482681Y1060292D01*
X482634Y1059871D01*
X482611Y1059380D01*
X482588Y1058819D01*
Y1052744D01*
X480601D01*
Y1064474D01*
X482377D01*
Y1062792D01*
X482401Y1062839D01*
X482471Y1062932D01*
X482611Y1063096D01*
X482775Y1063283D01*
X482985Y1063516D01*
X483242Y1063750D01*
X483522Y1063984D01*
X483849Y1064194D01*
X483896Y1064217D01*
X484013Y1064287D01*
X484200Y1064358D01*
X484457Y1064474D01*
X484761Y1064568D01*
X485111Y1064638D01*
X485509Y1064708D01*
X485929Y1064732D01*
X486140D01*
X486397Y1064708D01*
X486677Y1064661D01*
X487028Y1064591D01*
X487378Y1064498D01*
X487729Y1064358D01*
X488056Y1064171D01*
X488102Y1064147D01*
X488196Y1064077D01*
X488336Y1063960D01*
X488523Y1063773D01*
X488710Y1063563D01*
X488920Y1063306D01*
X489107Y1063002D01*
X489248Y1062652D01*
X489271Y1062675D01*
X489318Y1062745D01*
X489388Y1062839D01*
X489505Y1062979D01*
X489645Y1063142D01*
X489808Y1063306D01*
X489995Y1063493D01*
X490229Y1063703D01*
X490486Y1063890D01*
X490743Y1064077D01*
X491047Y1064241D01*
X491374Y1064404D01*
X491725Y1064545D01*
X492098Y1064638D01*
X492472Y1064708D01*
X492893Y1064732D01*
X493056D01*
X493173Y1064708D01*
D02*
G37*
G36*
X570999Y1180147D02*
X571186D01*
X571607Y1180101D01*
X572074Y1180054D01*
X572565Y1179960D01*
X573056Y1179844D01*
X573500Y1179680D01*
X573523D01*
X573547Y1179657D01*
X573687Y1179586D01*
X573897Y1179470D01*
X574131Y1179306D01*
X574411Y1179096D01*
X574715Y1178839D01*
X574995Y1178512D01*
X575252Y1178161D01*
X575276Y1178114D01*
X575346Y1177974D01*
X575463Y1177787D01*
X575580Y1177507D01*
X575696Y1177180D01*
X575813Y1176829D01*
X575883Y1176432D01*
X575907Y1176034D01*
Y1175988D01*
Y1175871D01*
X575883Y1175661D01*
X575837Y1175404D01*
X575767Y1175100D01*
X575650Y1174773D01*
X575509Y1174445D01*
X575323Y1174095D01*
X575299Y1174048D01*
X575229Y1173955D01*
X575089Y1173768D01*
X574902Y1173581D01*
X574668Y1173347D01*
X574388Y1173090D01*
X574037Y1172857D01*
X573640Y1172623D01*
X573663D01*
X573710Y1172599D01*
X573780Y1172576D01*
X573874Y1172529D01*
X574154Y1172436D01*
X574481Y1172272D01*
X574832Y1172062D01*
X575229Y1171805D01*
X575580Y1171501D01*
X575907Y1171127D01*
X575930Y1171080D01*
X576024Y1170940D01*
X576164Y1170730D01*
X576304Y1170450D01*
X576444Y1170076D01*
X576584Y1169678D01*
X576678Y1169211D01*
X576701Y1168697D01*
Y1168674D01*
Y1168650D01*
Y1168510D01*
X576678Y1168276D01*
X576631Y1167996D01*
X576584Y1167669D01*
X576491Y1167318D01*
X576374Y1166944D01*
X576211Y1166571D01*
X576187Y1166524D01*
X576117Y1166407D01*
X576024Y1166243D01*
X575883Y1166010D01*
X575696Y1165776D01*
X575509Y1165519D01*
X575276Y1165262D01*
X575019Y1165052D01*
X574995Y1165028D01*
X574902Y1164958D01*
X574738Y1164865D01*
X574528Y1164771D01*
X574271Y1164631D01*
X573967Y1164491D01*
X573640Y1164374D01*
X573243Y1164257D01*
X573196D01*
X573056Y1164210D01*
X572822Y1164187D01*
X572518Y1164140D01*
X572145Y1164093D01*
X571701Y1164047D01*
X571210Y1164023D01*
X570649Y1164000D01*
X564480D01*
Y1180171D01*
X570836D01*
X570999Y1180147D01*
D02*
G37*
G36*
X610598Y1116800D02*
X608611D01*
Y1132971D01*
X610598D01*
Y1116800D01*
D02*
G37*
G36*
X488137Y1175964D02*
X488487Y1175941D01*
X488884Y1175894D01*
X489282Y1175824D01*
X489679Y1175731D01*
X490053Y1175614D01*
X490099Y1175591D01*
X490216Y1175544D01*
X490380Y1175474D01*
X490590Y1175380D01*
X490824Y1175240D01*
X491058Y1175100D01*
X491268Y1174913D01*
X491455Y1174726D01*
X491478Y1174703D01*
X491525Y1174632D01*
X491595Y1174516D01*
X491688Y1174375D01*
X491805Y1174165D01*
X491899Y1173955D01*
X491992Y1173698D01*
X492062Y1173394D01*
Y1173371D01*
X492086Y1173300D01*
X492109Y1173160D01*
X492132Y1172973D01*
Y1172716D01*
X492156Y1172412D01*
X492179Y1172015D01*
Y1171571D01*
Y1168907D01*
Y1168884D01*
Y1168790D01*
Y1168650D01*
Y1168463D01*
Y1168253D01*
Y1167996D01*
X492203Y1167435D01*
Y1166851D01*
X492226Y1166267D01*
X492249Y1166010D01*
Y1165776D01*
X492273Y1165566D01*
X492296Y1165402D01*
Y1165379D01*
X492319Y1165285D01*
X492343Y1165145D01*
X492413Y1164958D01*
X492460Y1164748D01*
X492553Y1164514D01*
X492670Y1164257D01*
X492787Y1164000D01*
X490707D01*
X490684Y1164023D01*
X490660Y1164117D01*
X490614Y1164234D01*
X490544Y1164421D01*
X490473Y1164631D01*
X490427Y1164888D01*
X490380Y1165168D01*
X490333Y1165472D01*
X490310D01*
X490286Y1165425D01*
X490146Y1165309D01*
X489936Y1165145D01*
X489655Y1164935D01*
X489305Y1164724D01*
X488954Y1164491D01*
X488581Y1164280D01*
X488183Y1164117D01*
X488137Y1164093D01*
X487996Y1164070D01*
X487786Y1164000D01*
X487529Y1163930D01*
X487202Y1163860D01*
X486828Y1163813D01*
X486407Y1163766D01*
X485987Y1163743D01*
X485800D01*
X485660Y1163766D01*
X485496D01*
X485309Y1163790D01*
X484888Y1163860D01*
X484421Y1163977D01*
X483907Y1164140D01*
X483440Y1164374D01*
X483019Y1164678D01*
X482972Y1164724D01*
X482855Y1164841D01*
X482692Y1165052D01*
X482505Y1165332D01*
X482318Y1165683D01*
X482154Y1166080D01*
X482038Y1166571D01*
X482014Y1166804D01*
X481991Y1167085D01*
Y1167131D01*
Y1167225D01*
X482014Y1167388D01*
X482038Y1167599D01*
X482084Y1167856D01*
X482154Y1168113D01*
X482248Y1168393D01*
X482365Y1168650D01*
X482388Y1168674D01*
X482435Y1168767D01*
X482528Y1168907D01*
X482645Y1169071D01*
X482785Y1169258D01*
X482972Y1169445D01*
X483159Y1169632D01*
X483393Y1169795D01*
X483416Y1169819D01*
X483510Y1169865D01*
X483627Y1169959D01*
X483814Y1170052D01*
X484024Y1170146D01*
X484281Y1170263D01*
X484538Y1170356D01*
X484842Y1170450D01*
X484865D01*
X484958Y1170473D01*
X485099Y1170520D01*
X485286Y1170543D01*
X485519Y1170590D01*
X485823Y1170637D01*
X486174Y1170707D01*
X486594Y1170753D01*
X486618D01*
X486711Y1170777D01*
X486828D01*
X486992Y1170800D01*
X487178Y1170824D01*
X487412Y1170870D01*
X487669Y1170894D01*
X487950Y1170940D01*
X488511Y1171057D01*
X489118Y1171174D01*
X489655Y1171314D01*
X489912Y1171384D01*
X490146Y1171454D01*
Y1171478D01*
Y1171525D01*
X490170Y1171665D01*
Y1171828D01*
Y1171922D01*
Y1171969D01*
Y1171992D01*
Y1172015D01*
Y1172155D01*
X490146Y1172389D01*
X490099Y1172646D01*
X490029Y1172927D01*
X489912Y1173207D01*
X489772Y1173464D01*
X489585Y1173674D01*
X489562Y1173698D01*
X489445Y1173791D01*
X489258Y1173885D01*
X489025Y1174025D01*
X488697Y1174142D01*
X488324Y1174259D01*
X487856Y1174329D01*
X487319Y1174352D01*
X487085D01*
X486851Y1174329D01*
X486524Y1174282D01*
X486197Y1174235D01*
X485846Y1174142D01*
X485519Y1174025D01*
X485239Y1173861D01*
X485216Y1173838D01*
X485122Y1173768D01*
X485005Y1173651D01*
X484865Y1173464D01*
X484725Y1173230D01*
X484561Y1172927D01*
X484421Y1172553D01*
X484281Y1172132D01*
X482341Y1172389D01*
Y1172412D01*
X482365Y1172436D01*
Y1172506D01*
X482388Y1172599D01*
X482458Y1172810D01*
X482552Y1173113D01*
X482668Y1173417D01*
X482809Y1173745D01*
X482996Y1174072D01*
X483206Y1174375D01*
X483229Y1174399D01*
X483323Y1174492D01*
X483463Y1174632D01*
X483650Y1174819D01*
X483907Y1175006D01*
X484211Y1175193D01*
X484561Y1175404D01*
X484958Y1175567D01*
X484982D01*
X485005Y1175591D01*
X485075Y1175614D01*
X485169Y1175637D01*
X485402Y1175707D01*
X485730Y1175778D01*
X486104Y1175848D01*
X486571Y1175918D01*
X487062Y1175964D01*
X487622Y1175988D01*
X487879D01*
X488137Y1175964D01*
D02*
G37*
G36*
X540177Y1180147D02*
X540574Y1180124D01*
X540995Y1180101D01*
X541392Y1180054D01*
X541743Y1180007D01*
X541790D01*
X541953Y1179960D01*
X542163Y1179914D01*
X542444Y1179844D01*
X542748Y1179727D01*
X543075Y1179586D01*
X543425Y1179423D01*
X543729Y1179236D01*
X543776Y1179213D01*
X543869Y1179143D01*
X544010Y1179002D01*
X544196Y1178839D01*
X544407Y1178628D01*
X544617Y1178348D01*
X544851Y1178044D01*
X545038Y1177694D01*
X545061Y1177647D01*
X545108Y1177530D01*
X545201Y1177320D01*
X545295Y1177039D01*
X545365Y1176712D01*
X545458Y1176338D01*
X545505Y1175918D01*
X545528Y1175474D01*
Y1175450D01*
Y1175380D01*
Y1175287D01*
X545505Y1175123D01*
X545482Y1174960D01*
X545458Y1174749D01*
X545411Y1174516D01*
X545365Y1174259D01*
X545201Y1173721D01*
X545108Y1173441D01*
X544967Y1173137D01*
X544804Y1172833D01*
X544640Y1172553D01*
X544430Y1172272D01*
X544196Y1171992D01*
X544173Y1171969D01*
X544126Y1171922D01*
X544056Y1171852D01*
X543939Y1171782D01*
X543799Y1171665D01*
X543612Y1171548D01*
X543378Y1171408D01*
X543121Y1171291D01*
X542818Y1171151D01*
X542467Y1171010D01*
X542093Y1170894D01*
X541649Y1170800D01*
X541182Y1170707D01*
X540668Y1170637D01*
X540084Y1170590D01*
X539476Y1170566D01*
X535340D01*
Y1164000D01*
X533190D01*
Y1180171D01*
X539827D01*
X540177Y1180147D01*
D02*
G37*
G36*
X601554Y1128764D02*
X601905Y1128741D01*
X602302Y1128694D01*
X602699Y1128624D01*
X603096Y1128531D01*
X603470Y1128414D01*
X603517Y1128391D01*
X603634Y1128344D01*
X603797Y1128274D01*
X604008Y1128180D01*
X604241Y1128040D01*
X604475Y1127900D01*
X604686Y1127713D01*
X604872Y1127526D01*
X604896Y1127503D01*
X604943Y1127432D01*
X605013Y1127316D01*
X605106Y1127176D01*
X605223Y1126965D01*
X605316Y1126755D01*
X605410Y1126498D01*
X605480Y1126194D01*
Y1126171D01*
X605503Y1126100D01*
X605527Y1125960D01*
X605550Y1125773D01*
Y1125516D01*
X605573Y1125213D01*
X605597Y1124815D01*
Y1124371D01*
Y1121707D01*
Y1121684D01*
Y1121590D01*
Y1121450D01*
Y1121263D01*
Y1121053D01*
Y1120796D01*
X605620Y1120235D01*
Y1119651D01*
X605644Y1119067D01*
X605667Y1118810D01*
Y1118576D01*
X605690Y1118366D01*
X605714Y1118202D01*
Y1118179D01*
X605737Y1118085D01*
X605760Y1117945D01*
X605830Y1117758D01*
X605877Y1117548D01*
X605971Y1117314D01*
X606087Y1117057D01*
X606204Y1116800D01*
X604125D01*
X604101Y1116823D01*
X604078Y1116917D01*
X604031Y1117034D01*
X603961Y1117221D01*
X603891Y1117431D01*
X603844Y1117688D01*
X603797Y1117969D01*
X603751Y1118272D01*
X603727D01*
X603704Y1118225D01*
X603564Y1118109D01*
X603354Y1117945D01*
X603073Y1117735D01*
X602723Y1117524D01*
X602372Y1117291D01*
X601998Y1117081D01*
X601601Y1116917D01*
X601554Y1116893D01*
X601414Y1116870D01*
X601204Y1116800D01*
X600947Y1116730D01*
X600619Y1116660D01*
X600246Y1116613D01*
X599825Y1116566D01*
X599404Y1116543D01*
X599217D01*
X599077Y1116566D01*
X598914D01*
X598727Y1116590D01*
X598306Y1116660D01*
X597839Y1116777D01*
X597324Y1116940D01*
X596857Y1117174D01*
X596437Y1117478D01*
X596390Y1117524D01*
X596273Y1117641D01*
X596109Y1117852D01*
X595923Y1118132D01*
X595736Y1118483D01*
X595572Y1118880D01*
X595455Y1119371D01*
X595432Y1119604D01*
X595408Y1119885D01*
Y1119931D01*
Y1120025D01*
X595432Y1120188D01*
X595455Y1120399D01*
X595502Y1120656D01*
X595572Y1120913D01*
X595665Y1121193D01*
X595782Y1121450D01*
X595806Y1121474D01*
X595852Y1121567D01*
X595946Y1121707D01*
X596063Y1121871D01*
X596203Y1122058D01*
X596390Y1122245D01*
X596577Y1122432D01*
X596810Y1122595D01*
X596834Y1122619D01*
X596927Y1122665D01*
X597044Y1122759D01*
X597231Y1122852D01*
X597441Y1122946D01*
X597698Y1123063D01*
X597956Y1123156D01*
X598259Y1123250D01*
X598283D01*
X598376Y1123273D01*
X598516Y1123320D01*
X598703Y1123343D01*
X598937Y1123390D01*
X599241Y1123437D01*
X599591Y1123507D01*
X600012Y1123553D01*
X600035D01*
X600129Y1123577D01*
X600246D01*
X600409Y1123600D01*
X600596Y1123624D01*
X600830Y1123670D01*
X601087Y1123694D01*
X601367Y1123740D01*
X601928Y1123857D01*
X602536Y1123974D01*
X603073Y1124114D01*
X603330Y1124184D01*
X603564Y1124255D01*
Y1124278D01*
Y1124325D01*
X603587Y1124465D01*
Y1124628D01*
Y1124722D01*
Y1124769D01*
Y1124792D01*
Y1124815D01*
Y1124956D01*
X603564Y1125189D01*
X603517Y1125446D01*
X603447Y1125727D01*
X603330Y1126007D01*
X603190Y1126264D01*
X603003Y1126474D01*
X602980Y1126498D01*
X602863Y1126591D01*
X602676Y1126685D01*
X602442Y1126825D01*
X602115Y1126942D01*
X601741Y1127059D01*
X601274Y1127129D01*
X600736Y1127152D01*
X600503D01*
X600269Y1127129D01*
X599942Y1127082D01*
X599615Y1127035D01*
X599264Y1126942D01*
X598937Y1126825D01*
X598657Y1126661D01*
X598633Y1126638D01*
X598540Y1126568D01*
X598423Y1126451D01*
X598283Y1126264D01*
X598142Y1126030D01*
X597979Y1125727D01*
X597839Y1125353D01*
X597698Y1124932D01*
X595759Y1125189D01*
Y1125213D01*
X595782Y1125236D01*
Y1125306D01*
X595806Y1125399D01*
X595876Y1125610D01*
X595969Y1125914D01*
X596086Y1126217D01*
X596226Y1126544D01*
X596413Y1126872D01*
X596623Y1127176D01*
X596647Y1127199D01*
X596740Y1127292D01*
X596880Y1127432D01*
X597067Y1127619D01*
X597324Y1127806D01*
X597628Y1127993D01*
X597979Y1128204D01*
X598376Y1128367D01*
X598400D01*
X598423Y1128391D01*
X598493Y1128414D01*
X598586Y1128437D01*
X598820Y1128507D01*
X599147Y1128577D01*
X599521Y1128648D01*
X599989Y1128718D01*
X600479Y1128764D01*
X601040Y1128788D01*
X601297D01*
X601554Y1128764D01*
D02*
G37*
G36*
X476512Y1118716D02*
X484481D01*
Y1116800D01*
X474362D01*
Y1132971D01*
X476512D01*
Y1118716D01*
D02*
G37*
G36*
X440806Y1131055D02*
X435478D01*
Y1116800D01*
X433328D01*
Y1131055D01*
X428000D01*
Y1132971D01*
X440806D01*
Y1131055D01*
D02*
G37*
G36*
X567904Y1116800D02*
X565918D01*
Y1128531D01*
X567904D01*
Y1116800D01*
D02*
G37*
G36*
X492239Y1128764D02*
X492589Y1128741D01*
X492986Y1128694D01*
X493384Y1128624D01*
X493781Y1128531D01*
X494155Y1128414D01*
X494202Y1128391D01*
X494318Y1128344D01*
X494482Y1128274D01*
X494692Y1128180D01*
X494926Y1128040D01*
X495160Y1127900D01*
X495370Y1127713D01*
X495557Y1127526D01*
X495580Y1127503D01*
X495627Y1127432D01*
X495697Y1127316D01*
X495791Y1127176D01*
X495907Y1126965D01*
X496001Y1126755D01*
X496094Y1126498D01*
X496165Y1126194D01*
Y1126171D01*
X496188Y1126100D01*
X496211Y1125960D01*
X496235Y1125773D01*
Y1125516D01*
X496258Y1125213D01*
X496281Y1124815D01*
Y1124371D01*
Y1121707D01*
Y1121684D01*
Y1121590D01*
Y1121450D01*
Y1121263D01*
Y1121053D01*
Y1120796D01*
X496305Y1120235D01*
Y1119651D01*
X496328Y1119067D01*
X496351Y1118810D01*
Y1118576D01*
X496375Y1118366D01*
X496398Y1118202D01*
Y1118179D01*
X496422Y1118085D01*
X496445Y1117945D01*
X496515Y1117758D01*
X496562Y1117548D01*
X496655Y1117314D01*
X496772Y1117057D01*
X496889Y1116800D01*
X494809D01*
X494786Y1116823D01*
X494762Y1116917D01*
X494716Y1117034D01*
X494646Y1117221D01*
X494575Y1117431D01*
X494529Y1117688D01*
X494482Y1117969D01*
X494435Y1118272D01*
X494412D01*
X494389Y1118225D01*
X494248Y1118109D01*
X494038Y1117945D01*
X493758Y1117735D01*
X493407Y1117524D01*
X493056Y1117291D01*
X492683Y1117081D01*
X492285Y1116917D01*
X492239Y1116893D01*
X492098Y1116870D01*
X491888Y1116800D01*
X491631Y1116730D01*
X491304Y1116660D01*
X490930Y1116613D01*
X490509Y1116566D01*
X490089Y1116543D01*
X489902D01*
X489762Y1116566D01*
X489598D01*
X489411Y1116590D01*
X488991Y1116660D01*
X488523Y1116777D01*
X488009Y1116940D01*
X487542Y1117174D01*
X487121Y1117478D01*
X487074Y1117524D01*
X486958Y1117641D01*
X486794Y1117852D01*
X486607Y1118132D01*
X486420Y1118483D01*
X486256Y1118880D01*
X486140Y1119371D01*
X486116Y1119604D01*
X486093Y1119885D01*
Y1119931D01*
Y1120025D01*
X486116Y1120188D01*
X486140Y1120399D01*
X486186Y1120656D01*
X486256Y1120913D01*
X486350Y1121193D01*
X486467Y1121450D01*
X486490Y1121474D01*
X486537Y1121567D01*
X486630Y1121707D01*
X486747Y1121871D01*
X486887Y1122058D01*
X487074Y1122245D01*
X487261Y1122432D01*
X487495Y1122595D01*
X487518Y1122619D01*
X487612Y1122665D01*
X487729Y1122759D01*
X487916Y1122852D01*
X488126Y1122946D01*
X488383Y1123063D01*
X488640Y1123156D01*
X488944Y1123250D01*
X488967D01*
X489061Y1123273D01*
X489201Y1123320D01*
X489388Y1123343D01*
X489621Y1123390D01*
X489925Y1123437D01*
X490276Y1123507D01*
X490696Y1123553D01*
X490720D01*
X490813Y1123577D01*
X490930D01*
X491094Y1123600D01*
X491281Y1123624D01*
X491514Y1123670D01*
X491771Y1123694D01*
X492052Y1123740D01*
X492612Y1123857D01*
X493220Y1123974D01*
X493758Y1124114D01*
X494015Y1124184D01*
X494248Y1124255D01*
Y1124278D01*
Y1124325D01*
X494272Y1124465D01*
Y1124628D01*
Y1124722D01*
Y1124769D01*
Y1124792D01*
Y1124815D01*
Y1124956D01*
X494248Y1125189D01*
X494202Y1125446D01*
X494131Y1125727D01*
X494015Y1126007D01*
X493874Y1126264D01*
X493688Y1126474D01*
X493664Y1126498D01*
X493547Y1126591D01*
X493360Y1126685D01*
X493127Y1126825D01*
X492799Y1126942D01*
X492426Y1127059D01*
X491958Y1127129D01*
X491421Y1127152D01*
X491187D01*
X490953Y1127129D01*
X490626Y1127082D01*
X490299Y1127035D01*
X489949Y1126942D01*
X489621Y1126825D01*
X489341Y1126661D01*
X489318Y1126638D01*
X489224Y1126568D01*
X489107Y1126451D01*
X488967Y1126264D01*
X488827Y1126030D01*
X488663Y1125727D01*
X488523Y1125353D01*
X488383Y1124932D01*
X486443Y1125189D01*
Y1125213D01*
X486467Y1125236D01*
Y1125306D01*
X486490Y1125399D01*
X486560Y1125610D01*
X486654Y1125914D01*
X486771Y1126217D01*
X486911Y1126544D01*
X487098Y1126872D01*
X487308Y1127176D01*
X487331Y1127199D01*
X487425Y1127292D01*
X487565Y1127432D01*
X487752Y1127619D01*
X488009Y1127806D01*
X488313Y1127993D01*
X488663Y1128204D01*
X489061Y1128367D01*
X489084D01*
X489107Y1128391D01*
X489177Y1128414D01*
X489271Y1128437D01*
X489505Y1128507D01*
X489832Y1128577D01*
X490206Y1128648D01*
X490673Y1128718D01*
X491164Y1128764D01*
X491725Y1128788D01*
X491982D01*
X492239Y1128764D01*
D02*
G37*
G36*
X472410Y1165916D02*
X480378D01*
Y1164000D01*
X470260D01*
Y1180171D01*
X472410D01*
Y1165916D01*
D02*
G37*
G36*
X460902Y1128764D02*
X461066Y1128741D01*
X461416Y1128694D01*
X461837Y1128601D01*
X462281Y1128461D01*
X462725Y1128250D01*
X463169Y1127993D01*
X463192D01*
X463216Y1127947D01*
X463356Y1127853D01*
X463566Y1127666D01*
X463823Y1127432D01*
X464104Y1127129D01*
X464384Y1126755D01*
X464664Y1126311D01*
X464898Y1125820D01*
Y1125797D01*
X464921Y1125750D01*
X464945Y1125680D01*
X464992Y1125586D01*
X465038Y1125446D01*
X465085Y1125283D01*
X465202Y1124909D01*
X465319Y1124441D01*
X465412Y1123927D01*
X465482Y1123343D01*
X465506Y1122736D01*
Y1122712D01*
Y1122665D01*
Y1122572D01*
Y1122432D01*
X465482Y1122268D01*
Y1122081D01*
X465435Y1121661D01*
X465342Y1121146D01*
X465225Y1120609D01*
X465062Y1120048D01*
X464851Y1119487D01*
Y1119464D01*
X464828Y1119417D01*
X464781Y1119347D01*
X464734Y1119254D01*
X464571Y1118997D01*
X464361Y1118670D01*
X464104Y1118319D01*
X463776Y1117969D01*
X463402Y1117618D01*
X462958Y1117291D01*
X462935D01*
X462912Y1117267D01*
X462842Y1117221D01*
X462748Y1117174D01*
X462514Y1117057D01*
X462187Y1116917D01*
X461790Y1116777D01*
X461370Y1116660D01*
X460879Y1116566D01*
X460388Y1116543D01*
X460224D01*
X460037Y1116566D01*
X459804Y1116590D01*
X459523Y1116637D01*
X459220Y1116707D01*
X458916Y1116800D01*
X458612Y1116940D01*
X458589Y1116964D01*
X458472Y1117010D01*
X458332Y1117104D01*
X458145Y1117244D01*
X457958Y1117384D01*
X457724Y1117571D01*
X457514Y1117782D01*
X457327Y1118015D01*
Y1112313D01*
X455341D01*
Y1128531D01*
X457140D01*
Y1126989D01*
X457163Y1127035D01*
X457257Y1127129D01*
X457374Y1127292D01*
X457561Y1127479D01*
X457771Y1127713D01*
X458004Y1127923D01*
X458285Y1128134D01*
X458565Y1128320D01*
X458612Y1128344D01*
X458706Y1128391D01*
X458893Y1128461D01*
X459126Y1128554D01*
X459407Y1128648D01*
X459734Y1128718D01*
X460108Y1128764D01*
X460528Y1128788D01*
X460785D01*
X460902Y1128764D01*
D02*
G37*
G36*
X589379D02*
X589636Y1128741D01*
X589940Y1128694D01*
X590267Y1128624D01*
X590618Y1128531D01*
X590945Y1128391D01*
X590992Y1128367D01*
X591085Y1128320D01*
X591249Y1128250D01*
X591436Y1128134D01*
X591670Y1127993D01*
X591880Y1127806D01*
X592090Y1127619D01*
X592277Y1127386D01*
X592300Y1127362D01*
X592347Y1127269D01*
X592417Y1127152D01*
X592534Y1126989D01*
X592628Y1126755D01*
X592721Y1126521D01*
X592838Y1126241D01*
X592908Y1125937D01*
Y1125914D01*
X592931Y1125820D01*
X592955Y1125680D01*
X592978Y1125493D01*
Y1125213D01*
X593002Y1124885D01*
X593025Y1124488D01*
Y1123997D01*
Y1116800D01*
X591039D01*
Y1123904D01*
Y1123927D01*
Y1123951D01*
Y1124114D01*
Y1124325D01*
X591015Y1124582D01*
X590992Y1124885D01*
X590945Y1125189D01*
X590875Y1125470D01*
X590805Y1125727D01*
Y1125750D01*
X590758Y1125820D01*
X590688Y1125937D01*
X590618Y1126077D01*
X590501Y1126217D01*
X590361Y1126381D01*
X590174Y1126544D01*
X589964Y1126685D01*
X589940Y1126708D01*
X589870Y1126755D01*
X589730Y1126802D01*
X589566Y1126872D01*
X589379Y1126942D01*
X589146Y1127012D01*
X588865Y1127035D01*
X588585Y1127059D01*
X588468D01*
X588375Y1127035D01*
X588141Y1127012D01*
X587837Y1126965D01*
X587510Y1126848D01*
X587136Y1126708D01*
X586762Y1126521D01*
X586412Y1126241D01*
X586365Y1126194D01*
X586272Y1126077D01*
X586201Y1125984D01*
X586131Y1125867D01*
X586038Y1125727D01*
X585968Y1125563D01*
X585874Y1125376D01*
X585781Y1125143D01*
X585711Y1124885D01*
X585640Y1124605D01*
X585594Y1124301D01*
X585547Y1123974D01*
X585500Y1123577D01*
Y1123179D01*
Y1116800D01*
X583514D01*
Y1128531D01*
X585290D01*
Y1126848D01*
X585313Y1126872D01*
X585360Y1126942D01*
X585430Y1127035D01*
X585524Y1127152D01*
X585664Y1127292D01*
X585827Y1127456D01*
X586014Y1127643D01*
X586248Y1127830D01*
X586482Y1127993D01*
X586762Y1128180D01*
X587066Y1128344D01*
X587393Y1128484D01*
X587767Y1128601D01*
X588141Y1128694D01*
X588562Y1128764D01*
X589006Y1128788D01*
X589193D01*
X589379Y1128764D01*
D02*
G37*
G36*
X567904Y1130704D02*
X565918D01*
Y1132971D01*
X567904D01*
Y1130704D01*
D02*
G37*
G36*
X557132Y1133228D02*
X557295D01*
X557739Y1133181D01*
X558230Y1133111D01*
X558744Y1132994D01*
X559305Y1132854D01*
X559819Y1132667D01*
X559842D01*
X559889Y1132644D01*
X559959Y1132597D01*
X560053Y1132550D01*
X560286Y1132433D01*
X560590Y1132223D01*
X560941Y1131989D01*
X561291Y1131685D01*
X561618Y1131335D01*
X561922Y1130938D01*
Y1130914D01*
X561945Y1130891D01*
X561992Y1130821D01*
X562039Y1130751D01*
X562156Y1130517D01*
X562296Y1130213D01*
X562459Y1129839D01*
X562576Y1129395D01*
X562693Y1128928D01*
X562740Y1128414D01*
X560684Y1128250D01*
Y1128274D01*
Y1128320D01*
X560660Y1128391D01*
X560637Y1128507D01*
X560567Y1128764D01*
X560473Y1129115D01*
X560333Y1129489D01*
X560123Y1129863D01*
X559866Y1130213D01*
X559538Y1130540D01*
X559492Y1130564D01*
X559375Y1130657D01*
X559141Y1130798D01*
X558837Y1130938D01*
X558440Y1131078D01*
X557973Y1131218D01*
X557389Y1131312D01*
X556734Y1131335D01*
X556407D01*
X556267Y1131312D01*
X556080Y1131288D01*
X555659Y1131242D01*
X555192Y1131148D01*
X554725Y1131031D01*
X554281Y1130844D01*
X554094Y1130727D01*
X553907Y1130611D01*
X553860Y1130587D01*
X553767Y1130494D01*
X553626Y1130330D01*
X553486Y1130143D01*
X553323Y1129886D01*
X553182Y1129606D01*
X553089Y1129279D01*
X553042Y1128905D01*
Y1128858D01*
Y1128764D01*
X553065Y1128601D01*
X553112Y1128414D01*
X553182Y1128180D01*
X553299Y1127947D01*
X553439Y1127713D01*
X553650Y1127479D01*
X553673Y1127456D01*
X553790Y1127386D01*
X553883Y1127316D01*
X553977Y1127269D01*
X554117Y1127199D01*
X554281Y1127105D01*
X554491Y1127035D01*
X554725Y1126942D01*
X554982Y1126848D01*
X555285Y1126731D01*
X555613Y1126638D01*
X555987Y1126521D01*
X556407Y1126428D01*
X556875Y1126311D01*
X556898D01*
X556991Y1126288D01*
X557132Y1126264D01*
X557295Y1126217D01*
X557505Y1126171D01*
X557762Y1126100D01*
X558020Y1126030D01*
X558300Y1125960D01*
X558908Y1125797D01*
X559492Y1125633D01*
X559772Y1125540D01*
X560029Y1125446D01*
X560263Y1125376D01*
X560450Y1125283D01*
X560473D01*
X560520Y1125259D01*
X560590Y1125213D01*
X560684Y1125166D01*
X560941Y1125026D01*
X561244Y1124839D01*
X561595Y1124582D01*
X561945Y1124301D01*
X562272Y1123974D01*
X562553Y1123624D01*
X562576Y1123577D01*
X562670Y1123460D01*
X562763Y1123250D01*
X562904Y1122969D01*
X563020Y1122642D01*
X563137Y1122245D01*
X563207Y1121801D01*
X563231Y1121333D01*
Y1121310D01*
Y1121287D01*
Y1121217D01*
Y1121123D01*
X563184Y1120866D01*
X563137Y1120539D01*
X563044Y1120165D01*
X562927Y1119768D01*
X562740Y1119347D01*
X562483Y1118903D01*
Y1118880D01*
X562459Y1118857D01*
X562343Y1118716D01*
X562179Y1118506D01*
X561945Y1118272D01*
X561642Y1117992D01*
X561268Y1117688D01*
X560847Y1117408D01*
X560356Y1117151D01*
X560333D01*
X560286Y1117127D01*
X560216Y1117104D01*
X560123Y1117057D01*
X559982Y1117010D01*
X559819Y1116940D01*
X559445Y1116847D01*
X559001Y1116730D01*
X558464Y1116613D01*
X557879Y1116543D01*
X557248Y1116520D01*
X556875D01*
X556688Y1116543D01*
X556477D01*
X556244Y1116566D01*
X555963Y1116590D01*
X555379Y1116683D01*
X554771Y1116777D01*
X554164Y1116940D01*
X553580Y1117151D01*
X553556D01*
X553509Y1117174D01*
X553439Y1117221D01*
X553346Y1117267D01*
X553065Y1117408D01*
X552738Y1117618D01*
X552365Y1117898D01*
X551967Y1118225D01*
X551593Y1118623D01*
X551243Y1119067D01*
Y1119090D01*
X551196Y1119137D01*
X551173Y1119207D01*
X551103Y1119301D01*
X551056Y1119417D01*
X550986Y1119557D01*
X550822Y1119908D01*
X550659Y1120352D01*
X550518Y1120843D01*
X550425Y1121404D01*
X550378Y1121988D01*
X552388Y1122175D01*
Y1122151D01*
Y1122128D01*
X552411Y1122058D01*
Y1121964D01*
X552458Y1121754D01*
X552528Y1121450D01*
X552622Y1121146D01*
X552715Y1120796D01*
X552879Y1120469D01*
X553042Y1120165D01*
X553065Y1120142D01*
X553136Y1120048D01*
X553252Y1119885D01*
X553439Y1119721D01*
X553673Y1119511D01*
X553930Y1119301D01*
X554281Y1119090D01*
X554655Y1118903D01*
X554678D01*
X554701Y1118880D01*
X554771Y1118857D01*
X554841Y1118833D01*
X555075Y1118763D01*
X555379Y1118670D01*
X555753Y1118576D01*
X556174Y1118506D01*
X556641Y1118459D01*
X557155Y1118436D01*
X557365D01*
X557599Y1118459D01*
X557879Y1118483D01*
X558206Y1118529D01*
X558580Y1118576D01*
X558954Y1118670D01*
X559305Y1118786D01*
X559352Y1118810D01*
X559468Y1118857D01*
X559632Y1118950D01*
X559842Y1119043D01*
X560053Y1119207D01*
X560286Y1119371D01*
X560520Y1119557D01*
X560707Y1119791D01*
X560730Y1119815D01*
X560777Y1119908D01*
X560847Y1120025D01*
X560941Y1120212D01*
X561034Y1120399D01*
X561104Y1120632D01*
X561151Y1120890D01*
X561174Y1121170D01*
Y1121193D01*
Y1121310D01*
X561151Y1121450D01*
X561128Y1121637D01*
X561057Y1121824D01*
X560987Y1122058D01*
X560871Y1122292D01*
X560707Y1122502D01*
X560684Y1122525D01*
X560613Y1122595D01*
X560520Y1122689D01*
X560356Y1122829D01*
X560169Y1122969D01*
X559912Y1123133D01*
X559609Y1123296D01*
X559258Y1123437D01*
X559235Y1123460D01*
X559118Y1123483D01*
X558931Y1123553D01*
X558814Y1123577D01*
X558651Y1123624D01*
X558487Y1123694D01*
X558277Y1123740D01*
X558043Y1123811D01*
X557762Y1123881D01*
X557482Y1123951D01*
X557155Y1124044D01*
X556781Y1124138D01*
X556384Y1124231D01*
X556360D01*
X556290Y1124255D01*
X556174Y1124278D01*
X556033Y1124325D01*
X555846Y1124371D01*
X555636Y1124418D01*
X555169Y1124558D01*
X554655Y1124722D01*
X554117Y1124885D01*
X553650Y1125049D01*
X553439Y1125143D01*
X553252Y1125236D01*
X553229D01*
X553206Y1125259D01*
X553065Y1125353D01*
X552855Y1125470D01*
X552622Y1125657D01*
X552341Y1125867D01*
X552061Y1126124D01*
X551780Y1126428D01*
X551547Y1126755D01*
X551523Y1126802D01*
X551453Y1126918D01*
X551360Y1127105D01*
X551266Y1127339D01*
X551173Y1127643D01*
X551079Y1127993D01*
X551009Y1128367D01*
X550986Y1128764D01*
Y1128788D01*
Y1128811D01*
Y1128881D01*
Y1128975D01*
X551032Y1129209D01*
X551079Y1129512D01*
X551149Y1129863D01*
X551266Y1130260D01*
X551430Y1130657D01*
X551664Y1131055D01*
Y1131078D01*
X551687Y1131101D01*
X551804Y1131242D01*
X551967Y1131428D01*
X552178Y1131662D01*
X552458Y1131919D01*
X552808Y1132200D01*
X553229Y1132457D01*
X553697Y1132690D01*
X553720D01*
X553767Y1132714D01*
X553837Y1132737D01*
X553930Y1132784D01*
X554047Y1132831D01*
X554211Y1132877D01*
X554561Y1132971D01*
X555005Y1133064D01*
X555519Y1133158D01*
X556057Y1133228D01*
X556664Y1133251D01*
X556968D01*
X557132Y1133228D01*
D02*
G37*
G36*
X527898Y1128764D02*
X528155Y1128718D01*
X528459Y1128624D01*
X528786Y1128507D01*
X529160Y1128344D01*
X529557Y1128134D01*
X528833Y1126311D01*
X528810Y1126334D01*
X528716Y1126381D01*
X528576Y1126451D01*
X528389Y1126521D01*
X528179Y1126591D01*
X527922Y1126661D01*
X527664Y1126708D01*
X527407Y1126731D01*
X527291D01*
X527174Y1126708D01*
X527010Y1126685D01*
X526847Y1126638D01*
X526636Y1126568D01*
X526426Y1126474D01*
X526239Y1126334D01*
X526216Y1126311D01*
X526146Y1126264D01*
X526076Y1126171D01*
X525959Y1126054D01*
X525842Y1125890D01*
X525725Y1125703D01*
X525608Y1125493D01*
X525515Y1125236D01*
X525491Y1125189D01*
X525468Y1125049D01*
X525421Y1124839D01*
X525351Y1124558D01*
X525281Y1124208D01*
X525234Y1123811D01*
X525211Y1123390D01*
X525187Y1122923D01*
Y1116800D01*
X523201D01*
Y1128531D01*
X525001D01*
Y1126755D01*
X525024Y1126778D01*
X525117Y1126942D01*
X525234Y1127152D01*
X525421Y1127409D01*
X525608Y1127666D01*
X525818Y1127947D01*
X526029Y1128180D01*
X526239Y1128367D01*
X526262Y1128391D01*
X526333Y1128437D01*
X526473Y1128507D01*
X526613Y1128577D01*
X526800Y1128648D01*
X527034Y1128718D01*
X527267Y1128764D01*
X527524Y1128788D01*
X527688D01*
X527898Y1128764D01*
D02*
G37*
G36*
X504483Y1116613D02*
Y1116590D01*
X504460Y1116520D01*
X504413Y1116426D01*
X504367Y1116309D01*
X504296Y1116146D01*
X504226Y1115959D01*
X504063Y1115562D01*
X503899Y1115118D01*
X503712Y1114674D01*
X503525Y1114276D01*
X503432Y1114113D01*
X503362Y1113949D01*
X503338Y1113902D01*
X503268Y1113786D01*
X503152Y1113622D01*
X503011Y1113412D01*
X502824Y1113178D01*
X502614Y1112944D01*
X502404Y1112711D01*
X502147Y1112524D01*
X502123Y1112500D01*
X502030Y1112454D01*
X501890Y1112383D01*
X501679Y1112290D01*
X501446Y1112197D01*
X501165Y1112126D01*
X500861Y1112080D01*
X500511Y1112056D01*
X500417D01*
X500301Y1112080D01*
X500137D01*
X499950Y1112126D01*
X499740Y1112173D01*
X499506Y1112220D01*
X499249Y1112313D01*
X499039Y1114159D01*
X499062D01*
X499156Y1114136D01*
X499272Y1114113D01*
X499413Y1114066D01*
X499786Y1113996D01*
X500160Y1113972D01*
X500277D01*
X500394Y1113996D01*
X500534D01*
X500885Y1114066D01*
X501048Y1114136D01*
X501212Y1114206D01*
X501235D01*
X501282Y1114253D01*
X501352Y1114300D01*
X501446Y1114370D01*
X501656Y1114557D01*
X501843Y1114814D01*
Y1114837D01*
X501890Y1114884D01*
X501936Y1114977D01*
X501983Y1115118D01*
X502077Y1115304D01*
X502170Y1115585D01*
X502310Y1115912D01*
X502450Y1116309D01*
Y1116333D01*
X502497Y1116426D01*
X502544Y1116590D01*
X502637Y1116800D01*
X498198Y1128531D01*
X500301D01*
X502754Y1121731D01*
Y1121707D01*
X502778Y1121684D01*
X502801Y1121614D01*
X502824Y1121497D01*
X502871Y1121380D01*
X502918Y1121240D01*
X503035Y1120913D01*
X503175Y1120516D01*
X503315Y1120048D01*
X503455Y1119557D01*
X503596Y1119020D01*
Y1119043D01*
X503619Y1119090D01*
X503642Y1119160D01*
X503666Y1119254D01*
X503689Y1119371D01*
X503736Y1119511D01*
X503829Y1119861D01*
X503946Y1120258D01*
X504110Y1120726D01*
X504250Y1121193D01*
X504437Y1121684D01*
X506960Y1128531D01*
X508947D01*
X504483Y1116613D01*
D02*
G37*
G36*
X459020Y1169702D02*
X461217D01*
Y1167879D01*
X459020D01*
Y1164000D01*
X457034D01*
Y1167879D01*
X450000D01*
Y1169702D01*
X457408Y1180171D01*
X459020D01*
Y1169702D01*
D02*
G37*
G36*
X511738Y1175964D02*
X511925Y1175941D01*
X512159Y1175894D01*
X512416Y1175848D01*
X512720Y1175778D01*
X513000Y1175707D01*
X513327Y1175591D01*
X513631Y1175474D01*
X513958Y1175310D01*
X514285Y1175123D01*
X514613Y1174913D01*
X514916Y1174656D01*
X515197Y1174375D01*
X515220Y1174352D01*
X515267Y1174305D01*
X515337Y1174212D01*
X515430Y1174072D01*
X515547Y1173908D01*
X515664Y1173721D01*
X515804Y1173487D01*
X515945Y1173207D01*
X516085Y1172903D01*
X516225Y1172576D01*
X516342Y1172202D01*
X516459Y1171805D01*
X516552Y1171361D01*
X516622Y1170894D01*
X516669Y1170403D01*
X516692Y1169865D01*
Y1169842D01*
Y1169749D01*
Y1169585D01*
X516669Y1169351D01*
X507906D01*
Y1169328D01*
Y1169258D01*
X507929Y1169164D01*
Y1169024D01*
X507953Y1168861D01*
X507999Y1168674D01*
X508069Y1168253D01*
X508210Y1167786D01*
X508397Y1167271D01*
X508654Y1166804D01*
X508981Y1166384D01*
X509004D01*
X509028Y1166337D01*
X509168Y1166220D01*
X509378Y1166056D01*
X509659Y1165893D01*
X510032Y1165706D01*
X510453Y1165542D01*
X510920Y1165425D01*
X511177Y1165402D01*
X511458Y1165379D01*
X511645D01*
X511855Y1165402D01*
X512112Y1165449D01*
X512393Y1165519D01*
X512720Y1165612D01*
X513023Y1165753D01*
X513327Y1165940D01*
X513351Y1165963D01*
X513467Y1166056D01*
X513608Y1166197D01*
X513771Y1166384D01*
X513958Y1166641D01*
X514169Y1166968D01*
X514379Y1167342D01*
X514566Y1167786D01*
X516622Y1167529D01*
Y1167505D01*
X516599Y1167458D01*
X516575Y1167365D01*
X516529Y1167225D01*
X516459Y1167085D01*
X516389Y1166898D01*
X516202Y1166500D01*
X515968Y1166056D01*
X515641Y1165589D01*
X515267Y1165145D01*
X514799Y1164724D01*
X514776D01*
X514729Y1164678D01*
X514659Y1164631D01*
X514566Y1164561D01*
X514426Y1164491D01*
X514285Y1164421D01*
X514098Y1164327D01*
X513888Y1164234D01*
X513654Y1164140D01*
X513421Y1164047D01*
X512836Y1163906D01*
X512182Y1163790D01*
X511458Y1163743D01*
X511201D01*
X511037Y1163766D01*
X510827Y1163790D01*
X510570Y1163836D01*
X510289Y1163883D01*
X509986Y1163930D01*
X509331Y1164117D01*
X508981Y1164257D01*
X508654Y1164397D01*
X508303Y1164584D01*
X507976Y1164794D01*
X507672Y1165028D01*
X507368Y1165309D01*
X507345Y1165332D01*
X507298Y1165379D01*
X507228Y1165472D01*
X507135Y1165612D01*
X507018Y1165776D01*
X506901Y1165963D01*
X506761Y1166197D01*
X506621Y1166454D01*
X506480Y1166757D01*
X506340Y1167085D01*
X506223Y1167458D01*
X506107Y1167856D01*
X506013Y1168276D01*
X505943Y1168744D01*
X505896Y1169234D01*
X505873Y1169749D01*
Y1169772D01*
Y1169889D01*
Y1170029D01*
X505896Y1170239D01*
X505920Y1170496D01*
X505943Y1170777D01*
X505990Y1171104D01*
X506060Y1171431D01*
X506247Y1172179D01*
X506364Y1172553D01*
X506504Y1172950D01*
X506691Y1173324D01*
X506901Y1173674D01*
X507135Y1174025D01*
X507392Y1174352D01*
X507415Y1174375D01*
X507462Y1174422D01*
X507555Y1174492D01*
X507672Y1174609D01*
X507812Y1174726D01*
X507999Y1174866D01*
X508210Y1175030D01*
X508467Y1175170D01*
X508724Y1175333D01*
X509028Y1175474D01*
X509355Y1175614D01*
X509705Y1175731D01*
X510079Y1175848D01*
X510476Y1175918D01*
X510897Y1175964D01*
X511341Y1175988D01*
X511575D01*
X511738Y1175964D01*
D02*
G37*
G36*
X542386Y1121661D02*
X536241D01*
Y1123647D01*
X542386D01*
Y1121661D01*
D02*
G37*
G36*
X458846Y1092371D02*
X456626D01*
X448167Y1105060D01*
Y1092371D01*
X446110D01*
Y1108542D01*
X448307D01*
X456789Y1095830D01*
Y1108542D01*
X458846D01*
Y1092371D01*
D02*
G37*
G36*
X586949D02*
X584729D01*
X576270Y1105060D01*
Y1092371D01*
X574214D01*
Y1108542D01*
X576410D01*
X584893Y1095830D01*
Y1108542D01*
X586949D01*
Y1092371D01*
D02*
G37*
G36*
X547948Y1097232D02*
X541802D01*
Y1099218D01*
X547948D01*
Y1097232D01*
D02*
G37*
G36*
X500381Y1163813D02*
Y1163790D01*
X500358Y1163720D01*
X500311Y1163626D01*
X500265Y1163509D01*
X500195Y1163346D01*
X500124Y1163159D01*
X499961Y1162762D01*
X499797Y1162318D01*
X499610Y1161873D01*
X499423Y1161476D01*
X499330Y1161313D01*
X499260Y1161149D01*
X499236Y1161102D01*
X499166Y1160985D01*
X499049Y1160822D01*
X498909Y1160612D01*
X498722Y1160378D01*
X498512Y1160144D01*
X498302Y1159911D01*
X498045Y1159724D01*
X498021Y1159700D01*
X497928Y1159654D01*
X497788Y1159584D01*
X497577Y1159490D01*
X497344Y1159397D01*
X497063Y1159326D01*
X496759Y1159280D01*
X496409Y1159256D01*
X496315D01*
X496199Y1159280D01*
X496035D01*
X495848Y1159326D01*
X495638Y1159373D01*
X495404Y1159420D01*
X495147Y1159513D01*
X494937Y1161359D01*
X494960D01*
X495053Y1161336D01*
X495170Y1161313D01*
X495311Y1161266D01*
X495684Y1161196D01*
X496058Y1161172D01*
X496175D01*
X496292Y1161196D01*
X496432D01*
X496783Y1161266D01*
X496946Y1161336D01*
X497110Y1161406D01*
X497133D01*
X497180Y1161453D01*
X497250Y1161500D01*
X497344Y1161570D01*
X497554Y1161757D01*
X497741Y1162014D01*
Y1162037D01*
X497788Y1162084D01*
X497834Y1162177D01*
X497881Y1162318D01*
X497975Y1162505D01*
X498068Y1162785D01*
X498208Y1163112D01*
X498348Y1163509D01*
Y1163533D01*
X498395Y1163626D01*
X498442Y1163790D01*
X498535Y1164000D01*
X494095Y1175731D01*
X496199D01*
X498652Y1168931D01*
Y1168907D01*
X498675Y1168884D01*
X498699Y1168814D01*
X498722Y1168697D01*
X498769Y1168580D01*
X498816Y1168440D01*
X498933Y1168113D01*
X499073Y1167716D01*
X499213Y1167248D01*
X499353Y1166757D01*
X499493Y1166220D01*
Y1166243D01*
X499517Y1166290D01*
X499540Y1166360D01*
X499563Y1166454D01*
X499587Y1166571D01*
X499634Y1166711D01*
X499727Y1167061D01*
X499844Y1167458D01*
X500008Y1167926D01*
X500148Y1168393D01*
X500335Y1168884D01*
X502858Y1175731D01*
X504845D01*
X500381Y1163813D01*
D02*
G37*
G36*
X501796Y1092371D02*
X499810D01*
Y1108542D01*
X501796D01*
Y1092371D01*
D02*
G37*
G36*
X510349Y1104336D02*
X510699Y1104312D01*
X511097Y1104266D01*
X511494Y1104195D01*
X511891Y1104102D01*
X512265Y1103985D01*
X512312Y1103962D01*
X512429Y1103915D01*
X512592Y1103845D01*
X512803Y1103751D01*
X513036Y1103611D01*
X513270Y1103471D01*
X513480Y1103284D01*
X513667Y1103097D01*
X513690Y1103074D01*
X513737Y1103004D01*
X513807Y1102887D01*
X513901Y1102747D01*
X514018Y1102536D01*
X514111Y1102326D01*
X514205Y1102069D01*
X514275Y1101765D01*
Y1101742D01*
X514298Y1101672D01*
X514321Y1101531D01*
X514345Y1101345D01*
Y1101087D01*
X514368Y1100784D01*
X514392Y1100386D01*
Y1099942D01*
Y1097279D01*
Y1097255D01*
Y1097162D01*
Y1097021D01*
Y1096834D01*
Y1096624D01*
Y1096367D01*
X514415Y1095806D01*
Y1095222D01*
X514438Y1094638D01*
X514462Y1094381D01*
Y1094147D01*
X514485Y1093937D01*
X514508Y1093773D01*
Y1093750D01*
X514532Y1093656D01*
X514555Y1093516D01*
X514625Y1093329D01*
X514672Y1093119D01*
X514765Y1092885D01*
X514882Y1092628D01*
X514999Y1092371D01*
X512919D01*
X512896Y1092394D01*
X512873Y1092488D01*
X512826Y1092605D01*
X512756Y1092792D01*
X512686Y1093002D01*
X512639Y1093259D01*
X512592Y1093540D01*
X512545Y1093843D01*
X512522D01*
X512499Y1093797D01*
X512359Y1093680D01*
X512148Y1093516D01*
X511868Y1093306D01*
X511517Y1093096D01*
X511167Y1092862D01*
X510793Y1092652D01*
X510396Y1092488D01*
X510349Y1092465D01*
X510209Y1092441D01*
X509998Y1092371D01*
X509741Y1092301D01*
X509414Y1092231D01*
X509040Y1092184D01*
X508620Y1092138D01*
X508199Y1092114D01*
X508012D01*
X507872Y1092138D01*
X507708D01*
X507521Y1092161D01*
X507101Y1092231D01*
X506633Y1092348D01*
X506119Y1092511D01*
X505652Y1092745D01*
X505231Y1093049D01*
X505185Y1093096D01*
X505068Y1093212D01*
X504904Y1093423D01*
X504717Y1093703D01*
X504530Y1094054D01*
X504367Y1094451D01*
X504250Y1094942D01*
X504226Y1095175D01*
X504203Y1095456D01*
Y1095502D01*
Y1095596D01*
X504226Y1095760D01*
X504250Y1095970D01*
X504296Y1096227D01*
X504367Y1096484D01*
X504460Y1096764D01*
X504577Y1097021D01*
X504600Y1097045D01*
X504647Y1097138D01*
X504740Y1097279D01*
X504857Y1097442D01*
X504998Y1097629D01*
X505185Y1097816D01*
X505372Y1098003D01*
X505605Y1098166D01*
X505629Y1098190D01*
X505722Y1098236D01*
X505839Y1098330D01*
X506026Y1098423D01*
X506236Y1098517D01*
X506493Y1098634D01*
X506750Y1098727D01*
X507054Y1098821D01*
X507077D01*
X507171Y1098844D01*
X507311Y1098891D01*
X507498Y1098914D01*
X507732Y1098961D01*
X508035Y1099008D01*
X508386Y1099078D01*
X508807Y1099125D01*
X508830D01*
X508923Y1099148D01*
X509040D01*
X509204Y1099171D01*
X509391Y1099195D01*
X509624Y1099241D01*
X509882Y1099265D01*
X510162Y1099312D01*
X510723Y1099428D01*
X511330Y1099545D01*
X511868Y1099685D01*
X512125Y1099755D01*
X512359Y1099826D01*
Y1099849D01*
Y1099896D01*
X512382Y1100036D01*
Y1100200D01*
Y1100293D01*
Y1100340D01*
Y1100363D01*
Y1100386D01*
Y1100527D01*
X512359Y1100760D01*
X512312Y1101017D01*
X512242Y1101298D01*
X512125Y1101578D01*
X511985Y1101835D01*
X511798Y1102046D01*
X511774Y1102069D01*
X511657Y1102162D01*
X511470Y1102256D01*
X511237Y1102396D01*
X510910Y1102513D01*
X510536Y1102630D01*
X510068Y1102700D01*
X509531Y1102723D01*
X509297D01*
X509064Y1102700D01*
X508736Y1102653D01*
X508409Y1102606D01*
X508059Y1102513D01*
X507732Y1102396D01*
X507451Y1102233D01*
X507428Y1102209D01*
X507334Y1102139D01*
X507217Y1102022D01*
X507077Y1101835D01*
X506937Y1101601D01*
X506773Y1101298D01*
X506633Y1100924D01*
X506493Y1100503D01*
X504554Y1100760D01*
Y1100784D01*
X504577Y1100807D01*
Y1100877D01*
X504600Y1100971D01*
X504670Y1101181D01*
X504764Y1101485D01*
X504881Y1101788D01*
X505021Y1102116D01*
X505208Y1102443D01*
X505418Y1102747D01*
X505442Y1102770D01*
X505535Y1102863D01*
X505675Y1103004D01*
X505862Y1103191D01*
X506119Y1103378D01*
X506423Y1103564D01*
X506773Y1103775D01*
X507171Y1103938D01*
X507194D01*
X507217Y1103962D01*
X507288Y1103985D01*
X507381Y1104008D01*
X507615Y1104079D01*
X507942Y1104149D01*
X508316Y1104219D01*
X508783Y1104289D01*
X509274Y1104336D01*
X509835Y1104359D01*
X510092D01*
X510349Y1104336D01*
D02*
G37*
G36*
X597184Y1108519D02*
X597652Y1108495D01*
X598119Y1108448D01*
X598586Y1108378D01*
X598984Y1108308D01*
X599007D01*
X599054Y1108285D01*
X599124D01*
X599217Y1108238D01*
X599474Y1108168D01*
X599801Y1108051D01*
X600175Y1107887D01*
X600573Y1107677D01*
X600970Y1107443D01*
X601344Y1107140D01*
X601367Y1107116D01*
X601391Y1107093D01*
X601461Y1107023D01*
X601554Y1106953D01*
X601788Y1106719D01*
X602068Y1106392D01*
X602372Y1105995D01*
X602699Y1105527D01*
X603003Y1104990D01*
X603260Y1104382D01*
Y1104359D01*
X603283Y1104312D01*
X603330Y1104219D01*
X603354Y1104079D01*
X603424Y1103915D01*
X603470Y1103728D01*
X603517Y1103518D01*
X603587Y1103261D01*
X603657Y1103004D01*
X603704Y1102700D01*
X603821Y1102046D01*
X603891Y1101321D01*
X603914Y1100527D01*
Y1100503D01*
Y1100456D01*
Y1100340D01*
Y1100223D01*
X603891Y1100059D01*
Y1099872D01*
X603868Y1099428D01*
X603797Y1098914D01*
X603727Y1098377D01*
X603610Y1097816D01*
X603470Y1097255D01*
Y1097232D01*
X603447Y1097185D01*
X603424Y1097115D01*
X603400Y1097021D01*
X603307Y1096764D01*
X603167Y1096437D01*
X603026Y1096063D01*
X602839Y1095689D01*
X602606Y1095292D01*
X602372Y1094918D01*
X602349Y1094872D01*
X602255Y1094755D01*
X602115Y1094591D01*
X601928Y1094381D01*
X601718Y1094147D01*
X601461Y1093913D01*
X601204Y1093656D01*
X600900Y1093446D01*
X600853Y1093423D01*
X600760Y1093353D01*
X600596Y1093259D01*
X600362Y1093142D01*
X600082Y1093002D01*
X599755Y1092885D01*
X599381Y1092745D01*
X598960Y1092628D01*
X598914D01*
X598843Y1092605D01*
X598773Y1092581D01*
X598540Y1092558D01*
X598213Y1092511D01*
X597839Y1092465D01*
X597395Y1092418D01*
X596904Y1092394D01*
X596366Y1092371D01*
X590548D01*
Y1108542D01*
X596764D01*
X597184Y1108519D01*
D02*
G37*
G36*
X436529Y1108799D02*
X436716D01*
X437160Y1108752D01*
X437651Y1108682D01*
X438165Y1108565D01*
X438726Y1108425D01*
X439263Y1108238D01*
X439287D01*
X439333Y1108215D01*
X439404Y1108191D01*
X439497Y1108145D01*
X439754Y1108004D01*
X440081Y1107841D01*
X440432Y1107607D01*
X440806Y1107327D01*
X441156Y1107023D01*
X441483Y1106649D01*
X441530Y1106602D01*
X441624Y1106462D01*
X441764Y1106252D01*
X441951Y1105948D01*
X442138Y1105574D01*
X442348Y1105107D01*
X442558Y1104593D01*
X442722Y1104008D01*
X440782Y1103494D01*
Y1103518D01*
X440759Y1103541D01*
X440736Y1103611D01*
X440712Y1103705D01*
X440642Y1103915D01*
X440549Y1104195D01*
X440408Y1104522D01*
X440245Y1104826D01*
X440081Y1105154D01*
X439871Y1105434D01*
X439848Y1105457D01*
X439777Y1105551D01*
X439637Y1105668D01*
X439474Y1105831D01*
X439263Y1106018D01*
X438983Y1106205D01*
X438679Y1106392D01*
X438329Y1106555D01*
X438282Y1106579D01*
X438165Y1106626D01*
X437955Y1106696D01*
X437674Y1106789D01*
X437347Y1106859D01*
X436973Y1106929D01*
X436553Y1106976D01*
X436109Y1107000D01*
X435852D01*
X435735Y1106976D01*
X435595D01*
X435244Y1106953D01*
X434847Y1106883D01*
X434403Y1106813D01*
X433982Y1106696D01*
X433562Y1106532D01*
X433515Y1106509D01*
X433375Y1106462D01*
X433188Y1106345D01*
X432954Y1106228D01*
X432674Y1106041D01*
X432370Y1105854D01*
X432089Y1105621D01*
X431832Y1105364D01*
X431809Y1105340D01*
X431716Y1105247D01*
X431599Y1105083D01*
X431459Y1104896D01*
X431295Y1104663D01*
X431131Y1104382D01*
X430968Y1104079D01*
X430804Y1103751D01*
Y1103728D01*
X430781Y1103681D01*
X430757Y1103611D01*
X430711Y1103494D01*
X430664Y1103354D01*
X430617Y1103191D01*
X430547Y1103004D01*
X430500Y1102793D01*
X430383Y1102303D01*
X430290Y1101742D01*
X430220Y1101158D01*
X430197Y1100503D01*
Y1100480D01*
Y1100410D01*
Y1100293D01*
X430220Y1100153D01*
Y1099966D01*
X430243Y1099732D01*
X430267Y1099498D01*
X430290Y1099241D01*
X430383Y1098657D01*
X430500Y1098050D01*
X430687Y1097442D01*
X430921Y1096858D01*
Y1096834D01*
X430968Y1096788D01*
X430991Y1096718D01*
X431061Y1096624D01*
X431225Y1096367D01*
X431482Y1096040D01*
X431786Y1095689D01*
X432160Y1095339D01*
X432603Y1095012D01*
X433094Y1094708D01*
X433118D01*
X433164Y1094685D01*
X433234Y1094638D01*
X433351Y1094591D01*
X433468Y1094544D01*
X433632Y1094498D01*
X434006Y1094358D01*
X434473Y1094241D01*
X434987Y1094124D01*
X435548Y1094030D01*
X436132Y1094007D01*
X436366D01*
X436506Y1094030D01*
X436646D01*
X436997Y1094077D01*
X437417Y1094124D01*
X437861Y1094217D01*
X438352Y1094358D01*
X438843Y1094521D01*
X438866D01*
X438913Y1094544D01*
X438960Y1094568D01*
X439053Y1094614D01*
X439310Y1094731D01*
X439590Y1094872D01*
X439918Y1095035D01*
X440268Y1095222D01*
X440595Y1095432D01*
X440876Y1095666D01*
Y1098704D01*
X436109D01*
Y1100620D01*
X442979D01*
Y1094614D01*
X442956Y1094591D01*
X442909Y1094568D01*
X442815Y1094498D01*
X442699Y1094404D01*
X442558Y1094311D01*
X442395Y1094194D01*
X442184Y1094054D01*
X441974Y1093913D01*
X441483Y1093610D01*
X440923Y1093282D01*
X440338Y1092979D01*
X439707Y1092722D01*
X439684D01*
X439637Y1092698D01*
X439544Y1092675D01*
X439427Y1092628D01*
X439263Y1092581D01*
X439076Y1092511D01*
X438866Y1092465D01*
X438656Y1092418D01*
X438142Y1092301D01*
X437557Y1092184D01*
X436927Y1092114D01*
X436272Y1092091D01*
X436039D01*
X435875Y1092114D01*
X435665D01*
X435408Y1092138D01*
X435127Y1092184D01*
X434823Y1092208D01*
X434146Y1092348D01*
X433421Y1092511D01*
X432674Y1092768D01*
X432300Y1092909D01*
X431926Y1093096D01*
X431903Y1093119D01*
X431832Y1093142D01*
X431739Y1093212D01*
X431599Y1093282D01*
X431435Y1093399D01*
X431272Y1093516D01*
X430827Y1093843D01*
X430360Y1094264D01*
X429869Y1094778D01*
X429402Y1095362D01*
X428982Y1096040D01*
Y1096063D01*
X428935Y1096133D01*
X428888Y1096227D01*
X428818Y1096391D01*
X428748Y1096554D01*
X428678Y1096788D01*
X428584Y1097021D01*
X428491Y1097302D01*
X428397Y1097606D01*
X428304Y1097956D01*
X428234Y1098307D01*
X428164Y1098680D01*
X428047Y1099498D01*
X428000Y1100363D01*
Y1100386D01*
Y1100480D01*
Y1100597D01*
X428023Y1100760D01*
Y1100971D01*
X428047Y1101228D01*
X428093Y1101485D01*
X428117Y1101788D01*
X428187Y1102116D01*
X428234Y1102466D01*
X428421Y1103214D01*
X428654Y1103985D01*
X428982Y1104756D01*
X429005Y1104780D01*
X429028Y1104850D01*
X429075Y1104943D01*
X429168Y1105083D01*
X429262Y1105270D01*
X429379Y1105457D01*
X429706Y1105901D01*
X430103Y1106415D01*
X430594Y1106906D01*
X431155Y1107397D01*
X431482Y1107607D01*
X431809Y1107817D01*
X431832Y1107841D01*
X431903Y1107864D01*
X431996Y1107911D01*
X432136Y1107981D01*
X432323Y1108051D01*
X432533Y1108145D01*
X432767Y1108238D01*
X433047Y1108332D01*
X433351Y1108425D01*
X433678Y1108495D01*
X434029Y1108589D01*
X434403Y1108659D01*
X435221Y1108775D01*
X435641Y1108822D01*
X436389D01*
X436529Y1108799D01*
D02*
G37*
G36*
X564633D02*
X564820D01*
X565264Y1108752D01*
X565754Y1108682D01*
X566269Y1108565D01*
X566829Y1108425D01*
X567367Y1108238D01*
X567390D01*
X567437Y1108215D01*
X567507Y1108191D01*
X567600Y1108145D01*
X567858Y1108004D01*
X568185Y1107841D01*
X568535Y1107607D01*
X568909Y1107327D01*
X569260Y1107023D01*
X569587Y1106649D01*
X569633Y1106602D01*
X569727Y1106462D01*
X569867Y1106252D01*
X570054Y1105948D01*
X570241Y1105574D01*
X570451Y1105107D01*
X570662Y1104593D01*
X570825Y1104008D01*
X568886Y1103494D01*
Y1103518D01*
X568862Y1103541D01*
X568839Y1103611D01*
X568816Y1103705D01*
X568745Y1103915D01*
X568652Y1104195D01*
X568512Y1104522D01*
X568348Y1104826D01*
X568185Y1105154D01*
X567974Y1105434D01*
X567951Y1105457D01*
X567881Y1105551D01*
X567741Y1105668D01*
X567577Y1105831D01*
X567367Y1106018D01*
X567086Y1106205D01*
X566783Y1106392D01*
X566432Y1106555D01*
X566385Y1106579D01*
X566269Y1106626D01*
X566058Y1106696D01*
X565778Y1106789D01*
X565451Y1106859D01*
X565077Y1106929D01*
X564656Y1106976D01*
X564212Y1107000D01*
X563955D01*
X563838Y1106976D01*
X563698D01*
X563348Y1106953D01*
X562950Y1106883D01*
X562506Y1106813D01*
X562086Y1106696D01*
X561665Y1106532D01*
X561618Y1106509D01*
X561478Y1106462D01*
X561291Y1106345D01*
X561057Y1106228D01*
X560777Y1106041D01*
X560473Y1105854D01*
X560193Y1105621D01*
X559936Y1105364D01*
X559912Y1105340D01*
X559819Y1105247D01*
X559702Y1105083D01*
X559562Y1104896D01*
X559398Y1104663D01*
X559235Y1104382D01*
X559071Y1104079D01*
X558908Y1103751D01*
Y1103728D01*
X558884Y1103681D01*
X558861Y1103611D01*
X558814Y1103494D01*
X558767Y1103354D01*
X558721Y1103191D01*
X558651Y1103004D01*
X558604Y1102793D01*
X558487Y1102303D01*
X558393Y1101742D01*
X558323Y1101158D01*
X558300Y1100503D01*
Y1100480D01*
Y1100410D01*
Y1100293D01*
X558323Y1100153D01*
Y1099966D01*
X558347Y1099732D01*
X558370Y1099498D01*
X558393Y1099241D01*
X558487Y1098657D01*
X558604Y1098050D01*
X558791Y1097442D01*
X559024Y1096858D01*
Y1096834D01*
X559071Y1096788D01*
X559095Y1096718D01*
X559165Y1096624D01*
X559328Y1096367D01*
X559585Y1096040D01*
X559889Y1095689D01*
X560263Y1095339D01*
X560707Y1095012D01*
X561198Y1094708D01*
X561221D01*
X561268Y1094685D01*
X561338Y1094638D01*
X561455Y1094591D01*
X561572Y1094544D01*
X561735Y1094498D01*
X562109Y1094358D01*
X562576Y1094241D01*
X563090Y1094124D01*
X563651Y1094030D01*
X564235Y1094007D01*
X564469D01*
X564609Y1094030D01*
X564749D01*
X565100Y1094077D01*
X565521Y1094124D01*
X565965Y1094217D01*
X566455Y1094358D01*
X566946Y1094521D01*
X566969D01*
X567016Y1094544D01*
X567063Y1094568D01*
X567156Y1094614D01*
X567413Y1094731D01*
X567694Y1094872D01*
X568021Y1095035D01*
X568372Y1095222D01*
X568699Y1095432D01*
X568979Y1095666D01*
Y1098704D01*
X564212D01*
Y1100620D01*
X571082D01*
Y1094614D01*
X571059Y1094591D01*
X571012Y1094568D01*
X570919Y1094498D01*
X570802Y1094404D01*
X570662Y1094311D01*
X570498Y1094194D01*
X570288Y1094054D01*
X570077Y1093913D01*
X569587Y1093610D01*
X569026Y1093282D01*
X568442Y1092979D01*
X567811Y1092722D01*
X567787D01*
X567741Y1092698D01*
X567647Y1092675D01*
X567530Y1092628D01*
X567367Y1092581D01*
X567180Y1092511D01*
X566969Y1092465D01*
X566759Y1092418D01*
X566245Y1092301D01*
X565661Y1092184D01*
X565030Y1092114D01*
X564376Y1092091D01*
X564142D01*
X563978Y1092114D01*
X563768D01*
X563511Y1092138D01*
X563231Y1092184D01*
X562927Y1092208D01*
X562249Y1092348D01*
X561525Y1092511D01*
X560777Y1092768D01*
X560403Y1092909D01*
X560029Y1093096D01*
X560006Y1093119D01*
X559936Y1093142D01*
X559842Y1093212D01*
X559702Y1093282D01*
X559538Y1093399D01*
X559375Y1093516D01*
X558931Y1093843D01*
X558464Y1094264D01*
X557973Y1094778D01*
X557505Y1095362D01*
X557085Y1096040D01*
Y1096063D01*
X557038Y1096133D01*
X556991Y1096227D01*
X556921Y1096391D01*
X556851Y1096554D01*
X556781Y1096788D01*
X556688Y1097021D01*
X556594Y1097302D01*
X556501Y1097606D01*
X556407Y1097956D01*
X556337Y1098307D01*
X556267Y1098680D01*
X556150Y1099498D01*
X556103Y1100363D01*
Y1100386D01*
Y1100480D01*
Y1100597D01*
X556127Y1100760D01*
Y1100971D01*
X556150Y1101228D01*
X556197Y1101485D01*
X556220Y1101788D01*
X556290Y1102116D01*
X556337Y1102466D01*
X556524Y1103214D01*
X556758Y1103985D01*
X557085Y1104756D01*
X557108Y1104780D01*
X557132Y1104850D01*
X557178Y1104943D01*
X557272Y1105083D01*
X557365Y1105270D01*
X557482Y1105457D01*
X557809Y1105901D01*
X558206Y1106415D01*
X558697Y1106906D01*
X559258Y1107397D01*
X559585Y1107607D01*
X559912Y1107817D01*
X559936Y1107841D01*
X560006Y1107864D01*
X560099Y1107911D01*
X560239Y1107981D01*
X560426Y1108051D01*
X560637Y1108145D01*
X560871Y1108238D01*
X561151Y1108332D01*
X561455Y1108425D01*
X561782Y1108495D01*
X562132Y1108589D01*
X562506Y1108659D01*
X563324Y1108775D01*
X563745Y1108822D01*
X564492D01*
X564633Y1108799D01*
D02*
G37*
G36*
X575592Y1128764D02*
X575756Y1128741D01*
X575966Y1128694D01*
X576200Y1128648D01*
X576457Y1128577D01*
X576714Y1128484D01*
X576994Y1128367D01*
X577275Y1128227D01*
X577579Y1128064D01*
X577859Y1127877D01*
X578139Y1127643D01*
X578420Y1127386D01*
X578677Y1127082D01*
Y1128531D01*
X580500D01*
Y1118389D01*
Y1118366D01*
Y1118272D01*
Y1118132D01*
Y1117945D01*
X580476Y1117735D01*
Y1117478D01*
X580453Y1117197D01*
X580429Y1116893D01*
X580359Y1116263D01*
X580266Y1115608D01*
X580196Y1115304D01*
X580126Y1115024D01*
X580032Y1114767D01*
X579939Y1114533D01*
Y1114510D01*
X579915Y1114487D01*
X579822Y1114346D01*
X579705Y1114136D01*
X579518Y1113879D01*
X579261Y1113599D01*
X578957Y1113295D01*
X578583Y1112991D01*
X578163Y1112734D01*
X578139D01*
X578116Y1112711D01*
X578046Y1112664D01*
X577952Y1112641D01*
X577836Y1112570D01*
X577695Y1112524D01*
X577345Y1112407D01*
X576924Y1112267D01*
X576410Y1112173D01*
X575826Y1112080D01*
X575195Y1112056D01*
X574985D01*
X574845Y1112080D01*
X574658D01*
X574471Y1112103D01*
X574237Y1112126D01*
X573980Y1112173D01*
X573442Y1112290D01*
X572882Y1112454D01*
X572321Y1112687D01*
X571807Y1113015D01*
X571783Y1113038D01*
X571760Y1113061D01*
X571596Y1113201D01*
X571409Y1113412D01*
X571176Y1113716D01*
X570942Y1114113D01*
X570732Y1114604D01*
X570662Y1114884D01*
X570615Y1115188D01*
X570568Y1115491D01*
Y1115842D01*
X572508Y1115585D01*
Y1115538D01*
X572531Y1115445D01*
X572578Y1115281D01*
X572625Y1115071D01*
X572718Y1114861D01*
X572835Y1114650D01*
X572975Y1114440D01*
X573162Y1114276D01*
X573209Y1114253D01*
X573302Y1114183D01*
X573466Y1114089D01*
X573699Y1113996D01*
X573980Y1113879D01*
X574330Y1113786D01*
X574751Y1113716D01*
X575195Y1113692D01*
X575429D01*
X575662Y1113716D01*
X575990Y1113762D01*
X576317Y1113832D01*
X576667Y1113926D01*
X577018Y1114066D01*
X577322Y1114253D01*
X577345Y1114276D01*
X577438Y1114346D01*
X577579Y1114487D01*
X577742Y1114650D01*
X577906Y1114884D01*
X578069Y1115141D01*
X578233Y1115445D01*
X578350Y1115795D01*
Y1115819D01*
X578373Y1115912D01*
X578396Y1116099D01*
X578420Y1116333D01*
X578443Y1116496D01*
Y1116683D01*
X578467Y1116893D01*
Y1117127D01*
Y1117384D01*
X578490Y1117688D01*
Y1117992D01*
Y1118342D01*
X578467Y1118319D01*
X578420Y1118272D01*
X578350Y1118202D01*
X578256Y1118109D01*
X578139Y1117992D01*
X577976Y1117852D01*
X577789Y1117711D01*
X577602Y1117571D01*
X577111Y1117291D01*
X576574Y1117034D01*
X576270Y1116940D01*
X575943Y1116870D01*
X575592Y1116823D01*
X575242Y1116800D01*
X575125D01*
X575008Y1116823D01*
X574845D01*
X574634Y1116847D01*
X574400Y1116893D01*
X574143Y1116940D01*
X573863Y1117010D01*
X573559Y1117104D01*
X573256Y1117221D01*
X572952Y1117361D01*
X572625Y1117524D01*
X572321Y1117735D01*
X572017Y1117969D01*
X571737Y1118225D01*
X571479Y1118529D01*
X571456Y1118553D01*
X571433Y1118599D01*
X571363Y1118716D01*
X571269Y1118833D01*
X571176Y1119020D01*
X571059Y1119207D01*
X570942Y1119441D01*
X570825Y1119721D01*
X570708Y1120002D01*
X570592Y1120329D01*
X570475Y1120656D01*
X570381Y1121030D01*
X570218Y1121824D01*
X570194Y1122268D01*
X570171Y1122712D01*
Y1122736D01*
Y1122782D01*
Y1122876D01*
Y1122993D01*
X570194Y1123156D01*
Y1123320D01*
X570241Y1123740D01*
X570311Y1124208D01*
X570428Y1124722D01*
X570568Y1125259D01*
X570779Y1125797D01*
Y1125820D01*
X570802Y1125867D01*
X570849Y1125937D01*
X570895Y1126030D01*
X571035Y1126288D01*
X571222Y1126615D01*
X571479Y1126965D01*
X571783Y1127316D01*
X572134Y1127690D01*
X572531Y1127993D01*
X572555D01*
X572578Y1128017D01*
X572648Y1128064D01*
X572741Y1128110D01*
X572975Y1128250D01*
X573302Y1128391D01*
X573699Y1128531D01*
X574167Y1128671D01*
X574681Y1128764D01*
X575242Y1128788D01*
X575452D01*
X575592Y1128764D01*
D02*
G37*
G36*
X515840D02*
X516027Y1128741D01*
X516261Y1128694D01*
X516518Y1128648D01*
X516822Y1128577D01*
X517102Y1128507D01*
X517429Y1128391D01*
X517733Y1128274D01*
X518060Y1128110D01*
X518387Y1127923D01*
X518715Y1127713D01*
X519018Y1127456D01*
X519299Y1127176D01*
X519322Y1127152D01*
X519369Y1127105D01*
X519439Y1127012D01*
X519533Y1126872D01*
X519649Y1126708D01*
X519766Y1126521D01*
X519906Y1126288D01*
X520047Y1126007D01*
X520187Y1125703D01*
X520327Y1125376D01*
X520444Y1125002D01*
X520561Y1124605D01*
X520654Y1124161D01*
X520724Y1123694D01*
X520771Y1123203D01*
X520794Y1122665D01*
Y1122642D01*
Y1122549D01*
Y1122385D01*
X520771Y1122151D01*
X512008D01*
Y1122128D01*
Y1122058D01*
X512031Y1121964D01*
Y1121824D01*
X512055Y1121661D01*
X512101Y1121474D01*
X512172Y1121053D01*
X512312Y1120586D01*
X512499Y1120072D01*
X512756Y1119604D01*
X513083Y1119184D01*
X513106D01*
X513130Y1119137D01*
X513270Y1119020D01*
X513480Y1118857D01*
X513761Y1118693D01*
X514134Y1118506D01*
X514555Y1118342D01*
X515022Y1118225D01*
X515280Y1118202D01*
X515560Y1118179D01*
X515747D01*
X515957Y1118202D01*
X516214Y1118249D01*
X516495Y1118319D01*
X516822Y1118412D01*
X517126Y1118553D01*
X517429Y1118740D01*
X517453Y1118763D01*
X517570Y1118857D01*
X517710Y1118997D01*
X517873Y1119184D01*
X518060Y1119441D01*
X518271Y1119768D01*
X518481Y1120142D01*
X518668Y1120586D01*
X520724Y1120329D01*
Y1120305D01*
X520701Y1120258D01*
X520677Y1120165D01*
X520631Y1120025D01*
X520561Y1119885D01*
X520491Y1119698D01*
X520304Y1119301D01*
X520070Y1118857D01*
X519743Y1118389D01*
X519369Y1117945D01*
X518901Y1117524D01*
X518878D01*
X518831Y1117478D01*
X518761Y1117431D01*
X518668Y1117361D01*
X518528Y1117291D01*
X518387Y1117221D01*
X518200Y1117127D01*
X517990Y1117034D01*
X517757Y1116940D01*
X517523Y1116847D01*
X516939Y1116707D01*
X516284Y1116590D01*
X515560Y1116543D01*
X515303D01*
X515139Y1116566D01*
X514929Y1116590D01*
X514672Y1116637D01*
X514392Y1116683D01*
X514088Y1116730D01*
X513433Y1116917D01*
X513083Y1117057D01*
X512756Y1117197D01*
X512405Y1117384D01*
X512078Y1117595D01*
X511774Y1117828D01*
X511470Y1118109D01*
X511447Y1118132D01*
X511400Y1118179D01*
X511330Y1118272D01*
X511237Y1118412D01*
X511120Y1118576D01*
X511003Y1118763D01*
X510863Y1118997D01*
X510723Y1119254D01*
X510583Y1119557D01*
X510442Y1119885D01*
X510326Y1120258D01*
X510209Y1120656D01*
X510115Y1121076D01*
X510045Y1121544D01*
X509998Y1122035D01*
X509975Y1122549D01*
Y1122572D01*
Y1122689D01*
Y1122829D01*
X509998Y1123039D01*
X510022Y1123296D01*
X510045Y1123577D01*
X510092Y1123904D01*
X510162Y1124231D01*
X510349Y1124979D01*
X510466Y1125353D01*
X510606Y1125750D01*
X510793Y1126124D01*
X511003Y1126474D01*
X511237Y1126825D01*
X511494Y1127152D01*
X511517Y1127176D01*
X511564Y1127222D01*
X511657Y1127292D01*
X511774Y1127409D01*
X511914Y1127526D01*
X512101Y1127666D01*
X512312Y1127830D01*
X512569Y1127970D01*
X512826Y1128134D01*
X513130Y1128274D01*
X513457Y1128414D01*
X513807Y1128531D01*
X514181Y1128648D01*
X514578Y1128718D01*
X514999Y1128764D01*
X515443Y1128788D01*
X515677D01*
X515840Y1128764D01*
D02*
G37*
G36*
X447910D02*
X448120Y1128741D01*
X448354Y1128694D01*
X448611Y1128648D01*
X448914Y1128601D01*
X449545Y1128391D01*
X449873Y1128274D01*
X450200Y1128110D01*
X450527Y1127947D01*
X450854Y1127713D01*
X451158Y1127479D01*
X451461Y1127199D01*
X451485Y1127176D01*
X451532Y1127129D01*
X451602Y1127035D01*
X451695Y1126918D01*
X451812Y1126755D01*
X451952Y1126544D01*
X452092Y1126311D01*
X452233Y1126054D01*
X452373Y1125773D01*
X452513Y1125423D01*
X452653Y1125072D01*
X452770Y1124675D01*
X452864Y1124255D01*
X452934Y1123811D01*
X452980Y1123343D01*
X453004Y1122829D01*
Y1122806D01*
Y1122736D01*
Y1122619D01*
Y1122455D01*
X452980Y1122268D01*
X452957Y1122035D01*
Y1121801D01*
X452910Y1121544D01*
X452840Y1120960D01*
X452700Y1120375D01*
X452536Y1119791D01*
X452303Y1119254D01*
Y1119230D01*
X452279Y1119207D01*
X452233Y1119137D01*
X452186Y1119043D01*
X452022Y1118810D01*
X451812Y1118529D01*
X451532Y1118202D01*
X451181Y1117875D01*
X450784Y1117548D01*
X450316Y1117244D01*
X450293D01*
X450270Y1117221D01*
X450200Y1117174D01*
X450083Y1117127D01*
X449966Y1117081D01*
X449826Y1117034D01*
X449475Y1116893D01*
X449078Y1116777D01*
X448587Y1116660D01*
X448073Y1116566D01*
X447512Y1116543D01*
X447279D01*
X447092Y1116566D01*
X446881Y1116590D01*
X446648Y1116637D01*
X446367Y1116683D01*
X446087Y1116730D01*
X445456Y1116917D01*
X445105Y1117057D01*
X444778Y1117197D01*
X444451Y1117384D01*
X444124Y1117595D01*
X443820Y1117828D01*
X443516Y1118109D01*
X443493Y1118132D01*
X443446Y1118179D01*
X443376Y1118272D01*
X443283Y1118412D01*
X443166Y1118576D01*
X443049Y1118763D01*
X442909Y1118997D01*
X442769Y1119277D01*
X442628Y1119581D01*
X442488Y1119931D01*
X442371Y1120305D01*
X442254Y1120703D01*
X442161Y1121146D01*
X442091Y1121614D01*
X442044Y1122128D01*
X442021Y1122665D01*
Y1122712D01*
Y1122806D01*
X442044Y1122969D01*
Y1123203D01*
X442067Y1123460D01*
X442114Y1123787D01*
X442161Y1124114D01*
X442254Y1124488D01*
X442348Y1124862D01*
X442465Y1125259D01*
X442605Y1125680D01*
X442792Y1126077D01*
X442979Y1126451D01*
X443236Y1126825D01*
X443493Y1127176D01*
X443820Y1127479D01*
X443843Y1127503D01*
X443890Y1127526D01*
X443984Y1127596D01*
X444101Y1127690D01*
X444241Y1127783D01*
X444428Y1127900D01*
X444615Y1128017D01*
X444848Y1128134D01*
X445105Y1128250D01*
X445386Y1128367D01*
X446017Y1128577D01*
X446741Y1128741D01*
X447115Y1128764D01*
X447512Y1128788D01*
X447746D01*
X447910Y1128764D01*
D02*
G37*
G36*
X523318Y1104336D02*
X523575Y1104312D01*
X523879Y1104266D01*
X524206Y1104195D01*
X524557Y1104102D01*
X524884Y1103962D01*
X524930Y1103938D01*
X525024Y1103892D01*
X525187Y1103821D01*
X525374Y1103705D01*
X525608Y1103564D01*
X525818Y1103378D01*
X526029Y1103191D01*
X526216Y1102957D01*
X526239Y1102934D01*
X526286Y1102840D01*
X526356Y1102723D01*
X526473Y1102560D01*
X526566Y1102326D01*
X526660Y1102092D01*
X526777Y1101812D01*
X526847Y1101508D01*
Y1101485D01*
X526870Y1101391D01*
X526893Y1101251D01*
X526917Y1101064D01*
Y1100784D01*
X526940Y1100456D01*
X526964Y1100059D01*
Y1099568D01*
Y1092371D01*
X524977D01*
Y1099475D01*
Y1099498D01*
Y1099522D01*
Y1099685D01*
Y1099896D01*
X524954Y1100153D01*
X524930Y1100456D01*
X524884Y1100760D01*
X524814Y1101041D01*
X524743Y1101298D01*
Y1101321D01*
X524697Y1101391D01*
X524627Y1101508D01*
X524557Y1101648D01*
X524440Y1101788D01*
X524300Y1101952D01*
X524113Y1102116D01*
X523902Y1102256D01*
X523879Y1102279D01*
X523809Y1102326D01*
X523669Y1102373D01*
X523505Y1102443D01*
X523318Y1102513D01*
X523084Y1102583D01*
X522804Y1102606D01*
X522524Y1102630D01*
X522407D01*
X522313Y1102606D01*
X522080Y1102583D01*
X521776Y1102536D01*
X521449Y1102419D01*
X521075Y1102279D01*
X520701Y1102092D01*
X520350Y1101812D01*
X520304Y1101765D01*
X520210Y1101648D01*
X520140Y1101555D01*
X520070Y1101438D01*
X519977Y1101298D01*
X519906Y1101134D01*
X519813Y1100947D01*
X519719Y1100714D01*
X519649Y1100456D01*
X519579Y1100176D01*
X519533Y1099872D01*
X519486Y1099545D01*
X519439Y1099148D01*
Y1098751D01*
Y1092371D01*
X517453D01*
Y1104102D01*
X519229D01*
Y1102419D01*
X519252Y1102443D01*
X519299Y1102513D01*
X519369Y1102606D01*
X519462Y1102723D01*
X519603Y1102863D01*
X519766Y1103027D01*
X519953Y1103214D01*
X520187Y1103401D01*
X520420Y1103564D01*
X520701Y1103751D01*
X521005Y1103915D01*
X521332Y1104055D01*
X521706Y1104172D01*
X522080Y1104266D01*
X522500Y1104336D01*
X522944Y1104359D01*
X523131D01*
X523318Y1104336D01*
D02*
G37*
%LPC*%
G36*
X472797Y1063096D02*
X472656D01*
X472539Y1063072D01*
X472282Y1063049D01*
X471932Y1062955D01*
X471535Y1062815D01*
X471114Y1062628D01*
X470717Y1062348D01*
X470506Y1062161D01*
X470320Y1061974D01*
Y1061951D01*
X470273Y1061927D01*
X470226Y1061857D01*
X470156Y1061764D01*
X470086Y1061647D01*
X470016Y1061507D01*
X469922Y1061320D01*
X469829Y1061133D01*
X469735Y1060899D01*
X469642Y1060666D01*
X469572Y1060385D01*
X469502Y1060081D01*
X469431Y1059754D01*
X469385Y1059404D01*
X469361Y1059006D01*
X469338Y1058609D01*
Y1058586D01*
Y1058516D01*
Y1058399D01*
X469361Y1058235D01*
Y1058048D01*
X469385Y1057838D01*
X469455Y1057347D01*
X469572Y1056786D01*
X469759Y1056226D01*
X469992Y1055688D01*
X470156Y1055454D01*
X470320Y1055221D01*
X470343D01*
X470366Y1055174D01*
X470506Y1055057D01*
X470717Y1054870D01*
X470997Y1054683D01*
X471348Y1054473D01*
X471768Y1054286D01*
X472259Y1054169D01*
X472516Y1054146D01*
X472797Y1054122D01*
X472937D01*
X473054Y1054146D01*
X473311Y1054193D01*
X473661Y1054263D01*
X474035Y1054403D01*
X474456Y1054590D01*
X474853Y1054870D01*
X475063Y1055057D01*
X475250Y1055244D01*
X475274Y1055267D01*
X475297Y1055291D01*
X475344Y1055361D01*
X475414Y1055454D01*
X475484Y1055571D01*
X475577Y1055712D01*
X475671Y1055898D01*
X475764Y1056085D01*
X475858Y1056319D01*
X475928Y1056576D01*
X476021Y1056857D01*
X476091Y1057160D01*
X476161Y1057511D01*
X476208Y1057861D01*
X476255Y1058259D01*
Y1058679D01*
Y1058703D01*
Y1058773D01*
Y1058889D01*
X476232Y1059030D01*
Y1059217D01*
X476208Y1059427D01*
X476138Y1059918D01*
X476021Y1060432D01*
X475834Y1060993D01*
X475577Y1061507D01*
X475437Y1061764D01*
X475250Y1061974D01*
Y1061997D01*
X475203Y1062021D01*
X475063Y1062161D01*
X474853Y1062325D01*
X474572Y1062535D01*
X474222Y1062745D01*
X473801Y1062932D01*
X473334Y1063049D01*
X473077Y1063072D01*
X472797Y1063096D01*
D02*
G37*
G36*
X602302Y1087057D02*
X597208D01*
Y1081706D01*
X602021D01*
X602302Y1081729D01*
X602629Y1081753D01*
X603003Y1081776D01*
X603377Y1081823D01*
X603751Y1081893D01*
X604078Y1081986D01*
X604125Y1082010D01*
X604218Y1082057D01*
X604358Y1082127D01*
X604545Y1082220D01*
X604756Y1082360D01*
X604966Y1082524D01*
X605176Y1082734D01*
X605340Y1082968D01*
X605363Y1082991D01*
X605410Y1083085D01*
X605480Y1083225D01*
X605573Y1083412D01*
X605644Y1083622D01*
X605714Y1083856D01*
X605760Y1084136D01*
X605784Y1084417D01*
Y1084440D01*
Y1084463D01*
X605760Y1084604D01*
X605737Y1084814D01*
X605690Y1085094D01*
X605573Y1085375D01*
X605433Y1085702D01*
X605223Y1086006D01*
X604943Y1086310D01*
X604896Y1086333D01*
X604779Y1086426D01*
X604592Y1086543D01*
X604288Y1086683D01*
X603938Y1086824D01*
X603470Y1086940D01*
X602933Y1087034D01*
X602302Y1087057D01*
D02*
G37*
G36*
X565404Y1086940D02*
X560777D01*
Y1081169D01*
X565123D01*
X565287Y1081192D01*
X565451D01*
X565638Y1081215D01*
X566082Y1081262D01*
X566572Y1081356D01*
X567063Y1081496D01*
X567507Y1081683D01*
X567717Y1081799D01*
X567881Y1081940D01*
X567928Y1081986D01*
X568021Y1082080D01*
X568161Y1082267D01*
X568325Y1082501D01*
X568488Y1082804D01*
X568629Y1083178D01*
X568722Y1083599D01*
X568769Y1084090D01*
Y1084113D01*
Y1084136D01*
Y1084253D01*
X568745Y1084463D01*
X568699Y1084697D01*
X568652Y1084954D01*
X568559Y1085258D01*
X568418Y1085538D01*
X568255Y1085819D01*
X568231Y1085842D01*
X568161Y1085936D01*
X568044Y1086052D01*
X567904Y1086216D01*
X567694Y1086380D01*
X567460Y1086520D01*
X567203Y1086660D01*
X566899Y1086777D01*
X566876D01*
X566783Y1086800D01*
X566642Y1086824D01*
X566455Y1086870D01*
X566175Y1086894D01*
X565825Y1086917D01*
X565404Y1086940D01*
D02*
G37*
G36*
X493781D02*
X489154D01*
Y1081169D01*
X493501D01*
X493664Y1081192D01*
X493828D01*
X494015Y1081215D01*
X494459Y1081262D01*
X494949Y1081356D01*
X495440Y1081496D01*
X495884Y1081683D01*
X496094Y1081799D01*
X496258Y1081940D01*
X496305Y1081986D01*
X496398Y1082080D01*
X496538Y1082267D01*
X496702Y1082501D01*
X496866Y1082804D01*
X497006Y1083178D01*
X497099Y1083599D01*
X497146Y1084090D01*
Y1084113D01*
Y1084136D01*
Y1084253D01*
X497123Y1084463D01*
X497076Y1084697D01*
X497029Y1084954D01*
X496936Y1085258D01*
X496795Y1085538D01*
X496632Y1085819D01*
X496609Y1085842D01*
X496538Y1085936D01*
X496422Y1086052D01*
X496281Y1086216D01*
X496071Y1086380D01*
X495837Y1086520D01*
X495580Y1086660D01*
X495276Y1086777D01*
X495253D01*
X495160Y1086800D01*
X495019Y1086824D01*
X494832Y1086870D01*
X494552Y1086894D01*
X494202Y1086917D01*
X493781Y1086940D01*
D02*
G37*
G36*
X471675Y1087057D02*
X466581D01*
Y1081706D01*
X471394D01*
X471675Y1081729D01*
X472002Y1081753D01*
X472376Y1081776D01*
X472750Y1081823D01*
X473124Y1081893D01*
X473451Y1081986D01*
X473498Y1082010D01*
X473591Y1082057D01*
X473731Y1082127D01*
X473918Y1082220D01*
X474128Y1082360D01*
X474339Y1082524D01*
X474549Y1082734D01*
X474713Y1082968D01*
X474736Y1082991D01*
X474783Y1083085D01*
X474853Y1083225D01*
X474946Y1083412D01*
X475016Y1083622D01*
X475087Y1083856D01*
X475133Y1084136D01*
X475157Y1084417D01*
Y1084440D01*
Y1084463D01*
X475133Y1084604D01*
X475110Y1084814D01*
X475063Y1085094D01*
X474946Y1085375D01*
X474806Y1085702D01*
X474596Y1086006D01*
X474315Y1086310D01*
X474269Y1086333D01*
X474152Y1086426D01*
X473965Y1086543D01*
X473661Y1086683D01*
X473311Y1086824D01*
X472843Y1086940D01*
X472306Y1087034D01*
X471675Y1087057D01*
D02*
G37*
G36*
X514345Y1078575D02*
X514321D01*
X514298Y1078551D01*
X514228Y1078528D01*
X514134Y1078505D01*
X514018Y1078458D01*
X513877Y1078411D01*
X513714Y1078364D01*
X513527Y1078318D01*
X513317Y1078248D01*
X513060Y1078201D01*
X512803Y1078131D01*
X512499Y1078061D01*
X512172Y1077990D01*
X511844Y1077920D01*
X511470Y1077874D01*
X511073Y1077804D01*
X511026D01*
X510886Y1077780D01*
X510653Y1077734D01*
X510396Y1077687D01*
X510115Y1077640D01*
X509835Y1077570D01*
X509578Y1077500D01*
X509344Y1077406D01*
X509321D01*
X509250Y1077360D01*
X509157Y1077313D01*
X509064Y1077243D01*
X508783Y1077056D01*
X508549Y1076775D01*
Y1076752D01*
X508503Y1076705D01*
X508479Y1076612D01*
X508433Y1076495D01*
X508386Y1076355D01*
X508339Y1076215D01*
X508316Y1076028D01*
X508293Y1075841D01*
Y1075817D01*
Y1075700D01*
X508316Y1075560D01*
X508363Y1075373D01*
X508433Y1075163D01*
X508549Y1074953D01*
X508690Y1074719D01*
X508877Y1074509D01*
X508900Y1074485D01*
X508993Y1074439D01*
X509134Y1074345D01*
X509321Y1074252D01*
X509578Y1074158D01*
X509882Y1074065D01*
X510232Y1074018D01*
X510653Y1073995D01*
X510840D01*
X511073Y1074018D01*
X511330Y1074065D01*
X511657Y1074111D01*
X511985Y1074205D01*
X512335Y1074322D01*
X512686Y1074485D01*
X512732Y1074509D01*
X512826Y1074579D01*
X512989Y1074696D01*
X513176Y1074859D01*
X513387Y1075046D01*
X513620Y1075280D01*
X513807Y1075560D01*
X513994Y1075864D01*
X514018Y1075887D01*
X514041Y1075981D01*
X514088Y1076144D01*
X514158Y1076355D01*
X514228Y1076635D01*
X514275Y1076962D01*
X514298Y1077360D01*
X514321Y1077827D01*
X514345Y1078575D01*
D02*
G37*
G36*
X534838Y1102723D02*
X534698D01*
X534605Y1102700D01*
X534348Y1102676D01*
X534044Y1102606D01*
X533670Y1102489D01*
X533273Y1102326D01*
X532899Y1102092D01*
X532525Y1101788D01*
X532478Y1101742D01*
X532385Y1101625D01*
X532221Y1101415D01*
X532058Y1101134D01*
X531871Y1100807D01*
X531707Y1100386D01*
X531567Y1099896D01*
X531497Y1099358D01*
X538063D01*
Y1099382D01*
Y1099428D01*
X538040Y1099498D01*
Y1099592D01*
X537993Y1099872D01*
X537923Y1100176D01*
X537806Y1100550D01*
X537689Y1100900D01*
X537503Y1101251D01*
X537292Y1101555D01*
Y1101578D01*
X537245Y1101601D01*
X537129Y1101742D01*
X536918Y1101929D01*
X536638Y1102139D01*
X536287Y1102349D01*
X535867Y1102536D01*
X535376Y1102676D01*
X535119Y1102700D01*
X534838Y1102723D01*
D02*
G37*
G36*
X491818Y1106626D02*
X487191D01*
Y1100854D01*
X491538D01*
X491701Y1100877D01*
X491865D01*
X492052Y1100900D01*
X492496Y1100947D01*
X492986Y1101041D01*
X493477Y1101181D01*
X493921Y1101368D01*
X494131Y1101485D01*
X494295Y1101625D01*
X494342Y1101672D01*
X494435Y1101765D01*
X494575Y1101952D01*
X494739Y1102186D01*
X494903Y1102489D01*
X495043Y1102863D01*
X495136Y1103284D01*
X495183Y1103775D01*
Y1103798D01*
Y1103821D01*
Y1103938D01*
X495160Y1104149D01*
X495113Y1104382D01*
X495066Y1104639D01*
X494973Y1104943D01*
X494832Y1105224D01*
X494669Y1105504D01*
X494646Y1105527D01*
X494575Y1105621D01*
X494459Y1105738D01*
X494318Y1105901D01*
X494108Y1106065D01*
X493874Y1106205D01*
X493617Y1106345D01*
X493314Y1106462D01*
X493290D01*
X493197Y1106485D01*
X493056Y1106509D01*
X492870Y1106555D01*
X492589Y1106579D01*
X492239Y1106602D01*
X491818Y1106626D01*
D02*
G37*
G36*
X468333D02*
X464594D01*
Y1094287D01*
X468427D01*
X468590Y1094311D01*
X468941Y1094334D01*
X469338Y1094358D01*
X469759Y1094404D01*
X470179Y1094474D01*
X470530Y1094568D01*
X470577Y1094591D01*
X470693Y1094614D01*
X470857Y1094685D01*
X471067Y1094778D01*
X471301Y1094918D01*
X471535Y1095059D01*
X471768Y1095222D01*
X472002Y1095409D01*
X472025Y1095456D01*
X472119Y1095549D01*
X472259Y1095713D01*
X472423Y1095947D01*
X472609Y1096250D01*
X472820Y1096601D01*
X473007Y1096998D01*
X473170Y1097442D01*
Y1097465D01*
X473194Y1097512D01*
X473217Y1097582D01*
X473241Y1097676D01*
X473264Y1097793D01*
X473311Y1097956D01*
X473357Y1098120D01*
X473404Y1098307D01*
X473474Y1098774D01*
X473544Y1099312D01*
X473591Y1099919D01*
X473614Y1100573D01*
Y1100597D01*
Y1100690D01*
Y1100807D01*
X473591Y1100994D01*
Y1101204D01*
X473568Y1101438D01*
X473544Y1101718D01*
X473521Y1101999D01*
X473404Y1102630D01*
X473264Y1103284D01*
X473054Y1103892D01*
X472913Y1104195D01*
X472773Y1104452D01*
Y1104476D01*
X472726Y1104522D01*
X472680Y1104593D01*
X472633Y1104686D01*
X472446Y1104920D01*
X472212Y1105200D01*
X471908Y1105504D01*
X471558Y1105808D01*
X471161Y1106065D01*
X470740Y1106275D01*
X470693Y1106299D01*
X470577Y1106322D01*
X470366Y1106392D01*
X470062Y1106462D01*
X469688Y1106509D01*
X469221Y1106579D01*
X468941Y1106602D01*
X468637D01*
X468333Y1106626D01*
D02*
G37*
G36*
X447653Y1063096D02*
X447512D01*
X447395Y1063072D01*
X447138Y1063049D01*
X446788Y1062955D01*
X446391Y1062815D01*
X445970Y1062628D01*
X445573Y1062348D01*
X445362Y1062161D01*
X445176Y1061974D01*
Y1061951D01*
X445129Y1061927D01*
X445082Y1061857D01*
X445012Y1061764D01*
X444942Y1061647D01*
X444872Y1061507D01*
X444778Y1061320D01*
X444685Y1061133D01*
X444591Y1060899D01*
X444498Y1060666D01*
X444428Y1060385D01*
X444358Y1060081D01*
X444287Y1059754D01*
X444241Y1059404D01*
X444217Y1059006D01*
X444194Y1058609D01*
Y1058586D01*
Y1058516D01*
Y1058399D01*
X444217Y1058235D01*
Y1058048D01*
X444241Y1057838D01*
X444311Y1057347D01*
X444428Y1056786D01*
X444615Y1056226D01*
X444848Y1055688D01*
X445012Y1055454D01*
X445176Y1055221D01*
X445199D01*
X445222Y1055174D01*
X445362Y1055057D01*
X445573Y1054870D01*
X445853Y1054683D01*
X446204Y1054473D01*
X446624Y1054286D01*
X447115Y1054169D01*
X447372Y1054146D01*
X447653Y1054122D01*
X447793D01*
X447910Y1054146D01*
X448167Y1054193D01*
X448517Y1054263D01*
X448891Y1054403D01*
X449312Y1054590D01*
X449709Y1054870D01*
X449919Y1055057D01*
X450106Y1055244D01*
X450130Y1055267D01*
X450153Y1055291D01*
X450200Y1055361D01*
X450270Y1055454D01*
X450340Y1055571D01*
X450433Y1055712D01*
X450527Y1055898D01*
X450620Y1056085D01*
X450714Y1056319D01*
X450784Y1056576D01*
X450877Y1056857D01*
X450947Y1057160D01*
X451017Y1057511D01*
X451064Y1057861D01*
X451111Y1058259D01*
Y1058679D01*
Y1058703D01*
Y1058773D01*
Y1058889D01*
X451088Y1059030D01*
Y1059217D01*
X451064Y1059427D01*
X450994Y1059918D01*
X450877Y1060432D01*
X450690Y1060993D01*
X450433Y1061507D01*
X450293Y1061764D01*
X450106Y1061974D01*
Y1061997D01*
X450059Y1062021D01*
X449919Y1062161D01*
X449709Y1062325D01*
X449428Y1062535D01*
X449078Y1062745D01*
X448657Y1062932D01*
X448190Y1063049D01*
X447933Y1063072D01*
X447653Y1063096D01*
D02*
G37*
G36*
X607186D02*
X606812D01*
X606718Y1063072D01*
X606461Y1063049D01*
X606158Y1062955D01*
X605784Y1062839D01*
X605410Y1062628D01*
X605036Y1062371D01*
X604849Y1062184D01*
X604662Y1061997D01*
Y1061974D01*
X604615Y1061951D01*
X604569Y1061881D01*
X604522Y1061787D01*
X604452Y1061694D01*
X604382Y1061553D01*
X604288Y1061390D01*
X604218Y1061203D01*
X604125Y1060993D01*
X604031Y1060736D01*
X603961Y1060479D01*
X603891Y1060198D01*
X603844Y1059871D01*
X603797Y1059544D01*
X603751Y1059193D01*
Y1058796D01*
Y1058773D01*
Y1058703D01*
Y1058586D01*
X603774Y1058422D01*
Y1058235D01*
X603797Y1058001D01*
X603868Y1057511D01*
X603984Y1056950D01*
X604125Y1056413D01*
X604358Y1055875D01*
X604498Y1055641D01*
X604662Y1055431D01*
X604709Y1055384D01*
X604826Y1055267D01*
X605013Y1055104D01*
X605293Y1054917D01*
X605620Y1054707D01*
X606017Y1054543D01*
X606461Y1054426D01*
X606695Y1054403D01*
X606952Y1054380D01*
X607092D01*
X607186Y1054403D01*
X607443Y1054426D01*
X607770Y1054520D01*
X608121Y1054637D01*
X608518Y1054824D01*
X608892Y1055080D01*
X609079Y1055244D01*
X609266Y1055431D01*
Y1055454D01*
X609312Y1055478D01*
X609359Y1055548D01*
X609406Y1055641D01*
X609476Y1055735D01*
X609569Y1055875D01*
X609640Y1056039D01*
X609733Y1056249D01*
X609826Y1056459D01*
X609897Y1056693D01*
X609990Y1056973D01*
X610060Y1057277D01*
X610107Y1057581D01*
X610154Y1057931D01*
X610200Y1058329D01*
Y1058726D01*
Y1058749D01*
Y1058819D01*
Y1058936D01*
X610177Y1059076D01*
Y1059263D01*
X610154Y1059474D01*
X610084Y1059941D01*
X609967Y1060479D01*
X609803Y1061016D01*
X609569Y1061553D01*
X609406Y1061787D01*
X609242Y1061997D01*
Y1062021D01*
X609196Y1062044D01*
X609079Y1062161D01*
X608868Y1062348D01*
X608588Y1062558D01*
X608261Y1062745D01*
X607864Y1062932D01*
X607420Y1063049D01*
X607186Y1063096D01*
D02*
G37*
G36*
X434403Y1060221D02*
X430150D01*
Y1054660D01*
X434753D01*
X435244Y1054683D01*
X435454Y1054707D01*
X435641Y1054730D01*
X435665D01*
X435758Y1054753D01*
X435898Y1054777D01*
X436062Y1054824D01*
X436459Y1054964D01*
X436856Y1055151D01*
X436880Y1055174D01*
X436950Y1055221D01*
X437043Y1055291D01*
X437160Y1055384D01*
X437277Y1055525D01*
X437441Y1055665D01*
X437557Y1055852D01*
X437698Y1056062D01*
X437721Y1056085D01*
X437744Y1056155D01*
X437791Y1056296D01*
X437861Y1056459D01*
X437931Y1056646D01*
X437978Y1056880D01*
X438002Y1057160D01*
X438025Y1057441D01*
Y1057487D01*
Y1057581D01*
X438002Y1057768D01*
X437955Y1057978D01*
X437908Y1058212D01*
X437815Y1058469D01*
X437698Y1058726D01*
X437534Y1058983D01*
X437511Y1059006D01*
X437441Y1059100D01*
X437347Y1059217D01*
X437207Y1059357D01*
X437020Y1059520D01*
X436786Y1059684D01*
X436529Y1059824D01*
X436226Y1059941D01*
X436179Y1059964D01*
X436085Y1059988D01*
X435875Y1060034D01*
X435618Y1060081D01*
X435291Y1060128D01*
X434894Y1060175D01*
X434403Y1060221D01*
D02*
G37*
G36*
X433982Y1066998D02*
X430150D01*
Y1062138D01*
X434122D01*
X434426Y1062161D01*
X434753Y1062184D01*
X435080Y1062208D01*
X435408Y1062254D01*
X435665Y1062301D01*
X435711Y1062325D01*
X435805Y1062348D01*
X435945Y1062418D01*
X436132Y1062512D01*
X436319Y1062605D01*
X436529Y1062745D01*
X436740Y1062932D01*
X436903Y1063119D01*
X436927Y1063142D01*
X436973Y1063213D01*
X437043Y1063353D01*
X437113Y1063516D01*
X437184Y1063703D01*
X437254Y1063937D01*
X437300Y1064217D01*
X437324Y1064521D01*
Y1064568D01*
Y1064661D01*
X437300Y1064802D01*
X437277Y1064988D01*
X437230Y1065222D01*
X437160Y1065456D01*
X437067Y1065690D01*
X436927Y1065923D01*
X436903Y1065947D01*
X436856Y1066017D01*
X436763Y1066134D01*
X436646Y1066250D01*
X436483Y1066391D01*
X436296Y1066531D01*
X436062Y1066671D01*
X435805Y1066765D01*
X435782D01*
X435665Y1066811D01*
X435501Y1066835D01*
X435244Y1066881D01*
X434894Y1066928D01*
X434496Y1066952D01*
X433982Y1066998D01*
D02*
G37*
G36*
X635134Y1058633D02*
X635111D01*
X635087Y1058609D01*
X635017Y1058586D01*
X634924Y1058562D01*
X634807Y1058516D01*
X634667Y1058469D01*
X634503Y1058422D01*
X634316Y1058375D01*
X634106Y1058305D01*
X633849Y1058259D01*
X633592Y1058188D01*
X633288Y1058118D01*
X632961Y1058048D01*
X632634Y1057978D01*
X632260Y1057931D01*
X631862Y1057861D01*
X631816D01*
X631675Y1057838D01*
X631442Y1057791D01*
X631185Y1057745D01*
X630904Y1057698D01*
X630624Y1057628D01*
X630367Y1057558D01*
X630133Y1057464D01*
X630110D01*
X630040Y1057417D01*
X629946Y1057371D01*
X629853Y1057300D01*
X629572Y1057113D01*
X629339Y1056833D01*
Y1056810D01*
X629292Y1056763D01*
X629269Y1056669D01*
X629222Y1056553D01*
X629175Y1056413D01*
X629128Y1056272D01*
X629105Y1056085D01*
X629082Y1055898D01*
Y1055875D01*
Y1055758D01*
X629105Y1055618D01*
X629152Y1055431D01*
X629222Y1055221D01*
X629339Y1055010D01*
X629479Y1054777D01*
X629666Y1054566D01*
X629689Y1054543D01*
X629783Y1054496D01*
X629923Y1054403D01*
X630110Y1054309D01*
X630367Y1054216D01*
X630671Y1054122D01*
X631021Y1054076D01*
X631442Y1054052D01*
X631629D01*
X631862Y1054076D01*
X632119Y1054122D01*
X632447Y1054169D01*
X632774Y1054263D01*
X633124Y1054380D01*
X633475Y1054543D01*
X633522Y1054566D01*
X633615Y1054637D01*
X633779Y1054753D01*
X633966Y1054917D01*
X634176Y1055104D01*
X634410Y1055338D01*
X634596Y1055618D01*
X634783Y1055922D01*
X634807Y1055945D01*
X634830Y1056039D01*
X634877Y1056202D01*
X634947Y1056413D01*
X635017Y1056693D01*
X635064Y1057020D01*
X635087Y1057417D01*
X635111Y1057885D01*
X635134Y1058633D01*
D02*
G37*
G36*
X525818D02*
X525795D01*
X525772Y1058609D01*
X525702Y1058586D01*
X525608Y1058562D01*
X525491Y1058516D01*
X525351Y1058469D01*
X525187Y1058422D01*
X525001Y1058375D01*
X524790Y1058305D01*
X524533Y1058259D01*
X524276Y1058188D01*
X523972Y1058118D01*
X523645Y1058048D01*
X523318Y1057978D01*
X522944Y1057931D01*
X522547Y1057861D01*
X522500D01*
X522360Y1057838D01*
X522126Y1057791D01*
X521869Y1057745D01*
X521589Y1057698D01*
X521308Y1057628D01*
X521051Y1057558D01*
X520818Y1057464D01*
X520794D01*
X520724Y1057417D01*
X520631Y1057371D01*
X520537Y1057300D01*
X520257Y1057113D01*
X520023Y1056833D01*
Y1056810D01*
X519977Y1056763D01*
X519953Y1056669D01*
X519906Y1056553D01*
X519860Y1056413D01*
X519813Y1056272D01*
X519790Y1056085D01*
X519766Y1055898D01*
Y1055875D01*
Y1055758D01*
X519790Y1055618D01*
X519836Y1055431D01*
X519906Y1055221D01*
X520023Y1055010D01*
X520163Y1054777D01*
X520350Y1054566D01*
X520374Y1054543D01*
X520467Y1054496D01*
X520607Y1054403D01*
X520794Y1054309D01*
X521051Y1054216D01*
X521355Y1054122D01*
X521706Y1054076D01*
X522126Y1054052D01*
X522313D01*
X522547Y1054076D01*
X522804Y1054122D01*
X523131Y1054169D01*
X523458Y1054263D01*
X523809Y1054380D01*
X524159Y1054543D01*
X524206Y1054566D01*
X524300Y1054637D01*
X524463Y1054753D01*
X524650Y1054917D01*
X524860Y1055104D01*
X525094Y1055338D01*
X525281Y1055618D01*
X525468Y1055922D01*
X525491Y1055945D01*
X525515Y1056039D01*
X525561Y1056202D01*
X525631Y1056413D01*
X525702Y1056693D01*
X525748Y1057020D01*
X525772Y1057417D01*
X525795Y1057885D01*
X525818Y1058633D01*
D02*
G37*
G36*
X434777Y1086940D02*
X430150D01*
Y1081169D01*
X434496D01*
X434660Y1081192D01*
X434823D01*
X435010Y1081215D01*
X435454Y1081262D01*
X435945Y1081356D01*
X436436Y1081496D01*
X436880Y1081683D01*
X437090Y1081799D01*
X437254Y1081940D01*
X437300Y1081986D01*
X437394Y1082080D01*
X437534Y1082267D01*
X437698Y1082501D01*
X437861Y1082804D01*
X438002Y1083178D01*
X438095Y1083599D01*
X438142Y1084090D01*
Y1084113D01*
Y1084136D01*
Y1084253D01*
X438118Y1084463D01*
X438072Y1084697D01*
X438025Y1084954D01*
X437931Y1085258D01*
X437791Y1085538D01*
X437628Y1085819D01*
X437604Y1085842D01*
X437534Y1085936D01*
X437417Y1086052D01*
X437277Y1086216D01*
X437067Y1086380D01*
X436833Y1086520D01*
X436576Y1086660D01*
X436272Y1086777D01*
X436249D01*
X436155Y1086800D01*
X436015Y1086824D01*
X435828Y1086870D01*
X435548Y1086894D01*
X435197Y1086917D01*
X434777Y1086940D01*
D02*
G37*
G36*
X536801Y1083038D02*
X536661D01*
X536568Y1083015D01*
X536311Y1082991D01*
X536007Y1082921D01*
X535633Y1082804D01*
X535236Y1082641D01*
X534862Y1082407D01*
X534488Y1082103D01*
X534441Y1082057D01*
X534348Y1081940D01*
X534184Y1081729D01*
X534021Y1081449D01*
X533834Y1081122D01*
X533670Y1080701D01*
X533530Y1080210D01*
X533460Y1079673D01*
X540026D01*
Y1079696D01*
Y1079743D01*
X540003Y1079813D01*
Y1079907D01*
X539956Y1080187D01*
X539886Y1080491D01*
X539769Y1080865D01*
X539652Y1081215D01*
X539465Y1081566D01*
X539255Y1081870D01*
Y1081893D01*
X539208Y1081916D01*
X539091Y1082057D01*
X538881Y1082243D01*
X538601Y1082454D01*
X538250Y1082664D01*
X537830Y1082851D01*
X537339Y1082991D01*
X537082Y1083015D01*
X536801Y1083038D01*
D02*
G37*
G36*
X547013Y1063096D02*
X546873D01*
X546780Y1063072D01*
X546522Y1063049D01*
X546219Y1062979D01*
X545845Y1062862D01*
X545448Y1062699D01*
X545074Y1062465D01*
X544700Y1062161D01*
X544653Y1062114D01*
X544560Y1061997D01*
X544396Y1061787D01*
X544232Y1061507D01*
X544045Y1061180D01*
X543882Y1060759D01*
X543742Y1060268D01*
X543672Y1059731D01*
X550238D01*
Y1059754D01*
Y1059801D01*
X550215Y1059871D01*
Y1059964D01*
X550168Y1060245D01*
X550098Y1060549D01*
X549981Y1060922D01*
X549864Y1061273D01*
X549677Y1061624D01*
X549467Y1061927D01*
Y1061951D01*
X549420Y1061974D01*
X549303Y1062114D01*
X549093Y1062301D01*
X548813Y1062512D01*
X548462Y1062722D01*
X548041Y1062909D01*
X547551Y1063049D01*
X547294Y1063072D01*
X547013Y1063096D01*
D02*
G37*
G36*
X570883Y1171478D02*
X566630D01*
Y1165916D01*
X571233D01*
X571724Y1165940D01*
X571934Y1165963D01*
X572121Y1165986D01*
X572145D01*
X572238Y1166010D01*
X572378Y1166033D01*
X572542Y1166080D01*
X572939Y1166220D01*
X573336Y1166407D01*
X573360Y1166430D01*
X573430Y1166477D01*
X573523Y1166547D01*
X573640Y1166641D01*
X573757Y1166781D01*
X573921Y1166921D01*
X574037Y1167108D01*
X574178Y1167318D01*
X574201Y1167342D01*
X574224Y1167412D01*
X574271Y1167552D01*
X574341Y1167716D01*
X574411Y1167903D01*
X574458Y1168136D01*
X574481Y1168417D01*
X574505Y1168697D01*
Y1168744D01*
Y1168837D01*
X574481Y1169024D01*
X574435Y1169234D01*
X574388Y1169468D01*
X574294Y1169725D01*
X574178Y1169982D01*
X574014Y1170239D01*
X573991Y1170263D01*
X573921Y1170356D01*
X573827Y1170473D01*
X573687Y1170613D01*
X573500Y1170777D01*
X573266Y1170940D01*
X573009Y1171080D01*
X572705Y1171197D01*
X572659Y1171221D01*
X572565Y1171244D01*
X572355Y1171291D01*
X572098Y1171338D01*
X571771Y1171384D01*
X571373Y1171431D01*
X570883Y1171478D01*
D02*
G37*
G36*
X570462Y1178254D02*
X566630D01*
Y1173394D01*
X570602D01*
X570906Y1173417D01*
X571233Y1173441D01*
X571560Y1173464D01*
X571888Y1173511D01*
X572145Y1173558D01*
X572191Y1173581D01*
X572285Y1173604D01*
X572425Y1173674D01*
X572612Y1173768D01*
X572799Y1173861D01*
X573009Y1174001D01*
X573219Y1174189D01*
X573383Y1174375D01*
X573406Y1174399D01*
X573453Y1174469D01*
X573523Y1174609D01*
X573593Y1174773D01*
X573663Y1174960D01*
X573733Y1175193D01*
X573780Y1175474D01*
X573804Y1175778D01*
Y1175824D01*
Y1175918D01*
X573780Y1176058D01*
X573757Y1176245D01*
X573710Y1176479D01*
X573640Y1176712D01*
X573547Y1176946D01*
X573406Y1177180D01*
X573383Y1177203D01*
X573336Y1177273D01*
X573243Y1177390D01*
X573126Y1177507D01*
X572962Y1177647D01*
X572775Y1177787D01*
X572542Y1177927D01*
X572285Y1178021D01*
X572261D01*
X572145Y1178067D01*
X571981Y1178091D01*
X571724Y1178138D01*
X571373Y1178184D01*
X570976Y1178208D01*
X570462Y1178254D01*
D02*
G37*
G36*
X490170Y1169889D02*
X490146D01*
X490123Y1169865D01*
X490053Y1169842D01*
X489959Y1169819D01*
X489842Y1169772D01*
X489702Y1169725D01*
X489539Y1169678D01*
X489352Y1169632D01*
X489141Y1169562D01*
X488884Y1169515D01*
X488627Y1169445D01*
X488324Y1169375D01*
X487996Y1169305D01*
X487669Y1169234D01*
X487295Y1169188D01*
X486898Y1169118D01*
X486851D01*
X486711Y1169094D01*
X486477Y1169047D01*
X486220Y1169001D01*
X485940Y1168954D01*
X485660Y1168884D01*
X485402Y1168814D01*
X485169Y1168720D01*
X485145D01*
X485075Y1168674D01*
X484982Y1168627D01*
X484888Y1168557D01*
X484608Y1168370D01*
X484374Y1168089D01*
Y1168066D01*
X484328Y1168019D01*
X484304Y1167926D01*
X484258Y1167809D01*
X484211Y1167669D01*
X484164Y1167529D01*
X484141Y1167342D01*
X484117Y1167155D01*
Y1167131D01*
Y1167014D01*
X484141Y1166874D01*
X484187Y1166687D01*
X484258Y1166477D01*
X484374Y1166267D01*
X484515Y1166033D01*
X484701Y1165823D01*
X484725Y1165799D01*
X484818Y1165753D01*
X484958Y1165659D01*
X485145Y1165566D01*
X485402Y1165472D01*
X485706Y1165379D01*
X486057Y1165332D01*
X486477Y1165309D01*
X486664D01*
X486898Y1165332D01*
X487155Y1165379D01*
X487482Y1165425D01*
X487809Y1165519D01*
X488160Y1165636D01*
X488511Y1165799D01*
X488557Y1165823D01*
X488651Y1165893D01*
X488814Y1166010D01*
X489001Y1166173D01*
X489212Y1166360D01*
X489445Y1166594D01*
X489632Y1166874D01*
X489819Y1167178D01*
X489842Y1167201D01*
X489866Y1167295D01*
X489912Y1167458D01*
X489983Y1167669D01*
X490053Y1167949D01*
X490099Y1168276D01*
X490123Y1168674D01*
X490146Y1169141D01*
X490170Y1169889D01*
D02*
G37*
G36*
X539967Y1178254D02*
X535340D01*
Y1172483D01*
X539686D01*
X539850Y1172506D01*
X540014D01*
X540201Y1172529D01*
X540644Y1172576D01*
X541135Y1172670D01*
X541626Y1172810D01*
X542070Y1172997D01*
X542280Y1173113D01*
X542444Y1173254D01*
X542491Y1173300D01*
X542584Y1173394D01*
X542724Y1173581D01*
X542888Y1173815D01*
X543051Y1174118D01*
X543192Y1174492D01*
X543285Y1174913D01*
X543332Y1175404D01*
Y1175427D01*
Y1175450D01*
Y1175567D01*
X543308Y1175778D01*
X543262Y1176011D01*
X543215Y1176268D01*
X543121Y1176572D01*
X542981Y1176852D01*
X542818Y1177133D01*
X542794Y1177156D01*
X542724Y1177250D01*
X542607Y1177366D01*
X542467Y1177530D01*
X542257Y1177694D01*
X542023Y1177834D01*
X541766Y1177974D01*
X541462Y1178091D01*
X541439D01*
X541345Y1178114D01*
X541205Y1178138D01*
X541018Y1178184D01*
X540738Y1178208D01*
X540387Y1178231D01*
X539967Y1178254D01*
D02*
G37*
G36*
X603587Y1122689D02*
X603564D01*
X603540Y1122665D01*
X603470Y1122642D01*
X603377Y1122619D01*
X603260Y1122572D01*
X603120Y1122525D01*
X602956Y1122478D01*
X602769Y1122432D01*
X602559Y1122362D01*
X602302Y1122315D01*
X602045Y1122245D01*
X601741Y1122175D01*
X601414Y1122105D01*
X601087Y1122035D01*
X600713Y1121988D01*
X600316Y1121918D01*
X600269D01*
X600129Y1121894D01*
X599895Y1121848D01*
X599638Y1121801D01*
X599358Y1121754D01*
X599077Y1121684D01*
X598820Y1121614D01*
X598586Y1121520D01*
X598563D01*
X598493Y1121474D01*
X598400Y1121427D01*
X598306Y1121357D01*
X598026Y1121170D01*
X597792Y1120890D01*
Y1120866D01*
X597745Y1120819D01*
X597722Y1120726D01*
X597675Y1120609D01*
X597628Y1120469D01*
X597582Y1120329D01*
X597558Y1120142D01*
X597535Y1119955D01*
Y1119931D01*
Y1119815D01*
X597558Y1119674D01*
X597605Y1119487D01*
X597675Y1119277D01*
X597792Y1119067D01*
X597932Y1118833D01*
X598119Y1118623D01*
X598142Y1118599D01*
X598236Y1118553D01*
X598376Y1118459D01*
X598563Y1118366D01*
X598820Y1118272D01*
X599124Y1118179D01*
X599474Y1118132D01*
X599895Y1118109D01*
X600082D01*
X600316Y1118132D01*
X600573Y1118179D01*
X600900Y1118225D01*
X601227Y1118319D01*
X601577Y1118436D01*
X601928Y1118599D01*
X601975Y1118623D01*
X602068Y1118693D01*
X602232Y1118810D01*
X602419Y1118973D01*
X602629Y1119160D01*
X602863Y1119394D01*
X603050Y1119674D01*
X603237Y1119978D01*
X603260Y1120002D01*
X603283Y1120095D01*
X603330Y1120258D01*
X603400Y1120469D01*
X603470Y1120749D01*
X603517Y1121076D01*
X603540Y1121474D01*
X603564Y1121941D01*
X603587Y1122689D01*
D02*
G37*
G36*
X494272D02*
X494248D01*
X494225Y1122665D01*
X494155Y1122642D01*
X494061Y1122619D01*
X493945Y1122572D01*
X493804Y1122525D01*
X493641Y1122478D01*
X493454Y1122432D01*
X493243Y1122362D01*
X492986Y1122315D01*
X492729Y1122245D01*
X492426Y1122175D01*
X492098Y1122105D01*
X491771Y1122035D01*
X491397Y1121988D01*
X491000Y1121918D01*
X490953D01*
X490813Y1121894D01*
X490579Y1121848D01*
X490322Y1121801D01*
X490042Y1121754D01*
X489762Y1121684D01*
X489505Y1121614D01*
X489271Y1121520D01*
X489248D01*
X489177Y1121474D01*
X489084Y1121427D01*
X488991Y1121357D01*
X488710Y1121170D01*
X488476Y1120890D01*
Y1120866D01*
X488430Y1120819D01*
X488406Y1120726D01*
X488360Y1120609D01*
X488313Y1120469D01*
X488266Y1120329D01*
X488243Y1120142D01*
X488219Y1119955D01*
Y1119931D01*
Y1119815D01*
X488243Y1119674D01*
X488289Y1119487D01*
X488360Y1119277D01*
X488476Y1119067D01*
X488617Y1118833D01*
X488803Y1118623D01*
X488827Y1118599D01*
X488920Y1118553D01*
X489061Y1118459D01*
X489248Y1118366D01*
X489505Y1118272D01*
X489808Y1118179D01*
X490159Y1118132D01*
X490579Y1118109D01*
X490766D01*
X491000Y1118132D01*
X491257Y1118179D01*
X491584Y1118225D01*
X491912Y1118319D01*
X492262Y1118436D01*
X492612Y1118599D01*
X492659Y1118623D01*
X492753Y1118693D01*
X492916Y1118810D01*
X493103Y1118973D01*
X493314Y1119160D01*
X493547Y1119394D01*
X493734Y1119674D01*
X493921Y1119978D01*
X493945Y1120002D01*
X493968Y1120095D01*
X494015Y1120258D01*
X494085Y1120469D01*
X494155Y1120749D01*
X494202Y1121076D01*
X494225Y1121474D01*
X494248Y1121941D01*
X494272Y1122689D01*
D02*
G37*
G36*
X460341Y1127222D02*
X460224D01*
X460131Y1127199D01*
X459897Y1127152D01*
X459594Y1127082D01*
X459243Y1126942D01*
X458869Y1126731D01*
X458659Y1126591D01*
X458472Y1126428D01*
X458285Y1126241D01*
X458098Y1126030D01*
Y1126007D01*
X458051Y1125984D01*
X458004Y1125914D01*
X457958Y1125820D01*
X457888Y1125680D01*
X457794Y1125540D01*
X457701Y1125353D01*
X457631Y1125166D01*
X457537Y1124932D01*
X457444Y1124675D01*
X457374Y1124395D01*
X457280Y1124091D01*
X457233Y1123740D01*
X457187Y1123390D01*
X457140Y1123016D01*
Y1122595D01*
Y1122572D01*
Y1122502D01*
Y1122385D01*
X457163Y1122222D01*
Y1122035D01*
X457187Y1121824D01*
X457257Y1121333D01*
X457374Y1120773D01*
X457514Y1120235D01*
X457747Y1119698D01*
X457888Y1119464D01*
X458051Y1119254D01*
X458098Y1119207D01*
X458215Y1119090D01*
X458402Y1118903D01*
X458659Y1118716D01*
X458986Y1118529D01*
X459360Y1118342D01*
X459781Y1118225D01*
X460014Y1118202D01*
X460248Y1118179D01*
X460388D01*
X460481Y1118202D01*
X460715Y1118249D01*
X461042Y1118319D01*
X461393Y1118459D01*
X461767Y1118646D01*
X462141Y1118927D01*
X462328Y1119090D01*
X462514Y1119277D01*
Y1119301D01*
X462561Y1119324D01*
X462608Y1119394D01*
X462655Y1119487D01*
X462748Y1119604D01*
X462818Y1119768D01*
X462912Y1119931D01*
X463005Y1120142D01*
X463075Y1120352D01*
X463169Y1120632D01*
X463262Y1120913D01*
X463332Y1121217D01*
X463379Y1121567D01*
X463426Y1121941D01*
X463473Y1122338D01*
Y1122759D01*
Y1122782D01*
Y1122852D01*
Y1122969D01*
X463449Y1123133D01*
Y1123320D01*
X463426Y1123530D01*
X463356Y1124021D01*
X463239Y1124558D01*
X463075Y1125096D01*
X462842Y1125633D01*
X462701Y1125890D01*
X462538Y1126100D01*
Y1126124D01*
X462491Y1126147D01*
X462374Y1126288D01*
X462187Y1126451D01*
X461930Y1126661D01*
X461603Y1126872D01*
X461229Y1127059D01*
X460809Y1127176D01*
X460575Y1127199D01*
X460341Y1127222D01*
D02*
G37*
G36*
X457034Y1176946D02*
X451940Y1169702D01*
X457034D01*
Y1176946D01*
D02*
G37*
G36*
X511364Y1174352D02*
X511224D01*
X511131Y1174329D01*
X510874Y1174305D01*
X510570Y1174235D01*
X510196Y1174118D01*
X509799Y1173955D01*
X509425Y1173721D01*
X509051Y1173417D01*
X509004Y1173371D01*
X508911Y1173254D01*
X508747Y1173043D01*
X508584Y1172763D01*
X508397Y1172436D01*
X508233Y1172015D01*
X508093Y1171525D01*
X508023Y1170987D01*
X514589D01*
Y1171010D01*
Y1171057D01*
X514566Y1171127D01*
Y1171221D01*
X514519Y1171501D01*
X514449Y1171805D01*
X514332Y1172179D01*
X514215Y1172529D01*
X514028Y1172880D01*
X513818Y1173184D01*
Y1173207D01*
X513771Y1173230D01*
X513654Y1173371D01*
X513444Y1173558D01*
X513164Y1173768D01*
X512813Y1173978D01*
X512393Y1174165D01*
X511902Y1174305D01*
X511645Y1174329D01*
X511364Y1174352D01*
D02*
G37*
G36*
X512382Y1098260D02*
X512359D01*
X512335Y1098236D01*
X512265Y1098213D01*
X512172Y1098190D01*
X512055Y1098143D01*
X511914Y1098096D01*
X511751Y1098050D01*
X511564Y1098003D01*
X511354Y1097933D01*
X511097Y1097886D01*
X510840Y1097816D01*
X510536Y1097746D01*
X510209Y1097676D01*
X509882Y1097606D01*
X509508Y1097559D01*
X509110Y1097489D01*
X509064D01*
X508923Y1097465D01*
X508690Y1097419D01*
X508433Y1097372D01*
X508152Y1097325D01*
X507872Y1097255D01*
X507615Y1097185D01*
X507381Y1097092D01*
X507358D01*
X507288Y1097045D01*
X507194Y1096998D01*
X507101Y1096928D01*
X506820Y1096741D01*
X506587Y1096461D01*
Y1096437D01*
X506540Y1096391D01*
X506516Y1096297D01*
X506470Y1096180D01*
X506423Y1096040D01*
X506376Y1095900D01*
X506353Y1095713D01*
X506329Y1095526D01*
Y1095502D01*
Y1095386D01*
X506353Y1095245D01*
X506400Y1095059D01*
X506470Y1094848D01*
X506587Y1094638D01*
X506727Y1094404D01*
X506914Y1094194D01*
X506937Y1094171D01*
X507031Y1094124D01*
X507171Y1094030D01*
X507358Y1093937D01*
X507615Y1093843D01*
X507919Y1093750D01*
X508269Y1093703D01*
X508690Y1093680D01*
X508877D01*
X509110Y1093703D01*
X509367Y1093750D01*
X509695Y1093797D01*
X510022Y1093890D01*
X510372Y1094007D01*
X510723Y1094171D01*
X510770Y1094194D01*
X510863Y1094264D01*
X511026Y1094381D01*
X511213Y1094544D01*
X511424Y1094731D01*
X511657Y1094965D01*
X511844Y1095245D01*
X512031Y1095549D01*
X512055Y1095573D01*
X512078Y1095666D01*
X512125Y1095830D01*
X512195Y1096040D01*
X512265Y1096320D01*
X512312Y1096647D01*
X512335Y1097045D01*
X512359Y1097512D01*
X512382Y1098260D01*
D02*
G37*
G36*
X596437Y1106626D02*
X592698D01*
Y1094287D01*
X596530D01*
X596694Y1094311D01*
X597044Y1094334D01*
X597441Y1094358D01*
X597862Y1094404D01*
X598283Y1094474D01*
X598633Y1094568D01*
X598680Y1094591D01*
X598797Y1094614D01*
X598960Y1094685D01*
X599171Y1094778D01*
X599404Y1094918D01*
X599638Y1095059D01*
X599872Y1095222D01*
X600105Y1095409D01*
X600129Y1095456D01*
X600222Y1095549D01*
X600362Y1095713D01*
X600526Y1095947D01*
X600713Y1096250D01*
X600923Y1096601D01*
X601110Y1096998D01*
X601274Y1097442D01*
Y1097465D01*
X601297Y1097512D01*
X601320Y1097582D01*
X601344Y1097676D01*
X601367Y1097793D01*
X601414Y1097956D01*
X601461Y1098120D01*
X601507Y1098307D01*
X601577Y1098774D01*
X601648Y1099312D01*
X601694Y1099919D01*
X601718Y1100573D01*
Y1100597D01*
Y1100690D01*
Y1100807D01*
X601694Y1100994D01*
Y1101204D01*
X601671Y1101438D01*
X601648Y1101718D01*
X601624Y1101999D01*
X601507Y1102630D01*
X601367Y1103284D01*
X601157Y1103892D01*
X601017Y1104195D01*
X600877Y1104452D01*
Y1104476D01*
X600830Y1104522D01*
X600783Y1104593D01*
X600736Y1104686D01*
X600549Y1104920D01*
X600316Y1105200D01*
X600012Y1105504D01*
X599661Y1105808D01*
X599264Y1106065D01*
X598843Y1106275D01*
X598797Y1106299D01*
X598680Y1106322D01*
X598470Y1106392D01*
X598166Y1106462D01*
X597792Y1106509D01*
X597324Y1106579D01*
X597044Y1106602D01*
X596740D01*
X596437Y1106626D01*
D02*
G37*
G36*
X575639Y1127152D02*
X575265D01*
X575172Y1127129D01*
X574915Y1127105D01*
X574611Y1127012D01*
X574237Y1126895D01*
X573863Y1126685D01*
X573489Y1126428D01*
X573302Y1126241D01*
X573115Y1126054D01*
Y1126030D01*
X573069Y1126007D01*
X573022Y1125937D01*
X572975Y1125844D01*
X572905Y1125750D01*
X572835Y1125610D01*
X572741Y1125446D01*
X572671Y1125259D01*
X572578Y1125049D01*
X572484Y1124792D01*
X572414Y1124535D01*
X572344Y1124255D01*
X572297Y1123927D01*
X572251Y1123600D01*
X572204Y1123250D01*
Y1122852D01*
Y1122829D01*
Y1122759D01*
Y1122642D01*
X572227Y1122478D01*
Y1122292D01*
X572251Y1122058D01*
X572321Y1121567D01*
X572438Y1121006D01*
X572578Y1120469D01*
X572812Y1119931D01*
X572952Y1119698D01*
X573115Y1119487D01*
X573162Y1119441D01*
X573279Y1119324D01*
X573466Y1119160D01*
X573746Y1118973D01*
X574073Y1118763D01*
X574471Y1118599D01*
X574915Y1118483D01*
X575148Y1118459D01*
X575405Y1118436D01*
X575546D01*
X575639Y1118459D01*
X575896Y1118483D01*
X576223Y1118576D01*
X576574Y1118693D01*
X576971Y1118880D01*
X577345Y1119137D01*
X577532Y1119301D01*
X577719Y1119487D01*
Y1119511D01*
X577766Y1119534D01*
X577812Y1119604D01*
X577859Y1119698D01*
X577929Y1119791D01*
X578023Y1119931D01*
X578093Y1120095D01*
X578186Y1120305D01*
X578280Y1120516D01*
X578350Y1120749D01*
X578443Y1121030D01*
X578513Y1121333D01*
X578560Y1121637D01*
X578607Y1121988D01*
X578653Y1122385D01*
Y1122782D01*
Y1122806D01*
Y1122876D01*
Y1122993D01*
X578630Y1123133D01*
Y1123320D01*
X578607Y1123530D01*
X578537Y1123997D01*
X578420Y1124535D01*
X578256Y1125072D01*
X578023Y1125610D01*
X577859Y1125844D01*
X577695Y1126054D01*
Y1126077D01*
X577649Y1126100D01*
X577532Y1126217D01*
X577322Y1126404D01*
X577041Y1126615D01*
X576714Y1126802D01*
X576317Y1126989D01*
X575873Y1127105D01*
X575639Y1127152D01*
D02*
G37*
G36*
X515466D02*
X515326D01*
X515233Y1127129D01*
X514976Y1127105D01*
X514672Y1127035D01*
X514298Y1126918D01*
X513901Y1126755D01*
X513527Y1126521D01*
X513153Y1126217D01*
X513106Y1126171D01*
X513013Y1126054D01*
X512849Y1125844D01*
X512686Y1125563D01*
X512499Y1125236D01*
X512335Y1124815D01*
X512195Y1124325D01*
X512125Y1123787D01*
X518691D01*
Y1123811D01*
Y1123857D01*
X518668Y1123927D01*
Y1124021D01*
X518621Y1124301D01*
X518551Y1124605D01*
X518434Y1124979D01*
X518317Y1125329D01*
X518130Y1125680D01*
X517920Y1125984D01*
Y1126007D01*
X517873Y1126030D01*
X517757Y1126171D01*
X517546Y1126358D01*
X517266Y1126568D01*
X516915Y1126778D01*
X516495Y1126965D01*
X516004Y1127105D01*
X515747Y1127129D01*
X515466Y1127152D01*
D02*
G37*
G36*
X447512D02*
X447372D01*
X447255Y1127129D01*
X446998Y1127105D01*
X446648Y1127012D01*
X446250Y1126872D01*
X445830Y1126685D01*
X445433Y1126404D01*
X445222Y1126217D01*
X445035Y1126030D01*
Y1126007D01*
X444989Y1125984D01*
X444942Y1125914D01*
X444872Y1125820D01*
X444802Y1125703D01*
X444731Y1125563D01*
X444638Y1125376D01*
X444545Y1125189D01*
X444451Y1124956D01*
X444358Y1124722D01*
X444287Y1124441D01*
X444217Y1124138D01*
X444147Y1123811D01*
X444101Y1123460D01*
X444077Y1123063D01*
X444054Y1122665D01*
Y1122642D01*
Y1122572D01*
Y1122455D01*
X444077Y1122292D01*
Y1122105D01*
X444101Y1121894D01*
X444171Y1121404D01*
X444287Y1120843D01*
X444474Y1120282D01*
X444708Y1119744D01*
X444872Y1119511D01*
X445035Y1119277D01*
X445059D01*
X445082Y1119230D01*
X445222Y1119113D01*
X445433Y1118927D01*
X445713Y1118740D01*
X446063Y1118529D01*
X446484Y1118342D01*
X446975Y1118225D01*
X447232Y1118202D01*
X447512Y1118179D01*
X447653D01*
X447769Y1118202D01*
X448026Y1118249D01*
X448377Y1118319D01*
X448751Y1118459D01*
X449171Y1118646D01*
X449569Y1118927D01*
X449779Y1119113D01*
X449966Y1119301D01*
X449989Y1119324D01*
X450013Y1119347D01*
X450059Y1119417D01*
X450130Y1119511D01*
X450200Y1119628D01*
X450293Y1119768D01*
X450387Y1119955D01*
X450480Y1120142D01*
X450574Y1120375D01*
X450644Y1120632D01*
X450737Y1120913D01*
X450807Y1121217D01*
X450877Y1121567D01*
X450924Y1121918D01*
X450971Y1122315D01*
Y1122736D01*
Y1122759D01*
Y1122829D01*
Y1122946D01*
X450947Y1123086D01*
Y1123273D01*
X450924Y1123483D01*
X450854Y1123974D01*
X450737Y1124488D01*
X450550Y1125049D01*
X450293Y1125563D01*
X450153Y1125820D01*
X449966Y1126030D01*
Y1126054D01*
X449919Y1126077D01*
X449779Y1126217D01*
X449569Y1126381D01*
X449288Y1126591D01*
X448938Y1126802D01*
X448517Y1126989D01*
X448050Y1127105D01*
X447793Y1127129D01*
X447512Y1127152D01*
D02*
G37*
%LPD*%
D63*
X1741000Y-65540D02*
Y-60460D01*
X57000Y-65540D02*
Y-60460D01*
X1725760Y-68080D02*
X1741000Y-63000D01*
X1725760Y-57920D02*
X1741000Y-63000D01*
X57000D02*
X72240Y-68080D01*
X57000Y-63000D02*
X72240Y-57920D01*
X970352Y-63000D02*
X1741000D01*
X57000D02*
X827648D01*
X-94540Y1002000D02*
X-89460D01*
X-94540Y2000D02*
X-89460D01*
X-92000Y1002000D02*
X-86920Y986760D01*
X-97080D02*
X-92000Y1002000D01*
Y2000D02*
X-86920Y17240D01*
X-97080D02*
X-92000Y2000D01*
Y559387D02*
Y1002000D01*
Y2000D02*
Y444613D01*
X-51540Y662000D02*
X-46460D01*
X-51540Y72000D02*
X-46460D01*
X-49000Y662000D02*
X-43920Y646760D01*
X-54080D02*
X-49000Y662000D01*
Y72000D02*
X-43920Y87240D01*
X-54080D02*
X-49000Y72000D01*
Y418039D02*
Y662000D01*
Y72000D02*
Y315961D01*
X120000Y1057460D02*
Y1062540D01*
X0Y1057460D02*
Y1062540D01*
X104760Y1054920D02*
X120000Y1060000D01*
X104760Y1065080D02*
X120000Y1060000D01*
X0D02*
X15240Y1054920D01*
X0Y1060000D02*
X15240Y1065080D01*
X109769Y1060000D02*
X120000D01*
X0D02*
X10231D01*
X1797000Y1057460D02*
Y1062540D01*
X1470000Y1057460D02*
Y1062540D01*
X1781760Y1054920D02*
X1797000Y1060000D01*
X1781760Y1065080D02*
X1797000Y1060000D01*
X1470000D02*
X1485240Y1054920D01*
X1470000Y1060000D02*
X1485240Y1065080D01*
X1698504Y1060000D02*
X1797000D01*
X1470000D02*
X1568496D01*
X1797000Y1117460D02*
Y1122540D01*
X1260000Y1117460D02*
Y1122540D01*
X1781760Y1114920D02*
X1797000Y1120000D01*
X1781760Y1125080D02*
X1797000Y1120000D01*
X1260000D02*
X1275240Y1114920D01*
X1260000Y1120000D02*
X1275240Y1125080D01*
X1593504Y1120000D02*
X1797000D01*
X1260000D02*
X1463496D01*
X1797000Y1187460D02*
Y1192540D01*
X1100000Y1187460D02*
Y1192540D01*
X1781760Y1184920D02*
X1797000Y1190000D01*
X1781760Y1195080D02*
X1797000Y1190000D01*
X1100000D02*
X1115240Y1184920D01*
X1100000Y1190000D02*
X1115240Y1195080D01*
X1513504Y1190000D02*
X1797000D01*
X1100000D02*
X1383496D01*
X1797000Y1250460D02*
Y1255540D01*
X-3000Y1250460D02*
Y1255540D01*
X1781760Y1247920D02*
X1797000Y1253000D01*
X1781760Y1258080D02*
X1797000Y1253000D01*
X-3000D02*
X12240Y1247920D01*
X-3000Y1253000D02*
X12240Y1258080D01*
X954387Y1253000D02*
X1797000D01*
X-3000D02*
X839613D01*
D64*
X1739000Y-88000D02*
Y71000D01*
X57000Y-72000D02*
Y70000D01*
X-61000Y72000D02*
X56000D01*
X-69000Y663000D02*
X58000D01*
X-100000Y1002000D02*
X55000D01*
X-109000Y2000D02*
X51000D01*
X120000Y1010000D02*
Y1080000D01*
X1100000Y1010000D02*
Y1210000D01*
X1260000Y1010000D02*
Y1140000D01*
X1470000Y1010000D02*
Y1080000D01*
X1797000Y951000D02*
Y1271000D01*
X-3000Y940000D02*
Y1260000D01*
D105*
X830188Y-72141D02*
X835266D01*
X832727D01*
Y-56906D01*
X830188Y-59446D01*
X853040Y-56906D02*
X847962Y-59446D01*
X842884Y-64524D01*
Y-69602D01*
X845423Y-72141D01*
X850501D01*
X853040Y-69602D01*
Y-67063D01*
X850501Y-64524D01*
X842884D01*
X858119Y-59446D02*
X860658Y-56906D01*
X865736D01*
X868276Y-59446D01*
Y-61985D01*
X865736Y-64524D01*
X868276Y-67063D01*
Y-69602D01*
X865736Y-72141D01*
X860658D01*
X858119Y-69602D01*
Y-67063D01*
X860658Y-64524D01*
X858119Y-61985D01*
Y-59446D01*
X860658Y-64524D02*
X865736D01*
X873354Y-72141D02*
Y-69602D01*
X875893D01*
Y-72141D01*
X873354D01*
X893667D02*
Y-56906D01*
X886050Y-64524D01*
X896206D01*
X921598Y-72141D02*
X916520Y-67063D01*
Y-61985D01*
X921598Y-56906D01*
X929216Y-72141D02*
Y-61985D01*
X931755D01*
X934294Y-64524D01*
Y-72141D01*
Y-64524D01*
X936833Y-61985D01*
X939372Y-64524D01*
Y-72141D01*
X944451D02*
Y-61985D01*
X946990D01*
X949529Y-64524D01*
Y-72141D01*
Y-64524D01*
X952068Y-61985D01*
X954607Y-64524D01*
Y-72141D01*
X959686D02*
X964764Y-67063D01*
Y-61985D01*
X959686Y-56906D01*
X-82858Y447153D02*
Y452232D01*
Y449692D01*
X-98094D01*
X-95554Y447153D01*
Y459849D02*
X-98094Y462388D01*
Y467467D01*
X-95554Y470006D01*
X-85398D01*
X-82858Y467467D01*
Y462388D01*
X-85398Y459849D01*
X-95554D01*
Y475084D02*
X-98094Y477623D01*
Y482702D01*
X-95554Y485241D01*
X-85398D01*
X-82858Y482702D01*
Y477623D01*
X-85398Y475084D01*
X-95554D01*
X-82858Y510633D02*
X-87937Y505554D01*
X-93015D01*
X-98094Y510633D01*
X-82858Y518250D02*
X-93015D01*
Y520789D01*
X-90476Y523329D01*
X-82858D01*
X-90476D01*
X-93015Y525868D01*
X-90476Y528407D01*
X-82858D01*
Y533485D02*
X-93015D01*
Y536025D01*
X-90476Y538564D01*
X-82858D01*
X-90476D01*
X-93015Y541103D01*
X-90476Y543642D01*
X-82858D01*
Y548720D02*
X-87937Y553799D01*
X-93015D01*
X-98094Y548720D01*
X-55093Y328658D02*
Y318501D01*
X-47476D01*
X-50015Y323579D01*
Y326119D01*
X-47476Y328658D01*
X-42398D01*
X-39859Y326119D01*
Y321040D01*
X-42398Y318501D01*
Y333736D02*
X-39859Y336275D01*
Y341354D01*
X-42398Y343893D01*
X-52554D01*
X-55093Y341354D01*
Y336275D01*
X-52554Y333736D01*
X-50015D01*
X-47476Y336275D01*
Y343893D01*
X-39859Y369285D02*
X-44937Y364206D01*
X-50015D01*
X-55093Y369285D01*
X-39859Y376902D02*
X-50015D01*
Y379441D01*
X-47476Y381981D01*
X-39859D01*
X-47476D01*
X-50015Y384520D01*
X-47476Y387059D01*
X-39859D01*
Y392137D02*
X-50015D01*
Y394677D01*
X-47476Y397216D01*
X-39859D01*
X-47476D01*
X-50015Y399755D01*
X-47476Y402294D01*
X-39859D01*
Y407372D02*
X-44937Y412451D01*
X-50015D01*
X-55093Y407372D01*
X12771Y1050859D02*
X17849D01*
X15310D01*
Y1066094D01*
X12771Y1063554D01*
X35623Y1050859D02*
X25467D01*
X35623Y1061015D01*
Y1063554D01*
X33084Y1066094D01*
X28006D01*
X25467Y1063554D01*
X61015Y1050859D02*
X55937Y1055937D01*
Y1061015D01*
X61015Y1066094D01*
X68633Y1050859D02*
Y1061015D01*
X71172D01*
X73711Y1058476D01*
Y1050859D01*
Y1058476D01*
X76250Y1061015D01*
X78789Y1058476D01*
Y1050859D01*
X83868D02*
Y1061015D01*
X86407D01*
X88946Y1058476D01*
Y1050859D01*
Y1058476D01*
X91485Y1061015D01*
X94024Y1058476D01*
Y1050859D01*
X99103D02*
X104181Y1055937D01*
Y1061015D01*
X99103Y1066094D01*
X1571036Y1063554D02*
X1573575Y1066094D01*
X1578653D01*
X1581192Y1063554D01*
Y1061015D01*
X1578653Y1058476D01*
X1576114D01*
X1578653D01*
X1581192Y1055937D01*
Y1053398D01*
X1578653Y1050859D01*
X1573575D01*
X1571036Y1053398D01*
X1596427Y1050859D02*
X1586271D01*
X1596427Y1061015D01*
Y1063554D01*
X1593888Y1066094D01*
X1588810D01*
X1586271Y1063554D01*
X1601506Y1050859D02*
Y1053398D01*
X1604045D01*
Y1050859D01*
X1601506D01*
X1614202Y1066094D02*
X1624359D01*
Y1063554D01*
X1614202Y1053398D01*
Y1050859D01*
X1649750D02*
X1644672Y1055937D01*
Y1061015D01*
X1649750Y1066094D01*
X1657368Y1050859D02*
Y1061015D01*
X1659907D01*
X1662446Y1058476D01*
Y1050859D01*
Y1058476D01*
X1664985Y1061015D01*
X1667525Y1058476D01*
Y1050859D01*
X1672603D02*
Y1061015D01*
X1675142D01*
X1677681Y1058476D01*
Y1050859D01*
Y1058476D01*
X1680220Y1061015D01*
X1682760Y1058476D01*
Y1050859D01*
X1687838D02*
X1692916Y1055937D01*
Y1061015D01*
X1687838Y1066094D01*
X1476192Y1126094D02*
X1466036D01*
Y1118476D01*
X1471114Y1121015D01*
X1473653D01*
X1476192Y1118476D01*
Y1113398D01*
X1473653Y1110859D01*
X1468575D01*
X1466036Y1113398D01*
X1481271Y1123554D02*
X1483810Y1126094D01*
X1488888D01*
X1491427Y1123554D01*
Y1121015D01*
X1488888Y1118476D01*
X1486349D01*
X1488888D01*
X1491427Y1115937D01*
Y1113398D01*
X1488888Y1110859D01*
X1483810D01*
X1481271Y1113398D01*
X1496506Y1110859D02*
Y1113398D01*
X1499045D01*
Y1110859D01*
X1496506D01*
X1509202Y1126094D02*
X1519359D01*
Y1123554D01*
X1509202Y1113398D01*
Y1110859D01*
X1544750D02*
X1539672Y1115937D01*
Y1121015D01*
X1544750Y1126094D01*
X1552368Y1110859D02*
Y1121015D01*
X1554907D01*
X1557446Y1118476D01*
Y1110859D01*
Y1118476D01*
X1559985Y1121015D01*
X1562525Y1118476D01*
Y1110859D01*
X1567603D02*
Y1121015D01*
X1570142D01*
X1572681Y1118476D01*
Y1110859D01*
Y1118476D01*
X1575220Y1121015D01*
X1577760Y1118476D01*
Y1110859D01*
X1582838D02*
X1587916Y1115937D01*
Y1121015D01*
X1582838Y1126094D01*
X1396192Y1196094D02*
X1391114Y1193554D01*
X1386036Y1188476D01*
Y1183398D01*
X1388575Y1180859D01*
X1393653D01*
X1396192Y1183398D01*
Y1185937D01*
X1393653Y1188476D01*
X1386036D01*
X1401271Y1183398D02*
X1403810Y1180859D01*
X1408888D01*
X1411427Y1183398D01*
Y1193554D01*
X1408888Y1196094D01*
X1403810D01*
X1401271Y1193554D01*
Y1191015D01*
X1403810Y1188476D01*
X1411427D01*
X1416506Y1180859D02*
Y1183398D01*
X1419045D01*
Y1180859D01*
X1416506D01*
X1429202Y1196094D02*
X1439359D01*
Y1193554D01*
X1429202Y1183398D01*
Y1180859D01*
X1464750D02*
X1459672Y1185937D01*
Y1191015D01*
X1464750Y1196094D01*
X1472368Y1180859D02*
Y1191015D01*
X1474907D01*
X1477446Y1188476D01*
Y1180859D01*
Y1188476D01*
X1479985Y1191015D01*
X1482525Y1188476D01*
Y1180859D01*
X1487603D02*
Y1191015D01*
X1490142D01*
X1492681Y1188476D01*
Y1180859D01*
Y1188476D01*
X1495220Y1191015D01*
X1497760Y1188476D01*
Y1180859D01*
X1502838D02*
X1507916Y1185937D01*
Y1191015D01*
X1502838Y1196094D01*
X842153Y1243858D02*
X847232D01*
X844692D01*
Y1259093D01*
X842153Y1256554D01*
X854849D02*
X857388Y1259093D01*
X862467D01*
X865006Y1256554D01*
Y1254015D01*
X862467Y1251476D01*
X865006Y1248937D01*
Y1246398D01*
X862467Y1243858D01*
X857388D01*
X854849Y1246398D01*
Y1248937D01*
X857388Y1251476D01*
X854849Y1254015D01*
Y1256554D01*
X857388Y1251476D02*
X862467D01*
X870084Y1256554D02*
X872623Y1259093D01*
X877702D01*
X880241Y1256554D01*
Y1246398D01*
X877702Y1243858D01*
X872623D01*
X870084Y1246398D01*
Y1256554D01*
X905633Y1243858D02*
X900554Y1248937D01*
Y1254015D01*
X905633Y1259093D01*
X913250Y1243858D02*
Y1254015D01*
X915789D01*
X918329Y1251476D01*
Y1243858D01*
Y1251476D01*
X920868Y1254015D01*
X923407Y1251476D01*
Y1243858D01*
X928485D02*
Y1254015D01*
X931024D01*
X933564Y1251476D01*
Y1243858D01*
Y1251476D01*
X936103Y1254015D01*
X938642Y1251476D01*
Y1243858D01*
X943720D02*
X948799Y1248937D01*
Y1254015D01*
X943720Y1259093D01*
M02*
