G04 Layer_Physical_Order=4*
G04 Layer_Color=16440176*
%FSLAX44Y44*%
%MOMM*%
G71*
G01*
G75*
%ADD70C,1.5200*%
%ADD76C,1.4224*%
%ADD82C,0.4500*%
%ADD83C,0.3000*%
G36*
X1785000Y956504D02*
X1785000Y45000D01*
X1755000Y15000D01*
X1321708Y15000D01*
X1321174Y16000D01*
X1321532Y16537D01*
X1321823Y18000D01*
X1321532Y19463D01*
X1320704Y20704D01*
X1319463Y21532D01*
X1318000Y21823D01*
X1316537Y21532D01*
X1315296Y20704D01*
X1314468Y19463D01*
X1314176Y18000D01*
X1314468Y16537D01*
X1314826Y16000D01*
X1314292Y15000D01*
X35000Y15000D01*
X35000Y60000D01*
X45613D01*
X47789Y58214D01*
X50655Y56682D01*
X53765Y55739D01*
X57000Y55420D01*
X60235Y55739D01*
X63345Y56682D01*
X66211Y58214D01*
X68387Y60000D01*
X810000Y60000D01*
Y44000D01*
X828000D01*
Y60000D01*
X955000D01*
X955000Y535000D01*
X1070000D01*
Y600000D01*
X1155000D01*
Y581185D01*
X1154618Y580613D01*
X1154327Y579150D01*
X1154618Y577687D01*
X1155000Y577115D01*
X1155000Y509999D01*
X1446250Y510001D01*
X1446250Y730000D01*
X1060000D01*
Y671709D01*
X1059000Y671406D01*
X1058494Y672163D01*
X1057253Y672992D01*
X1055790Y673283D01*
X1054327Y672992D01*
X1053086Y672163D01*
X1052258Y670923D01*
X1051967Y669460D01*
X1052258Y667997D01*
X1053086Y666756D01*
X1053641Y666386D01*
Y665183D01*
X1053296Y664954D01*
X1052468Y663713D01*
X1052177Y662250D01*
X1052468Y660787D01*
X1053296Y659546D01*
X1054537Y658718D01*
X1056000Y658427D01*
X1057463Y658718D01*
X1058704Y659546D01*
X1059000Y659990D01*
X1060000Y659687D01*
Y610000D01*
X1030000D01*
X1030000Y730000D01*
X375000Y730000D01*
Y436500D01*
X331840D01*
X331704Y436704D01*
X330463Y437532D01*
X329000Y437823D01*
X327537Y437532D01*
X326296Y436704D01*
X326160Y436500D01*
X311500D01*
X290000Y436500D01*
Y735000D01*
X290000Y745000D01*
Y915000D01*
X385000D01*
X385000Y880000D01*
X455000D01*
X455000Y770000D01*
X1375000Y770000D01*
Y845000D01*
X515000Y845000D01*
X515000Y925000D01*
X435000Y925000D01*
X435000Y976772D01*
X435947Y977094D01*
X436254Y976694D01*
X438212Y975191D01*
X440493Y974246D01*
X442940Y973924D01*
X445387Y974246D01*
X447668Y975191D01*
X449626Y976694D01*
X451129Y978652D01*
X452074Y980933D01*
X452396Y983380D01*
X452074Y985827D01*
X451129Y988108D01*
X450365Y989103D01*
X450808Y990000D01*
X1424078D01*
X1424633Y989168D01*
X1424284Y988326D01*
X1423972Y985950D01*
X1424284Y983574D01*
X1425201Y981361D01*
X1426660Y979460D01*
X1428561Y978001D01*
X1430775Y977084D01*
X1433150Y976771D01*
X1435526Y977084D01*
X1437739Y978001D01*
X1439640Y979460D01*
X1441099Y981361D01*
X1442016Y983574D01*
X1442328Y985950D01*
X1442016Y988326D01*
X1441667Y989168D01*
X1442222Y990000D01*
X1751504D01*
X1785000Y956504D01*
D02*
G37*
G36*
X427500Y915000D02*
X505000D01*
Y835000D01*
X1347455D01*
X1348276Y834000D01*
X1348177Y833500D01*
X1348468Y832037D01*
X1349296Y830796D01*
X1350537Y829968D01*
X1352000Y829677D01*
X1353463Y829968D01*
X1354704Y830796D01*
X1355532Y832037D01*
X1355823Y833500D01*
X1355724Y834000D01*
X1356545Y835000D01*
X1365000D01*
Y777500D01*
X1197086D01*
X1196836Y778500D01*
X1198211Y779235D01*
X1200724Y781297D01*
X1202786Y783809D01*
X1204318Y786676D01*
X1205261Y789786D01*
X1205580Y793021D01*
X1205261Y796255D01*
X1204318Y799365D01*
X1202786Y802232D01*
X1200724Y804744D01*
X1198211Y806806D01*
X1195345Y808338D01*
X1192234Y809282D01*
X1189000Y809601D01*
X1185765Y809282D01*
X1182655Y808338D01*
X1179789Y806806D01*
X1177276Y804744D01*
X1175214Y802232D01*
X1173682Y799365D01*
X1172739Y796255D01*
X1172420Y793021D01*
X1172739Y789786D01*
X1173682Y786676D01*
X1175214Y783809D01*
X1177276Y781297D01*
X1179789Y779235D01*
X1181164Y778500D01*
X1180913Y777500D01*
X619917D01*
X619559Y778500D01*
X621724Y780276D01*
X623786Y782789D01*
X625318Y785655D01*
X626261Y788765D01*
X626580Y792000D01*
X626261Y795235D01*
X625318Y798345D01*
X623786Y801211D01*
X621724Y803724D01*
X619211Y805786D01*
X616345Y807318D01*
X613235Y808261D01*
X610000Y808580D01*
X606765Y808261D01*
X603655Y807318D01*
X600789Y805786D01*
X598276Y803724D01*
X596214Y801211D01*
X594682Y798345D01*
X593739Y795235D01*
X593420Y792000D01*
X593739Y788765D01*
X594682Y785655D01*
X596214Y782789D01*
X598276Y780276D01*
X600441Y778500D01*
X600083Y777500D01*
X462500D01*
Y843405D01*
X462700Y843705D01*
X462991Y845168D01*
X462700Y846631D01*
X462500Y846931D01*
Y890000D01*
X434506D01*
X434384Y890167D01*
X434624Y891526D01*
X434984Y891766D01*
X435812Y893007D01*
X436103Y894470D01*
X435812Y895933D01*
X434984Y897174D01*
X433743Y898002D01*
X432280Y898293D01*
X430817Y898002D01*
X429576Y897174D01*
X428748Y895933D01*
X428457Y894470D01*
X428748Y893007D01*
X429576Y891766D01*
X429936Y891526D01*
X430176Y890167D01*
X430054Y890000D01*
X390000D01*
Y925000D01*
X374010D01*
X373213Y925532D01*
X371750Y925823D01*
X370287Y925532D01*
X369490Y925000D01*
X282500D01*
Y876091D01*
X281546Y875454D01*
X280718Y874213D01*
X280427Y872750D01*
X280718Y871287D01*
X281546Y870046D01*
X282500Y869409D01*
Y818430D01*
X281618Y817959D01*
X281373Y818122D01*
X279910Y818413D01*
X278447Y818122D01*
X277206Y817294D01*
X276378Y816053D01*
X276087Y814590D01*
X276378Y813127D01*
X277206Y811886D01*
X278447Y811058D01*
X279910Y810767D01*
X281373Y811058D01*
X281618Y811221D01*
X282500Y810750D01*
Y772500D01*
X225000D01*
Y890000D01*
X115792D01*
X113500Y890226D01*
X111208Y890000D01*
X100000D01*
Y882442D01*
X98971Y880518D01*
X98076Y877568D01*
X97774Y874500D01*
X98076Y871432D01*
X98971Y868482D01*
X100000Y866558D01*
Y255000D01*
X945000D01*
Y152708D01*
X944000Y152174D01*
X943463Y152532D01*
X942000Y152823D01*
X940537Y152532D01*
X939296Y151704D01*
X938468Y150463D01*
X938177Y149000D01*
X938468Y147537D01*
X939296Y146296D01*
X940537Y145468D01*
X942000Y145177D01*
X943463Y145468D01*
X944000Y145826D01*
X945000Y145292D01*
Y131708D01*
X944000Y131174D01*
X943463Y131532D01*
X942000Y131823D01*
X940537Y131532D01*
X939296Y130704D01*
X938468Y129463D01*
X938177Y128000D01*
X938468Y126537D01*
X939296Y125296D01*
X940537Y124468D01*
X942000Y124177D01*
X943463Y124468D01*
X944000Y124826D01*
X945000Y124292D01*
Y112708D01*
X944000Y112174D01*
X943463Y112532D01*
X942000Y112823D01*
X940537Y112532D01*
X939296Y111704D01*
X938468Y110463D01*
X938177Y109000D01*
X938468Y107537D01*
X939296Y106296D01*
X940537Y105468D01*
X942000Y105177D01*
X943463Y105468D01*
X944000Y105826D01*
X945000Y105292D01*
Y70000D01*
X824480D01*
X824140Y71000D01*
X825419Y71981D01*
X826861Y73861D01*
X827768Y76051D01*
X828078Y78400D01*
X827768Y80749D01*
X826861Y82939D01*
X825419Y84819D01*
X823539Y86261D01*
X821349Y87168D01*
X819000Y87478D01*
X816651Y87168D01*
X814461Y86261D01*
X812581Y84819D01*
X811139Y82939D01*
X810232Y80749D01*
X809922Y78400D01*
X810232Y76051D01*
X811139Y73861D01*
X812581Y71981D01*
X813860Y71000D01*
X813520Y70000D01*
X74127D01*
X73456Y70741D01*
X73580Y72000D01*
X73261Y75234D01*
X72318Y78345D01*
X70786Y81211D01*
X68724Y83724D01*
X66211Y85786D01*
X63345Y87318D01*
X60235Y88261D01*
X57000Y88580D01*
X53765Y88261D01*
X50655Y87318D01*
X47789Y85786D01*
X45276Y83724D01*
X43214Y81211D01*
X41682Y78345D01*
X40739Y75234D01*
X40420Y72000D01*
X40544Y70741D01*
X39873Y70000D01*
X32500D01*
Y992500D01*
X109607D01*
X109806Y991500D01*
X107196Y990419D01*
X104585Y988415D01*
X102581Y985804D01*
X101322Y982763D01*
X100892Y979500D01*
X101322Y976237D01*
X102581Y973196D01*
X104585Y970585D01*
X107196Y968581D01*
X110237Y967322D01*
X113500Y966892D01*
X116763Y967322D01*
X119804Y968581D01*
X122415Y970585D01*
X124419Y973196D01*
X125678Y976237D01*
X126108Y979500D01*
X125678Y982763D01*
X124419Y985804D01*
X122415Y988415D01*
X119804Y990419D01*
X117194Y991500D01*
X117393Y992500D01*
X284437D01*
X284740Y991500D01*
X284296Y991204D01*
X283468Y989963D01*
X283176Y988500D01*
X283468Y987037D01*
X284296Y985796D01*
X285537Y984968D01*
X287000Y984677D01*
X288463Y984968D01*
X289704Y985796D01*
X290532Y987037D01*
X290823Y988500D01*
X290532Y989963D01*
X289704Y991204D01*
X289260Y991500D01*
X289563Y992500D01*
X311811D01*
X312114Y991500D01*
X311296Y990954D01*
X310468Y989713D01*
X310177Y988250D01*
X310468Y986787D01*
X311296Y985546D01*
X312537Y984718D01*
X314000Y984426D01*
X315463Y984718D01*
X316704Y985546D01*
X317532Y986787D01*
X317823Y988250D01*
X317532Y989713D01*
X316704Y990954D01*
X315886Y991500D01*
X316189Y992500D01*
X339437D01*
X339740Y991500D01*
X339296Y991204D01*
X338468Y989963D01*
X338176Y988500D01*
X338468Y987037D01*
X339296Y985796D01*
X340537Y984968D01*
X342000Y984677D01*
X343463Y984968D01*
X344704Y985796D01*
X345532Y987037D01*
X345823Y988500D01*
X345532Y989963D01*
X344704Y991204D01*
X344260Y991500D01*
X344563Y992500D01*
X393027D01*
X393119Y992035D01*
X393122Y991500D01*
X391254Y990066D01*
X389751Y988108D01*
X388806Y985827D01*
X388484Y983380D01*
X388806Y980933D01*
X389751Y978652D01*
X391254Y976694D01*
X393212Y975191D01*
X395493Y974246D01*
X397940Y973924D01*
X400387Y974246D01*
X402668Y975191D01*
X404626Y976694D01*
X406129Y978652D01*
X407074Y980933D01*
X407396Y983380D01*
X407074Y985827D01*
X406129Y988108D01*
X404626Y990066D01*
X402758Y991500D01*
X402761Y992035D01*
X402853Y992500D01*
X427500D01*
Y915000D01*
D02*
G37*
G36*
X215000Y853388D02*
X214000Y852845D01*
X212750Y853093D01*
X211287Y852802D01*
X210046Y851973D01*
X209218Y850733D01*
X208927Y849270D01*
X209218Y847807D01*
X210046Y846566D01*
X211287Y845738D01*
X212750Y845446D01*
X214000Y845695D01*
X215000Y845152D01*
Y779452D01*
X214000Y778674D01*
X213250Y778823D01*
X211787Y778532D01*
X210546Y777703D01*
X209718Y776463D01*
X209426Y775000D01*
X209718Y773537D01*
X210546Y772296D01*
X211787Y771468D01*
X213250Y771177D01*
X214000Y771326D01*
X215000Y770548D01*
Y765000D01*
X278693D01*
X279076Y764076D01*
X279000Y764000D01*
Y431500D01*
Y429000D01*
X280000Y430000D01*
X385000Y430000D01*
X385000Y720000D01*
X1020000Y720000D01*
Y600000D01*
X1060000D01*
Y548624D01*
X1059537Y548532D01*
X1058296Y547704D01*
X1057468Y546463D01*
X1057177Y545000D01*
X1056177Y545000D01*
X945000Y545000D01*
Y265000D01*
X110000Y265000D01*
Y858260D01*
X111000Y859020D01*
X113500Y858774D01*
X116568Y859077D01*
X119518Y859971D01*
X122237Y861425D01*
X124620Y863380D01*
X126575Y865763D01*
X128029Y868482D01*
X128924Y871432D01*
X129226Y874500D01*
X128924Y877568D01*
X128429Y879197D01*
X129025Y880000D01*
X215000D01*
Y853388D01*
D02*
G37*
G36*
X1435000Y680008D02*
X1433796Y679204D01*
X1432968Y677963D01*
X1432677Y676500D01*
X1432968Y675037D01*
X1433796Y673796D01*
X1434296Y673462D01*
Y673204D01*
X1433468Y671963D01*
X1433177Y670500D01*
X1433468Y669037D01*
X1434130Y668045D01*
X1434232Y667375D01*
X1434130Y666705D01*
X1433468Y665713D01*
X1433177Y664250D01*
X1433468Y662787D01*
X1434296Y661546D01*
X1435000Y661076D01*
Y655674D01*
X1434296Y655204D01*
X1433468Y653963D01*
X1433177Y652500D01*
X1433468Y651037D01*
X1434296Y649796D01*
Y649204D01*
X1433468Y647963D01*
X1433177Y646500D01*
X1433468Y645037D01*
X1433893Y644399D01*
X1433796Y643204D01*
X1432968Y641963D01*
X1432677Y640500D01*
X1432968Y639037D01*
X1433796Y637797D01*
X1433860Y636551D01*
X1433468Y635963D01*
X1433177Y634500D01*
X1433468Y633037D01*
X1434296Y631796D01*
Y631204D01*
X1433468Y629963D01*
X1433177Y628500D01*
X1433468Y627037D01*
X1433860Y626449D01*
X1433796Y625204D01*
X1432968Y623963D01*
X1432677Y622500D01*
X1432968Y621037D01*
X1433796Y619796D01*
X1435000Y618992D01*
Y608008D01*
X1433796Y607204D01*
X1432968Y605963D01*
X1432677Y604500D01*
X1432968Y603037D01*
X1433796Y601796D01*
X1435000Y600992D01*
Y590323D01*
X1435000Y590323D01*
X1433537Y590032D01*
X1432296Y589204D01*
X1431468Y587963D01*
X1431177Y586500D01*
X1431468Y585037D01*
X1432296Y583796D01*
X1433537Y582968D01*
X1435000Y582677D01*
X1435000Y582677D01*
Y537045D01*
X1434000Y536224D01*
X1433500Y536323D01*
X1432037Y536032D01*
X1430796Y535204D01*
X1429968Y533963D01*
X1429677Y532500D01*
X1429968Y531037D01*
X1430796Y529796D01*
X1432037Y528968D01*
X1433500Y528677D01*
X1434000Y528776D01*
X1435000Y527955D01*
Y520000D01*
X1353840D01*
X1353704Y520204D01*
X1352463Y521032D01*
X1351000Y521323D01*
X1349537Y521032D01*
X1348296Y520204D01*
X1348160Y520000D01*
X1169535Y520000D01*
X1168875Y521000D01*
X1169073Y522000D01*
X1168782Y523463D01*
X1167954Y524704D01*
X1166713Y525532D01*
X1165250Y525823D01*
X1165000Y526029D01*
X1165000Y610000D01*
X1070000Y610000D01*
X1070000Y720000D01*
X1363518D01*
X1364073Y719168D01*
X1363860Y718655D01*
X1363379Y715000D01*
X1363860Y711345D01*
X1365271Y707940D01*
X1367515Y705015D01*
X1370440Y702771D01*
X1373845Y701360D01*
X1377500Y700879D01*
X1381155Y701360D01*
X1384560Y702771D01*
X1387485Y705015D01*
X1389729Y707940D01*
X1391140Y711345D01*
X1391621Y715000D01*
X1391140Y718655D01*
X1390927Y719168D01*
X1391482Y720000D01*
X1435000D01*
Y680008D01*
D02*
G37*
%LPC*%
G36*
X605000Y986323D02*
X603537Y986032D01*
X602296Y985203D01*
X601468Y983963D01*
X601177Y982500D01*
X601468Y981037D01*
X602296Y979796D01*
X603537Y978968D01*
X605000Y978677D01*
X606463Y978968D01*
X607704Y979796D01*
X608532Y981037D01*
X608824Y982500D01*
X608532Y983963D01*
X607704Y985203D01*
X606463Y986032D01*
X605000Y986323D01*
D02*
G37*
G36*
X627000Y985823D02*
X625537Y985532D01*
X624296Y984704D01*
X623468Y983463D01*
X623177Y982000D01*
X623468Y980537D01*
X624296Y979296D01*
X625537Y978468D01*
X627000Y978177D01*
X628463Y978468D01*
X629704Y979296D01*
X630532Y980537D01*
X630824Y982000D01*
X630532Y983463D01*
X629704Y984704D01*
X628463Y985532D01*
X627000Y985823D01*
D02*
G37*
G36*
X686000Y984573D02*
X684537Y984282D01*
X683296Y983454D01*
X682468Y982213D01*
X682177Y980750D01*
X682468Y979287D01*
X683296Y978046D01*
X684537Y977218D01*
X686000Y976926D01*
X687463Y977218D01*
X688704Y978046D01*
X689532Y979287D01*
X689824Y980750D01*
X689532Y982213D01*
X688704Y983454D01*
X687463Y984282D01*
X686000Y984573D01*
D02*
G37*
G36*
X708000Y984324D02*
X706537Y984032D01*
X705296Y983204D01*
X704468Y981963D01*
X704177Y980500D01*
X704468Y979037D01*
X705296Y977796D01*
X706537Y976968D01*
X708000Y976677D01*
X709463Y976968D01*
X710704Y977796D01*
X711532Y979037D01*
X711824Y980500D01*
X711532Y981963D01*
X710704Y983204D01*
X709463Y984032D01*
X708000Y984324D01*
D02*
G37*
G36*
X737000Y973818D02*
X735439Y973508D01*
X734116Y972624D01*
X733232Y971301D01*
X732922Y969740D01*
X733232Y968179D01*
X734116Y966856D01*
X735439Y965972D01*
X737000Y965662D01*
X738561Y965972D01*
X739884Y966856D01*
X740768Y968179D01*
X741078Y969740D01*
X740768Y971301D01*
X739884Y972624D01*
X738561Y973508D01*
X737000Y973818D01*
D02*
G37*
G36*
X656000D02*
X654439Y973508D01*
X653116Y972624D01*
X652232Y971301D01*
X651922Y969740D01*
X652232Y968179D01*
X653116Y966856D01*
X654439Y965972D01*
X656000Y965662D01*
X657561Y965972D01*
X658884Y966856D01*
X659768Y968179D01*
X660078Y969740D01*
X659768Y971301D01*
X658884Y972624D01*
X657561Y973508D01*
X656000Y973818D01*
D02*
G37*
G36*
X1508850Y979929D02*
X1506474Y979616D01*
X1504261Y978699D01*
X1502360Y977240D01*
X1500901Y975339D01*
X1499984Y973126D01*
X1499671Y970750D01*
X1499984Y968374D01*
X1500901Y966161D01*
X1502360Y964260D01*
X1504261Y962801D01*
X1506474Y961884D01*
X1508850Y961572D01*
X1511226Y961884D01*
X1513439Y962801D01*
X1515340Y964260D01*
X1516799Y966161D01*
X1517716Y968374D01*
X1518029Y970750D01*
X1517716Y973126D01*
X1516799Y975339D01*
X1515340Y977240D01*
X1513439Y978699D01*
X1511226Y979616D01*
X1508850Y979929D01*
D02*
G37*
G36*
X720780Y961043D02*
X719317Y960752D01*
X718076Y959924D01*
X717248Y958683D01*
X716957Y957220D01*
X717248Y955757D01*
X718076Y954516D01*
X719317Y953688D01*
X720780Y953397D01*
X722243Y953688D01*
X723484Y954516D01*
X724312Y955757D01*
X724604Y957220D01*
X724312Y958683D01*
X723484Y959924D01*
X722243Y960752D01*
X720780Y961043D01*
D02*
G37*
G36*
X639780D02*
X638317Y960752D01*
X637076Y959924D01*
X636248Y958683D01*
X635957Y957220D01*
X636248Y955757D01*
X637076Y954516D01*
X638317Y953688D01*
X639780Y953397D01*
X641243Y953688D01*
X642484Y954516D01*
X643312Y955757D01*
X643604Y957220D01*
X643312Y958683D01*
X642484Y959924D01*
X641243Y960752D01*
X639780Y961043D01*
D02*
G37*
G36*
X455440Y971618D02*
X452014Y971167D01*
X448821Y969845D01*
X446079Y967741D01*
X443975Y964999D01*
X442653Y961806D01*
X442202Y958380D01*
X442653Y954954D01*
X443975Y951761D01*
X446079Y949019D01*
X448821Y946915D01*
X452014Y945593D01*
X455440Y945142D01*
X458866Y945593D01*
X462059Y946915D01*
X464801Y949019D01*
X466905Y951761D01*
X468227Y954954D01*
X468678Y958380D01*
X468227Y961806D01*
X466905Y964999D01*
X464801Y967741D01*
X462059Y969845D01*
X458866Y971167D01*
X455440Y971618D01*
D02*
G37*
G36*
X746000Y946573D02*
X744537Y946282D01*
X743296Y945454D01*
X742468Y944213D01*
X742177Y942750D01*
X742468Y941287D01*
X743296Y940046D01*
X744537Y939218D01*
X746000Y938927D01*
X747463Y939218D01*
X748704Y940046D01*
X749532Y941287D01*
X749823Y942750D01*
X749532Y944213D01*
X748704Y945454D01*
X747463Y946282D01*
X746000Y946573D01*
D02*
G37*
G36*
X665000Y946073D02*
X663537Y945782D01*
X662296Y944954D01*
X661468Y943713D01*
X661177Y942250D01*
X661468Y940787D01*
X662296Y939546D01*
X663537Y938718D01*
X665000Y938427D01*
X666463Y938718D01*
X667704Y939546D01*
X668532Y940787D01*
X668823Y942250D01*
X668532Y943713D01*
X667704Y944954D01*
X666463Y945782D01*
X665000Y946073D01*
D02*
G37*
G36*
X1329250Y953966D02*
X1325752Y953505D01*
X1322492Y952155D01*
X1319693Y950007D01*
X1317545Y947208D01*
X1316195Y943948D01*
X1315734Y940450D01*
X1316195Y936952D01*
X1317545Y933692D01*
X1319693Y930893D01*
X1322492Y928745D01*
X1325752Y927395D01*
X1329250Y926934D01*
X1332748Y927395D01*
X1336008Y928745D01*
X1338807Y930893D01*
X1340955Y933692D01*
X1342305Y936952D01*
X1342766Y940450D01*
X1342305Y943948D01*
X1340955Y947208D01*
X1338807Y950007D01*
X1336008Y952155D01*
X1332748Y953505D01*
X1329250Y953966D01*
D02*
G37*
G36*
X1197850D02*
X1194352Y953505D01*
X1191092Y952155D01*
X1188293Y950007D01*
X1186145Y947208D01*
X1184795Y943948D01*
X1184334Y940450D01*
X1184795Y936952D01*
X1186145Y933692D01*
X1188293Y930893D01*
X1191092Y928745D01*
X1194352Y927395D01*
X1197850Y926934D01*
X1201348Y927395D01*
X1204608Y928745D01*
X1207407Y930893D01*
X1209555Y933692D01*
X1210905Y936952D01*
X1211366Y940450D01*
X1210905Y943948D01*
X1209555Y947208D01*
X1207407Y950007D01*
X1204608Y952155D01*
X1201348Y953505D01*
X1197850Y953966D01*
D02*
G37*
G36*
X1161250D02*
X1157752Y953505D01*
X1154492Y952155D01*
X1151693Y950007D01*
X1149545Y947208D01*
X1148195Y943948D01*
X1147734Y940450D01*
X1148195Y936952D01*
X1149545Y933692D01*
X1151693Y930893D01*
X1154492Y928745D01*
X1157752Y927395D01*
X1161250Y926934D01*
X1164748Y927395D01*
X1168008Y928745D01*
X1170807Y930893D01*
X1172955Y933692D01*
X1174305Y936952D01*
X1174766Y940450D01*
X1174305Y943948D01*
X1172955Y947208D01*
X1170807Y950007D01*
X1168008Y952155D01*
X1164748Y953505D01*
X1161250Y953966D01*
D02*
G37*
G36*
X1029850D02*
X1026352Y953505D01*
X1023092Y952155D01*
X1020293Y950007D01*
X1018145Y947208D01*
X1016795Y943948D01*
X1016334Y940450D01*
X1016795Y936952D01*
X1018145Y933692D01*
X1020293Y930893D01*
X1023092Y928745D01*
X1026352Y927395D01*
X1029850Y926934D01*
X1033348Y927395D01*
X1036608Y928745D01*
X1039407Y930893D01*
X1041555Y933692D01*
X1042905Y936952D01*
X1043366Y940450D01*
X1042905Y943948D01*
X1041555Y947208D01*
X1039407Y950007D01*
X1036608Y952155D01*
X1033348Y953505D01*
X1029850Y953966D01*
D02*
G37*
G36*
X1700500Y934573D02*
X1699037Y934282D01*
X1697796Y933454D01*
X1696968Y932213D01*
X1696677Y930750D01*
X1696968Y929287D01*
X1697796Y928046D01*
X1699037Y927218D01*
X1700500Y926927D01*
X1701963Y927218D01*
X1703204Y928046D01*
X1704032Y929287D01*
X1704323Y930750D01*
X1704032Y932213D01*
X1703204Y933454D01*
X1701963Y934282D01*
X1700500Y934573D01*
D02*
G37*
G36*
X1528150Y954786D02*
X1524670Y954443D01*
X1521324Y953428D01*
X1518241Y951780D01*
X1515538Y949562D01*
X1513320Y946859D01*
X1511672Y943775D01*
X1510657Y940430D01*
X1510314Y936950D01*
X1510657Y933470D01*
X1511672Y930125D01*
X1513320Y927041D01*
X1515538Y924338D01*
X1518241Y922120D01*
X1521324Y920472D01*
X1524670Y919457D01*
X1528150Y919114D01*
X1531630Y919457D01*
X1534975Y920472D01*
X1538059Y922120D01*
X1540762Y924338D01*
X1542980Y927041D01*
X1544628Y930125D01*
X1545643Y933470D01*
X1545986Y936950D01*
X1545643Y940430D01*
X1544628Y943775D01*
X1542980Y946859D01*
X1540762Y949562D01*
X1538059Y951780D01*
X1534975Y953428D01*
X1531630Y954443D01*
X1528150Y954786D01*
D02*
G37*
G36*
X1413850D02*
X1410370Y954443D01*
X1407025Y953428D01*
X1403941Y951780D01*
X1401238Y949562D01*
X1399020Y946859D01*
X1397372Y943775D01*
X1396357Y940430D01*
X1396014Y936950D01*
X1396357Y933470D01*
X1397372Y930125D01*
X1399020Y927041D01*
X1401238Y924338D01*
X1403941Y922120D01*
X1407025Y920472D01*
X1410370Y919457D01*
X1413850Y919114D01*
X1417330Y919457D01*
X1420676Y920472D01*
X1423759Y922120D01*
X1426462Y924338D01*
X1428680Y927041D01*
X1430328Y930125D01*
X1431343Y933470D01*
X1431686Y936950D01*
X1431343Y940430D01*
X1430328Y943775D01*
X1428680Y946859D01*
X1426462Y949562D01*
X1423759Y951780D01*
X1420676Y953428D01*
X1417330Y954443D01*
X1413850Y954786D01*
D02*
G37*
G36*
X1672530Y914793D02*
X1671067Y914502D01*
X1669826Y913674D01*
X1668998Y912433D01*
X1668707Y910970D01*
X1668998Y909507D01*
X1669826Y908266D01*
X1671067Y907438D01*
X1672530Y907147D01*
X1673993Y907438D01*
X1675234Y908266D01*
X1676062Y909507D01*
X1676353Y910970D01*
X1676062Y912433D01*
X1675234Y913674D01*
X1673993Y914502D01*
X1672530Y914793D01*
D02*
G37*
G36*
X1694530Y914793D02*
X1693067Y914502D01*
X1691826Y913674D01*
X1690998Y912433D01*
X1690707Y910970D01*
X1690998Y909507D01*
X1691826Y908266D01*
X1693067Y907438D01*
X1694530Y907147D01*
X1695993Y907438D01*
X1697234Y908266D01*
X1698062Y909507D01*
X1698353Y910970D01*
X1698062Y912433D01*
X1697234Y913674D01*
X1695993Y914502D01*
X1694530Y914793D01*
D02*
G37*
G36*
X684398Y914675D02*
X682935Y914384D01*
X681694Y913556D01*
X680866Y912315D01*
X680575Y910852D01*
X680866Y909389D01*
X681694Y908148D01*
X682935Y907320D01*
X684398Y907029D01*
X685861Y907320D01*
X687102Y908148D01*
X687930Y909389D01*
X688222Y910852D01*
X687930Y912315D01*
X687102Y913556D01*
X685861Y914384D01*
X684398Y914675D01*
D02*
G37*
G36*
X1298550Y922328D02*
X1296201Y922018D01*
X1294011Y921111D01*
X1292131Y919669D01*
X1290689Y917789D01*
X1289782Y915600D01*
X1289472Y913250D01*
X1289782Y910900D01*
X1290689Y908711D01*
X1292131Y906831D01*
X1294011Y905388D01*
X1296201Y904482D01*
X1298550Y904172D01*
X1300900Y904482D01*
X1303089Y905388D01*
X1304969Y906831D01*
X1306411Y908711D01*
X1307318Y910900D01*
X1307628Y913250D01*
X1307318Y915600D01*
X1306411Y917789D01*
X1304969Y919669D01*
X1303089Y921111D01*
X1300900Y922018D01*
X1298550Y922328D01*
D02*
G37*
G36*
X1273550D02*
X1271200Y922018D01*
X1269011Y921111D01*
X1267131Y919669D01*
X1265689Y917789D01*
X1264782Y915600D01*
X1264472Y913250D01*
X1264782Y910900D01*
X1265689Y908711D01*
X1267131Y906831D01*
X1269011Y905388D01*
X1271200Y904482D01*
X1273550Y904172D01*
X1275900Y904482D01*
X1278089Y905388D01*
X1279969Y906831D01*
X1281411Y908711D01*
X1282318Y910900D01*
X1282628Y913250D01*
X1282318Y915600D01*
X1281411Y917789D01*
X1279969Y919669D01*
X1278089Y921111D01*
X1275900Y922018D01*
X1273550Y922328D01*
D02*
G37*
G36*
X1253550D02*
X1251200Y922018D01*
X1249011Y921111D01*
X1247131Y919669D01*
X1245688Y917789D01*
X1244782Y915600D01*
X1244472Y913250D01*
X1244782Y910900D01*
X1245688Y908711D01*
X1247131Y906831D01*
X1249011Y905388D01*
X1251200Y904482D01*
X1253550Y904172D01*
X1255900Y904482D01*
X1258089Y905388D01*
X1259969Y906831D01*
X1261411Y908711D01*
X1262318Y910900D01*
X1262628Y913250D01*
X1262318Y915600D01*
X1261411Y917789D01*
X1259969Y919669D01*
X1258089Y921111D01*
X1255900Y922018D01*
X1253550Y922328D01*
D02*
G37*
G36*
X1228550D02*
X1226200Y922018D01*
X1224011Y921111D01*
X1222131Y919669D01*
X1220688Y917789D01*
X1219782Y915600D01*
X1219472Y913250D01*
X1219782Y910900D01*
X1220688Y908711D01*
X1222131Y906831D01*
X1224011Y905388D01*
X1226200Y904482D01*
X1228550Y904172D01*
X1230900Y904482D01*
X1233089Y905388D01*
X1234969Y906831D01*
X1236411Y908711D01*
X1237318Y910900D01*
X1237628Y913250D01*
X1237318Y915600D01*
X1236411Y917789D01*
X1234969Y919669D01*
X1233089Y921111D01*
X1230900Y922018D01*
X1228550Y922328D01*
D02*
G37*
G36*
X1130550D02*
X1128201Y922018D01*
X1126011Y921111D01*
X1124131Y919669D01*
X1122689Y917789D01*
X1121782Y915600D01*
X1121472Y913250D01*
X1121782Y910900D01*
X1122689Y908711D01*
X1124131Y906831D01*
X1126011Y905388D01*
X1128201Y904482D01*
X1130550Y904172D01*
X1132899Y904482D01*
X1135089Y905388D01*
X1136969Y906831D01*
X1138411Y908711D01*
X1139318Y910900D01*
X1139628Y913250D01*
X1139318Y915600D01*
X1138411Y917789D01*
X1136969Y919669D01*
X1135089Y921111D01*
X1132899Y922018D01*
X1130550Y922328D01*
D02*
G37*
G36*
X1105550D02*
X1103201Y922018D01*
X1101011Y921111D01*
X1099131Y919669D01*
X1097689Y917789D01*
X1096782Y915600D01*
X1096472Y913250D01*
X1096782Y910900D01*
X1097689Y908711D01*
X1099131Y906831D01*
X1101011Y905388D01*
X1103201Y904482D01*
X1105550Y904172D01*
X1107899Y904482D01*
X1110089Y905388D01*
X1111969Y906831D01*
X1113411Y908711D01*
X1114318Y910900D01*
X1114628Y913250D01*
X1114318Y915600D01*
X1113411Y917789D01*
X1111969Y919669D01*
X1110089Y921111D01*
X1107899Y922018D01*
X1105550Y922328D01*
D02*
G37*
G36*
X1085550D02*
X1083201Y922018D01*
X1081011Y921111D01*
X1079131Y919669D01*
X1077689Y917789D01*
X1076782Y915600D01*
X1076472Y913250D01*
X1076782Y910900D01*
X1077689Y908711D01*
X1079131Y906831D01*
X1081011Y905388D01*
X1083201Y904482D01*
X1085550Y904172D01*
X1087899Y904482D01*
X1090089Y905388D01*
X1091969Y906831D01*
X1093411Y908711D01*
X1094318Y910900D01*
X1094628Y913250D01*
X1094318Y915600D01*
X1093411Y917789D01*
X1091969Y919669D01*
X1090089Y921111D01*
X1087899Y922018D01*
X1085550Y922328D01*
D02*
G37*
G36*
X1060550D02*
X1058201Y922018D01*
X1056011Y921111D01*
X1054131Y919669D01*
X1052689Y917789D01*
X1051782Y915600D01*
X1051472Y913250D01*
X1051782Y910900D01*
X1052689Y908711D01*
X1054131Y906831D01*
X1056011Y905388D01*
X1058201Y904482D01*
X1060550Y904172D01*
X1062899Y904482D01*
X1065089Y905388D01*
X1066969Y906831D01*
X1068411Y908711D01*
X1069318Y910900D01*
X1069628Y913250D01*
X1069318Y915600D01*
X1068411Y917789D01*
X1066969Y919669D01*
X1065089Y921111D01*
X1062899Y922018D01*
X1060550Y922328D01*
D02*
G37*
G36*
X1622500Y911323D02*
X1621037Y911032D01*
X1619796Y910204D01*
X1618968Y908963D01*
X1618677Y907500D01*
X1618968Y906037D01*
X1619796Y904796D01*
X1621037Y903968D01*
X1622500Y903677D01*
X1623963Y903968D01*
X1625204Y904796D01*
X1626032Y906037D01*
X1626323Y907500D01*
X1626032Y908963D01*
X1625204Y910204D01*
X1623963Y911032D01*
X1622500Y911323D01*
D02*
G37*
G36*
X1549750Y920067D02*
X1546226Y919603D01*
X1542942Y918242D01*
X1540122Y916078D01*
X1537958Y913258D01*
X1536597Y909974D01*
X1536134Y906450D01*
X1536597Y902926D01*
X1537958Y899642D01*
X1540122Y896822D01*
X1542942Y894658D01*
X1546226Y893298D01*
X1549750Y892833D01*
X1553274Y893298D01*
X1556558Y894658D01*
X1559378Y896822D01*
X1561542Y899642D01*
X1562903Y902926D01*
X1563367Y906450D01*
X1562903Y909974D01*
X1561542Y913258D01*
X1559378Y916078D01*
X1556558Y918242D01*
X1553274Y919603D01*
X1549750Y920067D01*
D02*
G37*
G36*
X1392250D02*
X1388726Y919603D01*
X1385442Y918242D01*
X1382622Y916078D01*
X1380458Y913258D01*
X1379097Y909974D01*
X1378634Y906450D01*
X1379097Y902926D01*
X1380458Y899642D01*
X1382622Y896822D01*
X1385442Y894658D01*
X1388726Y893298D01*
X1392250Y892833D01*
X1395774Y893298D01*
X1399058Y894658D01*
X1401878Y896822D01*
X1404042Y899642D01*
X1405403Y902926D01*
X1405867Y906450D01*
X1405403Y909974D01*
X1404042Y913258D01*
X1401878Y916078D01*
X1399058Y918242D01*
X1395774Y919603D01*
X1392250Y920067D01*
D02*
G37*
G36*
X1761680Y896323D02*
X1760217Y896032D01*
X1758976Y895204D01*
X1758148Y893963D01*
X1757857Y892500D01*
X1758148Y891037D01*
X1758976Y889796D01*
X1760217Y888968D01*
X1761680Y888677D01*
X1763143Y888968D01*
X1764384Y889796D01*
X1765212Y891037D01*
X1765503Y892500D01*
X1765212Y893963D01*
X1764384Y895204D01*
X1763143Y896032D01*
X1761680Y896323D01*
D02*
G37*
G36*
X349750Y893823D02*
X348287Y893532D01*
X347047Y892703D01*
X346218Y891463D01*
X345927Y890000D01*
X346218Y888537D01*
X347047Y887296D01*
X348287Y886468D01*
X349750Y886177D01*
X351213Y886468D01*
X352454Y887296D01*
X353283Y888537D01*
X353573Y890000D01*
X353283Y891463D01*
X352454Y892703D01*
X351213Y893532D01*
X349750Y893823D01*
D02*
G37*
G36*
X1749530Y889103D02*
X1748067Y888812D01*
X1746826Y887984D01*
X1745998Y886743D01*
X1745707Y885280D01*
X1745998Y883817D01*
X1746826Y882576D01*
X1748067Y881748D01*
X1749530Y881457D01*
X1750993Y881748D01*
X1752234Y882576D01*
X1753062Y883817D01*
X1753353Y885280D01*
X1753062Y886743D01*
X1752234Y887984D01*
X1750993Y888812D01*
X1749530Y889103D01*
D02*
G37*
G36*
X1738530Y888853D02*
X1737067Y888562D01*
X1735826Y887734D01*
X1734998Y886493D01*
X1734707Y885030D01*
X1734998Y883567D01*
X1735826Y882326D01*
X1737067Y881498D01*
X1738530Y881207D01*
X1739993Y881498D01*
X1741234Y882326D01*
X1742062Y883567D01*
X1742353Y885030D01*
X1742062Y886493D01*
X1741234Y887734D01*
X1739993Y888562D01*
X1738530Y888853D01*
D02*
G37*
G36*
X1716530D02*
X1715067Y888562D01*
X1713826Y887734D01*
X1712998Y886493D01*
X1712707Y885030D01*
X1712998Y883567D01*
X1713826Y882326D01*
X1715067Y881498D01*
X1716530Y881207D01*
X1717993Y881498D01*
X1719234Y882326D01*
X1720062Y883567D01*
X1720353Y885030D01*
X1720062Y886493D01*
X1719234Y887734D01*
X1717993Y888562D01*
X1716530Y888853D01*
D02*
G37*
G36*
X1298550Y896228D02*
X1296201Y895918D01*
X1294011Y895011D01*
X1292131Y893569D01*
X1290689Y891689D01*
X1289782Y889500D01*
X1289472Y887150D01*
X1289782Y884800D01*
X1290689Y882611D01*
X1292131Y880731D01*
X1294011Y879288D01*
X1296201Y878382D01*
X1298550Y878072D01*
X1300900Y878382D01*
X1303089Y879288D01*
X1304969Y880731D01*
X1306411Y882611D01*
X1307318Y884800D01*
X1307628Y887150D01*
X1307318Y889500D01*
X1306411Y891689D01*
X1304969Y893569D01*
X1303089Y895011D01*
X1300900Y895918D01*
X1298550Y896228D01*
D02*
G37*
G36*
X1273550D02*
X1271200Y895918D01*
X1269011Y895011D01*
X1267131Y893569D01*
X1265689Y891689D01*
X1264782Y889500D01*
X1264472Y887150D01*
X1264782Y884800D01*
X1265689Y882611D01*
X1267131Y880731D01*
X1269011Y879288D01*
X1271200Y878382D01*
X1273550Y878072D01*
X1275900Y878382D01*
X1278089Y879288D01*
X1279969Y880731D01*
X1281411Y882611D01*
X1282318Y884800D01*
X1282628Y887150D01*
X1282318Y889500D01*
X1281411Y891689D01*
X1279969Y893569D01*
X1278089Y895011D01*
X1275900Y895918D01*
X1273550Y896228D01*
D02*
G37*
G36*
X1253550D02*
X1251200Y895918D01*
X1249011Y895011D01*
X1247131Y893569D01*
X1245688Y891689D01*
X1244782Y889500D01*
X1244472Y887150D01*
X1244782Y884800D01*
X1245688Y882611D01*
X1247131Y880731D01*
X1249011Y879288D01*
X1251200Y878382D01*
X1253550Y878072D01*
X1255900Y878382D01*
X1258089Y879288D01*
X1259969Y880731D01*
X1261411Y882611D01*
X1262318Y884800D01*
X1262628Y887150D01*
X1262318Y889500D01*
X1261411Y891689D01*
X1259969Y893569D01*
X1258089Y895011D01*
X1255900Y895918D01*
X1253550Y896228D01*
D02*
G37*
G36*
X1228550D02*
X1226200Y895918D01*
X1224011Y895011D01*
X1222131Y893569D01*
X1220688Y891689D01*
X1219782Y889500D01*
X1219472Y887150D01*
X1219782Y884800D01*
X1220688Y882611D01*
X1222131Y880731D01*
X1224011Y879288D01*
X1226200Y878382D01*
X1228550Y878072D01*
X1230900Y878382D01*
X1233089Y879288D01*
X1234969Y880731D01*
X1236411Y882611D01*
X1237318Y884800D01*
X1237628Y887150D01*
X1237318Y889500D01*
X1236411Y891689D01*
X1234969Y893569D01*
X1233089Y895011D01*
X1230900Y895918D01*
X1228550Y896228D01*
D02*
G37*
G36*
X1130550D02*
X1128201Y895918D01*
X1126011Y895011D01*
X1124131Y893569D01*
X1122689Y891689D01*
X1121782Y889500D01*
X1121472Y887150D01*
X1121782Y884800D01*
X1122689Y882611D01*
X1124131Y880731D01*
X1126011Y879288D01*
X1128201Y878382D01*
X1130550Y878072D01*
X1132899Y878382D01*
X1135089Y879288D01*
X1136969Y880731D01*
X1138411Y882611D01*
X1139318Y884800D01*
X1139628Y887150D01*
X1139318Y889500D01*
X1138411Y891689D01*
X1136969Y893569D01*
X1135089Y895011D01*
X1132899Y895918D01*
X1130550Y896228D01*
D02*
G37*
G36*
X1105550D02*
X1103201Y895918D01*
X1101011Y895011D01*
X1099131Y893569D01*
X1097689Y891689D01*
X1096782Y889500D01*
X1096472Y887150D01*
X1096782Y884800D01*
X1097689Y882611D01*
X1099131Y880731D01*
X1101011Y879288D01*
X1103201Y878382D01*
X1105550Y878072D01*
X1107899Y878382D01*
X1110089Y879288D01*
X1111969Y880731D01*
X1113411Y882611D01*
X1114318Y884800D01*
X1114628Y887150D01*
X1114318Y889500D01*
X1113411Y891689D01*
X1111969Y893569D01*
X1110089Y895011D01*
X1107899Y895918D01*
X1105550Y896228D01*
D02*
G37*
G36*
X1085550D02*
X1083201Y895918D01*
X1081011Y895011D01*
X1079131Y893569D01*
X1077689Y891689D01*
X1076782Y889500D01*
X1076472Y887150D01*
X1076782Y884800D01*
X1077689Y882611D01*
X1079131Y880731D01*
X1081011Y879288D01*
X1083201Y878382D01*
X1085550Y878072D01*
X1087899Y878382D01*
X1090089Y879288D01*
X1091969Y880731D01*
X1093411Y882611D01*
X1094318Y884800D01*
X1094628Y887150D01*
X1094318Y889500D01*
X1093411Y891689D01*
X1091969Y893569D01*
X1090089Y895011D01*
X1087899Y895918D01*
X1085550Y896228D01*
D02*
G37*
G36*
X1060550D02*
X1058201Y895918D01*
X1056011Y895011D01*
X1054131Y893569D01*
X1052689Y891689D01*
X1051782Y889500D01*
X1051472Y887150D01*
X1051782Y884800D01*
X1052689Y882611D01*
X1054131Y880731D01*
X1056011Y879288D01*
X1058201Y878382D01*
X1060550Y878072D01*
X1062899Y878382D01*
X1065089Y879288D01*
X1066969Y880731D01*
X1068411Y882611D01*
X1069318Y884800D01*
X1069628Y887150D01*
X1069318Y889500D01*
X1068411Y891689D01*
X1066969Y893569D01*
X1065089Y895011D01*
X1062899Y895918D01*
X1060550Y896228D01*
D02*
G37*
G36*
X1329250Y897166D02*
X1325752Y896705D01*
X1322492Y895355D01*
X1319693Y893207D01*
X1317545Y890408D01*
X1316195Y887148D01*
X1315734Y883650D01*
X1316195Y880152D01*
X1317545Y876892D01*
X1319693Y874093D01*
X1322492Y871945D01*
X1325752Y870595D01*
X1329250Y870134D01*
X1332748Y870595D01*
X1336008Y871945D01*
X1338807Y874093D01*
X1340955Y876892D01*
X1342305Y880152D01*
X1342766Y883650D01*
X1342305Y887148D01*
X1340955Y890408D01*
X1338807Y893207D01*
X1336008Y895355D01*
X1332748Y896705D01*
X1329250Y897166D01*
D02*
G37*
G36*
X1197850D02*
X1194352Y896705D01*
X1191092Y895355D01*
X1188293Y893207D01*
X1186145Y890408D01*
X1184795Y887148D01*
X1184334Y883650D01*
X1184795Y880152D01*
X1186145Y876892D01*
X1188293Y874093D01*
X1191092Y871945D01*
X1194352Y870595D01*
X1197850Y870134D01*
X1201348Y870595D01*
X1204608Y871945D01*
X1207407Y874093D01*
X1209555Y876892D01*
X1210905Y880152D01*
X1211366Y883650D01*
X1210905Y887148D01*
X1209555Y890408D01*
X1207407Y893207D01*
X1204608Y895355D01*
X1201348Y896705D01*
X1197850Y897166D01*
D02*
G37*
G36*
X1161250D02*
X1157752Y896705D01*
X1154492Y895355D01*
X1151693Y893207D01*
X1149545Y890408D01*
X1148195Y887148D01*
X1147734Y883650D01*
X1148195Y880152D01*
X1149545Y876892D01*
X1151693Y874093D01*
X1154492Y871945D01*
X1157752Y870595D01*
X1161250Y870134D01*
X1164748Y870595D01*
X1168008Y871945D01*
X1170807Y874093D01*
X1172955Y876892D01*
X1174305Y880152D01*
X1174766Y883650D01*
X1174305Y887148D01*
X1172955Y890408D01*
X1170807Y893207D01*
X1168008Y895355D01*
X1164748Y896705D01*
X1161250Y897166D01*
D02*
G37*
G36*
X1029850D02*
X1026352Y896705D01*
X1023092Y895355D01*
X1020293Y893207D01*
X1018145Y890408D01*
X1016795Y887148D01*
X1016334Y883650D01*
X1016795Y880152D01*
X1018145Y876892D01*
X1020293Y874093D01*
X1023092Y871945D01*
X1026352Y870595D01*
X1029850Y870134D01*
X1033348Y870595D01*
X1036608Y871945D01*
X1039407Y874093D01*
X1041555Y876892D01*
X1042905Y880152D01*
X1043366Y883650D01*
X1042905Y887148D01*
X1041555Y890408D01*
X1039407Y893207D01*
X1036608Y895355D01*
X1033348Y896705D01*
X1029850Y897166D01*
D02*
G37*
G36*
X402000Y877324D02*
X400537Y877032D01*
X399296Y876204D01*
X398468Y874963D01*
X398177Y873500D01*
X398468Y872037D01*
X399296Y870797D01*
X400537Y869968D01*
X402000Y869677D01*
X403463Y869968D01*
X404704Y870797D01*
X405532Y872037D01*
X405824Y873500D01*
X405532Y874963D01*
X404704Y876204D01*
X403463Y877032D01*
X402000Y877324D01*
D02*
G37*
G36*
X1515450Y881973D02*
X1513244Y881683D01*
X1511189Y880831D01*
X1509423Y879477D01*
X1508069Y877711D01*
X1507218Y875656D01*
X1506927Y873450D01*
X1507218Y871244D01*
X1508069Y869189D01*
X1509423Y867423D01*
X1511189Y866069D01*
X1513244Y865218D01*
X1515450Y864927D01*
X1517656Y865218D01*
X1519711Y866069D01*
X1521477Y867423D01*
X1522831Y869189D01*
X1523683Y871244D01*
X1523973Y873450D01*
X1523683Y875656D01*
X1522831Y877711D01*
X1521477Y879477D01*
X1519711Y880831D01*
X1517656Y881683D01*
X1515450Y881973D01*
D02*
G37*
G36*
X1490050D02*
X1487844Y881683D01*
X1485789Y880831D01*
X1484023Y879477D01*
X1482669Y877711D01*
X1481817Y875656D01*
X1481527Y873450D01*
X1481817Y871244D01*
X1482669Y869189D01*
X1484023Y867423D01*
X1485789Y866069D01*
X1487844Y865218D01*
X1490050Y864927D01*
X1492256Y865218D01*
X1494312Y866069D01*
X1496077Y867423D01*
X1497431Y869189D01*
X1498282Y871244D01*
X1498573Y873450D01*
X1498282Y875656D01*
X1497431Y877711D01*
X1496077Y879477D01*
X1494312Y880831D01*
X1492256Y881683D01*
X1490050Y881973D01*
D02*
G37*
G36*
X1464650D02*
X1462444Y881683D01*
X1460389Y880831D01*
X1458623Y879477D01*
X1457269Y877711D01*
X1456418Y875656D01*
X1456127Y873450D01*
X1456418Y871244D01*
X1457269Y869189D01*
X1458623Y867423D01*
X1460389Y866069D01*
X1462444Y865218D01*
X1464650Y864927D01*
X1466856Y865218D01*
X1468911Y866069D01*
X1470677Y867423D01*
X1472031Y869189D01*
X1472883Y871244D01*
X1473173Y873450D01*
X1472883Y875656D01*
X1472031Y877711D01*
X1470677Y879477D01*
X1468911Y880831D01*
X1466856Y881683D01*
X1464650Y881973D01*
D02*
G37*
G36*
X1439250D02*
X1437044Y881683D01*
X1434989Y880831D01*
X1433223Y879477D01*
X1431869Y877711D01*
X1431017Y875656D01*
X1430727Y873450D01*
X1431017Y871244D01*
X1431869Y869189D01*
X1433223Y867423D01*
X1434989Y866069D01*
X1437044Y865218D01*
X1439250Y864927D01*
X1441456Y865218D01*
X1443512Y866069D01*
X1445277Y867423D01*
X1446631Y869189D01*
X1447482Y871244D01*
X1447773Y873450D01*
X1447482Y875656D01*
X1446631Y877711D01*
X1445277Y879477D01*
X1443512Y880831D01*
X1441456Y881683D01*
X1439250Y881973D01*
D02*
G37*
G36*
X302020Y867093D02*
X300557Y866802D01*
X299316Y865974D01*
X298487Y864733D01*
X298197Y863270D01*
X298487Y861807D01*
X299316Y860566D01*
X300557Y859737D01*
X302020Y859446D01*
X303483Y859737D01*
X304723Y860566D01*
X305552Y861807D01*
X305843Y863270D01*
X305552Y864733D01*
X304723Y865974D01*
X303483Y866802D01*
X302020Y867093D01*
D02*
G37*
G36*
X359250Y857573D02*
X357787Y857282D01*
X356546Y856454D01*
X355718Y855213D01*
X355427Y853750D01*
X355718Y852287D01*
X356546Y851046D01*
X357787Y850218D01*
X359250Y849927D01*
X360713Y850218D01*
X361954Y851046D01*
X362782Y852287D01*
X363073Y853750D01*
X362782Y855213D01*
X361954Y856454D01*
X360713Y857282D01*
X359250Y857573D01*
D02*
G37*
G36*
X1622500Y857323D02*
X1621037Y857032D01*
X1619796Y856204D01*
X1618968Y854963D01*
X1618677Y853500D01*
X1618968Y852037D01*
X1619796Y850796D01*
X1621037Y849968D01*
X1622500Y849677D01*
X1623963Y849968D01*
X1625204Y850796D01*
X1626032Y852037D01*
X1626323Y853500D01*
X1626032Y854963D01*
X1625204Y856204D01*
X1623963Y857032D01*
X1622500Y857323D01*
D02*
G37*
G36*
X388000Y854823D02*
X386537Y854532D01*
X385296Y853704D01*
X384468Y852463D01*
X384177Y851000D01*
X384468Y849537D01*
X385296Y848296D01*
X386537Y847468D01*
X388000Y847177D01*
X389463Y847468D01*
X390704Y848296D01*
X391532Y849537D01*
X391823Y851000D01*
X391532Y852463D01*
X390704Y853704D01*
X389463Y854532D01*
X388000Y854823D01*
D02*
G37*
G36*
X1502750Y856573D02*
X1500544Y856283D01*
X1498489Y855431D01*
X1496723Y854077D01*
X1495369Y852311D01*
X1494518Y850256D01*
X1494227Y848050D01*
X1494518Y845844D01*
X1495369Y843789D01*
X1496723Y842023D01*
X1498489Y840669D01*
X1500544Y839818D01*
X1502750Y839527D01*
X1504956Y839818D01*
X1507012Y840669D01*
X1508777Y842023D01*
X1510131Y843789D01*
X1510983Y845844D01*
X1511273Y848050D01*
X1510983Y850256D01*
X1510131Y852311D01*
X1508777Y854077D01*
X1507012Y855431D01*
X1504956Y856283D01*
X1502750Y856573D01*
D02*
G37*
G36*
X1477350D02*
X1475144Y856283D01*
X1473089Y855431D01*
X1471323Y854077D01*
X1469969Y852311D01*
X1469117Y850256D01*
X1468827Y848050D01*
X1469117Y845844D01*
X1469969Y843789D01*
X1471323Y842023D01*
X1473089Y840669D01*
X1475144Y839818D01*
X1477350Y839527D01*
X1479556Y839818D01*
X1481611Y840669D01*
X1483377Y842023D01*
X1484731Y843789D01*
X1485582Y845844D01*
X1485873Y848050D01*
X1485582Y850256D01*
X1484731Y852311D01*
X1483377Y854077D01*
X1481611Y855431D01*
X1479556Y856283D01*
X1477350Y856573D01*
D02*
G37*
G36*
X1451950D02*
X1449744Y856283D01*
X1447689Y855431D01*
X1445923Y854077D01*
X1444569Y852311D01*
X1443717Y850256D01*
X1443427Y848050D01*
X1443717Y845844D01*
X1444569Y843789D01*
X1445923Y842023D01*
X1447689Y840669D01*
X1449744Y839818D01*
X1451950Y839527D01*
X1454156Y839818D01*
X1456212Y840669D01*
X1457977Y842023D01*
X1459331Y843789D01*
X1460182Y845844D01*
X1460473Y848050D01*
X1460182Y850256D01*
X1459331Y852311D01*
X1457977Y854077D01*
X1456212Y855431D01*
X1454156Y856283D01*
X1451950Y856573D01*
D02*
G37*
G36*
X1426550D02*
X1424344Y856283D01*
X1422289Y855431D01*
X1420523Y854077D01*
X1419169Y852311D01*
X1418318Y850256D01*
X1418027Y848050D01*
X1418318Y845844D01*
X1419169Y843789D01*
X1420523Y842023D01*
X1422289Y840669D01*
X1424344Y839818D01*
X1426550Y839527D01*
X1428756Y839818D01*
X1430811Y840669D01*
X1432577Y842023D01*
X1433931Y843789D01*
X1434783Y845844D01*
X1435073Y848050D01*
X1434783Y850256D01*
X1433931Y852311D01*
X1432577Y854077D01*
X1430811Y855431D01*
X1428756Y856283D01*
X1426550Y856573D01*
D02*
G37*
G36*
X301020Y844093D02*
X299557Y843802D01*
X298316Y842973D01*
X297488Y841733D01*
X297197Y840270D01*
X297488Y838807D01*
X298316Y837566D01*
X299557Y836738D01*
X301020Y836447D01*
X302483Y836738D01*
X303724Y837566D01*
X304552Y838807D01*
X304843Y840270D01*
X304552Y841733D01*
X303724Y842973D01*
X302483Y843802D01*
X301020Y844093D01*
D02*
G37*
G36*
X366750Y843073D02*
X365287Y842782D01*
X364046Y841954D01*
X363218Y840713D01*
X362927Y839250D01*
X363218Y837787D01*
X364046Y836546D01*
X365287Y835718D01*
X366750Y835427D01*
X368213Y835718D01*
X369454Y836546D01*
X370282Y837787D01*
X370573Y839250D01*
X370282Y840713D01*
X369454Y841954D01*
X368213Y842782D01*
X366750Y843073D01*
D02*
G37*
G36*
X1560500Y838573D02*
X1559037Y838282D01*
X1557796Y837454D01*
X1556968Y836213D01*
X1556677Y834750D01*
X1556968Y833287D01*
X1557796Y832046D01*
X1559037Y831218D01*
X1560500Y830927D01*
X1561963Y831218D01*
X1563204Y832046D01*
X1564032Y833287D01*
X1564323Y834750D01*
X1564032Y836213D01*
X1563204Y837454D01*
X1561963Y838282D01*
X1560500Y838573D01*
D02*
G37*
G36*
X1761680Y817073D02*
X1760217Y816782D01*
X1758976Y815954D01*
X1758148Y814713D01*
X1757857Y813250D01*
X1758148Y811787D01*
X1758976Y810546D01*
X1760217Y809718D01*
X1761680Y809427D01*
X1763143Y809718D01*
X1764384Y810546D01*
X1765212Y811787D01*
X1765503Y813250D01*
X1765212Y814713D01*
X1764384Y815954D01*
X1763143Y816782D01*
X1761680Y817073D01*
D02*
G37*
G36*
X397000Y808073D02*
X395537Y807782D01*
X394296Y806954D01*
X393468Y805713D01*
X393177Y804250D01*
X393468Y802787D01*
X394296Y801546D01*
X395537Y800718D01*
X397000Y800427D01*
X398463Y800718D01*
X399704Y801546D01*
X400532Y802787D01*
X400823Y804250D01*
X400532Y805713D01*
X399704Y806954D01*
X398463Y807782D01*
X397000Y808073D01*
D02*
G37*
G36*
X1622680Y796824D02*
X1621217Y796532D01*
X1619976Y795704D01*
X1619148Y794463D01*
X1618857Y793000D01*
X1619148Y791537D01*
X1619976Y790296D01*
X1621217Y789468D01*
X1622680Y789177D01*
X1624143Y789468D01*
X1625384Y790296D01*
X1626212Y791537D01*
X1626503Y793000D01*
X1626212Y794463D01*
X1625384Y795704D01*
X1624143Y796532D01*
X1622680Y796824D01*
D02*
G37*
G36*
X423000Y791073D02*
X421537Y790782D01*
X420296Y789954D01*
X419468Y788713D01*
X419177Y787250D01*
X419468Y785787D01*
X420296Y784546D01*
X421537Y783718D01*
X423000Y783427D01*
X424463Y783718D01*
X425704Y784546D01*
X426532Y785787D01*
X426823Y787250D01*
X426532Y788713D01*
X425704Y789954D01*
X424463Y790782D01*
X423000Y791073D01*
D02*
G37*
G36*
X1455000Y784574D02*
X1453537Y784282D01*
X1452296Y783454D01*
X1451468Y782213D01*
X1451177Y780750D01*
X1451468Y779287D01*
X1452296Y778046D01*
X1453537Y777218D01*
X1455000Y776927D01*
X1456463Y777218D01*
X1457704Y778046D01*
X1458532Y779287D01*
X1458824Y780750D01*
X1458532Y782213D01*
X1457704Y783454D01*
X1456463Y784282D01*
X1455000Y784574D01*
D02*
G37*
G36*
X369900Y765923D02*
X368437Y765632D01*
X367196Y764804D01*
X366368Y763563D01*
X366077Y762100D01*
X366368Y760637D01*
X367196Y759396D01*
X368437Y758568D01*
X369900Y758277D01*
X371363Y758568D01*
X372603Y759396D01*
X373432Y760637D01*
X373723Y762100D01*
X373432Y763563D01*
X372603Y764804D01*
X371363Y765632D01*
X369900Y765923D01*
D02*
G37*
G36*
X385750Y765323D02*
X384287Y765032D01*
X383046Y764204D01*
X382218Y762963D01*
X381927Y761500D01*
X382218Y760037D01*
X383046Y758796D01*
X384287Y757968D01*
X385750Y757677D01*
X387213Y757968D01*
X388454Y758796D01*
X389282Y760037D01*
X389573Y761500D01*
X389282Y762963D01*
X388454Y764204D01*
X387213Y765032D01*
X385750Y765323D01*
D02*
G37*
G36*
X1127250Y753073D02*
X1125787Y752782D01*
X1124547Y751954D01*
X1123718Y750713D01*
X1123427Y749250D01*
X1123718Y747787D01*
X1124547Y746546D01*
X1125787Y745718D01*
X1127250Y745426D01*
X1128713Y745718D01*
X1129954Y746546D01*
X1130782Y747787D01*
X1131074Y749250D01*
X1130782Y750713D01*
X1129954Y751954D01*
X1128713Y752782D01*
X1127250Y753073D01*
D02*
G37*
G36*
X1149250Y752823D02*
X1147787Y752532D01*
X1146546Y751703D01*
X1145718Y750463D01*
X1145427Y749000D01*
X1145718Y747537D01*
X1146546Y746296D01*
X1147787Y745468D01*
X1149250Y745176D01*
X1150713Y745468D01*
X1151954Y746296D01*
X1152783Y747537D01*
X1153074Y749000D01*
X1152783Y750463D01*
X1151954Y751703D01*
X1150713Y752532D01*
X1149250Y752823D01*
D02*
G37*
G36*
X1104250Y752573D02*
X1102787Y752282D01*
X1101546Y751453D01*
X1100718Y750213D01*
X1100427Y748750D01*
X1100718Y747287D01*
X1101546Y746046D01*
X1102787Y745218D01*
X1104250Y744927D01*
X1105713Y745218D01*
X1106954Y746046D01*
X1107782Y747287D01*
X1108074Y748750D01*
X1107782Y750213D01*
X1106954Y751453D01*
X1105713Y752282D01*
X1104250Y752573D01*
D02*
G37*
G36*
X1035000Y751823D02*
X1033537Y751532D01*
X1032296Y750704D01*
X1031468Y749463D01*
X1031177Y748000D01*
X1031468Y746537D01*
X1032296Y745296D01*
X1033537Y744468D01*
X1035000Y744177D01*
X1036463Y744468D01*
X1037704Y745296D01*
X1038532Y746537D01*
X1038823Y748000D01*
X1038532Y749463D01*
X1037704Y750704D01*
X1036463Y751532D01*
X1035000Y751823D01*
D02*
G37*
G36*
X1440000Y751323D02*
X1438537Y751032D01*
X1437296Y750204D01*
X1436468Y748963D01*
X1436177Y747500D01*
X1436468Y746037D01*
X1437296Y744796D01*
X1438537Y743968D01*
X1440000Y743677D01*
X1441463Y743968D01*
X1442704Y744796D01*
X1443532Y746037D01*
X1443823Y747500D01*
X1443532Y748963D01*
X1442704Y750204D01*
X1441463Y751032D01*
X1440000Y751323D01*
D02*
G37*
G36*
X1053250Y750573D02*
X1051787Y750282D01*
X1050546Y749454D01*
X1049718Y748213D01*
X1049427Y746750D01*
X1049718Y745287D01*
X1050546Y744046D01*
X1051787Y743217D01*
X1053250Y742926D01*
X1054713Y743217D01*
X1055954Y744046D01*
X1056783Y745287D01*
X1057074Y746750D01*
X1056783Y748213D01*
X1055954Y749454D01*
X1054713Y750282D01*
X1053250Y750573D01*
D02*
G37*
G36*
X1742000Y677580D02*
X1738765Y677261D01*
X1735655Y676318D01*
X1732789Y674786D01*
X1730276Y672724D01*
X1728214Y670211D01*
X1726682Y667345D01*
X1725739Y664235D01*
X1725420Y661000D01*
X1725739Y657765D01*
X1726682Y654655D01*
X1728214Y651789D01*
X1730276Y649276D01*
X1732789Y647214D01*
X1735655Y645682D01*
X1738765Y644739D01*
X1742000Y644420D01*
X1745235Y644739D01*
X1748345Y645682D01*
X1751211Y647214D01*
X1753724Y649276D01*
X1755786Y651789D01*
X1757318Y654655D01*
X1758261Y657765D01*
X1758580Y661000D01*
X1758261Y664235D01*
X1757318Y667345D01*
X1755786Y670211D01*
X1753724Y672724D01*
X1751211Y674786D01*
X1748345Y676318D01*
X1745235Y677261D01*
X1742000Y677580D01*
D02*
G37*
G36*
X296500Y629823D02*
X295037Y629532D01*
X293796Y628704D01*
X292968Y627463D01*
X292677Y626000D01*
X292968Y624537D01*
X293796Y623296D01*
X295037Y622468D01*
X296500Y622177D01*
X297963Y622468D01*
X299204Y623296D01*
X300032Y624537D01*
X300324Y626000D01*
X300032Y627463D01*
X299204Y628704D01*
X297963Y629532D01*
X296500Y629823D01*
D02*
G37*
G36*
X1497500Y606823D02*
X1496037Y606532D01*
X1494796Y605704D01*
X1493968Y604463D01*
X1493677Y603000D01*
X1493968Y601537D01*
X1494796Y600296D01*
X1496037Y599468D01*
X1497500Y599176D01*
X1498963Y599468D01*
X1500204Y600296D01*
X1501032Y601537D01*
X1501324Y603000D01*
X1501032Y604463D01*
X1500204Y605704D01*
X1498963Y606532D01*
X1497500Y606823D01*
D02*
G37*
G36*
X296500Y599823D02*
X295037Y599532D01*
X293796Y598704D01*
X292968Y597463D01*
X292677Y596000D01*
X292968Y594537D01*
X293796Y593296D01*
X295037Y592468D01*
X296500Y592177D01*
X297963Y592468D01*
X299204Y593296D01*
X300032Y594537D01*
X300324Y596000D01*
X300032Y597463D01*
X299204Y598704D01*
X297963Y599532D01*
X296500Y599823D01*
D02*
G37*
G36*
X1077740Y598583D02*
X1076277Y598292D01*
X1075036Y597463D01*
X1074208Y596223D01*
X1073917Y594760D01*
X1074208Y593297D01*
X1075036Y592056D01*
X1076277Y591227D01*
X1077740Y590937D01*
X1079203Y591227D01*
X1080444Y592056D01*
X1081272Y593297D01*
X1081563Y594760D01*
X1081272Y596223D01*
X1080444Y597463D01*
X1079203Y598292D01*
X1077740Y598583D01*
D02*
G37*
G36*
X1127750Y597823D02*
X1126287Y597532D01*
X1125046Y596704D01*
X1124218Y595463D01*
X1123927Y594000D01*
X1124218Y592537D01*
X1125046Y591296D01*
X1126287Y590468D01*
X1127750Y590177D01*
X1129213Y590468D01*
X1130454Y591296D01*
X1131282Y592537D01*
X1131573Y594000D01*
X1131282Y595463D01*
X1130454Y596704D01*
X1129213Y597532D01*
X1127750Y597823D01*
D02*
G37*
G36*
X329000Y589073D02*
X327537Y588782D01*
X326296Y587954D01*
X325468Y586713D01*
X325177Y585250D01*
X325468Y583787D01*
X326296Y582546D01*
X327537Y581718D01*
X328431Y581540D01*
X328582Y581510D01*
Y580490D01*
X328431Y580460D01*
X327537Y580282D01*
X326296Y579454D01*
X325468Y578213D01*
X325177Y576750D01*
X325468Y575287D01*
X326296Y574046D01*
X327537Y573218D01*
X329000Y572927D01*
X330463Y573218D01*
X331704Y574046D01*
X332532Y575287D01*
X332823Y576750D01*
X332532Y578213D01*
X331704Y579454D01*
X330463Y580282D01*
X329569Y580460D01*
X329418Y580490D01*
Y581510D01*
X329569Y581540D01*
X330463Y581718D01*
X331704Y582546D01*
X332532Y583787D01*
X332823Y585250D01*
X332532Y586713D01*
X331704Y587954D01*
X330463Y588782D01*
X329000Y589073D01*
D02*
G37*
G36*
X296500Y569823D02*
X295037Y569532D01*
X293796Y568704D01*
X292968Y567463D01*
X292677Y566000D01*
X292968Y564537D01*
X293796Y563296D01*
X295037Y562468D01*
X296500Y562177D01*
X297963Y562468D01*
X299204Y563296D01*
X300032Y564537D01*
X300324Y566000D01*
X300032Y567463D01*
X299204Y568704D01*
X297963Y569532D01*
X296500Y569823D01*
D02*
G37*
G36*
X1702250Y552823D02*
X1700787Y552532D01*
X1699547Y551704D01*
X1698718Y550463D01*
X1698427Y549000D01*
X1698718Y547537D01*
X1699547Y546296D01*
X1700787Y545468D01*
X1702250Y545177D01*
X1703713Y545468D01*
X1704954Y546296D01*
X1705782Y547537D01*
X1706073Y549000D01*
X1705782Y550463D01*
X1704954Y551704D01*
X1703713Y552532D01*
X1702250Y552823D01*
D02*
G37*
G36*
X329000Y559073D02*
X327537Y558782D01*
X326296Y557954D01*
X325468Y556713D01*
X325177Y555250D01*
X325468Y553787D01*
X326296Y552546D01*
X327537Y551718D01*
X328431Y551540D01*
X328582Y551510D01*
Y550490D01*
X328431Y550460D01*
X327537Y550282D01*
X326296Y549454D01*
X325468Y548213D01*
X325177Y546750D01*
X325468Y545287D01*
X326296Y544046D01*
X327537Y543218D01*
X329000Y542926D01*
X330463Y543218D01*
X331704Y544046D01*
X332532Y545287D01*
X332823Y546750D01*
X332532Y548213D01*
X331704Y549454D01*
X330463Y550282D01*
X329569Y550460D01*
X329418Y550490D01*
Y551510D01*
X329569Y551540D01*
X330463Y551718D01*
X331704Y552546D01*
X332532Y553787D01*
X332823Y555250D01*
X332532Y556713D01*
X331704Y557954D01*
X330463Y558782D01*
X329000Y559073D01*
D02*
G37*
G36*
X1499250Y549823D02*
X1497787Y549532D01*
X1496546Y548704D01*
X1495718Y547463D01*
X1495427Y546000D01*
X1495718Y544537D01*
X1496546Y543296D01*
X1497787Y542468D01*
X1499250Y542177D01*
X1500713Y542468D01*
X1501954Y543296D01*
X1502782Y544537D01*
X1503073Y546000D01*
X1502782Y547463D01*
X1501954Y548704D01*
X1500713Y549532D01*
X1499250Y549823D01*
D02*
G37*
G36*
X1121000Y548823D02*
X1119537Y548532D01*
X1118296Y547704D01*
X1117468Y546463D01*
X1117177Y545000D01*
X1117468Y543537D01*
X1118296Y542296D01*
X1119537Y541468D01*
X1121000Y541177D01*
X1122463Y541468D01*
X1123704Y542296D01*
X1124532Y543537D01*
X1124823Y545000D01*
X1124532Y546463D01*
X1123704Y547704D01*
X1122463Y548532D01*
X1121000Y548823D01*
D02*
G37*
G36*
X1080000D02*
X1078537Y548532D01*
X1077296Y547704D01*
X1076468Y546463D01*
X1076177Y545000D01*
X1076468Y543537D01*
X1077296Y542296D01*
X1078537Y541468D01*
X1080000Y541177D01*
X1081463Y541468D01*
X1082704Y542296D01*
X1083532Y543537D01*
X1083823Y545000D01*
X1083532Y546463D01*
X1082704Y547704D01*
X1081463Y548532D01*
X1080000Y548823D01*
D02*
G37*
G36*
X1767750Y544573D02*
X1766287Y544282D01*
X1765046Y543454D01*
X1764218Y542213D01*
X1763927Y540750D01*
X1764218Y539287D01*
X1765046Y538046D01*
X1766287Y537218D01*
X1767750Y536927D01*
X1769213Y537218D01*
X1770454Y538046D01*
X1771282Y539287D01*
X1771573Y540750D01*
X1771282Y542213D01*
X1770454Y543454D01*
X1769213Y544282D01*
X1767750Y544573D01*
D02*
G37*
G36*
X296500Y539823D02*
X295037Y539532D01*
X293796Y538704D01*
X292968Y537463D01*
X292677Y536000D01*
X292968Y534537D01*
X293796Y533296D01*
X295037Y532468D01*
X296500Y532177D01*
X297963Y532468D01*
X299204Y533296D01*
X300032Y534537D01*
X300324Y536000D01*
X300032Y537463D01*
X299204Y538704D01*
X297963Y539532D01*
X296500Y539823D01*
D02*
G37*
G36*
X1144000Y525823D02*
X1142537Y525532D01*
X1141296Y524704D01*
X1140468Y523463D01*
X1140177Y522000D01*
X1140468Y520537D01*
X1141296Y519296D01*
X1142537Y518468D01*
X1144000Y518177D01*
X1145463Y518468D01*
X1146704Y519296D01*
X1147532Y520537D01*
X1147823Y522000D01*
X1147532Y523463D01*
X1146704Y524704D01*
X1145463Y525532D01*
X1144000Y525823D01*
D02*
G37*
G36*
X1735602Y520675D02*
X1734139Y520384D01*
X1732898Y519556D01*
X1732070Y518315D01*
X1731779Y516852D01*
X1732070Y515389D01*
X1732898Y514148D01*
X1734139Y513320D01*
X1735602Y513028D01*
X1737065Y513320D01*
X1738306Y514148D01*
X1739134Y515389D01*
X1739425Y516852D01*
X1739134Y518315D01*
X1738306Y519556D01*
X1737065Y520384D01*
X1735602Y520675D01*
D02*
G37*
G36*
X329000Y529073D02*
X327537Y528782D01*
X326296Y527954D01*
X325468Y526713D01*
X325177Y525250D01*
X325468Y523787D01*
X326296Y522546D01*
X327537Y521718D01*
X328431Y521540D01*
X328582Y521510D01*
Y520490D01*
X328431Y520460D01*
X327537Y520282D01*
X326296Y519454D01*
X325468Y518213D01*
X325177Y516750D01*
X325468Y515287D01*
X326296Y514046D01*
X327537Y513218D01*
X329000Y512927D01*
X330463Y513218D01*
X331704Y514046D01*
X332532Y515287D01*
X332823Y516750D01*
X332532Y518213D01*
X331704Y519454D01*
X330463Y520282D01*
X329569Y520460D01*
X329418Y520490D01*
Y521510D01*
X329569Y521540D01*
X330463Y521718D01*
X331704Y522546D01*
X332532Y523787D01*
X332823Y525250D01*
X332532Y526713D01*
X331704Y527954D01*
X330463Y528782D01*
X329000Y529073D01*
D02*
G37*
G36*
X296500Y509823D02*
X295037Y509532D01*
X293797Y508704D01*
X292968Y507463D01*
X292677Y506000D01*
X292968Y504537D01*
X293797Y503296D01*
X295037Y502468D01*
X296500Y502177D01*
X297963Y502468D01*
X299204Y503296D01*
X300032Y504537D01*
X300324Y506000D01*
X300032Y507463D01*
X299204Y508704D01*
X297963Y509532D01*
X296500Y509823D01*
D02*
G37*
G36*
X1351000Y503323D02*
X1349537Y503032D01*
X1348296Y502204D01*
X1347468Y500963D01*
X1347177Y499500D01*
X1347468Y498037D01*
X1348296Y496796D01*
X1349537Y495968D01*
X1351000Y495677D01*
X1352463Y495968D01*
X1353704Y496796D01*
X1354532Y498037D01*
X1354823Y499500D01*
X1354532Y500963D01*
X1353704Y502204D01*
X1352463Y503032D01*
X1351000Y503323D01*
D02*
G37*
G36*
X1433500Y500323D02*
X1432037Y500032D01*
X1430796Y499204D01*
X1429968Y497963D01*
X1429677Y496500D01*
X1429968Y495037D01*
X1430796Y493796D01*
X1432037Y492968D01*
X1433500Y492677D01*
X1434963Y492968D01*
X1436204Y493796D01*
X1437032Y495037D01*
X1437323Y496500D01*
X1437032Y497963D01*
X1436204Y499204D01*
X1434963Y500032D01*
X1433500Y500323D01*
D02*
G37*
G36*
Y482323D02*
X1432037Y482032D01*
X1430796Y481204D01*
X1429968Y479963D01*
X1429677Y478500D01*
X1429968Y477037D01*
X1430796Y475796D01*
X1432037Y474968D01*
X1433500Y474677D01*
X1434963Y474968D01*
X1436204Y475796D01*
X1437032Y477037D01*
X1437323Y478500D01*
X1437032Y479963D01*
X1436204Y481204D01*
X1434963Y482032D01*
X1433500Y482323D01*
D02*
G37*
G36*
Y464323D02*
X1432037Y464032D01*
X1430796Y463204D01*
X1429968Y461963D01*
X1429677Y460500D01*
X1429968Y459037D01*
X1430796Y457796D01*
X1432037Y456968D01*
X1433500Y456677D01*
X1434963Y456968D01*
X1436204Y457796D01*
X1437032Y459037D01*
X1437323Y460500D01*
X1437032Y461963D01*
X1436204Y463204D01*
X1434963Y464032D01*
X1433500Y464323D01*
D02*
G37*
G36*
X1351000Y485323D02*
X1349537Y485032D01*
X1348296Y484204D01*
X1347468Y482963D01*
X1347177Y481500D01*
X1347468Y480037D01*
X1348015Y479218D01*
X1348214Y478500D01*
X1348015Y477782D01*
X1347468Y476963D01*
X1347177Y475500D01*
X1347468Y474037D01*
X1348015Y473218D01*
X1348214Y472500D01*
X1348015Y471782D01*
X1347468Y470963D01*
X1347177Y469500D01*
X1347468Y468037D01*
X1348015Y467218D01*
X1348214Y466500D01*
X1348015Y465782D01*
X1347468Y464963D01*
X1347177Y463500D01*
X1347468Y462037D01*
X1348015Y461218D01*
X1348214Y460500D01*
X1348015Y459782D01*
X1347468Y458963D01*
X1347177Y457500D01*
X1347468Y456037D01*
X1348296Y454796D01*
X1349537Y453968D01*
X1351000Y453677D01*
X1352463Y453968D01*
X1353704Y454796D01*
X1354532Y456037D01*
X1354823Y457500D01*
X1354532Y458963D01*
X1353985Y459782D01*
X1353786Y460500D01*
X1353985Y461218D01*
X1354532Y462037D01*
X1354823Y463500D01*
X1354532Y464963D01*
X1353985Y465782D01*
X1353786Y466500D01*
X1353985Y467218D01*
X1354532Y468037D01*
X1354823Y469500D01*
X1354532Y470963D01*
X1353985Y471782D01*
X1353786Y472500D01*
X1353985Y473218D01*
X1354532Y474037D01*
X1354823Y475500D01*
X1354532Y476963D01*
X1353985Y477782D01*
X1353786Y478500D01*
X1353985Y479218D01*
X1354532Y480037D01*
X1354823Y481500D01*
X1354532Y482963D01*
X1353704Y484204D01*
X1352463Y485032D01*
X1351000Y485323D01*
D02*
G37*
G36*
Y449323D02*
X1349537Y449032D01*
X1348296Y448204D01*
X1347468Y446963D01*
X1347177Y445500D01*
X1347468Y444037D01*
X1348296Y442796D01*
X1349537Y441968D01*
X1351000Y441677D01*
X1352463Y441968D01*
X1353704Y442796D01*
X1354532Y444037D01*
X1354823Y445500D01*
X1354532Y446963D01*
X1353704Y448204D01*
X1352463Y449032D01*
X1351000Y449323D01*
D02*
G37*
G36*
X1433500Y446323D02*
X1432037Y446032D01*
X1430796Y445204D01*
X1429968Y443963D01*
X1429677Y442500D01*
X1429968Y441037D01*
X1430796Y439796D01*
X1432037Y438968D01*
X1433500Y438677D01*
X1434963Y438968D01*
X1436204Y439796D01*
X1437032Y441037D01*
X1437323Y442500D01*
X1437032Y443963D01*
X1436204Y445204D01*
X1434963Y446032D01*
X1433500Y446323D01*
D02*
G37*
G36*
X1495500Y438073D02*
X1494037Y437782D01*
X1492796Y436954D01*
X1491968Y435713D01*
X1491677Y434250D01*
X1491968Y432787D01*
X1492796Y431546D01*
X1494037Y430718D01*
X1495500Y430427D01*
X1496963Y430718D01*
X1498204Y431546D01*
X1499032Y432787D01*
X1499323Y434250D01*
X1499032Y435713D01*
X1498204Y436954D01*
X1496963Y437782D01*
X1495500Y438073D01*
D02*
G37*
G36*
X1357000Y435823D02*
X1355537Y435532D01*
X1354296Y434704D01*
X1353468Y433463D01*
X1353177Y432000D01*
X1353468Y430537D01*
X1354296Y429296D01*
X1355537Y428468D01*
X1357000Y428177D01*
X1358463Y428468D01*
X1359704Y429296D01*
X1360532Y430537D01*
X1360823Y432000D01*
X1360532Y433463D01*
X1359704Y434704D01*
X1358463Y435532D01*
X1357000Y435823D01*
D02*
G37*
G36*
X1433500Y428324D02*
X1432037Y428032D01*
X1430796Y427204D01*
X1429968Y425963D01*
X1429677Y424500D01*
X1429968Y423037D01*
X1430796Y421796D01*
X1432037Y420968D01*
X1433500Y420677D01*
X1434963Y420968D01*
X1436204Y421796D01*
X1437032Y423037D01*
X1437323Y424500D01*
X1437032Y425963D01*
X1436204Y427204D01*
X1434963Y428032D01*
X1433500Y428324D01*
D02*
G37*
G36*
X1496750Y413823D02*
X1495287Y413532D01*
X1494046Y412704D01*
X1493218Y411463D01*
X1492927Y410000D01*
X1493218Y408537D01*
X1494046Y407296D01*
X1495287Y406468D01*
X1496750Y406177D01*
X1498213Y406468D01*
X1499454Y407296D01*
X1500282Y408537D01*
X1500573Y410000D01*
X1500282Y411463D01*
X1499454Y412704D01*
X1498213Y413532D01*
X1496750Y413823D01*
D02*
G37*
G36*
X1313500Y413323D02*
X1312037Y413032D01*
X1310796Y412204D01*
X1309968Y410963D01*
X1309677Y409500D01*
X1309968Y408037D01*
X1310796Y406796D01*
X1312037Y405968D01*
X1313500Y405677D01*
X1314963Y405968D01*
X1316204Y406796D01*
X1317032Y408037D01*
X1317323Y409500D01*
X1317032Y410963D01*
X1316204Y412204D01*
X1314963Y413032D01*
X1313500Y413323D01*
D02*
G37*
G36*
X1433500Y410323D02*
X1432037Y410032D01*
X1430796Y409204D01*
X1429968Y407963D01*
X1429677Y406500D01*
X1429968Y405037D01*
X1430796Y403796D01*
X1432037Y402968D01*
X1433500Y402677D01*
X1434963Y402968D01*
X1436204Y403796D01*
X1437032Y405037D01*
X1437323Y406500D01*
X1437032Y407963D01*
X1436204Y409204D01*
X1434963Y410032D01*
X1433500Y410323D01*
D02*
G37*
G36*
X1282250Y407323D02*
X1280787Y407032D01*
X1279546Y406204D01*
X1278718Y404963D01*
X1278427Y403500D01*
X1278718Y402037D01*
X1279546Y400796D01*
X1280787Y399968D01*
X1281543Y399817D01*
X1282175Y399011D01*
X1282146Y398755D01*
X1281901Y397525D01*
X1282192Y396062D01*
X1283021Y394822D01*
X1284262Y393993D01*
X1285725Y393702D01*
X1287188Y393993D01*
X1288428Y394822D01*
X1289257Y396062D01*
X1289548Y397525D01*
X1289257Y398988D01*
X1288428Y400229D01*
X1287188Y401058D01*
X1286431Y401208D01*
X1285800Y402014D01*
X1285829Y402270D01*
X1286073Y403500D01*
X1285782Y404963D01*
X1284954Y406204D01*
X1283713Y407032D01*
X1282250Y407323D01*
D02*
G37*
G36*
X1322500Y395323D02*
X1321037Y395032D01*
X1319796Y394204D01*
X1318968Y392963D01*
X1318677Y391500D01*
X1318968Y390037D01*
X1319796Y388796D01*
X1321037Y387968D01*
X1322500Y387677D01*
X1323963Y387968D01*
X1325204Y388796D01*
X1326032Y390037D01*
X1326323Y391500D01*
X1326032Y392963D01*
X1325204Y394204D01*
X1323963Y395032D01*
X1322500Y395323D01*
D02*
G37*
G36*
X1433500Y392323D02*
X1432037Y392032D01*
X1430796Y391204D01*
X1429968Y389963D01*
X1429677Y388500D01*
X1429968Y387037D01*
X1430796Y385796D01*
X1432037Y384968D01*
X1433500Y384677D01*
X1434963Y384968D01*
X1436204Y385796D01*
X1437032Y387037D01*
X1437323Y388500D01*
X1437032Y389963D01*
X1436204Y391204D01*
X1434963Y392032D01*
X1433500Y392323D01*
D02*
G37*
G36*
X1405000Y387574D02*
X1403537Y387282D01*
X1402296Y386454D01*
X1401468Y385213D01*
X1401177Y383750D01*
X1401468Y382287D01*
X1402296Y381046D01*
X1403537Y380218D01*
X1404431Y380040D01*
X1404582Y380010D01*
Y378990D01*
X1404431Y378960D01*
X1403537Y378782D01*
X1402296Y377954D01*
X1401468Y376713D01*
X1401177Y375250D01*
X1401468Y373787D01*
X1402296Y372546D01*
X1403537Y371718D01*
X1405000Y371427D01*
X1406463Y371718D01*
X1407704Y372546D01*
X1408532Y373787D01*
X1408824Y375250D01*
X1408532Y376713D01*
X1407704Y377954D01*
X1406463Y378782D01*
X1405569Y378960D01*
X1405419Y378990D01*
Y380010D01*
X1405569Y380040D01*
X1406463Y380218D01*
X1407704Y381046D01*
X1408532Y382287D01*
X1408824Y383750D01*
X1408532Y385213D01*
X1407704Y386454D01*
X1406463Y387282D01*
X1405000Y387574D01*
D02*
G37*
G36*
X1351000Y377323D02*
X1349537Y377032D01*
X1348296Y376204D01*
X1347468Y374963D01*
X1347177Y373500D01*
X1347468Y372037D01*
X1348296Y370796D01*
X1349537Y369968D01*
X1351000Y369677D01*
X1352463Y369968D01*
X1353704Y370796D01*
X1354532Y372037D01*
X1354823Y373500D01*
X1354532Y374963D01*
X1353704Y376204D01*
X1352463Y377032D01*
X1351000Y377323D01*
D02*
G37*
G36*
X1433500Y374323D02*
X1432037Y374032D01*
X1430796Y373204D01*
X1429968Y371963D01*
X1429677Y370500D01*
X1429968Y369037D01*
X1430796Y367796D01*
X1432037Y366968D01*
X1433500Y366677D01*
X1434963Y366968D01*
X1436204Y367796D01*
X1437032Y369037D01*
X1437323Y370500D01*
X1437032Y371963D01*
X1436204Y373204D01*
X1434963Y374032D01*
X1433500Y374323D01*
D02*
G37*
G36*
X1405000Y369574D02*
X1403537Y369282D01*
X1402296Y368454D01*
X1401468Y367213D01*
X1401177Y365750D01*
X1401468Y364287D01*
X1402296Y363046D01*
X1403537Y362218D01*
X1404431Y362040D01*
X1404582Y362010D01*
Y360990D01*
X1404431Y360960D01*
X1403537Y360782D01*
X1402296Y359954D01*
X1401468Y358713D01*
X1401177Y357250D01*
X1401468Y355787D01*
X1402296Y354546D01*
X1403537Y353718D01*
X1405000Y353427D01*
X1406463Y353718D01*
X1407704Y354546D01*
X1408532Y355787D01*
X1408824Y357250D01*
X1408532Y358713D01*
X1407704Y359954D01*
X1406463Y360782D01*
X1405569Y360960D01*
X1405419Y360990D01*
Y362010D01*
X1405569Y362040D01*
X1406463Y362218D01*
X1407704Y363046D01*
X1408532Y364287D01*
X1408824Y365750D01*
X1408532Y367213D01*
X1407704Y368454D01*
X1406463Y369282D01*
X1405000Y369574D01*
D02*
G37*
G36*
X1322500Y359323D02*
X1321037Y359032D01*
X1319796Y358204D01*
X1318968Y356963D01*
X1318677Y355500D01*
X1318968Y354037D01*
X1319796Y352796D01*
X1321037Y351968D01*
X1322500Y351677D01*
X1323963Y351968D01*
X1325204Y352796D01*
X1326032Y354037D01*
X1326323Y355500D01*
X1326032Y356963D01*
X1325204Y358204D01*
X1323963Y359032D01*
X1322500Y359323D01*
D02*
G37*
G36*
X1433500Y356323D02*
X1432037Y356032D01*
X1430796Y355204D01*
X1429968Y353963D01*
X1429677Y352500D01*
X1429968Y351037D01*
X1430796Y349796D01*
X1432037Y348968D01*
X1433500Y348677D01*
X1434963Y348968D01*
X1436204Y349796D01*
X1437032Y351037D01*
X1437323Y352500D01*
X1437032Y353963D01*
X1436204Y355204D01*
X1434963Y356032D01*
X1433500Y356323D01*
D02*
G37*
G36*
X1351000Y341323D02*
X1349537Y341032D01*
X1348296Y340204D01*
X1347468Y338963D01*
X1347177Y337500D01*
X1347468Y336037D01*
X1348296Y334796D01*
X1349537Y333968D01*
X1351000Y333677D01*
X1352463Y333968D01*
X1353704Y334796D01*
X1354532Y336037D01*
X1354823Y337500D01*
X1354532Y338963D01*
X1353704Y340204D01*
X1352463Y341032D01*
X1351000Y341323D01*
D02*
G37*
G36*
X1433500Y338323D02*
X1432037Y338032D01*
X1430796Y337204D01*
X1429968Y335963D01*
X1429677Y334500D01*
X1429968Y333037D01*
X1430796Y331796D01*
X1432037Y330968D01*
X1433500Y330677D01*
X1434963Y330968D01*
X1436204Y331796D01*
X1437032Y333037D01*
X1437323Y334500D01*
X1437032Y335963D01*
X1436204Y337204D01*
X1434963Y338032D01*
X1433500Y338323D01*
D02*
G37*
G36*
X1351000Y323323D02*
X1349537Y323032D01*
X1348296Y322204D01*
X1347468Y320963D01*
X1347177Y319500D01*
X1347468Y318037D01*
X1348296Y316796D01*
X1349537Y315968D01*
X1351000Y315677D01*
X1352463Y315968D01*
X1353704Y316796D01*
X1354532Y318037D01*
X1354823Y319500D01*
X1354532Y320963D01*
X1353704Y322204D01*
X1352463Y323032D01*
X1351000Y323323D01*
D02*
G37*
G36*
X1433500Y320323D02*
X1432037Y320032D01*
X1430796Y319204D01*
X1429968Y317963D01*
X1429677Y316500D01*
X1429968Y315037D01*
X1430796Y313796D01*
X1432037Y312968D01*
X1433500Y312677D01*
X1434963Y312968D01*
X1436204Y313796D01*
X1437032Y315037D01*
X1437323Y316500D01*
X1437032Y317963D01*
X1436204Y319204D01*
X1434963Y320032D01*
X1433500Y320323D01*
D02*
G37*
G36*
X1405000Y315574D02*
X1403537Y315282D01*
X1402296Y314454D01*
X1401468Y313213D01*
X1401177Y311750D01*
X1401468Y310287D01*
X1402296Y309046D01*
X1403537Y308218D01*
X1404431Y308040D01*
X1404582Y308010D01*
Y306990D01*
X1404431Y306960D01*
X1403537Y306782D01*
X1402296Y305954D01*
X1401468Y304713D01*
X1401177Y303250D01*
X1401468Y301787D01*
X1402296Y300546D01*
X1403537Y299718D01*
X1405000Y299427D01*
X1406463Y299718D01*
X1407704Y300546D01*
X1408532Y301787D01*
X1408824Y303250D01*
X1408532Y304713D01*
X1407704Y305954D01*
X1406463Y306782D01*
X1405569Y306960D01*
X1405419Y306990D01*
Y308010D01*
X1405569Y308040D01*
X1406463Y308218D01*
X1407704Y309046D01*
X1408532Y310287D01*
X1408824Y311750D01*
X1408532Y313213D01*
X1407704Y314454D01*
X1406463Y315282D01*
X1405000Y315574D01*
D02*
G37*
G36*
X1351000Y305323D02*
X1349537Y305032D01*
X1348296Y304204D01*
X1347468Y302963D01*
X1347177Y301500D01*
X1347468Y300037D01*
X1348296Y298796D01*
X1349537Y297968D01*
X1351000Y297677D01*
X1352463Y297968D01*
X1353704Y298796D01*
X1354532Y300037D01*
X1354823Y301500D01*
X1354532Y302963D01*
X1353704Y304204D01*
X1352463Y305032D01*
X1351000Y305323D01*
D02*
G37*
G36*
X1433500Y302323D02*
X1432037Y302032D01*
X1430796Y301204D01*
X1429968Y299963D01*
X1429677Y298500D01*
X1429968Y297037D01*
X1430796Y295796D01*
X1432037Y294968D01*
X1433500Y294677D01*
X1434963Y294968D01*
X1436204Y295796D01*
X1437032Y297037D01*
X1437323Y298500D01*
X1437032Y299963D01*
X1436204Y301204D01*
X1434963Y302032D01*
X1433500Y302323D01*
D02*
G37*
G36*
X1190000Y317600D02*
X1186765Y317282D01*
X1183655Y316338D01*
X1180789Y314806D01*
X1178276Y312744D01*
X1176214Y310232D01*
X1174682Y307365D01*
X1173739Y304255D01*
X1173420Y301021D01*
X1173739Y297786D01*
X1174682Y294676D01*
X1176214Y291809D01*
X1178276Y289297D01*
X1180789Y287235D01*
X1183655Y285703D01*
X1186765Y284759D01*
X1190000Y284441D01*
X1193234Y284759D01*
X1196345Y285703D01*
X1199211Y287235D01*
X1201724Y289297D01*
X1203786Y291809D01*
X1205318Y294676D01*
X1206261Y297786D01*
X1206580Y301021D01*
X1206261Y304255D01*
X1205318Y307365D01*
X1203786Y310232D01*
X1201724Y312744D01*
X1199211Y314806D01*
X1196345Y316338D01*
X1193234Y317282D01*
X1190000Y317600D01*
D02*
G37*
G36*
X1351000Y287323D02*
X1349537Y287032D01*
X1348296Y286204D01*
X1347468Y284963D01*
X1347177Y283500D01*
X1347468Y282037D01*
X1348296Y280796D01*
X1349537Y279968D01*
X1351000Y279677D01*
X1352463Y279968D01*
X1353704Y280796D01*
X1354532Y282037D01*
X1354823Y283500D01*
X1354532Y284963D01*
X1353704Y286204D01*
X1352463Y287032D01*
X1351000Y287323D01*
D02*
G37*
G36*
Y269323D02*
X1349537Y269032D01*
X1348296Y268204D01*
X1347468Y266963D01*
X1347177Y265500D01*
X1347468Y264037D01*
X1348296Y262796D01*
X1349537Y261968D01*
X1351000Y261677D01*
X1352463Y261968D01*
X1353704Y262796D01*
X1354532Y264037D01*
X1354823Y265500D01*
X1354532Y266963D01*
X1353704Y268204D01*
X1352463Y269032D01*
X1351000Y269323D01*
D02*
G37*
G36*
X1433500Y266323D02*
X1432037Y266032D01*
X1430796Y265204D01*
X1429968Y263963D01*
X1429677Y262500D01*
X1429968Y261037D01*
X1430796Y259796D01*
X1432037Y258968D01*
X1433500Y258677D01*
X1434963Y258968D01*
X1436204Y259796D01*
X1437032Y261037D01*
X1437323Y262500D01*
X1437032Y263963D01*
X1436204Y265204D01*
X1434963Y266032D01*
X1433500Y266323D01*
D02*
G37*
G36*
X1351000Y251323D02*
X1349537Y251032D01*
X1348296Y250204D01*
X1347468Y248963D01*
X1347177Y247500D01*
X1347468Y246037D01*
X1348296Y244796D01*
X1349537Y243968D01*
X1351000Y243677D01*
X1352463Y243968D01*
X1353704Y244796D01*
X1354532Y246037D01*
X1354823Y247500D01*
X1354532Y248963D01*
X1353704Y250204D01*
X1352463Y251032D01*
X1351000Y251323D01*
D02*
G37*
G36*
X1433500Y248323D02*
X1432037Y248032D01*
X1430796Y247204D01*
X1429968Y245963D01*
X1429677Y244500D01*
X1429968Y243037D01*
X1430796Y241796D01*
X1432037Y240968D01*
X1433500Y240677D01*
X1434963Y240968D01*
X1436204Y241796D01*
X1437032Y243037D01*
X1437323Y244500D01*
X1437032Y245963D01*
X1436204Y247204D01*
X1434963Y248032D01*
X1433500Y248323D01*
D02*
G37*
G36*
X1351000Y233323D02*
X1349537Y233032D01*
X1348296Y232204D01*
X1347468Y230963D01*
X1347177Y229500D01*
X1347468Y228037D01*
X1348296Y226796D01*
X1349537Y225968D01*
X1351000Y225677D01*
X1352463Y225968D01*
X1353704Y226796D01*
X1354532Y228037D01*
X1354823Y229500D01*
X1354532Y230963D01*
X1353704Y232204D01*
X1352463Y233032D01*
X1351000Y233323D01*
D02*
G37*
G36*
X1433500Y230323D02*
X1432037Y230032D01*
X1430796Y229204D01*
X1429968Y227963D01*
X1429677Y226500D01*
X1429968Y225037D01*
X1430796Y223796D01*
X1432037Y222968D01*
X1433500Y222677D01*
X1434963Y222968D01*
X1436204Y223796D01*
X1437032Y225037D01*
X1437323Y226500D01*
X1437032Y227963D01*
X1436204Y229204D01*
X1434963Y230032D01*
X1433500Y230323D01*
D02*
G37*
G36*
X960000Y223823D02*
X958537Y223532D01*
X957296Y222704D01*
X956468Y221463D01*
X956177Y220000D01*
X956468Y218537D01*
X957296Y217296D01*
X958537Y216468D01*
X960000Y216177D01*
X961463Y216468D01*
X962704Y217296D01*
X963532Y218537D01*
X963823Y220000D01*
X963532Y221463D01*
X962704Y222704D01*
X961463Y223532D01*
X960000Y223823D01*
D02*
G37*
G36*
X1318000Y228823D02*
X1316537Y228532D01*
X1315296Y227704D01*
X1314468Y226463D01*
X1314177Y225000D01*
X1314468Y223537D01*
X1315296Y222296D01*
X1316537Y221468D01*
X1317431Y221290D01*
X1317581Y221260D01*
Y220240D01*
X1317431Y220210D01*
X1316537Y220032D01*
X1315296Y219204D01*
X1314468Y217963D01*
X1314177Y216500D01*
X1314468Y215037D01*
X1315296Y213796D01*
X1316537Y212968D01*
X1318000Y212677D01*
X1319463Y212968D01*
X1320704Y213796D01*
X1321532Y215037D01*
X1321823Y216500D01*
X1321532Y217963D01*
X1320704Y219204D01*
X1319463Y220032D01*
X1318569Y220210D01*
X1318418Y220240D01*
Y221260D01*
X1318569Y221290D01*
X1319463Y221468D01*
X1320704Y222296D01*
X1321532Y223537D01*
X1321823Y225000D01*
X1321532Y226463D01*
X1320704Y227704D01*
X1319463Y228532D01*
X1318000Y228823D01*
D02*
G37*
G36*
X1351000Y215323D02*
X1349537Y215032D01*
X1348296Y214204D01*
X1347468Y212963D01*
X1347177Y211500D01*
X1347468Y210037D01*
X1348296Y208796D01*
X1349537Y207968D01*
X1351000Y207677D01*
X1352463Y207968D01*
X1353704Y208796D01*
X1354532Y210037D01*
X1354823Y211500D01*
X1354532Y212963D01*
X1353704Y214204D01*
X1352463Y215032D01*
X1351000Y215323D01*
D02*
G37*
G36*
X1433500Y212323D02*
X1432037Y212032D01*
X1430796Y211204D01*
X1429968Y209963D01*
X1429677Y208500D01*
X1429968Y207037D01*
X1430796Y205796D01*
X1432037Y204968D01*
X1433500Y204677D01*
X1434963Y204968D01*
X1436204Y205796D01*
X1437032Y207037D01*
X1437323Y208500D01*
X1437032Y209963D01*
X1436204Y211204D01*
X1434963Y212032D01*
X1433500Y212323D01*
D02*
G37*
G36*
X1319500Y210574D02*
X1318037Y210282D01*
X1316797Y209454D01*
X1315968Y208213D01*
X1315677Y206750D01*
X1315968Y205287D01*
X1316797Y204046D01*
X1318037Y203218D01*
X1318931Y203040D01*
X1319082Y203010D01*
Y201990D01*
X1318931Y201960D01*
X1318037Y201782D01*
X1316797Y200954D01*
X1315968Y199713D01*
X1315677Y198250D01*
X1315968Y196787D01*
X1316797Y195546D01*
X1318037Y194718D01*
X1319500Y194427D01*
X1320963Y194718D01*
X1322204Y195546D01*
X1323032Y196787D01*
X1323324Y198250D01*
X1323032Y199713D01*
X1322204Y200954D01*
X1320963Y201782D01*
X1320069Y201960D01*
X1319919Y201990D01*
Y203010D01*
X1320069Y203040D01*
X1320963Y203218D01*
X1322204Y204046D01*
X1323032Y205287D01*
X1323324Y206750D01*
X1323032Y208213D01*
X1322204Y209454D01*
X1320963Y210282D01*
X1319500Y210574D01*
D02*
G37*
G36*
X1071000Y200823D02*
X1069537Y200532D01*
X1068296Y199704D01*
X1067468Y198463D01*
X1067177Y197000D01*
X1067468Y195537D01*
X1068296Y194296D01*
X1069537Y193468D01*
X1071000Y193177D01*
X1072463Y193468D01*
X1073704Y194296D01*
X1074532Y195537D01*
X1074823Y197000D01*
X1074532Y198463D01*
X1073704Y199704D01*
X1072463Y200532D01*
X1071000Y200823D01*
D02*
G37*
G36*
X1351000Y197323D02*
X1349537Y197032D01*
X1348296Y196204D01*
X1347468Y194963D01*
X1347177Y193500D01*
X1347468Y192037D01*
X1348296Y190796D01*
X1349537Y189968D01*
X1351000Y189677D01*
X1352463Y189968D01*
X1353704Y190796D01*
X1354532Y192037D01*
X1354823Y193500D01*
X1354532Y194963D01*
X1353704Y196204D01*
X1352463Y197032D01*
X1351000Y197323D01*
D02*
G37*
G36*
X1158590Y186413D02*
X1157127Y186122D01*
X1155887Y185294D01*
X1155058Y184053D01*
X1154767Y182590D01*
X1155058Y181127D01*
X1155887Y179886D01*
X1157127Y179058D01*
X1158590Y178767D01*
X1160053Y179058D01*
X1161294Y179886D01*
X1162122Y181127D01*
X1162413Y182590D01*
X1162122Y184053D01*
X1161294Y185294D01*
X1160053Y186122D01*
X1158590Y186413D01*
D02*
G37*
G36*
X1315500Y191324D02*
X1314037Y191032D01*
X1312796Y190204D01*
X1311968Y188963D01*
X1311677Y187500D01*
X1311968Y186037D01*
X1312796Y184797D01*
X1314037Y183968D01*
X1315500Y183677D01*
X1316963Y183968D01*
X1317721Y184474D01*
X1317849Y184559D01*
X1318570Y183838D01*
X1318484Y183711D01*
X1317978Y182953D01*
X1317687Y181490D01*
X1317978Y180026D01*
X1318807Y178786D01*
X1320047Y177957D01*
X1321510Y177666D01*
X1322974Y177957D01*
X1324214Y178786D01*
X1325043Y180026D01*
X1325334Y181490D01*
X1325043Y182953D01*
X1324214Y184193D01*
X1322974Y185022D01*
X1321510Y185313D01*
X1320047Y185022D01*
X1319289Y184516D01*
X1319162Y184430D01*
X1318441Y185151D01*
X1318526Y185279D01*
X1319032Y186037D01*
X1319323Y187500D01*
X1319032Y188963D01*
X1318204Y190204D01*
X1316963Y191032D01*
X1315500Y191324D01*
D02*
G37*
G36*
X969000Y179823D02*
X967537Y179532D01*
X966296Y178704D01*
X965468Y177463D01*
X965177Y176000D01*
X965468Y174537D01*
X966296Y173296D01*
X967537Y172468D01*
X969000Y172177D01*
X970463Y172468D01*
X971704Y173296D01*
X972532Y174537D01*
X972823Y176000D01*
X972532Y177463D01*
X971704Y178704D01*
X970463Y179532D01*
X969000Y179823D01*
D02*
G37*
G36*
X1351000Y179323D02*
X1349537Y179032D01*
X1348296Y178204D01*
X1347468Y176963D01*
X1347177Y175500D01*
X1347468Y174037D01*
X1348296Y172796D01*
X1349537Y171968D01*
X1351000Y171677D01*
X1352463Y171968D01*
X1353704Y172796D01*
X1354532Y174037D01*
X1354823Y175500D01*
X1354532Y176963D01*
X1353704Y178204D01*
X1352463Y179032D01*
X1351000Y179323D01*
D02*
G37*
G36*
X1110000Y177823D02*
X1108537Y177532D01*
X1107296Y176704D01*
X1106468Y175463D01*
X1106177Y174000D01*
X1106468Y172537D01*
X1107296Y171296D01*
X1108537Y170468D01*
X1110000Y170177D01*
X1111463Y170468D01*
X1112704Y171296D01*
X1113532Y172537D01*
X1113823Y174000D01*
X1113532Y175463D01*
X1112704Y176704D01*
X1111463Y177532D01*
X1110000Y177823D01*
D02*
G37*
G36*
X983000D02*
X981537Y177532D01*
X980296Y176704D01*
X979468Y175463D01*
X979177Y174000D01*
X979468Y172537D01*
X980296Y171296D01*
X981537Y170468D01*
X983000Y170177D01*
X984463Y170468D01*
X985704Y171296D01*
X986532Y172537D01*
X986823Y174000D01*
X986532Y175463D01*
X985704Y176704D01*
X984463Y177532D01*
X983000Y177823D01*
D02*
G37*
G36*
X1433500Y176323D02*
X1432037Y176032D01*
X1430796Y175204D01*
X1429968Y173963D01*
X1429677Y172500D01*
X1429968Y171037D01*
X1430796Y169796D01*
X1432037Y168968D01*
X1433500Y168677D01*
X1434963Y168968D01*
X1436204Y169796D01*
X1437032Y171037D01*
X1437323Y172500D01*
X1437032Y173963D01*
X1436204Y175204D01*
X1434963Y176032D01*
X1433500Y176323D01*
D02*
G37*
G36*
X1399000Y162823D02*
X1397537Y162532D01*
X1396296Y161704D01*
X1395468Y160463D01*
X1395177Y159000D01*
X1395468Y157537D01*
X1396296Y156296D01*
X1397537Y155468D01*
X1399000Y155177D01*
X1400463Y155468D01*
X1401704Y156296D01*
X1402532Y157537D01*
X1402823Y159000D01*
X1402532Y160463D01*
X1401704Y161704D01*
X1400463Y162532D01*
X1399000Y162823D01*
D02*
G37*
G36*
X1351000Y161323D02*
X1349537Y161032D01*
X1348296Y160204D01*
X1347468Y158963D01*
X1347177Y157500D01*
X1347468Y156037D01*
X1348296Y154796D01*
X1349537Y153968D01*
X1351000Y153677D01*
X1352463Y153968D01*
X1353704Y154796D01*
X1354532Y156037D01*
X1354823Y157500D01*
X1354532Y158963D01*
X1353704Y160204D01*
X1352463Y161032D01*
X1351000Y161323D01*
D02*
G37*
G36*
X1186980Y154803D02*
X1185517Y154512D01*
X1184276Y153684D01*
X1183447Y152443D01*
X1183157Y150980D01*
X1183447Y149517D01*
X1184276Y148276D01*
X1185517Y147448D01*
X1186980Y147156D01*
X1188443Y147448D01*
X1189684Y148276D01*
X1190512Y149517D01*
X1190803Y150980D01*
X1190512Y152443D01*
X1189684Y153684D01*
X1188443Y154512D01*
X1186980Y154803D01*
D02*
G37*
G36*
X1271000Y154573D02*
X1269537Y154282D01*
X1268296Y153454D01*
X1267468Y152213D01*
X1267177Y150750D01*
X1267468Y149287D01*
X1268296Y148046D01*
X1269537Y147218D01*
X1271000Y146927D01*
X1272463Y147218D01*
X1273704Y148046D01*
X1274532Y149287D01*
X1274823Y150750D01*
X1274532Y152213D01*
X1273704Y153454D01*
X1272463Y154282D01*
X1271000Y154573D01*
D02*
G37*
G36*
X978000Y152823D02*
X976537Y152532D01*
X975296Y151704D01*
X974468Y150463D01*
X974177Y149000D01*
X974468Y147537D01*
X975296Y146296D01*
X976537Y145468D01*
X978000Y145177D01*
X979463Y145468D01*
X980704Y146296D01*
X981532Y147537D01*
X981823Y149000D01*
X981532Y150463D01*
X980704Y151704D01*
X979463Y152532D01*
X978000Y152823D01*
D02*
G37*
G36*
X960000Y151823D02*
X958537Y151532D01*
X957296Y150704D01*
X956468Y149463D01*
X956177Y148000D01*
X956468Y146537D01*
X957296Y145296D01*
X958537Y144468D01*
X960000Y144177D01*
X961463Y144468D01*
X962704Y145296D01*
X963532Y146537D01*
X963823Y148000D01*
X963532Y149463D01*
X962704Y150704D01*
X961463Y151532D01*
X960000Y151823D01*
D02*
G37*
G36*
X1276250Y132823D02*
X1274787Y132532D01*
X1273546Y131704D01*
X1272718Y130463D01*
X1272427Y129000D01*
X1272718Y127537D01*
X1273546Y126296D01*
X1274787Y125468D01*
X1276250Y125177D01*
X1277713Y125468D01*
X1278954Y126296D01*
X1279782Y127537D01*
X1280073Y129000D01*
X1279782Y130463D01*
X1278954Y131704D01*
X1277713Y132532D01*
X1276250Y132823D01*
D02*
G37*
G36*
X1181980Y131803D02*
X1180517Y131512D01*
X1179276Y130683D01*
X1178448Y129443D01*
X1178157Y127980D01*
X1178448Y126517D01*
X1179276Y125276D01*
X1180517Y124448D01*
X1181980Y124157D01*
X1183443Y124448D01*
X1184684Y125276D01*
X1185512Y126517D01*
X1185803Y127980D01*
X1185512Y129443D01*
X1184684Y130683D01*
X1183443Y131512D01*
X1181980Y131803D01*
D02*
G37*
G36*
X979000Y130823D02*
X977537Y130532D01*
X976296Y129704D01*
X975468Y128463D01*
X975177Y127000D01*
X975468Y125537D01*
X976296Y124296D01*
X977537Y123468D01*
X979000Y123177D01*
X980463Y123468D01*
X981704Y124296D01*
X982532Y125537D01*
X982823Y127000D01*
X982532Y128463D01*
X981704Y129704D01*
X980463Y130532D01*
X979000Y130823D01*
D02*
G37*
G36*
X1095450Y128124D02*
X1093987Y127832D01*
X1092746Y127004D01*
X1091917Y125763D01*
X1091626Y124300D01*
X1091917Y122837D01*
X1092746Y121596D01*
X1093987Y120768D01*
X1095450Y120477D01*
X1096913Y120768D01*
X1098154Y121596D01*
X1098982Y122837D01*
X1099273Y124300D01*
X1098982Y125763D01*
X1098154Y127004D01*
X1096913Y127832D01*
X1095450Y128124D01*
D02*
G37*
G36*
X1351000Y125323D02*
X1349537Y125032D01*
X1348296Y124204D01*
X1347468Y122963D01*
X1347177Y121500D01*
X1347468Y120037D01*
X1348296Y118796D01*
X1349537Y117968D01*
X1351000Y117677D01*
X1352463Y117968D01*
X1353704Y118796D01*
X1354532Y120037D01*
X1354823Y121500D01*
X1354532Y122963D01*
X1353704Y124204D01*
X1352463Y125032D01*
X1351000Y125323D01*
D02*
G37*
G36*
X1433500Y122323D02*
X1432037Y122032D01*
X1430796Y121204D01*
X1429968Y119963D01*
X1429677Y118500D01*
X1429968Y117037D01*
X1430796Y115796D01*
X1432037Y114968D01*
X1433500Y114677D01*
X1434963Y114968D01*
X1436204Y115796D01*
X1437032Y117037D01*
X1437323Y118500D01*
X1437032Y119963D01*
X1436204Y121204D01*
X1434963Y122032D01*
X1433500Y122323D01*
D02*
G37*
G36*
X1024000Y118823D02*
X1022537Y118532D01*
X1021296Y117704D01*
X1020468Y116463D01*
X1020177Y115000D01*
X1020468Y113537D01*
X1021296Y112296D01*
X1022537Y111468D01*
X1024000Y111177D01*
X1025463Y111468D01*
X1026704Y112296D01*
X1027532Y113537D01*
X1027823Y115000D01*
X1027532Y116463D01*
X1026704Y117704D01*
X1025463Y118532D01*
X1024000Y118823D01*
D02*
G37*
G36*
X980000Y111823D02*
X978537Y111532D01*
X977296Y110704D01*
X976468Y109463D01*
X976177Y108000D01*
X976468Y106537D01*
X977296Y105296D01*
X978537Y104468D01*
X980000Y104177D01*
X981463Y104468D01*
X982704Y105296D01*
X983532Y106537D01*
X983823Y108000D01*
X983532Y109463D01*
X982704Y110704D01*
X981463Y111532D01*
X980000Y111823D01*
D02*
G37*
G36*
X962000D02*
X960537Y111532D01*
X959296Y110704D01*
X958468Y109463D01*
X958177Y108000D01*
X958468Y106537D01*
X959296Y105296D01*
X960537Y104468D01*
X962000Y104177D01*
X963463Y104468D01*
X964704Y105296D01*
X965532Y106537D01*
X965823Y108000D01*
X965532Y109463D01*
X964704Y110704D01*
X963463Y111532D01*
X962000Y111823D01*
D02*
G37*
G36*
X1273000Y110823D02*
X1271537Y110532D01*
X1270296Y109704D01*
X1269468Y108463D01*
X1269177Y107000D01*
X1269468Y105537D01*
X1270296Y104296D01*
X1271537Y103468D01*
X1273000Y103177D01*
X1274463Y103468D01*
X1275704Y104296D01*
X1276532Y105537D01*
X1276823Y107000D01*
X1276532Y108463D01*
X1275704Y109704D01*
X1274463Y110532D01*
X1273000Y110823D01*
D02*
G37*
G36*
X1351000Y107323D02*
X1349537Y107032D01*
X1348296Y106204D01*
X1347468Y104963D01*
X1347177Y103500D01*
X1347468Y102037D01*
X1348296Y100796D01*
X1349537Y99968D01*
X1351000Y99677D01*
X1352463Y99968D01*
X1353704Y100796D01*
X1354532Y102037D01*
X1354823Y103500D01*
X1354532Y104963D01*
X1353704Y106204D01*
X1352463Y107032D01*
X1351000Y107323D01*
D02*
G37*
G36*
X1006000Y104823D02*
X1004537Y104532D01*
X1003296Y103704D01*
X1002468Y102463D01*
X1002177Y101000D01*
X1002468Y99537D01*
X1003296Y98296D01*
X1004537Y97468D01*
X1006000Y97177D01*
X1007463Y97468D01*
X1008704Y98296D01*
X1009532Y99537D01*
X1009823Y101000D01*
X1009532Y102463D01*
X1008704Y103704D01*
X1007463Y104532D01*
X1006000Y104823D01*
D02*
G37*
G36*
X1433500Y104323D02*
X1432037Y104032D01*
X1430796Y103204D01*
X1429968Y101963D01*
X1429677Y100500D01*
X1429968Y99037D01*
X1430796Y97796D01*
X1432037Y96968D01*
X1433500Y96677D01*
X1434963Y96968D01*
X1436204Y97796D01*
X1437032Y99037D01*
X1437323Y100500D01*
X1437032Y101963D01*
X1436204Y103204D01*
X1434963Y104032D01*
X1433500Y104323D01*
D02*
G37*
G36*
X1150980Y101803D02*
X1149517Y101512D01*
X1148276Y100683D01*
X1147448Y99443D01*
X1147157Y97980D01*
X1147448Y96517D01*
X1148276Y95276D01*
X1149517Y94447D01*
X1150980Y94157D01*
X1152443Y94447D01*
X1153683Y95276D01*
X1154512Y96517D01*
X1154803Y97980D01*
X1154512Y99443D01*
X1153683Y100683D01*
X1152443Y101512D01*
X1150980Y101803D01*
D02*
G37*
G36*
X980500Y83823D02*
X979037Y83532D01*
X977796Y82704D01*
X976968Y81463D01*
X976677Y80000D01*
X976968Y78537D01*
X977796Y77296D01*
X979037Y76468D01*
X980500Y76177D01*
X981963Y76468D01*
X983204Y77296D01*
X984032Y78537D01*
X984323Y80000D01*
X984032Y81463D01*
X983204Y82704D01*
X981963Y83532D01*
X980500Y83823D01*
D02*
G37*
G36*
X969000Y83573D02*
X967537Y83282D01*
X966296Y82454D01*
X965468Y81213D01*
X965177Y79750D01*
X965468Y78287D01*
X966296Y77046D01*
X967537Y76218D01*
X969000Y75927D01*
X970463Y76218D01*
X971704Y77046D01*
X972532Y78287D01*
X972823Y79750D01*
X972532Y81213D01*
X971704Y82454D01*
X970463Y83282D01*
X969000Y83573D01*
D02*
G37*
G36*
X1351000Y83323D02*
X1349537Y83032D01*
X1348296Y82204D01*
X1347468Y80963D01*
X1347177Y79500D01*
X1347468Y78037D01*
X1348296Y76796D01*
X1349537Y75968D01*
X1351000Y75677D01*
X1352463Y75968D01*
X1353704Y76796D01*
X1354532Y78037D01*
X1354823Y79500D01*
X1354532Y80963D01*
X1353704Y82204D01*
X1352463Y83032D01*
X1351000Y83323D01*
D02*
G37*
G36*
X1433500Y80323D02*
X1432037Y80032D01*
X1430796Y79204D01*
X1429968Y77963D01*
X1429677Y76500D01*
X1429968Y75037D01*
X1430796Y73796D01*
X1432037Y72968D01*
X1433500Y72677D01*
X1434963Y72968D01*
X1436204Y73796D01*
X1437032Y75037D01*
X1437323Y76500D01*
X1437032Y77963D01*
X1436204Y79204D01*
X1434963Y80032D01*
X1433500Y80323D01*
D02*
G37*
G36*
X1184750Y72073D02*
X1183287Y71782D01*
X1182046Y70954D01*
X1181218Y69713D01*
X1180927Y68250D01*
X1181218Y66787D01*
X1182046Y65546D01*
X1183287Y64718D01*
X1184750Y64427D01*
X1186213Y64718D01*
X1187454Y65546D01*
X1188282Y66787D01*
X1188573Y68250D01*
X1188282Y69713D01*
X1187454Y70954D01*
X1186213Y71782D01*
X1184750Y72073D01*
D02*
G37*
G36*
X1737000Y88580D02*
X1733765Y88261D01*
X1730655Y87318D01*
X1727789Y85786D01*
X1725276Y83724D01*
X1723214Y81211D01*
X1721682Y78345D01*
X1720739Y75234D01*
X1720420Y72000D01*
X1720739Y68765D01*
X1721682Y65655D01*
X1723214Y62789D01*
X1725276Y60276D01*
X1727789Y58214D01*
X1730655Y56682D01*
X1733765Y55739D01*
X1737000Y55420D01*
X1740235Y55739D01*
X1743345Y56682D01*
X1746211Y58214D01*
X1748724Y60276D01*
X1750786Y62789D01*
X1752318Y65655D01*
X1753261Y68765D01*
X1753580Y72000D01*
X1753261Y75234D01*
X1752318Y78345D01*
X1750786Y81211D01*
X1748724Y83724D01*
X1746211Y85786D01*
X1743345Y87318D01*
X1740235Y88261D01*
X1737000Y88580D01*
D02*
G37*
G36*
X1303000Y62824D02*
X1301537Y62533D01*
X1300296Y61704D01*
X1299468Y60463D01*
X1299176Y59000D01*
X1299468Y57537D01*
X1300296Y56297D01*
X1301537Y55468D01*
X1303000Y55177D01*
X1304463Y55468D01*
X1305703Y56297D01*
X1306532Y57537D01*
X1306823Y59000D01*
X1306532Y60463D01*
X1305703Y61704D01*
X1304463Y62533D01*
X1303000Y62824D01*
D02*
G37*
G36*
X1095450Y57273D02*
X1093987Y56982D01*
X1092746Y56153D01*
X1091917Y54913D01*
X1091627Y53450D01*
X1091917Y51987D01*
X1092746Y50746D01*
X1093987Y49917D01*
X1095450Y49626D01*
X1096913Y49917D01*
X1098154Y50746D01*
X1098982Y51987D01*
X1099273Y53450D01*
X1098982Y54913D01*
X1098154Y56153D01*
X1096913Y56982D01*
X1095450Y57273D01*
D02*
G37*
G36*
X1377500Y57591D02*
X1374759Y57230D01*
X1372205Y56172D01*
X1370011Y54489D01*
X1368328Y52295D01*
X1367270Y49741D01*
X1366909Y47000D01*
X1367270Y44259D01*
X1368328Y41705D01*
X1370011Y39511D01*
X1372205Y37828D01*
X1374759Y36770D01*
X1377500Y36409D01*
X1380241Y36770D01*
X1382795Y37828D01*
X1384989Y39511D01*
X1386672Y41705D01*
X1387730Y44259D01*
X1388091Y47000D01*
X1387730Y49741D01*
X1386672Y52295D01*
X1384989Y54489D01*
X1382795Y56172D01*
X1380241Y57230D01*
X1377500Y57591D01*
D02*
G37*
G36*
X946000Y40823D02*
X944537Y40532D01*
X943297Y39704D01*
X942468Y38463D01*
X942177Y37000D01*
X942468Y35537D01*
X943297Y34297D01*
X944537Y33468D01*
X946000Y33177D01*
X947463Y33468D01*
X948704Y34297D01*
X949532Y35537D01*
X949824Y37000D01*
X949532Y38463D01*
X948704Y39704D01*
X947463Y40532D01*
X946000Y40823D01*
D02*
G37*
G36*
X993000Y40823D02*
X991537Y40532D01*
X990296Y39704D01*
X989468Y38463D01*
X989177Y37000D01*
X989468Y35537D01*
X990296Y34297D01*
X991537Y33468D01*
X993000Y33177D01*
X994463Y33468D01*
X995704Y34297D01*
X996532Y35537D01*
X996824Y37000D01*
X996532Y38463D01*
X995704Y39704D01*
X994463Y40532D01*
X993000Y40823D01*
D02*
G37*
G36*
X969000D02*
X967537Y40532D01*
X966296Y39704D01*
X965468Y38463D01*
X965177Y37000D01*
X965468Y35537D01*
X966296Y34297D01*
X967537Y33468D01*
X969000Y33177D01*
X970463Y33468D01*
X971704Y34297D01*
X972532Y35537D01*
X972823Y37000D01*
X972532Y38463D01*
X971704Y39704D01*
X970463Y40532D01*
X969000Y40823D01*
D02*
G37*
G36*
X924000D02*
X922537Y40532D01*
X921296Y39704D01*
X920468Y38463D01*
X920177Y37000D01*
X920468Y35537D01*
X921296Y34297D01*
X922537Y33468D01*
X924000Y33177D01*
X925463Y33468D01*
X926704Y34297D01*
X927532Y35537D01*
X927823Y37000D01*
X927532Y38463D01*
X926704Y39704D01*
X925463Y40532D01*
X924000Y40823D01*
D02*
G37*
G36*
X568900Y26923D02*
X567437Y26632D01*
X566196Y25804D01*
X565368Y24563D01*
X565077Y23100D01*
X565368Y21637D01*
X566196Y20396D01*
X567437Y19568D01*
X568900Y19277D01*
X570363Y19568D01*
X571604Y20396D01*
X572432Y21637D01*
X572723Y23100D01*
X572432Y24563D01*
X571604Y25804D01*
X570363Y26632D01*
X568900Y26923D01*
D02*
G37*
G36*
X385440Y971618D02*
X382014Y971167D01*
X378821Y969845D01*
X376079Y967741D01*
X373975Y964999D01*
X372653Y961806D01*
X372202Y958380D01*
X372653Y954954D01*
X373975Y951761D01*
X376079Y949019D01*
X378821Y946915D01*
X382014Y945593D01*
X385440Y945142D01*
X388866Y945593D01*
X392059Y946915D01*
X394801Y949019D01*
X396905Y951761D01*
X398227Y954954D01*
X398678Y958380D01*
X398227Y961806D01*
X396905Y964999D01*
X394801Y967741D01*
X392059Y969845D01*
X388866Y971167D01*
X385440Y971618D01*
D02*
G37*
G36*
X113500Y950226D02*
X110432Y949924D01*
X107482Y949029D01*
X104763Y947575D01*
X102380Y945620D01*
X100425Y943237D01*
X98971Y940518D01*
X98076Y937568D01*
X97774Y934500D01*
X98076Y931432D01*
X98971Y928482D01*
X100425Y925763D01*
X102380Y923380D01*
X104763Y921425D01*
X107482Y919971D01*
X110432Y919077D01*
X113500Y918774D01*
X116568Y919077D01*
X119518Y919971D01*
X122237Y921425D01*
X124620Y923380D01*
X126575Y925763D01*
X128029Y928482D01*
X128924Y931432D01*
X129226Y934500D01*
X128924Y937568D01*
X128029Y940518D01*
X126575Y943237D01*
X124620Y945620D01*
X122237Y947575D01*
X119518Y949029D01*
X116568Y949924D01*
X113500Y950226D01*
D02*
G37*
G36*
X459720Y904793D02*
X458257Y904502D01*
X457016Y903674D01*
X456188Y902433D01*
X455896Y900970D01*
X456188Y899507D01*
X457016Y898266D01*
X458257Y897438D01*
X459720Y897147D01*
X461183Y897438D01*
X462424Y898266D01*
X463252Y899507D01*
X463543Y900970D01*
X463252Y902433D01*
X462424Y903674D01*
X461183Y904502D01*
X459720Y904793D01*
D02*
G37*
G36*
X66500Y920226D02*
X63432Y919923D01*
X60482Y919029D01*
X57763Y917575D01*
X55380Y915620D01*
X53425Y913237D01*
X51971Y910518D01*
X51076Y907568D01*
X50774Y904500D01*
X51076Y901432D01*
X51971Y898482D01*
X53425Y895763D01*
X55380Y893380D01*
X57763Y891425D01*
X60482Y889971D01*
X63432Y889077D01*
X66500Y888774D01*
X69568Y889077D01*
X72518Y889971D01*
X75237Y891425D01*
X77620Y893380D01*
X79576Y895763D01*
X81029Y898482D01*
X81924Y901432D01*
X82226Y904500D01*
X81924Y907568D01*
X81029Y910518D01*
X79576Y913237D01*
X77620Y915620D01*
X75237Y917575D01*
X72518Y919029D01*
X69568Y919923D01*
X66500Y920226D01*
D02*
G37*
G36*
X262250Y877823D02*
X260787Y877532D01*
X259546Y876704D01*
X258718Y875463D01*
X258426Y874000D01*
X258718Y872537D01*
X259546Y871296D01*
X260787Y870468D01*
X262250Y870176D01*
X263713Y870468D01*
X264953Y871296D01*
X265782Y872537D01*
X266073Y874000D01*
X265782Y875463D01*
X264953Y876704D01*
X263713Y877532D01*
X262250Y877823D01*
D02*
G37*
G36*
X1028390Y828214D02*
X1026927Y827922D01*
X1025686Y827094D01*
X1024858Y825853D01*
X1024567Y824390D01*
X1024858Y822927D01*
X1025686Y821686D01*
X1026927Y820858D01*
X1028390Y820567D01*
X1029853Y820858D01*
X1031094Y821686D01*
X1031922Y822927D01*
X1032214Y824390D01*
X1031922Y825853D01*
X1031094Y827094D01*
X1029853Y827922D01*
X1028390Y828214D01*
D02*
G37*
G36*
X261000Y825823D02*
X259537Y825532D01*
X258296Y824704D01*
X257468Y823463D01*
X257177Y822000D01*
X257468Y820537D01*
X258296Y819296D01*
X259537Y818468D01*
X261000Y818177D01*
X262463Y818468D01*
X263704Y819296D01*
X264532Y820537D01*
X264823Y822000D01*
X264532Y823463D01*
X263704Y824704D01*
X262463Y825532D01*
X261000Y825823D01*
D02*
G37*
G36*
X251000D02*
X249537Y825532D01*
X248296Y824704D01*
X247468Y823463D01*
X247177Y822000D01*
X247468Y820537D01*
X248296Y819296D01*
X249537Y818468D01*
X251000Y818177D01*
X252463Y818468D01*
X253704Y819296D01*
X254532Y820537D01*
X254823Y822000D01*
X254532Y823463D01*
X253704Y824704D01*
X252463Y825532D01*
X251000Y825823D01*
D02*
G37*
G36*
X256030Y816163D02*
X254567Y815872D01*
X253326Y815044D01*
X252498Y813803D01*
X252207Y812340D01*
X252498Y810877D01*
X253326Y809636D01*
X254567Y808808D01*
X256030Y808516D01*
X257493Y808808D01*
X258734Y809636D01*
X259562Y810877D01*
X259853Y812340D01*
X259562Y813803D01*
X258734Y815044D01*
X257493Y815872D01*
X256030Y816163D01*
D02*
G37*
G36*
X1341631Y815954D02*
X1340168Y815663D01*
X1338927Y814834D01*
X1338098Y813594D01*
X1337807Y812131D01*
X1338098Y810667D01*
X1338927Y809427D01*
X1340168Y808598D01*
X1341631Y808307D01*
X1343094Y808598D01*
X1344334Y809427D01*
X1345163Y810667D01*
X1345454Y812131D01*
X1345163Y813594D01*
X1344334Y814834D01*
X1343094Y815663D01*
X1341631Y815954D01*
D02*
G37*
G36*
X231250Y814073D02*
X229787Y813782D01*
X228546Y812954D01*
X227718Y811713D01*
X227427Y810250D01*
X227718Y808787D01*
X228546Y807546D01*
X229787Y806718D01*
X231250Y806427D01*
X232713Y806718D01*
X233954Y807546D01*
X234782Y808787D01*
X235073Y810250D01*
X234782Y811713D01*
X233954Y812954D01*
X232713Y813782D01*
X231250Y814073D01*
D02*
G37*
G36*
X251250Y806323D02*
X249787Y806032D01*
X248546Y805204D01*
X247718Y803963D01*
X247427Y802500D01*
X247718Y801037D01*
X248546Y799796D01*
X249787Y798968D01*
X251250Y798677D01*
X252713Y798968D01*
X253954Y799796D01*
X254782Y801037D01*
X255073Y802500D01*
X254782Y803963D01*
X253954Y805204D01*
X252713Y806032D01*
X251250Y806323D01*
D02*
G37*
G36*
X261250Y806073D02*
X259787Y805782D01*
X258546Y804954D01*
X257718Y803713D01*
X257427Y802250D01*
X257718Y800787D01*
X258546Y799546D01*
X259787Y798718D01*
X261250Y798427D01*
X262713Y798718D01*
X263954Y799546D01*
X264782Y800787D01*
X265073Y802250D01*
X264782Y803713D01*
X263954Y804954D01*
X262713Y805782D01*
X261250Y806073D01*
D02*
G37*
G36*
X232090Y804913D02*
X230627Y804622D01*
X229386Y803794D01*
X228558Y802553D01*
X228267Y801090D01*
X228558Y799627D01*
X229386Y798386D01*
X230627Y797558D01*
X232090Y797267D01*
X233553Y797558D01*
X234794Y798386D01*
X235622Y799627D01*
X235913Y801090D01*
X235622Y802553D01*
X234794Y803794D01*
X233553Y804622D01*
X232090Y804913D01*
D02*
G37*
G36*
X239000Y784823D02*
X237537Y784532D01*
X236297Y783704D01*
X235468Y782463D01*
X235177Y781000D01*
X235468Y779537D01*
X236297Y778296D01*
X237537Y777467D01*
X239000Y777177D01*
X240463Y777467D01*
X241704Y778296D01*
X242533Y779537D01*
X242824Y781000D01*
X242533Y782463D01*
X241704Y783704D01*
X240463Y784532D01*
X239000Y784823D01*
D02*
G37*
G36*
X57000Y678580D02*
X53765Y678261D01*
X50655Y677318D01*
X47789Y675786D01*
X45276Y673724D01*
X43214Y671211D01*
X41682Y668345D01*
X40739Y665235D01*
X40420Y662000D01*
X40739Y658765D01*
X41682Y655655D01*
X43214Y652789D01*
X45276Y650276D01*
X47789Y648214D01*
X50655Y646682D01*
X53765Y645739D01*
X57000Y645420D01*
X60235Y645739D01*
X63345Y646682D01*
X66211Y648214D01*
X68724Y650276D01*
X70786Y652789D01*
X72318Y655655D01*
X73261Y658765D01*
X73580Y662000D01*
X73261Y665235D01*
X72318Y668345D01*
X70786Y671211D01*
X68724Y673724D01*
X66211Y675786D01*
X63345Y677318D01*
X60235Y678261D01*
X57000Y678580D01*
D02*
G37*
G36*
X938250Y223323D02*
X936787Y223032D01*
X935546Y222204D01*
X934718Y220963D01*
X934427Y219500D01*
X934718Y218037D01*
X935546Y216796D01*
X936787Y215968D01*
X938250Y215677D01*
X939713Y215968D01*
X940954Y216796D01*
X941782Y218037D01*
X942073Y219500D01*
X941782Y220963D01*
X940954Y222204D01*
X939713Y223032D01*
X938250Y223323D01*
D02*
G37*
G36*
X916000D02*
X914537Y223032D01*
X913296Y222204D01*
X912468Y220963D01*
X912177Y219500D01*
X912468Y218037D01*
X913296Y216796D01*
X914537Y215968D01*
X916000Y215677D01*
X917463Y215968D01*
X918704Y216796D01*
X919532Y218037D01*
X919823Y219500D01*
X919532Y220963D01*
X918704Y222204D01*
X917463Y223032D01*
X916000Y223323D01*
D02*
G37*
G36*
X828000Y196000D02*
X810000D01*
Y178000D01*
X828000D01*
Y196000D01*
D02*
G37*
G36*
X819000Y170678D02*
X816651Y170368D01*
X814461Y169461D01*
X812581Y168019D01*
X811139Y166139D01*
X810232Y163949D01*
X809922Y161600D01*
X810232Y159250D01*
X811139Y157061D01*
X812581Y155181D01*
X814461Y153738D01*
X816651Y152832D01*
X819000Y152522D01*
X821349Y152832D01*
X823539Y153738D01*
X825419Y155181D01*
X826861Y157061D01*
X827768Y159250D01*
X828078Y161600D01*
X827768Y163949D01*
X826861Y166139D01*
X825419Y168019D01*
X823539Y169461D01*
X821349Y170368D01*
X819000Y170678D01*
D02*
G37*
G36*
X608290Y156863D02*
X606827Y156572D01*
X605586Y155744D01*
X604758Y154503D01*
X604467Y153040D01*
X604758Y151577D01*
X605586Y150337D01*
X606827Y149508D01*
X608290Y149217D01*
X609753Y149508D01*
X610994Y150337D01*
X611822Y151577D01*
X612113Y153040D01*
X611822Y154503D01*
X610994Y155744D01*
X609753Y156572D01*
X608290Y156863D01*
D02*
G37*
G36*
X595590Y154914D02*
X594127Y154622D01*
X592886Y153794D01*
X592058Y152553D01*
X591767Y151090D01*
X592058Y149627D01*
X592886Y148386D01*
X594127Y147558D01*
X595590Y147267D01*
X597053Y147558D01*
X598294Y148386D01*
X599122Y149627D01*
X599413Y151090D01*
X599122Y152553D01*
X598294Y153794D01*
X597053Y154622D01*
X595590Y154914D01*
D02*
G37*
G36*
X633690Y154514D02*
X632227Y154222D01*
X630986Y153394D01*
X630158Y152153D01*
X629867Y150690D01*
X630158Y149227D01*
X630986Y147986D01*
X632227Y147158D01*
X633690Y146867D01*
X635153Y147158D01*
X636394Y147986D01*
X637222Y149227D01*
X637514Y150690D01*
X637222Y152153D01*
X636394Y153394D01*
X635153Y154222D01*
X633690Y154514D01*
D02*
G37*
G36*
X684490Y154313D02*
X683027Y154022D01*
X681786Y153194D01*
X680958Y151953D01*
X680667Y150490D01*
X680958Y149027D01*
X681786Y147786D01*
X683027Y146958D01*
X684490Y146667D01*
X685953Y146958D01*
X687194Y147786D01*
X688022Y149027D01*
X688314Y150490D01*
X688022Y151953D01*
X687194Y153194D01*
X685953Y154022D01*
X684490Y154313D01*
D02*
G37*
G36*
X582890Y153933D02*
X581427Y153642D01*
X580186Y152814D01*
X579358Y151573D01*
X579067Y150110D01*
X579358Y148647D01*
X580186Y147406D01*
X581427Y146578D01*
X582890Y146287D01*
X584353Y146578D01*
X585594Y147406D01*
X586422Y148647D01*
X586713Y150110D01*
X586422Y151573D01*
X585594Y152814D01*
X584353Y153642D01*
X582890Y153933D01*
D02*
G37*
G36*
X917000Y157823D02*
X915537Y157532D01*
X914296Y156704D01*
X913468Y155463D01*
X913177Y154000D01*
X913468Y152537D01*
X914160Y151500D01*
X913468Y150463D01*
X913177Y149000D01*
X913468Y147537D01*
X914296Y146296D01*
X915537Y145468D01*
X917000Y145177D01*
X918463Y145468D01*
X919704Y146296D01*
X920532Y147537D01*
X920823Y149000D01*
X920532Y150463D01*
X919840Y151500D01*
X920532Y152537D01*
X920823Y154000D01*
X920532Y155463D01*
X919704Y156704D01*
X918463Y157532D01*
X917000Y157823D01*
D02*
G37*
G36*
X918000Y132823D02*
X916537Y132532D01*
X915296Y131704D01*
X914468Y130463D01*
X914177Y129000D01*
X914468Y127537D01*
X915296Y126296D01*
X916537Y125468D01*
X918000Y125177D01*
X919463Y125468D01*
X920704Y126296D01*
X921532Y127537D01*
X921823Y129000D01*
X921532Y130463D01*
X920704Y131704D01*
X919463Y132532D01*
X918000Y132823D01*
D02*
G37*
G36*
X489737Y142236D02*
X488569Y141811D01*
X481403Y135244D01*
X480878Y134118D01*
X480454Y124407D01*
X480879Y123239D01*
X487446Y116073D01*
X488572Y115548D01*
X498283Y115124D01*
X499451Y115549D01*
X506617Y122116D01*
X507142Y123242D01*
X507566Y132953D01*
X507141Y134121D01*
X500574Y141287D01*
X499448Y141812D01*
X489737Y142236D01*
D02*
G37*
G36*
X289737D02*
X288570Y141811D01*
X281403Y135244D01*
X280878Y134118D01*
X280454Y124407D01*
X280879Y123239D01*
X287446Y116073D01*
X288572Y115548D01*
X298283Y115124D01*
X299451Y115549D01*
X306617Y122116D01*
X307142Y123242D01*
X307566Y132953D01*
X307141Y134121D01*
X300574Y141287D01*
X299448Y141812D01*
X289737Y142236D01*
D02*
G37*
G36*
X918000Y112823D02*
X916537Y112532D01*
X915296Y111704D01*
X914468Y110463D01*
X914177Y109000D01*
X914468Y107537D01*
X915296Y106296D01*
X916537Y105468D01*
X918000Y105176D01*
X919463Y105468D01*
X920704Y106296D01*
X921532Y107537D01*
X921824Y109000D01*
X921532Y110463D01*
X920704Y111704D01*
X919463Y112532D01*
X918000Y112823D01*
D02*
G37*
G36*
X918045Y102826D02*
X916582Y102535D01*
X915341Y101706D01*
X914512Y100466D01*
X914221Y99002D01*
X914512Y97539D01*
X915341Y96299D01*
X916582Y95470D01*
X918045Y95179D01*
X919508Y95470D01*
X920748Y96299D01*
X921577Y97539D01*
X921868Y99002D01*
X921577Y100466D01*
X920748Y101706D01*
X919508Y102535D01*
X918045Y102826D01*
D02*
G37*
G36*
X570190Y96633D02*
X568727Y96342D01*
X567486Y95514D01*
X566658Y94273D01*
X566367Y92810D01*
X566658Y91347D01*
X567486Y90106D01*
X568727Y89278D01*
X570190Y88987D01*
X571653Y89278D01*
X572894Y90106D01*
X573722Y91347D01*
X574013Y92810D01*
X573722Y94273D01*
X572894Y95514D01*
X571653Y96342D01*
X570190Y96633D01*
D02*
G37*
G36*
X646390Y96433D02*
X644927Y96142D01*
X643686Y95314D01*
X642858Y94073D01*
X642567Y92610D01*
X642858Y91147D01*
X643686Y89906D01*
X644927Y89078D01*
X646390Y88786D01*
X647853Y89078D01*
X649094Y89906D01*
X649922Y91147D01*
X650213Y92610D01*
X649922Y94073D01*
X649094Y95314D01*
X647853Y96142D01*
X646390Y96433D01*
D02*
G37*
G36*
X684490Y96313D02*
X683027Y96022D01*
X681786Y95194D01*
X680958Y93953D01*
X680667Y92490D01*
X680958Y91027D01*
X681786Y89786D01*
X683027Y88958D01*
X684490Y88667D01*
X685953Y88958D01*
X687194Y89786D01*
X688022Y91027D01*
X688314Y92490D01*
X688022Y93953D01*
X687194Y95194D01*
X685953Y96022D01*
X684490Y96313D01*
D02*
G37*
%LPD*%
G36*
X499377Y140190D02*
X505944Y133024D01*
X505520Y123313D01*
X498354Y116746D01*
X488643Y117170D01*
X482076Y124336D01*
X482500Y134047D01*
X489666Y140614D01*
X499377Y140190D01*
D02*
G37*
G36*
X299377D02*
X305944Y133024D01*
X305520Y123313D01*
X298354Y116746D01*
X288643Y117170D01*
X282076Y124336D01*
X282500Y134047D01*
X289666Y140614D01*
X299377Y140190D01*
D02*
G37*
%LPC*%
G36*
X1011000Y678823D02*
X1009537Y678532D01*
X1008296Y677703D01*
X1007467Y676463D01*
X1007177Y675000D01*
X1007467Y673537D01*
X1008296Y672296D01*
X1009537Y671468D01*
X1011000Y671177D01*
X1012463Y671468D01*
X1013704Y672296D01*
X1014532Y673537D01*
X1014823Y675000D01*
X1014532Y676463D01*
X1013704Y677703D01*
X1012463Y678532D01*
X1011000Y678823D01*
D02*
G37*
G36*
X1011750Y623823D02*
X1010287Y623532D01*
X1009046Y622704D01*
X1008217Y621463D01*
X1007926Y620000D01*
X1008217Y618537D01*
X1009046Y617296D01*
X1010287Y616468D01*
X1011750Y616176D01*
X1013213Y616468D01*
X1014454Y617296D01*
X1015282Y618537D01*
X1015573Y620000D01*
X1015282Y621463D01*
X1014454Y622704D01*
X1013213Y623532D01*
X1011750Y623823D01*
D02*
G37*
G36*
X329000Y427823D02*
X327537Y427532D01*
X326296Y426704D01*
X325468Y425463D01*
X325177Y424000D01*
X325468Y422537D01*
X326296Y421296D01*
X327537Y420468D01*
X329000Y420177D01*
X330463Y420468D01*
X331704Y421296D01*
X332532Y422537D01*
X332823Y424000D01*
X332532Y425463D01*
X331704Y426704D01*
X330463Y427532D01*
X329000Y427823D01*
D02*
G37*
G36*
X343500Y418823D02*
X342037Y418532D01*
X340796Y417704D01*
X339968Y416463D01*
X339677Y415000D01*
X339968Y413537D01*
X340796Y412296D01*
X342037Y411468D01*
X343500Y411177D01*
X344963Y411468D01*
X346204Y412296D01*
X347032Y413537D01*
X347323Y415000D01*
X347032Y416463D01*
X346204Y417704D01*
X344963Y418532D01*
X343500Y418823D01*
D02*
G37*
G36*
X329000Y417823D02*
X327537Y417532D01*
X326296Y416704D01*
X325468Y415463D01*
X325177Y414000D01*
X325468Y412537D01*
X326296Y411296D01*
X327537Y410468D01*
X329000Y410177D01*
X330463Y410468D01*
X331704Y411296D01*
X332532Y412537D01*
X332823Y414000D01*
X332532Y415463D01*
X331704Y416704D01*
X330463Y417532D01*
X329000Y417823D01*
D02*
G37*
G36*
X296500Y397823D02*
X295037Y397532D01*
X293796Y396704D01*
X292968Y395463D01*
X292677Y394000D01*
X292968Y392537D01*
X293796Y391296D01*
X295037Y390468D01*
X296500Y390177D01*
X297963Y390468D01*
X299204Y391296D01*
X300032Y392537D01*
X300324Y394000D01*
X300032Y395463D01*
X299204Y396704D01*
X297963Y397532D01*
X296500Y397823D01*
D02*
G37*
G36*
X329000Y387823D02*
X327537Y387532D01*
X326296Y386704D01*
X325468Y385463D01*
X325177Y384000D01*
X325468Y382537D01*
X326296Y381296D01*
X327537Y380468D01*
X329000Y380177D01*
X330463Y380468D01*
X331704Y381296D01*
X332532Y382537D01*
X332823Y384000D01*
X332532Y385463D01*
X331704Y386704D01*
X330463Y387532D01*
X329000Y387823D01*
D02*
G37*
G36*
Y377823D02*
X327537Y377532D01*
X326296Y376704D01*
X325468Y375463D01*
X325177Y374000D01*
X325468Y372537D01*
X326296Y371296D01*
X327537Y370468D01*
X329000Y370177D01*
X330463Y370468D01*
X331704Y371296D01*
X332532Y372537D01*
X332823Y374000D01*
X332532Y375463D01*
X331704Y376704D01*
X330463Y377532D01*
X329000Y377823D01*
D02*
G37*
G36*
X296500Y367823D02*
X295037Y367532D01*
X293796Y366704D01*
X292968Y365463D01*
X292677Y364000D01*
X292968Y362537D01*
X293796Y361296D01*
X295037Y360468D01*
X296500Y360177D01*
X297963Y360468D01*
X299204Y361296D01*
X300032Y362537D01*
X300324Y364000D01*
X300032Y365463D01*
X299204Y366704D01*
X297963Y367532D01*
X296500Y367823D01*
D02*
G37*
G36*
X329000Y357823D02*
X327537Y357532D01*
X326296Y356704D01*
X325468Y355463D01*
X325177Y354000D01*
X325468Y352537D01*
X326296Y351296D01*
X327537Y350468D01*
X329000Y350177D01*
X330463Y350468D01*
X331704Y351296D01*
X332532Y352537D01*
X332823Y354000D01*
X332532Y355463D01*
X331704Y356704D01*
X330463Y357532D01*
X329000Y357823D01*
D02*
G37*
G36*
Y347823D02*
X327537Y347532D01*
X326296Y346703D01*
X325468Y345463D01*
X325177Y344000D01*
X325468Y342537D01*
X326296Y341296D01*
X327537Y340468D01*
X329000Y340177D01*
X330463Y340468D01*
X331704Y341296D01*
X332532Y342537D01*
X332823Y344000D01*
X332532Y345463D01*
X331704Y346703D01*
X330463Y347532D01*
X329000Y347823D01*
D02*
G37*
G36*
X296500Y337823D02*
X295037Y337532D01*
X293796Y336704D01*
X292968Y335463D01*
X292677Y334000D01*
X292968Y332537D01*
X293796Y331296D01*
X295037Y330468D01*
X296500Y330177D01*
X297963Y330468D01*
X299204Y331296D01*
X300032Y332537D01*
X300324Y334000D01*
X300032Y335463D01*
X299204Y336704D01*
X297963Y337532D01*
X296500Y337823D01*
D02*
G37*
G36*
X329000Y327823D02*
X327537Y327532D01*
X326296Y326704D01*
X325468Y325463D01*
X325177Y324000D01*
X325468Y322537D01*
X326296Y321296D01*
X327537Y320468D01*
X329000Y320177D01*
X330463Y320468D01*
X331704Y321296D01*
X332532Y322537D01*
X332823Y324000D01*
X332532Y325463D01*
X331704Y326704D01*
X330463Y327532D01*
X329000Y327823D01*
D02*
G37*
G36*
Y317823D02*
X327537Y317532D01*
X326296Y316704D01*
X325468Y315463D01*
X325177Y314000D01*
X325468Y312537D01*
X326296Y311296D01*
X327537Y310468D01*
X329000Y310177D01*
X330463Y310468D01*
X331704Y311296D01*
X332532Y312537D01*
X332823Y314000D01*
X332532Y315463D01*
X331704Y316704D01*
X330463Y317532D01*
X329000Y317823D01*
D02*
G37*
G36*
X296500Y307823D02*
X295037Y307532D01*
X293797Y306704D01*
X292968Y305463D01*
X292677Y304000D01*
X292968Y302537D01*
X293797Y301296D01*
X295037Y300468D01*
X296500Y300177D01*
X297963Y300468D01*
X299204Y301296D01*
X300032Y302537D01*
X300324Y304000D01*
X300032Y305463D01*
X299204Y306704D01*
X297963Y307532D01*
X296500Y307823D01*
D02*
G37*
G36*
X610000Y318601D02*
X606765Y318282D01*
X603655Y317338D01*
X600789Y315806D01*
X598276Y313744D01*
X596214Y311232D01*
X594682Y308365D01*
X593739Y305255D01*
X593420Y302021D01*
X593739Y298786D01*
X594682Y295676D01*
X596214Y292809D01*
X598276Y290297D01*
X600789Y288235D01*
X603655Y286703D01*
X606765Y285759D01*
X610000Y285441D01*
X613235Y285759D01*
X616345Y286703D01*
X619211Y288235D01*
X621724Y290297D01*
X623786Y292809D01*
X625318Y295676D01*
X626261Y298786D01*
X626580Y302021D01*
X626261Y305255D01*
X625318Y308365D01*
X623786Y311232D01*
X621724Y313744D01*
X619211Y315806D01*
X616345Y317338D01*
X613235Y318282D01*
X610000Y318601D01*
D02*
G37*
G36*
X1120950Y712773D02*
X1119487Y712482D01*
X1118246Y711653D01*
X1117417Y710413D01*
X1117126Y708950D01*
X1117230Y708427D01*
X1116523Y707719D01*
X1116000Y707823D01*
X1114537Y707532D01*
X1113296Y706704D01*
X1112468Y705463D01*
X1112177Y704000D01*
X1112468Y702537D01*
X1113296Y701296D01*
X1114537Y700468D01*
X1116000Y700177D01*
X1117463Y700468D01*
X1118704Y701296D01*
X1119532Y702537D01*
X1119823Y704000D01*
X1119719Y704523D01*
X1120426Y705230D01*
X1120950Y705126D01*
X1122413Y705417D01*
X1123653Y706246D01*
X1124482Y707487D01*
X1124773Y708950D01*
X1124482Y710413D01*
X1123653Y711653D01*
X1122413Y712482D01*
X1120950Y712773D01*
D02*
G37*
G36*
X1105846Y712170D02*
X1104383Y711879D01*
X1103143Y711050D01*
X1102314Y709809D01*
X1102023Y708346D01*
X1102039Y708264D01*
X1101332Y707557D01*
X1101250Y707573D01*
X1099787Y707282D01*
X1098546Y706454D01*
X1097718Y705213D01*
X1097427Y703750D01*
X1097718Y702287D01*
X1098546Y701047D01*
X1099787Y700218D01*
X1101250Y699927D01*
X1102713Y700218D01*
X1103954Y701047D01*
X1104782Y702287D01*
X1105073Y703750D01*
X1105057Y703832D01*
X1105764Y704539D01*
X1105846Y704523D01*
X1107309Y704814D01*
X1108550Y705643D01*
X1109379Y706883D01*
X1109670Y708346D01*
X1109379Y709809D01*
X1108550Y711050D01*
X1107309Y711879D01*
X1105846Y712170D01*
D02*
G37*
G36*
X1135404Y712920D02*
X1133941Y712629D01*
X1132700Y711800D01*
X1131871Y710559D01*
X1131580Y709096D01*
X1131871Y707633D01*
X1132700Y706393D01*
X1133941Y705564D01*
X1135404Y705273D01*
X1135486Y705289D01*
X1136193Y704582D01*
X1136177Y704500D01*
X1136468Y703037D01*
X1137296Y701796D01*
X1138537Y700968D01*
X1140000Y700677D01*
X1141463Y700968D01*
X1142704Y701796D01*
X1143532Y703037D01*
X1143823Y704500D01*
X1143532Y705963D01*
X1142704Y707204D01*
X1141463Y708032D01*
X1140000Y708323D01*
X1139918Y708307D01*
X1139211Y709014D01*
X1139227Y709096D01*
X1138936Y710559D01*
X1138107Y711800D01*
X1136867Y712629D01*
X1135404Y712920D01*
D02*
G37*
G36*
X1148904Y711170D02*
X1147441Y710879D01*
X1146200Y710050D01*
X1145371Y708809D01*
X1145080Y707346D01*
X1145371Y705883D01*
X1146200Y704643D01*
X1147441Y703814D01*
X1148904Y703523D01*
X1148986Y703539D01*
X1149693Y702832D01*
X1149677Y702750D01*
X1149968Y701287D01*
X1150796Y700046D01*
X1152037Y699218D01*
X1153500Y698927D01*
X1154963Y699218D01*
X1156204Y700046D01*
X1157032Y701287D01*
X1157323Y702750D01*
X1157032Y704213D01*
X1156204Y705454D01*
X1154963Y706282D01*
X1153500Y706573D01*
X1153418Y706557D01*
X1152711Y707264D01*
X1152727Y707346D01*
X1152436Y708809D01*
X1151607Y710050D01*
X1150367Y710879D01*
X1148904Y711170D01*
D02*
G37*
G36*
X1336500Y706573D02*
X1335037Y706282D01*
X1333796Y705454D01*
X1332968Y704213D01*
X1332677Y702750D01*
X1332968Y701287D01*
X1333796Y700046D01*
X1335037Y699218D01*
X1336500Y698926D01*
X1337963Y699218D01*
X1339203Y700046D01*
X1340032Y701287D01*
X1340323Y702750D01*
X1340032Y704213D01*
X1339203Y705454D01*
X1337963Y706282D01*
X1336500Y706573D01*
D02*
G37*
G36*
X1079500Y683573D02*
X1078037Y683282D01*
X1076796Y682454D01*
X1075968Y681213D01*
X1075677Y679750D01*
X1075968Y678287D01*
X1076796Y677046D01*
X1078037Y676218D01*
X1079500Y675927D01*
X1080963Y676218D01*
X1082204Y677046D01*
X1083032Y678287D01*
X1083323Y679750D01*
X1083032Y681213D01*
X1082204Y682454D01*
X1080963Y683282D01*
X1079500Y683573D01*
D02*
G37*
G36*
X1319250Y695323D02*
X1317787Y695032D01*
X1316546Y694204D01*
X1315718Y692963D01*
X1315427Y691500D01*
X1315718Y690037D01*
X1316265Y689218D01*
X1316464Y688500D01*
X1316265Y687782D01*
X1315718Y686963D01*
X1315427Y685500D01*
X1315718Y684037D01*
X1316546Y682796D01*
X1317717Y682014D01*
X1317945Y681785D01*
X1318185Y681205D01*
X1318198Y680866D01*
X1317926Y679500D01*
X1318218Y678037D01*
X1319046Y676796D01*
X1320287Y675968D01*
X1321750Y675677D01*
X1323213Y675968D01*
X1324454Y676796D01*
X1325282Y678037D01*
X1325573Y679500D01*
X1325282Y680963D01*
X1324454Y682204D01*
X1323283Y682986D01*
X1323055Y683215D01*
X1322815Y683795D01*
X1322802Y684134D01*
X1323073Y685500D01*
X1322782Y686963D01*
X1322235Y687782D01*
X1322036Y688500D01*
X1322235Y689218D01*
X1322782Y690037D01*
X1323073Y691500D01*
X1322782Y692963D01*
X1321954Y694204D01*
X1320713Y695032D01*
X1319250Y695323D01*
D02*
G37*
G36*
X1099000Y683073D02*
X1097537Y682782D01*
X1096296Y681954D01*
X1095468Y680713D01*
X1095177Y679250D01*
X1095468Y677787D01*
X1096296Y676546D01*
X1097537Y675718D01*
X1099000Y675427D01*
X1100463Y675718D01*
X1101704Y676546D01*
X1102532Y677787D01*
X1102823Y679250D01*
X1102532Y680713D01*
X1101704Y681954D01*
X1100463Y682782D01*
X1099000Y683073D01*
D02*
G37*
G36*
X1129250Y682573D02*
X1127787Y682282D01*
X1126546Y681454D01*
X1125718Y680213D01*
X1125427Y678750D01*
X1125718Y677287D01*
X1126546Y676046D01*
X1127787Y675218D01*
X1129250Y674927D01*
X1130713Y675218D01*
X1131954Y676046D01*
X1132782Y677287D01*
X1133073Y678750D01*
X1132782Y680213D01*
X1131954Y681454D01*
X1130713Y682282D01*
X1129250Y682573D01*
D02*
G37*
G36*
X1198750Y681323D02*
X1197287Y681032D01*
X1196046Y680204D01*
X1195218Y678963D01*
X1194927Y677500D01*
X1195218Y676037D01*
X1196046Y674796D01*
X1197287Y673968D01*
X1198750Y673677D01*
X1200213Y673968D01*
X1201454Y674796D01*
X1202282Y676037D01*
X1202573Y677500D01*
X1202282Y678963D01*
X1201454Y680204D01*
X1200213Y681032D01*
X1198750Y681323D01*
D02*
G37*
G36*
X1176750Y680323D02*
X1175287Y680032D01*
X1174046Y679204D01*
X1173218Y677963D01*
X1172927Y676500D01*
X1173218Y675037D01*
X1174046Y673796D01*
X1175287Y672968D01*
X1176750Y672677D01*
X1178213Y672968D01*
X1179454Y673796D01*
X1180282Y675037D01*
X1180573Y676500D01*
X1180282Y677963D01*
X1179454Y679204D01*
X1178213Y680032D01*
X1176750Y680323D01*
D02*
G37*
G36*
X1356000Y677823D02*
X1354537Y677532D01*
X1353296Y676704D01*
X1352468Y675463D01*
X1352177Y674000D01*
X1352468Y672537D01*
X1353296Y671296D01*
X1354537Y670468D01*
X1356000Y670177D01*
X1357463Y670468D01*
X1358704Y671296D01*
X1359532Y672537D01*
X1359823Y674000D01*
X1359532Y675463D01*
X1358704Y676704D01*
X1357463Y677532D01*
X1356000Y677823D01*
D02*
G37*
G36*
X1322500Y671323D02*
X1321037Y671032D01*
X1319796Y670204D01*
X1318968Y668963D01*
X1318677Y667500D01*
X1318968Y666037D01*
X1319796Y664796D01*
X1321037Y663968D01*
X1322500Y663677D01*
X1323963Y663968D01*
X1325204Y664796D01*
X1326032Y666037D01*
X1326323Y667500D01*
X1326032Y668963D01*
X1325204Y670204D01*
X1323963Y671032D01*
X1322500Y671323D01*
D02*
G37*
G36*
X1098250Y669573D02*
X1096787Y669282D01*
X1095546Y668454D01*
X1094718Y667213D01*
X1094427Y665750D01*
X1094718Y664287D01*
X1095546Y663046D01*
X1096787Y662218D01*
X1098250Y661927D01*
X1099713Y662218D01*
X1100954Y663046D01*
X1101782Y664287D01*
X1102073Y665750D01*
X1101782Y667213D01*
X1100954Y668454D01*
X1099713Y669282D01*
X1098250Y669573D01*
D02*
G37*
G36*
X1128000Y669323D02*
X1126537Y669032D01*
X1125296Y668204D01*
X1124468Y666963D01*
X1124177Y665500D01*
X1124468Y664037D01*
X1125296Y662796D01*
X1126537Y661968D01*
X1128000Y661677D01*
X1129463Y661968D01*
X1130704Y662796D01*
X1131532Y664037D01*
X1131823Y665500D01*
X1131532Y666963D01*
X1130704Y668204D01*
X1129463Y669032D01*
X1128000Y669323D01*
D02*
G37*
G36*
X1079750Y667323D02*
X1078287Y667032D01*
X1077046Y666204D01*
X1076218Y664963D01*
X1075927Y663500D01*
X1076218Y662037D01*
X1077046Y660796D01*
X1078287Y659968D01*
X1079750Y659677D01*
X1081213Y659968D01*
X1082454Y660796D01*
X1083282Y662037D01*
X1083573Y663500D01*
X1083282Y664963D01*
X1082454Y666204D01*
X1081213Y667032D01*
X1079750Y667323D01*
D02*
G37*
G36*
X1351000Y665323D02*
X1349537Y665032D01*
X1348296Y664204D01*
X1347468Y662963D01*
X1347177Y661500D01*
X1347468Y660037D01*
X1348296Y658796D01*
X1349537Y657968D01*
X1351000Y657677D01*
X1352463Y657968D01*
X1353704Y658796D01*
X1354532Y660037D01*
X1354823Y661500D01*
X1354532Y662963D01*
X1353704Y664204D01*
X1352463Y665032D01*
X1351000Y665323D01*
D02*
G37*
G36*
X1405000Y662323D02*
X1403537Y662032D01*
X1402296Y661204D01*
X1401468Y659963D01*
X1401177Y658500D01*
X1401468Y657037D01*
X1402296Y655796D01*
X1403537Y654968D01*
X1405000Y654677D01*
X1406463Y654968D01*
X1407704Y655796D01*
X1408532Y657037D01*
X1408823Y658500D01*
X1408532Y659963D01*
X1407704Y661204D01*
X1406463Y662032D01*
X1405000Y662323D01*
D02*
G37*
G36*
X1128500Y654323D02*
X1127037Y654032D01*
X1125796Y653204D01*
X1124968Y651963D01*
X1124677Y650500D01*
X1124968Y649037D01*
X1125796Y647796D01*
X1127037Y646968D01*
X1128500Y646677D01*
X1129963Y646968D01*
X1131204Y647796D01*
X1132032Y649037D01*
X1132323Y650500D01*
X1132032Y651963D01*
X1131204Y653204D01*
X1129963Y654032D01*
X1128500Y654323D01*
D02*
G37*
G36*
X1099500D02*
X1098037Y654032D01*
X1096796Y653204D01*
X1095968Y651963D01*
X1095677Y650500D01*
X1095968Y649037D01*
X1096796Y647796D01*
X1098037Y646968D01*
X1099500Y646677D01*
X1100963Y646968D01*
X1102204Y647796D01*
X1103032Y649037D01*
X1103323Y650500D01*
X1103032Y651963D01*
X1102204Y653204D01*
X1100963Y654032D01*
X1099500Y654323D01*
D02*
G37*
G36*
X1079250Y652573D02*
X1077787Y652282D01*
X1076546Y651454D01*
X1075718Y650213D01*
X1075427Y648750D01*
X1075718Y647287D01*
X1076546Y646046D01*
X1077787Y645218D01*
X1079250Y644927D01*
X1080713Y645218D01*
X1081954Y646046D01*
X1082782Y647287D01*
X1083073Y648750D01*
X1082782Y650213D01*
X1081954Y651454D01*
X1080713Y652282D01*
X1079250Y652573D01*
D02*
G37*
G36*
X1351000Y647323D02*
X1349537Y647032D01*
X1348296Y646204D01*
X1347468Y644963D01*
X1347177Y643500D01*
X1347468Y642037D01*
X1348296Y640796D01*
X1349537Y639968D01*
X1351000Y639677D01*
X1352463Y639968D01*
X1353704Y640796D01*
X1354532Y642037D01*
X1354823Y643500D01*
X1354532Y644963D01*
X1353704Y646204D01*
X1352463Y647032D01*
X1351000Y647323D01*
D02*
G37*
G36*
X1130000Y642573D02*
X1128537Y642282D01*
X1127296Y641454D01*
X1126468Y640213D01*
X1126177Y638750D01*
X1126468Y637287D01*
X1127296Y636046D01*
X1128537Y635218D01*
X1130000Y634927D01*
X1131463Y635218D01*
X1132704Y636046D01*
X1133532Y637287D01*
X1133823Y638750D01*
X1133532Y640213D01*
X1132704Y641454D01*
X1131463Y642282D01*
X1130000Y642573D01*
D02*
G37*
G36*
X1166000Y648323D02*
X1164537Y648032D01*
X1163296Y647204D01*
X1162468Y645963D01*
X1162177Y644500D01*
X1162468Y643037D01*
X1163296Y641796D01*
X1164537Y640968D01*
X1166000Y640677D01*
X1167463Y640968D01*
X1168221Y641474D01*
X1168349Y641559D01*
X1169070Y640838D01*
X1168985Y640711D01*
X1168478Y639953D01*
X1168187Y638490D01*
X1168478Y637026D01*
X1169307Y635786D01*
X1170547Y634957D01*
X1172010Y634666D01*
X1173474Y634957D01*
X1174714Y635786D01*
X1175543Y637026D01*
X1175834Y638490D01*
X1175543Y639953D01*
X1174714Y641193D01*
X1173474Y642022D01*
X1172010Y642313D01*
X1170547Y642022D01*
X1169789Y641516D01*
X1169662Y641430D01*
X1168941Y642151D01*
X1169026Y642279D01*
X1169532Y643037D01*
X1169823Y644500D01*
X1169532Y645963D01*
X1168704Y647204D01*
X1167463Y648032D01*
X1166000Y648323D01*
D02*
G37*
G36*
X1078750Y636323D02*
X1077287Y636032D01*
X1076046Y635204D01*
X1075218Y633963D01*
X1074927Y632500D01*
X1075218Y631037D01*
X1076046Y629796D01*
X1077287Y628968D01*
X1078750Y628677D01*
X1080213Y628968D01*
X1081454Y629796D01*
X1082282Y631037D01*
X1082573Y632500D01*
X1082282Y633963D01*
X1081454Y635204D01*
X1080213Y636032D01*
X1078750Y636323D01*
D02*
G37*
G36*
X1210750Y635823D02*
X1209287Y635532D01*
X1208046Y634703D01*
X1207217Y633463D01*
X1206926Y632000D01*
X1207217Y630537D01*
X1208046Y629296D01*
X1209287Y628467D01*
X1210750Y628176D01*
X1212213Y628467D01*
X1213454Y629296D01*
X1214282Y630537D01*
X1214573Y632000D01*
X1214282Y633463D01*
X1213454Y634703D01*
X1212213Y635532D01*
X1210750Y635823D01*
D02*
G37*
G36*
X1351000Y629323D02*
X1349537Y629032D01*
X1348296Y628204D01*
X1347468Y626963D01*
X1347177Y625500D01*
X1347468Y624037D01*
X1348296Y622796D01*
X1349537Y621968D01*
X1351000Y621677D01*
X1352463Y621968D01*
X1353704Y622796D01*
X1354532Y624037D01*
X1354823Y625500D01*
X1354532Y626963D01*
X1353704Y628204D01*
X1352463Y629032D01*
X1351000Y629323D01*
D02*
G37*
G36*
X1165500Y633823D02*
X1164037Y633532D01*
X1162796Y632704D01*
X1161968Y631463D01*
X1161677Y630000D01*
X1161968Y628537D01*
X1162796Y627296D01*
X1164037Y626468D01*
X1165500Y626177D01*
X1166963Y626468D01*
X1167721Y626974D01*
X1167849Y627059D01*
X1168570Y626338D01*
X1168484Y626211D01*
X1167978Y625453D01*
X1167687Y623990D01*
X1167978Y622526D01*
X1168807Y621286D01*
X1170047Y620457D01*
X1171510Y620166D01*
X1172974Y620457D01*
X1174214Y621286D01*
X1175043Y622526D01*
X1175334Y623990D01*
X1175043Y625453D01*
X1174214Y626693D01*
X1172974Y627522D01*
X1171510Y627813D01*
X1170047Y627522D01*
X1169289Y627016D01*
X1169162Y626930D01*
X1168441Y627651D01*
X1168526Y627779D01*
X1169032Y628537D01*
X1169324Y630000D01*
X1169032Y631463D01*
X1168204Y632704D01*
X1166963Y633532D01*
X1165500Y633823D01*
D02*
G37*
G36*
X1234250Y624823D02*
X1232787Y624532D01*
X1231546Y623703D01*
X1230718Y622463D01*
X1230427Y621000D01*
X1230718Y619537D01*
X1231546Y618296D01*
X1232787Y617467D01*
X1234250Y617177D01*
X1235713Y617467D01*
X1236954Y618296D01*
X1237783Y619537D01*
X1238074Y621000D01*
X1237783Y622463D01*
X1236954Y623703D01*
X1235713Y624532D01*
X1234250Y624823D01*
D02*
G37*
G36*
X1099000Y623323D02*
X1097537Y623032D01*
X1096296Y622204D01*
X1095468Y620963D01*
X1095177Y619500D01*
X1095468Y618037D01*
X1096296Y616796D01*
X1097537Y615968D01*
X1099000Y615677D01*
X1100463Y615968D01*
X1101704Y616796D01*
X1102532Y618037D01*
X1102823Y619500D01*
X1102532Y620963D01*
X1101704Y622204D01*
X1100463Y623032D01*
X1099000Y623323D01*
D02*
G37*
G36*
X1078500Y623073D02*
X1077037Y622782D01*
X1075796Y621954D01*
X1074968Y620713D01*
X1074677Y619250D01*
X1074968Y617787D01*
X1075796Y616546D01*
X1077037Y615718D01*
X1078500Y615427D01*
X1079963Y615718D01*
X1081204Y616546D01*
X1082032Y617787D01*
X1082323Y619250D01*
X1082032Y620713D01*
X1081204Y621954D01*
X1079963Y622782D01*
X1078500Y623073D01*
D02*
G37*
G36*
X1208998Y614822D02*
X1207534Y614531D01*
X1206294Y613702D01*
X1205465Y612462D01*
X1205174Y610999D01*
X1205465Y609536D01*
X1206294Y608295D01*
X1207534Y607466D01*
X1208998Y607175D01*
X1210461Y607466D01*
X1211701Y608295D01*
X1212530Y609536D01*
X1212821Y610999D01*
X1212530Y612462D01*
X1211701Y613702D01*
X1210461Y614531D01*
X1208998Y614822D01*
D02*
G37*
G36*
X1351000Y611323D02*
X1349537Y611032D01*
X1348296Y610204D01*
X1347468Y608963D01*
X1347177Y607500D01*
X1347468Y606037D01*
X1348296Y604796D01*
X1349537Y603968D01*
X1351000Y603677D01*
X1352463Y603968D01*
X1353704Y604796D01*
X1354532Y606037D01*
X1354823Y607500D01*
X1354532Y608963D01*
X1353704Y610204D01*
X1352463Y611032D01*
X1351000Y611323D01*
D02*
G37*
G36*
X1210000Y594823D02*
X1208537Y594532D01*
X1207296Y593704D01*
X1206468Y592463D01*
X1206177Y591000D01*
X1206468Y589537D01*
X1207296Y588296D01*
X1208537Y587468D01*
X1210000Y587177D01*
X1211463Y587468D01*
X1212704Y588296D01*
X1213532Y589537D01*
X1213823Y591000D01*
X1213532Y592463D01*
X1212704Y593704D01*
X1211463Y594532D01*
X1210000Y594823D01*
D02*
G37*
G36*
X1351000Y593323D02*
X1349537Y593032D01*
X1348296Y592204D01*
X1347468Y590963D01*
X1347177Y589500D01*
X1347468Y588037D01*
X1348296Y586796D01*
X1349537Y585968D01*
X1351000Y585677D01*
X1352463Y585968D01*
X1353704Y586796D01*
X1354532Y588037D01*
X1354823Y589500D01*
X1354532Y590963D01*
X1353704Y592204D01*
X1352463Y593032D01*
X1351000Y593323D01*
D02*
G37*
G36*
X1209000Y571823D02*
X1207537Y571532D01*
X1206296Y570704D01*
X1205468Y569463D01*
X1205177Y568000D01*
X1205468Y566537D01*
X1206296Y565296D01*
X1207537Y564468D01*
X1209000Y564177D01*
X1210463Y564468D01*
X1211704Y565296D01*
X1212532Y566537D01*
X1212823Y568000D01*
X1212532Y569463D01*
X1211704Y570704D01*
X1210463Y571532D01*
X1209000Y571823D01*
D02*
G37*
G36*
Y554073D02*
X1207537Y553782D01*
X1206296Y552954D01*
X1205468Y551713D01*
X1205177Y550250D01*
X1205468Y548787D01*
X1206296Y547546D01*
X1207537Y546718D01*
X1209000Y546427D01*
X1210463Y546718D01*
X1211704Y547546D01*
X1212532Y548787D01*
X1212823Y550250D01*
X1212532Y551713D01*
X1211704Y552954D01*
X1210463Y553782D01*
X1209000Y554073D01*
D02*
G37*
G36*
X1351000Y539323D02*
X1349537Y539032D01*
X1348296Y538204D01*
X1347468Y536963D01*
X1347177Y535500D01*
X1347468Y534037D01*
X1348296Y532796D01*
X1349537Y531968D01*
X1351000Y531677D01*
X1352463Y531968D01*
X1353704Y532796D01*
X1354532Y534037D01*
X1354823Y535500D01*
X1354532Y536963D01*
X1353704Y538204D01*
X1352463Y539032D01*
X1351000Y539323D01*
D02*
G37*
%LPD*%
D70*
X1407750Y970750D02*
D03*
X1534250Y985950D02*
D03*
D76*
X294010Y128680D02*
D03*
X494010D02*
D03*
D82*
X329000Y444000D02*
D03*
Y636000D02*
D03*
Y646000D02*
D03*
X981000Y221250D02*
D03*
X916000Y179750D02*
D03*
X960000Y180500D02*
D03*
X1003000Y220250D02*
D03*
X1061918Y40332D02*
D03*
X1006900Y66100D02*
D03*
X1042500Y211000D02*
D03*
X1095430Y110180D02*
D03*
X1266852Y67602D02*
D03*
X585100Y22850D02*
D03*
X608250Y23000D02*
D03*
X1498750Y570000D02*
D03*
X1498250Y498250D02*
D03*
X1418000Y747750D02*
D03*
X1705530Y884780D02*
D03*
X1082250Y748250D02*
D03*
X1196150Y746100D02*
D03*
X1080000Y579000D02*
D03*
X1041350Y633400D02*
D03*
X1137740Y588490D02*
D03*
X1041350Y661150D02*
D03*
X328500Y764750D02*
D03*
X423852Y839602D02*
D03*
X348000Y814500D02*
D03*
X468398Y934898D02*
D03*
X605000Y943250D02*
D03*
X627000Y943000D02*
D03*
X686000Y941750D02*
D03*
X708000Y942250D02*
D03*
X538770Y29230D02*
D03*
X494000Y900000D02*
D03*
X90500Y779000D02*
D03*
X241000Y874000D02*
D03*
X287000Y947500D02*
D03*
X1027810Y811690D02*
D03*
X1342000Y824831D02*
D03*
X402398Y908750D02*
D03*
X271030Y793500D02*
D03*
X924000Y77000D02*
D03*
X1050000Y570000D02*
D03*
X164000Y850000D02*
D03*
X163750Y839750D02*
D03*
X163500Y830000D02*
D03*
Y819750D02*
D03*
X163250Y809500D02*
D03*
Y799750D02*
D03*
X163500Y789750D02*
D03*
Y780500D02*
D03*
X164000Y768750D02*
D03*
X167500Y729000D02*
D03*
X172000Y850000D02*
D03*
X171750Y839750D02*
D03*
X171000Y830250D02*
D03*
Y819250D02*
D03*
Y808750D02*
D03*
X170750Y800250D02*
D03*
X171000Y790000D02*
D03*
X170750Y780250D02*
D03*
X171250Y769250D02*
D03*
X1099250Y544000D02*
D03*
X1011000Y710000D02*
D03*
X1183150Y538150D02*
D03*
X1171000Y608000D02*
D03*
X1210750Y623250D02*
D03*
X1169000Y699000D02*
D03*
X1092500Y707500D02*
D03*
D83*
X1161500Y633500D02*
D03*
M02*
