G04 Layer_Color=32896*
%FSLAX44Y44*%
%MOMM*%
G71*
G01*
G75*
%ADD62C,0.2000*%
%ADD104C,0.1270*%
%ADD106C,0.2032*%
%ADD180C,0.1778*%
D62*
X1264150Y635390D02*
G03*
X1264150Y635390I-1000J0D01*
G01*
D02*
G03*
X1264150Y635390I-1000J0D01*
G01*
X1086340Y797990D02*
G03*
X1086340Y797990I-1000J0D01*
G01*
D02*
G03*
X1086340Y797990I-1000J0D01*
G01*
X1285040Y838531D02*
G03*
X1285040Y838531I-1000J0D01*
G01*
D02*
G03*
X1285040Y838531I-1000J0D01*
G01*
D104*
X342510Y133700D02*
G03*
X342510Y133700I-2540J0D01*
G01*
D02*
G03*
X342510Y133700I-2540J0D01*
G01*
X1235950Y692490D02*
X1267950D01*
X1235950Y642490D02*
X1267950D01*
Y692490D01*
X1235950Y642490D02*
Y692490D01*
X1267950D01*
X1235950Y642490D02*
X1267950D01*
Y692490D01*
X1235950Y642490D02*
Y692490D01*
X1050540Y793540D02*
X1089540D01*
X1050540Y842540D02*
X1089540D01*
Y793540D02*
Y842540D01*
X1050540Y793540D02*
Y842540D01*
Y793540D02*
X1089540D01*
X1050540Y842540D02*
X1089540D01*
Y793540D02*
Y842540D01*
X1050540Y793540D02*
Y842540D01*
X1279840Y842981D02*
X1318840D01*
X1279840Y793981D02*
X1318840D01*
X1279840D02*
Y842981D01*
X1318840Y793981D02*
Y842981D01*
X1279840D02*
X1318840D01*
X1279840Y793981D02*
X1318840D01*
X1279840D02*
Y842981D01*
X1318840Y793981D02*
Y842981D01*
X342510Y123640D02*
Y123680D01*
X325010Y128640D02*
Y128720D01*
X342510Y123640D02*
Y123680D01*
X325010Y128640D02*
Y128720D01*
X1622430Y777750D02*
Y923750D01*
Y777750D02*
X1761930D01*
Y923750D01*
X1661930D02*
X1761930D01*
X1661930D02*
Y939750D01*
X1622530Y923750D02*
X1643930D01*
Y939750D01*
X1661930D01*
X1622430Y777750D02*
Y923750D01*
Y777750D02*
X1761930D01*
Y923750D01*
X1661930D02*
X1761930D01*
X1661930D02*
Y939750D01*
X1622530Y923750D02*
X1643930D01*
Y939750D01*
X1661930D01*
X226550Y953190D02*
X260550D01*
X226550Y980190D02*
X260550D01*
Y953190D02*
Y980190D01*
X226550Y953190D02*
Y980190D01*
Y953190D02*
X260550D01*
X226550Y980190D02*
X260550D01*
Y953190D02*
Y980190D01*
X226550Y953190D02*
Y980190D01*
X323440Y904550D02*
Y938550D01*
X296440Y904550D02*
Y938550D01*
X323440D01*
X296440Y904550D02*
X323440D01*
Y938550D01*
X296440Y904550D02*
Y938550D01*
X323440D01*
X296440Y904550D02*
X323440D01*
X669250Y945140D02*
Y980140D01*
X642750D02*
X669250D01*
X642750Y945140D02*
Y980140D01*
Y945140D02*
X669250D01*
Y980140D01*
X642750D02*
X669250D01*
X642750Y945140D02*
Y980140D01*
Y945140D02*
X669250D01*
X723750D02*
X750250D01*
X723750D02*
Y980140D01*
X750250D01*
Y945140D02*
Y980140D01*
X723750Y945140D02*
X750250D01*
X723750D02*
Y980140D01*
X750250D01*
Y945140D02*
Y980140D01*
D106*
X315010Y120030D02*
G03*
X321360Y113680I6350J0D01*
G01*
Y143680D02*
G03*
X315010Y137330I0J-6350D01*
G01*
X342510Y123660D02*
G03*
X342510Y123660I-2540J0D01*
G01*
X342510Y123684D02*
G03*
X339970Y126180I-2540J-44D01*
G01*
X325010Y128720D02*
G03*
X327550Y126180I2540J0D01*
G01*
Y131180D02*
G03*
X325010Y128640I0J-2540D01*
G01*
X339970Y131180D02*
G03*
X342510Y133676I0J2540D01*
G01*
X315010Y120030D02*
G03*
X321360Y113680I6350J0D01*
G01*
Y143680D02*
G03*
X315010Y137330I0J-6350D01*
G01*
X342510Y123660D02*
G03*
X342510Y123660I-2540J0D01*
G01*
X342510Y123684D02*
G03*
X339970Y126180I-2540J-44D01*
G01*
X325010Y128720D02*
G03*
X327550Y126180I2540J0D01*
G01*
Y131180D02*
G03*
X325010Y128640I0J-2540D01*
G01*
X339970Y131180D02*
G03*
X342510Y133676I0J2540D01*
G01*
X255010Y143680D02*
X280010D01*
Y113680D02*
Y143680D01*
X255010Y113680D02*
X280010D01*
X455010Y143680D02*
X500010D01*
X515010D01*
Y138680D02*
Y143680D01*
Y138680D02*
X525010D01*
X515010Y118680D02*
X525010D01*
X515010Y113680D02*
Y118680D01*
X500010Y113680D02*
X515010D01*
X455010D02*
X500010D01*
X321360D02*
X455010D01*
X315010Y120030D02*
Y137330D01*
X321360Y143680D02*
X455010D01*
X342510Y123680D02*
X500010D01*
X327550Y126180D02*
X339970D01*
X327550Y131180D02*
X339970D01*
X342510Y133680D02*
Y133720D01*
Y133680D02*
X500010D01*
Y143680D01*
Y123680D02*
Y133680D01*
Y113680D02*
Y123680D01*
X255010Y143680D02*
X280010D01*
Y113680D02*
Y143680D01*
X255010Y113680D02*
X280010D01*
X455010Y143680D02*
X500010D01*
X515010D01*
Y138680D02*
Y143680D01*
Y138680D02*
X525010D01*
X515010Y118680D02*
X525010D01*
X515010Y113680D02*
Y118680D01*
X500010Y113680D02*
X515010D01*
X455010D02*
X500010D01*
X321360D02*
X455010D01*
X315010Y120030D02*
Y137330D01*
X321360Y143680D02*
X455010D01*
X342510Y123680D02*
X500010D01*
X327550Y126180D02*
X339970D01*
X327550Y131180D02*
X339970D01*
X342510Y133680D02*
Y133720D01*
Y133680D02*
X500010D01*
Y143680D01*
Y123680D02*
Y133680D01*
Y113680D02*
Y123680D01*
D180*
X454884Y144498D02*
G03*
X255136Y144498I-99874J-15819D01*
G01*
Y112862D02*
G03*
X454884Y112862I99874J15819D01*
G01*
Y144498D02*
G03*
X255136Y144498I-99874J-15819D01*
G01*
Y112862D02*
G03*
X454884Y112862I99874J15819D01*
G01*
M02*
