G04 Layer_Physical_Order=1*
G04 Layer_Color=255*
%FSLAX44Y44*%
%MOMM*%
G71*
G01*
G75*
%ADD10R,0.3000X0.8500*%
%ADD11R,2.0000X0.3500*%
%ADD12R,4.6000X4.5000*%
%ADD13R,1.2500X1.6000*%
%ADD14R,0.6500X1.9250*%
%ADD15R,0.3000X1.0000*%
%ADD16R,1.0000X0.3000*%
%ADD17R,4.8500X4.8500*%
%ADD18R,1.2000X0.4000*%
G04:AMPARAMS|DCode=19|XSize=7.4mm|YSize=7.4mm|CornerRadius=0mm|HoleSize=0mm|Usage=FLASHONLY|Rotation=0.000|XOffset=0mm|YOffset=0mm|HoleType=Round|Shape=RoundedRectangle|*
%AMROUNDEDRECTD19*
21,1,7.4000,7.4000,0,0,0.0*
21,1,7.4000,7.4000,0,0,0.0*
1,1,0.0000,3.7000,-3.7000*
1,1,0.0000,-3.7000,-3.7000*
1,1,0.0000,-3.7000,3.7000*
1,1,0.0000,3.7000,3.7000*
%
%ADD19ROUNDEDRECTD19*%
%ADD20R,0.8500X0.3000*%
%ADD21R,1.9000X0.6000*%
%ADD22R,0.6000X1.2000*%
%ADD23R,1.0500X0.4500*%
%ADD24R,2.2000X2.1500*%
%ADD25R,1.0160X1.3970*%
%ADD26R,1.3970X1.0160*%
%ADD27R,0.6000X1.2500*%
%ADD28R,0.5000X1.0000*%
%ADD29R,1.0000X0.5000*%
%ADD30R,1.3000X0.6000*%
%ADD31R,1.6500X0.6000*%
%ADD32R,1.8500X0.6000*%
%ADD33R,0.8000X1.4000*%
%ADD34R,1.3500X1.8000*%
%ADD35R,0.6500X2.1400*%
%ADD36R,0.6500X1.6000*%
%ADD37R,1.1000X0.4500*%
%ADD38R,1.1500X0.4500*%
%ADD39R,0.6500X1.3000*%
%ADD40R,0.6000X1.1500*%
%ADD41R,1.1600X1.5000*%
%ADD42R,1.4200X1.0500*%
%ADD43R,1.0500X1.4200*%
%ADD44R,1.0900X2.7200*%
%ADD45R,2.7200X1.0900*%
%ADD46R,2.2500X3.2000*%
%ADD47R,1.1000X1.4700*%
%ADD48R,1.4700X1.1000*%
%ADD49R,0.7500X1.6000*%
%ADD50R,1.1000X1.4000*%
%ADD51R,1.6000X0.7500*%
%ADD52R,0.1000X0.1000*%
%ADD53R,0.6000X0.5220*%
%ADD54R,1.4000X1.1000*%
%ADD55R,1.5000X3.6000*%
%ADD56R,0.8000X0.2500*%
%ADD57R,1.7500X2.6500*%
%ADD58R,0.4000X1.0000*%
%ADD59R,0.4600X0.8400*%
%ADD60C,0.4000*%
%ADD61C,0.2400*%
%ADD62C,0.2000*%
%ADD63C,0.2540*%
%ADD64C,0.4500*%
%ADD65C,0.2500*%
%ADD66C,1.8000*%
%ADD67C,2.5000*%
%ADD68C,3.2500*%
%ADD69C,2.4000*%
%ADD70C,1.5200*%
%ADD71C,1.3900*%
%ADD72C,1.5750*%
%ADD73C,2.3250*%
%ADD74C,1.5000*%
%ADD75R,1.5000X1.5000*%
%ADD76C,1.4224*%
%ADD77C,3.0000*%
%ADD78C,0.5000*%
%ADD79C,1.1000*%
%ADD80C,2.8300*%
%ADD81C,2.3800*%
%ADD82C,0.4500*%
%ADD83C,0.3000*%
G36*
X235000Y982830D02*
X229670D01*
Y966690D01*
X227130D01*
Y982830D01*
X220410D01*
Y970000D01*
X206890D01*
Y973830D01*
X187110D01*
Y970000D01*
X155000D01*
X155000Y935000D01*
X130222D01*
X129949Y937772D01*
X128994Y940918D01*
X127444Y943817D01*
X125359Y946359D01*
X122817Y948444D01*
X119918Y949994D01*
X116772Y950948D01*
X114770Y951146D01*
Y934500D01*
Y917854D01*
X116772Y918052D01*
X119918Y919006D01*
X122817Y920556D01*
X125359Y922641D01*
X127444Y925183D01*
X128730Y927588D01*
X130000Y927270D01*
X130000Y915000D01*
X85000D01*
Y805000D01*
X30000D01*
Y990000D01*
X104675D01*
X105083Y988797D01*
X104585Y988415D01*
X102581Y985804D01*
X101322Y982763D01*
X100892Y979500D01*
X101322Y976237D01*
X102581Y973196D01*
X104585Y970585D01*
X107196Y968581D01*
X110237Y967322D01*
X113500Y966892D01*
X116763Y967322D01*
X119804Y968581D01*
X122415Y970585D01*
X124419Y973196D01*
X125678Y976237D01*
X126108Y979500D01*
X125678Y982763D01*
X124419Y985804D01*
X122415Y988415D01*
X121917Y988797D01*
X122325Y990000D01*
X235000D01*
Y982830D01*
D02*
G37*
G36*
X737451Y977817D02*
X737884Y977772D01*
X738313Y977704D01*
X738738Y977613D01*
X739158Y977501D01*
X739572Y977366D01*
X739977Y977211D01*
X740375Y977034D01*
X740762Y976837D01*
X741138Y976619D01*
X741503Y976383D01*
X741854Y976127D01*
X742192Y975854D01*
X742515Y975563D01*
X742823Y975255D01*
X743114Y974932D01*
X743387Y974594D01*
X743643Y974243D01*
X743879Y973878D01*
X744097Y973502D01*
X744294Y973114D01*
X744471Y972717D01*
X744627Y972311D01*
X744761Y971898D01*
X744873Y971478D01*
X744964Y971053D01*
X745032Y970624D01*
X745077Y970191D01*
X745100Y969757D01*
Y969540D01*
X745100Y969382D01*
X745078Y968966D01*
X745035Y968552D01*
X744970Y968141D01*
X744883Y967733D01*
X744775Y967331D01*
X744647Y966935D01*
X744498Y966546D01*
X744328Y966166D01*
X744139Y965795D01*
X743931Y965435D01*
X743704Y965085D01*
X743459Y964749D01*
X743197Y964425D01*
X742919Y964116D01*
X742624Y963821D01*
X742315Y963542D01*
X741991Y963280D01*
X741655Y963036D01*
X741305Y962809D01*
X740945Y962601D01*
X740574Y962412D01*
X740193Y962242D01*
X739805Y962093D01*
X739409Y961965D01*
X739007Y961857D01*
X738599Y961770D01*
X738188Y961705D01*
X737774Y961662D01*
X737358Y961640D01*
X737100Y961640D01*
Y964640D01*
X737231D01*
X737493Y964654D01*
X737753Y964681D01*
X738011Y964722D01*
X738268Y964777D01*
X738521Y964844D01*
X738770Y964925D01*
X739014Y965019D01*
X739253Y965126D01*
X739487Y965244D01*
X739713Y965375D01*
X739933Y965518D01*
X740145Y965672D01*
X740348Y965837D01*
X740543Y966012D01*
X740728Y966197D01*
X740903Y966392D01*
X741068Y966595D01*
X741222Y966807D01*
X741365Y967027D01*
X741496Y967253D01*
X741615Y967487D01*
X741721Y967726D01*
X741815Y967970D01*
X741896Y968220D01*
X741964Y968472D01*
X742018Y968728D01*
X742059Y968987D01*
X742086Y969248D01*
X742100Y969509D01*
Y969640D01*
Y969940D01*
Y970068D01*
X742087Y970325D01*
X742060Y970580D01*
X742020Y970833D01*
X741966Y971084D01*
X741900Y971332D01*
X741821Y971576D01*
X741729Y971816D01*
X741624Y972050D01*
X741508Y972279D01*
X741379Y972501D01*
X741240Y972716D01*
X741089Y972924D01*
X740927Y973123D01*
X740755Y973314D01*
X740574Y973495D01*
X740383Y973667D01*
X740184Y973829D01*
X739976Y973980D01*
X739761Y974119D01*
X739539Y974248D01*
X739310Y974364D01*
X739076Y974469D01*
X738836Y974560D01*
X738592Y974640D01*
X738344Y974706D01*
X738093Y974760D01*
X737840Y974800D01*
X737585Y974827D01*
X737328Y974840D01*
X736964D01*
X736692Y974826D01*
X736421Y974797D01*
X736152Y974755D01*
X735886Y974698D01*
X735623Y974628D01*
X735364Y974543D01*
X735109Y974446D01*
X734861Y974335D01*
X734618Y974211D01*
X734382Y974075D01*
X734154Y973927D01*
X733933Y973767D01*
X733722Y973595D01*
X733519Y973413D01*
X733327Y973221D01*
X733145Y973018D01*
X732973Y972807D01*
X732813Y972586D01*
X732665Y972358D01*
X732529Y972122D01*
X732405Y971879D01*
X732294Y971631D01*
X732197Y971376D01*
X732112Y971117D01*
X732042Y970854D01*
X731985Y970588D01*
X731943Y970319D01*
X731914Y970048D01*
X731900Y969776D01*
Y969640D01*
X731903Y969470D01*
X731921Y969206D01*
X731954Y968943D01*
X732000Y968683D01*
X732059Y968425D01*
X732132Y968171D01*
X732218Y967921D01*
X732317Y967675D01*
X732429Y967436D01*
X732553Y967202D01*
X732689Y966975D01*
X732837Y966756D01*
X732996Y966545D01*
X733166Y966342D01*
X733347Y966149D01*
X733537Y965965D01*
X733737Y965792D01*
X733945Y965629D01*
X734162Y965477D01*
X734386Y965337D01*
X734617Y965209D01*
X734855Y965093D01*
X735098Y964989D01*
X735347Y964899D01*
X735600Y964822D01*
X735857Y964758D01*
X736116Y964707D01*
X736378Y964670D01*
X736642Y964647D01*
X736906Y964638D01*
X737000Y964640D01*
Y961640D01*
X736788D01*
X736364Y961662D01*
X735942Y961706D01*
X735523Y961773D01*
X735108Y961861D01*
X734699Y961971D01*
X734295Y962102D01*
X733899Y962254D01*
X733512Y962427D01*
X733134Y962619D01*
X732766Y962831D01*
X732411Y963062D01*
X732067Y963312D01*
X731738Y963579D01*
X731422Y963863D01*
X731122Y964162D01*
X730839Y964478D01*
X730572Y964807D01*
X730322Y965151D01*
X730091Y965506D01*
X729879Y965874D01*
X729687Y966252D01*
X729514Y966639D01*
X729362Y967035D01*
X729231Y967439D01*
X729121Y967849D01*
X729033Y968263D01*
X728967Y968682D01*
X728922Y969104D01*
X728900Y969528D01*
Y969740D01*
Y970040D01*
Y970244D01*
X728921Y970652D01*
X728964Y971059D01*
X729028Y971462D01*
X729113Y971861D01*
X729219Y972256D01*
X729345Y972645D01*
X729491Y973026D01*
X729657Y973399D01*
X729843Y973763D01*
X730047Y974117D01*
X730270Y974460D01*
X730510Y974790D01*
X730767Y975107D01*
X731040Y975411D01*
X731329Y975700D01*
X731633Y975973D01*
X731950Y976230D01*
X732281Y976470D01*
X732623Y976693D01*
X732977Y976897D01*
X733341Y977083D01*
X733714Y977249D01*
X734096Y977395D01*
X734484Y977521D01*
X734878Y977627D01*
X735278Y977712D01*
X735682Y977776D01*
X736088Y977819D01*
X736496Y977840D01*
X737017D01*
X737451Y977817D01*
D02*
G37*
G36*
X656451D02*
X656884Y977772D01*
X657313Y977704D01*
X657738Y977613D01*
X658158Y977501D01*
X658572Y977366D01*
X658977Y977211D01*
X659374Y977034D01*
X659762Y976837D01*
X660138Y976619D01*
X660503Y976383D01*
X660854Y976127D01*
X661192Y975854D01*
X661515Y975563D01*
X661823Y975255D01*
X662114Y974932D01*
X662387Y974594D01*
X662643Y974243D01*
X662879Y973878D01*
X663097Y973502D01*
X663294Y973114D01*
X663471Y972717D01*
X663627Y972311D01*
X663761Y971898D01*
X663873Y971478D01*
X663964Y971053D01*
X664032Y970624D01*
X664077Y970191D01*
X664100Y969757D01*
Y969540D01*
X664100Y969382D01*
X664078Y968966D01*
X664035Y968552D01*
X663970Y968141D01*
X663883Y967733D01*
X663775Y967331D01*
X663647Y966935D01*
X663497Y966546D01*
X663328Y966166D01*
X663139Y965795D01*
X662931Y965435D01*
X662704Y965085D01*
X662459Y964749D01*
X662197Y964425D01*
X661919Y964116D01*
X661624Y963821D01*
X661315Y963542D01*
X660991Y963280D01*
X660655Y963036D01*
X660305Y962809D01*
X659945Y962601D01*
X659574Y962412D01*
X659193Y962242D01*
X658805Y962093D01*
X658409Y961965D01*
X658007Y961857D01*
X657599Y961770D01*
X657188Y961705D01*
X656774Y961662D01*
X656358Y961640D01*
X656100Y961640D01*
Y964640D01*
X656231D01*
X656492Y964654D01*
X656753Y964681D01*
X657011Y964722D01*
X657268Y964777D01*
X657521Y964844D01*
X657770Y964925D01*
X658014Y965019D01*
X658253Y965126D01*
X658487Y965244D01*
X658713Y965375D01*
X658933Y965518D01*
X659145Y965672D01*
X659348Y965837D01*
X659543Y966012D01*
X659728Y966197D01*
X659903Y966392D01*
X660068Y966595D01*
X660222Y966807D01*
X660365Y967027D01*
X660496Y967253D01*
X660614Y967487D01*
X660721Y967726D01*
X660815Y967970D01*
X660896Y968220D01*
X660964Y968472D01*
X661018Y968728D01*
X661059Y968987D01*
X661086Y969248D01*
X661100Y969509D01*
Y969640D01*
Y969940D01*
Y970068D01*
X661087Y970325D01*
X661060Y970580D01*
X661020Y970833D01*
X660966Y971084D01*
X660900Y971332D01*
X660820Y971576D01*
X660729Y971816D01*
X660624Y972050D01*
X660508Y972279D01*
X660379Y972501D01*
X660240Y972716D01*
X660089Y972924D01*
X659927Y973123D01*
X659756Y973314D01*
X659574Y973495D01*
X659383Y973667D01*
X659184Y973829D01*
X658976Y973980D01*
X658761Y974119D01*
X658539Y974248D01*
X658310Y974364D01*
X658076Y974469D01*
X657836Y974560D01*
X657592Y974640D01*
X657344Y974706D01*
X657093Y974760D01*
X656840Y974800D01*
X656585Y974827D01*
X656328Y974840D01*
X655964D01*
X655692Y974826D01*
X655421Y974797D01*
X655152Y974755D01*
X654886Y974698D01*
X654623Y974628D01*
X654364Y974543D01*
X654109Y974446D01*
X653861Y974335D01*
X653618Y974211D01*
X653382Y974075D01*
X653154Y973927D01*
X652933Y973767D01*
X652722Y973595D01*
X652519Y973413D01*
X652327Y973221D01*
X652144Y973018D01*
X651973Y972807D01*
X651813Y972586D01*
X651665Y972358D01*
X651529Y972122D01*
X651405Y971879D01*
X651294Y971631D01*
X651197Y971376D01*
X651112Y971117D01*
X651042Y970854D01*
X650985Y970588D01*
X650943Y970319D01*
X650914Y970048D01*
X650900Y969776D01*
Y969640D01*
X650903Y969470D01*
X650921Y969206D01*
X650954Y968943D01*
X651000Y968683D01*
X651059Y968425D01*
X651132Y968171D01*
X651218Y967921D01*
X651317Y967675D01*
X651429Y967436D01*
X651553Y967202D01*
X651689Y966975D01*
X651837Y966756D01*
X651996Y966545D01*
X652166Y966342D01*
X652347Y966149D01*
X652537Y965965D01*
X652737Y965792D01*
X652945Y965629D01*
X653162Y965477D01*
X653386Y965337D01*
X653617Y965209D01*
X653855Y965093D01*
X654099Y964989D01*
X654347Y964899D01*
X654600Y964822D01*
X654857Y964758D01*
X655116Y964707D01*
X655378Y964670D01*
X655642Y964647D01*
X655906Y964638D01*
X656000Y964640D01*
Y961640D01*
X655788D01*
X655364Y961662D01*
X654942Y961706D01*
X654523Y961773D01*
X654108Y961861D01*
X653699Y961971D01*
X653295Y962102D01*
X652899Y962254D01*
X652512Y962427D01*
X652134Y962619D01*
X651766Y962831D01*
X651411Y963062D01*
X651067Y963312D01*
X650738Y963579D01*
X650422Y963863D01*
X650122Y964162D01*
X649839Y964478D01*
X649572Y964807D01*
X649322Y965151D01*
X649091Y965506D01*
X648879Y965874D01*
X648687Y966252D01*
X648514Y966639D01*
X648362Y967035D01*
X648231Y967439D01*
X648121Y967849D01*
X648033Y968263D01*
X647967Y968682D01*
X647922Y969104D01*
X647900Y969528D01*
Y969740D01*
Y970040D01*
Y970244D01*
X647921Y970652D01*
X647964Y971059D01*
X648028Y971462D01*
X648113Y971861D01*
X648219Y972256D01*
X648345Y972645D01*
X648491Y973026D01*
X648658Y973399D01*
X648843Y973763D01*
X649047Y974117D01*
X649270Y974460D01*
X649510Y974790D01*
X649767Y975107D01*
X650040Y975411D01*
X650329Y975700D01*
X650633Y975973D01*
X650950Y976230D01*
X651281Y976470D01*
X651623Y976693D01*
X651977Y976897D01*
X652341Y977083D01*
X652714Y977249D01*
X653095Y977395D01*
X653484Y977521D01*
X653879Y977627D01*
X654278Y977712D01*
X654682Y977776D01*
X655088Y977819D01*
X655496Y977840D01*
X656017D01*
X656451Y977817D01*
D02*
G37*
G36*
X198270Y950860D02*
X206890D01*
Y955000D01*
X215000D01*
Y895000D01*
Y890000D01*
X150000D01*
Y805000D01*
X95000D01*
Y905000D01*
X140000D01*
Y925000D01*
X165000D01*
Y955000D01*
X187110D01*
Y950860D01*
X195730D01*
Y958900D01*
X198270D01*
Y950860D01*
D02*
G37*
G36*
X176110Y859160D02*
Y850540D01*
X184150D01*
Y848000D01*
X176110D01*
Y839380D01*
X185000D01*
Y830540D01*
X174960D01*
Y811270D01*
X185000D01*
Y808730D01*
X174960D01*
Y789460D01*
X185000D01*
Y784525D01*
X176982D01*
Y776270D01*
X184602D01*
Y773730D01*
X176982D01*
Y765475D01*
X175909Y765000D01*
X160000D01*
Y860000D01*
X175188D01*
X176110Y859160D01*
D02*
G37*
G36*
X499377Y140190D02*
X505944Y133024D01*
X505520Y123313D01*
X498354Y116746D01*
X488643Y117170D01*
X482076Y124336D01*
X482500Y134047D01*
X489666Y140614D01*
X499377Y140190D01*
D02*
G37*
G36*
X299377D02*
X305944Y133024D01*
X305520Y123313D01*
X298354Y116746D01*
X288643Y117170D01*
X282076Y124336D01*
X282500Y134047D01*
X289666Y140614D01*
X299377Y140190D01*
D02*
G37*
%LPC*%
G36*
X206890Y983140D02*
X198270D01*
Y976370D01*
X206890D01*
Y983140D01*
D02*
G37*
G36*
X195730D02*
X187110D01*
Y976370D01*
X195730D01*
Y983140D01*
D02*
G37*
G36*
X112230Y951146D02*
X110228Y950948D01*
X107082Y949994D01*
X104183Y948444D01*
X101641Y946359D01*
X99556Y943817D01*
X98006Y940918D01*
X97051Y937772D01*
X96854Y935770D01*
X112230D01*
Y951146D01*
D02*
G37*
G36*
Y933230D02*
X96854D01*
X97051Y931228D01*
X98006Y928082D01*
X99556Y925183D01*
X101641Y922641D01*
X104183Y920556D01*
X107082Y919006D01*
X110228Y918052D01*
X112230Y917854D01*
Y933230D01*
D02*
G37*
G36*
X67770Y921146D02*
Y905770D01*
X83146D01*
X82949Y907772D01*
X81994Y910918D01*
X80444Y913817D01*
X78359Y916359D01*
X75817Y918444D01*
X72918Y919994D01*
X69772Y920948D01*
X67770Y921146D01*
D02*
G37*
G36*
X65230D02*
X63228Y920948D01*
X60082Y919994D01*
X57183Y918444D01*
X54641Y916359D01*
X52556Y913817D01*
X51006Y910918D01*
X50051Y907772D01*
X49854Y905770D01*
X65230D01*
Y921146D01*
D02*
G37*
G36*
X83146Y903230D02*
X67770D01*
Y887854D01*
X69772Y888052D01*
X72918Y889006D01*
X75817Y890556D01*
X78359Y892641D01*
X80444Y895183D01*
X81994Y898082D01*
X82949Y901228D01*
X83146Y903230D01*
D02*
G37*
G36*
X65230D02*
X49854D01*
X50051Y901228D01*
X51006Y898082D01*
X52556Y895183D01*
X54641Y892641D01*
X57183Y890556D01*
X60082Y889006D01*
X63228Y888052D01*
X65230Y887854D01*
Y903230D01*
D02*
G37*
G36*
X81510Y837250D02*
X69240D01*
Y825230D01*
X81510D01*
Y837250D01*
D02*
G37*
G36*
X66700D02*
X54430D01*
Y825230D01*
X66700D01*
Y837250D01*
D02*
G37*
G36*
X81510Y822690D02*
X69240D01*
Y810670D01*
X81510D01*
Y822690D01*
D02*
G37*
G36*
X66700D02*
X54430D01*
Y810670D01*
X66700D01*
Y822690D01*
D02*
G37*
G36*
X213290Y934540D02*
X200770D01*
Y917270D01*
X213290D01*
Y934540D01*
D02*
G37*
G36*
X198230D02*
X185710D01*
Y917270D01*
X198230D01*
Y934540D01*
D02*
G37*
G36*
X213290Y914730D02*
X200770D01*
Y897460D01*
X213290D01*
Y914730D01*
D02*
G37*
G36*
X198230D02*
X185710D01*
Y897460D01*
X198230D01*
Y914730D01*
D02*
G37*
G36*
X114770Y891146D02*
Y875770D01*
X130146D01*
X129949Y877772D01*
X128994Y880918D01*
X127444Y883817D01*
X125359Y886359D01*
X122817Y888444D01*
X119918Y889994D01*
X116772Y890948D01*
X114770Y891146D01*
D02*
G37*
G36*
X112230Y891146D02*
X110228Y890948D01*
X107082Y889994D01*
X104183Y888444D01*
X101641Y886359D01*
X99556Y883817D01*
X98006Y880918D01*
X97051Y877772D01*
X96854Y875770D01*
X112230D01*
Y891146D01*
D02*
G37*
G36*
X130146Y873230D02*
X114770D01*
Y857854D01*
X116772Y858052D01*
X119918Y859006D01*
X122817Y860556D01*
X125359Y862641D01*
X127444Y865183D01*
X128994Y868082D01*
X129949Y871228D01*
X130146Y873230D01*
D02*
G37*
G36*
X112230D02*
X96854D01*
X97051Y871228D01*
X98006Y868082D01*
X99556Y865183D01*
X101641Y862641D01*
X104183Y860556D01*
X107082Y859006D01*
X110228Y858052D01*
X112230Y857854D01*
Y873230D01*
D02*
G37*
G36*
X125510Y837250D02*
X113240D01*
Y825230D01*
X125510D01*
Y837250D01*
D02*
G37*
G36*
X110700D02*
X98430D01*
Y825230D01*
X110700D01*
Y837250D01*
D02*
G37*
G36*
X125510Y822690D02*
X113240D01*
Y810670D01*
X125510D01*
Y822690D01*
D02*
G37*
G36*
X110700D02*
X98430D01*
Y810670D01*
X110700D01*
Y822690D01*
D02*
G37*
%LPD*%
D10*
X1137740Y691460D02*
D03*
X1132740D02*
D03*
X1147740Y602460D02*
D03*
X1142740D02*
D03*
X1137740D02*
D03*
X1132740D02*
D03*
X1127740D02*
D03*
X1122740D02*
D03*
X1117740D02*
D03*
X1112740D02*
D03*
X1107740D02*
D03*
X1102740D02*
D03*
X1097740D02*
D03*
X1092740D02*
D03*
X1087740D02*
D03*
X1082740D02*
D03*
X1077740D02*
D03*
X1072740D02*
D03*
Y691460D02*
D03*
X1077740D02*
D03*
X1082740D02*
D03*
X1087740D02*
D03*
X1092740D02*
D03*
X1097740D02*
D03*
X1102740D02*
D03*
X1117740D02*
D03*
X1122740D02*
D03*
X1127740D02*
D03*
X1142740D02*
D03*
X1147740D02*
D03*
X1112740D02*
D03*
X1107740D02*
D03*
D11*
X1336500Y697500D02*
D03*
X1418500Y694500D02*
D03*
X1336500Y691500D02*
D03*
X1418500Y688500D02*
D03*
X1336500Y685500D02*
D03*
X1418500Y682500D02*
D03*
X1336500Y679500D02*
D03*
X1418500Y676500D02*
D03*
X1336500Y673500D02*
D03*
X1418500Y670500D02*
D03*
X1336500Y667500D02*
D03*
X1418500Y664500D02*
D03*
X1336500Y661500D02*
D03*
X1418500Y658500D02*
D03*
X1336500Y655500D02*
D03*
X1418500Y652500D02*
D03*
X1336500Y649500D02*
D03*
X1418500Y646500D02*
D03*
X1336500Y643500D02*
D03*
X1418500Y640500D02*
D03*
X1336500Y637500D02*
D03*
X1418500Y634500D02*
D03*
X1336500Y631500D02*
D03*
X1418500Y628500D02*
D03*
X1336500Y625500D02*
D03*
X1418500Y622500D02*
D03*
X1336500Y619500D02*
D03*
X1418500Y616500D02*
D03*
X1336500Y613500D02*
D03*
X1418500Y610500D02*
D03*
X1336500Y607500D02*
D03*
X1418500Y604500D02*
D03*
X1336500Y601500D02*
D03*
X1418500Y598500D02*
D03*
X1336500Y595500D02*
D03*
X1418500Y592500D02*
D03*
X1336500Y589500D02*
D03*
X1418500Y586500D02*
D03*
X1336500Y583500D02*
D03*
X1418500Y580500D02*
D03*
X1336500Y541500D02*
D03*
X1418500Y538500D02*
D03*
X1336500Y535500D02*
D03*
X1418500Y532500D02*
D03*
X1336500Y529500D02*
D03*
X1418500Y526500D02*
D03*
X1336500Y523500D02*
D03*
X1418500Y520500D02*
D03*
X1336500Y517500D02*
D03*
X1418500Y514500D02*
D03*
X1336500Y511500D02*
D03*
X1418500Y508500D02*
D03*
X1336500Y505500D02*
D03*
X1418500Y502500D02*
D03*
X1336500Y499500D02*
D03*
X1418500Y496500D02*
D03*
X1336500Y493500D02*
D03*
X1418500Y490500D02*
D03*
X1336500Y487500D02*
D03*
X1418500Y484500D02*
D03*
X1336500Y481500D02*
D03*
X1418500Y478500D02*
D03*
X1336500Y475500D02*
D03*
X1418500Y472500D02*
D03*
X1336500Y469500D02*
D03*
X1418500Y466500D02*
D03*
X1336500Y463500D02*
D03*
X1418500Y460500D02*
D03*
X1336500Y457500D02*
D03*
X1418500Y454500D02*
D03*
X1336500Y451500D02*
D03*
X1418500Y448500D02*
D03*
X1336500Y445500D02*
D03*
X1418500Y442500D02*
D03*
X1336500Y439500D02*
D03*
X1418500Y436500D02*
D03*
X1336500Y433500D02*
D03*
X1418500Y430500D02*
D03*
X1336500Y427500D02*
D03*
X1418500Y424500D02*
D03*
X1336500Y421500D02*
D03*
X1418500Y418500D02*
D03*
X1336500Y415500D02*
D03*
X1418500Y412500D02*
D03*
X1336500Y409500D02*
D03*
X1418500Y406500D02*
D03*
X1336500Y403500D02*
D03*
X1418500Y400500D02*
D03*
X1336500Y397500D02*
D03*
X1418500Y394500D02*
D03*
X1336500Y391500D02*
D03*
X1418500Y388500D02*
D03*
X1336500Y385500D02*
D03*
Y379500D02*
D03*
Y373500D02*
D03*
X1418500Y370500D02*
D03*
X1336500Y367500D02*
D03*
Y361500D02*
D03*
Y355500D02*
D03*
X1418500Y352500D02*
D03*
X1336500Y349500D02*
D03*
X1418500Y346500D02*
D03*
X1336500Y343500D02*
D03*
X1418500Y340500D02*
D03*
X1336500Y337500D02*
D03*
X1418500Y334500D02*
D03*
X1336500Y331500D02*
D03*
X1418500Y328500D02*
D03*
X1336500Y325500D02*
D03*
X1418500Y322500D02*
D03*
X1336500Y319500D02*
D03*
X1418500Y316500D02*
D03*
X1336500Y313500D02*
D03*
Y307500D02*
D03*
Y301500D02*
D03*
X1418500Y298500D02*
D03*
X1336500Y295500D02*
D03*
X1418500Y292500D02*
D03*
X1336500Y289500D02*
D03*
X1418500Y286500D02*
D03*
X1336500Y283500D02*
D03*
X1418500Y280500D02*
D03*
X1336500Y277500D02*
D03*
X1418500Y274500D02*
D03*
X1336500Y271500D02*
D03*
X1418500Y268500D02*
D03*
X1336500Y265500D02*
D03*
X1418500Y262500D02*
D03*
X1336500Y259500D02*
D03*
X1418500Y256500D02*
D03*
X1336500Y253500D02*
D03*
X1418500Y250500D02*
D03*
X1336500Y247500D02*
D03*
X1418500Y244500D02*
D03*
X1336500Y241500D02*
D03*
X1418500Y238500D02*
D03*
X1336500Y235500D02*
D03*
X1418500Y232500D02*
D03*
X1336500Y229500D02*
D03*
X1418500Y226500D02*
D03*
Y220500D02*
D03*
Y214500D02*
D03*
X1336500Y211500D02*
D03*
X1418500Y208500D02*
D03*
X1336500Y205500D02*
D03*
X1418500Y202500D02*
D03*
X1336500Y199500D02*
D03*
X1418500Y196500D02*
D03*
X1336500Y193500D02*
D03*
X1418500Y190500D02*
D03*
X1336500Y187500D02*
D03*
X1418500Y184500D02*
D03*
X1336500Y181500D02*
D03*
X1418500Y178500D02*
D03*
X1336500Y175500D02*
D03*
X1418500Y172500D02*
D03*
X1336500Y169500D02*
D03*
X1418500Y166500D02*
D03*
X1336500Y163500D02*
D03*
X1418500Y160500D02*
D03*
X1336500Y157500D02*
D03*
X1418500Y154500D02*
D03*
X1336500Y151500D02*
D03*
X1418500Y148500D02*
D03*
X1336500Y145500D02*
D03*
X1418500Y142500D02*
D03*
X1336500Y139500D02*
D03*
X1418500Y136500D02*
D03*
X1336500Y133500D02*
D03*
X1418500Y130500D02*
D03*
X1336500Y127500D02*
D03*
X1418500Y124500D02*
D03*
X1336500Y121500D02*
D03*
X1418500Y118500D02*
D03*
X1336500Y115500D02*
D03*
X1418500Y112500D02*
D03*
X1336500Y109500D02*
D03*
X1418500Y106500D02*
D03*
X1336500Y103500D02*
D03*
X1418500Y100500D02*
D03*
X1336500Y97500D02*
D03*
X1418500Y94500D02*
D03*
X1336500Y91500D02*
D03*
X1418500Y88500D02*
D03*
X1336500Y85500D02*
D03*
X1418500Y82500D02*
D03*
X1336500Y79500D02*
D03*
X1418500Y76500D02*
D03*
X1336500Y73500D02*
D03*
X1418500Y70500D02*
D03*
X1336500Y67500D02*
D03*
X1418500Y64500D02*
D03*
Y382500D02*
D03*
Y376500D02*
D03*
X1336500Y223500D02*
D03*
Y217500D02*
D03*
X1418500Y364500D02*
D03*
Y358500D02*
D03*
Y310500D02*
D03*
Y304500D02*
D03*
D12*
X1497500Y55500D02*
D03*
Y706500D02*
D03*
D13*
X1262950Y648990D02*
D03*
Y685990D02*
D03*
X1240950D02*
D03*
Y648990D02*
D03*
D14*
X570190Y74360D02*
D03*
X582890D02*
D03*
X595590D02*
D03*
X608290D02*
D03*
X620990D02*
D03*
X633690D02*
D03*
X646390D02*
D03*
X659090D02*
D03*
X671790D02*
D03*
X684490D02*
D03*
Y168600D02*
D03*
X671790D02*
D03*
X659090D02*
D03*
X646390D02*
D03*
X633690D02*
D03*
X620990D02*
D03*
X608290D02*
D03*
X595590D02*
D03*
X582890D02*
D03*
X570190D02*
D03*
D15*
X935000Y95500D02*
D03*
X940000D02*
D03*
X945000D02*
D03*
X950000D02*
D03*
X955000D02*
D03*
X960000D02*
D03*
X965000D02*
D03*
X970000D02*
D03*
X975000D02*
D03*
X980000D02*
D03*
X985000D02*
D03*
Y162500D02*
D03*
X980000D02*
D03*
X975000D02*
D03*
X970000D02*
D03*
X965000D02*
D03*
X960000D02*
D03*
X955000D02*
D03*
X950000D02*
D03*
X945000D02*
D03*
X940000D02*
D03*
X935000D02*
D03*
D16*
X993500Y104000D02*
D03*
Y109000D02*
D03*
Y114000D02*
D03*
Y119000D02*
D03*
Y124000D02*
D03*
Y129000D02*
D03*
Y134000D02*
D03*
Y139000D02*
D03*
Y144000D02*
D03*
Y149000D02*
D03*
Y154000D02*
D03*
X926500D02*
D03*
Y149000D02*
D03*
Y144000D02*
D03*
Y139000D02*
D03*
Y134000D02*
D03*
Y129000D02*
D03*
Y124000D02*
D03*
Y119000D02*
D03*
Y114000D02*
D03*
Y109000D02*
D03*
Y104000D02*
D03*
D17*
X960000Y129000D02*
D03*
D18*
X1118610Y91480D02*
D03*
Y97980D02*
D03*
Y104480D02*
D03*
X1137610D02*
D03*
Y97980D02*
D03*
Y91480D02*
D03*
D19*
X1110240Y646960D02*
D03*
D20*
X1154740Y684460D02*
D03*
Y679460D02*
D03*
Y674460D02*
D03*
Y669460D02*
D03*
Y664460D02*
D03*
Y659460D02*
D03*
Y654460D02*
D03*
Y649460D02*
D03*
Y644460D02*
D03*
Y639460D02*
D03*
Y634460D02*
D03*
Y629460D02*
D03*
Y624460D02*
D03*
Y619460D02*
D03*
Y614460D02*
D03*
Y609460D02*
D03*
X1065740D02*
D03*
Y614460D02*
D03*
Y619460D02*
D03*
Y624460D02*
D03*
Y629460D02*
D03*
Y634460D02*
D03*
Y639460D02*
D03*
Y644460D02*
D03*
Y649460D02*
D03*
Y654460D02*
D03*
Y659460D02*
D03*
Y664460D02*
D03*
Y669460D02*
D03*
Y674460D02*
D03*
Y679460D02*
D03*
Y684460D02*
D03*
D21*
X1094590Y798990D02*
D03*
Y811690D02*
D03*
Y824390D02*
D03*
Y837090D02*
D03*
X1045490D02*
D03*
Y824390D02*
D03*
Y811690D02*
D03*
Y798990D02*
D03*
X1274790Y837531D02*
D03*
Y824831D02*
D03*
Y812131D02*
D03*
Y799431D02*
D03*
X1323890D02*
D03*
Y812131D02*
D03*
Y824831D02*
D03*
Y837531D02*
D03*
D22*
X378500Y864500D02*
D03*
X369000D02*
D03*
X359500D02*
D03*
Y839500D02*
D03*
X378500D02*
D03*
D23*
X422600Y900970D02*
D03*
Y894470D02*
D03*
Y887970D02*
D03*
Y881470D02*
D03*
X448600D02*
D03*
Y887970D02*
D03*
Y894470D02*
D03*
Y900970D02*
D03*
D24*
X67970Y823960D02*
D03*
X111970D02*
D03*
D25*
X627398Y38000D02*
D03*
X608602D02*
D03*
X665602Y922370D02*
D03*
X684398D02*
D03*
X1042622Y76570D02*
D03*
X1061418D02*
D03*
X713602Y922370D02*
D03*
X732398D02*
D03*
X1043122Y54570D02*
D03*
X1061918D02*
D03*
X1175848Y150980D02*
D03*
X1157052D02*
D03*
X1117712Y127980D02*
D03*
X1136508D02*
D03*
X1177008Y44980D02*
D03*
X1158212D02*
D03*
X1117712Y67980D02*
D03*
X1136508D02*
D03*
X1200648Y590000D02*
D03*
X1181852D02*
D03*
X1198648Y689000D02*
D03*
X1179852D02*
D03*
X1285602Y107000D02*
D03*
X1304398D02*
D03*
X1285602Y151000D02*
D03*
X1304398D02*
D03*
X1466602Y410000D02*
D03*
X1485398D02*
D03*
X1466602Y434000D02*
D03*
X1485398D02*
D03*
X1754398Y528000D02*
D03*
X1735602D02*
D03*
X1466602Y498000D02*
D03*
X1485398D02*
D03*
X1466602Y570000D02*
D03*
X1485398D02*
D03*
X1713602Y549000D02*
D03*
X1732398D02*
D03*
X448398Y863000D02*
D03*
X429602D02*
D03*
X468398Y922000D02*
D03*
X449602D02*
D03*
X475602Y888750D02*
D03*
X494398D02*
D03*
X75000Y729000D02*
D03*
X56204D02*
D03*
X75000Y754000D02*
D03*
X56204D02*
D03*
X75000Y779000D02*
D03*
X56204D02*
D03*
X34730Y729330D02*
D03*
X15934D02*
D03*
X34730Y754330D02*
D03*
X15934D02*
D03*
X34730Y779330D02*
D03*
X15934D02*
D03*
X310852Y840270D02*
D03*
X329648D02*
D03*
X203398Y775000D02*
D03*
X184602D02*
D03*
X383602Y922000D02*
D03*
X402398D02*
D03*
X1485398Y603000D02*
D03*
X1466602D02*
D03*
X1485398Y626000D02*
D03*
X1466602D02*
D03*
D26*
X981000Y190602D02*
D03*
Y209398D02*
D03*
X1003000Y190602D02*
D03*
Y209398D02*
D03*
X1044520Y153968D02*
D03*
Y135172D02*
D03*
X1067520D02*
D03*
Y153968D02*
D03*
X1044520Y97172D02*
D03*
Y115968D02*
D03*
X1067520D02*
D03*
Y97172D02*
D03*
X1095450Y134082D02*
D03*
Y152878D02*
D03*
X1095450Y61898D02*
D03*
Y43102D02*
D03*
X1109620Y202488D02*
D03*
Y183692D02*
D03*
X1366000Y833602D02*
D03*
Y852398D02*
D03*
X1220250Y660602D02*
D03*
Y679398D02*
D03*
X1082250Y718602D02*
D03*
Y737398D02*
D03*
X1099250Y551602D02*
D03*
Y570398D02*
D03*
X1571000Y834602D02*
D03*
Y853398D02*
D03*
X1478000Y809398D02*
D03*
Y790602D02*
D03*
X1282000Y67602D02*
D03*
Y86398D02*
D03*
X1281000Y15702D02*
D03*
Y34498D02*
D03*
X1418000Y718352D02*
D03*
Y737148D02*
D03*
X402000Y839602D02*
D03*
Y858398D02*
D03*
X262250Y846270D02*
D03*
Y865066D02*
D03*
D27*
X1140620Y203590D02*
D03*
X1150170Y182590D02*
D03*
X1131070D02*
D03*
D28*
X1754500Y550000D02*
D03*
X1767500D02*
D03*
X1761000Y570000D02*
D03*
D29*
X1732000Y565500D02*
D03*
Y578500D02*
D03*
X1712000Y572000D02*
D03*
D30*
X472680Y864168D02*
D03*
Y845168D02*
D03*
X493680Y854668D02*
D03*
D31*
X274500Y444000D02*
D03*
Y434000D02*
D03*
Y424000D02*
D03*
Y414000D02*
D03*
Y404000D02*
D03*
Y394000D02*
D03*
Y384000D02*
D03*
Y374000D02*
D03*
Y364000D02*
D03*
Y354000D02*
D03*
Y344000D02*
D03*
Y334000D02*
D03*
Y324000D02*
D03*
Y314000D02*
D03*
Y304000D02*
D03*
X274500Y646000D02*
D03*
Y636000D02*
D03*
Y626000D02*
D03*
Y616000D02*
D03*
Y606000D02*
D03*
Y596000D02*
D03*
Y586000D02*
D03*
Y576000D02*
D03*
Y566000D02*
D03*
Y556000D02*
D03*
Y546000D02*
D03*
Y536000D02*
D03*
Y526000D02*
D03*
Y516000D02*
D03*
Y506000D02*
D03*
D32*
X312000Y444000D02*
D03*
Y434000D02*
D03*
Y424000D02*
D03*
Y414000D02*
D03*
Y404000D02*
D03*
Y394000D02*
D03*
Y364000D02*
D03*
Y354000D02*
D03*
Y344000D02*
D03*
Y334000D02*
D03*
Y324000D02*
D03*
Y314000D02*
D03*
Y304000D02*
D03*
X312000Y646000D02*
D03*
Y636000D02*
D03*
Y626000D02*
D03*
Y616000D02*
D03*
Y606000D02*
D03*
Y596000D02*
D03*
Y566000D02*
D03*
Y556000D02*
D03*
Y546000D02*
D03*
Y536000D02*
D03*
Y526000D02*
D03*
Y516000D02*
D03*
Y506000D02*
D03*
Y586000D02*
D03*
Y576000D02*
D03*
X312000Y384000D02*
D03*
Y374000D02*
D03*
D33*
X1672530Y897250D02*
D03*
X1683530D02*
D03*
X1694530D02*
D03*
X1705530D02*
D03*
X1716530D02*
D03*
X1727530D02*
D03*
X1738530D02*
D03*
X1749530D02*
D03*
D34*
X1758430Y917750D02*
D03*
D35*
X1761680Y851450D02*
D03*
D36*
Y800650D02*
D03*
D37*
X1759430Y785600D02*
D03*
D38*
X1759180Y779000D02*
D03*
D39*
X1622680Y781250D02*
D03*
D40*
X1622430Y840500D02*
D03*
D41*
X1625230Y920250D02*
D03*
D42*
X1084750Y192900D02*
D03*
Y177100D02*
D03*
D43*
X847100Y139280D02*
D03*
X862900D02*
D03*
X847100Y210000D02*
D03*
X862900D02*
D03*
X847100Y101000D02*
D03*
X862900D02*
D03*
X847100Y29000D02*
D03*
X862900D02*
D03*
X1142350Y568000D02*
D03*
X1158150D02*
D03*
X1180350Y732000D02*
D03*
X1196150D02*
D03*
D44*
X228400Y966690D02*
D03*
X258700D02*
D03*
D45*
X309940Y906400D02*
D03*
Y936700D02*
D03*
D46*
X268500Y916000D02*
D03*
X199500D02*
D03*
D47*
X568900Y38000D02*
D03*
X585100D02*
D03*
X863100Y163000D02*
D03*
X846900D02*
D03*
X846580Y186000D02*
D03*
X862780D02*
D03*
X863100Y76480D02*
D03*
X846900D02*
D03*
Y53000D02*
D03*
X863100D02*
D03*
X1173550Y127980D02*
D03*
X1157350D02*
D03*
X1134050Y150980D02*
D03*
X1117850D02*
D03*
X1058620Y196672D02*
D03*
X1042420D02*
D03*
X1174550Y67980D02*
D03*
X1158350D02*
D03*
X1134050Y44980D02*
D03*
X1117850D02*
D03*
X1224150Y710000D02*
D03*
X1240350D02*
D03*
X1247150Y621000D02*
D03*
X1263350D02*
D03*
X1024900Y673000D02*
D03*
X1041100D02*
D03*
X1025150Y620000D02*
D03*
X1041350D02*
D03*
X1199350Y568000D02*
D03*
X1183150D02*
D03*
X1198350Y611000D02*
D03*
X1182150D02*
D03*
X1199350Y550250D02*
D03*
X1183150D02*
D03*
X1198350Y632000D02*
D03*
X1182150D02*
D03*
X1196350Y710000D02*
D03*
X1180150D02*
D03*
X1288000Y129000D02*
D03*
X1304200D02*
D03*
X1483100Y522000D02*
D03*
X1466900D02*
D03*
X1483100Y546000D02*
D03*
X1466900D02*
D03*
X369900Y774000D02*
D03*
X386100D02*
D03*
X313150Y863270D02*
D03*
X329350D02*
D03*
X225150Y849270D02*
D03*
X241350D02*
D03*
X252900Y781000D02*
D03*
X269100D02*
D03*
X200350Y849270D02*
D03*
X184150D02*
D03*
D48*
X686000Y969470D02*
D03*
Y953270D02*
D03*
X708000Y969470D02*
D03*
Y953270D02*
D03*
X885000Y152940D02*
D03*
Y136740D02*
D03*
X605000Y969470D02*
D03*
Y953270D02*
D03*
X627000Y969470D02*
D03*
Y953270D02*
D03*
X885000Y195780D02*
D03*
Y211980D02*
D03*
Y86780D02*
D03*
Y102980D02*
D03*
Y42660D02*
D03*
Y26460D02*
D03*
X946000Y49900D02*
D03*
Y66100D02*
D03*
X924000Y49900D02*
D03*
Y66100D02*
D03*
X938000Y207100D02*
D03*
Y190900D02*
D03*
X916000Y207100D02*
D03*
Y190900D02*
D03*
X960000Y207100D02*
D03*
Y190900D02*
D03*
X993000Y49900D02*
D03*
Y66100D02*
D03*
X969000Y49900D02*
D03*
Y66100D02*
D03*
X1095430Y82880D02*
D03*
Y99080D02*
D03*
X1455000Y792900D02*
D03*
Y809100D02*
D03*
X1104250Y735100D02*
D03*
Y718900D02*
D03*
X1061000Y553900D02*
D03*
Y570100D02*
D03*
X1053000Y735100D02*
D03*
Y718900D02*
D03*
X1035000Y735100D02*
D03*
Y718900D02*
D03*
X1143250Y530900D02*
D03*
Y547100D02*
D03*
X1165250Y530900D02*
D03*
Y547100D02*
D03*
X1121250Y553900D02*
D03*
Y570100D02*
D03*
X1080000Y553900D02*
D03*
Y570100D02*
D03*
X1149250Y735100D02*
D03*
Y718900D02*
D03*
X1127250Y735100D02*
D03*
Y718900D02*
D03*
X1303000Y69900D02*
D03*
Y86100D02*
D03*
X1303000Y18000D02*
D03*
Y34200D02*
D03*
X1440000Y734850D02*
D03*
Y718650D02*
D03*
X197000Y975100D02*
D03*
Y958900D02*
D03*
X423000Y797900D02*
D03*
Y814100D02*
D03*
X371000Y797900D02*
D03*
Y814100D02*
D03*
X284250Y862768D02*
D03*
Y846568D02*
D03*
D49*
X1062770Y174172D02*
D03*
X1041270D02*
D03*
D50*
X376500Y890000D02*
D03*
X361500D02*
D03*
D51*
X287000Y978910D02*
D03*
Y957410D02*
D03*
X314000Y978910D02*
D03*
Y957410D02*
D03*
X342000Y978910D02*
D03*
Y957410D02*
D03*
D52*
X649500Y969540D02*
D03*
X730500D02*
D03*
D53*
X647000Y957220D02*
D03*
Y949000D02*
D03*
X656000D02*
D03*
X665000D02*
D03*
Y957220D02*
D03*
X746000D02*
D03*
Y949000D02*
D03*
X737000D02*
D03*
X728000D02*
D03*
Y957220D02*
D03*
D54*
X402000Y898500D02*
D03*
Y883500D02*
D03*
D55*
X298000Y805540D02*
D03*
X328500D02*
D03*
X215500Y810000D02*
D03*
X185000D02*
D03*
D56*
X241030Y823590D02*
D03*
Y819090D02*
D03*
Y814590D02*
D03*
Y810090D02*
D03*
Y805590D02*
D03*
Y801090D02*
D03*
X271030D02*
D03*
Y805590D02*
D03*
Y810090D02*
D03*
Y814590D02*
D03*
Y819090D02*
D03*
Y823590D02*
D03*
D57*
X256030Y812340D02*
D03*
D58*
X390500Y815000D02*
D03*
X403500D02*
D03*
Y795000D02*
D03*
X397000D02*
D03*
X390500D02*
D03*
D59*
X515770Y51800D02*
D03*
Y74800D02*
D03*
X538770Y51800D02*
D03*
Y74800D02*
D03*
D60*
X312000Y444000D02*
X329000D01*
X312000Y636000D02*
X329000D01*
X312000Y646000D02*
X329000D01*
X902000Y58000D02*
X910100Y66100D01*
X902000Y24000D02*
Y58000D01*
Y24000D02*
X910298Y15702D01*
X910100Y66100D02*
X924000D01*
X910298Y15702D02*
X1281000D01*
X359500Y839500D02*
X359750Y839250D01*
X366750D01*
X359250Y864250D02*
X359500Y864500D01*
X359250Y853750D02*
Y864250D01*
X369900Y762100D02*
Y774000D01*
X1117712Y67980D02*
Y90582D01*
X1095450Y43102D02*
X1115972D01*
X1134050Y44980D02*
X1158212D01*
X1136508Y47438D02*
Y67980D01*
X1136508Y67980D02*
X1158350D01*
X924000Y66100D02*
X946000D01*
X268500Y916000D02*
X278100Y906400D01*
X309940D01*
X193250Y922250D02*
X197000Y918500D01*
X113500Y874500D02*
X161250Y922250D01*
X193250D01*
X113500Y825490D02*
Y874500D01*
X111970Y823960D02*
X113500Y825490D01*
X197000Y918500D02*
Y958900D01*
Y975100D02*
X219990D01*
X154100D02*
X197000D01*
X67970Y823960D02*
Y905970D01*
X219990Y975100D02*
X228400Y966690D01*
X113500Y934500D02*
X154100Y975100D01*
X96500Y934500D02*
X113500D01*
X67970Y905970D02*
X96500Y934500D01*
X404470Y900970D02*
X422600D01*
X314000Y940760D02*
Y957410D01*
X287000Y957410D02*
X314000D01*
X342000Y978910D02*
X393470D01*
X397940Y983380D01*
X355340Y957410D02*
X375000Y937750D01*
X398250D01*
X402398Y933602D01*
X314000Y957410D02*
X355340D01*
X402398Y922000D02*
Y933602D01*
X287000Y947500D02*
Y957410D01*
X282250Y942750D02*
X287000Y947500D01*
X248750Y942750D02*
X282250D01*
X241350Y935350D02*
X248750Y942750D01*
X241350Y849270D02*
Y935350D01*
X184150Y775452D02*
Y849270D01*
Y775452D02*
X184602Y775000D01*
X200350Y849270D02*
X225150D01*
X916000Y190900D02*
X938000D01*
X916000Y207100D02*
X916000Y207100D01*
X916000Y207100D02*
Y219500D01*
X938000Y207100D02*
Y219250D01*
X938250Y219500D01*
X960000Y207100D02*
Y220000D01*
X981000Y209398D02*
X1003000D01*
X916000Y179750D02*
Y190900D01*
X916000Y179750D02*
X916000Y179750D01*
X981000Y209398D02*
Y221250D01*
X981250Y221500D01*
X1003000Y209398D02*
Y220250D01*
X1042420Y196672D02*
Y210920D01*
X1042500Y211000D01*
X969000Y66100D02*
X993000D01*
X1006900D01*
X1007000Y66000D01*
X1061918Y40332D02*
Y54570D01*
X1095430Y99080D02*
Y110180D01*
X1095450Y124300D02*
Y134082D01*
X1266852Y67602D02*
X1282000D01*
X608290Y38312D02*
Y74360D01*
Y38312D02*
X608602Y38000D01*
X585100D02*
X608602D01*
X585100Y38000D02*
X585100Y38000D01*
X585100Y22850D02*
Y38000D01*
X585000Y22750D02*
X585100Y22850D01*
X608602Y23352D02*
Y38000D01*
X608250Y23000D02*
X608602Y23352D01*
X1485398Y498000D02*
X1498000D01*
X1498250Y498250D01*
X1485398Y570000D02*
X1498750D01*
X1498750Y570000D01*
X1418000Y737148D02*
Y747750D01*
X1440000Y734850D02*
Y747500D01*
X1705530Y884780D02*
Y897250D01*
X1035250Y735100D02*
Y747750D01*
X1053250Y734100D02*
Y746750D01*
X1082250Y737398D02*
Y748250D01*
X1104250Y735100D02*
Y748750D01*
X1127250Y735100D02*
Y749250D01*
X1149250Y735100D02*
Y749000D01*
X1196150Y732000D02*
Y746100D01*
X1041350Y661150D02*
Y675000D01*
Y620000D02*
Y633400D01*
X1099250Y544000D02*
Y551602D01*
X329350Y840568D02*
Y863270D01*
Y840568D02*
X329648Y840270D01*
X331748Y814100D02*
X371000D01*
X328500Y805540D02*
Y810852D01*
X329648Y812000D02*
Y840270D01*
X328500Y810852D02*
X329648Y812000D01*
X331748Y814100D01*
X329350Y863270D02*
Y890100D01*
X348000Y908750D01*
X370250D01*
X376500Y902500D01*
Y890000D02*
Y902500D01*
X468398Y922000D02*
X548500D01*
X579770Y953270D01*
X605000D01*
X627000D01*
X686000D02*
X708000D01*
X468398Y922000D02*
Y934898D01*
X627000Y943000D02*
Y953270D01*
X686000Y941750D02*
Y953270D01*
X708000Y942250D02*
Y953270D01*
X605000Y943250D02*
Y953270D01*
X633690Y168600D02*
X646390D01*
X659090D01*
X671790D01*
X684490D01*
X646390Y74360D02*
X659090D01*
X671790D01*
X684490D01*
X570190D02*
X582890D01*
Y150110D02*
Y168600D01*
X633690Y150690D02*
Y168600D01*
X684490Y150490D02*
Y168600D01*
Y74360D02*
Y92490D01*
X646390Y74360D02*
Y92610D01*
X570190Y74360D02*
Y92810D01*
X568900Y23100D02*
Y38000D01*
X620990Y58010D02*
Y74360D01*
Y58010D02*
X627398Y51602D01*
Y38000D02*
Y51602D01*
X924000Y49900D02*
X946000D01*
X969000D01*
X993000D01*
Y37000D02*
Y49900D01*
X969000Y37000D02*
Y49900D01*
X946000Y37000D02*
Y49900D01*
X924000Y37000D02*
Y49900D01*
X1174550Y47438D02*
Y67980D01*
X494010Y61990D02*
Y128680D01*
Y61990D02*
X504200Y51800D01*
X515770D01*
Y74800D02*
X538770D01*
Y106770D01*
X553000Y121000D01*
X605000D01*
X620990Y136990D01*
Y168600D01*
X538770Y29230D02*
Y51800D01*
X34730Y779330D02*
X55874D01*
X56204Y779000D01*
X34730Y754330D02*
X55874D01*
X56204Y754000D01*
X34730Y729330D02*
X55874D01*
X56204Y729000D01*
X203398Y775000D02*
X213250D01*
X239000Y781000D02*
X252900D01*
X284250Y862768D02*
Y872750D01*
X302020Y863270D02*
X313150D01*
X301020Y840270D02*
X310852D01*
X359500Y864500D02*
Y888000D01*
X361500Y890000D01*
X349750D02*
X361500D01*
X404030Y881470D02*
X422600D01*
X402000Y883500D02*
X404030Y881470D01*
X402000Y873500D02*
Y883500D01*
X369900Y774000D02*
Y796800D01*
X371000Y797900D01*
X423000Y787250D02*
Y797900D01*
X605000Y969470D02*
X627000D01*
X686000D02*
X708000D01*
X605000D02*
Y982500D01*
X627000Y969470D02*
Y982000D01*
X686000Y969470D02*
Y980750D01*
X708000Y969470D02*
Y980500D01*
Y969470D02*
X708070Y969540D01*
X1028390Y824390D02*
X1045490D01*
X1025150Y620000D02*
Y675000D01*
X1011750Y620000D02*
X1025150D01*
X1011000Y675000D02*
X1025150D01*
X1143250Y530900D02*
X1165250D01*
X1199350Y568000D02*
Y588702D01*
X1200648Y590000D01*
Y608702D01*
X1198350Y611000D02*
X1200648Y608702D01*
X1198350Y611000D02*
Y632000D01*
X1198250Y632100D02*
X1198350Y632000D01*
X1210750D01*
X1234250Y621000D02*
X1247150D01*
X1198648Y689000D02*
Y707702D01*
X1221852D01*
X1224750Y710600D02*
Y724750D01*
X1221852Y707702D02*
X1224150Y710000D01*
X1224750Y710600D01*
X1198648Y689000D02*
X1198750Y688898D01*
Y677500D02*
Y688898D01*
X1323890Y812131D02*
X1341631D01*
X1455000Y780750D02*
Y792900D01*
X1622680Y781250D02*
Y917700D01*
X1761680Y800650D02*
Y851450D01*
Y914500D01*
X1758430Y917750D02*
X1761680Y914500D01*
X1727530Y897250D02*
Y908030D01*
X1737250Y917750D01*
X1758430D01*
X1485398Y603000D02*
Y626000D01*
Y603000D02*
X1497500D01*
X1303000Y59000D02*
Y69900D01*
X1303000Y18000D02*
X1318000D01*
X75000Y754000D02*
X317750D01*
X328500Y764750D01*
Y805540D01*
X656000Y931972D02*
Y949000D01*
Y931972D02*
X665602Y922370D01*
X684398D02*
X713602D01*
X737000Y926972D02*
Y949000D01*
X732398Y922370D02*
X737000Y926972D01*
X385440Y958380D02*
X455440D01*
X371750Y922000D02*
X383602D01*
X422600Y894470D02*
X432280D01*
X448600Y900970D02*
X459720D01*
X459168Y845168D02*
X472680D01*
X314000Y978910D02*
Y978910D01*
Y988250D01*
X287000Y978910D02*
X314000D01*
X342000Y978910D02*
Y988500D01*
X287000Y978910D02*
Y988500D01*
X75000Y779000D02*
X90500D01*
X494398Y855386D02*
Y888750D01*
X494000D02*
Y900000D01*
X1027810Y811690D02*
X1045490D01*
X1323890Y824831D02*
X1342831D01*
X402398Y898898D02*
Y922000D01*
X924000Y66100D02*
Y77000D01*
X75000Y729000D02*
X76000Y730000D01*
X75000Y729000D02*
X167500D01*
X385750Y761500D02*
Y773650D01*
X386100Y774000D01*
X1273000Y107000D02*
X1285602D01*
X1285602Y107000D01*
X1174550Y67980D02*
X1184480D01*
X1121000Y553650D02*
X1121250Y553900D01*
X1121000Y545000D02*
Y553650D01*
X1143250Y530900D02*
X1144000Y530150D01*
Y522000D02*
Y530150D01*
X1165250Y522000D02*
Y530900D01*
X1199350Y568000D02*
X1199350Y568000D01*
X1209000D01*
X1200648Y590000D02*
X1201648Y591000D01*
X1210000D01*
X1198350Y611000D02*
X1198350Y611000D01*
X1198351Y610999D01*
X1208998D01*
X1045490Y837090D02*
X1067090D01*
X1082000Y852000D01*
X1130000D01*
X1144000Y866000D01*
Y899800D01*
X1130550Y913250D02*
X1144000Y899800D01*
X1021010Y798990D02*
X1045490D01*
X1009000Y811000D02*
X1021010Y798990D01*
X1009000Y811000D02*
Y844000D01*
X1029000Y864000D01*
X1120000D01*
X1130550Y874550D01*
Y887150D01*
X1094590Y824390D02*
Y837090D01*
Y798990D02*
Y811690D01*
X1274790Y799431D02*
Y812131D01*
Y824831D02*
Y837531D01*
X1307569Y799431D02*
X1323890D01*
X1302500Y804500D02*
X1307569Y799431D01*
X1302500Y804500D02*
Y840250D01*
X1286250Y856500D02*
X1302500Y840250D01*
X1286250Y856500D02*
Y900950D01*
X1298550Y913250D01*
Y871700D02*
Y887150D01*
Y871700D02*
X1323890Y846360D01*
Y837531D02*
Y846360D01*
X1366000Y852398D02*
Y971250D01*
X1380700Y985950D01*
X1433150D01*
X1508850Y970750D02*
X1558750D01*
X1571000Y958500D01*
Y853398D02*
Y958500D01*
X1478000Y809398D02*
Y847400D01*
X1464650Y860750D02*
Y873450D01*
Y860750D02*
X1477350Y848050D01*
X1478000Y847400D01*
X1455000Y809100D02*
X1477702D01*
X1418298Y718650D02*
X1440000D01*
X1418000Y718352D02*
X1418298Y718650D01*
X665000Y957220D02*
X670030D01*
X673980Y953270D01*
X686000D01*
X627000Y943000D02*
X641000D01*
X647000Y949000D01*
X639780Y957220D02*
X647000D01*
X720780D02*
X728000D01*
X684398Y910852D02*
Y922370D01*
X1702250Y549000D02*
X1713602D01*
X1767500Y550000D02*
X1767750Y549750D01*
Y540750D02*
Y549750D01*
X1183150Y568000D02*
X1183150Y568000D01*
X1183150Y550250D02*
Y568000D01*
X1180350Y732000D02*
Y749100D01*
X1478000Y769750D02*
Y790602D01*
X1180350Y749100D02*
X1187250Y756000D01*
X1464250D01*
X1478000Y769750D01*
X1183150Y538150D02*
Y550250D01*
X1171000Y608000D02*
X1179150D01*
D61*
X483250Y616000D02*
X552000Y547250D01*
Y293500D02*
Y547250D01*
Y293500D02*
X608290Y237210D01*
Y168600D02*
Y237210D01*
X595590Y168600D02*
Y236160D01*
X542750Y289000D02*
X595590Y236160D01*
X542750Y289000D02*
Y542000D01*
X312000Y424000D02*
X329000D01*
X312000Y434000D02*
X329000D01*
X595590Y142840D02*
Y151090D01*
X588750Y136000D02*
X595590Y142840D01*
X575750Y136000D02*
X588750D01*
X570190Y141560D02*
X575750Y136000D01*
X570190Y141560D02*
Y168600D01*
X595590Y151090D02*
Y168600D01*
X608290Y153040D02*
Y168600D01*
X312000Y616000D02*
X483250D01*
X478750Y606000D02*
X542750Y542000D01*
X312000Y606000D02*
X478750D01*
X885000Y42660D02*
Y57000D01*
X1109620Y183692D02*
X1110000Y183312D01*
Y174000D02*
Y183312D01*
X980000Y171000D02*
X983000Y174000D01*
X980000Y162500D02*
Y171000D01*
X1175848Y150980D02*
X1186980D01*
X1754398Y416898D02*
Y528000D01*
X1732000Y394500D02*
X1754398Y416898D01*
Y549898D02*
X1754500Y550000D01*
X1754398Y528000D02*
Y549898D01*
X1751750Y570000D02*
X1761000D01*
X1743250Y578500D02*
X1751750Y570000D01*
X1732000Y578500D02*
X1743250D01*
X1732000Y565500D02*
X1732398Y565102D01*
Y549000D02*
Y565102D01*
X1712000Y572000D02*
Y595000D01*
X1657750Y649250D02*
X1712000Y595000D01*
X1486000Y649250D02*
X1657750D01*
X1440750Y694500D02*
X1486000Y649250D01*
X1418500Y694500D02*
X1440750D01*
X1483100Y522000D02*
Y546000D01*
X1466602Y498000D02*
X1466900Y498298D01*
Y522000D01*
X1453500D02*
X1466900D01*
X1437000Y538500D02*
X1453500Y522000D01*
X1418500Y538500D02*
X1437000D01*
X1379000D02*
X1418500D01*
X1376000Y541500D02*
X1379000Y538500D01*
X1336500Y541500D02*
X1376000D01*
X1369500Y580500D02*
X1418500D01*
X1366500Y583500D02*
X1369500Y580500D01*
X1336500Y583500D02*
X1366500D01*
X1456102Y580500D02*
X1466602Y570000D01*
X1418500Y580500D02*
X1456102D01*
X1466602Y570000D02*
X1466900Y569702D01*
Y546000D02*
Y569702D01*
X1459102Y610500D02*
X1466602Y603000D01*
X1418500Y610500D02*
X1459102D01*
X1452750Y626000D02*
X1466602D01*
X1692000Y930750D02*
X1700500D01*
X1683530Y922280D02*
X1692000Y930750D01*
X1683530Y897250D02*
Y922280D01*
X1683500Y897280D02*
X1683530Y897250D01*
X1672530D02*
Y910970D01*
X1694530Y897250D02*
Y910970D01*
X1749530Y885280D02*
Y897250D01*
X1738530Y885030D02*
Y897250D01*
X1716530Y885030D02*
Y897250D01*
X1418500Y664250D02*
X1437000D01*
X1418500Y634500D02*
X1437000D01*
X1418500Y646500D02*
X1437000D01*
X1418500Y652500D02*
X1418500Y652500D01*
X1437000D01*
X1418500Y628500D02*
X1437000D01*
X1418500Y670500D02*
X1437000D01*
X1319250Y685500D02*
X1336500D01*
X1319250Y691500D02*
X1336500D01*
X1103952Y718602D02*
X1104250Y718900D01*
X1082250Y718602D02*
X1103952D01*
X1041350Y620000D02*
X1041890Y619460D01*
X1065740D01*
Y624460D01*
Y629460D01*
Y634460D01*
X1041350Y675000D02*
X1041890Y674460D01*
X1065740D01*
X1158150Y554200D02*
X1165250Y547100D01*
X1158150Y554200D02*
Y568000D01*
X1102740Y602460D02*
X1107740D01*
X1137740Y588490D02*
Y602460D01*
X1142350Y568000D02*
Y581850D01*
X1147740Y587240D01*
Y602460D01*
X1142350Y568000D02*
X1143250Y567100D01*
Y547100D02*
Y567100D01*
X1061418Y76570D02*
X1061918Y76070D01*
Y54570D02*
Y76070D01*
X1089398Y43102D02*
X1095450D01*
X1081250Y51250D02*
X1089398Y43102D01*
X1081250Y51250D02*
Y111500D01*
X1076782Y115968D02*
X1081250Y111500D01*
X1067520Y115968D02*
X1076782D01*
X1084878Y152878D02*
X1095450D01*
X1082000Y150000D02*
X1084878Y152878D01*
X1082000Y139250D02*
Y150000D01*
X1077922Y135172D02*
X1082000Y139250D01*
X1067520Y135172D02*
X1077922D01*
X1281000Y34498D02*
X1281298Y34200D01*
X1303000D01*
X1418500Y64500D02*
Y70500D01*
Y27750D02*
Y64500D01*
X1413750Y23000D02*
X1418500Y27750D01*
X1346500Y23000D02*
X1413750D01*
X1335300Y34200D02*
X1346500Y23000D01*
X1303000Y34200D02*
X1335300D01*
X1336500Y85500D02*
Y91500D01*
X1282000Y86398D02*
X1282298Y86100D01*
X1303000D01*
X1303600Y85500D01*
X1336500D01*
X1304398Y107000D02*
X1313898Y97500D01*
X1336500D01*
Y109500D02*
Y115500D01*
X1304398Y128802D02*
Y151000D01*
Y128802D02*
X1317700Y115500D01*
X1336500D01*
X1117712Y127980D02*
X1118610Y127082D01*
Y104480D02*
Y127082D01*
X1095430Y99080D02*
X1096530Y97980D01*
X1118610D01*
X1117712Y90582D02*
X1118610Y91480D01*
X1115972Y43102D02*
X1117850Y44980D01*
X1158212D02*
X1158212Y44980D01*
X1134050Y44980D02*
X1136508Y47438D01*
Y67980D02*
X1136508Y67980D01*
X1139518Y202488D02*
X1140620Y203590D01*
X1109620Y202488D02*
X1139518D01*
X1081822Y174172D02*
X1084750Y177100D01*
X1062770Y174172D02*
X1081822D01*
X1080978Y196672D02*
X1084750Y192900D01*
X1058620Y196672D02*
X1080978D01*
X1136508Y127980D02*
X1136508Y127980D01*
X1157350D01*
X1157052Y128278D02*
X1157350Y127980D01*
X1157052Y128278D02*
Y150980D01*
X1157052Y150980D02*
X1157052Y150980D01*
X1134050Y150980D02*
X1157052D01*
X1115952Y152878D02*
X1117850Y150980D01*
X1095450Y152878D02*
X1115952D01*
X883020Y210000D02*
X885000Y211980D01*
X862900Y210000D02*
X883020D01*
X846580Y209480D02*
X847100Y210000D01*
X846580Y186000D02*
Y209480D01*
X845580Y187000D02*
X846580Y186000D01*
X819000Y187000D02*
X845580D01*
X845500Y161600D02*
X846900Y163000D01*
X819000Y161600D02*
X845500D01*
X846900Y100800D02*
X847100Y101000D01*
X846900Y76480D02*
Y100800D01*
X844980Y78400D02*
X846900Y76480D01*
X819000Y78400D02*
X844980D01*
X819000Y53000D02*
X846900D01*
Y29200D02*
X847100Y29000D01*
X846900Y29200D02*
Y53000D01*
X863100D02*
Y76480D01*
X882460Y29000D02*
X885000Y26460D01*
X862900Y29000D02*
X882460D01*
X912000Y119000D02*
X926500D01*
X904500Y111500D02*
X912000Y119000D01*
X904500Y96500D02*
Y111500D01*
X894780Y86780D02*
X904500Y96500D01*
X885000Y86780D02*
X894780D01*
X862900Y101000D02*
X864880Y102980D01*
X885000D01*
X926500Y119000D02*
Y124000D01*
Y114000D02*
Y119000D01*
X935000Y95500D02*
X940000D01*
X945000D01*
X950000D02*
X955000D01*
X946000Y66100D02*
X950000Y70100D01*
Y95500D01*
X1031750Y65942D02*
X1043122Y54570D01*
X1031750Y65942D02*
Y76750D01*
X1022000Y86500D02*
X1031750Y76750D01*
X1022000Y86500D02*
Y98250D01*
X1011250Y109000D02*
X1022000Y98250D01*
X993500Y109000D02*
X1011250D01*
X1029000Y90192D02*
X1042622Y76570D01*
X1029000Y90192D02*
Y101500D01*
X1016500Y114000D02*
X1029000Y101500D01*
X993500Y114000D02*
X1016500D01*
X1044520Y97172D02*
X1067520D01*
X1033000Y108692D02*
X1044520Y97172D01*
X1033000Y108692D02*
Y115000D01*
X1024000Y124000D02*
X1033000Y115000D01*
X993500Y124000D02*
X1024000D01*
X1031488Y129000D02*
X1044520Y115968D01*
X993500Y129000D02*
X1031488D01*
X1043348Y134000D02*
X1044520Y135172D01*
X993500Y134000D02*
X1043348D01*
X1044520Y153968D02*
X1067520D01*
X1020968D02*
X1044520D01*
X1006000Y139000D02*
X1020968Y153968D01*
X993500Y139000D02*
X1006000D01*
X1025172Y174172D02*
X1041270D01*
X1022250Y171250D02*
X1025172Y174172D01*
X1022250Y163000D02*
Y171250D01*
X1003250Y144000D02*
X1022250Y163000D01*
X993500Y144000D02*
X1003250D01*
X1020172Y196672D02*
X1042420D01*
X1015250Y191750D02*
X1020172Y196672D01*
X1015250Y162500D02*
Y191750D01*
X1001750Y149000D02*
X1015250Y162500D01*
X993500Y149000D02*
X1001750D01*
X1003000Y179500D02*
Y190602D01*
X993500Y170000D02*
X1003000Y179500D01*
X993500Y154000D02*
Y170000D01*
X271030Y782930D02*
Y801090D01*
X269100Y781000D02*
X271030Y782930D01*
Y805590D02*
X297950D01*
X298000Y805540D01*
X224590Y819090D02*
X241030D01*
X215500Y810000D02*
X224590Y819090D01*
X241030Y823590D02*
Y848950D01*
X241350Y849270D01*
X271030Y823590D02*
X281840D01*
X284250Y826000D01*
Y846568D01*
X283952Y846270D02*
X284250Y846568D01*
X262250Y846270D02*
X283952D01*
X390500Y778400D02*
Y795000D01*
X386100Y774000D02*
X390500Y778400D01*
X403500Y779000D02*
Y795000D01*
X398500Y774000D02*
X403500Y779000D01*
X386100Y774000D02*
X398500D01*
X403500Y815000D02*
X422100D01*
X423000Y814100D01*
X371900Y815000D02*
X390500D01*
X371000Y814100D02*
X371900Y815000D01*
X378500Y837750D02*
Y839500D01*
Y837750D02*
X390500Y825750D01*
Y815000D02*
Y825750D01*
X378500Y839500D02*
X401898D01*
X402000Y839602D01*
X423852D01*
X429602Y845352D01*
Y863000D01*
X369000Y864500D02*
Y872750D01*
X372500Y876250D01*
X386500D01*
X390000Y872750D01*
Y861500D02*
Y872750D01*
Y861500D02*
X393102Y858398D01*
X402000D01*
X448600Y900970D02*
Y920998D01*
X449602Y922000D01*
X448600Y863202D02*
Y881470D01*
X448398Y863000D02*
X448600Y863202D01*
Y887970D02*
X474822D01*
X472680Y864168D02*
Y885828D01*
X474822Y887970D01*
X475602Y888750D01*
X926500Y139000D02*
Y144000D01*
Y134000D02*
Y139000D01*
X910000Y144000D02*
X926500D01*
X901060Y152940D02*
X910000Y144000D01*
X885000Y152940D02*
X901060D01*
X862900Y139280D02*
X882460D01*
X885000Y136740D01*
X863100Y163000D02*
Y185680D01*
X862780Y186000D02*
X863100Y185680D01*
X847100Y139280D02*
Y162800D01*
X846900Y163000D02*
X847100Y162800D01*
X950000Y162500D02*
Y178900D01*
X938000Y190900D02*
X950000Y178900D01*
Y162500D02*
X955000D01*
X960000D02*
Y190900D01*
X960000Y190900D02*
X960000Y190900D01*
X970000Y162500D02*
X975000D01*
Y175250D01*
X981000Y181250D01*
Y190602D01*
X940000Y162500D02*
X945000D01*
X935000D02*
X940000D01*
X905250D02*
X935000D01*
X885000Y182750D02*
X905250Y162500D01*
X885000Y182750D02*
Y195780D01*
X993500Y119000D02*
X1020000D01*
X1024000Y115000D01*
X985000Y95500D02*
X991500D01*
X993500Y97500D01*
Y104000D01*
X1003000D01*
X1006000Y101000D01*
X965000Y95500D02*
Y124000D01*
X960000Y129000D02*
X965000Y124000D01*
X918000Y129000D02*
X926500D01*
X917000Y149000D02*
X926500D01*
X917000Y154000D02*
X926500D01*
X965000Y162500D02*
Y172000D01*
X969000Y176000D01*
X1095430Y61918D02*
Y82880D01*
Y61918D02*
X1095450Y61898D01*
X1174550Y47438D02*
X1177008Y44980D01*
X1137610Y97980D02*
X1150980D01*
X1095450Y53450D02*
Y61898D01*
X1175848Y130278D02*
Y150980D01*
X1174570Y129000D02*
X1175848Y130278D01*
X1173550Y127980D02*
X1181980D01*
X1336500Y673500D02*
X1355500D01*
X1356000Y674000D01*
X15934Y729330D02*
Y754330D01*
X15604Y779000D02*
X15934Y779330D01*
Y754330D02*
Y779330D01*
X241030Y810090D02*
Y814590D01*
X231410Y810090D02*
X241030D01*
X231250Y810250D02*
X231410Y810090D01*
X397000Y795000D02*
Y804250D01*
X649430Y969470D02*
X649500Y969540D01*
X627000Y969470D02*
X649430D01*
X662530D02*
X686000D01*
X708070Y969540D02*
X730500D01*
X738780Y957220D02*
X746000D01*
X736642Y959358D02*
X738780Y957220D01*
X736642Y959358D02*
Y962782D01*
X1483100Y546000D02*
X1499250D01*
X1321750Y679500D02*
X1336500D01*
X1276250Y129000D02*
X1288000D01*
X1150170Y182590D02*
X1158590D01*
X261750Y865566D02*
X262250Y865066D01*
Y874000D01*
X493680Y854668D02*
X494398Y855386D01*
X1184480Y67980D02*
X1184750Y68250D01*
X918000Y109000D02*
X926500D01*
X921502Y99002D02*
X926500Y104000D01*
X918045Y99002D02*
X921502D01*
X885000Y57000D02*
X923102Y95102D01*
X934602D02*
X935000Y95500D01*
X923102Y95102D02*
X934602D01*
X960000Y77250D02*
Y95500D01*
Y77250D02*
X969000Y68250D01*
Y66100D02*
Y68250D01*
X970000Y80750D02*
Y95500D01*
X969000Y79750D02*
X970000Y80750D01*
X975000Y85500D02*
Y95500D01*
Y85500D02*
X980500Y80000D01*
X980000Y89750D02*
Y95500D01*
Y89750D02*
X993000Y76750D01*
Y66100D02*
Y76750D01*
X1418500Y394500D02*
X1732000D01*
X1080000Y570100D02*
Y579000D01*
X1082250Y718602D02*
X1086500Y714352D01*
X728000Y945750D02*
Y949000D01*
X724500Y942250D02*
X728000Y945750D01*
X708000Y942250D02*
X724500D01*
X1418500Y616500D02*
X1443250D01*
X1452750Y626000D01*
X1158150Y568000D02*
Y579150D01*
X1080000Y579000D02*
X1084250Y583250D01*
X1094250D01*
X1102740Y591740D01*
Y602460D01*
X1099250Y570398D02*
Y578250D01*
X1112740Y591740D01*
Y602460D01*
X1121250Y570100D02*
Y580250D01*
X1132250Y583000D02*
X1137740Y588490D01*
X1124000Y583000D02*
X1132250D01*
X1121250Y580250D02*
X1124000Y583000D01*
X1086500Y703250D02*
Y714352D01*
Y703250D02*
X1092740Y697010D01*
Y691460D02*
Y697010D01*
D62*
X1282250Y403500D02*
X1336500D01*
X332500Y404000D02*
X343500Y415000D01*
X312000Y404000D02*
X332500D01*
X1336475Y397525D02*
X1336500Y397500D01*
X1285725Y397525D02*
X1336475D01*
X312000Y414000D02*
X329000D01*
X271030Y810090D02*
Y814590D01*
X279910D01*
X232090Y801090D02*
X241030D01*
X1097740Y595490D02*
Y602460D01*
X1110240Y646960D02*
X1127740Y629460D01*
X1077740Y614460D02*
X1110240Y646960D01*
X1154740Y669460D02*
X1200460D01*
X1210398Y679398D02*
X1220250D01*
X1226842Y685990D01*
X1240950D01*
X1154740Y664460D02*
X1216392D01*
X1220250Y660602D01*
Y645750D02*
Y660602D01*
Y645750D02*
X1231000Y635000D01*
X1248960D01*
X1262950Y648990D01*
X1263350Y648590D01*
Y621000D02*
Y648590D01*
X1240950Y685990D02*
Y709400D01*
X1240350Y710000D02*
X1240950Y709400D01*
X1053540Y679460D02*
X1065740D01*
X1047000Y686000D02*
X1053540Y679460D01*
X1056540Y684460D02*
X1065740D01*
X1050000Y691000D02*
X1056540Y684460D01*
X1078000Y819000D02*
X1083390Y824390D01*
X1094590D01*
X1078000Y804000D02*
Y819000D01*
X1079990Y798990D02*
X1094590D01*
X1077740Y691460D02*
Y697260D01*
X1070000Y705000D02*
X1077740Y697260D01*
X1060000Y705000D02*
X1070000D01*
X1053000Y712000D02*
X1060000Y705000D01*
X1053000Y712000D02*
Y718900D01*
X1058540Y691460D02*
X1072740D01*
X1053000Y697000D02*
X1058540Y691460D01*
X1274790Y778790D02*
Y799431D01*
X1009000Y697000D02*
X1053000D01*
X1000000Y706000D02*
X1009000Y697000D01*
X1007000Y691000D02*
X1050000D01*
X994000Y704000D02*
X1007000Y691000D01*
X1003000Y686000D02*
X1047000D01*
X988000Y701000D02*
X1003000Y686000D01*
X1068000Y715000D02*
Y750000D01*
X1294000Y772000D02*
Y820000D01*
X1289169Y824831D02*
X1294000Y820000D01*
X1274790Y824831D02*
X1289169D01*
X1126990Y718900D02*
X1127250D01*
X1149250D01*
X1160100D01*
X1169000Y710000D01*
X1180150D01*
Y731800D01*
X1180350Y732000D01*
X1154740Y684460D02*
X1160460D01*
X1169000Y693000D01*
Y698850D01*
X1180150Y710000D01*
X1116000Y704000D02*
X1117740Y702260D01*
X1122740Y691460D02*
Y707160D01*
X1120950Y708950D02*
X1122740Y707160D01*
X1399000Y688500D02*
X1418500D01*
X1394750Y692750D02*
X1399000Y688500D01*
X1394750Y692750D02*
Y709500D01*
X1403602Y718352D01*
X1418000D01*
X1418500Y682500D02*
Y688500D01*
X1127740Y691460D02*
Y718150D01*
X1126990Y718900D02*
X1127740Y718150D01*
X1137740Y691460D02*
Y702240D01*
X1140000Y704500D01*
X1132740Y691460D02*
Y706432D01*
X1135404Y709096D01*
X1147740Y691460D02*
Y696990D01*
X1153500Y702750D01*
X1142740Y691460D02*
Y697740D01*
X1148250Y703250D01*
Y706692D01*
X1148904Y707346D01*
X1117740Y691460D02*
Y702260D01*
X1082740Y691460D02*
Y700260D01*
X1068000Y715000D02*
X1082740Y700260D01*
X1336500Y475500D02*
X1351000D01*
X1336500Y469500D02*
X1351000D01*
X1336500Y463500D02*
X1351000D01*
X1336500Y457500D02*
X1351000D01*
X665000Y942250D02*
Y949000D01*
X746000Y941750D02*
Y942750D01*
Y949000D01*
X378500Y854250D02*
Y864500D01*
Y854250D02*
X381750Y851000D01*
X388000D01*
X1322500Y667500D02*
X1336500D01*
X1154740Y644460D02*
X1165960D01*
X1166000Y644500D01*
X1162497Y622750D02*
X1170271D01*
X1171510Y623990D01*
X1160787Y624460D02*
X1162497Y622750D01*
X1154740Y624460D02*
X1160787D01*
X1154740Y629460D02*
X1164960D01*
X1165500Y630000D01*
X1182150Y611000D02*
Y632000D01*
X1154740Y619250D02*
Y619460D01*
X1325500Y163500D02*
X1336500D01*
X1324500Y164500D02*
X1325500Y163500D01*
X1237843Y164500D02*
X1324500D01*
X1325500Y169500D02*
X1336500D01*
X1324500Y168500D02*
X1325500Y169500D01*
X1239500Y168500D02*
X1324500D01*
X1224250Y183750D02*
X1239500Y168500D01*
X1220250Y182093D02*
X1237843Y164500D01*
X1159990Y659460D02*
X1160490Y658960D01*
X1154740Y659460D02*
X1159990D01*
X1160490Y658960D02*
X1198697D01*
X1224250Y633407D01*
X1154740Y654460D02*
X1159990D01*
X1160490Y654960D01*
X1197040D01*
X1220250Y631750D01*
X1224250Y183750D02*
Y633407D01*
X1220250Y182093D02*
Y631750D01*
X1129770Y91480D02*
X1137610D01*
X1128250Y93000D02*
X1129770Y91480D01*
X1128250Y93000D02*
Y109500D01*
X1131500Y112750D01*
X1194000D01*
X1254000Y52750D01*
X1349750D01*
X1364500Y67500D01*
X1336500Y523500D02*
X1358500D01*
X1364500Y517500D01*
Y67500D02*
Y517500D01*
X1370500Y64500D02*
Y520500D01*
X1336500Y529500D02*
X1361500D01*
X1370500Y520500D01*
X1353000Y47000D02*
X1370500Y64500D01*
X1137610Y104480D02*
X1192520D01*
X1250000Y47000D01*
X1353000D01*
X1336500Y697500D02*
Y702750D01*
Y661500D02*
X1351000D01*
X1336500Y643500D02*
X1351000D01*
X1338000Y625500D02*
X1351000D01*
X1336500Y607500D02*
X1351000D01*
X1336500Y517500D02*
X1351000D01*
X1336500Y499500D02*
X1351000D01*
X1336500Y481500D02*
X1351000D01*
X1336500Y427500D02*
X1352500D01*
X1357000Y432000D01*
X1322500Y391500D02*
X1336500D01*
X1322500Y355500D02*
X1336500D01*
Y157500D02*
X1351000D01*
X1336500Y79500D02*
X1351000D01*
X1336500Y103500D02*
X1351000D01*
X1336500Y121500D02*
X1351000D01*
X1351000Y157500D02*
X1351000Y157500D01*
X1336500Y211500D02*
X1351000D01*
X1336500Y193500D02*
X1351000D01*
X1336500Y175500D02*
X1351000D01*
X1336500Y265500D02*
X1351000D01*
X1336500Y247500D02*
X1351000D01*
X1336500Y229500D02*
X1351000D01*
X1336500Y319500D02*
X1351000D01*
X1336500Y301500D02*
X1351000D01*
X1336500Y283500D02*
X1351000D01*
X1336500Y337500D02*
X1351000D01*
X1336500Y373500D02*
X1351000D01*
X1336500Y445500D02*
X1351000D01*
X1336500Y535500D02*
X1351000D01*
X1418500Y418500D02*
X1446250D01*
X1461750Y434000D01*
X1466602D01*
X1418500Y412500D02*
X1464102D01*
X1466602Y410000D01*
X1336500Y589500D02*
X1336500Y589500D01*
X1351000D01*
X1336500Y67500D02*
Y73500D01*
X1418500Y76500D02*
X1433500D01*
X1418500Y100500D02*
X1433500D01*
X1418500Y118500D02*
X1433500D01*
X1402000Y154500D02*
X1418500D01*
X1399000Y157500D02*
X1402000Y154500D01*
X1399000Y157500D02*
Y159000D01*
X1418500Y172500D02*
X1433500D01*
X1418500Y208500D02*
X1433500D01*
X1433500Y208500D01*
X1418500Y226500D02*
X1433500D01*
X1418500Y244500D02*
X1433500D01*
X1418500Y262500D02*
X1433500D01*
X1418500Y298500D02*
X1433500D01*
X1418500Y316500D02*
X1433500D01*
X1418500Y334500D02*
X1433500D01*
X1418500Y352500D02*
X1433500D01*
X1418500Y370500D02*
X1433500D01*
X1418500Y388500D02*
X1433500D01*
X1418500Y406500D02*
X1433500D01*
X1418500Y424500D02*
X1433500D01*
X1418500Y442500D02*
X1433500D01*
X1418500Y460500D02*
X1433500D01*
X1418500Y478500D02*
X1433500D01*
X1418500Y496500D02*
X1433500D01*
X1418500Y514500D02*
X1433500D01*
X1418500Y532500D02*
X1433500D01*
X1485398Y434000D02*
X1485648Y433750D01*
X1496750Y410000D02*
X1496750Y410000D01*
X1485398Y410000D02*
X1496750D01*
X1485398Y434000D02*
X1485648Y434250D01*
X1495500D01*
X1418500Y586500D02*
X1435000D01*
X1418500Y622500D02*
X1436500D01*
X1418500Y640500D02*
X1436500D01*
X1418500Y676500D02*
X1436500D01*
X1055790Y669460D02*
X1065740D01*
X1560648Y834602D02*
X1571000D01*
X1560500Y834750D02*
X1560648Y834602D01*
X1352102Y833602D02*
X1366000D01*
X1352000Y833500D02*
X1352102Y833602D01*
X1199350Y550250D02*
X1209000D01*
X1200460Y669460D02*
X1210398Y679398D01*
X1154740Y674460D02*
X1174710D01*
X1176750Y676500D01*
X994000Y704000D02*
Y747500D01*
X1000000Y706000D02*
Y744500D01*
X1068000Y750000D02*
X1081000Y763000D01*
X1285000D01*
X1294000Y772000D01*
X994000Y747500D02*
X1022250Y775750D01*
X1056750D01*
X1079990Y798990D01*
X1000000Y744500D02*
X1026000Y770500D01*
X1266500D01*
X1274790Y778790D01*
X1055250Y781250D02*
X1078000Y804000D01*
X988000Y701000D02*
Y750500D01*
X1018750Y781250D01*
X1055250D01*
X1418500Y82500D02*
Y88500D01*
Y106500D02*
Y112500D01*
X1154740Y649460D02*
X1179540D01*
X1182150Y646850D01*
Y632000D02*
Y646850D01*
X1154740Y614460D02*
X1160540D01*
X1173900Y619250D02*
X1182150Y611000D01*
X1154740Y619250D02*
X1169532D01*
X1169543Y619240D01*
X1173478D01*
X1173488Y619250D01*
X1173900D01*
X1179150Y608000D02*
X1182150Y611000D01*
X1077740Y594760D02*
Y602460D01*
X1127740D02*
X1127750Y602450D01*
Y594000D02*
Y602450D01*
X1061000Y570100D02*
Y579500D01*
X1070250Y588750D01*
X1091000D01*
X1097740Y595490D01*
X1154740Y593260D02*
Y609460D01*
Y593260D02*
X1180000Y568000D01*
X1183150D01*
X1168250Y590000D02*
X1181852D01*
X1164000Y594250D02*
X1168250Y590000D01*
X1164000Y594250D02*
Y611000D01*
X1160540Y614460D02*
X1164000Y611000D01*
X1418500Y604500D02*
X1436500D01*
X1092500Y703250D02*
Y707500D01*
Y703250D02*
X1097000Y698750D01*
X1100500D01*
X1102740Y696510D01*
Y691460D02*
Y696510D01*
X1112740Y691460D02*
Y699685D01*
X1105846Y706578D02*
Y708346D01*
Y706578D02*
X1112740Y699685D01*
X1101250Y703750D02*
X1103018D01*
X1107740Y699028D01*
Y691460D02*
Y699028D01*
X1171126Y639374D02*
X1171126D01*
X1172010Y638490D01*
X1162997Y637250D02*
X1169003D01*
X1160787Y639460D02*
X1162997Y637250D01*
X1154740Y639460D02*
X1160787D01*
X1169003Y637250D02*
X1171126Y639374D01*
X312000Y374000D02*
X322250D01*
X324250Y376000D01*
X312000Y384000D02*
X322250D01*
X324250Y382000D01*
X327000D01*
X329000Y384000D01*
X324250Y376000D02*
X327000D01*
X329000Y374000D01*
X1318000Y216500D02*
X1319000Y217500D01*
X1336500D01*
X1318000Y225000D02*
X1319500Y223500D01*
X1336500D01*
X1320750Y205500D02*
X1336500D01*
X1319500Y206750D02*
X1320750Y205500D01*
X1320750Y199500D02*
X1336500D01*
X1319500Y198250D02*
X1320750Y199500D01*
X322250Y354000D02*
X324250Y352000D01*
X327000D01*
X312000Y354000D02*
X322250D01*
X327000Y352000D02*
X329000Y354000D01*
X312000Y344000D02*
X322250D01*
X324250Y346000D01*
X312000Y344000D02*
X312000Y344000D01*
X324250Y346000D02*
X327000D01*
X329000Y344000D01*
X1325753Y187500D02*
X1334500D01*
X1324514Y188740D02*
X1325753Y187500D01*
X1315500D02*
X1316740Y188740D01*
X1324514D01*
X1321521Y181500D02*
X1336500D01*
X1321510Y181490D02*
X1321521Y181500D01*
X312000Y314000D02*
X322250D01*
X324250Y316000D01*
X327000D01*
X329000Y314000D01*
X322250Y324000D02*
X324250Y322000D01*
X327000D01*
X312000Y324000D02*
X322250D01*
X327000Y322000D02*
X329000Y324000D01*
X1406250Y382500D02*
X1418500D01*
X1405000Y383750D02*
X1406250Y382500D01*
X1406250Y376500D02*
X1418500D01*
X1405000Y375250D02*
X1406250Y376500D01*
X322250Y586000D02*
X323000Y585250D01*
X312000Y586000D02*
X322250D01*
X323000Y585250D02*
X329000D01*
X322250Y576000D02*
X323000Y576750D01*
X312000Y576000D02*
X322250D01*
X323000Y576750D02*
X329000D01*
X1406250Y358500D02*
X1418500D01*
X1406250Y364500D02*
X1418500D01*
X1405000Y365750D02*
X1406250Y364500D01*
X322250Y546000D02*
X323000Y546750D01*
X312000Y546000D02*
X322250D01*
X323000Y546750D02*
X329000D01*
X312000Y556000D02*
X322250D01*
X323000Y555250D02*
X329000D01*
X322250Y556000D02*
X323000Y555250D01*
X1405000Y357250D02*
X1406250Y358500D01*
X322250Y526000D02*
X323000Y525250D01*
X312000Y526000D02*
X322250D01*
X323000Y525250D02*
X329000D01*
X1405000Y311750D02*
X1406250Y310500D01*
X1418500D01*
X1405000Y303250D02*
X1406250Y304500D01*
X1418500D01*
X312000Y516000D02*
X322250D01*
X323000Y516750D01*
X329000D01*
X1313500Y409500D02*
X1336500D01*
X1154740Y634460D02*
X1160540D01*
X1161500Y633500D01*
X1058210Y664460D02*
X1065740D01*
X1056000Y662250D02*
X1058210Y664460D01*
X1405000Y658500D02*
X1418500D01*
D63*
X66500Y904500D02*
X67970Y905970D01*
X309940Y936700D02*
X314000Y940760D01*
X342000Y957410D02*
X355340D01*
X314000Y957410D02*
X314000Y957410D01*
Y978910D02*
X342000D01*
X258700Y966690D02*
X270920Y978910D01*
X287000D01*
X197000Y918500D02*
X199500Y916000D01*
X342000Y978910D02*
X342000Y978910D01*
X355340Y957410D02*
X355340Y957410D01*
X402398Y898898D02*
X404470Y900970D01*
X1043540Y609460D02*
X1065740D01*
X1041350Y611650D02*
X1043540Y609460D01*
X1041350Y611650D02*
Y620000D01*
X1068290Y602460D02*
X1072740D01*
X1065740Y605010D02*
X1068290Y602460D01*
X1065740Y605010D02*
Y609460D01*
D64*
X1061000Y545000D02*
Y553900D01*
X1080000Y545000D02*
Y553900D01*
X1050000Y570000D02*
X1050100Y570100D01*
X1061000D01*
X296500Y626000D02*
X312000D01*
X296500Y596000D02*
X312000D01*
X296500Y566000D02*
X312000D01*
X296500Y536000D02*
X312000D01*
X296500Y506000D02*
X312000D01*
X296500Y394000D02*
X312000D01*
X296500Y364000D02*
X312000D01*
X296500Y334000D02*
X312000D01*
X296500Y304000D02*
X312000D01*
X1035000Y718900D02*
X1053000D01*
X1035000Y718900D02*
X1035000Y718900D01*
X1011000Y710000D02*
Y713000D01*
X1016900Y718900D01*
X1035000D01*
X1029000Y342000D02*
X1220000Y151000D01*
X1029000Y342000D02*
Y556000D01*
X1043000Y570000D01*
X1050000D01*
X1735602Y516852D02*
Y528000D01*
X1220000Y151000D02*
X1285602D01*
D65*
X1154740Y679460D02*
X1170312D01*
X1179852Y689000D01*
D66*
X1377500Y47000D02*
D03*
D67*
Y715000D02*
D03*
D68*
X1528150Y936950D02*
D03*
X1413850D02*
D03*
D69*
X1549750Y906450D02*
D03*
X1392250D02*
D03*
D70*
X1407750Y970750D02*
D03*
X1433150Y985950D02*
D03*
X1508850Y970750D02*
D03*
X1534250Y985950D02*
D03*
D71*
X1426550Y848050D02*
D03*
X1439250Y873450D02*
D03*
X1451950Y848050D02*
D03*
X1464650Y873450D02*
D03*
X1477350Y848050D02*
D03*
X1490050Y873450D02*
D03*
X1502750Y848050D02*
D03*
X1515450Y873450D02*
D03*
D72*
X442940Y983380D02*
D03*
X397940D02*
D03*
D73*
X455440Y958380D02*
D03*
X385440D02*
D03*
D74*
X819000Y161600D02*
D03*
Y78400D02*
D03*
X1298550Y913250D02*
D03*
X1228550D02*
D03*
X1298550Y887150D02*
D03*
X1273550D02*
D03*
X1253550D02*
D03*
X1228550D02*
D03*
X1130550Y913250D02*
D03*
X1060550D02*
D03*
X1130550Y887150D02*
D03*
X1060550D02*
D03*
X1105550D02*
D03*
X1085550D02*
D03*
Y913250D02*
D03*
X1105550D02*
D03*
X1253550D02*
D03*
X1273550D02*
D03*
D75*
X819000Y187000D02*
D03*
Y53000D02*
D03*
D76*
X294010Y128680D02*
D03*
X494010D02*
D03*
D77*
X57000Y72000D02*
D03*
Y662000D02*
D03*
X1737000Y72000D02*
D03*
X1742000Y661000D02*
D03*
X1190000Y301021D02*
D03*
X610000Y302021D02*
D03*
X1189000Y793021D02*
D03*
X610000Y792000D02*
D03*
D78*
X656000Y969740D02*
D03*
X737000D02*
D03*
D79*
X113500Y979500D02*
D03*
D80*
X66500Y904500D02*
D03*
X113500Y934500D02*
D03*
Y874500D02*
D03*
D81*
X1329250Y883650D02*
D03*
X1197850D02*
D03*
Y940450D02*
D03*
X1329250D02*
D03*
X1161250Y883650D02*
D03*
X1029850D02*
D03*
Y940450D02*
D03*
X1161250D02*
D03*
D82*
X329000Y444000D02*
D03*
Y636000D02*
D03*
Y646000D02*
D03*
Y424000D02*
D03*
Y434000D02*
D03*
X1282250Y403500D02*
D03*
X343500Y415000D02*
D03*
X1285725Y397525D02*
D03*
X329000Y414000D02*
D03*
X369900Y762100D02*
D03*
X1110000Y174000D02*
D03*
X983000D02*
D03*
X942000Y109000D02*
D03*
X962000Y108000D02*
D03*
X980000D02*
D03*
X979000Y127000D02*
D03*
X942000Y128000D02*
D03*
X960000Y148000D02*
D03*
X978000Y149000D02*
D03*
X1186980Y150980D02*
D03*
X1700500Y930750D02*
D03*
X1749530Y885280D02*
D03*
X1738530Y885030D02*
D03*
X1716530D02*
D03*
X1694530Y910970D02*
D03*
X1672530Y910970D02*
D03*
X1437000Y634500D02*
D03*
Y628500D02*
D03*
Y646500D02*
D03*
Y652500D02*
D03*
Y664250D02*
D03*
Y670500D02*
D03*
X1319250Y691500D02*
D03*
Y685500D02*
D03*
X916000Y219500D02*
D03*
X938250D02*
D03*
X960000Y220000D02*
D03*
X981000Y221250D02*
D03*
X916000Y179750D02*
D03*
X960000Y180500D02*
D03*
X1003000Y220250D02*
D03*
X1061918Y40332D02*
D03*
X1006900Y66100D02*
D03*
X1042500Y211000D02*
D03*
X1095450Y124300D02*
D03*
X1095430Y110180D02*
D03*
X1266852Y67602D02*
D03*
X585100Y22850D02*
D03*
X608250Y23000D02*
D03*
X1498750Y570000D02*
D03*
X1498250Y498250D02*
D03*
X1418000Y747750D02*
D03*
X1440000Y747500D02*
D03*
X1705530Y884780D02*
D03*
X1053250Y746750D02*
D03*
X1082250Y748250D02*
D03*
X1104250Y748750D02*
D03*
X1127250Y749250D02*
D03*
X1149250Y749000D02*
D03*
X1196150Y746100D02*
D03*
X1080000Y579000D02*
D03*
X1041350Y633400D02*
D03*
X1137740Y588490D02*
D03*
X1041350Y661150D02*
D03*
X328500Y764750D02*
D03*
X423852Y839602D02*
D03*
X348000Y814500D02*
D03*
X468398Y934898D02*
D03*
X605000Y943250D02*
D03*
X627000Y943000D02*
D03*
X686000Y941750D02*
D03*
X708000Y942250D02*
D03*
X582890Y150110D02*
D03*
X633690Y150690D02*
D03*
X684490Y150490D02*
D03*
Y92490D02*
D03*
X646390Y92610D02*
D03*
X570190Y92810D02*
D03*
X568900Y23100D02*
D03*
X917000Y154000D02*
D03*
Y149000D02*
D03*
X918000Y129000D02*
D03*
X969000Y176000D02*
D03*
X1024000Y115000D02*
D03*
X1006000Y101000D02*
D03*
X924000Y37000D02*
D03*
X946000Y37000D02*
D03*
X969000Y37000D02*
D03*
X993000D02*
D03*
X942000Y149000D02*
D03*
X1181980Y127980D02*
D03*
X1150980Y97980D02*
D03*
X1095450Y53450D02*
D03*
X1184750Y68250D02*
D03*
X1071000Y197000D02*
D03*
X1356000Y674000D02*
D03*
X538770Y29230D02*
D03*
X16000Y767000D02*
D03*
X15934Y741000D02*
D03*
X212750Y849270D02*
D03*
X251000Y822000D02*
D03*
X261000D02*
D03*
X251250Y802500D02*
D03*
X261250Y802250D02*
D03*
X256030Y812340D02*
D03*
X231250Y810250D02*
D03*
X279910Y814590D02*
D03*
X213250Y775000D02*
D03*
X423000Y787250D02*
D03*
X397000Y804250D02*
D03*
X239000Y781000D02*
D03*
X301020Y840270D02*
D03*
X302020Y863270D02*
D03*
X284250Y872750D02*
D03*
X359250Y853750D02*
D03*
X349750Y890000D02*
D03*
X402000Y873500D02*
D03*
X605000Y982500D02*
D03*
X627000Y982000D02*
D03*
X686000Y980750D02*
D03*
X708000Y980500D02*
D03*
X1761680Y813250D02*
D03*
Y892500D02*
D03*
X1622500Y907500D02*
D03*
Y853500D02*
D03*
X1622680Y793000D02*
D03*
X1455000Y780750D02*
D03*
X1341631Y812131D02*
D03*
X1224750Y724750D02*
D03*
X1198750Y677500D02*
D03*
X1210750Y632000D02*
D03*
X1234250Y621000D02*
D03*
X1080000Y545000D02*
D03*
X1061000D02*
D03*
X1011750Y620000D02*
D03*
X1011000Y675000D02*
D03*
X1028390Y824390D02*
D03*
X1079500Y679750D02*
D03*
X1099000Y679250D02*
D03*
X1129250Y678750D02*
D03*
X1079750Y663500D02*
D03*
X1098250Y665750D02*
D03*
X1128000Y665500D02*
D03*
X1079250Y648750D02*
D03*
X1099500Y650500D02*
D03*
X1128500D02*
D03*
X1078750Y632500D02*
D03*
X1078500Y619250D02*
D03*
X1099000Y619500D02*
D03*
X1130000Y638750D02*
D03*
X1497500Y603000D02*
D03*
X1499250Y546000D02*
D03*
X1158590Y182590D02*
D03*
X1276250Y129000D02*
D03*
X1303000Y59000D02*
D03*
X1321750Y679500D02*
D03*
X1318000Y18000D02*
D03*
X371750Y922000D02*
D03*
X432280Y894470D02*
D03*
X494000Y900000D02*
D03*
X459720Y900970D02*
D03*
X366750Y839250D02*
D03*
X459168Y845168D02*
D03*
X262250Y874000D02*
D03*
X232090Y801090D02*
D03*
X287000Y988500D02*
D03*
X314000Y988250D02*
D03*
X342000Y988500D02*
D03*
X90500Y779000D02*
D03*
X241000Y874000D02*
D03*
X287000Y947500D02*
D03*
X1027810Y811690D02*
D03*
X1342000Y824831D02*
D03*
X402398Y908750D02*
D03*
X271030Y793500D02*
D03*
X924000Y77000D02*
D03*
X1050000Y570000D02*
D03*
X164000Y850000D02*
D03*
X163750Y839750D02*
D03*
X163500Y830000D02*
D03*
Y819750D02*
D03*
X163250Y809500D02*
D03*
Y799750D02*
D03*
X163500Y789750D02*
D03*
Y780500D02*
D03*
X164000Y768750D02*
D03*
X167500Y729000D02*
D03*
X172000Y850000D02*
D03*
X171750Y839750D02*
D03*
X171000Y830250D02*
D03*
Y819250D02*
D03*
Y808750D02*
D03*
X170750Y800250D02*
D03*
X171000Y790000D02*
D03*
X170750Y780250D02*
D03*
X171250Y769250D02*
D03*
X385750Y761500D02*
D03*
X1273000Y107000D02*
D03*
X608290Y153040D02*
D03*
X595590Y151090D02*
D03*
X918000Y109000D02*
D03*
X918045Y99002D02*
D03*
X969000Y79750D02*
D03*
X980500Y80000D02*
D03*
X1099250Y544000D02*
D03*
X1121000Y545000D02*
D03*
X1144000Y522000D02*
D03*
X1165250D02*
D03*
X1209000Y568000D02*
D03*
X1210000Y591000D02*
D03*
X1208998Y610999D02*
D03*
X296500Y626000D02*
D03*
X296500Y304000D02*
D03*
X296500Y334000D02*
D03*
Y364000D02*
D03*
Y394000D02*
D03*
X296500Y506000D02*
D03*
X296500Y536000D02*
D03*
Y566000D02*
D03*
Y596000D02*
D03*
X1035000Y748000D02*
D03*
X1011000Y710000D02*
D03*
X1116000Y704000D02*
D03*
X1120950Y708950D02*
D03*
X1140000Y704500D02*
D03*
X1135404Y709096D02*
D03*
X1153500Y702750D02*
D03*
X1148904Y707346D02*
D03*
X1101250Y703750D02*
D03*
X1105846Y708346D02*
D03*
X1351000Y475500D02*
D03*
Y469500D02*
D03*
Y463500D02*
D03*
Y457500D02*
D03*
X639780Y957220D02*
D03*
X720780D02*
D03*
X684398Y910852D02*
D03*
X665000Y942250D02*
D03*
X746000Y942750D02*
D03*
X388000Y851000D02*
D03*
X1322500Y667500D02*
D03*
X1172010Y638490D02*
D03*
X1166000Y644500D02*
D03*
X1171510Y623990D02*
D03*
X1165500Y630000D02*
D03*
X1336500Y702750D02*
D03*
X1351000Y79500D02*
D03*
Y103500D02*
D03*
Y121500D02*
D03*
Y157500D02*
D03*
Y211500D02*
D03*
Y193500D02*
D03*
Y175500D02*
D03*
Y265500D02*
D03*
Y247500D02*
D03*
Y229500D02*
D03*
Y319500D02*
D03*
Y301500D02*
D03*
Y283500D02*
D03*
X1322500Y355500D02*
D03*
X1351000Y337500D02*
D03*
Y445500D02*
D03*
X1357000Y432000D02*
D03*
X1351000Y373500D02*
D03*
X1322500Y391500D02*
D03*
X1351000Y517500D02*
D03*
Y499500D02*
D03*
Y481500D02*
D03*
Y535500D02*
D03*
X1735602Y516852D02*
D03*
X1702250Y549000D02*
D03*
X1767750Y540750D02*
D03*
X1271000Y150750D02*
D03*
X1351000Y589500D02*
D03*
Y607500D02*
D03*
Y625500D02*
D03*
Y643500D02*
D03*
Y661500D02*
D03*
X1433500Y532500D02*
D03*
Y514500D02*
D03*
Y496500D02*
D03*
Y478500D02*
D03*
Y442500D02*
D03*
Y424500D02*
D03*
Y406500D02*
D03*
Y388500D02*
D03*
Y370500D02*
D03*
Y352500D02*
D03*
Y334500D02*
D03*
Y316500D02*
D03*
Y298500D02*
D03*
Y262500D02*
D03*
Y244500D02*
D03*
Y226500D02*
D03*
Y208500D02*
D03*
Y172500D02*
D03*
X1399000Y159000D02*
D03*
X1433500Y118500D02*
D03*
Y100500D02*
D03*
Y76500D02*
D03*
Y460500D02*
D03*
X1496750Y410000D02*
D03*
X1495500Y434250D02*
D03*
X1435000Y586500D02*
D03*
X1436500Y622500D02*
D03*
Y640500D02*
D03*
Y676500D02*
D03*
X1055790Y669460D02*
D03*
X1560500Y834750D02*
D03*
X1352000Y833500D02*
D03*
X1209000Y550250D02*
D03*
X1176750Y676500D02*
D03*
X1158150Y579150D02*
D03*
X1183150Y538150D02*
D03*
X1171000Y608000D02*
D03*
X1210750Y623250D02*
D03*
X1169000Y699000D02*
D03*
X1077740Y594760D02*
D03*
X1127750Y594000D02*
D03*
X1436500Y604500D02*
D03*
X1092500Y707500D02*
D03*
X329000Y374000D02*
D03*
Y384000D02*
D03*
X1318000Y216500D02*
D03*
Y225000D02*
D03*
X1319500Y206750D02*
D03*
Y198250D02*
D03*
X329000Y354000D02*
D03*
Y344000D02*
D03*
X1321510Y181490D02*
D03*
X1315500Y187500D02*
D03*
X329000Y314000D02*
D03*
Y324000D02*
D03*
X1405000Y383750D02*
D03*
Y375250D02*
D03*
X329000Y585250D02*
D03*
Y576750D02*
D03*
X1405000Y357250D02*
D03*
Y365750D02*
D03*
X329000Y546750D02*
D03*
Y555250D02*
D03*
X1405000Y303250D02*
D03*
Y311750D02*
D03*
X329000Y525250D02*
D03*
Y516750D02*
D03*
X1313500Y409500D02*
D03*
X1056000Y662250D02*
D03*
X1405000Y658500D02*
D03*
D83*
X1161500Y633500D02*
D03*
M02*
