G04 Layer_Color=8388736*
%FSLAX44Y44*%
%MOMM*%
G71*
G01*
G75*
%ADD110C,0.9120*%
%ADD111R,0.5032X1.0532*%
%ADD112R,2.2032X0.5532*%
%ADD113R,4.8032X4.7032*%
%ADD114R,1.4532X1.8032*%
%ADD115R,0.8532X2.1282*%
%ADD116R,0.5032X1.2032*%
%ADD117R,1.2032X0.5032*%
%ADD118R,5.0532X5.0532*%
%ADD119R,1.4032X0.6032*%
G04:AMPARAMS|DCode=120|XSize=7.6032mm|YSize=7.6032mm|CornerRadius=0mm|HoleSize=0mm|Usage=FLASHONLY|Rotation=0.000|XOffset=0mm|YOffset=0mm|HoleType=Round|Shape=RoundedRectangle|*
%AMROUNDEDRECTD120*
21,1,7.6032,7.6032,0,0,0.0*
21,1,7.6032,7.6032,0,0,0.0*
1,1,0.0000,3.8016,-3.8016*
1,1,0.0000,-3.8016,-3.8016*
1,1,0.0000,-3.8016,3.8016*
1,1,0.0000,3.8016,3.8016*
%
%ADD120ROUNDEDRECTD120*%
%ADD121R,1.0532X0.5032*%
%ADD122R,2.1032X0.8032*%
%ADD123R,0.8032X1.4032*%
%ADD124R,1.2532X0.6532*%
%ADD125R,2.4032X2.3532*%
%ADD126R,1.2192X1.6002*%
%ADD127R,1.6002X1.2192*%
%ADD128R,0.8032X1.4532*%
%ADD129R,0.7032X1.2032*%
%ADD130R,1.2032X0.7032*%
%ADD131R,1.5032X0.8032*%
%ADD132R,1.8532X0.8032*%
%ADD133R,2.0532X0.8032*%
%ADD134R,1.0032X1.6032*%
%ADD135R,1.5532X2.0032*%
%ADD136R,0.8532X2.3432*%
%ADD137R,0.8532X1.8032*%
%ADD138R,1.3032X0.6532*%
%ADD139R,1.3532X0.6532*%
%ADD140R,0.8532X1.5032*%
%ADD141R,0.8032X1.3532*%
%ADD142R,1.3632X1.7032*%
%ADD143R,1.6232X1.2532*%
%ADD144R,1.2532X1.6232*%
%ADD145R,1.2932X2.9232*%
%ADD146R,2.9232X1.2932*%
%ADD147R,2.4532X3.4032*%
%ADD148R,1.3032X1.6732*%
%ADD149R,1.6732X1.3032*%
%ADD150R,0.9532X1.8032*%
%ADD151R,1.3032X1.6032*%
%ADD152R,1.8032X0.9532*%
%ADD153R,0.3032X0.3032*%
%ADD154R,0.8032X0.7252*%
%ADD155R,1.6032X1.3032*%
%ADD156R,1.7032X3.8032*%
%ADD157R,1.0032X0.4532*%
%ADD158R,1.9532X2.8532*%
%ADD159R,0.6032X1.2032*%
%ADD160R,0.6632X1.0432*%
%ADD161C,2.0032*%
%ADD162C,2.7032*%
%ADD163C,3.4532*%
%ADD164C,2.6032*%
%ADD165C,1.7232*%
%ADD166C,1.5932*%
%ADD167C,1.7782*%
%ADD168C,2.5282*%
%ADD169C,1.7032*%
%ADD170R,1.7032X1.7032*%
%ADD171C,1.6256*%
%ADD172C,3.2032*%
%ADD173C,0.7032*%
%ADD174C,1.3032*%
%ADD175C,3.0332*%
%ADD176C,2.5832*%
%ADD177C,0.6532*%
%ADD178C,0.5032*%
D110*
X660560Y969740D02*
G03*
X660560Y969740I-4560J0D01*
G01*
X741560D02*
G03*
X741560Y969740I-4560J0D01*
G01*
D111*
X1137740Y691460D02*
D03*
X1132740D02*
D03*
X1147740Y602460D02*
D03*
X1142740D02*
D03*
X1137740D02*
D03*
X1132740D02*
D03*
X1127740D02*
D03*
X1122740D02*
D03*
X1117740D02*
D03*
X1112740D02*
D03*
X1107740D02*
D03*
X1102740D02*
D03*
X1097740D02*
D03*
X1092740D02*
D03*
X1087740D02*
D03*
X1082740D02*
D03*
X1077740D02*
D03*
X1072740D02*
D03*
Y691460D02*
D03*
X1077740D02*
D03*
X1082740D02*
D03*
X1087740D02*
D03*
X1092740D02*
D03*
X1097740D02*
D03*
X1102740D02*
D03*
X1117740D02*
D03*
X1122740D02*
D03*
X1127740D02*
D03*
X1142740D02*
D03*
X1147740D02*
D03*
X1112740D02*
D03*
X1107740D02*
D03*
D112*
X1336500Y697500D02*
D03*
X1418500Y694500D02*
D03*
X1336500Y691500D02*
D03*
X1418500Y688500D02*
D03*
X1336500Y685500D02*
D03*
X1418500Y682500D02*
D03*
X1336500Y679500D02*
D03*
X1418500Y676500D02*
D03*
X1336500Y673500D02*
D03*
X1418500Y670500D02*
D03*
X1336500Y667500D02*
D03*
X1418500Y664500D02*
D03*
X1336500Y661500D02*
D03*
X1418500Y658500D02*
D03*
X1336500Y655500D02*
D03*
X1418500Y652500D02*
D03*
X1336500Y649500D02*
D03*
X1418500Y646500D02*
D03*
X1336500Y643500D02*
D03*
X1418500Y640500D02*
D03*
X1336500Y637500D02*
D03*
X1418500Y634500D02*
D03*
X1336500Y631500D02*
D03*
X1418500Y628500D02*
D03*
X1336500Y625500D02*
D03*
X1418500Y622500D02*
D03*
X1336500Y619500D02*
D03*
X1418500Y616500D02*
D03*
X1336500Y613500D02*
D03*
X1418500Y610500D02*
D03*
X1336500Y607500D02*
D03*
X1418500Y604500D02*
D03*
X1336500Y601500D02*
D03*
X1418500Y598500D02*
D03*
X1336500Y595500D02*
D03*
X1418500Y592500D02*
D03*
X1336500Y589500D02*
D03*
X1418500Y586500D02*
D03*
X1336500Y583500D02*
D03*
X1418500Y580500D02*
D03*
X1336500Y541500D02*
D03*
X1418500Y538500D02*
D03*
X1336500Y535500D02*
D03*
X1418500Y532500D02*
D03*
X1336500Y529500D02*
D03*
X1418500Y526500D02*
D03*
X1336500Y523500D02*
D03*
X1418500Y520500D02*
D03*
X1336500Y517500D02*
D03*
X1418500Y514500D02*
D03*
X1336500Y511500D02*
D03*
X1418500Y508500D02*
D03*
X1336500Y505500D02*
D03*
X1418500Y502500D02*
D03*
X1336500Y499500D02*
D03*
X1418500Y496500D02*
D03*
X1336500Y493500D02*
D03*
X1418500Y490500D02*
D03*
X1336500Y487500D02*
D03*
X1418500Y484500D02*
D03*
X1336500Y481500D02*
D03*
X1418500Y478500D02*
D03*
X1336500Y475500D02*
D03*
X1418500Y472500D02*
D03*
X1336500Y469500D02*
D03*
X1418500Y466500D02*
D03*
X1336500Y463500D02*
D03*
X1418500Y460500D02*
D03*
X1336500Y457500D02*
D03*
X1418500Y454500D02*
D03*
X1336500Y451500D02*
D03*
X1418500Y448500D02*
D03*
X1336500Y445500D02*
D03*
X1418500Y442500D02*
D03*
X1336500Y439500D02*
D03*
X1418500Y436500D02*
D03*
X1336500Y433500D02*
D03*
X1418500Y430500D02*
D03*
X1336500Y427500D02*
D03*
X1418500Y424500D02*
D03*
X1336500Y421500D02*
D03*
X1418500Y418500D02*
D03*
X1336500Y415500D02*
D03*
X1418500Y412500D02*
D03*
X1336500Y409500D02*
D03*
X1418500Y406500D02*
D03*
X1336500Y403500D02*
D03*
X1418500Y400500D02*
D03*
X1336500Y397500D02*
D03*
X1418500Y394500D02*
D03*
X1336500Y391500D02*
D03*
X1418500Y388500D02*
D03*
X1336500Y385500D02*
D03*
Y379500D02*
D03*
Y373500D02*
D03*
X1418500Y370500D02*
D03*
X1336500Y367500D02*
D03*
Y361500D02*
D03*
Y355500D02*
D03*
X1418500Y352500D02*
D03*
X1336500Y349500D02*
D03*
X1418500Y346500D02*
D03*
X1336500Y343500D02*
D03*
X1418500Y340500D02*
D03*
X1336500Y337500D02*
D03*
X1418500Y334500D02*
D03*
X1336500Y331500D02*
D03*
X1418500Y328500D02*
D03*
X1336500Y325500D02*
D03*
X1418500Y322500D02*
D03*
X1336500Y319500D02*
D03*
X1418500Y316500D02*
D03*
X1336500Y313500D02*
D03*
Y307500D02*
D03*
Y301500D02*
D03*
X1418500Y298500D02*
D03*
X1336500Y295500D02*
D03*
X1418500Y292500D02*
D03*
X1336500Y289500D02*
D03*
X1418500Y286500D02*
D03*
X1336500Y283500D02*
D03*
X1418500Y280500D02*
D03*
X1336500Y277500D02*
D03*
X1418500Y274500D02*
D03*
X1336500Y271500D02*
D03*
X1418500Y268500D02*
D03*
X1336500Y265500D02*
D03*
X1418500Y262500D02*
D03*
X1336500Y259500D02*
D03*
X1418500Y256500D02*
D03*
X1336500Y253500D02*
D03*
X1418500Y250500D02*
D03*
X1336500Y247500D02*
D03*
X1418500Y244500D02*
D03*
X1336500Y241500D02*
D03*
X1418500Y238500D02*
D03*
X1336500Y235500D02*
D03*
X1418500Y232500D02*
D03*
X1336500Y229500D02*
D03*
X1418500Y226500D02*
D03*
Y220500D02*
D03*
Y214500D02*
D03*
X1336500Y211500D02*
D03*
X1418500Y208500D02*
D03*
X1336500Y205500D02*
D03*
X1418500Y202500D02*
D03*
X1336500Y199500D02*
D03*
X1418500Y196500D02*
D03*
X1336500Y193500D02*
D03*
X1418500Y190500D02*
D03*
X1336500Y187500D02*
D03*
X1418500Y184500D02*
D03*
X1336500Y181500D02*
D03*
X1418500Y178500D02*
D03*
X1336500Y175500D02*
D03*
X1418500Y172500D02*
D03*
X1336500Y169500D02*
D03*
X1418500Y166500D02*
D03*
X1336500Y163500D02*
D03*
X1418500Y160500D02*
D03*
X1336500Y157500D02*
D03*
X1418500Y154500D02*
D03*
X1336500Y151500D02*
D03*
X1418500Y148500D02*
D03*
X1336500Y145500D02*
D03*
X1418500Y142500D02*
D03*
X1336500Y139500D02*
D03*
X1418500Y136500D02*
D03*
X1336500Y133500D02*
D03*
X1418500Y130500D02*
D03*
X1336500Y127500D02*
D03*
X1418500Y124500D02*
D03*
X1336500Y121500D02*
D03*
X1418500Y118500D02*
D03*
X1336500Y115500D02*
D03*
X1418500Y112500D02*
D03*
X1336500Y109500D02*
D03*
X1418500Y106500D02*
D03*
X1336500Y103500D02*
D03*
X1418500Y100500D02*
D03*
X1336500Y97500D02*
D03*
X1418500Y94500D02*
D03*
X1336500Y91500D02*
D03*
X1418500Y88500D02*
D03*
X1336500Y85500D02*
D03*
X1418500Y82500D02*
D03*
X1336500Y79500D02*
D03*
X1418500Y76500D02*
D03*
X1336500Y73500D02*
D03*
X1418500Y70500D02*
D03*
X1336500Y67500D02*
D03*
X1418500Y64500D02*
D03*
Y382500D02*
D03*
Y376500D02*
D03*
X1336500Y223500D02*
D03*
Y217500D02*
D03*
X1418500Y364500D02*
D03*
Y358500D02*
D03*
Y310500D02*
D03*
Y304500D02*
D03*
D113*
X1497500Y55500D02*
D03*
Y706500D02*
D03*
D114*
X1262950Y648990D02*
D03*
Y685990D02*
D03*
X1240950D02*
D03*
Y648990D02*
D03*
D115*
X570190Y74360D02*
D03*
X582890D02*
D03*
X595590D02*
D03*
X608290D02*
D03*
X620990D02*
D03*
X633690D02*
D03*
X646390D02*
D03*
X659090D02*
D03*
X671790D02*
D03*
X684490D02*
D03*
Y168600D02*
D03*
X671790D02*
D03*
X659090D02*
D03*
X646390D02*
D03*
X633690D02*
D03*
X620990D02*
D03*
X608290D02*
D03*
X595590D02*
D03*
X582890D02*
D03*
X570190D02*
D03*
D116*
X935000Y95500D02*
D03*
X940000D02*
D03*
X945000D02*
D03*
X950000D02*
D03*
X955000D02*
D03*
X960000D02*
D03*
X965000D02*
D03*
X970000D02*
D03*
X975000D02*
D03*
X980000D02*
D03*
X985000D02*
D03*
Y162500D02*
D03*
X980000D02*
D03*
X975000D02*
D03*
X970000D02*
D03*
X965000D02*
D03*
X960000D02*
D03*
X955000D02*
D03*
X950000D02*
D03*
X945000D02*
D03*
X940000D02*
D03*
X935000D02*
D03*
D117*
X993500Y104000D02*
D03*
Y109000D02*
D03*
Y114000D02*
D03*
Y119000D02*
D03*
Y124000D02*
D03*
Y129000D02*
D03*
Y134000D02*
D03*
Y139000D02*
D03*
Y144000D02*
D03*
Y149000D02*
D03*
Y154000D02*
D03*
X926500D02*
D03*
Y149000D02*
D03*
Y144000D02*
D03*
Y139000D02*
D03*
Y134000D02*
D03*
Y129000D02*
D03*
Y124000D02*
D03*
Y119000D02*
D03*
Y114000D02*
D03*
Y109000D02*
D03*
Y104000D02*
D03*
D118*
X960000Y129000D02*
D03*
D119*
X1118610Y91480D02*
D03*
Y97980D02*
D03*
Y104480D02*
D03*
X1137610D02*
D03*
Y97980D02*
D03*
Y91480D02*
D03*
D120*
X1110240Y646960D02*
D03*
D121*
X1154740Y684460D02*
D03*
Y679460D02*
D03*
Y674460D02*
D03*
Y669460D02*
D03*
Y664460D02*
D03*
Y659460D02*
D03*
Y654460D02*
D03*
Y649460D02*
D03*
Y644460D02*
D03*
Y639460D02*
D03*
Y634460D02*
D03*
Y629460D02*
D03*
Y624460D02*
D03*
Y619460D02*
D03*
Y614460D02*
D03*
Y609460D02*
D03*
X1065740D02*
D03*
Y614460D02*
D03*
Y619460D02*
D03*
Y624460D02*
D03*
Y629460D02*
D03*
Y634460D02*
D03*
Y639460D02*
D03*
Y644460D02*
D03*
Y649460D02*
D03*
Y654460D02*
D03*
Y659460D02*
D03*
Y664460D02*
D03*
Y669460D02*
D03*
Y674460D02*
D03*
Y679460D02*
D03*
Y684460D02*
D03*
D122*
X1094590Y798990D02*
D03*
Y811690D02*
D03*
Y824390D02*
D03*
Y837090D02*
D03*
X1045490D02*
D03*
Y824390D02*
D03*
Y811690D02*
D03*
Y798990D02*
D03*
X1274790Y837531D02*
D03*
Y824831D02*
D03*
Y812131D02*
D03*
Y799431D02*
D03*
X1323890D02*
D03*
Y812131D02*
D03*
Y824831D02*
D03*
Y837531D02*
D03*
D123*
X378500Y864500D02*
D03*
X369000D02*
D03*
X359500D02*
D03*
Y839500D02*
D03*
X378500D02*
D03*
D124*
X422600Y900970D02*
D03*
Y894470D02*
D03*
Y887970D02*
D03*
Y881470D02*
D03*
X448600D02*
D03*
Y887970D02*
D03*
Y894470D02*
D03*
Y900970D02*
D03*
D125*
X67970Y823960D02*
D03*
X111970D02*
D03*
D126*
X627398Y38000D02*
D03*
X608602D02*
D03*
X665602Y922370D02*
D03*
X684398D02*
D03*
X1042622Y76570D02*
D03*
X1061418D02*
D03*
X713602Y922370D02*
D03*
X732398D02*
D03*
X1043122Y54570D02*
D03*
X1061918D02*
D03*
X1175848Y150980D02*
D03*
X1157052D02*
D03*
X1117712Y127980D02*
D03*
X1136508D02*
D03*
X1177008Y44980D02*
D03*
X1158212D02*
D03*
X1117712Y67980D02*
D03*
X1136508D02*
D03*
X1200648Y590000D02*
D03*
X1181852D02*
D03*
X1198648Y689000D02*
D03*
X1179852D02*
D03*
X1285602Y107000D02*
D03*
X1304398D02*
D03*
X1285602Y151000D02*
D03*
X1304398D02*
D03*
X1466602Y410000D02*
D03*
X1485398D02*
D03*
X1466602Y434000D02*
D03*
X1485398D02*
D03*
X1754398Y528000D02*
D03*
X1735602D02*
D03*
X1466602Y498000D02*
D03*
X1485398D02*
D03*
X1466602Y570000D02*
D03*
X1485398D02*
D03*
X1713602Y549000D02*
D03*
X1732398D02*
D03*
X448398Y863000D02*
D03*
X429602D02*
D03*
X468398Y922000D02*
D03*
X449602D02*
D03*
X475602Y888750D02*
D03*
X494398D02*
D03*
X75000Y729000D02*
D03*
X56204D02*
D03*
X75000Y754000D02*
D03*
X56204D02*
D03*
X75000Y779000D02*
D03*
X56204D02*
D03*
X34730Y729330D02*
D03*
X15934D02*
D03*
X34730Y754330D02*
D03*
X15934D02*
D03*
X34730Y779330D02*
D03*
X15934D02*
D03*
X310852Y840270D02*
D03*
X329648D02*
D03*
X203398Y775000D02*
D03*
X184602D02*
D03*
X383602Y922000D02*
D03*
X402398D02*
D03*
X1485398Y603000D02*
D03*
X1466602D02*
D03*
X1485398Y626000D02*
D03*
X1466602D02*
D03*
D127*
X981000Y190602D02*
D03*
Y209398D02*
D03*
X1003000Y190602D02*
D03*
Y209398D02*
D03*
X1044520Y153968D02*
D03*
Y135172D02*
D03*
X1067520D02*
D03*
Y153968D02*
D03*
X1044520Y97172D02*
D03*
Y115968D02*
D03*
X1067520D02*
D03*
Y97172D02*
D03*
X1095450Y134082D02*
D03*
Y152878D02*
D03*
X1095450Y61898D02*
D03*
Y43102D02*
D03*
X1109620Y202488D02*
D03*
Y183692D02*
D03*
X1366000Y833602D02*
D03*
Y852398D02*
D03*
X1220250Y660602D02*
D03*
Y679398D02*
D03*
X1082250Y718602D02*
D03*
Y737398D02*
D03*
X1099250Y551602D02*
D03*
Y570398D02*
D03*
X1571000Y834602D02*
D03*
Y853398D02*
D03*
X1478000Y809398D02*
D03*
Y790602D02*
D03*
X1282000Y67602D02*
D03*
Y86398D02*
D03*
X1281000Y15702D02*
D03*
Y34498D02*
D03*
X1418000Y718352D02*
D03*
Y737148D02*
D03*
X402000Y839602D02*
D03*
Y858398D02*
D03*
X262250Y846270D02*
D03*
Y865066D02*
D03*
D128*
X1140620Y203590D02*
D03*
X1150170Y182590D02*
D03*
X1131070D02*
D03*
D129*
X1754500Y550000D02*
D03*
X1767500D02*
D03*
X1761000Y570000D02*
D03*
D130*
X1732000Y565500D02*
D03*
Y578500D02*
D03*
X1712000Y572000D02*
D03*
D131*
X472680Y864168D02*
D03*
Y845168D02*
D03*
X493680Y854668D02*
D03*
D132*
X274500Y444000D02*
D03*
Y434000D02*
D03*
Y424000D02*
D03*
Y414000D02*
D03*
Y404000D02*
D03*
Y394000D02*
D03*
Y384000D02*
D03*
Y374000D02*
D03*
Y364000D02*
D03*
Y354000D02*
D03*
Y344000D02*
D03*
Y334000D02*
D03*
Y324000D02*
D03*
Y314000D02*
D03*
Y304000D02*
D03*
X274500Y646000D02*
D03*
Y636000D02*
D03*
Y626000D02*
D03*
Y616000D02*
D03*
Y606000D02*
D03*
Y596000D02*
D03*
Y586000D02*
D03*
Y576000D02*
D03*
Y566000D02*
D03*
Y556000D02*
D03*
Y546000D02*
D03*
Y536000D02*
D03*
Y526000D02*
D03*
Y516000D02*
D03*
Y506000D02*
D03*
D133*
X312000Y444000D02*
D03*
Y434000D02*
D03*
Y424000D02*
D03*
Y414000D02*
D03*
Y404000D02*
D03*
Y394000D02*
D03*
Y364000D02*
D03*
Y354000D02*
D03*
Y344000D02*
D03*
Y334000D02*
D03*
Y324000D02*
D03*
Y314000D02*
D03*
Y304000D02*
D03*
X312000Y646000D02*
D03*
Y636000D02*
D03*
Y626000D02*
D03*
Y616000D02*
D03*
Y606000D02*
D03*
Y596000D02*
D03*
Y566000D02*
D03*
Y556000D02*
D03*
Y546000D02*
D03*
Y536000D02*
D03*
Y526000D02*
D03*
Y516000D02*
D03*
Y506000D02*
D03*
Y586000D02*
D03*
Y576000D02*
D03*
X312000Y384000D02*
D03*
Y374000D02*
D03*
D134*
X1672530Y897250D02*
D03*
X1683530D02*
D03*
X1694530D02*
D03*
X1705530D02*
D03*
X1716530D02*
D03*
X1727530D02*
D03*
X1738530D02*
D03*
X1749530D02*
D03*
D135*
X1758430Y917750D02*
D03*
D136*
X1761680Y851450D02*
D03*
D137*
Y800650D02*
D03*
D138*
X1759430Y785600D02*
D03*
D139*
X1759180Y779000D02*
D03*
D140*
X1622680Y781250D02*
D03*
D141*
X1622430Y840500D02*
D03*
D142*
X1625230Y920250D02*
D03*
D143*
X1084750Y192900D02*
D03*
Y177100D02*
D03*
D144*
X847100Y139280D02*
D03*
X862900D02*
D03*
X847100Y210000D02*
D03*
X862900D02*
D03*
X847100Y101000D02*
D03*
X862900D02*
D03*
X847100Y29000D02*
D03*
X862900D02*
D03*
X1142350Y568000D02*
D03*
X1158150D02*
D03*
X1180350Y732000D02*
D03*
X1196150D02*
D03*
D145*
X228400Y966690D02*
D03*
X258700D02*
D03*
D146*
X309940Y906400D02*
D03*
Y936700D02*
D03*
D147*
X268500Y916000D02*
D03*
X199500D02*
D03*
D148*
X568900Y38000D02*
D03*
X585100D02*
D03*
X863100Y163000D02*
D03*
X846900D02*
D03*
X846580Y186000D02*
D03*
X862780D02*
D03*
X863100Y76480D02*
D03*
X846900D02*
D03*
Y53000D02*
D03*
X863100D02*
D03*
X1173550Y127980D02*
D03*
X1157350D02*
D03*
X1134050Y150980D02*
D03*
X1117850D02*
D03*
X1058620Y196672D02*
D03*
X1042420D02*
D03*
X1174550Y67980D02*
D03*
X1158350D02*
D03*
X1134050Y44980D02*
D03*
X1117850D02*
D03*
X1224150Y710000D02*
D03*
X1240350D02*
D03*
X1247150Y621000D02*
D03*
X1263350D02*
D03*
X1024900Y673000D02*
D03*
X1041100D02*
D03*
X1025150Y620000D02*
D03*
X1041350D02*
D03*
X1199350Y568000D02*
D03*
X1183150D02*
D03*
X1198350Y611000D02*
D03*
X1182150D02*
D03*
X1199350Y550250D02*
D03*
X1183150D02*
D03*
X1198350Y632000D02*
D03*
X1182150D02*
D03*
X1196350Y710000D02*
D03*
X1180150D02*
D03*
X1288000Y129000D02*
D03*
X1304200D02*
D03*
X1483100Y522000D02*
D03*
X1466900D02*
D03*
X1483100Y546000D02*
D03*
X1466900D02*
D03*
X369900Y774000D02*
D03*
X386100D02*
D03*
X313150Y863270D02*
D03*
X329350D02*
D03*
X225150Y849270D02*
D03*
X241350D02*
D03*
X252900Y781000D02*
D03*
X269100D02*
D03*
X200350Y849270D02*
D03*
X184150D02*
D03*
D149*
X686000Y969470D02*
D03*
Y953270D02*
D03*
X708000Y969470D02*
D03*
Y953270D02*
D03*
X885000Y152940D02*
D03*
Y136740D02*
D03*
X605000Y969470D02*
D03*
Y953270D02*
D03*
X627000Y969470D02*
D03*
Y953270D02*
D03*
X885000Y195780D02*
D03*
Y211980D02*
D03*
Y86780D02*
D03*
Y102980D02*
D03*
Y42660D02*
D03*
Y26460D02*
D03*
X946000Y49900D02*
D03*
Y66100D02*
D03*
X924000Y49900D02*
D03*
Y66100D02*
D03*
X938000Y207100D02*
D03*
Y190900D02*
D03*
X916000Y207100D02*
D03*
Y190900D02*
D03*
X960000Y207100D02*
D03*
Y190900D02*
D03*
X993000Y49900D02*
D03*
Y66100D02*
D03*
X969000Y49900D02*
D03*
Y66100D02*
D03*
X1095430Y82880D02*
D03*
Y99080D02*
D03*
X1455000Y792900D02*
D03*
Y809100D02*
D03*
X1104250Y735100D02*
D03*
Y718900D02*
D03*
X1061000Y553900D02*
D03*
Y570100D02*
D03*
X1053000Y735100D02*
D03*
Y718900D02*
D03*
X1035000Y735100D02*
D03*
Y718900D02*
D03*
X1143250Y530900D02*
D03*
Y547100D02*
D03*
X1165250Y530900D02*
D03*
Y547100D02*
D03*
X1121250Y553900D02*
D03*
Y570100D02*
D03*
X1080000Y553900D02*
D03*
Y570100D02*
D03*
X1149250Y735100D02*
D03*
Y718900D02*
D03*
X1127250Y735100D02*
D03*
Y718900D02*
D03*
X1303000Y69900D02*
D03*
Y86100D02*
D03*
X1303000Y18000D02*
D03*
Y34200D02*
D03*
X1440000Y734850D02*
D03*
Y718650D02*
D03*
X197000Y975100D02*
D03*
Y958900D02*
D03*
X423000Y797900D02*
D03*
Y814100D02*
D03*
X371000Y797900D02*
D03*
Y814100D02*
D03*
X284250Y862768D02*
D03*
Y846568D02*
D03*
D150*
X1062770Y174172D02*
D03*
X1041270D02*
D03*
D151*
X376500Y890000D02*
D03*
X361500D02*
D03*
D152*
X287000Y978910D02*
D03*
Y957410D02*
D03*
X314000Y978910D02*
D03*
Y957410D02*
D03*
X342000Y978910D02*
D03*
Y957410D02*
D03*
D153*
X649500Y969540D02*
D03*
X730500D02*
D03*
D154*
X647000Y957220D02*
D03*
Y949000D02*
D03*
X656000D02*
D03*
X665000D02*
D03*
Y957220D02*
D03*
X746000D02*
D03*
Y949000D02*
D03*
X737000D02*
D03*
X728000D02*
D03*
Y957220D02*
D03*
D155*
X402000Y898500D02*
D03*
Y883500D02*
D03*
D156*
X298000Y805540D02*
D03*
X328500D02*
D03*
X215500Y810000D02*
D03*
X185000D02*
D03*
D157*
X241030Y823590D02*
D03*
Y819090D02*
D03*
Y814590D02*
D03*
Y810090D02*
D03*
Y805590D02*
D03*
Y801090D02*
D03*
X271030D02*
D03*
Y805590D02*
D03*
Y810090D02*
D03*
Y814590D02*
D03*
Y819090D02*
D03*
Y823590D02*
D03*
D158*
X256030Y812340D02*
D03*
D159*
X390500Y815000D02*
D03*
X403500D02*
D03*
Y795000D02*
D03*
X397000D02*
D03*
X390500D02*
D03*
D160*
X515770Y51800D02*
D03*
Y74800D02*
D03*
X538770Y51800D02*
D03*
Y74800D02*
D03*
D161*
X1377500Y47000D02*
D03*
D162*
Y715000D02*
D03*
D163*
X1528150Y936950D02*
D03*
X1413850D02*
D03*
D164*
X1549750Y906450D02*
D03*
X1392250D02*
D03*
D165*
X1407750Y970750D02*
D03*
X1433150Y985950D02*
D03*
X1508850Y970750D02*
D03*
X1534250Y985950D02*
D03*
D166*
X1426550Y848050D02*
D03*
X1439250Y873450D02*
D03*
X1451950Y848050D02*
D03*
X1464650Y873450D02*
D03*
X1477350Y848050D02*
D03*
X1490050Y873450D02*
D03*
X1502750Y848050D02*
D03*
X1515450Y873450D02*
D03*
D167*
X442940Y983380D02*
D03*
X397940D02*
D03*
D168*
X455440Y958380D02*
D03*
X385440D02*
D03*
D169*
X819000Y161600D02*
D03*
Y78400D02*
D03*
X1298550Y913250D02*
D03*
X1228550D02*
D03*
X1298550Y887150D02*
D03*
X1273550D02*
D03*
X1253550D02*
D03*
X1228550D02*
D03*
X1130550Y913250D02*
D03*
X1060550D02*
D03*
X1130550Y887150D02*
D03*
X1060550D02*
D03*
X1105550D02*
D03*
X1085550D02*
D03*
Y913250D02*
D03*
X1105550D02*
D03*
X1253550D02*
D03*
X1273550D02*
D03*
D170*
X819000Y187000D02*
D03*
Y53000D02*
D03*
D171*
X294010Y128680D02*
D03*
X494010D02*
D03*
D172*
X57000Y72000D02*
D03*
Y662000D02*
D03*
X1737000Y72000D02*
D03*
X1742000Y661000D02*
D03*
X1190000Y301021D02*
D03*
X610000Y302021D02*
D03*
X1189000Y793021D02*
D03*
X610000Y792000D02*
D03*
D173*
X656000Y969740D02*
D03*
X737000D02*
D03*
D174*
X113500Y979500D02*
D03*
D175*
X66500Y904500D02*
D03*
X113500Y934500D02*
D03*
Y874500D02*
D03*
D176*
X1329250Y883650D02*
D03*
X1197850D02*
D03*
Y940450D02*
D03*
X1329250D02*
D03*
X1161250Y883650D02*
D03*
X1029850D02*
D03*
Y940450D02*
D03*
X1161250D02*
D03*
D177*
X329000Y444000D02*
D03*
Y636000D02*
D03*
Y646000D02*
D03*
Y424000D02*
D03*
Y434000D02*
D03*
X1282250Y403500D02*
D03*
X343500Y415000D02*
D03*
X1285725Y397525D02*
D03*
X329000Y414000D02*
D03*
X369900Y762100D02*
D03*
X1110000Y174000D02*
D03*
X983000D02*
D03*
X942000Y109000D02*
D03*
X962000Y108000D02*
D03*
X980000D02*
D03*
X979000Y127000D02*
D03*
X942000Y128000D02*
D03*
X960000Y148000D02*
D03*
X978000Y149000D02*
D03*
X1186980Y150980D02*
D03*
X1700500Y930750D02*
D03*
X1749530Y885280D02*
D03*
X1738530Y885030D02*
D03*
X1716530D02*
D03*
X1694530Y910970D02*
D03*
X1672530Y910970D02*
D03*
X1437000Y634500D02*
D03*
Y628500D02*
D03*
Y646500D02*
D03*
Y652500D02*
D03*
Y664250D02*
D03*
Y670500D02*
D03*
X1319250Y691500D02*
D03*
Y685500D02*
D03*
X916000Y219500D02*
D03*
X938250D02*
D03*
X960000Y220000D02*
D03*
X981000Y221250D02*
D03*
X916000Y179750D02*
D03*
X960000Y180500D02*
D03*
X1003000Y220250D02*
D03*
X1061918Y40332D02*
D03*
X1006900Y66100D02*
D03*
X1042500Y211000D02*
D03*
X1095450Y124300D02*
D03*
X1095430Y110180D02*
D03*
X1266852Y67602D02*
D03*
X585100Y22850D02*
D03*
X608250Y23000D02*
D03*
X1498750Y570000D02*
D03*
X1498250Y498250D02*
D03*
X1418000Y747750D02*
D03*
X1440000Y747500D02*
D03*
X1705530Y884780D02*
D03*
X1053250Y746750D02*
D03*
X1082250Y748250D02*
D03*
X1104250Y748750D02*
D03*
X1127250Y749250D02*
D03*
X1149250Y749000D02*
D03*
X1196150Y746100D02*
D03*
X1080000Y579000D02*
D03*
X1041350Y633400D02*
D03*
X1137740Y588490D02*
D03*
X1041350Y661150D02*
D03*
X328500Y764750D02*
D03*
X423852Y839602D02*
D03*
X348000Y814500D02*
D03*
X468398Y934898D02*
D03*
X605000Y943250D02*
D03*
X627000Y943000D02*
D03*
X686000Y941750D02*
D03*
X708000Y942250D02*
D03*
X582890Y150110D02*
D03*
X633690Y150690D02*
D03*
X684490Y150490D02*
D03*
Y92490D02*
D03*
X646390Y92610D02*
D03*
X570190Y92810D02*
D03*
X568900Y23100D02*
D03*
X917000Y154000D02*
D03*
Y149000D02*
D03*
X918000Y129000D02*
D03*
X969000Y176000D02*
D03*
X1024000Y115000D02*
D03*
X1006000Y101000D02*
D03*
X924000Y37000D02*
D03*
X946000Y37000D02*
D03*
X969000Y37000D02*
D03*
X993000D02*
D03*
X942000Y149000D02*
D03*
X1181980Y127980D02*
D03*
X1150980Y97980D02*
D03*
X1095450Y53450D02*
D03*
X1184750Y68250D02*
D03*
X1071000Y197000D02*
D03*
X1356000Y674000D02*
D03*
X538770Y29230D02*
D03*
X16000Y767000D02*
D03*
X15934Y741000D02*
D03*
X212750Y849270D02*
D03*
X251000Y822000D02*
D03*
X261000D02*
D03*
X251250Y802500D02*
D03*
X261250Y802250D02*
D03*
X256030Y812340D02*
D03*
X231250Y810250D02*
D03*
X279910Y814590D02*
D03*
X213250Y775000D02*
D03*
X423000Y787250D02*
D03*
X397000Y804250D02*
D03*
X239000Y781000D02*
D03*
X301020Y840270D02*
D03*
X302020Y863270D02*
D03*
X284250Y872750D02*
D03*
X359250Y853750D02*
D03*
X349750Y890000D02*
D03*
X402000Y873500D02*
D03*
X605000Y982500D02*
D03*
X627000Y982000D02*
D03*
X686000Y980750D02*
D03*
X708000Y980500D02*
D03*
X1761680Y813250D02*
D03*
Y892500D02*
D03*
X1622500Y907500D02*
D03*
Y853500D02*
D03*
X1622680Y793000D02*
D03*
X1455000Y780750D02*
D03*
X1341631Y812131D02*
D03*
X1224750Y724750D02*
D03*
X1198750Y677500D02*
D03*
X1210750Y632000D02*
D03*
X1234250Y621000D02*
D03*
X1080000Y545000D02*
D03*
X1061000D02*
D03*
X1011750Y620000D02*
D03*
X1011000Y675000D02*
D03*
X1028390Y824390D02*
D03*
X1079500Y679750D02*
D03*
X1099000Y679250D02*
D03*
X1129250Y678750D02*
D03*
X1079750Y663500D02*
D03*
X1098250Y665750D02*
D03*
X1128000Y665500D02*
D03*
X1079250Y648750D02*
D03*
X1099500Y650500D02*
D03*
X1128500D02*
D03*
X1078750Y632500D02*
D03*
X1078500Y619250D02*
D03*
X1099000Y619500D02*
D03*
X1130000Y638750D02*
D03*
X1497500Y603000D02*
D03*
X1499250Y546000D02*
D03*
X1158590Y182590D02*
D03*
X1276250Y129000D02*
D03*
X1303000Y59000D02*
D03*
X1321750Y679500D02*
D03*
X1318000Y18000D02*
D03*
X371750Y922000D02*
D03*
X432280Y894470D02*
D03*
X494000Y900000D02*
D03*
X459720Y900970D02*
D03*
X366750Y839250D02*
D03*
X459168Y845168D02*
D03*
X262250Y874000D02*
D03*
X232090Y801090D02*
D03*
X287000Y988500D02*
D03*
X314000Y988250D02*
D03*
X342000Y988500D02*
D03*
X90500Y779000D02*
D03*
X241000Y874000D02*
D03*
X287000Y947500D02*
D03*
X1027810Y811690D02*
D03*
X1342000Y824831D02*
D03*
X402398Y908750D02*
D03*
X271030Y793500D02*
D03*
X924000Y77000D02*
D03*
X1050000Y570000D02*
D03*
X164000Y850000D02*
D03*
X163750Y839750D02*
D03*
X163500Y830000D02*
D03*
Y819750D02*
D03*
X163250Y809500D02*
D03*
Y799750D02*
D03*
X163500Y789750D02*
D03*
Y780500D02*
D03*
X164000Y768750D02*
D03*
X167500Y729000D02*
D03*
X172000Y850000D02*
D03*
X171750Y839750D02*
D03*
X171000Y830250D02*
D03*
Y819250D02*
D03*
Y808750D02*
D03*
X170750Y800250D02*
D03*
X171000Y790000D02*
D03*
X170750Y780250D02*
D03*
X171250Y769250D02*
D03*
X385750Y761500D02*
D03*
X1273000Y107000D02*
D03*
X608290Y153040D02*
D03*
X595590Y151090D02*
D03*
X918000Y109000D02*
D03*
X918045Y99002D02*
D03*
X969000Y79750D02*
D03*
X980500Y80000D02*
D03*
X1099250Y544000D02*
D03*
X1121000Y545000D02*
D03*
X1144000Y522000D02*
D03*
X1165250D02*
D03*
X1209000Y568000D02*
D03*
X1210000Y591000D02*
D03*
X1208998Y610999D02*
D03*
X296500Y626000D02*
D03*
X296500Y304000D02*
D03*
X296500Y334000D02*
D03*
Y364000D02*
D03*
Y394000D02*
D03*
X296500Y506000D02*
D03*
X296500Y536000D02*
D03*
Y566000D02*
D03*
Y596000D02*
D03*
X1035000Y748000D02*
D03*
X1011000Y710000D02*
D03*
X1116000Y704000D02*
D03*
X1120950Y708950D02*
D03*
X1140000Y704500D02*
D03*
X1135404Y709096D02*
D03*
X1153500Y702750D02*
D03*
X1148904Y707346D02*
D03*
X1101250Y703750D02*
D03*
X1105846Y708346D02*
D03*
X1351000Y475500D02*
D03*
Y469500D02*
D03*
Y463500D02*
D03*
Y457500D02*
D03*
X639780Y957220D02*
D03*
X720780D02*
D03*
X684398Y910852D02*
D03*
X665000Y942250D02*
D03*
X746000Y942750D02*
D03*
X388000Y851000D02*
D03*
X1322500Y667500D02*
D03*
X1172010Y638490D02*
D03*
X1166000Y644500D02*
D03*
X1171510Y623990D02*
D03*
X1165500Y630000D02*
D03*
X1336500Y702750D02*
D03*
X1351000Y79500D02*
D03*
Y103500D02*
D03*
Y121500D02*
D03*
Y157500D02*
D03*
Y211500D02*
D03*
Y193500D02*
D03*
Y175500D02*
D03*
Y265500D02*
D03*
Y247500D02*
D03*
Y229500D02*
D03*
Y319500D02*
D03*
Y301500D02*
D03*
Y283500D02*
D03*
X1322500Y355500D02*
D03*
X1351000Y337500D02*
D03*
Y445500D02*
D03*
X1357000Y432000D02*
D03*
X1351000Y373500D02*
D03*
X1322500Y391500D02*
D03*
X1351000Y517500D02*
D03*
Y499500D02*
D03*
Y481500D02*
D03*
Y535500D02*
D03*
X1735602Y516852D02*
D03*
X1702250Y549000D02*
D03*
X1767750Y540750D02*
D03*
X1271000Y150750D02*
D03*
X1351000Y589500D02*
D03*
Y607500D02*
D03*
Y625500D02*
D03*
Y643500D02*
D03*
Y661500D02*
D03*
X1433500Y532500D02*
D03*
Y514500D02*
D03*
Y496500D02*
D03*
Y478500D02*
D03*
Y442500D02*
D03*
Y424500D02*
D03*
Y406500D02*
D03*
Y388500D02*
D03*
Y370500D02*
D03*
Y352500D02*
D03*
Y334500D02*
D03*
Y316500D02*
D03*
Y298500D02*
D03*
Y262500D02*
D03*
Y244500D02*
D03*
Y226500D02*
D03*
Y208500D02*
D03*
Y172500D02*
D03*
X1399000Y159000D02*
D03*
X1433500Y118500D02*
D03*
Y100500D02*
D03*
Y76500D02*
D03*
Y460500D02*
D03*
X1496750Y410000D02*
D03*
X1495500Y434250D02*
D03*
X1435000Y586500D02*
D03*
X1436500Y622500D02*
D03*
Y640500D02*
D03*
Y676500D02*
D03*
X1055790Y669460D02*
D03*
X1560500Y834750D02*
D03*
X1352000Y833500D02*
D03*
X1209000Y550250D02*
D03*
X1176750Y676500D02*
D03*
X1158150Y579150D02*
D03*
X1183150Y538150D02*
D03*
X1171000Y608000D02*
D03*
X1210750Y623250D02*
D03*
X1169000Y699000D02*
D03*
X1077740Y594760D02*
D03*
X1127750Y594000D02*
D03*
X1436500Y604500D02*
D03*
X1092500Y707500D02*
D03*
X329000Y374000D02*
D03*
Y384000D02*
D03*
X1318000Y216500D02*
D03*
Y225000D02*
D03*
X1319500Y206750D02*
D03*
Y198250D02*
D03*
X329000Y354000D02*
D03*
Y344000D02*
D03*
X1321510Y181490D02*
D03*
X1315500Y187500D02*
D03*
X329000Y314000D02*
D03*
Y324000D02*
D03*
X1405000Y383750D02*
D03*
Y375250D02*
D03*
X329000Y585250D02*
D03*
Y576750D02*
D03*
X1405000Y357250D02*
D03*
Y365750D02*
D03*
X329000Y546750D02*
D03*
Y555250D02*
D03*
X1405000Y303250D02*
D03*
Y311750D02*
D03*
X329000Y525250D02*
D03*
Y516750D02*
D03*
X1313500Y409500D02*
D03*
X1056000Y662250D02*
D03*
X1405000Y658500D02*
D03*
D178*
X1161500Y633500D02*
D03*
M02*
