M48
;Layer_Color=9474304
;FILE_FORMAT=4:4
METRIC,LZ
;TYPE=PLATED
T1F00S00C0.1500
T2F00S00C0.2000
T3F00S00C0.8900
T4F00S00C0.9000
T5F00S00C1.0000
T6F00S00C1.0200
T7F00S00C1.0500
T8F00S00C1.2000
T9F00S00C1.4224
T10F00S00C1.5500
T11F00S00C1.6000
T12F00S00C1.7000
T13F00S00C1.8868
T14F00S00C3.0000
;TYPE=NON_PLATED
T15F00S00C0.5000
T16F00S00C2.2000
T17F00S00C2.3800
T18F00S00C3.2500
%
T01
X011615Y006335
T02
X0053877Y0002923
X005689Y000231
X005851Y0002285
X0060825Y00023
X0064639Y0009261
X0068449Y0009249
Y0015049
X0063369Y0015069
X0060829Y0015304
X0059559Y0015109
X0058289Y0015011
X0057019Y0009281
X00918045Y00099002
X00918Y00109
X00918Y00129
X00917Y00149
Y00154
X00916Y0017975
X0096Y001805
X00969Y00176
X00983Y00174
X00978Y00149
X0096Y00148
X00942Y00149
Y00128
Y00109
X00962Y00108
X0098
X00979Y00127
X009805Y0008
X00969Y0007975
X00969Y00037
X00946Y00037
X00924Y00037
Y00077
X010069Y000661
X01006Y00101
X01024Y00115
X0109543Y0011018
X0109545Y001243
X0111Y00174
X0115859Y0018259
X0118698Y0015098
X0118198Y0012798
X0115098Y0009798
X0118475Y0006825
X01266852Y00067602
X01273Y00107
X0127625Y00129
X01271Y0015075
X01071Y00197
X01061918Y00040332
X0109545Y0005345
X00993Y00037
X01303Y00059
X01318Y00018
X01351Y000795
Y001035
Y001215
Y001575
Y001755
Y001935
X013195Y0019825
X013155Y001875
X0132151Y0018149
X01399Y00159
X014335Y001725
Y001185
Y001005
Y000765
X0170225Y00549
X01735602Y00516852
X0176775Y0054075
X0149925Y00546
X0149875Y0057
X0149825Y0049825
X014335Y004965
Y004785
Y004605
Y004425
Y004245
Y004065
Y003885
Y003705
Y003525
Y003345
Y003165
Y002985
X01405Y0030325
Y0031175
Y0035725
Y0036575
Y0037525
Y0038375
X01351Y003735
X01351Y003375
Y003195
Y003015
Y002835
Y002655
Y002475
Y002295
Y002115
X013195Y0020675
X01318Y002165
Y00225
X014335Y002265
Y002445
Y002625
Y002085
X013225Y003555
Y003915
X013135Y004095
X01285725Y00397525
X01357Y00432
X01351Y004455
Y004575
Y004635
Y004695
Y004755
Y004815
Y004995
Y005175
Y005355
Y005895
X01435Y005865
X014335Y005325
Y005145
X014955Y0043425
X0149675Y0041
X0128225Y004035
X01209Y0055025
Y00568
X0121Y00591
X0115815Y0057915
X0113774Y0058849
X0112775Y00594
X0107774Y0059476
X0108Y00579
Y00545
X01061
X0105Y0057
X0109925Y00544
X01121Y00545
X01144Y00522
X0116525
X0118315Y0053815
X010425Y00211
X01003Y0022025
X00981Y0022125
X0096Y0022
X0093825Y002195
X00916
X00329Y00314
Y00324
Y00344
Y00354
Y00374
Y00384
Y00414
Y00424
Y00434
Y00444
X003435Y00415
X002965Y00394
Y00364
Y00334
X002965Y00304
Y00506
X002965Y00536
Y00566
X00329Y0055525
Y0054675
Y0052525
Y0051675
Y0057675
Y0058525
X000905Y00779
X00016Y00767
X00015934Y00741
X001675Y00729
X00164Y0076875
X0017125Y0076925
X0017075Y0078025
X001635Y007805
Y0078975
X00171Y0079
X0017075Y0080025
X0016325Y0079975
Y008095
X00171Y0080875
Y0081925
X001635Y0081975
Y0083
X00171Y0083025
X0017175Y0083975
X0016375
X00164Y0085
X00172
X0021275Y0084927
X00241Y00874
X0026225Y00874
X0028425Y0087275
X0030202Y0086327
X0030102Y0084027
X0027991Y0081459
X0025603Y0081234
X0025125Y008025
X0026125Y0080225
X0027103Y007935
X00261Y00822
X00251
X0023125Y0081025
X0023209Y0080109
X00239Y00781
X0021325Y00775
X003285Y0076475
X003699Y007621
X0038575Y007615
X00397Y0080425
X00423Y0078725
X00423852Y00839602
X00459168Y00845168
X0045972Y0090097
X0043228Y0089447
X00402398Y0090875
X00402Y008735
X00388Y00851
X0035925Y0085375
X0036675Y0083925
X00348Y008145
X0034975Y0089
X0037175Y00922
X00342Y009885
X00314Y0098825
X00287Y009885
Y009475
X00468398Y00934898
X00329Y00646
Y00636
X002965Y00626
Y00596
X00494Y009
X00605Y0094325
X00627Y00943
X0063978Y0095722
X00627Y00982
X00605Y009825
X00686Y0098075
X00708Y009805
X0072078Y0095722
X00708Y0094225
X00686Y0094175
X00665Y0094225
X00684398Y00910852
X00746Y0094275
X0102839Y0082439
X0102781Y0081169
X01035Y00748
X0105325Y0074675
X0108225Y0074825
X0110425Y0074875
X0112725Y0074925
X0114925Y00749
X01148904Y00707346
X011535Y0070275
X0114Y007045
X01135404Y00709096
X0112095Y0070895
X01116Y00704
X01105846Y00708346
X0110125Y0070375
X010925Y007075
X01099Y0067925
X0109825Y0066575
X010995Y006505
X0107925Y0064875
X0107975Y006635
X010795Y0067975
X0105579Y0066946
X01056Y0066225
X0104135Y0066115
Y006334
X0107875Y006325
X010785Y0061925
X01099Y006195
X0113Y0063875
X011285Y006505
X01128Y006655
X0112925Y0067875
X0117675Y006765
X0119875Y006775
X01169Y00699
X01166Y006445
X0117201Y0063849
X0117151Y0062399
X011655Y0063
X01171Y00608
X01208998Y00610999
X0121075Y0062325
X0121075Y00632
X0123425Y00621
X0122475Y0072475
X0119615Y007461
X01011Y0071
X01011Y00675
X0101175Y0062
X01351Y006255
Y006075
Y006435
Y006615
X01356Y00674
X0132175Y006795
X0131925Y006855
Y006915
X013225Y006675
X013365Y0070275
X01405Y006585
X01437Y0066425
Y006705
X014365Y006765
X01437Y006525
Y006465
X014365Y006405
X01437Y006345
Y006285
X014365Y006225
Y006045
X014975Y00603
X0144Y007475
X01418Y0074775
X01455Y0078075
X01341631Y00812131
X01342Y00824831
X01352Y008335
X015605Y0083475
X016225Y008535
Y009075
X0167253Y0091097
X0162268Y00793
X0176168Y0081325
Y008925
X0174953Y0088528
X0173853Y0088503
X0171653
X0170553Y0088478
X0169453Y0091097
X017005Y0093075
T03
X0142655Y0084805
X0145195
X0147735
X0150275
X0149005Y0087345
X0146465
X0143925
X0151545
T04
X00819Y00053
Y000784
Y001616
Y00187
T05
X0106055Y0088715
X0108555
X0110555
X0113055
Y0091325
X0110555
X0108555
X0106055
X0122855
X0125355
X0127355
Y0088715
X0125355
X0122855
X0129855
Y0091325
T06
X0140775Y0097075
X0143315Y0098595
X0150885Y0097075
X0153425Y0098595
T07
X0039794Y0098338
X0044294
T08
X013775Y00047
T09
X0029401Y0012868
X0049401
T10
X0038544Y0095838
X0045544
T11
X0139225Y0090645
X0154975
T12
X013775Y00715
T13
X000665Y009045
X001135Y008745
Y009345
T14
X00057Y00072
X01737
X0119Y00301021
X0061Y00302021
X00057Y00662
X0061Y00792
X01189Y00793021
X01742Y00661
T15
X00656Y0096974
X00737
T16
X001135Y009795
T17
X0102985Y0088365
Y0094045
X0116125
X0119785
Y0088365
X0116125
X0132925
Y0094045
T18
X0141385Y0093695
X0152815
M30
